<?xml version="1.0" encoding="UTF-8" standalone="no"?>
<svg
   version="1.1"
   width="1510"
   height="2000"
   class="svg_pane"
   data-attrTriangle="{&quot;fill&quot;:&quot;none&quot;,&quot;stroke&quot;:&quot;black&quot;,&quot;stroke-width&quot;:5,&quot;stroke-linecap&quot;:&quot;round&quot;,&quot;stroke-linejoin&quot;:&quot;round&quot;}"
   data-attrPattern="{&quot;fill&quot;:&quot;none&quot;,&quot;stroke&quot;:&quot;black&quot;,&quot;stroke-width&quot;:5,&quot;stroke-linecap&quot;:&quot;round&quot;,&quot;stroke-linejoin&quot;:&quot;round&quot;}"
   id="svg1324"
   sodipodi:docname="kumiko_inlay_gang_2.svg"
   inkscape:version="1.3 (0e150ed, 2023-07-21)"
   xmlns:inkscape="http://www.inkscape.org/namespaces/inkscape"
   xmlns:sodipodi="http://sodipodi.sourceforge.net/DTD/sodipodi-0.dtd"
   xmlns="http://www.w3.org/2000/svg"
   xmlns:svg="http://www.w3.org/2000/svg">
  <defs
     id="defs1324" />
  <sodipodi:namedview
     id="namedview1324"
     pagecolor="#ffffff"
     bordercolor="#000000"
     borderopacity="0.25"
     inkscape:showpageshadow="2"
     inkscape:pageopacity="0.0"
     inkscape:pagecheckerboard="0"
     inkscape:deskcolor="#d1d1d1"
     inkscape:zoom="0.79514653"
     inkscape:cx="694.84048"
     inkscape:cy="383.5771"
     inkscape:window-width="1640"
     inkscape:window-height="997"
     inkscape:window-x="0"
     inkscape:window-y="25"
     inkscape:window-maximized="1"
     inkscape:current-layer="svg1324" />
  <path
     style="color:#000000;fill:#000000;stroke-linecap:round;stroke-linejoin:round;-inkscape-stroke:none"
     d="m 512.16001,137.31252 a 2.5,2.5 0 0 0 -1.05261,-0.13553 2.5,2.5 0 0 0 -0.19781,-0.19683 2.5,2.5 0 0 0 -0.15047,0.15235 2.5,2.5 0 0 0 -0.49676,-0.0643 2.5,2.5 0 0 0 -0.39636,0.30626 2.5,2.5 0 0 0 -0.20681,-0.0556 l -41.9835,24.39349 -42.11764,-24.16301 a 2.5,2.5 0 0 0 -1.05261,-0.13553 2.5,2.5 0 0 0 -0.19781,-0.19683 2.5,2.5 0 0 0 -0.15047,0.15235 2.5,2.5 0 0 0 -0.49676,-0.0643 2.5,2.5 0 0 0 -0.39636,0.30627 2.5,2.5 0 0 0 -0.20681,-0.0556 l -41.98351,24.3935 -42.11763,-24.16302 a 2.5,2.5 0 0 0 -0.33521,-0.0437 2.5,2.5 0 0 0 -0.26829,-0.20349 2.5,2.5 0 0 0 -0.49722,0.066 2.5,2.5 0 0 0 -0.15067,-0.1495 2.5,2.5 0 0 0 -0.14949,0.15066 2.5,2.5 0 0 0 -0.49676,-0.0643 2.5,2.5 0 0 0 -0.26634,0.20522 2.5,2.5 0 0 0 -0.33683,0.0454 l -43.23333,25.11981 a 2.50025,2.50025 0 0 0 -0.21966,0.38287 2.5,2.5 0 0 0 -0.69207,0.53517 2.5,2.5 0 0 0 -0.11196,0.87024 2.50025,2.50025 0 0 0 -0.21479,0.3744 2.5,2.5 0 0 0 -0.006,0.006 l 0.13724,49.99939 a 2.5,2.5 0 0 0 0.002,0.001 2.5,2.5 0 0 0 0.12907,0.31274 2.5,2.5 0 0 0 0.35636,0.85067 2.5,2.5 0 0 0 0.25164,0.60148 2.5,2.5 0 0 0 0.31109,0.1289 2.5,2.5 0 0 0 0.20691,0.26731 l 39.61204,22.72554 -39.4875,22.94327 a 2.50025,2.50025 0 0 0 -0.22063,0.38457 2.5,2.5 0 0 0 -0.69109,0.53347 2.5,2.5 0 0 0 -0.11196,0.87023 2.50025,2.50025 0 0 0 -0.21479,0.3744 2.5,2.5 0 0 0 -0.006,0.006 l 0.13724,49.99938 a 2.50025,2.50025 0 0 0 0.002,10e-4 2.50025,2.50025 0 0 0 0.13937,0.23982 2.5,2.5 0 0 0 -0.053,0.40642 2.5,2.5 0 0 0 1.16872,1.51489 l 39.61372,22.72651 -39.49015,22.94398 a 2.50025,2.50025 0 0 0 -0.21966,0.38288 2.5,2.5 0 0 0 -0.69207,0.53517 2.5,2.5 0 0 0 -0.11195,0.87023 2.50025,2.50025 0 0 0 -0.2148,0.3744 2.5,2.5 0 0 0 -0.006,0.006 l 0.13724,49.99938 a 2.5,2.5 0 0 0 0.002,10e-4 2.50025,2.50025 0 0 0 0.13937,0.23983 2.5,2.5 0 0 0 -0.053,0.40641 2.5,2.5 0 0 0 1.16871,1.51489 l 39.61203,22.72554 -39.48749,22.94326 a 2.50025,2.50025 0 0 0 -0.13899,0.24226 2.5,2.5 0 0 0 -0.50541,0.46887 2.5,2.5 0 0 0 -0.26732,0.20691 2.5,2.5 0 0 0 -0.0825,0.64621 2.5,2.5 0 0 0 -0.24982,0.60424 l 0.13723,49.9994 a 2.50025,2.50025 0 0 0 0.002,9.9e-4 2.5,2.5 0 0 0 7.4e-4,0.003 2.50025,2.50025 0 0 0 0.13865,0.23717 2.5,2.5 0 0 0 -0.053,0.40641 2.5,2.5 0 0 0 1.16871,1.51489 l 39.61373,22.72651 -39.49016,22.94398 a 2.50025,2.50025 0 0 0 -0.13801,0.24057 2.5,2.5 0 0 0 -0.50639,0.47057 2.5,2.5 0 0 0 -0.26732,0.20691 2.5,2.5 0 0 0 -0.0825,0.64619 2.5,2.5 0 0 0 -0.24982,0.60425 l 0.13723,49.99939 a 2.50025,2.50025 0 0 0 0.002,10e-4 2.50025,2.50025 0 0 0 0.13936,0.23982 2.5,2.5 0 0 0 1.11569,1.92131 l 43.36961,24.88127 a 2.50025,2.50025 0 0 0 1.02662,0.17691 2.50025,2.50025 0 0 0 0.21953,0.12364 2.50025,2.50025 0 0 0 0.11224,-0.0662 2.50025,2.50025 0 0 0 0.43243,-0.004 2.5,2.5 0 0 0 0.1068,0.014 2.5,2.5 0 0 0 0.32409,-0.25091 2.50025,2.50025 0 0 0 0.27907,2.4e-4 l 41.98351,-24.39349 42.11756,24.16296 a 2.50025,2.50025 0 0 0 1.02662,0.17692 2.50025,2.50025 0 0 0 0.21954,0.12364 2.50025,2.50025 0 0 0 0.11231,-0.0662 2.50025,2.50025 0 0 0 0.32743,0.0572 2.50025,2.50025 0 0 0 0.10497,-0.0614 2.5,2.5 0 0 0 0.10679,0.014 2.5,2.5 0 0 0 0.32409,-0.25091 2.50025,2.50025 0 0 0 0.27908,2.4e-4 l 41.98616,-24.39421 42.11597,24.16205 a 2.50025,2.50025 0 0 0 1.02395,0.17763 2.50025,2.50025 0 0 0 0.22123,0.12461 2.50025,2.50025 0 0 0 0.11232,-0.0662 2.50025,2.50025 0 0 0 0.32743,0.0573 2.50025,2.50025 0 0 0 0.10767,-0.0621 2.5,2.5 0 0 0 0.4292,-0.23788 2.50025,2.50025 0 0 0 0.27908,2.3e-4 l 43.23237,-25.11812 a 2.5,2.5 0 0 0 0.58424,-0.51597 2.50025,2.50025 0 0 0 0.0778,-0.0454 2.50025,2.50025 0 0 0 0.0133,-0.0352 2.5,2.5 0 0 0 0.0553,-0.0493 2.5,2.5 0 0 0 0.13373,-0.2723 2.50025,2.50025 0 0 0 0.0174,-0.0103 2.50025,2.50025 0 0 0 -2.3e-4,-0.0271 2.5,2.5 0 0 0 0.12469,-0.25271 2.50025,2.50025 0 0 0 0.0874,-0.10525 2.50025,2.50025 0 0 0 -1.3e-4,-0.0743 2.5,2.5 0 0 0 0.0652,-0.13374 2.5,2.5 0 0 0 0.0311,-0.49778 2.50025,2.50025 0 0 0 0.0541,-0.14912 l -0.13723,-49.99938 a 2.5,2.5 0 0 0 -0.0394,-0.0923 2.5,2.5 0 0 0 0.0152,-0.23448 2.5,2.5 0 0 0 -0.0516,-0.15343 2.5,2.5 0 0 0 -0.0765,-0.29836 2.50025,2.50025 0 0 0 -8.7e-4,-0.077 2.50025,2.50025 0 0 0 -0.0861,-0.10115 2.5,2.5 0 0 0 -0.0995,-0.29354 2.5,2.5 0 0 0 -0.0772,-0.0578 2.5,2.5 0 0 0 -0.10502,-0.21336 2.5,2.5 0 0 0 -0.17826,-0.15634 2.5,2.5 0 0 0 -0.16257,-0.14053 2.5,2.5 0 0 0 -0.39455,-0.34409 L 517.01351,539.46674 556.501,516.52348 a 2.5,2.5 0 0 0 0.58424,-0.51597 2.50025,2.50025 0 0 0 0.0778,-0.0454 2.50025,2.50025 0 0 0 0.0132,-0.0352 2.5,2.5 0 0 0 0.18911,-0.32159 2.50025,2.50025 0 0 0 0.0174,-0.0103 2.50025,2.50025 0 0 0 -0.001,-0.0255 2.5,2.5 0 0 0 0.12567,-0.25441 2.50025,2.50025 0 0 0 0.0882,-0.18131 2.5,2.5 0 0 0 0.0975,-0.63308 2.50025,2.50025 0 0 0 0.0521,-0.14574 l -0.13626,-50.00107 a 2.5,2.5 0 0 0 -0.0394,-0.0923 2.5,2.5 0 0 0 0.0152,-0.23448 2.5,2.5 0 0 0 -0.0525,-0.15174 2.5,2.5 0 0 0 -0.0113,-0.1686 2.5,2.5 0 0 0 -0.0659,-0.13236 2.50025,2.50025 0 0 0 -0.0845,-0.17458 2.5,2.5 0 0 0 -0.10124,-0.29451 2.5,2.5 0 0 0 -0.0772,-0.0578 2.5,2.5 0 0 0 -0.28498,-0.37066 2.5,2.5 0 0 0 -0.15918,-0.13859 2.5,2.5 0 0 0 -0.39583,-0.34654 l -39.61203,-22.72554 39.48749,-22.94326 a 2.50025,2.50025 0 0 0 0.28381,-0.34156 2.50025,2.50025 0 0 0 0.3783,-0.21981 2.50025,2.50025 0 0 0 0.11,-0.30167 2.50025,2.50025 0 0 0 0.10961,-0.0655 2.50025,2.50025 0 0 0 -4.8e-4,-0.007 2.50025,2.50025 0 0 0 0.006,-0.003 2.50025,2.50025 0 0 0 0.001,-0.12766 2.50025,2.50025 0 0 0 0.2037,-0.68475 2.50025,2.50025 0 0 0 0.15162,-0.4174 l -0.13723,-49.9994 a 2.5,2.5 0 0 0 -0.0394,-0.0923 2.5,2.5 0 0 0 0.0152,-0.23448 2.5,2.5 0 0 0 -0.0516,-0.15343 2.5,2.5 0 0 0 -0.0123,-0.16691 2.5,2.5 0 0 0 -0.0642,-0.13139 2.50025,2.50025 0 0 0 -8.7e-4,-0.0771 2.50025,2.50025 0 0 0 -0.0861,-0.10115 2.5,2.5 0 0 0 -0.0996,-0.29354 2.5,2.5 0 0 0 -0.0772,-0.0578 2.5,2.5 0 0 0 -0.28329,-0.36969 2.5,2.5 0 0 0 -0.16256,-0.14053 2.5,2.5 0 0 0 -0.39507,-0.34358 l -39.61203,-22.72554 39.48749,-22.94326 a 2.5,2.5 0 0 0 0.58423,-0.51597 2.50025,2.50025 0 0 0 0.0913,-0.0805 2.5,2.5 0 0 0 0.0553,-0.0493 2.5,2.5 0 0 0 0.13374,-0.2723 2.50025,2.50025 0 0 0 0.0174,-0.0103 2.50025,2.50025 0 0 0 -0.001,-0.0255 2.5,2.5 0 0 0 0.12566,-0.25441 2.50025,2.50025 0 0 0 0.0882,-0.18131 2.5,2.5 0 0 0 0.0652,-0.13373 2.5,2.5 0 0 0 0.0321,-0.49947 2.50025,2.50025 0 0 0 0.0521,-0.14574 l -0.13627,-50.00107 a 2.5,2.5 0 0 0 -0.0413,-0.0417 2.5,2.5 0 0 0 0.0172,-0.28511 2.5,2.5 0 0 0 -0.0525,-0.15173 2.5,2.5 0 0 0 -0.0113,-0.16861 2.5,2.5 0 0 0 -0.0659,-0.13236 2.50025,2.50025 0 0 0 -1.4e-4,-0.0743 2.50025,2.50025 0 0 0 -0.0844,-0.10018 2.5,2.5 0 0 0 -0.10124,-0.2945 2.5,2.5 0 0 0 -0.0543,-0.0153 2.5,2.5 0 0 0 -0.12796,-0.25579 2.5,2.5 0 0 0 -0.73489,-0.64245 l -39.61203,-22.72554 39.48749,-22.94326 a 2.50025,2.50025 0 0 0 0.28381,-0.34156 2.50025,2.50025 0 0 0 0.48831,-0.52147 2.50025,2.50025 0 0 0 0.10961,-0.0655 2.50025,2.50025 0 0 0 -4.8e-4,-0.007 2.50025,2.50025 0 0 0 0.006,-0.003 2.50025,2.50025 0 0 0 0.001,-0.12767 2.50025,2.50025 0 0 0 0.2049,-0.24723 2.50025,2.50025 0 0 0 -0.001,-0.43751 2.50025,2.50025 0 0 0 0.15161,-0.4174 l -0.13723,-49.99939 a 2.5,2.5 0 0 0 -0.0413,-0.0417 2.5,2.5 0 0 0 0.0172,-0.2851 2.5,2.5 0 0 0 -0.0516,-0.15343 2.5,2.5 0 0 0 -0.0123,-0.16691 2.5,2.5 0 0 0 -0.0642,-0.13139 2.50025,2.50025 0 0 0 -8.7e-4,-0.0771 2.50025,2.50025 0 0 0 -0.0861,-0.10115 2.5,2.5 0 0 0 -0.0996,-0.29355 2.5,2.5 0 0 0 -0.0552,-0.0137 2.5,2.5 0 0 0 -0.12698,-0.2575 2.5,2.5 0 0 0 -0.73601,-0.64041 z m 5.6064,8.98082 27.18055,15.59356 -18.09223,0.0504 z m -4.32492,2.51083 9.09001,15.64494 -9.00294,15.69269 z m 31.52089,18.08363 -27.09686,15.74212 9.00294,-15.69268 z m -40.85877,-20.55633 -9.00293,15.69267 -18.09126,0.0487 z m 4.33696,2.48812 0.0864,31.33496 -9.08929,-15.64228 z m 39.03265,22.39315 -9.00294,15.69267 -18.09126,0.0487 z m 4.33696,2.48812 0.0864,31.33496 -9.08929,-15.64228 z m -56.69578,-6.67678 9.08832,15.64397 -27.18055,-15.59356 z m 43.3696,24.88127 9.08832,15.64397 -27.18055,-15.59356 z m -107.31956,-45.37516 27.18055,15.59355 -18.09223,0.0504 z m 43.3696,24.88126 27.18055,15.59356 -18.09222,0.0504 z m 43.36961,24.88127 27.18054,15.59356 -18.09222,0.0504 z m -91.06342,-47.24903 9.08929,15.64227 -9.00293,15.69269 z m 31.51751,18.08169 -27.09419,15.74139 9.00294,-15.69268 z m 11.8521,6.79958 9.08929,15.64227 -9.00294,15.69268 z m 31.5175,18.08169 -27.09419,15.74139 9.00294,-15.69268 z m 11.8521,6.79958 9.08929,15.64227 -9.00294,15.69268 z m 31.51751,18.08168 -27.0942,15.7414 9.00294,-15.69268 z m -127.59531,-70.31959 -9.00294,15.69268 -18.09391,0.0494 z m 4.33696,2.48812 0.0871,31.33762 -9.09002,-15.64493 z m 39.03264,22.39314 -9.00293,15.69269 -18.09392,0.0494 z m 4.33696,2.48813 0.0871,31.33762 -9.09001,-15.64493 z m 39.03265,22.39314 -9.00294,15.69269 -18.09392,0.0494 z m 4.33696,2.48813 0.0871,31.33762 -9.09001,-15.64494 z m -100.06538,-31.55805 9.08832,15.64397 -27.18055,-15.59356 z m 43.3696,24.88127 9.08832,15.64397 -27.18055,-15.59356 z m 43.36961,24.88127 9.08831,15.64397 -27.18054,-15.59356 z m -150.69256,-70.25838 27.18732,15.59744 -18.09561,0.0485 z m 43.3696,24.88127 27.18732,15.59744 -18.09561,0.0485 z m 43.3696,24.88127 27.18732,15.59744 -18.0956,0.0485 z m 36.53212,20.95858 38.36008,22.00729 -39.49016,22.94398 a 2.50025,2.50025 0 0 0 -0.21966,0.38287 2.5,2.5 0 0 0 -0.69206,0.53517 2.5,2.5 0 0 0 -0.11196,0.87024 2.50025,2.50025 0 0 0 -0.2148,0.3744 2.5,2.5 0 0 0 -0.006,0.006 l 0.13723,49.99939 a 2.50025,2.50025 0 0 0 0.002,0.001 2.50025,2.50025 0 0 0 0.13936,0.23983 2.5,2.5 0 0 0 -0.053,0.40641 2.5,2.5 0 0 0 1.16871,1.51489 l 39.61204,22.72554 -39.4875,22.94327 a 2.50025,2.50025 0 0 0 -0.22063,0.38456 2.5,2.5 0 0 0 -0.69109,0.53348 2.5,2.5 0 0 0 -0.11196,0.87023 2.50025,2.50025 0 0 0 -0.21479,0.3744 2.5,2.5 0 0 0 -0.006,0.006 l 0.13724,49.99939 a 2.50025,2.50025 0 0 0 0.002,0.001 2.50025,2.50025 0 0 0 0.13937,0.23982 2.5,2.5 0 0 0 -0.053,0.40642 2.5,2.5 0 0 0 1.16872,1.51489 l 39.61372,22.72651 -39.49015,22.94398 a 2.50025,2.50025 0 0 0 -0.21966,0.38287 2.5,2.5 0 0 0 -0.69207,0.53517 2.5,2.5 0 0 0 -0.11195,0.87024 2.50025,2.50025 0 0 0 -0.2148,0.3744 2.5,2.5 0 0 0 -0.006,0.006 l 0.13724,49.99939 a 2.50025,2.50025 0 0 0 0.002,10e-4 2.5,2.5 0 0 0 0.12908,0.31273 2.5,2.5 0 0 0 -0.0427,0.33351 2.5,2.5 0 0 0 0.39908,0.51717 2.5,2.5 0 0 0 0.56271,0.7304 2.5,2.5 0 0 0 0.20692,0.26732 l 39.61203,22.72554 -38.23863,22.21863 -42.11764,-24.16302 a 2.5,2.5 0 0 0 -0.33521,-0.0437 2.5,2.5 0 0 0 -0.5998,-0.15946 2.5,2.5 0 0 0 -0.31542,-0.12919 2.5,2.5 0 0 0 -0.3137,0.13076 2.5,2.5 0 0 0 -0.33352,-0.0427 2.5,2.5 0 0 0 -0.26634,0.20521 2.5,2.5 0 0 0 -0.33682,0.0455 l -41.98351,24.3935 -38.36008,-22.00729 39.4875,-22.94327 a 2.5,2.5 0 0 0 0.41497,-0.41718 2.50025,2.50025 0 0 0 0.2471,-0.14419 2.50025,2.50025 0 0 0 0.0594,-0.16631 2.5,2.5 0 0 0 0.19025,-0.19034 2.5,2.5 0 0 0 0.0683,-0.2603 2.50025,2.50025 0 0 0 0.11357,-0.13525 2.50025,2.50025 0 0 0 -2.4e-4,-0.28611 2.5,2.5 0 0 0 0.15069,-0.5688 l -0.13723,-49.99938 a 2.5,2.5 0 0 0 -0.0413,-0.0417 2.5,2.5 0 0 0 -0.0344,-0.43854 2.5,2.5 0 0 0 -0.0123,-0.16691 2.5,2.5 0 0 0 -0.0642,-0.13139 2.50025,2.50025 0 0 0 -8.8e-4,-0.077 2.50025,2.50025 0 0 0 -0.0861,-0.10115 2.5,2.5 0 0 0 -0.0995,-0.29355 2.5,2.5 0 0 0 -0.0552,-0.0137 2.5,2.5 0 0 0 -0.12699,-0.25748 2.5,2.5 0 0 0 -0.73559,-0.64112 L 343.5351,439.94166 383.02259,416.9984 a 2.5,2.5 0 0 0 0.58423,-0.51597 2.50025,2.50025 0 0 0 0.0778,-0.0454 2.50025,2.50025 0 0 0 0.0133,-0.0352 2.5,2.5 0 0 0 0.0553,-0.0493 2.5,2.5 0 0 0 0.13373,-0.27229 2.50025,2.50025 0 0 0 0.016,-0.0359 2.5,2.5 0 0 0 0.12567,-0.25442 2.50025,2.50025 0 0 0 0.0883,-0.10694 2.50025,2.50025 0 0 0 -8e-5,-0.0744 2.5,2.5 0 0 0 0.0652,-0.13373 2.5,2.5 0 0 0 0.0321,-0.49947 2.50025,2.50025 0 0 0 0.0521,-0.14573 l -0.13626,-50.00108 a 2.5,2.5 0 0 0 -0.0413,-0.0417 2.5,2.5 0 0 0 0.0172,-0.2851 2.5,2.5 0 0 0 -0.0525,-0.15174 2.5,2.5 0 0 0 -0.0772,-0.30101 2.50025,2.50025 0 0 0 -8e-5,-0.0744 2.50025,2.50025 0 0 0 -0.0844,-0.10018 2.5,2.5 0 0 0 -0.10124,-0.29451 2.5,2.5 0 0 0 -0.0543,-0.0153 2.5,2.5 0 0 0 -0.86244,-0.89783 L 343.2616,339.9412 382.74909,316.99794 a 2.5,2.5 0 0 0 0.58424,-0.51598 2.50025,2.50025 0 0 0 0.0778,-0.0454 2.50025,2.50025 0 0 0 0.0133,-0.0352 2.5,2.5 0 0 0 0.18911,-0.32159 2.50025,2.50025 0 0 0 0.0174,-0.0103 2.50025,2.50025 0 0 0 -2.4e-4,-0.0271 2.5,2.5 0 0 0 0.12469,-0.25272 2.50025,2.50025 0 0 0 0.0874,-0.10525 2.50025,2.50025 0 0 0 -8e-5,-0.0744 2.5,2.5 0 0 0 0.0965,-0.63139 2.50025,2.50025 0 0 0 0.0541,-0.14912 l -0.13723,-49.99939 a 2.5,2.5 0 0 0 -0.0413,-0.0417 2.5,2.5 0 0 0 -0.0344,-0.43854 2.5,2.5 0 0 0 -0.0765,-0.29835 2.50025,2.50025 0 0 0 -0.0869,-0.1782 2.5,2.5 0 0 0 -0.0996,-0.29355 2.5,2.5 0 0 0 -0.0552,-0.0137 2.5,2.5 0 0 0 -0.86298,-0.89815 l -39.61203,-22.72554 38.23863,-22.21863 42.11764,24.16302 a 2.50025,2.50025 0 0 0 1.02662,0.17691 2.50025,2.50025 0 0 0 0.33179,0.0575 2.50025,2.50025 0 0 0 0.32743,0.0573 2.50025,2.50025 0 0 0 0.10505,-0.0613 2.5,2.5 0 0 0 0.10679,0.014 2.5,2.5 0 0 0 0.32408,-0.2509 2.50025,2.50025 0 0 0 0.27909,2.3e-4 z m 50.20709,28.80396 27.18732,15.59744 -18.09561,0.0485 z m -177.79923,-97.00963 9.08929,15.64227 -9.00391,15.69438 z m 31.51751,18.08169 -27.09517,15.74308 9.00391,-15.69437 z m 11.8521,6.79958 9.08929,15.64227 -9.00391,15.69437 z m 31.5175,18.08168 -27.09516,15.74309 9.00391,-15.69437 z m 11.8521,6.79959 9.08929,15.64227 -9.00391,15.69437 z m 31.5175,18.08168 -27.09516,15.74309 9.00391,-15.69437 z m 55.2217,31.68086 9.08929,15.64227 -9.0039,15.69437 z m 31.51751,18.08168 -27.09516,15.74309 9.0039,-15.69438 z m -214.33451,-120.08214 -9.00294,15.69269 -18.09222,0.0504 z m 4.33696,2.48813 0.0854,31.33665 -9.08832,-15.64397 z m 39.03264,22.39314 -9.00294,15.69269 -18.09222,0.0504 z m 4.33696,2.48813 0.0854,31.33665 -9.08833,-15.64397 z m 39.03265,22.39314 -9.00294,15.69269 -18.09223,0.0504 z m 4.33696,2.48813 0.0854,31.33665 -9.08832,-15.64397 z m 82.40224,47.27441 -9.00294,15.69268 -18.09222,0.0504 z m 4.33696,2.48813 0.0854,31.33664 -9.08832,-15.64396 z m 39.03264,22.39314 -9.00293,15.69268 -18.09223,0.0504 z m 4.33696,2.48813 0.0854,31.33664 -9.08832,-15.64396 z m -230.17419,-106.20185 9.09074,15.64759 -27.18732,-15.59744 z m 43.36961,24.88127 9.09073,15.64759 -27.18732,-15.59744 z m 43.3696,24.88127 9.09073,15.64759 -27.18732,-15.59744 z m 86.7392,49.76254 9.09074,15.64759 -27.18732,-15.59745 z m 43.36961,24.88126 9.09073,15.6476 -27.18732,-15.59745 z m -237.42934,-120.01729 27.18055,15.59356 -18.09223,0.0504 z m 43.3696,24.88127 27.18055,15.59356 -18.09223,0.0504 z m 130.10881,74.64381 27.18055,15.59356 -18.09223,0.0504 z m 43.36961,24.88127 27.18054,15.59356 -18.09223,0.0504 z m -221.17295,-121.8955 9.09098,15.64324 -9.0039,15.69437 z m 31.52089,18.08362 -27.09685,15.74212 9.00293,-15.69267 z m 11.84872,6.79765 9.09098,15.64324 -9.00391,15.69437 z m 31.52088,18.08362 -27.09685,15.74212 9.00293,-15.69268 z m 98.58792,56.56018 9.09099,15.64325 -9.00391,15.69437 z m 31.52089,18.08363 -27.09685,15.74212 9.00293,-15.69268 z m 11.84872,6.79764 9.09098,15.64324 -9.00391,15.69438 z m 31.52088,18.08363 -27.09685,15.74212 9.00293,-15.69268 z m -214.33717,-120.08142 -9.00196,15.69099 -18.09223,0.0504 z m 4.33696,2.48813 0.0864,31.33495 -9.08929,-15.64227 9.9e-4,-0.002 z m 169.14145,97.03695 -9.00196,15.69099 -0.001,0.002 -18.09125,0.0487 z m 4.33697,2.48813 0.0863,31.33495 -9.08832,-15.64396 z m -186.80459,-81.32058 9.0917,15.6459 -27.18732,-15.59745 z m 173.47841,99.52507 9.0917,15.64591 -27.18732,-15.59745 z m -150.68916,-70.25644 27.18054,15.59356 -18.09223,0.0504 z m 173.47841,99.52508 27.18054,15.59356 -18.09223,0.0504 z m -177.80334,-97.01424 9.09098,15.64324 -9.00391,15.69438 z m 31.52089,18.08363 -27.09686,15.74212 9.00294,-15.69268 z m 141.95752,81.44145 9.09098,15.64324 -9.00391,15.69438 z m 31.52089,18.08363 -27.09686,15.74211 9.00294,-15.69267 z m -214.33718,-120.08141 -9.00196,15.69098 -10e-4,0.002 -18.09125,0.0487 z m 4.33696,2.48813 0.0864,31.33494 -9.08832,-15.64396 z m 39.03265,22.39314 -9.00197,15.69098 -9.9e-4,0.002 -18.09126,0.0487 z m 4.33696,2.48812 0.0863,31.33495 -9.08832,-15.64396 z m 125.77184,72.15569 -9.00196,15.69098 -9.9e-4,0.002 -18.09126,0.0487 z m 4.33696,2.48812 0.0864,31.33495 -9.08832,-15.64396 z m 39.03265,22.39314 -9.00197,15.69099 -18.09222,0.0504 z m 4.33696,2.48813 0.0863,31.33495 -9.08929,-15.64227 10e-4,-0.002 z m -230.17419,-106.20186 9.08832,15.64398 -27.18055,-15.59356 z m 43.3696,24.88127 9.08832,15.64397 -27.18055,-15.59355 z m 130.10881,74.64381 9.08832,15.64397 -27.18055,-15.59356 z m 43.36961,24.88127 9.08831,15.64397 -27.18054,-15.59356 z m -237.42838,-120.01897 27.18055,15.59356 -18.09222,0.0504 z m 43.36961,24.88127 27.18054,15.59355 -18.09222,0.0504 z m 130.10881,74.6438 27.18054,15.59356 -18.09222,0.0504 z m 43.3696,24.88127 27.18054,15.59356 -18.09222,0.0504 z m -221.17222,-121.89284 9.08832,15.64396 -9.00197,15.691 z m 31.5175,18.08169 -27.09419,15.74139 9.00197,-15.69099 9.9e-4,-0.002 z m 11.8521,6.79958 9.08832,15.64396 -9.00197,15.691 z m 31.5175,18.08169 -27.09419,15.74139 9.00197,-15.69099 10e-4,-0.002 z m 98.59131,56.56212 9.08832,15.64396 -9.00197,15.69099 z m 31.5175,18.08168 -27.09419,15.7414 9.00197,-15.69099 9.9e-4,-0.002 z m 11.8521,6.79959 9.08832,15.64396 -9.00197,15.69099 z m 31.51751,18.08168 -27.0942,15.7414 9.00197,-15.69099 10e-4,-0.002 z M 331.3104,296.80503 l -9.00294,15.69267 -18.09392,0.0494 z m 4.33696,2.48812 0.0871,31.33762 -9.09098,-15.64324 z m 169.14145,97.03695 -9.00294,15.69268 -18.09392,0.0494 z m 4.33696,2.48813 0.0871,31.33762 -9.09098,-15.64325 z m -186.80458,-81.32059 9.08831,15.64397 -27.18054,-15.59356 z m 173.47841,99.52508 9.08831,15.64397 -27.18054,-15.59356 z m -150.69256,-70.25838 27.18732,15.59744 -18.09561,0.0485 z m 173.47841,99.52507 27.18732,15.59745 -18.09561,0.0485 z m -177.79923,-97.00962 9.08832,15.64396 -9.00294,15.69268 z m 31.51751,18.08168 -27.09516,15.74309 9.00293,-15.69268 10e-4,-0.002 z m 141.9609,81.44339 9.08832,15.64397 -9.00293,15.69268 z m 31.51751,18.08169 -27.09516,15.74309 9.00294,-15.69269 9.9e-4,-0.002 z m -214.33451,-120.08214 -9.00391,15.69438 -18.09125,0.0487 z m 4.33696,2.48813 0.0854,31.33665 -9.08832,-15.64397 z m 39.03264,22.39314 -9.00293,15.69269 -18.09223,0.0504 z m 4.33696,2.48813 0.0854,31.33665 -9.0893,-15.64228 z m 125.77185,72.15568 -9.00294,15.69268 -18.09222,0.0504 z m 4.33696,2.48813 0.0854,31.33664 -9.08929,-15.64227 z m 39.03264,22.39314 -9.00293,15.69268 -18.09223,0.0504 z m 4.33697,2.48813 0.0854,31.33664 -9.08929,-15.64227 z m -230.17419,-106.20186 9.09073,15.6476 -27.18732,-15.59744 z m 43.3696,24.88127 9.09073,15.6476 -27.18732,-15.59744 z m 130.10881,74.64381 9.09073,15.6476 -27.18732,-15.59745 z m 43.3696,24.88126 9.09073,15.64761 -27.18732,-15.59745 z m -237.42934,-120.01728 27.18055,15.59356 -18.09223,0.0504 z m 43.36961,24.88127 27.18054,15.59356 -18.09223,0.0504 z m 130.1088,74.64381 27.18055,15.59356 -18.09223,0.0504 z m 43.36961,24.88127 27.18054,15.59356 -18.09223,0.0504 z m -221.17295,-121.8955 9.09002,15.64493 -9.00294,15.69268 z m 31.52089,18.08362 -27.09685,15.74212 9.00294,-15.69268 z m 11.84872,6.79764 9.09001,15.64494 -9.00294,15.69268 z m 31.52088,18.08363 -27.09685,15.74212 9.00294,-15.69269 z m 98.58792,56.56018 9.09002,15.64494 -9.00294,15.69268 z m 31.52089,18.08363 -27.09685,15.74212 9.00294,-15.69269 z m 11.84872,6.79764 9.09001,15.64493 -9.00294,15.69269 z m 31.52089,18.08363 -27.09686,15.74211 9.00294,-15.69268 z m -214.33718,-120.08142 -9.00293,15.69268 -18.09126,0.0487 z m 4.33697,2.48813 0.0863,31.33495 -9.08929,-15.64227 z m 169.14145,97.03695 -9.00294,15.69268 -18.09126,0.0487 z m 4.33696,2.48813 0.0863,31.33495 -9.08929,-15.64227 z m -186.80459,-81.32058 9.0917,15.6459 -27.18732,-15.59745 z m 173.47841,99.52507 9.0917,15.64591 -27.18732,-15.59745 z m -150.68916,-70.25644 27.18054,15.59356 -18.09223,0.0504 z m 173.47841,99.52508 27.18055,15.59355 -18.09223,0.0504 z M 341.059,449.27759 l 9.09001,15.64494 -9.00294,15.69268 z m 31.52089,18.08363 -27.09686,15.74212 9.00294,-15.69268 z m 141.95752,81.44145 9.09001,15.64494 -9.00294,15.69268 z m 31.52089,18.08363 -27.09686,15.74211 9.00294,-15.69267 z m -214.33717,-120.08142 -9.00294,15.69268 -18.09125,0.0487 z m 4.33696,2.48813 0.0863,31.33495 -9.08929,-15.64227 z m 39.03264,22.39314 -9.00294,15.69268 -18.09125,0.0487 z m 4.33696,2.48812 0.0864,31.33496 -9.08929,-15.64227 z m 125.77185,72.15569 -9.00294,15.69268 -18.09125,0.0487 z m 4.33696,2.48812 0.0864,31.33496 -9.08929,-15.64227 z m 39.03264,22.39314 -9.00294,15.69269 -18.09125,0.0487 z m 4.33696,2.48813 0.0863,31.33496 -9.08929,-15.64227 z M 322.73191,467.4975 l 9.08832,15.64397 -27.18054,-15.59356 z m 43.36961,24.88127 9.08832,15.64396 -27.18055,-15.59355 z m 130.1088,74.64381 9.08832,15.64396 -27.18054,-15.59356 z m 43.36961,24.88127 9.08832,15.64396 -27.18055,-15.59356 z m -237.42837,-120.01898 27.18055,15.59356 -18.09223,0.0504 z m 43.3696,24.88127 27.18055,15.59355 -18.09223,0.0504 z m 86.73921,49.76253 27.18054,15.59356 -18.09223,0.0504 z m 43.3696,24.88127 27.18055,15.59356 -18.09223,0.0504 z m 43.3696,24.88127 27.18055,15.59356 -18.09223,0.0504 z m -221.17222,-121.89283 9.08929,15.64227 -9.00294,15.69268 z m 31.5175,18.08169 -27.09419,15.74138 9.00294,-15.69267 z m 11.8521,6.79958 9.08929,15.64227 -9.00293,15.69268 z m 31.51751,18.08169 -27.09419,15.74138 9.00293,-15.69267 z m 55.2217,31.68085 9.08929,15.64227 -9.00294,15.69267 z m 31.5175,18.08168 -27.09419,15.74139 9.00294,-15.69267 z m 11.8521,6.79959 9.08929,15.64227 -9.00293,15.69267 z m 31.5175,18.08168 -27.09418,15.74139 9.00293,-15.69267 z m 11.8521,6.79959 9.08929,15.64227 -9.00293,15.69267 z m 31.51751,18.08168 -27.09419,15.74139 9.00293,-15.69268 z m -214.33451,-120.08214 -9.00294,15.69268 -18.09392,0.0494 z m 4.33696,2.48813 0.0871,31.33762 -9.09001,-15.64494 z m 82.40224,47.27441 -9.00293,15.69268 -18.09392,0.0494 z m 4.33696,2.48813 0.0871,31.33762 -9.09001,-15.64495 z m 39.03265,22.39314 -9.00294,15.69268 -18.09392,0.0494 z m 4.33696,2.48813 0.0871,31.33762 -9.09001,-15.64495 z m 39.03264,22.39314 -9.00294,15.69268 -18.09392,0.0494 z m 4.33696,2.48813 0.0871,31.33761 -9.09,-15.64494 z m -186.80458,-81.32059 9.08831,15.64397 -27.18054,-15.59356 z m 86.7392,49.76254 9.08832,15.64397 -27.18055,-15.59356 z m 43.3696,24.88127 9.08832,15.64397 -27.18055,-15.59356 z m 43.36961,24.88127 9.08831,15.64397 -27.18054,-15.59356 z M 345.655,546.76359 l 27.18732,15.59744 -18.09561,0.0485 z m 43.3696,24.88126 27.18732,15.59745 -18.0956,0.0485 z m 43.36961,24.88127 27.18732,15.59745 -18.09561,0.0485 z m -91.06003,-47.24708 9.0893,15.64227 -9.00391,15.69437 z m 31.51751,18.08168 -27.09516,15.74309 9.00391,-15.69438 z m 11.8521,6.79959 9.08929,15.64227 -9.00391,15.69437 z m 31.5175,18.08168 -27.09516,15.74309 9.00391,-15.69438 z m 11.8521,6.79958 9.08929,15.64228 -9.00391,15.69437 z m 31.51751,18.08169 -27.09517,15.74309 9.00391,-15.69438 z m -127.59531,-70.3196 -9.00293,15.69268 -18.09223,0.0504 z m 4.33696,2.48813 0.0854,31.33664 -9.08831,-15.64397 z m 39.03264,22.39314 -9.00293,15.69268 -18.09223,0.0504 z m 4.33697,2.48813 0.0854,31.33664 -9.08832,-15.64397 z m 39.03264,22.39314 -9.00294,15.69267 -18.09223,0.0504 z m 4.33696,2.48813 0.0854,31.33664 -9.08832,-15.64397 z m -100.06538,-31.55805 9.09073,15.6476 -27.18732,-15.59745 z m 43.3696,24.88127 9.09073,15.6476 -27.18732,-15.59745 z m 43.36961,24.88127 9.09072,15.6476 -27.18732,-15.59745 z m -107.32054,-45.37348 27.18055,15.59356 -18.09223,0.0504 z m 43.36961,24.88127 27.18054,15.59356 -18.09222,0.0504 z m -47.69454,-22.37043 9.09099,15.64325 -9.00391,15.69437 z m 31.52089,18.08363 -27.09685,15.74212 9.00294,-15.69269 z m 11.84872,6.79764 9.09098,15.64324 -9.00391,15.69438 z m 31.52089,18.08363 -27.09686,15.74212 9.00294,-15.69269 z m -40.85876,-20.55634 -9.00197,15.69098 -18.09223,0.0504 z m 4.33696,2.48813 0.0863,31.33495 -9.08929,-15.64227 9.9e-4,-0.002 z m -13.32618,18.20449 9.0917,15.64591 -27.18732,-15.59745 z"
     id="polyline506" />
  <path
     style="color:#000000;fill:#000000;stroke-linecap:round;stroke-linejoin:round;-inkscape-stroke:none"
     d="m 1181.9947,127.83433 a 2.5,2.5 0 0 0 -1.0529,-0.13387 2.5,2.5 0 0 0 -0.1981,-0.19651 2.5,2.5 0 0 0 -0.1505,0.15245 2.5,2.5 0 0 0 -0.8927,0.24336 2.5,2.5 0 0 0 -0.2069,-0.0552 l -41.9447,24.46023 -42.156,-24.09596 a 2.5,2.5 0 0 0 -0.3379,-0.0424 2.5,2.5 0 0 0 -0.6044,-0.15875 2.5,2.5 0 0 0 -0.3096,-0.12744 2.5,2.5 0 0 0 -0.1493,0.15091 2.5,2.5 0 0 0 -0.7629,0.14211 2.5,2.5 0 0 0 -0.3367,0.046 l -41.9447,24.46027 -42.156,-24.09598 a 2.5,2.5 0 0 0 -0.3379,-0.0424 2.5,2.5 0 0 0 -0.6044,-0.15876 2.5,2.5 0 0 0 -0.3096,-0.12744 2.5,2.5 0 0 0 -0.1493,0.1509 2.5,2.5 0 0 0 -0.7629,0.14211 2.5,2.5 0 0 0 -0.3367,0.046 l -43.19333,25.18856 a 2.50025,2.50025 0 0 0 -0.22002,0.38492 2.5,2.5 0 0 0 -0.69025,0.53457 2.5,2.5 0 0 0 -0.11033,0.86605 2.50025,2.50025 0 0 0 -0.22001,0.38492 l 0.21678,49.9991 a 2.50025,2.50025 0 0 0 1.26019,2.1601 l 39.64817,22.66249 -39.45096,23.00606 a 2.50025,2.50025 0 0 0 -0.22002,0.38492 2.5,2.5 0 0 0 -0.69025,0.53457 2.5,2.5 0 0 0 -0.11033,0.86605 2.50025,2.50025 0 0 0 -0.22001,0.38492 l 0.21678,49.99911 a 2.50025,2.50025 0 0 0 1.26019,2.16009 l 39.6498,22.66346 -39.45357,23.0068 a 2.50025,2.50025 0 0 0 -0.22001,0.38491 2.5,2.5 0 0 0 -0.69026,0.53457 2.5,2.5 0 0 0 -0.11032,0.86606 2.50025,2.50025 0 0 0 -0.22002,0.38491 l 0.21679,49.99911 a 2.50025,2.50025 0 0 0 1.26018,2.1601 l 39.64821,22.66251 -39.45097,23.00605 a 2.50025,2.50025 0 0 0 -0.22002,0.38492 2.5,2.5 0 0 0 -0.69026,0.53456 2.5,2.5 0 0 0 -0.11032,0.86606 2.50025,2.50025 0 0 0 -0.22001,0.38492 l 0.21678,49.9991 a 2.50025,2.50025 0 0 0 1.26018,2.1601 l 39.64982,22.66344 -39.45358,23.00681 a 2.50025,2.50025 0 0 0 -0.13666,0.23909 2.5,2.5 0 0 0 -0.5076,0.47475 2.5,2.5 0 0 0 -0.26601,0.20565 2.5,2.5 0 0 0 -0.0823,0.64364 2.5,2.5 0 0 0 -0.24809,0.60733 l 0.21679,49.99911 a 2.50025,2.50025 0 0 0 1.26017,2.16009 l 43.40913,24.81224 a 2.50025,2.50025 0 0 0 1.6846,0.28801 2.50025,2.50025 0 0 0 0.5117,-0.29698 2.50025,2.50025 0 0 0 0.3028,-0.002 l 41.9447,-24.46023 42.1577,24.09695 a 2.50025,2.50025 0 0 0 1.6846,0.28802 2.50025,2.50025 0 0 0 0.5116,-0.29698 2.50025,2.50025 0 0 0 0.3028,-0.002 l 41.9474,-24.46099 42.1561,24.09601 a 2.50025,2.50025 0 0 0 1.6836,0.28972 2.50025,2.50025 0 0 0 0.5136,-0.30038 2.50025,2.50025 0 0 0 0.3018,-7e-4 l 14.2299,-8.29789 a 2.5,2.5 0 0 0 0,-0.003 2.5,2.5 0 0 0 0,-0.005 l 28.9525,-16.88337 a 2.50025,2.50025 0 0 0 0.2822,-0.34042 2.50025,2.50025 0 0 0 0.3806,-0.22113 2.50025,2.50025 0 0 0 0.1491,-0.41415 2.50025,2.50025 0 0 0 0.2812,-0.33872 2.50025,2.50025 0 0 0 -0,-0.44018 2.50025,2.50025 0 0 0 0.1501,-0.41585 l -0.072,-16.47503 10e-4,-0.002 -0.1457,-33.52238 a 2.5,2.5 0 0 0 -0.04,-0.0408 2.5,2.5 0 0 0 0.017,-0.28515 2.5,2.5 0 0 0 -0.1308,-0.38521 2.50025,2.50025 0 0 0 -0,-0.14255 2.50025,2.50025 0 0 0 -0.082,-0.0965 2.5,2.5 0 0 0 -0.1014,-0.2987 2.5,2.5 0 0 0 -0.1941,-0.0502 2.50025,2.50025 0 0 0 -0.7254,-0.86008 l -39.6498,-22.66344 10.492,-6.11958 10e-4,-0.002 a 2.5,2.5 0 0 0 10e-4,-0.002 l 28.9551,-16.88413 a 2.50025,2.50025 0 0 0 0.2822,-0.34042 2.50025,2.50025 0 0 0 0.3806,-0.22113 2.50025,2.50025 0 0 0 0.1492,-0.41415 2.50025,2.50025 0 0 0 0.2796,-0.7805 2.50025,2.50025 0 0 0 0.1492,-0.41415 l -0.072,-16.47503 0,-0.003 a 2.5,2.5 0 0 0 10e-4,-0.002 l -0.145,-33.5197 a 2.5,2.5 0 0 0 -0.04,-0.0408 2.5,2.5 0 0 0 0.017,-0.28515 2.5,2.5 0 0 0 -0.1317,-0.38352 2.50025,2.50025 0 0 0 -5e-4,-0.14425 2.50025,2.50025 0 0 0 -0.083,-0.0991 2.5,2.5 0 0 0 -0.1017,-0.29436 2.5,2.5 0 0 0 -0.1897,-0.0499 2.50025,2.50025 0 0 0 -0.7288,-0.86201 l -39.6498,-22.66344 10.4884,-6.11713 a 2.5,2.5 0 0 0 0,-0.003 2.5,2.5 0 0 0 0,-0.005 l 28.9525,-16.88337 a 2.50025,2.50025 0 0 0 0.2821,-0.34042 2.50025,2.50025 0 0 0 0.5296,-0.63539 2.50025,2.50025 0 0 0 0.2788,-0.7788 2.50025,2.50025 0 0 0 0.1501,-0.41585 l -0.2168,-49.99911 a 2.5,2.5 0 0 0 -0.04,-0.0408 2.5,2.5 0 0 0 0.017,-0.28516 2.5,2.5 0 0 0 -0.1308,-0.38521 2.50025,2.50025 0 0 0 -0,-0.14256 2.50025,2.50025 0 0 0 -0.082,-0.0965 2.5,2.5 0 0 0 -0.1015,-0.2987 2.5,2.5 0 0 0 -0.1941,-0.0502 2.50025,2.50025 0 0 0 -0.7254,-0.86007 l -39.6498,-22.66345 10.4921,-6.11957 0,-0.002 a 2.5,2.5 0 0 0 9e-4,-0.002 l 28.9552,-16.88412 a 2.50025,2.50025 0 0 0 0.2821,-0.34042 2.50025,2.50025 0 0 0 0.5296,-0.63539 2.50025,2.50025 0 0 0 0.2822,-0.34042 2.50025,2.50025 0 0 0 -0,-0.44017 2.50025,2.50025 0 0 0 0.1492,-0.41415 l -0.2158,-50.0008 a 2.5,2.5 0 0 0 -0.04,-0.0408 2.5,2.5 0 0 0 -0.115,-0.66867 2.50025,2.50025 0 0 0 -5e-4,-0.14425 2.50025,2.50025 0 0 0 -0.083,-0.0991 2.5,2.5 0 0 0 -0.1017,-0.29437 2.5,2.5 0 0 0 -0.1897,-0.0499 2.50025,2.50025 0 0 0 -0.7288,-0.862 l -39.6499,-22.66345 10.4885,-6.11713 a 2.5,2.5 0 0 0 0,-0.003 2.5,2.5 0 0 0 0,-0.005 l 28.9525,-16.88338 a 2.50025,2.50025 0 0 0 0.2821,-0.34041 2.50025,2.50025 0 0 0 0.3806,-0.22113 2.50025,2.50025 0 0 0 0.1492,-0.41416 2.50025,2.50025 0 0 0 0.2812,-0.33872 2.50025,2.50025 0 0 0 -0,-0.44018 2.50025,2.50025 0 0 0 0.1502,-0.41585 l -0.2168,-49.99911 a 2.5,2.5 0 0 0 -0.04,-0.0408 2.5,2.5 0 0 0 -0.1141,-0.67036 2.50025,2.50025 0 0 0 -0,-0.14256 2.50025,2.50025 0 0 0 -0.082,-0.0965 2.5,2.5 0 0 0 -0.1014,-0.2987 2.5,2.5 0 0 0 -0.1941,-0.0502 2.50025,2.50025 0 0 0 -0.7254,-0.86007 z m 1.2781,6.4897 21.5281,12.30528 -9.4929,5.42635 -11.9893,-6.99247 z m 26.566,15.18489 9.3228,5.32883 -21.4181,12.49049 0.046,-10.93178 z m -31.566,-15.16322 0.1058,24.79558 -9.4432,-5.50788 0.059,-13.87831 z m 43.4092,24.81223 0.1057,24.79559 -9.4432,-5.50789 0.059,-13.8783 z m -38.3374,-8.29152 9.4448,5.50883 -0.059,13.87566 -9.2778,5.41208 z m -19.364,-8.18865 -0.046,10.93616 -12.0466,6.88678 -9.3261,-5.33071 z m 43.4092,24.81223 -0.046,10.93617 -12.0466,6.88677 -9.3261,-5.33071 10.4884,-6.11712 a 2.5,2.5 0 0 0 0,-0.003 2.5,2.5 0 0 0 0,-0.005 z m -40.9729,-9.53697 11.9876,6.99147 0.046,10.73921 -21.5249,-12.30339 z m 43.4091,24.81224 11.9876,6.99146 0.046,10.73922 -21.5248,-12.3034 z m -113.1548,-48.06661 21.5283,12.30531 -9.493,5.42634 -11.9893,-6.99246 z m 26.5661,15.1849 9.3227,5.32878 -21.418,12.49054 0.046,-10.93178 z m 16.8431,9.62735 21.5282,12.30528 -9.493,5.42635 -11.9893,-6.99246 z m 26.5661,15.18489 9.3228,5.32883 -21.4182,12.49049 0.046,-10.93178 z m 16.8431,9.62735 21.5281,12.30528 -9.4929,5.42635 -11.9894,-6.99246 z m 26.566,15.18489 9.3228,5.32882 -21.4181,12.49049 0.046,-10.93178 z m -118.3843,-64.78771 0.045,10.74089 -11.9259,7.09299 -9.5398,-5.34265 z m 43.4092,24.81225 0.1058,24.79558 -9.4433,-5.50788 0.059,-13.8783 z m 43.4091,24.81223 0.045,10.74087 -11.9258,7.09298 -9.5399,-5.34265 z m -81.7465,-33.10373 9.4449,5.50882 -0.06,13.87564 -9.2778,5.41208 z m 43.4091,24.81221 9.4449,5.50883 -0.06,13.87566 -9.2778,5.41209 z m 43.4091,24.81224 9.4449,5.50882 -0.06,13.87566 -9.2777,5.41209 z m -62.773,-33.00089 -0.046,10.93616 -12.0466,6.88679 -9.3261,-5.33073 10.4884,-6.11712 a 2.5,2.5 0 0 0 0.014,-0.004 z m -29.0461,-16.60015 0.1067,24.79388 -9.3244,-5.32978 -0.1793,-13.87501 z m 86.8183,49.62449 0.1067,24.79389 -9.3245,-5.32982 -0.1793,-13.87495 z m -101.214,-43.97249 0.1401,10.93252 -21.5265,-12.30435 9.2769,-5.41037 z m 45.878,26.22346 11.9876,6.99146 0.046,10.73922 -21.5248,-12.30339 z m 40.9402,23.40101 0.1402,10.93253 -21.5265,-12.30433 9.2768,-5.4104 z m -154.0967,-71.46859 21.5299,12.30629 -9.4939,5.42802 -11.9893,-6.99246 z m 26.5678,15.18587 9.3245,5.32978 -21.4208,12.49123 0.047,-10.93347 z m 16.8414,9.62637 21.5299,12.30628 -9.4939,5.42803 -11.9894,-6.99247 z m 26.5677,15.18586 9.3245,5.32978 -21.4208,12.49123 0.047,-10.93346 z m 16.8414,9.62638 21.5299,12.30626 -9.4939,5.42804 -11.9893,-6.99246 z m 26.5678,15.18587 9.3244,5.32977 -21.4207,12.49124 0.047,-10.93348 z m 14.3368,8.19479 38.3968,21.94722 -39.4536,23.0068 a 2.50025,2.50025 0 0 0 -0.22,0.38491 2.5,2.5 0 0 0 -0.6903,0.53457 2.5,2.5 0 0 0 -0.1103,0.86606 2.50025,2.50025 0 0 0 -0.22,0.38491 l 0.2168,49.99911 a 2.50025,2.50025 0 0 0 1.2602,2.16009 l 39.6481,22.66251 -39.4509,23.00605 a 2.50025,2.50025 0 0 0 -0.22,0.38492 2.5,2.5 0 0 0 -0.6903,0.53456 2.5,2.5 0 0 0 -0.1103,0.86606 2.50025,2.50025 0 0 0 -0.22,0.38491 l 0.2167,49.99911 a 2.50025,2.50025 0 0 0 1.2602,2.16009 l 39.6498,22.66345 -39.4535,23.00681 a 2.50025,2.50025 0 0 0 -0.22,0.38492 2.5,2.5 0 0 0 -0.6903,0.53456 2.5,2.5 0 0 0 -0.1103,0.86606 2.50025,2.50025 0 0 0 -0.22,0.38492 l 0.2167,49.9991 a 2.50025,2.50025 0 0 0 1.2602,2.1601 l 39.6482,22.6625 -38.2033,22.27941 -42.156,-24.09596 a 2.5,2.5 0 0 0 -1.0555,-0.13312 2.5,2.5 0 0 0 -0.1964,-0.19556 2.5,2.5 0 0 0 -0.1495,0.15075 2.5,2.5 0 0 0 -0.4969,-0.0635 2.5,2.5 0 0 0 -0.3959,0.30689 2.5,2.5 0 0 0 -0.2068,-0.0552 l -41.9447,24.46023 -38.3967,-21.94717 10.4884,-6.11712 a 2.5,2.5 0 0 0 0,-0.003 2.5,2.5 0 0 0 0,-0.005 l 28.9525,-16.88338 a 2.50025,2.50025 0 0 0 0.2821,-0.34042 2.50025,2.50025 0 0 0 0.3807,-0.22113 2.50025,2.50025 0 0 0 0.1491,-0.41415 2.50025,2.50025 0 0 0 0.2788,-0.7788 2.50025,2.50025 0 0 0 0.1501,-0.41585 l -0.1458,-33.51795 10e-4,-0.002 a 2.5,2.5 0 0 0 10e-4,-0.002 l -0.071,-16.47677 a 2.5,2.5 0 0 0 -0.04,-0.0408 2.5,2.5 0 0 0 -0.1141,-0.67037 2.50025,2.50025 0 0 0 -0,-0.14255 2.50025,2.50025 0 0 0 -0.082,-0.0965 2.5,2.5 0 0 0 -0.1014,-0.2987 2.5,2.5 0 0 0 -0.1941,-0.0502 2.50025,2.50025 0 0 0 -0.7254,-0.86008 l -39.6498,-22.66345 10.492,-6.11957 10e-4,-0.002 a 2.5,2.5 0 0 0 10e-4,-0.002 l 28.9552,-16.88412 a 2.50025,2.50025 0 0 0 0.2821,-0.34042 2.50025,2.50025 0 0 0 0.3806,-0.22114 2.50025,2.50025 0 0 0 0.1492,-0.41415 2.50025,2.50025 0 0 0 0.2821,-0.34042 2.50025,2.50025 0 0 0 -0,-0.44017 2.50025,2.50025 0 0 0 0.1492,-0.41415 l -0.072,-16.47503 0,-0.003 a 2.5,2.5 0 0 0 10e-4,-0.002 l -0.1449,-33.5197 a 2.5,2.5 0 0 0 -0.04,-0.0408 2.5,2.5 0 0 0 0.017,-0.28515 2.5,2.5 0 0 0 -0.1318,-0.38352 2.50025,2.50025 0 0 0 -5e-4,-0.14425 2.50025,2.50025 0 0 0 -0.083,-0.0991 2.5,2.5 0 0 0 -0.1017,-0.29436 2.5,2.5 0 0 0 -0.1898,-0.0499 2.50025,2.50025 0 0 0 -0.7288,-0.86201 l -39.6498,-22.66347 10.4885,-6.1171 a 2.5,2.5 0 0 0 0.014,-0.004 l 28.9525,-16.88337 a 2.50025,2.50025 0 0 0 0.2821,-0.34042 2.50025,2.50025 0 0 0 0.3807,-0.22113 2.50025,2.50025 0 0 0 0.1491,-0.41416 2.50025,2.50025 0 0 0 0.2812,-0.33872 2.50025,2.50025 0 0 0 -0,-0.44018 2.50025,2.50025 0 0 0 0.1501,-0.41585 l -0.2167,-49.99908 a 2.5,2.5 0 0 0 -0.04,-0.0407 2.5,2.5 0 0 0 -0.114,-0.67034 2.50025,2.50025 0 0 0 -0,-0.14271 2.50025,2.50025 0 0 0 -0.082,-0.0964 2.5,2.5 0 0 0 -0.1015,-0.29871 2.5,2.5 0 0 0 -0.4187,-0.31817 2.50025,2.50025 0 0 0 -0.5007,-0.59213 l -39.6499,-22.66346 10.4921,-6.11955 0,-7.4e-4 a 2.5,2.5 0 0 0 10e-4,-0.002 l 27.7075,-16.15747 42.1577,24.09695 a 2.50025,2.50025 0 0 0 1.6846,0.28797 2.50025,2.50025 0 0 0 0.5117,-0.29693 2.50025,2.50025 0 0 0 0.3028,-0.002 l 14.2335,-8.30035 10e-4,-0.002 a 2.5,2.5 0 0 0 10e-4,-0.002 z m 45.9137,26.2438 21.5299,12.30627 -9.4939,5.42804 -11.9894,-6.99246 z m 26.5678,15.18588 9.3244,5.32977 -21.4207,12.49125 0.047,-10.93349 z m -205.2026,-114.41217 0.045,10.74088 -11.92686,7.09469 -9.54155,-5.34362 z m 43.4092,24.81224 0.1064,24.79823 -9.4448,-5.50882 0.06,-13.88001 z m 43.4091,24.81223 0.1065,24.79823 -9.4449,-5.50882 0.06,-13.88001 z m 86.8183,49.62448 0.045,10.74086 -11.9269,7.09469 -9.5415,-5.3436 z m 43.4091,24.81224 0.1065,24.79822 -9.4449,-5.50883 0.06,-13.88 z m -211.9749,-107.53876 9.4449,5.50882 -0.06,13.87566 -9.2778,5.41206 z m 43.4092,24.81223 9.4448,5.50883 -0.06,13.87565 -9.2778,5.41207 -0.054,-12.14548 0,-0.003 a 2.5,2.5 0 0 0 -8e-4,-0.003 z m 43.4091,24.81222 9.4448,5.50882 -0.06,13.87567 -9.2778,5.41208 z m 86.8182,49.62447 9.4449,5.50882 -0.06,13.87567 -9.2778,5.41208 z m -149.5886,-82.62606 -0.048,10.93516 -12.0491,6.88754 -9.3262,-5.33075 10.4938,-6.11858 0,-7.4e-4 a 2.5,2.5 0 0 0 10e-4,-0.002 z m 43.4092,24.81224 -0.048,10.93515 -12.0492,6.88754 -9.3262,-5.33075 10.4938,-6.11857 0,-7.5e-4 a 2.5,2.5 0 0 0 0,-0.002 z m 130.2274,74.4367 -0.048,10.93518 -12.0492,6.88753 -9.3262,-5.33076 10.4938,-6.11859 10e-4,-0.002 a 2.5,2.5 0 0 0 10e-4,-0.002 z m -202.6844,-115.85008 0.1074,24.79654 -9.32443,-5.32978 -0.17996,-13.8777 z m 173.6366,99.24896 0.1074,24.79652 -9.3245,-5.32976 -0.18,-13.87763 z m -188.03331,-93.59526 0.14184,10.93348 -21.52991,-12.30628 9.27952,-5.4111 z m 45.87801,26.22343 11.9886,6.9898 0.047,10.74185 -21.5282,-12.30532 z m 43.4092,24.81224 11.9886,6.98979 0.047,10.74185 -21.5282,-12.30531 z m 84.3493,48.21327 0.1418,10.93347 -21.5298,-12.30628 9.2795,-5.41108 z m 45.8781,26.22346 11.9886,6.98977 0.047,10.74185 -21.5282,-12.30533 z m -243.38221,-122.50332 21.52652,12.30435 -9.49125,5.4273 -11.98934,-6.99247 z m 26.56436,15.18393 9.32445,5.32978 -21.41807,12.4905 0.0471,-10.93347 z m 16.84475,9.6283 21.5265,12.30435 -9.4912,5.42731 -11.9893,-6.99247 z m 26.5644,15.18393 9.3245,5.32978 -21.4181,12.49051 0.047,-10.93347 z m 103.6631,59.2528 21.5265,12.30434 -9.4913,5.42729 -11.9893,-6.99247 z m 26.5643,15.1839 9.3245,5.32981 -21.4181,12.4905 0.047,-10.93348 z m 16.8448,9.62834 21.5265,12.30433 -9.4913,5.4273 -11.9893,-6.99247 z m 26.5643,15.18389 9.3245,5.32982 -21.4181,12.49049 0.047,-10.93348 z m -205.2008,-114.41118 0.045,10.74088 -11.92591,7.093 -9.53985,-5.34265 z m 173.6366,99.24895 0.1057,24.79559 -9.4432,-5.50789 0.059,-13.8783 z m -211.97394,-107.54045 9.44487,5.50883 -0.0596,13.87564 -9.27782,5.41207 z m 43.40914,24.81224 9.4449,5.50882 -0.06,13.87565 -9.2778,5.41206 z m 130.2274,74.43668 9.4448,5.50883 -0.06,13.87566 -9.2778,5.41208 z m 43.4091,24.81224 9.4449,5.50882 -0.06,13.87566 -9.2778,5.41208 -0.053,-12.14452 0,-0.003 a 2.5,2.5 0 0 0 0,-0.003 z m -19.3622,-8.18766 -0.047,10.93348 -12.0492,6.88753 -9.3244,-5.32977 10.492,-6.11957 10e-4,-0.002 a 2.5,2.5 0 0 0 10e-4,-0.002 z M 1005.3565,201.64 l 0.1067,24.79387 -9.32277,-5.32881 -0.17993,-13.87774 z m -14.39574,5.652 0.14183,10.93348 -21.52821,-12.30531 9.27686,-5.41037 z m 176.10544,100.66016 11.9876,6.99147 0.046,10.73921 -21.5266,-12.30439 z m -156.5639,-72.87885 21.5282,12.30532 -9.4929,5.42634 -11.9894,-6.99247 z m 26.5644,15.18393 9.3244,5.32978 -21.4181,12.49051 0.046,-10.93177 z m 147.0722,84.06504 21.5281,12.30528 -9.4929,5.42635 -11.9893,-6.99247 z m 26.5643,15.18389 9.3245,5.32982 -21.4181,12.49049 0.046,-10.93178 z m -205.2008,-114.41118 0.045,10.74089 -11.92584,7.09299 -9.53985,-5.34265 z m 43.4091,24.81224 0.1058,24.79559 -9.4432,-5.50787 0.059,-13.87832 z m 130.2274,74.43671 0.045,10.74087 -11.9259,7.09298 -9.5399,-5.34265 z m 43.4092,24.81224 0.1057,24.79558 -9.4432,-5.50788 0.059,-13.8783 z m -211.9739,-107.54045 9.4448,5.50882 -0.06,13.87565 -9.2778,5.41206 z m 173.6365,99.24892 9.4448,5.50882 -0.06,13.87566 -9.2778,5.41208 z m -149.5913,-82.62534 -0.046,10.93613 -12.0465,6.88682 -9.3262,-5.33075 10.4885,-6.11712 a 2.5,2.5 0 0 0 0.01,-0.006 z m 173.6365,99.24892 -0.046,10.93617 -12.0466,6.88678 -9.3261,-5.33071 10.4884,-6.11713 a 2.5,2.5 0 0 0 0,-0.003 2.5,2.5 0 0 0 0,-0.005 z m -202.6826,-115.84909 0.1067,24.79387 -9.3245,-5.32978 -0.17919,-13.87511 z m 173.6365,99.24896 0.1068,24.79388 -9.3246,-5.32982 -0.1792,-13.87494 z m -188.03228,-93.59696 0.14015,10.93251 -21.52653,-12.30434 9.27686,-5.41037 z m 45.87808,26.22344 11.9876,6.99148 0.046,10.73917 -21.5248,-12.30336 z m 127.7585,73.0255 0.1401,10.93253 -21.5265,-12.30434 9.2768,-5.41039 z m 45.878,26.22346 11.9876,6.99146 0.046,10.73922 -21.5249,-12.3034 z m -243.38218,-122.50332 21.52821,12.30531 -9.49294,5.42635 -11.98934,-6.99248 z m 26.56605,15.18489 9.32283,5.32882 -21.41814,12.4905 0.0461,-10.93176 z m 16.84313,9.62734 21.5282,12.30532 -9.493,5.42634 -11.9893,-6.99247 z m 26.566,15.18491 9.3228,5.32878 -21.4181,12.49054 0.046,-10.93178 z m 103.6614,59.25182 21.5281,12.30528 -9.4929,5.42635 -11.9893,-6.99247 z m 26.566,15.18489 9.3228,5.32883 -21.4181,12.49049 0.046,-10.93178 z m 16.8431,9.62735 21.5282,12.30528 -9.4929,5.42635 -11.9894,-6.99247 z m 26.5661,15.18489 9.3228,5.32882 -21.4181,12.49049 0.046,-10.93178 z m -205.2026,-114.41218 0.1058,24.79558 -9.44318,-5.50786 0.0589,-13.87832 z m 173.6366,99.24895 0.1058,24.79559 -9.4433,-5.50789 0.059,-13.8783 z m -211.97391,-107.54045 9.44487,5.50883 -0.0596,13.87564 -9.27782,5.41207 z m 43.40911,24.81224 9.4449,5.50882 -0.06,13.87564 -9.2778,5.41207 -0.054,-12.14547 10e-4,-0.002 z m 130.2274,74.43668 9.4449,5.50883 -0.06,13.87566 -9.2778,5.41208 z m 43.4091,24.81224 9.4449,5.50882 -0.06,13.87566 -9.2778,5.41208 z M 991.427,293.42621 l -0.0464,10.93613 -12.0465,6.88683 -9.32618,-5.33076 10.48846,-6.11712 a 2.5,2.5 0 0 0 0.005,-0.001 2.5,2.5 0 0 0 0.005,-0.004 z m 173.6365,99.24893 -0.046,10.93617 -12.0466,6.88677 -9.3261,-5.33071 10.4885,-6.11712 a 2.5,2.5 0 0 0 0.014,-0.004 z m -171.2003,-83.97369 11.9876,6.99149 0.046,10.73918 -21.52486,-12.30338 z m 173.6366,99.24896 11.9876,6.99146 0.046,10.73922 -21.5249,-12.3034 z m -156.5657,-72.87982 21.5299,12.30627 -9.4939,5.42804 -11.9893,-6.99245 z m 26.5678,15.18588 9.3245,5.32977 -21.4208,12.49124 0.047,-10.93347 z m 147.0688,84.06306 21.5299,12.30627 -9.4939,5.42805 -11.9894,-6.99246 z m 26.5678,15.18588 9.3244,5.32977 -21.4207,12.49124 0.047,-10.93347 z m -205.2026,-114.41217 0.1065,24.79823 -9.44487,-5.50881 0.0598,-13.88 z m 43.4092,24.81224 0.1064,24.79823 -9.4448,-5.50883 0.06,-13.87998 z m 130.2274,74.43671 0.045,10.74086 -11.9269,7.09468 -9.5415,-5.3436 z m 43.4091,24.81223 0.1065,24.79823 -9.4449,-5.50882 0.06,-13.87999 z m -211.9749,-107.53877 9.4449,5.50883 -0.06,13.87566 -9.2778,5.41209 -0.054,-12.14547 0,-0.003 a 2.5,2.5 0 0 0 10e-4,-0.002 z m 173.6365,99.24894 9.4449,5.50883 -0.06,13.87566 -9.2778,5.41209 z M 991.64548,343.4263 l -0.0481,10.93515 -12.04917,6.88755 -9.32617,-5.33075 z m 43.40912,24.81224 -0.048,10.93516 -12.0492,6.88754 -9.3262,-5.33076 10.4937,-6.11858 10e-4,-0.002 a 2.5,2.5 0 0 0 10e-4,-0.002 z m 173.6366,99.24894 -0.048,10.93517 -12.0492,6.88753 -9.3262,-5.33076 10.4938,-6.11858 10e-4,-0.002 a 2.5,2.5 0 0 0 10e-4,-0.002 z m -29.0478,-16.60112 0.1074,24.79652 -9.3245,-5.32977 -0.18,-13.87764 z m -185.56441,-92.18407 11.98861,6.98979 0.047,10.74186 -21.52816,-12.30532 z m 43.40921,24.81225 11.9885,6.98978 0.047,10.74185 -21.5283,-12.30533 z m 127.7584,73.02549 0.1418,10.93347 -21.5298,-12.30627 9.2795,-5.4111 z m 45.8781,26.22345 11.9886,6.98978 0.047,10.74186 -21.5282,-12.30533 z m -243.38221,-122.5033 21.52652,12.30434 -9.49125,5.4273 -11.98934,-6.99246 z m 26.56434,15.18391 9.32447,5.32977 -21.41804,12.49053 0.0471,-10.93347 z m 16.84487,9.62834 21.5265,12.30434 -9.4913,5.42728 -11.9893,-6.99246 z m 26.5643,15.1839 9.3245,5.32981 -21.4181,12.49049 0.047,-10.93347 z m 103.6631,59.25281 21.5265,12.30433 -9.4913,5.42729 -11.9893,-6.99246 z m 26.5643,15.18389 9.3245,5.32982 -21.4181,12.49049 0.047,-10.93348 z m 16.8448,9.62834 21.5265,12.30434 -9.4913,5.42729 -11.9893,-6.99246 z m 26.5643,15.1839 9.3245,5.32982 -21.4181,12.49048 0.047,-10.93347 z m -205.2008,-114.41117 0.1058,24.79558 -9.44323,-5.50788 0.0589,-13.8783 z m 173.6366,99.24894 0.045,10.74086 -11.9259,7.09298 -9.5398,-5.34265 z m -211.97394,-107.54045 9.44487,5.50882 -0.0596,13.87565 -9.27781,5.41207 z m 43.40914,24.81221 9.4448,5.50883 -0.06,13.87566 -9.2778,5.41209 -0.053,-12.14453 0,-0.003 a 2.5,2.5 0 0 0 0,-0.003 z m 130.2274,74.43671 9.4448,5.50882 -0.06,13.87567 -9.2778,5.41208 z m 43.4091,24.81223 9.4449,5.50883 -0.06,13.87567 -9.2778,5.41208 z m -192.99873,-107.4366 -0.0471,10.93349 -12.04919,6.88752 -9.32449,-5.32978 10.49207,-6.11956 10e-4,-0.002 a 2.5,2.5 0 0 0 9.9e-4,-0.002 z m 187.99793,107.46006 0.1067,24.79389 -9.3228,-5.32883 -0.18,-13.87763 z m -185.56341,-92.18574 11.98761,6.99147 0.046,10.73921 -21.52663,-12.30438 z m 171.16761,97.83772 0.1418,10.93347 -21.5282,-12.30528 9.2769,-5.41039 z m -154.095,-71.4676 21.5282,12.30528 -9.493,5.42634 -11.9893,-6.99246 z m 26.5643,15.1839 9.3246,5.32981 -21.4182,12.4905 0.046,-10.93179 z m 147.0723,84.06504 21.5281,12.30528 -9.4929,5.42634 -11.9893,-6.99245 z m 26.5643,15.1839 9.3245,5.32982 -21.4181,12.49049 0.046,-10.93179 z m -205.2008,-114.41117 0.1058,24.79558 -9.44327,-5.50788 0.0589,-13.87831 z m 43.4091,24.81223 0.045,10.74086 -11.9259,7.09299 -9.5399,-5.34265 z m 130.2274,74.43671 0.1058,24.79558 -9.4432,-5.50788 0.059,-13.8783 z m 43.4092,24.81223 0.1057,24.79559 -9.4432,-5.50789 0.059,-13.8783 z m -211.974,-107.54047 9.4449,5.50883 -0.06,13.87566 -9.2778,5.41209 -0.054,-12.14548 10e-4,-0.002 z m 173.6366,99.24894 9.4448,5.50883 -0.06,13.87567 -9.2778,5.41208 -0.054,-12.14547 10e-4,-0.002 z M 992.0763,443.4253 l -0.0463,10.93617 -12.04657,6.88678 -9.32611,-5.33071 z m 173.6365,99.24894 -0.046,10.93617 -12.0466,6.88678 -9.3261,-5.33071 z m 43.4092,24.81224 -0.046,10.93617 -12.0465,6.88677 -9.3261,-5.33071 10.4884,-6.11712 a 2.5,2.5 0 0 0 0,-0.003 2.5,2.5 0 0 0 0,-0.005 z m -159.2735,-91.03684 0.1068,24.79389 -9.3246,-5.32982 -0.1793,-13.87494 z m -55.33596,-17.74903 11.98756,6.99147 0.046,10.73921 -21.52483,-12.30339 z m 40.94016,23.40102 0.1402,10.93252 -21.5265,-12.30434 9.2768,-5.41038 z m 132.6964,75.84793 11.9876,6.99146 0.046,10.73922 -21.5249,-12.3034 z m 43.4091,24.81223 11.9876,6.99147 0.046,10.73921 -21.5249,-12.30339 z m -243.38215,-122.5033 21.52815,12.30528 -9.49293,5.42635 -11.98933,-6.99246 z m 26.56604,15.18489 9.32281,5.32883 -21.41813,12.49049 0.0461,-10.93178 z m 16.84311,9.62735 21.5281,12.30528 -9.4929,5.42635 -11.9893,-6.99247 z m 26.566,15.18489 9.3228,5.32882 -21.4181,12.4905 0.046,-10.93179 z m 60.2522,34.43958 21.5282,12.30528 -9.4929,5.42635 -11.9894,-6.99247 z m 26.5661,15.18489 9.3228,5.32882 -21.4181,12.4905 0.046,-10.93178 z m 16.8431,9.62734 21.5281,12.30529 -9.4929,5.42635 -11.9893,-6.99247 z m 26.566,15.18489 9.3228,5.32883 -21.4181,12.49049 0.046,-10.93178 z m 16.8431,9.62735 21.5282,12.30528 -9.493,5.42635 -11.9893,-6.99247 z m 26.5661,15.18489 9.3228,5.32882 -21.4182,12.4905 0.046,-10.93178 z m -205.2025,-114.41216 0.1057,24.79558 -9.44321,-5.50789 0.0589,-13.8783 z m 86.8182,49.62447 0.045,10.74086 -11.9259,7.09299 -9.5398,-5.34266 z m 43.4092,24.81223 0.1057,24.79558 -9.4432,-5.50788 0.059,-13.8783 z m 43.4091,24.81224 0.1058,24.79558 -9.4433,-5.50788 0.059,-13.87831 z m -211.97395,-107.54048 9.44487,5.50883 -0.0596,13.87566 -9.27779,5.41208 z m 43.40915,24.81224 9.4449,5.50883 -0.06,13.87565 -9.2778,5.41209 -0.054,-12.14547 0,-0.002 z m 86.8183,49.62447 9.4448,5.50883 -0.06,13.87566 -9.2777,5.41208 z m 43.4091,24.81224 9.4449,5.50882 -0.06,13.87566 -9.2778,5.41208 -0.054,-12.14547 10e-4,-0.002 z m 43.4091,24.81223 9.4449,5.50883 -0.06,13.87566 -9.2778,5.41208 -0.054,-12.14547 10e-4,-0.002 z m -193.00044,-107.43759 -0.0463,10.93617 -12.04657,6.88678 -9.32611,-5.33072 10.48845,-6.11712 a 2.5,2.5 0 0 0 0.002,-0.003 2.5,2.5 0 0 0 0.003,-0.005 z m 130.22744,74.4367 -0.046,10.93617 -12.0465,6.88678 -9.3261,-5.33071 10.4884,-6.11712 a 2.5,2.5 0 0 0 0.014,-0.004 z m 43.4091,24.81224 -0.046,10.93617 -12.0466,6.88678 -9.3261,-5.33071 10.4884,-6.11713 a 2.5,2.5 0 0 0 0,-0.003 2.5,2.5 0 0 0 0,-0.005 z m -72.4552,-41.41237 0.1068,24.79388 -9.3246,-5.32981 -0.1793,-13.87495 z m -98.74509,-42.56127 11.98759,6.99147 0.046,10.73921 -21.52487,-12.30339 z m 84.34929,48.21325 0.1402,10.93253 -21.5265,-12.30434 9.2768,-5.41039 z m 45.8781,26.22346 11.9876,6.99147 0.046,10.73921 -21.5249,-12.30339 z m 43.4091,24.81224 11.9876,6.99146 0.046,10.73922 -21.5248,-12.3034 z m -156.5656,-72.87982 21.5299,12.30627 -9.4939,5.42804 -11.9893,-6.99246 z m 26.5678,15.18588 9.3244,5.32977 -21.4207,12.49124 0.047,-10.93348 z m 16.8413,9.62635 21.5299,12.30627 -9.4939,5.42805 -11.9893,-6.99246 z m 26.5678,15.18588 9.3245,5.32977 -21.4208,12.49125 0.047,-10.93348 z m 16.8414,9.62636 21.5299,12.30627 -9.4939,5.42804 -11.9894,-6.99246 z m 26.5678,15.18588 9.3244,5.32977 -21.4207,12.49124 0.047,-10.93347 z m -118.3843,-64.78769 0.1065,24.79821 -9.44491,-5.50882 0.0599,-13.88 z m 43.4092,24.81223 0.1064,24.79822 -9.4449,-5.50883 0.06,-13.87999 z m 43.4091,24.81224 0.045,10.74086 -11.9269,7.09468 -9.5415,-5.3436 z m -81.7475,-33.10207 9.4448,5.50883 -0.059,13.87566 -9.2778,5.41209 -0.054,-12.14547 0,-0.003 a 2.5,2.5 0 0 0 10e-4,-0.002 z m 43.4091,24.81224 9.4449,5.50882 -0.06,13.87566 -9.2778,5.41209 -0.054,-12.14547 0,-0.003 a 2.5,2.5 0 0 0 10e-4,-0.002 z m 43.4091,24.81223 9.4449,5.50883 -0.06,13.87566 -9.2778,5.41209 z m -106.17944,-57.81383 -0.0481,10.93518 -12.0492,6.88753 -9.32619,-5.33076 z m 43.40914,24.81224 -0.048,10.93517 -12.0492,6.88754 -9.3262,-5.33076 z m 57.7705,33.02334 0.1074,24.79653 -9.3245,-5.32977 -0.18,-13.87764 z m -98.7461,-42.55957 11.9886,6.98977 0.047,10.74186 -21.52821,-12.30533 z m 43.4091,24.81223 11.9886,6.98978 0.047,10.74185 -21.5283,-12.30533 z m 40.9402,23.40102 0.1418,10.93347 -21.5298,-12.30627 9.2795,-5.4111 z m -110.6858,-46.65537 21.52651,12.30434 -9.49128,5.42729 -11.98933,-6.99246 z m 26.56431,15.1839 9.32459,5.32982 -21.41816,12.49048 0.0471,-10.93347 z m 16.84479,9.62834 21.5265,12.30434 -9.4912,5.42728 -11.9894,-6.99246 z m 26.5643,15.1839 9.3246,5.32981 -21.4181,12.49049 0.047,-10.93347 z m -31.5642,-15.16223 0.1058,24.79558 -9.44325,-5.50788 0.0589,-13.8783 z m -38.3374,-8.29153 9.44487,5.50882 -0.0596,13.87566 -9.2778,5.41209 z m 43.4091,24.81223 9.4449,5.50883 -0.06,13.87566 -9.2778,5.41209 -0.053,-12.14453 0,-0.003 a 2.5,2.5 0 0 0 0,-0.003 z m -19.36215,-8.18766 -0.0471,10.93348 -12.04919,6.88753 -9.32446,-5.32976 z m 2.43454,15.27427 11.98761,6.99148 0.046,10.73921 -21.52663,-12.30439 z"
     id="line1202" />
</svg>
