<?xml version="1.0" encoding="UTF-8" standalone="no"?>
<svg
   version="1.1"
   width="1510"
   height="2000"
   class="svg_pane"
   data-attrTriangle="{&quot;fill&quot;:&quot;none&quot;,&quot;stroke&quot;:&quot;black&quot;,&quot;stroke-width&quot;:5,&quot;stroke-linecap&quot;:&quot;round&quot;,&quot;stroke-linejoin&quot;:&quot;round&quot;}"
   data-attrPattern="{&quot;fill&quot;:&quot;none&quot;,&quot;stroke&quot;:&quot;black&quot;,&quot;stroke-width&quot;:5,&quot;stroke-linecap&quot;:&quot;round&quot;,&quot;stroke-linejoin&quot;:&quot;round&quot;}"
   id="svg3330"
   sodipodi:docname="kumiko_inlay_gang.svg"
   inkscape:version="1.3 (0e150ed, 2023-07-21)"
   xmlns:inkscape="http://www.inkscape.org/namespaces/inkscape"
   xmlns:sodipodi="http://sodipodi.sourceforge.net/DTD/sodipodi-0.dtd"
   xmlns="http://www.w3.org/2000/svg"
   xmlns:svg="http://www.w3.org/2000/svg">
  <defs
     id="defs3330" />
  <sodipodi:namedview
     id="namedview3330"
     pagecolor="#ffffff"
     bordercolor="#000000"
     borderopacity="0.25"
     inkscape:showpageshadow="2"
     inkscape:pageopacity="0.0"
     inkscape:pagecheckerboard="0"
     inkscape:deskcolor="#d1d1d1"
     inkscape:zoom="0.82015642"
     inkscape:cx="288.35963"
     inkscape:cy="475.51905"
     inkscape:window-width="1640"
     inkscape:window-height="997"
     inkscape:window-x="13"
     inkscape:window-y="43"
     inkscape:window-maximized="0"
     inkscape:current-layer="svg3330" />
  <path
     style="color:#000000;fill:#000000;stroke-linecap:round;stroke-linejoin:round;-inkscape-stroke:none"
     d="m 323.90915,99.769252 a 2.5,2.5 0 0 0 -1.05244,-0.13699 2.5,2.5 0 0 0 -0.19759,-0.19699 2.5,2.5 0 0 0 -0.15075,0.15207 2.5,2.5 0 0 0 -0.89343,0.24072 2.5,2.5 0 0 0 -0.20673,-0.0559 L 279.39128,124.10807 237.30683,99.887302 a 2.5,2.5 0 0 0 -1.05243,-0.13697 2.5,2.5 0 0 0 -0.19762,-0.197 2.5,2.5 0 0 0 -0.15064,0.1521 2.5,2.5 0 0 0 -0.49668,-0.065 2.5,2.5 0 0 0 -0.39678,0.30574 2.5,2.5 0 0 0 -0.20672,-0.0558 L 192.7891,124.22614 150.70465,100.00538 a 2.5,2.5 0 0 0 -0.33517,-0.0442 2.5,2.5 0 0 0 -0.26794,-0.2039 2.5,2.5 0 0 0 -0.49732,0.0653 2.5,2.5 0 0 0 -0.15047,-0.14968 2.5,2.5 0 0 0 -0.14957,0.1505 2.5,2.5 0 0 0 -0.49668,-0.065 2.5,2.5 0 0 0 -0.26685,0.20455 2.5,2.5 0 0 0 -0.33686,0.045 l -43.26766,25.06047 a 2.50025,2.50025 0 0 0 -0.22033,0.3825 2.5,2.5 0 0 0 -0.69281,0.5342 2.5,2.5 0 0 0 -0.11315,0.87007 2.50025,2.50025 0 0 0 -0.21534,0.37409 2.5,2.5 0 0 0 -0.005,0.005 l 0.0687,49.99953 a 2.50025,2.50025 0 0 0 0.002,7.7e-4 2.5,2.5 0 0 0 0.1286,0.31295 2.5,2.5 0 0 0 -0.0432,0.33343 2.5,2.5 0 0 0 0.39837,0.51772 2.5,2.5 0 0 0 0.25082,0.6018 2.5,2.5 0 0 0 0.31105,0.12901 2.5,2.5 0 0 0 0.20642,0.26772 l 39.5808,22.77986 -39.51889,22.88906 a 2.50025,2.50025 0 0 0 -0.22133,0.3842 2.5,2.5 0 0 0 -0.69179,0.53256 2.5,2.5 0 0 0 -0.11315,0.87008 2.50025,2.50025 0 0 0 -0.21533,0.37409 2.5,2.5 0 0 0 -0.005,0.005 l 0.0693,50.00013 a 2.50025,2.50025 0 0 0 0.002,7.8e-4 2.5,2.5 0 0 0 0.002,0.002 2.50025,2.50025 0 0 0 0.13835,0.23734 2.5,2.5 0 0 0 1.11305,1.92284 l 39.58254,22.78082 -39.5216,22.88979 a 2.50025,2.50025 0 0 0 -0.22032,0.38247 2.5,2.5 0 0 0 -0.69283,0.53421 2.5,2.5 0 0 0 -0.11315,0.87008 2.50025,2.50025 0 0 0 -0.21532,0.37408 2.5,2.5 0 0 0 -0.005,0.005 l 0.0687,49.99954 a 2.50025,2.50025 0 0 0 0.002,7.8e-4 2.50025,2.50025 0 0 0 0.13915,0.23995 2.5,2.5 0 0 0 -0.0535,0.40637 2.5,2.5 0 0 0 1.16667,1.51647 l 39.58082,22.77984 -39.51892,22.88909 a 2.50025,2.50025 0 0 0 -0.13922,0.2421 2.5,2.5 0 0 0 -0.50605,0.46819 2.5,2.5 0 0 0 -0.2677,0.20642 2.5,2.5 0 0 0 -0.0834,0.64609 2.5,2.5 0 0 0 -0.25059,0.60392 l 0.0683,49.99955 a 2.50025,2.50025 0 0 0 0.002,7.8e-4 2.50025,2.50025 0 0 0 0.13914,0.23993 2.5,2.5 0 0 0 1.11308,1.92285 l 39.58249,22.78081 -39.52157,22.88979 a 2.50025,2.50025 0 0 0 -0.13824,0.24046 2.5,2.5 0 0 0 -0.50699,0.46988 2.5,2.5 0 0 0 -0.26772,0.20643 2.5,2.5 0 0 0 -0.0834,0.64605 2.5,2.5 0 0 0 -0.25061,0.60394 l 0.0687,49.99954 a 2.5,2.5 0 0 0 0.002,7.7e-4 2.50025,2.50025 0 0 0 0.13908,0.24 2.5,2.5 0 0 0 1.11307,1.92284 l 43.33543,24.94072 a 2.50025,2.50025 0 0 0 1.02637,0.17833 2.50025,2.50025 0 0 0 0.21912,0.1244 2.50025,2.50025 0 0 0 0.11265,-0.0657 2.50025,2.50025 0 0 0 0.32735,0.0577 2.50025,2.50025 0 0 0 0.10548,-0.0608 2.5,2.5 0 0 0 0.10676,0.0141 2.5,2.5 0 0 0 0.32439,-0.25049 2.50025,2.50025 0 0 0 0.27906,5.4e-4 l 42.01696,-24.33587 42.08432,24.22066 a 2.50025,2.50025 0 0 0 1.68543,0.29399 2.50025,2.50025 0 0 0 0.10537,-0.0608 2.5,2.5 0 0 0 0.10677,0.0141 2.5,2.5 0 0 0 0.32439,-0.25051 2.50025,2.50025 0 0 0 0.2791,6.4e-4 l 42.01958,-24.3366 42.0828,24.21982 a 2.50025,2.50025 0 0 0 1.79224,0.23374 2.5,2.5 0 0 0 0.10512,0.0134 2.5,2.5 0 0 0 0.32439,-0.25052 2.50025,2.50025 0 0 0 0.27907,5.5e-4 l 43.26679,-25.05883 a 2.5,2.5 0 0 0 0.58499,-0.51509 2.50025,2.50025 0 0 0 0.091,-0.0807 2.5,2.5 0 0 0 0.18974,-0.32123 2.50025,2.50025 0 0 0 0.0181,-0.009 2.50025,2.50025 0 0 0 -5.8e-4,-0.0272 2.5,2.5 0 0 0 0.1249,-0.25264 2.50025,2.50025 0 0 0 0.0878,-0.10491 2.50025,2.50025 0 0 0 -2.5e-4,-0.0744 2.5,2.5 0 0 0 0.0652,-0.13365 2.5,2.5 0 0 0 0.0318,-0.49774 2.50025,2.50025 0 0 0 0.0543,-0.14907 l -0.0686,-49.99953 a 2.5,2.5 0 0 0 -0.0394,-0.0922 2.5,2.5 0 0 0 0.0155,-0.23444 2.5,2.5 0 0 0 -0.0514,-0.1535 2.5,2.5 0 0 0 -0.0115,-0.16691 2.5,2.5 0 0 0 -0.0637,-0.13164 2.50025,2.50025 0 0 0 -0.0869,-0.1782 2.5,2.5 0 0 0 -0.0991,-0.29372 2.5,2.5 0 0 0 -0.0771,-0.0579 2.5,2.5 0 0 0 -0.28281,-0.37007 2.5,2.5 0 0 0 -0.16238,-0.1407 2.5,2.5 0 0 0 -0.39432,-0.34495 l -39.58083,-22.77983 39.51894,-22.88909 a 2.5,2.5 0 0 0 0.58491,-0.51517 2.50025,2.50025 0 0 0 0.0781,-0.0448 2.50025,2.50025 0 0 0 0.0129,-0.0355 2.5,2.5 0 0 0 0.0547,-0.0501 2.5,2.5 0 0 0 0.13394,-0.27217 2.50025,2.50025 0 0 0 0.0157,-0.0362 2.5,2.5 0 0 0 0.12579,-0.25433 2.50025,2.50025 0 0 0 0.0881,-0.10712 2.50025,2.50025 0 0 0 -2.5e-4,-0.0744 2.5,2.5 0 0 0 0.0652,-0.13366 2.5,2.5 0 0 0 0.0328,-0.49942 2.50025,2.50025 0 0 0 0.052,-0.14579 l -0.0677,-50.00123 a 2.5,2.5 0 0 0 -0.0395,-0.0923 2.5,2.5 0 0 0 0.0155,-0.23443 2.5,2.5 0 0 0 -0.0525,-0.15173 2.5,2.5 0 0 0 -0.0107,-0.16862 2.5,2.5 0 0 0 -0.0653,-0.13269 2.50025,2.50025 0 0 0 -2.8e-4,-0.0745 2.50025,2.50025 0 0 0 -0.0846,-0.10004 2.5,2.5 0 0 0 -0.10091,-0.29464 2.5,2.5 0 0 0 -0.0773,-0.0579 2.5,2.5 0 0 0 -0.10498,-0.21339 2.5,2.5 0 0 0 -0.1797,-0.15763 2.5,2.5 0 0 0 -0.15897,-0.13878 2.5,2.5 0 0 0 -0.39487,-0.34668 l -39.58083,-22.77984 39.51894,-22.8891 a 2.5,2.5 0 0 0 0.58499,-0.5151 2.50025,2.50025 0 0 0 0.0911,-0.0807 2.5,2.5 0 0 0 0.0548,-0.0502 2.5,2.5 0 0 0 0.13404,-0.27214 2.50025,2.50025 0 0 0 0.0174,-0.0372 2.5,2.5 0 0 0 0.1249,-0.25265 2.50025,2.50025 0 0 0 0.0878,-0.10491 2.50025,2.50025 0 0 0 -2.4e-4,-0.0744 2.5,2.5 0 0 0 0.0652,-0.13366 2.5,2.5 0 0 0 0.0318,-0.49774 2.50025,2.50025 0 0 0 0.0543,-0.14907 l -0.0687,-49.99953 a 2.5,2.5 0 0 0 -0.0394,-0.0923 2.5,2.5 0 0 0 -0.0358,-0.38796 2.5,2.5 0 0 0 -0.0115,-0.16691 2.5,2.5 0 0 0 -0.0638,-0.13157 2.50025,2.50025 0 0 0 -0.0869,-0.17818 2.5,2.5 0 0 0 -0.0991,-0.2937 2.5,2.5 0 0 0 -0.0773,-0.0579 2.5,2.5 0 0 0 -0.10497,-0.21338 2.5,2.5 0 0 0 -0.17802,-0.15663 2.5,2.5 0 0 0 -0.16244,-0.14062 2.5,2.5 0 0 0 -0.3943,-0.34413 l -39.58083,-22.77984 39.51893,-22.8891 a 2.5,2.5 0 0 0 0.58499,-0.5151 2.50025,2.50025 0 0 0 0.0911,-0.0807 2.5,2.5 0 0 0 0.18973,-0.32122 2.50025,2.50025 0 0 0 0.0181,-0.009 2.50025,2.50025 0 0 0 -0.002,-0.0251 2.5,2.5 0 0 0 0.1258,-0.25436 2.50025,2.50025 0 0 0 0.0881,-0.10712 2.50025,2.50025 0 0 0 -2.4e-4,-0.0744 2.5,2.5 0 0 0 0.0984,-0.63294 2.50025,2.50025 0 0 0 0.052,-0.14579 l -0.0677,-50.00122 a 2.5,2.5 0 0 0 -0.0409,-0.0421 2.5,2.5 0 0 0 -0.035,-0.43685 2.5,2.5 0 0 0 -0.0769,-0.30113 2.50025,2.50025 0 0 0 -2.9e-4,-0.0743 2.50025,2.50025 0 0 0 -0.0846,-0.10004 2.5,2.5 0 0 0 -0.10091,-0.29462 2.5,2.5 0 0 0 -0.0544,-0.0151 2.5,2.5 0 0 0 -0.86193,-0.89946 l -39.58082,-22.77987 39.51894,-22.88906 a 2.5,2.5 0 0 0 0.41545,-0.41671 2.50025,2.50025 0 0 0 0.30691,-0.31012 2.5,2.5 0 0 0 0.19073,-0.1898 2.5,2.5 0 0 0 0.0685,-0.2602 2.50025,2.50025 0 0 0 0.11371,-0.13517 2.50025,2.50025 0 0 0 1.4e-4,-0.28609 2.5,2.5 0 0 0 0.15143,-0.56861 l -0.0687,-49.99951 a 2.5,2.5 0 0 0 -0.0409,-0.0422 2.5,2.5 0 0 0 0.0176,-0.28507 2.5,2.5 0 0 0 -0.0514,-0.1535 2.5,2.5 0 0 0 -0.0116,-0.16703 2.5,2.5 0 0 0 -0.0638,-0.13156 2.50025,2.50025 0 0 0 -4e-4,-0.0772 2.50025,2.50025 0 0 0 -0.0856,-0.1015 2.5,2.5 0 0 0 -0.0991,-0.29371 2.5,2.5 0 0 0 -0.0553,-0.0133 2.5,2.5 0 0 0 -0.12616,-0.2579 2.5,2.5 0 0 0 -0.73487,-0.64169 z m 5.59409,8.988478 27.15913,15.63085 -18.09227,0.0256 z m -4.32838,2.50491 9.06852,15.6574 -9.02443,15.68032 z m 31.49605,18.12683 -27.1184,15.70497 9.02441,-15.68033 z m -40.83052,-20.61233 -9.02446,15.68032 -18.09132,0.0239 z m 4.33352,2.49408 0.0434,31.33504 -9.06783,-15.65475 z m 39.00191,22.44665 -9.02444,15.68032 -18.09131,0.0239 z m 4.33354,2.49408 0.0434,31.33503 -9.06783,-15.65473 z m -56.68656,-6.75454 9.06685,15.65642 -27.15914,-15.63081 z m 43.33544,24.94074 9.06683,15.65641 -27.15913,-15.63082 z M 242.901,108.87584 l 27.15913,15.6308 -18.09226,0.0256 z m 43.33544,24.94074 27.15912,15.63078 -18.09225,0.0256 z m 43.33545,24.9407 27.15913,15.63082 -18.09228,0.0256 z m -90.99855,-47.37388 9.06786,15.65472 -9.02446,15.68033 z m 31.49269,18.1249 -27.11575,15.70422 9.02443,-15.68032 z m 11.84277,6.81582 9.06782,15.65473 -9.02446,15.68033 z m 31.49268,18.12491 -27.11578,15.70422 9.02447,-15.68033 z m 11.84273,6.81582 9.06783,15.65473 -9.02443,15.68032 z m 31.4927,18.1249 -27.11577,15.70422 9.02446,-15.68032 z m -127.49873,-70.49454 -9.02448,15.68032 -18.09396,0.0246 z m 4.33353,2.49408 0.0441,31.33772 -9.06855,-15.65738 z m 39.00188,22.44664 -9.02442,15.68035 -18.09399,0.0246 z m 4.33356,2.49409 0.0441,31.33773 -9.06855,-15.6574 z m 39.00189,22.44667 -9.02447,15.68033 -18.09395,0.0246 z m 4.33354,2.49408 0.0441,31.33771 -9.06853,-15.65739 z m -100.02201,-31.69526 9.06687,15.65642 -27.15917,-15.63082 z m 86.67087,49.88146 9.06686,15.65641 -27.15913,-15.63082 z m -43.33641,-24.939 9.0678,15.65472 -27.15912,-15.6308 z m -107.25967,-45.52596 27.16592,15.63472 -18.09566,0.0236 z m 43.33545,24.94073 27.1659,15.63471 -18.09563,0.0236 z m 43.33544,24.94072 27.1659,15.63472 -18.09564,0.0236 z m 43.33542,24.94074 27.16592,15.6347 -18.09564,0.0236 z m 43.33545,24.94071 27.16591,15.63474 -18.09564,0.0236 z m -177.66602,-97.25337 9.06783,15.65471 -9.02543,15.68202 z m 31.49268,18.12489 -27.11671,15.70588 9.02543,-15.68203 z m 11.84275,6.81582 9.06784,15.65473 -9.02541,15.68202 z m 31.49269,18.12491 -27.11671,15.70589 9.02542,-15.68201 z m 11.84275,6.81584 9.06784,15.6547 -9.02542,15.68202 z m 31.49267,18.12488 -27.11669,15.70588 9.02543,-15.682 z m 11.84277,6.81584 9.06784,15.65473 -9.02543,15.682 z m 31.49267,18.1249 -27.1167,15.70587 9.02543,-15.682 z m 11.84279,6.81582 9.06781,15.65471 -9.02542,15.68202 z m 31.49266,18.12489 -27.11671,15.70589 9.02542,-15.68203 z m -214.16961,-120.37597 -9.02447,15.68031 -18.09227,0.0256 z m 4.33353,2.49408 0.0424,31.33674 -9.06685,-15.65646 z m 39.00191,22.44664 -9.02446,15.68033 -18.09228,0.0256 z m 4.33354,2.49408 0.0424,31.33676 -9.06682,-15.65646 z m 39.00189,22.44667 -9.02446,15.68031 -18.09228,0.0256 z m 4.33352,2.49408 0.0424,31.33673 -9.06682,-15.65643 z m 39.0019,22.44666 -9.02446,15.68033 -18.09228,0.0256 z m 4.33353,2.49407 0.0424,31.33674 -9.06684,-15.65642 z m 39.0019,22.44667 -9.02445,15.68032 -18.09229,0.0256 z m 4.33353,2.49408 0.0424,31.33674 -9.06682,-15.65643 z m 39.0019,22.44664 -9.02446,15.68033 -18.09228,0.0256 z m 4.33354,2.49408 0.0424,31.33672 -9.06684,-15.65643 z M 133.6183,129.69368 142.68757,145.35372 115.52165,129.719 Z m 86.67087,49.88146 9.06927,15.66003 -27.16592,-15.63471 z m 130.00633,74.82216 9.06925,15.66004 -27.1659,-15.6347 z m -173.34278,-99.76117 9.07027,15.65837 -27.16592,-15.63472 z m 86.6709,49.88146 9.07024,15.65837 -27.1659,-15.63472 z m 43.33543,24.94073 9.07024,15.65835 -27.16592,-15.63471 z m -193.9281,-95.40377 27.15912,15.63083 -18.09223,0.0255 z m 43.33544,24.94071 27.15914,15.63083 -18.09224,0.0255 z m 43.33543,24.94073 27.15914,15.63083 -18.09224,0.0255 z m 43.33545,24.94072 27.15914,15.63082 -18.09224,0.0255 z m 43.33542,24.94074 27.15915,15.63081 -18.09224,0.0255 z m 43.33546,24.94075 27.15913,15.6308 -18.09223,0.0255 z m -221.00557,-122.19875 9.06953,15.6557 -9.02544,15.68201 z m 31.49606,18.12686 -27.11836,15.70484 9.02443,-15.6803 z m 11.83939,6.81387 9.0695,15.6557 -9.02541,15.68201 z m 31.49606,18.12685 -27.11838,15.70485 9.02444,-15.6803 z m 11.83938,6.81388 9.06952,15.65568 -9.02544,15.68202 z m 31.49605,18.12685 -27.11838,15.70484 9.02445,-15.68031 z m 11.83939,6.81386 9.06951,15.6557 -9.02544,15.68202 z m 31.49606,18.12685 -27.11839,15.70486 9.02443,-15.68031 z m 11.83937,6.81388 9.06952,15.6557 -9.0254,15.68202 z m 31.49606,18.12684 -27.11837,15.70489 9.02443,-15.68033 z m 11.83937,6.8139 9.06952,15.65568 -9.02541,15.68202 z m 31.49607,18.12681 -27.11836,15.70488 9.02442,-15.68033 z M 142.7036,159.01459 l -9.02348,15.67865 -7.7e-4,0.002 -18.09131,0.0239 z m 4.33353,2.49408 0.0433,31.33506 -9.0678,-15.65473 7.7e-4,-0.002 z m 39.00189,22.44667 -9.02348,15.67863 -7.8e-4,0.002 -18.09131,0.0239 z m 4.33353,2.49408 0.0434,31.33505 -9.06781,-15.65472 7.7e-4,-0.002 z m 39.00191,22.44663 -9.02346,15.67865 -7.8e-4,0.002 -18.09126,0.0239 z m 4.33355,2.4941 0.0434,31.33505 -9.06784,-15.65473 7.7e-4,-0.002 z m 39.00188,22.44664 -9.02349,15.67864 -7.7e-4,0.002 -18.09131,0.0239 z m 4.33353,2.49408 0.0434,31.33504 -9.06686,-15.65641 z m 39.00191,22.44665 -9.02347,15.67865 -18.09229,0.0256 z m 4.33352,2.49408 0.0434,31.33507 -9.06783,-15.65473 7.8e-4,-0.002 z m -186.69287,-81.57668 9.07024,15.65838 -27.1659,-15.63475 z m 43.33542,24.94073 9.07024,15.65836 -27.16591,-15.63473 z m 43.33547,24.94071 9.0702,15.65836 -27.16589,-15.6347 z m 43.33542,24.94074 9.07024,15.65836 -27.1659,-15.63471 z m 43.33544,24.94072 9.07023,15.65837 -27.16589,-15.63474 z m -150.59267,-70.46302 27.15913,15.63081 -18.09228,0.0256 z m 43.33543,24.94071 27.15914,15.63082 -18.09227,0.0256 z m 43.33544,24.94072 27.15913,15.63082 -18.09225,0.0256 z m 43.33545,24.94071 27.15913,15.63083 -18.09229,0.0256 z m 43.33544,24.94075 27.15911,15.63081 -18.09226,0.0256 z m -177.67013,-97.25799 9.06952,15.65569 -9.02541,15.682 z m 31.49607,18.12683 -27.11843,15.70494 9.02446,-15.6803 z m 11.83936,6.81388 9.06954,15.65571 -9.02544,15.68199 z m 31.49606,18.12685 -27.11842,15.70494 9.02446,-15.68033 z m 11.83937,6.81389 9.06953,15.6557 -9.02542,15.682 z m 31.49608,18.12684 -27.11841,15.70493 9.02444,-15.68032 z m 11.83938,6.81388 9.06952,15.6557 -9.02542,15.682 z m 31.49605,18.12686 -27.11841,15.70491 9.02444,-15.68032 z m 11.83938,6.81385 9.06953,15.6557 -9.02542,15.68203 z m 31.49607,18.12686 -27.11843,15.70494 9.02446,-15.68034 z m -214.1723,-120.37527 -9.02346,15.67863 -7.7e-4,0.002 -18.09131,0.0239 z m 4.33355,2.49409 0.0434,31.33504 -9.06783,-15.65472 7.8e-4,-0.002 z m 39.00188,22.44668 -9.02347,15.6786 -18.09227,0.0256 z m 4.33354,2.49408 0.0434,31.33503 -9.06781,-15.6547 7.7e-4,-0.002 z m 39.0019,22.44666 -9.02348,15.67862 -7.8e-4,0.002 -18.09129,0.0239 z m 4.33354,2.49409 0.0434,31.33503 -9.06782,-15.65472 7.7e-4,-0.002 z m 39.00187,22.44664 -9.02348,15.67864 -7.7e-4,0.002 -18.0913,0.0239 z m 4.33355,2.49408 0.0434,31.33504 -9.06687,-15.65642 z m 39.00188,22.44667 -9.02345,15.67861 -7.7e-4,0.002 -18.09129,0.0239 z m 4.33355,2.49409 0.0434,31.33506 -9.06781,-15.65475 7.8e-4,-0.002 z m 39.00188,22.44666 -9.02347,15.67862 -7.7e-4,0.002 -18.0913,0.0239 z m 4.33353,2.49408 0.0434,31.33503 -9.06685,-15.65641 z m -230.0283,-106.51743 9.06685,15.65642 -27.15913,-15.63084 z m 43.33544,24.94073 9.06685,15.6564 -27.15914,-15.63082 z m 43.33543,24.94072 9.06687,15.6564 -27.15916,-15.63082 z m 43.33545,24.9407 9.06685,15.65644 -27.15914,-15.63083 z m 43.33543,24.94074 9.06686,15.65643 -27.15914,-15.63084 z m 43.33544,24.94071 9.06686,15.65644 -27.15913,-15.63083 z M 113.16821,234.0537 l 27.15915,15.63081 -18.09229,0.0256 z m 43.33544,24.94072 27.15916,15.63081 -18.09227,0.0256 z m 43.33546,24.94071 27.15913,15.63083 -18.09229,0.0256 z m 43.33542,24.94074 27.15915,15.63082 -18.09228,0.0256 z m 43.33546,24.94074 27.15912,15.6308 -18.09228,0.0256 z m 43.33543,24.9407 27.15914,15.63082 -18.0923,0.0256 z m -221.00483,-122.19604 9.06683,15.6564 -9.02348,15.67863 z m 31.49265,18.12488 -27.11574,15.70424 9.02347,-15.67865 7.7e-4,-0.002 z m 11.84277,6.81584 9.06685,15.65641 -9.02347,15.67864 z m 31.49268,18.1249 -27.11575,15.70422 9.02347,-15.67862 7.7e-4,-0.002 z m 11.84275,6.81582 9.06686,15.65642 -9.02348,15.67862 z m 31.49268,18.1249 -27.11574,15.70422 9.02346,-15.67864 7.7e-4,-0.002 z m 11.84278,6.81582 9.06685,15.65642 -9.02349,15.67864 z m 31.49267,18.1249 -27.11576,15.70423 9.02348,-15.67864 7.7e-4,-0.002 z m 11.84275,6.81584 9.06685,15.65641 -9.02347,15.67863 z m 31.4927,18.12489 -27.11579,15.70423 9.0235,-15.67866 7.7e-4,-0.002 z m 11.84274,6.81583 9.06686,15.65641 -9.02347,15.67862 z m 31.49269,18.1249 -27.11576,15.70421 9.02346,-15.67863 7.7e-4,-0.002 z M 142.84083,259.0138 l -9.02446,15.68032 -18.09395,0.0246 z m 4.33353,2.49407 0.0441,31.3377 -9.06854,-15.65738 z m 39.00189,22.44667 -9.02444,15.68029 -18.09396,0.0246 z m 4.33354,2.49408 0.0441,31.33772 -9.06854,-15.6574 z m 39.00189,22.44664 -9.02443,15.68034 -18.09397,0.0246 z m 4.33356,2.4941 0.0441,31.33771 -9.06854,-15.65738 z m 39.00188,22.44665 -9.02445,15.68032 -18.09399,0.0246 z m 4.33355,2.49409 0.0441,31.3377 -9.06851,-15.65738 z m 39.00187,22.44667 -9.02444,15.68031 -18.09396,0.0246 z m 4.33354,2.49409 0.0441,31.3377 -9.06953,-15.65568 z m -186.69288,-81.57668 9.06683,15.65638 -27.15913,-15.63081 z m 43.33544,24.94072 9.06684,15.6564 -27.15914,-15.63081 z m 43.33544,24.94072 9.06684,15.65642 -27.15914,-15.63083 z m 43.33542,24.94072 9.06688,15.65643 -27.15915,-15.63082 z m 43.33545,24.94072 9.06683,15.65642 -27.15913,-15.63082 z m -150.59606,-70.465 27.16589,15.63473 -18.09566,0.0237 z m 43.33543,24.94074 27.1659,15.63473 -18.09565,0.0237 z m 43.33543,24.94073 27.16591,15.63471 -18.09564,0.0236 z m 43.33543,24.94072 27.16592,15.63474 -18.09565,0.0236 z m 43.33549,24.94073 27.16588,15.63473 -18.09566,0.0236 z m -177.66605,-97.25339 9.06686,15.65643 -9.02446,15.68031 z m 31.49269,18.1249 -27.11672,15.70591 9.02444,-15.6803 7.7e-4,-0.002 z m 11.84277,6.81584 9.06685,15.65641 -9.02447,15.68032 z m 31.49264,18.12489 -27.11672,15.70592 9.02446,-15.68034 7.7e-4,-0.002 z m 11.84277,6.81583 9.06687,15.65641 -9.02445,15.68034 z m 31.49269,18.1249 -27.11674,15.70591 9.02447,-15.68032 7.7e-4,-0.002 z m 11.84275,6.81582 9.06686,15.65643 -9.02444,15.6803 z m 31.49268,18.12491 -27.11673,15.70591 9.02446,-15.68032 7.7e-4,-0.002 z m 11.84276,6.81582 9.06686,15.65642 -9.02446,15.68031 z m 31.49268,18.12489 -27.11671,15.70593 9.02442,-15.68034 7.9e-4,-0.002 z m -214.16961,-120.37598 -9.02445,15.68032 -18.09229,0.0256 z m 4.33354,2.49409 0.0424,31.33674 -9.06685,-15.65643 z m 39.00189,22.44667 -9.02541,15.68201 -18.09133,0.0239 z m 4.33353,2.49407 0.0424,31.33675 -9.06687,-15.65642 z m 39.00189,22.44667 -9.02446,15.68032 -18.09226,0.0256 z m 4.33355,2.49408 0.0424,31.33673 -9.06686,-15.65642 z m 39.00188,22.44666 -9.02445,15.68031 -18.09227,0.0256 z m 4.33353,2.49408 0.0424,31.33672 -9.06685,-15.6564 z m 39.00191,22.44664 -9.02446,15.68032 -18.09228,0.0256 z m 4.33354,2.49408 0.0424,31.33672 -9.06781,-15.65471 z m 39.00189,22.44665 -9.02444,15.68032 -18.09227,0.0256 z m 4.33354,2.49409 0.0424,31.3367 -9.06782,-15.65471 z m -230.02831,-106.51744 9.06926,15.66004 -27.1659,-15.63471 z m 43.33543,24.94071 9.06926,15.66006 -27.16589,-15.63471 z m 43.33545,24.94073 9.06927,15.66007 -27.1659,-15.63472 z m 43.33544,24.94074 9.06927,15.66005 -27.16593,-15.63472 z m 43.33544,24.9407 9.06927,15.66007 -27.16592,-15.63471 z m 43.33544,24.94071 9.06925,15.66009 -27.1659,-15.63472 z m -237.26453,-120.34277 27.15914,15.63084 -18.09228,0.0256 z m 43.33545,24.94073 27.15912,15.63081 -18.09228,0.0256 z m 43.33543,24.94073 27.15912,15.63081 -18.09228,0.0256 z m 43.33544,24.94073 27.15914,15.63081 -18.0923,0.0256 z m 43.33544,24.94072 27.15914,15.63082 -18.0923,0.0256 z m 43.33543,24.94071 27.15914,15.63083 -18.0923,0.0256 z M 108.97614,336.5595 l 9.06852,15.65736 -9.02445,15.68032 z m 31.49605,18.12683 -27.11844,15.70493 9.02447,-15.68033 z m 11.83937,6.81388 9.06854,15.65739 -9.02445,15.68032 z m 31.49605,18.12684 -27.11841,15.70495 9.02445,-15.68032 z m 11.83941,6.81389 9.0685,15.65739 -9.02443,15.68031 z m 31.49604,18.12685 -27.11842,15.70492 9.02445,-15.68032 z m 11.83938,6.81388 9.06856,15.65738 -9.02447,15.68031 z m 31.49607,18.12684 -27.11843,15.70492 9.02447,-15.68032 z m 11.83938,6.81389 9.06855,15.65737 -9.02447,15.68033 z m 31.49605,18.12684 -27.11844,15.70492 9.02447,-15.68033 z m 11.83937,6.81388 9.06855,15.65738 -9.02445,15.68032 z m 31.49607,18.12683 -27.11842,15.70494 9.02446,-15.68033 z m -214.1723,-120.37528 -9.02444,15.68035 -18.09131,0.0239 z m 4.33356,2.49409 0.0434,31.33506 -9.06785,-15.65473 z m 39.0019,22.44666 -9.02447,15.68032 -18.0913,0.0239 z m 4.33353,2.49407 0.0434,31.33504 -9.06785,-15.65471 z m 39.00189,22.44664 -9.02445,15.68035 -18.09132,0.0239 z m 4.33354,2.49408 0.0434,31.33506 -9.06782,-15.65471 z m 39.0019,22.44666 -9.02445,15.68034 -18.0913,0.0239 z m 4.33355,2.49409 0.0434,31.33502 -9.06783,-15.65472 z m 39.0019,22.44665 -9.02446,15.68031 -18.09131,0.0239 z m 4.33351,2.49407 0.0434,31.33503 -9.06784,-15.6547 z m -186.69287,-81.5767 9.07023,15.65836 -27.16588,-15.6347 z m 43.33544,24.94071 9.07024,15.65839 -27.16589,-15.63474 z m 43.33545,24.94074 9.07022,15.65837 -27.1659,-15.63471 z m 43.33545,24.94072 9.07022,15.65835 -27.16591,-15.6347 z m 43.33544,24.94073 9.07022,15.65837 -27.1659,-15.6347 z m -150.5927,-70.46303 27.15915,15.63081 -18.09229,0.0256 z m 43.33544,24.94074 27.15914,15.6308 -18.09227,0.0256 z m 43.33545,24.9407 27.15913,15.63083 -18.09228,0.0256 z m 43.33543,24.94073 27.15916,15.63081 -18.09229,0.0256 z m 43.33545,24.94073 27.15915,15.63083 -18.09231,0.0256 z m -177.67013,-97.25798 9.06854,15.65737 -9.02443,15.68032 z m 31.49604,18.12684 -27.11839,15.70493 9.02444,-15.68034 z m 11.83942,6.81387 9.06852,15.65737 -9.02442,15.68035 z m 31.49605,18.12684 -27.11843,15.70496 9.02445,-15.68033 z m 11.83937,6.81388 9.06855,15.65739 -9.02444,15.68034 z m 31.49604,18.12685 -27.11839,15.70493 9.02443,-15.68031 z m 11.83942,6.81389 9.06852,15.65738 -9.02445,15.68033 z m 31.49604,18.12684 -27.11841,15.70492 9.02443,-15.68029 z m 11.83939,6.81387 9.06853,15.6574 -9.02444,15.68032 z m 31.49604,18.12684 -27.11842,15.70496 9.02446,-15.68032 z m -214.17228,-120.37524 -9.02445,15.6803 -18.0913,0.0239 z m 4.33353,2.49408 0.0434,31.33506 -9.06783,-15.65473 z m 39.00191,22.44666 -9.02448,15.68032 -18.09131,0.0239 z m 4.33353,2.49407 0.0434,31.33505 -9.06783,-15.65472 z m 39.00188,22.44666 -9.02443,15.68031 -18.0913,0.0239 z m 4.33355,2.49408 0.0434,31.33505 -9.06783,-15.65473 z m 39.00189,22.44666 -9.02445,15.68032 -18.09132,0.0239 z m 4.33353,2.49408 0.0434,31.33506 -9.06781,-15.65473 z m 39.00192,22.44665 -9.02449,15.68034 -18.09129,0.0239 z m 4.33352,2.49407 0.0434,31.33506 -9.06783,-15.65471 z m 39.00188,22.44666 -9.02445,15.68033 -18.0913,0.0239 z m 4.33357,2.4941 0.0434,31.33504 -9.06787,-15.65473 z M 134.0281,429.6946 l 9.06685,15.65641 -27.15911,-15.63084 z m 43.33545,24.94072 9.06686,15.6564 -27.15913,-15.63082 z m 43.33542,24.9407 9.06686,15.65643 -27.15911,-15.63081 z m 43.33545,24.94073 9.06686,15.65643 -27.15913,-15.63083 z m 43.33545,24.94075 9.06687,15.65639 -27.15914,-15.63081 z m 43.33544,24.94071 9.06684,15.65642 -27.15913,-15.63083 z m -237.26355,-120.34448 27.15916,15.63083 -18.0923,0.0256 z m 43.33545,24.94072 27.15913,15.63081 -18.09227,0.0256 z m 43.33541,24.94072 27.15916,15.63083 -18.0923,0.0256 z m 43.33546,24.94073 27.15912,15.63083 -18.09227,0.0256 z m 43.33544,24.94074 27.15914,15.63081 -18.0923,0.0256 z m 43.33543,24.94072 27.15914,15.6308 -18.09229,0.0256 z m -221.00483,-122.19607 9.06782,15.65473 -9.02445,15.68032 z m 31.49267,18.12491 -27.11576,15.70422 9.02446,-15.68034 z m 11.84274,6.81584 9.06784,15.65471 -9.02446,15.68032 z m 31.49269,18.12487 -27.11575,15.70422 9.02445,-15.6803 z m 11.84276,6.81584 9.06784,15.65471 -9.02446,15.68034 z m 31.49268,18.1249 -27.11574,15.70423 9.02443,-15.68032 z m 11.84277,6.81584 9.06782,15.6547 -9.02443,15.68033 z m 31.49267,18.12489 -27.11575,15.7042 9.02444,-15.6803 z m 11.84276,6.81582 9.06783,15.65473 -9.02444,15.68032 z m 31.49268,18.12489 -27.11575,15.70423 9.02443,-15.68031 z m 11.84278,6.81585 9.06782,15.65472 -9.02446,15.68031 z m 31.49265,18.12488 -27.11573,15.70422 9.02444,-15.68031 z m -214.16961,-120.37597 -9.02445,15.68032 -18.09396,0.0246 z m 4.33353,2.49408 0.0441,31.3377 -9.06854,-15.6574 z m 39.0019,22.44665 -9.02443,15.68031 -18.09399,0.0246 z m 4.33353,2.49408 0.0441,31.3377 -9.06853,-15.65739 z m 39.0019,22.44666 -9.02444,15.68031 -18.09397,0.0246 z m 4.33354,2.49409 0.0441,31.33772 -9.06856,-15.65739 z m 39.00189,22.44666 -9.02446,15.68031 -18.09395,0.0246 z m 4.33353,2.49407 0.0441,31.33772 -9.06854,-15.6574 z m 39.00189,22.44667 -9.02444,15.68032 -18.09397,0.0246 z m 4.33352,2.49408 0.0441,31.33772 -9.06854,-15.65739 z m -186.69285,-81.5767 9.06685,15.65641 -27.15912,-15.6308 z m 130.0063,74.82218 9.06685,15.65641 -27.15912,-15.63082 z m 43.33544,24.94072 9.06685,15.65642 -27.15914,-15.63081 z m -130.00731,-74.82044 9.06782,15.65474 -27.15912,-15.63082 z m 43.33544,24.94072 9.06781,15.65473 -27.15913,-15.63082 z m -63.9242,-20.58522 27.16588,15.63473 -18.09562,0.0236 z m 43.33542,24.94072 27.16593,15.63473 -18.09566,0.0236 z m 43.33545,24.94075 27.16589,15.63469 -18.09562,0.0236 z m -90.99513,-47.37195 9.06781,15.65471 -9.02543,15.68204 z m 31.49265,18.1249 -27.11669,15.70588 9.02542,-15.68201 z m 11.84277,6.81584 9.06784,15.65471 -9.02543,15.68203 z m 31.49267,18.12489 -27.11668,15.70587 9.0254,-15.68201 z m 11.84278,6.81583 9.06782,15.65472 -9.02543,15.68201 z m 31.49268,18.12488 -27.11671,15.70589 9.02543,-15.68202 z m -127.49875,-70.49451 -9.02444,15.68032 -18.09231,0.0256 z m 4.33354,2.49408 0.0424,31.33674 -9.06682,-15.65648 z m 39.0019,22.44667 -9.02445,15.68028 -18.09228,0.0256 z m 4.33351,2.49407 0.0424,31.33675 -9.0668,-15.65646 z m 39.0019,22.44667 -9.02444,15.6803 -18.09229,0.0256 z m 4.33354,2.49408 0.0424,31.33674 -9.06684,-15.65647 z m -13.35113,18.1862 9.06924,15.66005 -27.16586,-15.63471 z m -86.67186,-49.87974 9.07023,15.65837 -27.1659,-15.6347 z m 43.33543,24.94073 9.07024,15.65838 -27.16592,-15.6347 z M 113.578,534.0547 l 27.15913,15.63082 -18.09223,0.0255 z m 43.33544,24.94071 27.15912,15.63081 -18.09223,0.0255 z m -47.6638,-22.43582 9.06949,15.6557 -9.02541,15.68202 z m 31.49604,18.12684 -27.11838,15.70488 9.02446,-15.68035 z m 11.83938,6.8139 9.06953,15.65568 -9.02543,15.68202 z m 31.49605,18.12682 -27.11837,15.70486 9.02481,-15.68089 z m -40.83048,-20.61244 -9.02347,15.67864 -7.7e-4,0.002 -18.09129,0.0239 z m 4.33354,2.49409 0.0434,31.33506 -9.06784,-15.65472 7.7e-4,-0.002 z m -13.35113,18.18623 9.07024,15.65833 -27.16592,-15.63469 z"
     id="polyline1474" />
</svg>
