<?xml version="1.0" encoding="UTF-8" standalone="no"?>
<svg
   version="1.1"
   width="1500"
   height="1000"
   class="svg_pane"
   data-attrTriangle="{&quot;fill&quot;:&quot;none&quot;,&quot;stroke&quot;:&quot;black&quot;,&quot;stroke-width&quot;:7,&quot;stroke-linecap&quot;:&quot;round&quot;,&quot;stroke-linejoin&quot;:&quot;round&quot;}"
   data-attrPattern="{&quot;fill&quot;:&quot;none&quot;,&quot;stroke&quot;:&quot;black&quot;,&quot;stroke-width&quot;:6,&quot;stroke-linecap&quot;:&quot;round&quot;,&quot;stroke-linejoin&quot;:&quot;round&quot;}"
   id="svg84"
   sodipodi:docname="kumiko_medium.svg"
   inkscape:version="1.3.2 (091e20e, 2023-11-25)"
   xmlns:inkscape="http://www.inkscape.org/namespaces/inkscape"
   xmlns:sodipodi="http://sodipodi.sourceforge.net/DTD/sodipodi-0.dtd"
   xmlns="http://www.w3.org/2000/svg"
   xmlns:svg="http://www.w3.org/2000/svg">
  <defs
     id="defs84" />
  <sodipodi:namedview
     id="namedview84"
     pagecolor="#ffffff"
     bordercolor="#000000"
     borderopacity="0.25"
     inkscape:showpageshadow="2"
     inkscape:pageopacity="0.0"
     inkscape:pagecheckerboard="0"
     inkscape:deskcolor="#d1d1d1"
     inkscape:zoom="0.86346221"
     inkscape:cx="497.41609"
     inkscape:cy="626.5474"
     inkscape:window-width="1312"
     inkscape:window-height="449"
     inkscape:window-x="0"
     inkscape:window-y="25"
     inkscape:window-maximized="0"
     inkscape:current-layer="svg84" />
  <path
     id="polyline84"
     style="color:#000000;fill:#000000;stroke-linecap:round;stroke-linejoin:round;-inkscape-stroke:none"
     d="M 500 342.91016 A 3.5 3.5 0 0 0 499.5625 343.0918 A 3.5 3.5 0 0 0 499.09375 343.0293 A 3.5 3.5 0 0 0 498.71875 343.31641 A 3.5 3.5 0 0 0 498.25 343.37891 A 3.5 3.5 0 0 0 497.96094 343.75391 A 3.5 3.5 0 0 0 497.69336 344.10352 A 3.5 3.5 0 0 0 497.69141 344.10547 A 3.5 3.5 0 0 0 496.96875 344.66016 L 472.97852 386.21094 L 425 386.21094 A 3.5 3.5 0 0 0 424.5625 386.39258 A 3.5 3.5 0 0 0 424.09375 386.33008 A 3.5 3.5 0 0 0 423.71875 386.61719 A 3.5 3.5 0 0 0 423.25 386.67969 A 3.5 3.5 0 0 0 422.96094 387.05469 A 3.5 3.5 0 0 0 422.69336 387.4043 A 3.5 3.5 0 0 0 422.69141 387.40625 A 3.5 3.5 0 0 0 421.96875 387.96094 L 396.96875 431.26367 L 371.96875 474.56445 L 346.96875 517.86523 A 3.50035 3.50035 0 0 0 346.96875 518.48242 A 3.5 3.5 0 0 0 346.68164 519.17773 A 3.5 3.5 0 0 0 346.5 519.61523 A 3.5 3.5 0 0 0 346.84961 520.45898 A 3.5 3.5 0 0 0 346.96875 521.36523 L 371.96875 564.66602 L 396.96875 607.96875 A 3.50035 3.50035 0 0 0 400 609.71875 L 450 609.71875 A 3.50035 3.50035 0 0 0 453.03125 607.96875 L 477.02148 566.41602 L 522.97852 566.41602 L 545.95898 606.21875 L 521.96875 647.76953 A 3.50035 3.50035 0 0 0 521.96875 648.38672 A 3.5 3.5 0 0 0 521.68164 649.08203 A 3.5 3.5 0 0 0 521.5 649.51953 A 3.5 3.5 0 0 0 521.84961 650.36328 A 3.5 3.5 0 0 0 521.96875 651.26953 L 546.96875 694.57031 A 3.50035 3.50035 0 0 0 550 696.32031 L 600 696.32031 A 3.50035 3.50035 0 0 0 603.03125 694.57031 L 627.02148 653.01953 L 675 653.01953 A 3.50035 3.50035 0 0 0 678.03125 651.26953 L 703.03125 607.96875 L 728.03125 564.66602 A 3.50035 3.50035 0 0 0 728.5 562.91602 A 3.50035 3.50035 0 0 0 728.03125 561.16602 L 704.04102 519.61523 L 728.03125 478.06445 A 3.50035 3.50035 0 0 0 728.03125 474.56445 L 703.03125 431.26367 L 678.03125 387.96094 A 3.50035 3.50035 0 0 0 676.75 386.67969 A 3.50035 3.50035 0 0 0 675 386.21094 L 627.02148 386.21094 L 603.03125 344.66016 A 3.50035 3.50035 0 0 0 601.75 343.37891 A 3.50035 3.50035 0 0 0 600 342.91016 L 550 342.91016 L 500 342.91016 z M 512.0625 349.91016 L 537.9375 349.91016 L 525 357.37891 L 512.0625 349.91016 z M 562.0625 349.91016 L 587.9375 349.91016 L 575 357.37891 L 562.0625 349.91016 z M 550 353.41016 L 568.9375 386.21094 L 531.0625 386.21094 L 550 353.41016 z M 509.0625 355.10547 L 522 362.57617 L 522 377.51367 L 509.0625 355.10547 z M 540.9375 355.10547 L 528 377.51562 L 528 362.57617 L 540.9375 355.10547 z M 559.0625 355.10547 L 572 362.57617 L 572 377.51562 L 559.0625 355.10547 z M 590.9375 355.10547 L 584.46875 366.31055 L 578 377.51367 L 578 362.57617 L 590.9375 355.10547 z M 497 358.60547 L 497 373.54492 L 484.0625 381.01562 L 497 358.60547 z M 603 358.60547 L 615.9375 381.01562 L 603 373.54492 L 603 358.60547 z M 503 358.60742 L 509.46875 369.81055 L 515.9375 381.01562 L 503 373.54492 L 503 358.60742 z M 597 358.60742 L 597 373.54492 L 584.0625 381.01562 L 597 358.60742 z M 500 378.74219 L 512.9375 386.21094 L 487.0625 386.21094 L 500 378.74219 z M 600 378.74219 L 612.9375 386.21094 L 587.0625 386.21094 L 600 378.74219 z M 437.06055 393.21094 L 462.93945 393.21094 L 450 400.68164 L 437.06055 393.21094 z M 477.02148 393.21094 L 522.97852 393.21094 L 545.95898 433.01367 L 522.97852 472.81445 L 477.02148 472.81445 L 454.04102 433.01367 L 477.02148 393.21094 z M 537.06055 393.21094 L 562.93945 393.21094 L 550 400.68164 L 537.06055 393.21094 z M 577.02148 393.21094 L 622.97852 393.21094 L 645.95898 433.01367 L 622.97852 472.81445 L 577.02148 472.81445 L 554.04102 433.01367 L 577.02148 393.21094 z M 637.06055 393.21094 L 662.93945 393.21094 L 650 400.68164 L 637.06055 393.21094 z M 465.9375 398.40625 L 453 420.81641 L 453 405.87891 L 453 405.87695 L 465.9375 398.40625 z M 565.9375 398.40625 L 553 420.81641 L 553 405.87891 L 553 405.87695 L 565.9375 398.40625 z M 665.9375 398.40625 L 659.46875 409.61328 L 653 420.81641 L 653 405.87891 L 653 405.87695 L 665.9375 398.40625 z M 434.0625 398.4082 L 447 405.87891 L 447 420.81641 L 434.0625 398.4082 z M 534.0625 398.4082 L 547 405.87891 L 547 420.81641 L 534.0625 398.4082 z M 634.0625 398.4082 L 647 405.87891 L 647 420.81641 L 634.0625 398.4082 z M 422 401.9082 L 422 416.8457 L 422 416.84766 L 409.0625 424.31641 L 422 401.9082 z M 428 401.9082 L 434.46875 413.11328 L 440.93555 424.31445 L 428 416.8457 L 428 401.9082 z M 672 401.9082 L 672 416.8457 L 659.06445 424.31445 L 672 401.9082 z M 678 401.9082 L 690.9375 424.31641 L 678 416.84766 L 678 416.8457 L 678 401.9082 z M 425 422.04297 L 437.93945 429.51367 L 412.06055 429.51367 L 425 422.04297 z M 675 422.04297 L 687.93945 429.51367 L 662.06055 429.51367 L 675 422.04297 z M 406.0625 436.51367 L 443.9375 436.51367 L 425 469.31445 L 406.0625 436.51367 z M 656.0625 436.51367 L 693.9375 436.51367 L 675 469.31445 L 656.0625 436.51367 z M 397 445.20898 L 397 460.14648 L 397 460.14844 L 384.0625 467.61914 L 397 445.20898 z M 403 445.20898 L 415.9375 467.61719 L 403 460.14648 L 403 445.20898 z M 447 445.20898 L 447 460.14648 L 434.0625 467.61719 L 447 445.20898 z M 453 445.20898 L 465.9375 467.61914 L 453 460.14844 L 453 460.14648 L 453 445.20898 z M 547 445.20898 L 547 460.14648 L 534.0625 467.61719 L 547 445.20898 z M 553 445.20898 L 565.9375 467.61914 L 553 460.14844 L 553 460.14648 L 553 445.20898 z M 647 445.20898 L 647 460.14648 L 647 460.14844 L 634.0625 467.61914 L 647 445.20898 z M 653 445.20898 L 665.9375 467.61719 L 653 460.14648 L 653 445.20898 z M 697 445.20898 L 697 460.14648 L 684.0625 467.61719 L 697 445.20898 z M 703 445.20898 L 715.9375 467.61914 L 703 460.14844 L 703 460.14648 L 703 445.20898 z M 400 465.34375 L 412.93945 472.81445 L 387.06055 472.81445 L 400 465.34375 z M 450 465.34375 L 462.93945 472.81445 L 437.06055 472.81445 L 450 465.34375 z M 550 465.34375 L 562.93945 472.81445 L 537.06055 472.81445 L 550 465.34375 z M 650 465.34375 L 662.93945 472.81445 L 637.06055 472.81445 L 650 465.34375 z M 700 465.34375 L 712.93945 472.81445 L 687.06055 472.81445 L 700 465.34375 z M 387.0625 479.81445 L 412.9375 479.81445 L 400 487.2832 L 387.0625 479.81445 z M 427.02148 479.81445 L 472.97852 479.81445 L 495.95898 519.61523 L 472.97852 559.41602 L 427.02148 559.41602 L 404.04102 519.61523 L 427.02148 479.81445 z M 487.0625 479.81445 L 512.9375 479.81445 L 500 487.2832 L 487.0625 479.81445 z M 537.0625 479.81445 L 562.9375 479.81445 L 550 487.2832 L 537.0625 479.81445 z M 587.0625 479.81445 L 612.9375 479.81445 L 600 487.2832 L 587.0625 479.81445 z M 627.02148 479.81445 L 672.97852 479.81445 L 695.95898 519.61523 L 672.97852 559.41602 L 627.02148 559.41602 L 604.04102 519.61523 L 627.02148 479.81445 z M 687.0625 479.81445 L 712.9375 479.81445 L 700 487.2832 L 687.0625 479.81445 z M 384.0625 485.00977 L 397 492.48047 L 397 507.41797 L 384.0625 485.00977 z M 415.9375 485.00977 L 403 507.41992 L 403 492.48047 L 415.9375 485.00977 z M 484.0625 485.00977 L 497 492.48047 L 497 507.41992 L 484.0625 485.00977 z M 515.9375 485.00977 L 509.46875 496.21484 L 503 507.41797 L 503 492.48047 L 515.9375 485.00977 z M 534.0625 485.00977 L 547 492.48047 L 547 507.41797 L 534.0625 485.00977 z M 565.9375 485.00977 L 553 507.41797 L 553 492.48047 L 565.9375 485.00977 z M 584.0625 485.00977 L 597 492.48047 L 597 507.41797 L 584.0625 485.00977 z M 615.9375 485.00977 L 603 507.41992 L 603 492.48047 L 615.9375 485.00977 z M 684.0625 485.00977 L 697 492.48047 L 697 507.41992 L 684.0625 485.00977 z M 715.9375 485.00977 L 703 507.41992 L 703 492.48047 L 715.9375 485.00977 z M 372 488.50977 L 372 503.44922 L 359.0625 510.91992 L 372 488.50977 z M 378 488.51172 L 384.46875 499.71484 L 390.9375 510.91992 L 378 503.44922 L 378 488.51172 z M 522 488.51172 L 522 503.44922 L 509.0625 510.91992 L 522 488.51172 z M 528 488.51172 L 534.46875 499.71484 L 540.9375 510.91992 L 528 503.44922 L 528 488.51172 z M 572 488.51172 L 572 503.44922 L 559.0625 510.91992 L 572 488.51172 z M 578 488.51172 L 584.46875 499.71484 L 590.9375 510.91992 L 578 503.44922 L 578 488.51172 z M 375 508.64648 L 387.9375 516.11523 L 362.0625 516.11523 L 375 508.64648 z M 525 508.64648 L 537.9375 516.11523 L 512.0625 516.11523 L 525 508.64648 z M 575 508.64648 L 587.9375 516.11523 L 562.0625 516.11523 L 575 508.64648 z M 362.0625 523.11523 L 387.9375 523.11523 L 375 530.58398 L 362.0625 523.11523 z M 512.0625 523.11523 L 537.9375 523.11523 L 525 530.58398 L 512.0625 523.11523 z M 562.0625 523.11523 L 587.9375 523.11523 L 575 530.58398 L 562.0625 523.11523 z M 359.0625 528.31055 L 372 535.78125 L 372 550.7207 L 359.0625 528.31055 z M 390.9375 528.31055 L 384.46875 539.51562 L 378 550.71875 L 378 535.78125 L 390.9375 528.31055 z M 509.0625 528.31055 L 522 535.78125 L 522 550.71875 L 509.0625 528.31055 z M 540.9375 528.31055 L 528 550.71875 L 528 535.78125 L 540.9375 528.31055 z M 559.0625 528.31055 L 572 535.78125 L 572 550.71875 L 559.0625 528.31055 z M 590.9375 528.31055 L 578 550.71875 L 578 535.78125 L 590.9375 528.31055 z M 403 531.81055 L 415.9375 554.2207 L 403 546.75 L 403 531.81055 z M 497 531.81055 L 497 546.75 L 484.0625 554.2207 L 497 531.81055 z M 603 531.81055 L 615.9375 554.2207 L 603 546.75 L 603 531.81055 z M 697 531.81055 L 697 546.75 L 684.0625 554.2207 L 697 531.81055 z M 703 531.81055 L 715.9375 554.2207 L 703 546.75 L 703 531.81055 z M 397 531.8125 L 397 546.75 L 384.0625 554.2207 L 397 531.8125 z M 503 531.8125 L 509.46875 543.01562 L 515.9375 554.2207 L 503 546.75 L 503 531.8125 z M 547 531.8125 L 547 546.75 L 534.0625 554.2207 L 547 531.8125 z M 553 531.8125 L 559.46875 543.01562 L 565.9375 554.2207 L 553 546.75 L 553 531.8125 z M 597 531.8125 L 597 546.75 L 584.0625 554.2207 L 597 531.8125 z M 400 551.94727 L 412.9375 559.41602 L 387.0625 559.41602 L 400 551.94727 z M 500 551.94727 L 512.9375 559.41602 L 487.0625 559.41602 L 500 551.94727 z M 550 551.94727 L 562.9375 559.41602 L 537.0625 559.41602 L 550 551.94727 z M 600 551.94727 L 612.9375 559.41602 L 587.0625 559.41602 L 600 551.94727 z M 700 551.94727 L 712.9375 559.41602 L 687.0625 559.41602 L 700 551.94727 z M 387.06055 566.41602 L 412.93945 566.41602 L 400 573.88672 L 387.06055 566.41602 z M 437.06055 566.41602 L 462.93945 566.41602 L 450 573.88672 L 437.06055 566.41602 z M 537.06055 566.41602 L 562.93945 566.41602 L 550 573.88672 L 537.06055 566.41602 z M 577.02148 566.41602 L 622.97852 566.41602 L 645.95898 606.21875 L 622.97852 646.01953 L 577.02148 646.01953 L 554.04102 606.21875 L 577.02148 566.41602 z M 637.06055 566.41602 L 662.93945 566.41602 L 650 573.88672 L 637.06055 566.41602 z M 687.06055 566.41602 L 712.93945 566.41602 L 700 573.88672 L 687.06055 566.41602 z M 675 569.91602 L 693.9375 602.71875 L 656.0625 602.71875 L 675 569.91602 z M 415.9375 571.61133 L 409.46875 582.81641 L 403 594.02148 L 403 579.08398 L 403 579.08203 L 415.9375 571.61133 z M 465.9375 571.61133 L 453 594.02148 L 453 579.08398 L 453 579.08203 L 465.9375 571.61133 z M 565.9375 571.61133 L 553 594.02148 L 553 579.08398 L 553 579.08203 L 565.9375 571.61133 z M 665.9375 571.61133 L 653 594.02148 L 653 579.08398 L 653 579.08203 L 665.9375 571.61133 z M 715.9375 571.61133 L 703 594.02148 L 703 579.08398 L 703 579.08203 L 715.9375 571.61133 z M 384.0625 571.61328 L 397 579.08398 L 397 594.02148 L 384.0625 571.61328 z M 434.0625 571.61328 L 447 579.08398 L 447 594.02148 L 434.0625 571.61328 z M 534.0625 571.61328 L 547 579.08398 L 547 594.02148 L 534.0625 571.61328 z M 634.0625 571.61328 L 647 579.08398 L 647 594.02148 L 634.0625 571.61328 z M 684.0625 571.61328 L 697 579.08398 L 697 594.02148 L 684.0625 571.61328 z M 422 575.11328 L 422 590.05078 L 409.06445 597.51953 L 422 575.11328 z M 428 575.11328 L 434.46875 586.31641 L 440.9375 597.52148 L 428 590.05273 L 428 590.05078 L 428 575.11328 z M 425 595.24805 L 437.93945 602.71875 L 412.06055 602.71875 L 425 595.24805 z M 662.06445 609.71875 L 687.93555 609.71875 L 675 617.1875 L 662.06445 609.71875 z M 659.0625 614.91406 L 672 622.38477 L 672 637.32227 L 659.0625 614.91406 z M 690.9375 614.91406 L 678 637.32422 L 678 622.38477 L 678 622.38281 L 690.9375 614.91406 z M 547 618.41406 L 547 633.35156 L 547 633.35352 L 534.0625 640.82422 L 547 618.41406 z M 553 618.41406 L 565.9375 640.82227 L 553 633.35156 L 553 618.41406 z M 647 618.41406 L 647 633.35156 L 647 633.35352 L 634.0625 640.82422 L 647 618.41406 z M 653 618.41602 L 659.46875 629.61914 L 665.9375 640.82227 L 653 633.35156 L 653 618.41602 z M 550 638.54883 L 562.93945 646.01953 L 537.06055 646.01953 L 550 638.54883 z M 650 638.54883 L 662.93945 646.01953 L 637.06055 646.01953 L 650 638.54883 z M 537.0625 653.01953 L 562.9375 653.01953 L 550 660.48828 L 537.0625 653.01953 z M 587.0625 653.01953 L 612.9375 653.01953 L 600 660.48828 L 587.0625 653.01953 z M 534.0625 658.21484 L 547 665.68555 L 547 680.625 L 534.0625 658.21484 z M 565.9375 658.21484 L 559.46875 669.41992 L 553 680.62305 L 553 665.68555 L 565.9375 658.21484 z M 584.0625 658.21484 L 597 665.68555 L 597 680.62305 L 584.0625 658.21484 z M 615.9375 658.21484 L 603 680.625 L 603 665.68555 L 615.9375 658.21484 z M 572 661.7168 L 572 676.6543 L 559.0625 684.125 L 572 661.7168 z M 578 661.7168 L 584.46875 672.91992 L 590.9375 684.125 L 578 676.6543 L 578 661.7168 z M 575 681.85156 L 587.9375 689.32031 L 562.0625 689.32031 L 575 681.85156 z " />
</svg>
