<?xml version="1.0" encoding="UTF-8" standalone="no"?>
<svg
   version="1.1"
   width="1500"
   height="1000"
   class="svg_pane"
   data-attrTriangle="{&quot;fill&quot;:&quot;none&quot;,&quot;stroke&quot;:&quot;black&quot;,&quot;stroke-width&quot;:7,&quot;stroke-linecap&quot;:&quot;round&quot;,&quot;stroke-linejoin&quot;:&quot;round&quot;}"
   data-attrPattern="{&quot;fill&quot;:&quot;none&quot;,&quot;stroke&quot;:&quot;black&quot;,&quot;stroke-width&quot;:6,&quot;stroke-linecap&quot;:&quot;round&quot;,&quot;stroke-linejoin&quot;:&quot;round&quot;}"
   id="svg254"
   sodipodi:docname="kumiko_large.svg"
   inkscape:version="1.3.2 (091e20e, 2023-11-25)"
   xmlns:inkscape="http://www.inkscape.org/namespaces/inkscape"
   xmlns:sodipodi="http://sodipodi.sourceforge.net/DTD/sodipodi-0.dtd"
   xmlns="http://www.w3.org/2000/svg"
   xmlns:svg="http://www.w3.org/2000/svg">
  <defs
     id="defs254" />
  <sodipodi:namedview
     id="namedview254"
     pagecolor="#ffffff"
     bordercolor="#000000"
     borderopacity="0.25"
     inkscape:showpageshadow="2"
     inkscape:pageopacity="0.0"
     inkscape:pagecheckerboard="0"
     inkscape:deskcolor="#d1d1d1"
     inkscape:zoom="0.236"
     inkscape:cx="747.88136"
     inkscape:cy="500"
     inkscape:window-width="1312"
     inkscape:window-height="449"
     inkscape:window-x="0"
     inkscape:window-y="25"
     inkscape:window-maximized="0"
     inkscape:current-layer="svg254" />
  <path
     id="polyline254"
     style="color:#000000;fill:#000000;stroke-linecap:round;stroke-linejoin:round;-inkscape-stroke:none"
     d="M 400 256.30859 A 3.5 3.5 0 0 0 399.5625 256.49023 A 3.5 3.5 0 0 0 399.09375 256.42773 A 3.5 3.5 0 0 0 398.71875 256.71484 A 3.5 3.5 0 0 0 398.25 256.77734 A 3.5 3.5 0 0 0 397.96289 257.15039 A 3.5 3.5 0 0 0 397.75977 257.41406 A 3.5 3.5 0 0 0 397.69336 257.50195 A 3.5 3.5 0 0 0 396.96875 258.05859 L 371.96875 301.35938 L 346.96875 344.66016 L 321.96875 387.96094 L 296.96875 431.26367 L 271.96875 474.56445 A 3.50035 3.50035 0 0 0 271.96875 475.18164 A 3.5 3.5 0 0 0 271.68164 475.87695 A 3.5 3.5 0 0 0 271.5 476.31445 A 3.5 3.5 0 0 0 271.84961 477.1582 A 3.5 3.5 0 0 0 271.96875 478.06445 L 296.96875 521.36523 A 3.50035 3.50035 0 0 0 300 523.11523 L 343.9375 523.11523 L 321.96875 561.16602 A 3.50035 3.50035 0 0 0 321.96875 561.7832 A 3.5 3.5 0 0 0 321.68164 562.47852 A 3.5 3.5 0 0 0 321.5 562.91602 A 3.5 3.5 0 0 0 321.84961 563.75977 A 3.5 3.5 0 0 0 321.96875 564.66602 L 346.96875 607.96875 A 3.50035 3.50035 0 0 0 350 609.71875 L 400 609.71875 L 450 609.71875 A 3.50035 3.50035 0 0 0 453.03125 607.96875 L 477.02148 566.41602 L 522.97852 566.41602 L 543.9375 602.71875 L 500 602.71875 A 3.5 3.5 0 0 0 499.5625 602.90039 A 3.5 3.5 0 0 0 499.09375 602.83789 A 3.5 3.5 0 0 0 498.71875 603.125 A 3.5 3.5 0 0 0 498.25 603.1875 A 3.5 3.5 0 0 0 497.96289 603.56055 A 3.5 3.5 0 0 0 497.75977 603.82422 A 3.5 3.5 0 0 0 497.69336 603.91211 A 3.5 3.5 0 0 0 496.96875 604.46875 L 471.96875 647.76953 L 446.96875 691.07031 L 421.96875 734.37109 A 3.50035 3.50035 0 0 0 421.96875 734.98828 A 3.5 3.5 0 0 0 421.68164 735.68359 A 3.5 3.5 0 0 0 421.5 736.12109 A 3.5 3.5 0 0 0 421.84961 736.96484 A 3.5 3.5 0 0 0 421.96875 737.87109 L 446.96875 781.17383 A 3.50035 3.50035 0 0 0 450 782.92383 L 500 782.92383 L 550 782.92383 L 600 782.92383 L 650 782.92383 L 700 782.92383 A 3.50035 3.50035 0 0 0 703.03125 781.17383 L 728.03125 737.87109 L 753.03125 694.57031 L 778.03125 651.26953 L 803.03125 607.96875 L 828.03125 564.66602 L 853.03125 521.36523 A 3.50035 3.50035 0 0 0 853.5 519.61523 A 3.50035 3.50035 0 0 0 853.03125 517.86523 L 828.03125 474.56445 L 803.03125 431.26367 L 778.03125 387.96094 L 753.03125 344.66016 A 3.50035 3.50035 0 0 0 751.75 343.37891 A 3.50035 3.50035 0 0 0 750 342.91016 L 706.0625 342.91016 L 728.03125 304.85938 A 3.50035 3.50035 0 0 0 728.5 303.10938 A 3.50035 3.50035 0 0 0 728.03125 301.35938 L 703.03125 258.05859 A 3.50035 3.50035 0 0 0 701.75 256.77734 A 3.50035 3.50035 0 0 0 700 256.30859 L 650 256.30859 A 3.5 3.5 0 0 0 649.5625 256.49023 A 3.5 3.5 0 0 0 649.09375 256.42773 A 3.5 3.5 0 0 0 648.71875 256.71484 A 3.5 3.5 0 0 0 648.25 256.77734 A 3.5 3.5 0 0 0 647.96289 257.15039 A 3.5 3.5 0 0 0 647.75977 257.41406 A 3.5 3.5 0 0 0 647.69336 257.50195 A 3.5 3.5 0 0 0 646.96875 258.05859 L 625 296.10938 L 603.03125 258.05859 A 3.50035 3.50035 0 0 0 601.75 256.77734 A 3.50035 3.50035 0 0 0 600 256.30859 L 550 256.30859 L 500 256.30859 L 450 256.30859 L 400 256.30859 z M 412.06445 263.30859 L 437.93555 263.30859 L 425 270.77734 L 412.06445 263.30859 z M 462.06445 263.30859 L 487.93555 263.30859 L 475 270.77734 L 462.06445 263.30859 z M 512.06445 263.30859 L 537.93555 263.30859 L 525 270.77734 L 512.06445 263.30859 z M 562.06445 263.30859 L 587.93555 263.30859 L 575 270.77734 L 562.06445 263.30859 z M 662.06445 263.30859 L 687.93555 263.30859 L 675 270.77734 L 662.06445 263.30859 z M 500 266.80859 L 518.9375 299.60938 L 481.0625 299.60938 L 500 266.80859 z M 409.0625 268.50391 L 422 275.97461 L 422 290.91211 L 409.0625 268.50391 z M 440.9375 268.50391 L 428 290.91211 L 428 275.97461 L 428 275.97266 L 440.9375 268.50391 z M 459.0625 268.50391 L 472 275.97461 L 472 290.91211 L 459.0625 268.50391 z M 490.9375 268.50391 L 478 290.91406 L 478 275.97461 L 478 275.97266 L 490.9375 268.50391 z M 509.0625 268.50391 L 522 275.97461 L 522 290.91406 L 509.0625 268.50391 z M 540.9375 268.50391 L 534.46875 279.70898 L 528 290.91211 L 528 275.97461 L 528 275.97266 L 540.9375 268.50391 z M 559.0625 268.50391 L 572 275.97461 L 572 290.91211 L 559.0625 268.50391 z M 590.9375 268.50391 L 578 290.91211 L 578 275.97461 L 578 275.97266 L 590.9375 268.50391 z M 659.0625 268.50391 L 672 275.97461 L 672 290.91211 L 659.0625 268.50391 z M 690.9375 268.50391 L 678 290.91211 L 678 275.97461 L 678 275.97266 L 690.9375 268.50391 z M 397 272.00391 L 397 286.94141 L 384.0625 294.41211 L 397 272.00391 z M 603 272.00391 L 615.9375 294.41211 L 603 286.94141 L 603 272.00391 z M 647 272.00391 L 647 286.94141 L 647 286.94336 L 634.0625 294.41406 L 647 272.00391 z M 703 272.00391 L 715.9375 294.41406 L 703 286.94336 L 703 286.94141 L 703 272.00391 z M 403 272.00586 L 409.46875 283.20898 L 415.9375 294.41406 L 403 286.94336 L 403 286.94141 L 403 272.00586 z M 447 272.00586 L 447 286.94141 L 434.0625 294.41211 L 447 272.00586 z M 453 272.00586 L 459.46875 283.20898 L 465.9375 294.41406 L 453 286.94336 L 453 286.94141 L 453 272.00586 z M 547 272.00586 L 547 286.94141 L 534.0625 294.41211 L 547 272.00586 z M 553 272.00586 L 559.46875 283.20898 L 565.9375 294.41406 L 553 286.94336 L 553 286.94141 L 553 272.00586 z M 597 272.00586 L 597 286.94141 L 597 286.94336 L 584.0625 294.41406 L 597 272.00586 z M 653 272.00586 L 659.46875 283.20898 L 665.9375 294.41211 L 653 286.94141 L 653 272.00586 z M 697 272.00586 L 697 286.94141 L 684.0625 294.41211 L 697 272.00586 z M 400 292.13867 L 412.93945 299.60938 L 387.06055 299.60938 L 400 292.13867 z M 450 292.13867 L 462.93945 299.60938 L 437.06055 299.60938 L 450 292.13867 z M 550 292.13867 L 562.93945 299.60938 L 537.06055 299.60938 L 550 292.13867 z M 600 292.13867 L 612.93945 299.60938 L 587.06055 299.60938 L 600 292.13867 z M 650 292.13867 L 662.93945 299.60938 L 637.06055 299.60938 L 650 292.13867 z M 700 292.13867 L 712.93945 299.60938 L 687.06055 299.60938 L 700 292.13867 z M 387.0625 306.60938 L 412.9375 306.60938 L 400 314.07812 L 387.0625 306.60938 z M 431.0625 306.60938 L 447 306.60938 L 447 315.81055 L 439.03125 320.41211 L 431.0625 306.60938 z M 453 306.60938 L 468.9375 306.60938 L 460.96875 320.41211 L 453 315.81055 L 453 306.60938 z M 487.0625 306.60938 L 512.9375 306.60938 L 500 314.07812 L 487.0625 306.60938 z M 527.02148 306.60938 L 572.97852 306.60938 L 593.9375 342.91016 L 550 342.91016 L 506.0625 342.91016 L 527.02148 306.60938 z M 587.0625 306.60938 L 612.9375 306.60938 L 600 314.07812 L 587.0625 306.60938 z M 627.02148 306.60938 L 672.97852 306.60938 L 695.95898 346.41016 L 672.97852 386.21094 L 627.02148 386.21094 L 604.04102 346.41016 L 627.02148 306.60938 z M 687.0625 306.60938 L 712.9375 306.60938 L 700 314.07812 L 687.0625 306.60938 z M 425 310.10938 L 432.96875 323.91211 L 425 328.51367 L 417.03125 323.91211 L 425 310.10938 z M 475 310.10938 L 482.96875 323.91211 L 475 328.51367 L 467.03125 323.91211 L 475 310.10938 z M 384.0625 311.80469 L 397 319.27539 L 397 334.21289 L 384.0625 311.80469 z M 415.9375 311.80469 L 403 334.21289 L 403 319.27539 L 415.9375 311.80469 z M 484.0625 311.80469 L 497 319.27539 L 497 334.21289 L 484.0625 311.80469 z M 515.9375 311.80469 L 503 334.21484 L 503 319.27539 L 515.9375 311.80469 z M 584.0625 311.80469 L 597 319.27539 L 597 334.21484 L 584.0625 311.80469 z M 615.9375 311.80469 L 603 334.21484 L 603 319.27539 L 615.9375 311.80469 z M 684.0625 311.80469 L 697 319.27539 L 697 334.21484 L 684.0625 311.80469 z M 715.9375 311.80469 L 703 334.21484 L 703 319.27539 L 715.9375 311.80469 z M 372 315.30469 L 372 330.24414 L 359.0625 337.71484 L 372 315.30469 z M 378 315.30664 L 384.46875 326.50977 L 390.9375 337.71484 L 378 330.24414 L 378 315.30664 z M 450 321.00586 L 457.96875 325.60742 L 450 339.41016 L 442.03125 325.60742 L 450 321.00586 z M 414.03125 329.10742 L 422 333.70898 L 422 342.91016 L 406.0625 342.91016 L 414.03125 329.10742 z M 435.96875 329.10742 L 443.9375 342.91016 L 428 342.91016 L 428 333.70898 L 435.96875 329.10742 z M 464.03125 329.10742 L 472 333.70898 L 472 342.91016 L 456.0625 342.91016 L 464.03125 329.10742 z M 485.96875 329.10742 L 493.9375 342.91016 L 478 342.91016 L 478 333.70898 L 485.96875 329.10742 z M 375 335.44141 L 387.9375 342.91016 L 362.0625 342.91016 L 375 335.44141 z M 356.0625 349.91016 L 393.9375 349.91016 L 375 382.71094 L 356.0625 349.91016 z M 406.0625 349.91016 L 422 349.91016 L 422 359.11133 L 414.03125 363.71289 L 406.0625 349.91016 z M 428 349.91016 L 443.9375 349.91016 L 435.96875 363.71289 L 428 359.11133 L 428 349.91016 z M 456.0625 349.91016 L 472 349.91016 L 472 359.11133 L 464.03125 363.71289 L 456.0625 349.91016 z M 478 349.91016 L 493.9375 349.91016 L 485.96875 363.71289 L 478 359.11133 L 478 349.91016 z M 512.0625 349.91016 L 537.9375 349.91016 L 525 357.37891 L 512.0625 349.91016 z M 562.0625 349.91016 L 587.9375 349.91016 L 575 357.37891 L 562.0625 349.91016 z M 712.0625 349.91016 L 737.9375 349.91016 L 725 357.37891 L 712.0625 349.91016 z M 450 353.41016 L 457.96875 367.21289 L 450 371.81445 L 442.03125 367.21289 L 450 353.41016 z M 550 353.41016 L 568.9375 386.21094 L 531.0625 386.21094 L 550 353.41016 z M 509.0625 355.10547 L 522 362.57617 L 522 377.51367 L 509.0625 355.10547 z M 540.9375 355.10547 L 528 377.51562 L 528 362.57617 L 540.9375 355.10547 z M 559.0625 355.10547 L 572 362.57617 L 572 377.51562 L 559.0625 355.10547 z M 590.9375 355.10547 L 584.46875 366.31055 L 578 377.51367 L 578 362.57617 L 590.9375 355.10547 z M 709.0625 355.10547 L 722 362.57617 L 722 377.51367 L 709.0625 355.10547 z M 740.9375 355.10547 L 728 377.51367 L 728 362.57617 L 740.9375 355.10547 z M 347 358.60547 L 347 373.54492 L 334.0625 381.01562 L 347 358.60547 z M 353 358.60547 L 365.9375 381.01562 L 353 373.54492 L 353 358.60547 z M 397 358.60547 L 397 373.54492 L 384.0625 381.01562 L 397 358.60547 z M 603 358.60547 L 615.9375 381.01562 L 603 373.54492 L 603 358.60547 z M 697 358.60547 L 697 373.54492 L 684.0625 381.01562 L 697 358.60547 z M 753 358.60547 L 765.9375 381.01562 L 753 373.54492 L 753 358.60547 z M 403 358.60742 L 409.46875 369.81055 L 415.9375 381.01562 L 403 373.54492 L 403 358.60742 z M 497 358.60742 L 497 373.54492 L 484.0625 381.01562 L 497 358.60742 z M 503 358.60742 L 509.46875 369.81055 L 515.9375 381.01562 L 503 373.54492 L 503 358.60742 z M 597 358.60742 L 597 373.54492 L 584.0625 381.01562 L 597 358.60742 z M 703 358.60742 L 709.46875 369.81055 L 715.9375 381.01562 L 703 373.54492 L 703 358.60742 z M 747 358.60742 L 747 373.54492 L 734.0625 381.01562 L 747 358.60742 z M 425 364.30859 L 432.96875 368.9082 L 425 382.71094 L 417.03125 368.9082 L 425 364.30859 z M 475 364.30859 L 482.96875 368.9082 L 475 382.71094 L 467.03125 368.9082 L 475 364.30859 z M 439.03125 372.4082 L 447 377.00977 L 447 386.21094 L 431.0625 386.21094 L 439.03125 372.4082 z M 460.96875 372.4082 L 468.9375 386.21094 L 453 386.21094 L 453 377.00977 L 460.96875 372.4082 z M 350 378.74219 L 362.9375 386.21094 L 337.0625 386.21094 L 350 378.74219 z M 400 378.74219 L 412.9375 386.21094 L 387.0625 386.21094 L 400 378.74219 z M 500 378.74219 L 512.9375 386.21094 L 487.0625 386.21094 L 500 378.74219 z M 600 378.74219 L 612.9375 386.21094 L 587.0625 386.21094 L 600 378.74219 z M 700 378.74219 L 712.9375 386.21094 L 687.0625 386.21094 L 700 378.74219 z M 750 378.74219 L 762.9375 386.21094 L 737.0625 386.21094 L 750 378.74219 z M 337.06055 393.21094 L 362.93945 393.21094 L 350 400.68164 L 337.06055 393.21094 z M 377.02148 393.21094 L 418.9375 393.21094 L 396.96875 431.26367 L 375 469.31445 L 354.04102 433.01367 L 377.02148 393.21094 z M 437.06055 393.21094 L 462.93945 393.21094 L 450 400.68164 L 437.06055 393.21094 z M 477.02148 393.21094 L 522.97852 393.21094 L 545.95898 433.01367 L 522.97852 472.81445 L 477.02148 472.81445 L 454.04102 433.01367 L 477.02148 393.21094 z M 537.06055 393.21094 L 562.93945 393.21094 L 550 400.68164 L 537.06055 393.21094 z M 577.02148 393.21094 L 622.97852 393.21094 L 645.95898 433.01367 L 622.97852 472.81445 L 577.02148 472.81445 L 554.04102 433.01367 L 577.02148 393.21094 z M 637.06055 393.21094 L 662.93945 393.21094 L 650 400.68164 L 637.06055 393.21094 z M 681.0625 393.21094 L 722.97852 393.21094 L 745.95898 433.01367 L 725 469.31445 L 703.03125 431.26367 L 681.0625 393.21094 z M 737.06055 393.21094 L 762.93945 393.21094 L 750 400.68164 L 737.06055 393.21094 z M 365.9375 398.40625 L 353 420.81641 L 353 405.87891 L 353 405.87695 L 365.9375 398.40625 z M 465.9375 398.40625 L 453 420.81641 L 453 405.87891 L 453 405.87695 L 465.9375 398.40625 z M 565.9375 398.40625 L 553 420.81641 L 553 405.87891 L 553 405.87695 L 565.9375 398.40625 z M 665.9375 398.40625 L 659.46875 409.61328 L 653 420.81641 L 653 405.87891 L 653 405.87695 L 665.9375 398.40625 z M 765.9375 398.40625 L 759.46875 409.61328 L 753 420.81641 L 753 405.87891 L 753 405.87695 L 765.9375 398.40625 z M 334.0625 398.4082 L 347 405.87891 L 347 420.81641 L 334.0625 398.4082 z M 434.0625 398.4082 L 447 405.87891 L 447 420.81641 L 434.0625 398.4082 z M 534.0625 398.4082 L 547 405.87891 L 547 420.81641 L 534.0625 398.4082 z M 634.0625 398.4082 L 647 405.87891 L 647 420.81641 L 634.0625 398.4082 z M 734.0625 398.4082 L 747 405.87891 L 747 420.81641 L 734.0625 398.4082 z M 322 401.9082 L 322 416.8457 L 322 416.84766 L 309.0625 424.31641 L 322 401.9082 z M 328 401.9082 L 334.46875 413.11328 L 340.93555 424.31445 L 328 416.8457 L 328 401.9082 z M 422 401.9082 L 422 416.8457 L 422 416.84766 L 409.0625 424.31641 L 422 401.9082 z M 428 401.9082 L 434.46875 413.11328 L 440.93555 424.31445 L 428 416.8457 L 428 401.9082 z M 672 401.9082 L 672 416.8457 L 659.06445 424.31445 L 672 401.9082 z M 678 401.9082 L 690.9375 424.31641 L 678 416.84766 L 678 416.8457 L 678 401.9082 z M 772 401.9082 L 772 416.8457 L 772 416.84766 L 759.0625 424.31641 L 772 401.9082 z M 778 401.9082 L 790.93555 424.31445 L 778 416.8457 L 778 401.9082 z M 325 422.04297 L 337.93945 429.51367 L 312.06055 429.51367 L 325 422.04297 z M 425 422.04297 L 437.93945 429.51367 L 412.06055 429.51367 L 425 422.04297 z M 675 422.04297 L 687.93945 429.51367 L 662.06055 429.51367 L 675 422.04297 z M 775 422.04297 L 787.93945 429.51367 L 762.06055 429.51367 L 775 422.04297 z M 312.06445 436.51367 L 337.93555 436.51367 L 325 443.98242 L 312.06445 436.51367 z M 406.0625 436.51367 L 443.9375 436.51367 L 425 469.31445 L 406.0625 436.51367 z M 656.0625 436.51367 L 693.9375 436.51367 L 675 469.31445 L 656.0625 436.51367 z M 762.06445 436.51367 L 787.93555 436.51367 L 775 443.98242 L 762.06445 436.51367 z M 309.0625 441.70898 L 322 449.17969 L 322 464.11719 L 309.0625 441.70898 z M 340.9375 441.70898 L 328 464.11719 L 328 449.17969 L 328 449.17773 L 340.9375 441.70898 z M 759.0625 441.70898 L 772 449.17969 L 772 464.11719 L 759.0625 441.70898 z M 790.9375 441.70898 L 778 464.11719 L 778 449.17969 L 778 449.17773 L 790.9375 441.70898 z M 297 445.20898 L 297 460.14648 L 297 460.14844 L 284.0625 467.61914 L 297 445.20898 z M 353 445.20898 L 365.9375 467.61914 L 353 460.14844 L 353 460.14648 L 353 445.20898 z M 397 445.20898 L 397 460.14648 L 397 460.14844 L 384.0625 467.61914 L 397 445.20898 z M 403 445.20898 L 415.9375 467.61719 L 403 460.14648 L 403 445.20898 z M 447 445.20898 L 447 460.14648 L 434.0625 467.61719 L 447 445.20898 z M 453 445.20898 L 465.9375 467.61914 L 453 460.14844 L 453 460.14648 L 453 445.20898 z M 547 445.20898 L 547 460.14648 L 534.0625 467.61719 L 547 445.20898 z M 553 445.20898 L 565.9375 467.61914 L 553 460.14844 L 553 460.14648 L 553 445.20898 z M 647 445.20898 L 647 460.14648 L 647 460.14844 L 634.0625 467.61914 L 647 445.20898 z M 653 445.20898 L 665.9375 467.61719 L 653 460.14648 L 653 445.20898 z M 697 445.20898 L 697 460.14648 L 684.0625 467.61719 L 697 445.20898 z M 703 445.20898 L 715.9375 467.61914 L 703 460.14844 L 703 460.14648 L 703 445.20898 z M 747 445.20898 L 747 460.14648 L 734.0625 467.61719 L 747 445.20898 z M 803 445.20898 L 815.9375 467.61914 L 803 460.14844 L 803 460.14648 L 803 445.20898 z M 303 445.21094 L 309.46875 456.41406 L 315.9375 467.61719 L 303 460.14648 L 303 445.21094 z M 347 445.21094 L 347 460.14648 L 334.0625 467.61719 L 347 445.21094 z M 753 445.21094 L 759.46875 456.41406 L 765.9375 467.61914 L 753 460.14844 L 753 460.14648 L 753 445.21094 z M 797 445.21094 L 797 460.14648 L 784.0625 467.61719 L 797 445.21094 z M 300 465.34375 L 312.93945 472.81445 L 287.06055 472.81445 L 300 465.34375 z M 350 465.34375 L 362.93945 472.81445 L 337.06055 472.81445 L 350 465.34375 z M 400 465.34375 L 412.93945 472.81445 L 387.06055 472.81445 L 400 465.34375 z M 450 465.34375 L 462.93945 472.81445 L 437.06055 472.81445 L 450 465.34375 z M 550 465.34375 L 562.93945 472.81445 L 537.06055 472.81445 L 550 465.34375 z M 650 465.34375 L 662.93945 472.81445 L 637.06055 472.81445 L 650 465.34375 z M 700 465.34375 L 712.93945 472.81445 L 687.06055 472.81445 L 700 465.34375 z M 750 465.34375 L 762.93945 472.81445 L 737.06055 472.81445 L 750 465.34375 z M 800 465.34375 L 812.93945 472.81445 L 787.06055 472.81445 L 800 465.34375 z M 287.0625 479.81445 L 312.9375 479.81445 L 300 487.2832 L 287.0625 479.81445 z M 337.0625 479.81445 L 362.9375 479.81445 L 350 487.2832 L 337.0625 479.81445 z M 387.0625 479.81445 L 412.9375 479.81445 L 400 487.2832 L 387.0625 479.81445 z M 427.02148 479.81445 L 472.97852 479.81445 L 495.95898 519.61523 L 472.97852 559.41602 L 427.02148 559.41602 L 404.04102 519.61523 L 427.02148 479.81445 z M 487.0625 479.81445 L 512.9375 479.81445 L 500 487.2832 L 487.0625 479.81445 z M 537.0625 479.81445 L 562.9375 479.81445 L 550 487.2832 L 537.0625 479.81445 z M 587.0625 479.81445 L 612.9375 479.81445 L 600 487.2832 L 587.0625 479.81445 z M 627.02148 479.81445 L 672.97852 479.81445 L 695.95898 519.61523 L 672.97852 559.41602 L 627.02148 559.41602 L 604.04102 519.61523 L 627.02148 479.81445 z M 687.0625 479.81445 L 712.9375 479.81445 L 700 487.2832 L 687.0625 479.81445 z M 727.02148 479.81445 L 772.97852 479.81445 L 795.95898 519.61523 L 772.97852 559.41602 L 727.02148 559.41602 L 704.04102 519.61523 L 727.02148 479.81445 z M 787.0625 479.81445 L 812.9375 479.81445 L 800 487.2832 L 787.0625 479.81445 z M 284.0625 485.00977 L 297 492.48047 L 297 507.41992 L 284.0625 485.00977 z M 315.9375 485.00977 L 309.46875 496.21484 L 303 507.41797 L 303 492.48047 L 315.9375 485.00977 z M 334.0625 485.00977 L 347 492.48047 L 347 507.41797 L 334.0625 485.00977 z M 365.9375 485.00977 L 353 507.41797 L 353 492.48047 L 365.9375 485.00977 z M 384.0625 485.00977 L 397 492.48047 L 397 507.41797 L 384.0625 485.00977 z M 415.9375 485.00977 L 403 507.41992 L 403 492.48047 L 415.9375 485.00977 z M 484.0625 485.00977 L 497 492.48047 L 497 507.41992 L 484.0625 485.00977 z M 515.9375 485.00977 L 509.46875 496.21484 L 503 507.41797 L 503 492.48047 L 515.9375 485.00977 z M 534.0625 485.00977 L 547 492.48047 L 547 507.41797 L 534.0625 485.00977 z M 565.9375 485.00977 L 553 507.41797 L 553 492.48047 L 565.9375 485.00977 z M 584.0625 485.00977 L 597 492.48047 L 597 507.41797 L 584.0625 485.00977 z M 615.9375 485.00977 L 603 507.41992 L 603 492.48047 L 615.9375 485.00977 z M 684.0625 485.00977 L 697 492.48047 L 697 507.41992 L 684.0625 485.00977 z M 715.9375 485.00977 L 703 507.41992 L 703 492.48047 L 715.9375 485.00977 z M 784.0625 485.00977 L 797 492.48047 L 797 507.41992 L 784.0625 485.00977 z M 815.9375 485.00977 L 809.46875 496.21484 L 803 507.41797 L 803 492.48047 L 815.9375 485.00977 z M 828 488.50977 L 840.9375 510.91992 L 828 503.44922 L 828 488.50977 z M 322 488.51172 L 322 503.44922 L 309.0625 510.91992 L 322 488.51172 z M 328 488.51172 L 334.46875 499.71484 L 340.9375 510.91992 L 328 503.44922 L 328 488.51172 z M 372 488.51172 L 372 503.44922 L 359.0625 510.91992 L 372 488.51172 z M 378 488.51172 L 384.46875 499.71484 L 390.9375 510.91992 L 378 503.44922 L 378 488.51172 z M 522 488.51172 L 522 503.44922 L 509.0625 510.91992 L 522 488.51172 z M 528 488.51172 L 534.46875 499.71484 L 540.9375 510.91992 L 528 503.44922 L 528 488.51172 z M 572 488.51172 L 572 503.44922 L 559.0625 510.91992 L 572 488.51172 z M 578 488.51172 L 584.46875 499.71484 L 590.9375 510.91992 L 578 503.44922 L 578 488.51172 z M 822 488.51172 L 822 503.44922 L 809.0625 510.91992 L 822 488.51172 z M 325 508.64648 L 337.9375 516.11523 L 312.0625 516.11523 L 325 508.64648 z M 375 508.64648 L 387.9375 516.11523 L 362.0625 516.11523 L 375 508.64648 z M 525 508.64648 L 537.9375 516.11523 L 512.0625 516.11523 L 525 508.64648 z M 575 508.64648 L 587.9375 516.11523 L 562.0625 516.11523 L 575 508.64648 z M 825 508.64648 L 837.9375 516.11523 L 812.0625 516.11523 L 825 508.64648 z M 362.0625 523.11523 L 387.9375 523.11523 L 375 530.58398 L 362.0625 523.11523 z M 512.0625 523.11523 L 537.9375 523.11523 L 525 530.58398 L 512.0625 523.11523 z M 562.0625 523.11523 L 587.9375 523.11523 L 575 530.58398 L 562.0625 523.11523 z M 812.0625 523.11523 L 837.9375 523.11523 L 825 530.58398 L 812.0625 523.11523 z M 359.0625 528.31055 L 372 535.78125 L 372 550.71875 L 359.0625 528.31055 z M 390.9375 528.31055 L 378 550.71875 L 378 535.78125 L 390.9375 528.31055 z M 509.0625 528.31055 L 522 535.78125 L 522 550.71875 L 509.0625 528.31055 z M 540.9375 528.31055 L 528 550.71875 L 528 535.78125 L 540.9375 528.31055 z M 559.0625 528.31055 L 572 535.78125 L 572 550.71875 L 559.0625 528.31055 z M 590.9375 528.31055 L 578 550.71875 L 578 535.78125 L 590.9375 528.31055 z M 809.0625 528.31055 L 822 535.78125 L 822 550.71875 L 809.0625 528.31055 z M 840.9375 528.31055 L 828 550.7207 L 828 535.78125 L 840.9375 528.31055 z M 347 531.81055 L 347 546.75 L 334.0625 554.2207 L 347 531.81055 z M 403 531.81055 L 415.9375 554.2207 L 403 546.75 L 403 531.81055 z M 497 531.81055 L 497 546.75 L 484.0625 554.2207 L 497 531.81055 z M 603 531.81055 L 615.9375 554.2207 L 603 546.75 L 603 531.81055 z M 697 531.81055 L 697 546.75 L 684.0625 554.2207 L 697 531.81055 z M 703 531.81055 L 715.9375 554.2207 L 703 546.75 L 703 531.81055 z M 797 531.81055 L 797 546.75 L 784.0625 554.2207 L 797 531.81055 z M 353 531.8125 L 359.46875 543.01562 L 365.9375 554.2207 L 353 546.75 L 353 531.8125 z M 397 531.8125 L 397 546.75 L 384.0625 554.2207 L 397 531.8125 z M 503 531.8125 L 509.46875 543.01562 L 515.9375 554.2207 L 503 546.75 L 503 531.8125 z M 547 531.8125 L 547 546.75 L 534.0625 554.2207 L 547 531.8125 z M 553 531.8125 L 559.46875 543.01562 L 565.9375 554.2207 L 553 546.75 L 553 531.8125 z M 597 531.8125 L 597 546.75 L 584.0625 554.2207 L 597 531.8125 z M 803 531.8125 L 809.46875 543.01562 L 815.9375 554.2207 L 803 546.75 L 803 531.8125 z M 350 551.94727 L 362.9375 559.41602 L 337.0625 559.41602 L 350 551.94727 z M 400 551.94727 L 412.9375 559.41602 L 387.0625 559.41602 L 400 551.94727 z M 500 551.94727 L 512.9375 559.41602 L 487.0625 559.41602 L 500 551.94727 z M 550 551.94727 L 562.9375 559.41602 L 537.0625 559.41602 L 550 551.94727 z M 600 551.94727 L 612.9375 559.41602 L 587.0625 559.41602 L 600 551.94727 z M 700 551.94727 L 712.9375 559.41602 L 687.0625 559.41602 L 700 551.94727 z M 800 551.94727 L 812.9375 559.41602 L 787.0625 559.41602 L 800 551.94727 z M 337.06055 566.41602 L 362.93945 566.41602 L 350 573.88672 L 337.06055 566.41602 z M 387.06055 566.41602 L 412.93945 566.41602 L 400 573.88672 L 387.06055 566.41602 z M 437.06055 566.41602 L 462.93945 566.41602 L 450 573.88672 L 437.06055 566.41602 z M 537.06055 566.41602 L 562.93945 566.41602 L 550 573.88672 L 537.06055 566.41602 z M 577.02148 566.41602 L 622.97852 566.41602 L 645.95898 606.21875 L 622.97852 646.01953 L 577.02148 646.01953 L 554.04102 606.21875 L 577.02148 566.41602 z M 637.06055 566.41602 L 662.93945 566.41602 L 650 573.88672 L 637.06055 566.41602 z M 687.06055 566.41602 L 712.93945 566.41602 L 700 573.88672 L 687.06055 566.41602 z M 737.06055 566.41602 L 762.93945 566.41602 L 750 573.88672 L 737.06055 566.41602 z M 787.06055 566.41602 L 812.93945 566.41602 L 800 573.88672 L 787.06055 566.41602 z M 675 569.91602 L 693.9375 602.71875 L 656.0625 602.71875 L 675 569.91602 z M 725 569.91602 L 745.95898 606.21875 L 722.97852 646.01953 L 681.0625 646.01953 L 703.03125 607.96875 L 725 569.91602 z M 775 569.91602 L 793.9375 602.71875 L 756.0625 602.71875 L 775 569.91602 z M 365.9375 571.61133 L 359.46875 582.81641 L 353 594.02148 L 353 579.08398 L 353 579.08203 L 365.9375 571.61133 z M 415.9375 571.61133 L 409.46875 582.81641 L 403 594.02148 L 403 579.08398 L 403 579.08203 L 415.9375 571.61133 z M 465.9375 571.61133 L 453 594.02148 L 453 579.08398 L 453 579.08203 L 465.9375 571.61133 z M 565.9375 571.61133 L 553 594.02148 L 553 579.08398 L 553 579.08203 L 565.9375 571.61133 z M 665.9375 571.61133 L 653 594.02148 L 653 579.08398 L 653 579.08203 L 665.9375 571.61133 z M 715.9375 571.61133 L 703 594.02148 L 703 579.08398 L 703 579.08203 L 715.9375 571.61133 z M 765.9375 571.61133 L 753 594.02148 L 753 579.08398 L 753 579.08203 L 765.9375 571.61133 z M 815.9375 571.61133 L 803 594.02148 L 803 579.08398 L 803 579.08203 L 815.9375 571.61133 z M 334.0625 571.61328 L 347 579.08398 L 347 594.02148 L 334.0625 571.61328 z M 384.0625 571.61328 L 397 579.08398 L 397 594.02148 L 384.0625 571.61328 z M 434.0625 571.61328 L 447 579.08398 L 447 594.02148 L 434.0625 571.61328 z M 534.0625 571.61328 L 547 579.08398 L 547 594.02148 L 534.0625 571.61328 z M 634.0625 571.61328 L 647 579.08398 L 647 594.02148 L 634.0625 571.61328 z M 684.0625 571.61328 L 697 579.08398 L 697 594.02148 L 684.0625 571.61328 z M 734.0625 571.61328 L 747 579.08398 L 747 594.02148 L 734.0625 571.61328 z M 784.0625 571.61328 L 797 579.08398 L 797 594.02148 L 784.0625 571.61328 z M 372 575.11328 L 372 590.05078 L 359.06445 597.51953 L 372 575.11328 z M 378 575.11328 L 384.46875 586.31641 L 390.9375 597.52148 L 378 590.05273 L 378 590.05078 L 378 575.11328 z M 422 575.11328 L 422 590.05078 L 409.06445 597.51953 L 422 575.11328 z M 428 575.11328 L 434.46875 586.31641 L 440.9375 597.52148 L 428 590.05273 L 428 590.05078 L 428 575.11328 z M 375 595.24805 L 387.93945 602.71875 L 362.06055 602.71875 L 375 595.24805 z M 425 595.24805 L 437.93945 602.71875 L 412.06055 602.71875 L 425 595.24805 z M 512.06445 609.71875 L 537.93555 609.71875 L 525 617.1875 L 512.06445 609.71875 z M 662.06445 609.71875 L 687.93555 609.71875 L 675 617.1875 L 662.06445 609.71875 z M 762.06445 609.71875 L 787.93555 609.71875 L 775 617.1875 L 762.06445 609.71875 z M 509.0625 614.91406 L 522 622.38477 L 522 637.32227 L 509.0625 614.91406 z M 540.9375 614.91406 L 528 637.32227 L 528 622.38477 L 528 622.38281 L 540.9375 614.91406 z M 659.0625 614.91406 L 672 622.38477 L 672 637.32227 L 659.0625 614.91406 z M 690.9375 614.91406 L 678 637.32422 L 678 622.38477 L 678 622.38281 L 690.9375 614.91406 z M 759.0625 614.91406 L 772 622.38477 L 772 637.32227 L 759.0625 614.91406 z M 790.9375 614.91406 L 778 637.32422 L 778 622.38477 L 778 622.38281 L 790.9375 614.91406 z M 497 618.41406 L 497 633.35156 L 497 633.35352 L 484.0625 640.82422 L 497 618.41406 z M 553 618.41406 L 565.9375 640.82227 L 553 633.35156 L 553 618.41406 z M 647 618.41406 L 647 633.35156 L 647 633.35352 L 634.0625 640.82422 L 647 618.41406 z M 747 618.41406 L 747 633.35156 L 734.0625 640.82227 L 747 618.41406 z M 503 618.41602 L 509.46875 629.61914 L 515.9375 640.82227 L 503 633.35156 L 503 618.41602 z M 547 618.41602 L 547 633.35156 L 547 633.35352 L 534.0625 640.82422 L 547 618.41602 z M 653 618.41602 L 659.46875 629.61914 L 665.9375 640.82227 L 653 633.35156 L 653 618.41602 z M 753 618.41602 L 759.46875 629.61914 L 765.9375 640.82422 L 753 633.35352 L 753 633.35156 L 753 618.41602 z M 500 638.54883 L 512.93945 646.01953 L 487.06055 646.01953 L 500 638.54883 z M 550 638.54883 L 562.93945 646.01953 L 537.06055 646.01953 L 550 638.54883 z M 650 638.54883 L 662.93945 646.01953 L 637.06055 646.01953 L 650 638.54883 z M 750 638.54883 L 762.93945 646.01953 L 737.06055 646.01953 L 750 638.54883 z M 487.0625 653.01953 L 512.9375 653.01953 L 500 660.48828 L 487.0625 653.01953 z M 537.0625 653.01953 L 562.9375 653.01953 L 550 660.48828 L 537.0625 653.01953 z M 587.0625 653.01953 L 612.9375 653.01953 L 600 660.48828 L 587.0625 653.01953 z M 631.0625 653.01953 L 647 653.01953 L 647 662.2207 L 639.03125 666.82227 L 631.0625 653.01953 z M 653 653.01953 L 668.9375 653.01953 L 660.96875 666.82227 L 653 662.2207 L 653 653.01953 z M 687.0625 653.01953 L 712.9375 653.01953 L 700 660.48828 L 687.0625 653.01953 z M 737.0625 653.01953 L 762.9375 653.01953 L 750 660.48828 L 737.0625 653.01953 z M 625 656.51953 L 632.96875 670.32227 L 625 674.92383 L 617.03125 670.32227 L 625 656.51953 z M 675 656.51953 L 682.96875 670.32227 L 675 674.92383 L 667.03125 670.32227 L 675 656.51953 z M 484.0625 658.21484 L 497 665.68555 L 497 680.62305 L 484.0625 658.21484 z M 515.9375 658.21484 L 503 680.62305 L 503 665.68555 L 515.9375 658.21484 z M 534.0625 658.21484 L 547 665.68555 L 547 680.62305 L 534.0625 658.21484 z M 565.9375 658.21484 L 553 680.62305 L 553 665.68555 L 565.9375 658.21484 z M 584.0625 658.21484 L 597 665.68555 L 597 680.62305 L 584.0625 658.21484 z M 615.9375 658.21484 L 603 680.62305 L 603 665.68555 L 615.9375 658.21484 z M 684.0625 658.21484 L 697 665.68555 L 697 680.62305 L 684.0625 658.21484 z M 715.9375 658.21484 L 703 680.62305 L 703 665.68555 L 715.9375 658.21484 z M 734.0625 658.21484 L 747 665.68555 L 747 680.62305 L 734.0625 658.21484 z M 765.9375 658.21484 L 753 680.625 L 753 665.68555 L 765.9375 658.21484 z M 472 661.71484 L 472 676.6543 L 459.0625 684.125 L 472 661.71484 z M 478 661.7168 L 484.46875 672.91992 L 490.9375 684.125 L 478 676.6543 L 478 661.7168 z M 522 661.7168 L 522 676.6543 L 509.0625 684.125 L 522 661.7168 z M 528 661.7168 L 534.46875 672.91992 L 540.9375 684.125 L 528 676.6543 L 528 661.7168 z M 572 661.7168 L 572 676.6543 L 559.0625 684.125 L 572 661.7168 z M 578 661.7168 L 584.46875 672.91992 L 590.9375 684.125 L 578 676.6543 L 578 661.7168 z M 722 661.7168 L 722 676.6543 L 709.0625 684.125 L 722 661.7168 z M 728 661.7168 L 734.46875 672.91992 L 740.9375 684.125 L 728 676.6543 L 728 661.7168 z M 650 667.41602 L 657.96875 672.01758 L 650 685.82031 L 642.03125 672.01758 L 650 667.41602 z M 614.03125 675.51758 L 622 680.11914 L 622 689.32031 L 606.0625 689.32031 L 614.03125 675.51758 z M 635.96875 675.51758 L 643.9375 689.32031 L 628 689.32031 L 628 680.11914 L 635.96875 675.51758 z M 664.03125 675.51758 L 672 680.11914 L 672 689.32031 L 656.0625 689.32031 L 664.03125 675.51758 z M 685.96875 675.51758 L 693.9375 689.32031 L 678 689.32031 L 678 680.11914 L 685.96875 675.51758 z M 475 681.85156 L 487.9375 689.32031 L 462.0625 689.32031 L 475 681.85156 z M 525 681.85156 L 537.9375 689.32031 L 512.0625 689.32031 L 525 681.85156 z M 575 681.85156 L 587.9375 689.32031 L 562.0625 689.32031 L 575 681.85156 z M 725 681.85156 L 737.9375 689.32031 L 712.0625 689.32031 L 725 681.85156 z M 462.0625 696.32031 L 487.9375 696.32031 L 475 703.78906 L 462.0625 696.32031 z M 512.0625 696.32031 L 537.9375 696.32031 L 525 703.78906 L 512.0625 696.32031 z M 562.0625 696.32031 L 587.9375 696.32031 L 575 703.78906 L 562.0625 696.32031 z M 606.0625 696.32031 L 622 696.32031 L 622 705.52148 L 614.03125 710.12305 L 606.0625 696.32031 z M 628 696.32031 L 643.9375 696.32031 L 635.96875 710.12305 L 628 705.52148 L 628 696.32031 z M 656.0625 696.32031 L 672 696.32031 L 672 705.52148 L 664.03125 710.12305 L 656.0625 696.32031 z M 678 696.32031 L 693.9375 696.32031 L 685.96875 710.12305 L 678 705.52148 L 678 696.32031 z M 712.0625 696.32031 L 737.9375 696.32031 L 725 703.78906 L 712.0625 696.32031 z M 650 699.82031 L 657.96875 713.62305 L 650 718.22461 L 642.03125 713.62305 L 650 699.82031 z M 459.0625 701.51562 L 472 708.98633 L 472 723.92383 L 459.0625 701.51562 z M 490.9375 701.51562 L 478 723.92383 L 478 708.98633 L 490.9375 701.51562 z M 509.0625 701.51562 L 522 708.98633 L 522 723.92383 L 509.0625 701.51562 z M 540.9375 701.51562 L 528 723.92383 L 528 708.98633 L 540.9375 701.51562 z M 559.0625 701.51562 L 572 708.98633 L 572 723.92383 L 559.0625 701.51562 z M 590.9375 701.51562 L 578 723.92383 L 578 708.98633 L 590.9375 701.51562 z M 709.0625 701.51562 L 722 708.98633 L 722 723.92383 L 709.0625 701.51562 z M 740.9375 701.51562 L 728 723.92578 L 728 708.98633 L 740.9375 701.51562 z M 447 705.01562 L 447 719.95508 L 434.0625 727.42578 L 447 705.01562 z M 453 705.01758 L 459.46875 716.2207 L 465.9375 727.42578 L 453 719.95508 L 453 705.01758 z M 497 705.01758 L 497 719.95508 L 484.0625 727.42578 L 497 705.01758 z M 503 705.01758 L 509.46875 716.2207 L 515.9375 727.42578 L 503 719.95508 L 503 705.01758 z M 547 705.01758 L 547 719.95508 L 534.0625 727.42578 L 547 705.01758 z M 553 705.01758 L 559.46875 716.2207 L 565.9375 727.42578 L 553 719.95508 L 553 705.01758 z M 597 705.01758 L 597 719.95508 L 584.0625 727.42578 L 597 705.01758 z M 603 705.01758 L 609.46875 716.2207 L 615.9375 727.42578 L 603 719.95508 L 603 705.01758 z M 697 705.01758 L 697 719.95508 L 684.0625 727.42578 L 697 705.01758 z M 703 705.01758 L 709.46875 716.2207 L 715.9375 727.42578 L 703 719.95508 L 703 705.01758 z M 625 710.71875 L 632.96875 715.31836 L 625 729.12109 L 617.03125 715.31836 L 625 710.71875 z M 675 710.71875 L 682.96875 715.31836 L 675 729.12109 L 667.03125 715.31836 L 675 710.71875 z M 639.03125 718.81836 L 647 723.41992 L 647 732.62109 L 631.0625 732.62109 L 639.03125 718.81836 z M 660.96875 718.81836 L 668.9375 732.62109 L 653 732.62109 L 653 723.41992 L 660.96875 718.81836 z M 450 725.15234 L 462.9375 732.62109 L 437.0625 732.62109 L 450 725.15234 z M 500 725.15234 L 512.9375 732.62109 L 487.0625 732.62109 L 500 725.15234 z M 550 725.15234 L 562.9375 732.62109 L 537.0625 732.62109 L 550 725.15234 z M 600 725.15234 L 612.9375 732.62109 L 587.0625 732.62109 L 600 725.15234 z M 700 725.15234 L 712.9375 732.62109 L 687.0625 732.62109 L 700 725.15234 z M 437.06055 739.62109 L 462.93945 739.62109 L 450 747.0918 L 437.06055 739.62109 z M 487.06055 739.62109 L 512.93945 739.62109 L 500 747.0918 L 487.06055 739.62109 z M 537.06055 739.62109 L 562.93945 739.62109 L 550 747.0918 L 537.06055 739.62109 z M 587.06055 739.62109 L 612.93945 739.62109 L 600 747.0918 L 587.06055 739.62109 z M 637.06055 739.62109 L 662.93945 739.62109 L 650 747.0918 L 637.06055 739.62109 z M 687.06055 739.62109 L 712.93945 739.62109 L 700 747.0918 L 687.06055 739.62109 z M 465.9375 744.81641 L 459.46875 756.02344 L 453 767.22656 L 453 752.28906 L 453 752.28711 L 465.9375 744.81641 z M 515.9375 744.81641 L 509.46875 756.02344 L 503 767.22656 L 503 752.28906 L 503 752.28711 L 515.9375 744.81641 z M 565.9375 744.81641 L 559.46875 756.02344 L 553 767.22656 L 553 752.28906 L 553 752.28711 L 565.9375 744.81641 z M 615.9375 744.81641 L 609.46875 756.02344 L 603 767.22656 L 603 752.28906 L 603 752.28711 L 615.9375 744.81641 z M 665.9375 744.81641 L 659.46875 756.02344 L 653 767.22656 L 653 752.28906 L 653 752.28711 L 665.9375 744.81641 z M 715.9375 744.81641 L 703 767.22656 L 703 752.28906 L 703 752.28711 L 715.9375 744.81641 z M 434.0625 744.81836 L 447 752.28906 L 447 767.22656 L 434.0625 744.81836 z M 484.0625 744.81836 L 497 752.28906 L 497 767.22656 L 484.0625 744.81836 z M 534.0625 744.81836 L 547 752.28906 L 547 767.22656 L 534.0625 744.81836 z M 584.0625 744.81836 L 597 752.28906 L 597 767.22656 L 584.0625 744.81836 z M 634.0625 744.81836 L 647 752.28906 L 647 767.22656 L 634.0625 744.81836 z M 684.0625 744.81836 L 697 752.28906 L 697 767.22656 L 684.0625 744.81836 z M 472 748.31836 L 472 763.25586 L 472 763.25781 L 459.0625 770.72656 L 472 748.31836 z M 478 748.31836 L 484.46875 759.52344 L 490.93555 770.72461 L 478 763.25586 L 478 748.31836 z M 522 748.31836 L 522 763.25586 L 509.06445 770.72461 L 522 748.31836 z M 528 748.31836 L 534.46875 759.52344 L 540.9375 770.72656 L 528 763.25781 L 528 763.25586 L 528 748.31836 z M 572 748.31836 L 572 763.25586 L 559.06445 770.72461 L 572 748.31836 z M 578 748.31836 L 584.46875 759.52344 L 590.9375 770.72656 L 578 763.25781 L 578 763.25586 L 578 748.31836 z M 622 748.31836 L 622 763.25586 L 609.06445 770.72461 L 622 748.31836 z M 628 748.31836 L 634.46875 759.52344 L 640.9375 770.72656 L 628 763.25781 L 628 763.25586 L 628 748.31836 z M 672 748.31836 L 672 763.25586 L 659.06445 770.72461 L 672 748.31836 z M 678 748.31836 L 684.46875 759.52344 L 690.9375 770.72656 L 678 763.25781 L 678 763.25586 L 678 748.31836 z M 475 768.45312 L 487.93945 775.92383 L 462.06055 775.92383 L 475 768.45312 z M 525 768.45312 L 537.93945 775.92383 L 512.06055 775.92383 L 525 768.45312 z M 575 768.45312 L 587.93945 775.92383 L 562.06055 775.92383 L 575 768.45312 z M 625 768.45312 L 637.93945 775.92383 L 612.06055 775.92383 L 625 768.45312 z M 675 768.45312 L 687.93945 775.92383 L 662.06055 775.92383 L 675 768.45312 z " />
</svg>
