<?xml version="1.0" encoding="UTF-8" standalone="no"?>
<svg
   version="1.1"
   width="1500"
   height="1000"
   class="svg_pane"
   data-attrTriangle="{&quot;fill&quot;:&quot;none&quot;,&quot;stroke&quot;:&quot;black&quot;,&quot;stroke-width&quot;:4,&quot;stroke-linecap&quot;:&quot;round&quot;,&quot;stroke-linejoin&quot;:&quot;round&quot;}"
   data-attrPattern="{&quot;fill&quot;:&quot;none&quot;,&quot;stroke&quot;:&quot;black&quot;,&quot;stroke-width&quot;:8,&quot;stroke-linecap&quot;:&quot;round&quot;,&quot;stroke-linejoin&quot;:&quot;round&quot;}"
   id="svg574"
   sodipodi:docname="kumiko(9) copy.svg"
   inkscape:version="1.3.2 (091e20e, 2023-11-25)"
   xmlns:inkscape="http://www.inkscape.org/namespaces/inkscape"
   xmlns:sodipodi="http://sodipodi.sourceforge.net/DTD/sodipodi-0.dtd"
   xmlns="http://www.w3.org/2000/svg"
   xmlns:svg="http://www.w3.org/2000/svg">
  <defs
     id="defs574" />
  <sodipodi:namedview
     id="namedview574"
     pagecolor="#ffffff"
     bordercolor="#000000"
     borderopacity="0.25"
     inkscape:showpageshadow="2"
     inkscape:pageopacity="0.0"
     inkscape:pagecheckerboard="0"
     inkscape:deskcolor="#d1d1d1"
     inkscape:zoom="1.2230064"
     inkscape:cx="573.58654"
     inkscape:cy="144.72533"
     inkscape:window-width="1312"
     inkscape:window-height="449"
     inkscape:window-x="0"
     inkscape:window-y="25"
     inkscape:window-maximized="0"
     inkscape:current-layer="svg574" />
  <path
     id="polyline37"
     style="color:#000000;fill:#000000;stroke-linecap:round;stroke-linejoin:round;-inkscape-stroke:none"
     d="M 550 82.603516 A 4 4 0 0 0 549.49805 82.703125 A 4 4 0 0 0 548.96484 82.738281 A 4 4 0 0 0 548.72266 82.857422 A 4 4 0 0 0 548.03906 83.195312 A 4 4 0 0 0 547.38867 83.630859 A 4 4 0 0 0 546.88477 84.205078 A 4 4 0 0 0 546.53516 84.603516 A 4 4 0 0 0 546.44922 84.855469 A 4 4 0 0 0 546.20312 85.580078 A 4 4 0 0 0 546.05078 86.347656 A 4 4 0 0 0 546 86.603516 L 546 89.53125 L 525.53516 124.97461 L 523 126.43945 A 4.0004 4.0004 0 0 0 522.81445 126.60742 A 4 4 0 0 0 522.12891 127.22852 A 4.0004 4.0004 0 0 0 521.78711 127.61719 A 4 4 0 0 0 521.53516 127.9043 A 4 4 0 0 0 521.25781 128.71875 A 4.0004 4.0004 0 0 0 521.18359 128.94141 A 4 4 0 0 0 521.09766 130.36328 A 4.0004 4.0004 0 0 0 521.10352 130.42969 A 4 4 0 0 0 522.59375 133.00977 A 4.0004 4.0004 0 0 0 522.625 133.03711 A 4 4 0 0 0 523 133.36719 L 525.53516 134.83008 L 546 170.27734 L 546 173.20508 A 4 4 0 0 0 546.05078 173.45898 A 4 4 0 0 0 546.20312 174.22852 A 4 4 0 0 0 546.44922 174.95312 A 4 4 0 0 0 546.53516 175.20508 A 4 4 0 0 0 546.88477 175.60352 A 4 4 0 0 0 547.38867 176.17773 A 4 4 0 0 0 548.03906 176.61328 A 4 4 0 0 0 548.72266 176.95117 A 4 4 0 0 0 549.49805 177.10547 A 4 4 0 0 0 550 177.20508 A 4 4 0 0 0 550.25391 177.1543 A 4 4 0 0 0 551.02344 177.00195 A 4 4 0 0 0 551.74805 176.75586 A 4 4 0 0 0 552 176.66992 L 554.53711 175.20508 L 595.46289 175.20508 L 598 176.66992 A 4.0006438 4.0006438 0 0 0 598.25195 176.75586 A 4 4 0 0 0 598.97656 177.00195 A 4.0006438 4.0006438 0 0 0 599.74414 177.1543 A 4 4 0 0 0 600 177.20508 A 4 4 0 0 0 600.51172 177.10352 A 4.0006438 4.0006438 0 0 0 601.27148 176.95117 A 4 4 0 0 0 601.96289 176.61133 A 4.0006438 4.0006438 0 0 0 602.61133 176.17773 A 4 4 0 0 0 603.11523 175.60352 A 4.0006438 4.0006438 0 0 0 603.55078 174.95312 A 4 4 0 0 0 603.79688 174.22852 A 4.0006438 4.0006438 0 0 0 603.94922 173.46094 A 4 4 0 0 0 604 173.20508 L 604 170.27734 L 624.46484 134.83008 L 627 133.36719 A 4.0004 4.0004 0 0 0 627.19922 133.19531 A 4 4 0 0 0 627.75781 132.71094 A 4.0004 4.0004 0 0 0 628.16016 132.25195 A 4 4 0 0 0 628.46484 131.9043 A 4 4 0 0 0 627 126.43945 L 624.46484 124.97461 L 604 89.53125 L 604 86.603516 A 4 4 0 0 0 600 82.603516 A 4 4 0 0 0 599.55273 82.691406 A 4.0004 4.0004 0 0 0 598.93359 82.816406 A 4 4 0 0 0 598.25781 83.048828 A 4.0004 4.0004 0 0 0 598 83.138672 L 595.46289 84.603516 L 554.53711 84.603516 L 552 83.138672 A 4 4 0 0 0 550.53516 82.640625 A 4 4 0 0 0 550.50586 82.636719 A 4 4 0 0 0 550 82.603516 z M 561.46484 88.603516 L 588.53516 88.603516 L 575 96.417969 L 561.46484 88.603516 z M 557.46484 95.53125 L 571 103.3457 L 571 118.97461 L 564.23242 107.25391 L 557.46484 95.53125 z M 592.53516 95.53125 L 579 118.97461 L 579 103.3457 L 592.53516 95.53125 z M 546 97.53125 L 546 113.16016 L 532.46484 120.97461 L 546 97.53125 z M 554 97.53125 L 567.5332 120.97461 L 554 113.16016 L 554 97.53125 z M 604 97.53125 L 617.53516 120.97461 L 604 113.16016 L 604 97.53125 z M 596 97.533203 L 596 113.16016 L 582.46484 120.97461 L 596 97.533203 z M 550 120.08789 L 563.53906 127.9043 L 536.46094 127.9043 L 550 120.08789 z M 600 120.08789 L 613.53906 127.9043 L 586.46094 127.9043 L 600 120.08789 z M 536.46484 131.9043 L 563.53516 131.9043 L 550 139.71875 L 536.46484 131.9043 z M 586.46484 131.9043 L 613.53516 131.9043 L 600 139.71875 L 586.46484 131.9043 z M 532.46484 138.83203 L 546 146.64648 L 546 162.27734 L 532.46484 138.83203 z M 567.53516 138.83203 L 560.76758 150.55469 L 554 162.27539 L 554 146.64648 L 567.53516 138.83203 z M 582.46484 138.83203 L 596 146.64648 L 596 162.27539 L 582.46484 138.83203 z M 617.53516 138.83203 L 604 162.27734 L 604 146.64648 L 617.53516 138.83203 z M 571 140.83203 L 571 156.46094 L 557.4668 164.27539 L 571 140.83203 z M 579 140.83398 L 592.53516 164.27539 L 579 156.46094 L 579 140.83398 z M 575 163.39062 L 588.53516 171.20508 L 561.46484 171.20508 L 575 163.39062 z " />
</svg>
