<?xml version="1.0" encoding="UTF-8" standalone="no"?>
<svg
   version="1.1"
   width="1500"
   height="1000"
   class="svg_pane"
   data-attrTriangle="{&quot;fill&quot;:&quot;none&quot;,&quot;stroke&quot;:&quot;black&quot;,&quot;stroke-width&quot;:7,&quot;stroke-linecap&quot;:&quot;round&quot;,&quot;stroke-linejoin&quot;:&quot;round&quot;}"
   data-attrPattern="{&quot;fill&quot;:&quot;none&quot;,&quot;stroke&quot;:&quot;black&quot;,&quot;stroke-width&quot;:6,&quot;stroke-linecap&quot;:&quot;round&quot;,&quot;stroke-linejoin&quot;:&quot;round&quot;}"
   id="svg254"
   sodipodi:docname="kumiko_large.svg"
   inkscape:version="1.3.2 (091e20e, 2023-11-25)"
   xmlns:inkscape="http://www.inkscape.org/namespaces/inkscape"
   xmlns:sodipodi="http://sodipodi.sourceforge.net/DTD/sodipodi-0.dtd"
   xmlns="http://www.w3.org/2000/svg"
   xmlns:svg="http://www.w3.org/2000/svg">
  <defs
     id="defs254" />
  <sodipodi:namedview
     id="namedview254"
     pagecolor="#ffffff"
     bordercolor="#000000"
     borderopacity="0.25"
     inkscape:showpageshadow="2"
     inkscape:pageopacity="0.0"
     inkscape:pagecheckerboard="0"
     inkscape:deskcolor="#d1d1d1"
     inkscape:zoom="0.67697597"
     inkscape:cx="566.48982"
     inkscape:cy="480.07612"
     inkscape:window-width="1400"
     inkscape:window-height="847"
     inkscape:window-x="0"
     inkscape:window-y="25"
     inkscape:window-maximized="1"
     inkscape:current-layer="svg254" />
  <path
     id="polyline1"
     style="color:#000000;fill:#000000;stroke-width:1.03907;stroke-linecap:round;stroke-linejoin:round;-inkscape-stroke:none"
     d="m 405.02002,256.30859 a 3.6367321,3.6367321 0 0 0 -0.45459,0.18874 3.6367321,3.6367321 0 0 0 -0.48706,-0.0649 3.6367321,3.6367321 0 0 0 -0.38965,0.29833 3.6367321,3.6367321 0 0 0 -0.48707,0.0649 3.6367321,3.6367321 0 0 0 -0.29832,0.38763 3.6367321,3.6367321 0 0 0 -0.21106,0.27397 3.6367321,3.6367321 0 0 0 -0.069,0.0913 3.6367321,3.6367321 0 0 0 -0.75292,0.57839 l -25.97666,44.99239 -25.97666,44.99238 -25.97665,44.99238 -25.97666,44.99441 -25.97666,44.99238 a 3.6370957,3.6370957 0 0 0 -0.43227,1.68646 3.6367321,3.6367321 0 0 0 -0.0548,0.13191 3.6367321,3.6367321 0 0 0 0.0548,0.13192 3.6370957,3.6370957 0 0 0 0.43227,1.68644 L 297.96372,531.72 a 3.6370957,3.6370957 0 0 0 3.14967,1.81837 h 45.65398 l -22.82699,39.53729 a 3.6370957,3.6370957 0 0 0 -0.43227,1.68645 3.6367321,3.6367321 0 0 0 -0.0548,0.13192 3.6367321,3.6367321 0 0 0 0.0548,0.13191 3.6370957,3.6370957 0 0 0 0.43227,1.68645 l 25.97665,44.99441 a 3.6370957,3.6370957 0 0 0 3.14967,1.81837 h 51.95332 51.95331 a 3.6370957,3.6370957 0 0 0 1.16693,-0.20498 3.6370957,3.6370957 0 0 0 0.10959,-0.0325 3.6370957,3.6370957 0 0 0 0.97006,-0.56012 3.6370957,3.6370957 0 0 0 0.138,-0.10755 3.6370957,3.6370957 0 0 0 0.70218,-0.83815 3.6370957,3.6370957 0 0 0 0.0629,-0.0751 l 24.92744,-43.17604 h 47.75242 l 21.77777,37.72094 h -45.65398 a 3.6367321,3.6367321 0 0 0 -0.45459,0.18874 3.6367321,3.6367321 0 0 0 -0.48706,-0.0649 3.6367321,3.6367321 0 0 0 -0.38965,0.29832 3.6367321,3.6367321 0 0 0 -0.48707,0.065 3.6367321,3.6367321 0 0 0 -0.29832,0.38762 3.6367321,3.6367321 0 0 0 -0.21106,0.27397 3.6367321,3.6367321 0 0 0 -0.069,0.0913 3.6367321,3.6367321 0 0 0 -0.75292,0.57839 l -25.97666,44.99238 -25.97665,44.99238 -25.97666,44.99238 a 3.6370957,3.6370957 0 0 0 -0.43227,1.68646 3.6367321,3.6367321 0 0 0 -0.0548,0.13191 3.6367321,3.6367321 0 0 0 0.0548,0.13192 3.6370957,3.6370957 0 0 0 0.43227,1.68645 l 25.97666,44.99441 a 3.6370957,3.6370957 0 0 0 3.14966,1.81837 h 51.95332 51.95331 51.95332 51.95332 51.95331 a 3.6370957,3.6370957 0 0 0 1.16692,-0.20498 3.6370957,3.6370957 0 0 0 0.10959,-0.0325 3.6370957,3.6370957 0 0 0 0.97007,-0.56012 3.6370957,3.6370957 0 0 0 0.13799,-0.10756 3.6370957,3.6370957 0 0 0 0.70218,-0.83815 3.6370957,3.6370957 0 0 0 0.0629,-0.0751 l 25.97666,-44.99441 25.97665,-44.99239 25.97666,-44.99238 25.97666,-44.99238 25.97666,-44.99441 25.97665,-44.99239 a 3.6370957,3.6370957 0 0 0 0.0731,-0.16032 3.6370957,3.6370957 0 0 0 0.14206,-0.31253 3.6370957,3.6370957 0 0 0 0.11366,-0.32877 3.6370957,3.6370957 0 0 0 0.0791,-0.32064 3.6370957,3.6370957 0 0 0 0.0507,-0.35922 3.6370957,3.6370957 0 0 0 0.0162,-0.33688 3.6370957,3.6370957 0 0 0 -0.0162,-0.33688 3.6370957,3.6370957 0 0 0 -0.0507,-0.35921 3.6370957,3.6370957 0 0 0 -0.0791,-0.32065 3.6370957,3.6370957 0 0 0 -0.11366,-0.32877 3.6370957,3.6370957 0 0 0 -0.14206,-0.31253 3.6370957,3.6370957 0 0 0 -0.0731,-0.16033 L 849.77287,483.0909 823.79621,438.09852 797.81955,393.10411 771.84289,348.11173 a 3.6367321,3.6367321 0 0 0 -0.0345,-0.0264 3.6370957,3.6370957 0 0 0 -1.24405,-1.26434 3.6367321,3.6367321 0 0 0 -0.0528,-0.0406 3.6367321,3.6367321 0 0 0 -0.0386,-0.004 3.6370957,3.6370957 0 0 0 -1.7798,-0.483 h -45.65398 l 22.82699,-39.53728 a 3.6370957,3.6370957 0 0 0 0.0731,-0.16033 3.6370957,3.6370957 0 0 0 0.14207,-0.3105 3.6370957,3.6370957 0 0 0 0.11365,-0.3308 3.6370957,3.6370957 0 0 0 0.0791,-0.32064 3.6370957,3.6370957 0 0 0 0.0507,-0.35922 3.6370957,3.6370957 0 0 0 0.0162,-0.33688 3.6370957,3.6370957 0 0 0 -0.0162,-0.33688 3.6370957,3.6370957 0 0 0 -0.0507,-0.35922 3.6370957,3.6370957 0 0 0 -0.0791,-0.32064 3.6370957,3.6370957 0 0 0 -0.11365,-0.3308 3.6370957,3.6370957 0 0 0 -0.14207,-0.3105 3.6370957,3.6370957 0 0 0 -0.0731,-0.16032 l -25.97666,-44.99239 a 3.6367321,3.6367321 0 0 0 -0.0345,-0.0264 3.6370957,3.6370957 0 0 0 -1.24404,-1.26432 3.6367321,3.6367321 0 0 0 -0.0528,-0.0406 3.6367321,3.6367321 0 0 0 -0.0386,-0.004 3.6370957,3.6370957 0 0 0 -1.77981,-0.48301 H 664.7866 a 3.6367321,3.6367321 0 0 0 -0.4546,0.18874 3.6367321,3.6367321 0 0 0 -0.48706,-0.0649 3.6367321,3.6367321 0 0 0 -0.38965,0.29833 3.6367321,3.6367321 0 0 0 -0.48706,0.0649 3.6367321,3.6367321 0 0 0 -0.29833,0.38763 3.6367321,3.6367321 0 0 0 -0.21105,0.27397 3.6367321,3.6367321 0 0 0 -0.069,0.0913 3.6367321,3.6367321 0 0 0 -0.75291,0.57839 l -22.82699,39.53729 -22.82699,-39.53729 a 3.6367321,3.6367321 0 0 0 -0.0345,-0.0264 3.6370957,3.6370957 0 0 0 -1.24404,-1.26432 3.6367321,3.6367321 0 0 0 -0.0528,-0.0406 3.6367321,3.6367321 0 0 0 -0.0386,-0.004 3.6370957,3.6370957 0 0 0 -1.77981,-0.48301 h -51.95332 -51.95331 -51.95332 z m 12.53576,7.27346 h 26.88179 l -13.44089,7.76053 z m 51.95332,0 h 26.88179 l -13.4409,7.76053 z m 51.95331,0 h 26.88179 l -13.44089,7.76053 z m 51.95332,0 h 26.88179 l -13.4409,7.76053 z m 103.90663,0 h 26.88179 l -13.4409,7.76053 z m -168.39571,3.63674 19.67732,34.08219 h -39.35464 z m -94.49009,1.76155 13.44292,7.76255 v 15.52308 z m 33.12024,0 -6.72146,11.64281 -6.72146,11.64079 v -15.52105 -0.002 z m 18.83307,0 13.44292,7.76255 v 15.52105 z m 33.12024,0 -13.44292,23.28563 v -15.52308 -0.002 z m 18.83308,0 13.44292,7.76255 v 15.52308 z m 33.12226,0 -13.44494,23.28563 v -15.52308 -0.002 z m 18.83105,0 13.44292,7.76255 v 15.52308 z m 33.12024,0 -13.44292,23.28563 v -15.52308 -0.002 z m 70.78639,0 13.44292,7.76255 v 15.52308 z m 33.12024,0 -6.72146,11.64281 -6.72146,11.64079 v -15.52105 -0.002 z m -305.42055,3.63673 v 15.52105 l -13.44292,7.76255 z m 51.95332,0 v 15.52105 l -13.44292,7.76255 z m 6.23439,0 13.44292,23.28563 -13.44292,-7.76255 v -0.002 z m 155.85995,0 13.44292,23.2836 -13.44292,-7.76255 z m 45.71892,0 v 15.52105 0.002 l -13.44292,7.76255 z m 51.95331,0 v 15.52105 l -13.44292,7.76255 z m 6.2344,0 13.44292,23.28563 -13.44292,-7.76255 v -0.002 z m -311.71989,0.002 6.72146,11.64079 6.72146,11.64282 -13.44292,-7.76255 v -0.002 z m 149.62555,0 v 15.51903 l -13.44292,7.76255 z m 6.23439,0 6.72146,11.64079 6.72146,11.64282 -13.44292,-7.76255 v -0.002 z m 45.71892,0 v 15.51903 0.002 l -13.44292,7.76255 z m 58.18771,0 13.44292,23.28158 -13.44292,-7.76255 z m -262.88377,20.91933 13.44495,7.76256 h -26.8899 z m 51.95331,0 13.44495,7.76256 h -26.88989 z m 103.90663,0 13.44495,7.76256 h -26.88989 z m 51.95332,0 13.44495,7.76256 h -26.8899 z m 51.95332,0 13.44494,7.76256 h -26.88989 z m 51.95331,0 13.44495,7.76256 h -26.8899 z M 391.5771,308.57445 h 26.88584 l -13.44292,7.76051 z m 45.71892,0 h 16.56012 v 9.56062 l -8.28006,4.78133 z m 22.79451,0 h 16.56012 l -8.28006,14.34195 -8.28006,-4.78133 z m 35.3932,0 h 26.88584 l -13.44292,7.76051 z m 41.52003,0 h 47.75241 l 21.77777,37.71891 h -45.65398 -45.65397 z m 62.3866,0 h 26.88584 l -13.44292,7.76051 z m 41.52003,0 h 47.75241 l 23.87822,41.35565 -23.87822,41.35564 H 640.91039 L 617.03217,349.9301 Z m 62.3866,0 h 26.88584 l -13.44292,7.76051 z m -272.30031,3.63673 8.28006,14.34195 -8.28006,4.78133 -8.28006,-4.78133 z m 51.95331,0 8.28006,14.34195 -8.28006,4.78133 -8.28006,-4.78133 z m -94.49009,1.76154 13.44292,7.76255 v 15.52308 z m 33.12024,0 -13.44292,23.28563 v -15.52308 z m 70.78639,0 13.44292,7.76255 v 15.52105 z m 33.12024,0 -13.44292,23.28563 v -15.52308 z m 70.78639,0 13.44292,7.76255 v 15.52308 z m 33.12024,0 -13.44292,23.28563 v -15.52308 z m 70.78639,0 13.44292,7.76255 v 15.52308 z m 33.12024,0 -13.44292,23.28563 v -15.52308 z m -357.37387,3.63673 v 15.52308 l -13.44292,7.76255 z m 6.2344,0.002 6.72146,11.64079 6.72146,11.64281 -13.44292,-7.76255 z m 74.81277,5.92186 8.28006,4.78133 -8.28006,14.34196 -8.28005,-14.34196 z m -37.37391,8.41806 8.28006,4.78133 v 9.56063 h -16.56012 z m 51.95331,0 8.28006,4.78133 v 9.56063 h -16.56012 z m -92.50937,6.58144 13.44292,7.76052 h -26.88584 z m -19.67732,15.03399 h 39.35464 l -19.67732,34.08218 z m 51.95332,0 h 16.56012 v 9.56062 l -8.28006,4.78133 z m 22.79452,0 H 450.674 l -8.28006,14.34195 -8.28006,-4.78133 z m 29.15879,0 h 16.56012 v 9.56062 l -8.28006,4.78133 z m 22.79452,0 h 16.56012 l -8.28006,14.34195 -8.28006,-4.78133 z m 35.3932,0 h 26.88584 l -13.44292,7.76052 z m 51.95331,0 h 26.88584 l -13.44292,7.76052 z m 155.85995,0 h 26.88584 l -13.44292,7.76052 z m -272.30032,3.63673 2.98123,5.16286 5.29883,9.17909 -8.28006,4.78133 -8.28005,-4.78133 5.29883,-9.17909 z m 103.90663,0 19.67732,34.08218 h -39.35463 z m -42.53677,1.76154 13.44292,7.76255 v 15.52308 z m 33.12024,0 -13.44292,23.28563 v -15.52308 z m 18.83307,0 13.44292,7.76255 v 15.52308 z m 33.12024,0 -13.44292,23.28563 v -15.52308 z m 122.73971,0 13.44292,7.76255 v 15.52308 z m 33.12024,0 -13.44292,23.28563 v -15.52308 z m -409.32718,3.63673 v 15.52308 l -13.44292,7.76255 z m 6.23439,0 13.44292,23.28563 -13.44292,-7.76255 z m 45.71892,0 v 15.52308 l -13.44292,7.76255 z m 214.04766,0 13.44292,23.28563 -13.44292,-7.76255 z m 97.67223,0 v 15.52308 l -13.44292,7.76255 z m 58.18771,0 13.44292,23.28563 -13.44292,-7.76255 z m -363.6732,0.002 6.72146,11.64079 6.72146,11.64281 -13.44292,-7.76255 z m 97.67223,0 v 15.52105 l -13.44292,7.76255 z m 6.2344,0 6.72146,11.64079 6.72146,11.64281 -13.44292,-7.76255 z m 97.67223,0 v 15.52105 l -13.44292,7.76255 z m 110.14103,0 6.72146,11.64079 6.72146,11.64281 -13.44292,-7.76255 z m 45.71892,0 v 15.52105 l -13.44292,7.76255 z m -334.57935,5.92389 8.28006,4.7793 -8.28006,14.34196 -8.28006,-14.34196 z m 51.95331,0 8.28006,4.7793 -8.28006,14.34196 -8.28006,-14.34196 z m -37.37391,8.41603 8.28006,4.78134 v 9.56062 h -16.56012 z m -92.50938,6.58144 13.44292,7.76052 h -26.88584 z m 51.95332,0 13.44292,7.76052 H 391.5771 Z m 103.90663,0 13.44292,7.76052 h -26.88584 z m 103.90663,0 13.44292,7.76052 h -26.88584 z m 103.90663,0 13.44292,7.76052 h -26.88584 z m 51.95332,0 13.44292,7.76052 H 755.2503 Z m -429.07147,15.03399 h 26.88989 l -13.44495,7.76255 z m 41.52205,0 h 43.55353 l -22.82699,39.53931 -22.82699,39.53728 -21.77777,-37.71892 z m 62.38458,0 h 26.88989 l -13.44495,7.76255 z m 41.52205,0 h 47.75242 l 23.87822,41.35767 -23.87822,41.35565 h -47.75242 l -23.87822,-41.35565 z m 62.38458,0 h 26.88989 l -13.44495,7.76255 z m 41.52205,0 h 47.75242 l 23.87822,41.35767 -23.87822,41.35565 h -47.75242 l -23.87822,-41.35565 z m 62.38458,0 h 26.88989 l -13.44494,7.76255 z m 45.72094,0 h 43.55353 l 23.87822,41.35767 -21.77777,37.71892 -22.82699,-39.53728 z m 58.18569,0 h 26.88989 l -13.44494,7.76255 z m -385.62146,5.39827 -13.44292,23.28564 v -15.52105 -0.002 z m 103.90663,0 -13.44292,23.28564 v -15.52105 -0.002 z m 103.90663,0 -13.44292,23.28564 v -15.52105 -0.002 z m 103.90663,0 -13.44292,23.28564 v -15.52105 -0.002 z m 103.90663,0 -13.44292,23.28564 v -15.52105 -0.002 z m -448.74675,0.002 13.44292,7.76256 v 15.52105 z m 103.90663,0 13.44292,7.76256 v 15.52105 z m 103.90663,0 13.44292,7.76256 v 15.52105 z m 103.90663,0 13.44292,7.76256 v 15.52105 z m 103.90663,0 13.44292,7.76256 v 15.52105 z m -428.16026,3.63673 v 15.52105 0.002 l -13.44292,7.76052 z m 6.2344,0 13.44089,23.28158 -13.44089,-7.76053 z m 97.67223,0 v 15.52105 0.002 l -13.44292,7.76052 z m 6.2344,0 0.7793,1.34957 12.66159,21.93201 -13.44089,-7.76053 z m 253.53217,0 v 15.52105 l -13.44089,7.76053 z m 6.2344,0 13.44292,23.28361 -13.44292,-7.76052 v -0.002 z m 97.67223,0 v 15.52105 0.002 l -13.44292,7.76052 z m 6.2344,0 13.4409,23.28158 -13.4409,-7.76053 z m -470.69703,20.92136 13.44494,7.76255 H 313.6451 Z m 103.90663,0 13.44494,7.76255 h -26.88989 z m 259.76657,0 13.44495,7.76255 h -26.88989 z m 103.90663,0 13.44495,7.76255 h -26.88989 z m -481.02073,15.03602 h 26.88179 l -13.44089,7.76052 z m 97.67021,0 H 450.674 l -19.67732,34.08218 z m 259.76657,0 h 39.35464 l -19.67732,34.08218 z m 110.14306,0 h 26.88179 l -13.4409,7.76052 z m -470.69906,5.39827 13.44292,7.76256 v 15.52105 l -6.72146,-11.64079 z m 33.12024,0 -13.44292,23.28361 v -15.52105 -0.002 z m 434.45959,0 13.44292,7.76256 v 15.52308 z m 33.12024,0 -6.72146,11.64282 -6.72146,11.64079 v -15.52105 -0.002 z m -513.23381,3.63673 v 15.52105 0.002 l -13.44292,7.76255 z m 6.2344,0 13.44292,23.28362 -13.44292,-7.76257 z m 51.95331,0 13.44292,23.28564 -13.44292,-7.76255 v -0.002 z m 45.71892,0 v 15.52105 0.002 l -13.44292,7.76255 z m 6.2344,0 13.44292,23.28362 -13.44292,-7.76257 z m 45.71892,0 v 15.52105 l -13.44292,7.76257 z m 6.23439,0 13.44292,23.28564 -13.44292,-7.76255 v -0.002 z m 97.67224,0 v 15.52105 l -13.44292,7.76257 z m 6.23439,0 13.44292,23.28564 -13.44292,-7.76255 v -0.002 z m 97.67224,0 v 15.52105 0.002 l -13.44292,7.76255 z m 6.23439,0 13.44292,23.28362 -13.44292,-7.76257 z m 45.71892,0 v 15.52105 l -13.44292,7.76257 z m 6.2344,0 13.44292,23.28564 -13.44292,-7.76255 v -0.002 z m 45.71892,0 v 15.52105 l -13.44292,7.76257 z m 51.95331,0 v 15.52105 l -13.44292,7.76257 z m 6.2344,0 13.44292,23.28564 -13.44292,-7.76255 v -0.002 z m -473.81423,0.002 v 15.51901 l -13.44292,7.76257 z m 421.86091,0 6.72146,11.64078 6.72146,11.64282 -13.44292,-7.76255 v -0.002 z m -470.69703,20.91932 13.44495,7.76255 h -26.8899 z m 51.95331,0 13.44495,7.76255 h -26.88989 z m 51.95332,0 13.44495,7.76255 h -26.8899 z m 51.95331,0 13.44495,7.76255 h -26.88989 z m 103.90663,0 13.44495,7.76255 h -26.88989 z m 103.90664,0 13.44494,7.76255 h -26.88989 z m 51.95331,0 13.44495,7.76255 h -26.8899 z m 51.95332,0 13.44494,7.76255 h -26.88989 z m 51.95331,0 13.44495,7.76255 h -26.8899 z M 287.67047,488.546 h 26.88584 l -13.44292,7.76052 z m 51.95331,0 h 26.88584 l -13.44292,7.76052 z m 51.95332,0 h 26.88584 l -13.44292,7.76052 z m 41.52003,0 h 47.75241 l 23.87822,41.35565 -23.87822,41.35566 h -47.75241 l -23.87822,-41.35566 z m 62.3866,0 h 26.88584 l -13.44292,7.76052 z m 51.95331,0 h 26.88585 l -13.44293,7.76052 z m 51.95332,0 h 26.88584 l -13.44292,7.76052 z m 41.52003,0 h 47.75241 l 23.87822,41.35565 -23.87822,41.35566 h -47.75241 l -23.87822,-41.35566 z m 62.3866,0 h 26.88584 l -13.44292,7.76052 z m 41.52003,0 h 47.75241 l 23.87822,41.35565 -23.87822,41.35566 H 744.81702 L 720.9388,529.90165 Z m 62.3866,0 h 26.88584 l -13.44292,7.76052 z m -522.65035,5.39828 13.44292,7.76255 v 15.52308 z m 51.95332,0 13.44292,7.76255 v 15.52105 z m 33.12023,0 -13.44292,23.28563 v -15.52308 z m 51.95332,0 -13.44292,23.28563 v -15.52308 z m 70.78639,0 13.44292,7.76255 v 15.52308 z m 33.12024,0 -6.72146,11.64281 -6.72146,11.64079 v -15.52105 z m 18.83308,0 13.44292,7.76255 v 15.52308 z m 33.12023,0 -6.72146,11.64281 -6.72146,11.64079 v -15.52105 z m 18.83308,0 13.44292,7.76255 v 15.52105 z m 33.12024,0 -13.44292,23.28563 v -15.52308 z m 70.78639,0 13.44292,7.76255 v 15.52308 z m 33.12024,0 -13.44292,23.28563 v -15.52308 z m 70.78639,0 13.44292,7.76255 v 15.52308 z m 33.12024,0 -6.72146,11.64281 -6.72146,11.64079 v -15.52105 z m -519.53315,0.002 -13.44292,23.28157 V 501.7068 Z m 214.1126,3.6347 v 15.52308 l -13.44292,7.76255 z m 51.95331,0 v 15.52308 l -13.44292,7.76255 z m 6.2344,0 13.44292,23.28563 -13.44292,-7.76255 z m 259.76658,0 13.44292,23.28563 -13.44292,-7.76255 z m -525.76755,0.002 v 15.52105 l -13.44292,7.76255 z m 6.2344,0 13.44292,23.28158 -13.44292,-7.76053 z m 45.71891,0 v 15.52105 l -13.44292,7.76255 z m 6.2344,0 13.44292,23.28158 -13.44292,-7.76053 z m 155.85995,0 6.72146,11.64078 6.72146,11.64282 -13.44292,-7.76255 z m 305.48549,0 v 15.52105 l -13.44292,7.76053 z m -516.41595,20.92135 13.44292,7.76052 h -26.88584 z m 51.95331,0 13.44292,7.76052 h -26.88584 z m 155.85995,0 13.44292,7.76052 h -26.88584 z m 51.95331,0 13.44292,7.76052 H 573.4137 Z m 259.76658,0 13.44292,7.76052 h -26.88584 z m -481.02276,15.03399 h 26.88584 l -13.44292,7.76053 z m 155.85995,0 h 26.88584 l -13.44292,7.76053 z m 51.95331,0 h 26.88584 l -13.44292,7.76053 z m 259.76658,0 h 26.88584 l -13.44292,7.76053 z m -470.69704,5.39828 13.44292,7.76255 v 15.52106 z m 33.12024,0 -13.44292,23.28563 v -15.52308 z m 122.73971,0 13.44292,7.76255 v 15.52308 z m 33.12024,0 -13.44292,23.28563 v -15.52308 z m 51.95331,0 -13.44292,23.28563 v -15.52308 z m 226.64634,0 13.44292,7.76255 v 15.52308 z m 33.12024,0 -13.44292,23.28563 v -15.52308 z m -513.23381,3.63673 v 15.52308 l -13.44292,7.76255 z m 6.23439,0 13.44292,23.28563 -13.44292,-7.76255 z m 51.95332,0 13.44292,23.28563 -13.44292,-7.76255 z m 97.67223,0 v 15.52308 l -13.44292,7.76255 z m 58.18771,0 13.44292,23.28563 -13.44292,-7.76255 z m 51.95332,0 13.44292,23.28563 -13.44292,-7.76255 z m 97.67223,0 v 15.52308 l -13.44292,7.76255 z m 6.2344,0 13.44292,23.28563 -13.44292,-7.76255 z m 97.67223,0 v 15.52308 l -13.44292,7.76255 z m -415.62652,0.002 v 15.52105 l -13.44292,7.76255 z m 110.14103,0 6.72146,11.64078 6.72146,11.64282 -13.44292,-7.76255 z m 45.71892,0 v 15.52105 l -13.44292,7.76255 z m 51.95331,0 v 15.52105 l -13.44292,7.76255 z m 214.04766,0 6.72146,11.64078 6.72146,11.64282 -13.44292,-7.76255 z m -470.69704,20.92136 13.44292,7.76053 h -26.88584 z m 51.95332,0 13.44292,7.76053 H 391.5771 Z m 103.90663,0 13.44292,7.76053 h -26.88584 z m 51.95331,0 13.44293,7.76053 h -26.88585 z m 51.95332,0 13.44292,7.76053 h -26.88584 z m 103.90663,0 13.44292,7.76053 h -26.88584 z m 103.90663,0 13.44292,7.76053 h -26.88584 z m -481.02478,15.03399 h 26.88989 l -13.44495,7.76255 z m 51.95331,0 h 26.8899 l -13.44495,7.76255 z m 51.95332,0 h 26.88989 l -13.44495,7.76255 z m 103.90663,0 h 26.88989 l -13.44495,7.76255 z m 41.52205,0 h 47.75242 l 23.87822,41.35768 -23.87822,41.35564 h -47.75242 l -23.87822,-41.35564 z m 62.38458,0 h 26.88989 l -13.44494,7.76255 z m 51.95331,0 h 26.8899 l -13.44495,7.76255 z m 51.95332,0 h 26.88989 l -13.44494,7.76255 z m 51.95331,0 h 26.8899 l -13.44495,7.76255 z m -116.43834,3.63673 19.67732,34.08421 h -39.35464 z m 51.95332,0 21.77777,37.72095 -23.87822,41.35564 h -43.55353 l 22.82699,-39.53728 z m 51.95331,0 19.67732,34.08421 h -39.35464 z m -425.04306,1.76154 -12.66362,21.93607 -0.7793,1.34956 v -15.52105 -0.002 z m 51.95332,0 -13.44292,23.28563 v -15.52105 -0.002 z m 51.95331,0 -13.44292,23.28563 v -15.52105 -0.002 z m 103.90663,0 -13.44292,23.28563 v -15.52105 -0.002 z m 103.90663,0 -13.44292,23.28563 v -15.52105 -0.002 z m 51.95332,0 -13.44292,23.28563 v -15.52105 -0.002 z m 51.95331,0 -13.44292,23.28563 v -15.52105 -0.002 z m 51.95332,0 -13.44292,23.28563 v -15.52105 -0.002 z m -500.70007,0.002 13.44292,7.76255 v 15.52105 z m 51.95331,0 13.44292,7.76255 v 15.52105 z m 51.95332,0 13.44292,7.76255 v 15.52105 z m 103.90663,0 13.44292,7.76255 v 15.52105 z m 103.90663,0 13.44292,7.76255 v 15.52105 z m 51.95331,0 13.44292,7.76255 v 15.52105 z m 51.95332,0 13.44292,7.76255 v 15.52105 z m 51.95331,0 13.44292,7.76255 v 15.52105 z m -421.92586,3.6347 6.72146,11.64282 6.72146,11.64282 -13.44292,-7.76053 v -0.002 z m -6.2344,0.002 v 15.52105 l -13.44089,7.76053 z m 51.95332,0 v 15.52105 l -13.4409,7.76053 z m 6.2344,0 13.44292,23.28361 -13.44292,-7.76053 v -0.002 z m -55.07052,20.92136 13.44495,7.76255 h -26.88989 z m 51.95332,0 13.44494,7.76255 h -26.88989 z m 90.46573,15.03602 h 26.88179 l -13.44089,7.76052 z m 155.85995,0 h 26.88179 l -13.4409,7.76052 z m 103.90663,0 h 26.88179 l -13.4409,7.76052 z m -262.8858,5.39827 13.44292,7.76256 v 15.52308 z m 33.12024,0 -13.44292,23.28564 v -15.52308 -0.002 z m 155.85994,0 -13.44292,23.28564 v -15.52308 -0.002 z m 103.90663,0 -13.44292,23.28564 v -15.52308 -0.002 z m -137.02687,0.002 13.44292,7.76052 v 15.52106 z m 103.90663,0 13.44292,7.76052 v 15.52106 z m -272.30031,3.63469 v 15.52105 0.002 l -13.44292,7.76255 z m 58.18771,0 13.44292,23.28362 -13.44292,-7.76257 z m 97.67224,0 v 15.52105 0.002 l -13.44292,7.76255 z m 103.90663,0 v 15.52105 l -13.44292,7.76257 z m -253.53218,0.002 13.44292,23.28158 -13.44292,-7.76257 z m 45.71892,0 v 15.51901 0.002 l -13.44292,7.76255 z m 110.14102,0 13.44292,23.28158 -13.44292,-7.76257 z m 103.90663,0 6.72146,11.64078 6.72146,11.64282 -13.44292,-7.76255 v -0.002 z m -262.88377,20.91932 13.44495,7.76255 h -26.8899 z m 51.95331,0 13.44495,7.76255 h -26.88989 z m 103.90664,0 13.44494,7.76255 h -26.88989 z m 103.90663,0 13.44494,7.76255 h -26.88989 z m -273.2095,15.03602 h 26.88584 l -13.44292,7.76053 z m 51.95331,0 h 26.88585 l -13.44293,7.76053 z m 51.95332,0 h 26.88584 l -13.44292,7.76053 z m 45.71892,0 h 16.56012 v 9.56062 l -8.28006,4.78134 z m 22.79451,0 h 16.56012 l -2.98122,5.16286 -5.29884,9.1791 -8.28006,-4.78134 z m 35.3932,0 h 26.88584 l -13.44292,7.76053 z m 51.95331,0 h 26.88585 l -13.44292,7.76053 z m -116.44036,3.63673 2.98122,5.16286 5.29884,9.1791 -8.28006,4.78133 -8.28006,-4.78133 z m 51.95331,0 8.28006,14.34196 -8.28006,4.78133 -8.28006,-4.78133 z m -198.39672,1.76154 13.44292,7.76256 v 15.52308 z m 33.12024,0 -13.44292,23.28564 v -15.52308 z m 51.95331,0 -13.44292,23.28564 v -15.52308 z m 51.95332,0 -6.72146,11.64282 -6.72146,11.6408 v -15.52106 z m 70.78639,0 13.44292,7.76256 v 15.52106 l -6.72146,-11.6408 z m 33.12024,0 -6.72146,11.64282 -6.72146,11.6408 v -15.52106 z m 18.83308,0 13.44292,7.76256 v 15.52106 z m 33.12023,0 -13.44292,23.28564 v -15.52308 z m -305.42055,3.63673 v 15.52309 l -13.44292,7.76255 z m 58.18772,0 13.44292,23.28564 -13.44292,-7.76255 z m 51.95331,0 13.44292,23.28564 -13.44292,-7.76255 z m 149.62555,0 v 15.52309 l -13.44292,7.76255 z m 6.2344,0 13.44292,23.28564 -13.44292,-7.76255 z m -259.76658,0.002 6.72146,11.64078 6.72146,11.64282 -13.44292,-7.76255 z m 45.71892,0 v 15.52105 l -13.44292,7.76255 z m 51.95331,0 v 15.52105 l -13.44292,7.76255 z m 81.04718,5.92187 8.28005,4.78132 -5.29883,9.17909 -2.98122,5.16286 -8.28006,-14.34195 z m -37.37392,8.41805 8.28006,4.78133 v 9.56063 h -16.56012 z m 22.79452,0 5.29883,9.1791 2.98123,5.16286 h -16.56012 v -9.56063 z m 29.15879,0 8.28006,4.78133 v 9.56063 h -16.56012 z m 22.79452,0 8.28006,14.34196 h -16.56012 v -9.56063 z m -219.21052,6.58143 13.44292,7.76053 h -26.88584 z m 51.95332,0 13.44292,7.76053 h -26.88584 z m 51.95331,0 13.44292,7.76053 H 573.4137 Z m 155.85995,0 13.44292,7.76053 h -26.88584 z m -273.2095,15.03399 h 26.88584 l -13.44292,7.76053 z m 51.95332,0 h 26.88584 l -13.44292,7.76053 z m 51.95331,0 h 26.88584 l -13.44292,7.76053 z m 45.71892,0 h 16.56012 v 9.56063 l -8.28006,4.78133 z m 22.79452,0 h 16.56012 l -8.28006,14.34196 -8.28006,-4.78133 z m 29.15879,0 h 16.56012 v 9.56063 l -8.28006,4.78133 z m 22.79452,0 h 16.56012 l -8.28006,14.34196 -8.28006,-4.78133 z m 35.3932,0 h 26.88584 l -13.44292,7.76053 z m -64.48705,3.63673 2.98122,5.16286 5.29883,9.1791 -8.28005,4.78133 -8.28006,-4.78133 z m -198.39673,1.76154 13.44292,7.76256 v 15.52308 z m 33.12024,0 -13.44292,23.28564 V 726.6705 Z m 70.78639,0 13.44292,7.76256 v 15.52106 z m 33.12024,0 -13.44292,23.28564 V 726.6705 Z m 122.73971,0 13.44292,7.76256 v 15.52106 z m 33.12024,0 -13.44292,23.28564 V 726.6705 Z m -207.81326,0.002 -13.44292,23.28158 v -15.52106 z m -97.60729,3.63469 v 15.52309 l -13.44292,7.76256 z m 58.18771,0 6.72146,11.64283 6.72146,11.64282 -13.44292,-7.76256 z m 51.95331,0 6.72146,11.64283 6.72146,11.64282 -13.44292,-7.76256 z m 155.85995,0 6.72146,11.64283 6.72146,11.64282 -13.44292,-7.76256 z m -259.76658,0.002 6.72146,11.64079 6.72146,11.64282 -13.44292,-7.76256 z m 45.71892,0 v 15.52105 l -13.44292,7.76256 z m 51.95332,0 v 15.52105 l -13.44292,7.76256 z m 51.95331,0 v 15.52105 l -13.44292,7.76256 z m 6.2344,0 6.72146,11.64079 6.72146,11.64282 -13.44292,-7.76256 z m 97.67223,0 v 15.52105 l -13.44292,7.76256 z m -74.81277,5.92389 8.28006,4.7793 -8.28006,14.34196 -8.28006,-14.34196 z m 51.95331,0 8.28006,4.7793 -8.28006,14.34196 -8.28006,-14.34196 z m -37.37391,8.41604 8.28006,4.78132 v 9.56063 h -16.56012 z m -196.41601,6.58142 13.44293,7.76053 h -26.88585 z m 51.95332,0 13.44292,7.76053 h -26.88584 z m 51.95331,0 13.44293,7.76053 h -26.88585 z m 51.95332,0 13.44292,7.76053 h -26.88584 z m 103.90663,0 13.44292,7.76053 h -26.88584 z m -273.21152,15.03399 h 26.88989 l -13.44495,7.76256 z m 51.95331,0 h 26.8899 l -13.44495,7.76256 z m 51.95332,0 h 26.88989 l -13.44495,7.76256 z m 51.95331,0 h 26.8899 l -13.44495,7.76256 z m 51.95332,0 h 26.88989 l -13.44494,7.76256 z m 51.95331,0 h 26.8899 l -13.44495,7.76256 z m -229.76151,5.39828 -6.72146,11.64485 -6.72146,11.64282 v -15.52309 -0.002 z m 51.95332,0 -13.44292,23.28564 v -15.52106 -0.002 z m 51.95331,0 -13.44292,23.28564 v -15.52106 -0.002 z m 51.95332,0 -13.44292,23.28564 v -15.52106 -0.002 z m 51.95331,0 -13.44292,23.28564 v -15.52106 -0.002 z m 51.95332,0 -13.44292,23.28564 v -15.52106 -0.002 z m -292.88681,0.002 13.44292,7.76255 v 15.52106 z m 51.95331,0 13.44292,7.76255 v 15.52106 z m 51.95332,0 13.44292,7.76255 v 15.52106 z m 51.95331,0 13.44292,7.76255 v 15.52106 z m 51.95332,0 13.44292,7.76255 v 15.52309 z m 51.95331,0 13.44292,7.76255 v 15.52106 z m -220.347,3.63673 v 15.52105 0.002 l -13.44292,7.76053 z m 6.2344,0 6.72146,11.64282 6.71944,11.63876 -13.4409,-7.76053 z m 45.71892,0 v 15.52105 l -13.4409,7.76053 z m 6.2344,0 6.72146,11.64282 6.72146,11.64079 -13.44292,-7.76053 v -0.002 z m 45.71891,0 v 15.52105 l -13.44089,7.76053 z m 6.2344,0 6.72146,11.64282 6.72146,11.64079 -13.44292,-7.76053 v -0.002 z m 45.71892,0 v 15.52105 l -13.4409,7.76053 z m 6.2344,0 6.72146,11.64282 6.72146,11.64079 -13.44292,-7.76053 v -0.002 z m 45.71891,0 v 15.52105 l -13.44089,7.76053 z m 6.2344,0 6.72146,11.64282 6.72146,11.64079 -13.44292,-7.76053 v -0.002 z m -210.93046,20.92135 13.44495,7.76257 h -26.88989 z m 51.95332,0 13.44494,7.76257 h -26.88989 z m 51.95331,0 13.44495,7.76257 h -26.88989 z m 51.95332,0 13.44494,7.76257 h -26.88989 z m 51.95331,0 13.44495,7.76257 h -26.88989 z" />
</svg>
