<?xml version="1.0" encoding="UTF-8" standalone="no"?>
<svg
   version="1.1"
   width="1500"
   height="1000"
   class="svg_pane"
   data-attrTriangle="{&quot;fill&quot;:&quot;none&quot;,&quot;stroke&quot;:&quot;black&quot;,&quot;stroke-width&quot;:7,&quot;stroke-linecap&quot;:&quot;round&quot;,&quot;stroke-linejoin&quot;:&quot;round&quot;}"
   data-attrPattern="{&quot;fill&quot;:&quot;none&quot;,&quot;stroke&quot;:&quot;black&quot;,&quot;stroke-width&quot;:6,&quot;stroke-linecap&quot;:&quot;round&quot;,&quot;stroke-linejoin&quot;:&quot;round&quot;}"
   id="svg254"
   sodipodi:docname="kumiko_large.svg"
   inkscape:version="1.3.2 (091e20e, 2023-11-25)"
   xmlns:inkscape="http://www.inkscape.org/namespaces/inkscape"
   xmlns:sodipodi="http://sodipodi.sourceforge.net/DTD/sodipodi-0.dtd"
   xmlns="http://www.w3.org/2000/svg"
   xmlns:svg="http://www.w3.org/2000/svg">
  <defs
     id="defs254" />
  <sodipodi:namedview
     id="namedview254"
     pagecolor="#ffffff"
     bordercolor="#000000"
     borderopacity="0.25"
     inkscape:showpageshadow="2"
     inkscape:pageopacity="0.0"
     inkscape:pagecheckerboard="0"
     inkscape:deskcolor="#d1d1d1"
     inkscape:zoom="0.236"
     inkscape:cx="747.88136"
     inkscape:cy="500"
     inkscape:window-width="1312"
     inkscape:window-height="449"
     inkscape:window-x="0"
     inkscape:window-y="25"
     inkscape:window-maximized="0"
     inkscape:current-layer="svg254" />
  <path
     id="polyline254"
     style="color:#000000;fill:#000000;stroke-linecap:round;stroke-linejoin:round;-inkscape-stroke:none"
     d="m 499.22266,603.32031 a 3,3 0 0 0 -1.82032,1.39844 3,3 0 0 0 1.09766,4.09766 l 23.5,13.56836 v 27.13476 a 3,3 0 0 0 3,3 3,3 0 0 0 3,-3 v -27.13476 -0.002 l 23.5,-13.5664 a 3.0004839,3.0004839 0 0 0 -3,-5.19727 L 525,617.1875 501.5,603.61914 a 3,3 0 0 0 -2.27734,-0.29883 z M 500,602.71875 a 3.5,3.5 0 0 0 -0.8457,0.34961 3.5,3.5 0 0 0 -0.9043,0.11914 3.5,3.5 0 0 0 -0.28711,0.37305 3.5,3.5 0 0 0 -0.78711,1.02734 3.5,3.5 0 0 0 -0.49414,1.19336 3.5,3.5 0 0 0 -0.18164,0.4375 3.5,3.5 0 0 0 0.34961,0.84375 3.5,3.5 0 0 0 0.11914,0.90625 l 25,43.30078 a 3.50035,3.50035 0 0 0 6.0625,0 l 25,-43.30078 A 3.50035,3.50035 0 0 0 550,602.71875 Z m 6.0625,7 h 37.875 L 525,642.51953 Z m -6.0625,-6.5 a 3,3 0 0 0 -3,3 v 27.13281 0.002 l -23.5,13.56835 a 3.0003,3.0003 0 0 0 3,5.19532 l 23.5,-13.56836 23.5,13.56836 a 3,3 0 0 0 4.09766,-1.09766 3,3 0 0 0 -1.09766,-4.0977 L 503,633.35156 v -27.13281 a 3,3 0 0 0 -3,-3 z m -0.90625,-0.38086 a 3.5,3.5 0 0 0 -0.375,0.28711 3.5,3.5 0 0 0 -0.46875,0.0625 3.5,3.5 0 0 0 -0.55664,0.72461 3.5,3.5 0 0 0 -0.72461,0.55664 l -25,43.30078 a 3.50035,3.50035 0 0 0 3.03125,5.25 h 50 a 3.50035,3.50035 0 0 0 3.03125,-5.25 l -25,-43.30078 a 3.5,3.5 0 0 0 -0.10742,-0.082 A 3.5,3.5 0 0 0 501.75,603.1875 3.5,3.5 0 0 0 501.28125,603.125 3.5,3.5 0 0 0 500,602.95703 3.5,3.5 0 0 0 499.09375,602.83789 Z M 500,613.21875 l 18.9375,32.80078 h -37.875 z m -25.77734,33.40234 a 3,3 0 0 0 -1.82032,1.39844 3,3 0 0 0 1.09766,4.09766 l 23.5,13.56836 v 27.13476 a 3,3 0 0 0 3,3 3,3 0 0 0 3,-3 v -27.13476 l 23.5,-13.56836 a 3.0003,3.0003 0 0 0 -3,-5.19532 L 500,660.48828 476.5,646.92187 a 3,3 0 0 0 -2.27734,-0.30078 z M 475,646.01953 a 3.5,3.5 0 0 0 -0.84375,0.34961 3.5,3.5 0 0 0 -0.90625,0.11914 3.5,3.5 0 0 0 -0.28906,0.375 3.5,3.5 0 0 0 -0.78516,1.02344 3.5,3.5 0 0 0 -0.49414,1.19531 3.5,3.5 0 0 0 -0.18164,0.4375 3.5,3.5 0 0 0 0.34961,0.84375 3.5,3.5 0 0 0 0.11914,0.90625 l 25,43.30078 a 3.50035,3.50035 0 0 0 6.0625,0 l 25,-43.30078 A 3.50035,3.50035 0 0 0 525,646.01953 Z m 6.0625,7 h 37.875 L 500,685.82031 Z m -6.0625,-6.5 a 3,3 0 0 0 -3,3 v 27.13477 l -23.5,13.56836 a 3,3 0 0 0 -1.09766,4.09765 3,3 0 0 0 4.09766,1.09766 l 23.5,-13.56641 23.5,13.56641 a 3.0003,3.0003 0 0 0 3,-5.19531 L 478,676.6543 v -27.13477 a 3,3 0 0 0 -3,-3 z m -0.90625,-0.38086 a 3.5,3.5 0 0 0 -0.375,0.28711 3.5,3.5 0 0 0 -0.46875,0.0625 3.5,3.5 0 0 0 -0.55664,0.72461 3.5,3.5 0 0 0 -0.72461,0.55664 l -25,43.30078 a 3.50035,3.50035 0 0 0 3.03125,5.25 h 50 a 3.50035,3.50035 0 0 0 3.03125,-5.25 l -25,-43.30078 a 3.5,3.5 0 0 0 -0.10742,-0.082 3.5,3.5 0 0 0 -1.17383,-1.19922 3.5,3.5 0 0 0 -0.46875,-0.0625 3.5,3.5 0 0 0 -1.28125,-0.168 3.5,3.5 0 0 0 -0.90625,-0.11914 z M 475,656.51953 l 18.9375,32.80078 h -37.875 z m -25.77734,33.40234 a 3,3 0 0 0 -1.82032,1.39844 3,3 0 0 0 1.09766,4.09766 l 23.5,13.56836 v 27.13476 a 3,3 0 0 0 3,3 3,3 0 0 0 3,-3 v -27.13476 l 23.5,-13.56836 a 3.0003,3.0003 0 0 0 -3,-5.19531 l -23.5,13.5664 -23.5,-13.5664 a 3,3 0 0 0 -2.27734,-0.30079 z M 450,689.32031 a 3.5,3.5 0 0 0 -0.84375,0.34961 3.5,3.5 0 0 0 -0.90625,0.11914 3.5,3.5 0 0 0 -0.28906,0.375 3.5,3.5 0 0 0 -0.78516,1.02344 3.5,3.5 0 0 0 -0.49414,1.19531 3.5,3.5 0 0 0 -0.18164,0.4375 3.5,3.5 0 0 0 0.34961,0.84375 3.5,3.5 0 0 0 0.11914,0.90625 l 25,43.30078 a 3.50035,3.50035 0 0 0 6.0625,0 l 25,-43.30078 A 3.50035,3.50035 0 0 0 500,689.32031 Z m 6.0625,7 h 37.875 L 475,729.12109 Z m -6.0625,-6.5 a 3,3 0 0 0 -3,3 v 27.13477 l -23.5,13.56836 a 3,3 0 0 0 -1.09766,4.09765 3,3 0 0 0 4.09766,1.09766 l 23.5,-13.56641 23.5,13.56641 a 3.0003,3.0003 0 0 0 3,-5.19531 L 453,719.95508 v -27.13477 a 3,3 0 0 0 -3,-3 z m -0.90625,-0.38086 a 3.5,3.5 0 0 0 -0.375,0.28711 3.5,3.5 0 0 0 -0.46875,0.0625 3.5,3.5 0 0 0 -0.55664,0.72461 3.5,3.5 0 0 0 -0.72461,0.55664 l -25,43.30078 a 3.50035,3.50035 0 0 0 3.03125,5.25 h 50 a 3.50035,3.50035 0 0 0 3.03125,-5.25 l -25,-43.30078 a 3.5,3.5 0 0 0 -0.10742,-0.082 3.5,3.5 0 0 0 -1.17383,-1.19922 3.5,3.5 0 0 0 -0.46875,-0.0625 3.5,3.5 0 0 0 -1.28125,-0.168 3.5,3.5 0 0 0 -0.90625,-0.11914 z M 450,699.82031 l 18.9375,32.80078 h -37.875 z m -25.77734,33.4043 a 3,3 0 0 0 -1.82032,1.39648 3,3 0 0 0 1.09766,4.09766 l 23.5,13.57031 v 27.13477 a 3,3 0 0 0 3,3 3,3 0 0 0 3,-3 v -27.13477 -0.002 l 23.5,-13.56836 a 3.0003,3.0003 0 0 0 -3,-5.19531 L 450,747.0918 426.5,733.52344 a 3,3 0 0 0 -2.27734,-0.29883 z M 425,732.62109 a 3.5,3.5 0 0 0 -0.84375,0.34961 3.5,3.5 0 0 0 -0.90625,0.11914 3.5,3.5 0 0 0 -0.28906,0.375 3.5,3.5 0 0 0 -0.78516,1.02344 3.5,3.5 0 0 0 -0.49414,1.19531 3.5,3.5 0 0 0 -0.18164,0.4375 3.5,3.5 0 0 0 0.34961,0.84375 3.5,3.5 0 0 0 0.11914,0.90625 l 25,43.30274 a 3.50035,3.50035 0 0 0 6.0625,0 l 25,-43.30274 A 3.50035,3.50035 0 0 0 475,732.62109 Z m 6.0625,7 h 37.875 L 450,772.42383 Z m 43.9375,-6.5 a 3,3 0 0 0 -3,3 v 27.13477 0.002 l -23.5,13.56641 a 3.000482,3.000482 0 0 0 3,5.19726 l 23.5,-13.56836 23.5,13.56836 a 3,3 0 0 0 4.09766,-1.09765 A 3,3 0 0 0 501.5,776.82422 L 478,763.25586 v -27.13477 a 3,3 0 0 0 -3,-3 z m -0.90625,-0.38086 a 3.5,3.5 0 0 0 -0.375,0.28711 3.5,3.5 0 0 0 -0.46875,0.0625 3.5,3.5 0 0 0 -0.55664,0.72461 3.5,3.5 0 0 0 -0.72461,0.55664 l -25,43.30274 a 3.50035,3.50035 0 0 0 3.03125,5.25 h 50 a 3.50035,3.50035 0 0 0 3.03125,-5.25 l -25,-43.30274 a 3.5,3.5 0 0 0 -0.10742,-0.082 3.5,3.5 0 0 0 -1.17383,-1.19922 3.5,3.5 0 0 0 -0.46875,-0.0625 3.5,3.5 0 0 0 -1.28125,-0.168 3.5,3.5 0 0 0 -0.90625,-0.11914 z M 475,743.12109 l 18.9375,32.80274 h -37.875 z m 200,-53.30078 a 3,3 0 0 0 -3,3 v 12.70117 l -11,6.35157 a 3,3 0 0 0 -1.09766,4.09765 3,3 0 0 0 4.09766,1.09766 l 11,-6.34961 11,6.34961 a 3.0003,3.0003 0 0 0 3,-5.19531 l -11,-6.35157 v -12.70117 a 3,3 0 0 0 -3,-3 z m -25,-0.5 a 3.5,3.5 0 0 0 -0.84375,0.34961 3.5,3.5 0 0 0 -0.90625,0.11914 3.5,3.5 0 0 0 -0.28906,0.375 3.5,3.5 0 0 0 -0.78516,1.02344 3.5,3.5 0 0 0 -0.49414,1.19531 3.5,3.5 0 0 0 -0.18164,0.4375 3.5,3.5 0 0 0 0.34961,0.84375 3.5,3.5 0 0 0 0.11914,0.90625 l 25,43.30078 a 3.50035,3.50035 0 0 0 6.0625,0 l 25,-43.30078 A 3.50035,3.50035 0 0 0 700,689.32031 Z m 6.0625,7 h 37.875 L 675,729.12109 Z M 664,668.57227 a 3,3 0 0 0 -4.09766,1.09765 3,3 0 0 0 1.09766,4.09766 l 11,6.35156 v 12.70117 a 3.0003,3.0003 0 0 0 6,0 v -12.70117 l 11,-6.35156 a 3,3 0 0 0 1.09766,-4.09766 A 3,3 0 0 0 686,668.57227 l -11,6.35156 z m 10.09375,-22.4336 a 3.5,3.5 0 0 0 -0.375,0.28711 3.5,3.5 0 0 0 -0.46875,0.0625 3.5,3.5 0 0 0 -0.55664,0.72461 3.5,3.5 0 0 0 -0.72461,0.55664 l -25,43.30078 a 3.50035,3.50035 0 0 0 3.03125,5.25 h 50 a 3.50035,3.50035 0 0 0 3.03125,-5.25 l -25,-43.30078 a 3.5,3.5 0 0 0 -0.10742,-0.082 3.5,3.5 0 0 0 -1.17383,-1.19922 3.5,3.5 0 0 0 -0.46875,-0.0625 3.5,3.5 0 0 0 -1.28125,-0.168 3.5,3.5 0 0 0 -0.90625,-0.11914 z M 675,656.51953 l 18.9375,32.80078 h -37.875 z m -25,-10 a 3,3 0 0 0 -3,3 v 12.70117 l -11,6.35157 a 3,3 0 0 0 -1.09766,4.09765 3,3 0 0 0 4.09766,1.09766 l 11,-6.35156 11,6.35156 a 3.0003,3.0003 0 0 0 3,-5.19531 l -11,-6.35157 v -12.70117 a 3,3 0 0 0 -3,-3 z m -25,-0.5 a 3.5,3.5 0 0 0 -0.84375,0.34961 3.5,3.5 0 0 0 -0.90625,0.11914 3.5,3.5 0 0 0 -0.28906,0.375 3.5,3.5 0 0 0 -0.78516,1.02344 3.5,3.5 0 0 0 -0.49414,1.19531 3.5,3.5 0 0 0 -0.18164,0.4375 3.5,3.5 0 0 0 0.34961,0.84375 3.5,3.5 0 0 0 0.11914,0.90625 l 25,43.30078 a 3.50035,3.50035 0 0 0 6.0625,0 l 25,-43.30078 A 3.50035,3.50035 0 0 0 675,646.01953 Z m 6.0625,7 h 37.875 L 650,685.82031 Z M 614,668.57227 a 3,3 0 0 0 -4.09766,1.09765 3,3 0 0 0 1.09766,4.09766 l 11,6.35156 v 12.70117 a 3.0003,3.0003 0 0 0 6,0 v -12.70117 l 11,-6.35156 a 3,3 0 0 0 1.09766,-4.09766 A 3,3 0 0 0 636,668.57227 l -11,6.35156 z m 10.09375,-22.4336 a 3.5,3.5 0 0 0 -0.375,0.28711 3.5,3.5 0 0 0 -0.46875,0.0625 3.5,3.5 0 0 0 -0.55664,0.72461 3.5,3.5 0 0 0 -0.72461,0.55664 l -25,43.30078 a 3.50035,3.50035 0 0 0 3.03125,5.25 h 50 a 3.50035,3.50035 0 0 0 3.03125,-5.25 l -25,-43.30078 a 3.5,3.5 0 0 0 -0.10742,-0.082 3.5,3.5 0 0 0 -1.17383,-1.19922 3.5,3.5 0 0 0 -0.46875,-0.0625 3.5,3.5 0 0 0 -1.28125,-0.168 3.5,3.5 0 0 0 -0.90625,-0.11914 z M 625,656.51953 l 18.9375,32.80078 h -37.875 z m 0,33.30078 a 3,3 0 0 0 -3,3 v 12.70117 l -11,6.35157 a 3,3 0 0 0 -1.09766,4.09765 3,3 0 0 0 4.09766,1.09766 l 11,-6.34961 11,6.34961 a 3.0003,3.0003 0 0 0 3,-5.19531 l -11,-6.35157 v -12.70117 a 3,3 0 0 0 -3,-3 z m -25,-0.5 a 3.5,3.5 0 0 0 -0.84375,0.34961 3.5,3.5 0 0 0 -0.90625,0.11914 3.5,3.5 0 0 0 -0.28906,0.375 3.5,3.5 0 0 0 -0.78516,1.02344 3.5,3.5 0 0 0 -0.49414,1.19531 3.5,3.5 0 0 0 -0.18164,0.4375 3.5,3.5 0 0 0 0.34961,0.84375 3.5,3.5 0 0 0 0.11914,0.90625 l 25,43.30078 a 3.50035,3.50035 0 0 0 6.0625,0 l 25,-43.30078 A 3.50035,3.50035 0 0 0 650,689.32031 Z m 6.0625,7 h 37.875 L 625,729.12109 Z M 639,711.87305 a 3,3 0 0 0 -4.09766,1.09765 3,3 0 0 0 1.09766,4.09766 l 11,6.35156 v 12.70117 a 3.0003,3.0003 0 0 0 6,0 v -12.70117 l 11,-6.35156 A 3,3 0 0 0 665.09766,712.9707 3,3 0 0 0 661,711.87305 l -11,6.35156 z m 10.09375,-22.4336 a 3.5,3.5 0 0 0 -0.375,0.28711 3.5,3.5 0 0 0 -0.46875,0.0625 3.5,3.5 0 0 0 -0.55664,0.72461 3.5,3.5 0 0 0 -0.72461,0.55664 l -25,43.30078 a 3.50035,3.50035 0 0 0 3.03125,5.25 h 50 a 3.50035,3.50035 0 0 0 3.03125,-5.25 l -25,-43.30078 a 3.5,3.5 0 0 0 -0.10742,-0.082 3.5,3.5 0 0 0 -1.17383,-1.19922 3.5,3.5 0 0 0 -0.46875,-0.0625 3.5,3.5 0 0 0 -1.28125,-0.168 3.5,3.5 0 0 0 -0.90625,-0.11914 z M 650,699.82031 l 18.9375,32.80078 h -37.875 z M 300,430.01367 a 3,3 0 0 0 -3,3 v 27.13281 0.002 l -23.5,13.56836 a 3.0003,3.0003 0 0 0 3,5.19531 l 23.5,-13.56836 23.5,13.56836 a 3,3 0 0 0 4.09766,-1.09766 A 3,3 0 0 0 326.5,473.7168 L 303,460.14648 v -27.13281 a 3,3 0 0 0 -3,-3 z m -0.90625,-0.38086 a 3.5,3.5 0 0 0 -0.375,0.28711 3.5,3.5 0 0 0 -0.46875,0.0625 3.5,3.5 0 0 0 -0.55664,0.72461 3.5,3.5 0 0 0 -0.72461,0.55664 l -25,43.30078 a 3.50035,3.50035 0 0 0 3.03125,5.25 h 50 a 3.50035,3.50035 0 0 0 3.03125,-5.25 l -25,-43.30078 a 3.5,3.5 0 0 0 -0.10742,-0.082 3.5,3.5 0 0 0 -1.17383,-1.19922 3.5,3.5 0 0 0 -0.46875,-0.0625 3.5,3.5 0 0 0 -1.28125,-0.168 3.5,3.5 0 0 0 -0.90625,-0.11914 z M 300,440.01367 l 18.9375,32.80078 h -37.875 z m -25.77734,33.40235 a 3,3 0 0 0 -1.82032,1.39843 3,3 0 0 0 1.09766,4.09766 l 23.5,13.56836 v 27.13476 a 3,3 0 0 0 3,3 3,3 0 0 0 3,-3 v -27.13476 l 23.5,-13.56836 a 3.0003,3.0003 0 0 0 -3,-5.19531 L 300,487.2832 276.5,473.7168 a 3,3 0 0 0 -2.27734,-0.30078 z M 275,472.81445 a 3.5,3.5 0 0 0 -0.84375,0.34961 3.5,3.5 0 0 0 -0.90625,0.11914 3.5,3.5 0 0 0 -0.28906,0.375 3.5,3.5 0 0 0 -0.78516,1.02344 3.5,3.5 0 0 0 -0.49414,1.19531 3.5,3.5 0 0 0 -0.18164,0.4375 3.5,3.5 0 0 0 0.34961,0.84375 3.5,3.5 0 0 0 0.11914,0.90625 l 25,43.30078 a 3.50035,3.50035 0 0 0 6.0625,0 l 25,-43.30078 A 3.50035,3.50035 0 0 0 325,472.81445 Z m 6.0625,7 h 37.875 L 300,512.61523 Z m 43.9375,-6.5 a 3,3 0 0 0 -3,3 v 27.13477 l -23.5,13.56836 a 3.0003,3.0003 0 0 0 3,5.19531 l 23.5,-13.56641 23.5,13.56641 a 3,3 0 0 0 4.09766,-1.09766 A 3,3 0 0 0 351.5,517.01758 L 328,503.44922 v -27.13477 a 3,3 0 0 0 -3,-3 z m -0.90625,-0.38086 a 3.5,3.5 0 0 0 -0.375,0.28711 3.5,3.5 0 0 0 -0.46875,0.0625 3.5,3.5 0 0 0 -0.55664,0.72461 3.5,3.5 0 0 0 -0.72461,0.55664 l -25,43.30078 a 3.50035,3.50035 0 0 0 3.03125,5.25 h 50 a 3.50035,3.50035 0 0 0 3.03125,-5.25 l -25,-43.30078 a 3.5,3.5 0 0 0 -0.10742,-0.082 A 3.5,3.5 0 0 0 326.75,473.2832 3.5,3.5 0 0 0 326.28125,473.2207 3.5,3.5 0 0 0 325,473.05273 3.5,3.5 0 0 0 324.09375,472.93359 Z M 325,483.31445 l 18.9375,32.80078 h -37.875 z m -0.77734,-9.89843 a 3,3 0 0 0 -1.82032,1.39843 3,3 0 0 0 1.09766,4.09766 l 23.5,13.56836 v 27.13476 a 3,3 0 0 0 3,3 3,3 0 0 0 3,-3 v -27.13476 l 23.5,-13.56836 a 3.0003,3.0003 0 0 0 -3,-5.19531 L 350,487.2832 326.5,473.7168 a 3,3 0 0 0 -2.27734,-0.30078 z M 325,472.81445 a 3.5,3.5 0 0 0 -0.84375,0.34961 3.5,3.5 0 0 0 -0.90625,0.11914 3.5,3.5 0 0 0 -0.28906,0.375 3.5,3.5 0 0 0 -0.78516,1.02344 3.5,3.5 0 0 0 -0.49414,1.19531 3.5,3.5 0 0 0 -0.18164,0.4375 3.5,3.5 0 0 0 0.34961,0.84375 3.5,3.5 0 0 0 0.11914,0.90625 l 25,43.30078 a 3.50035,3.50035 0 0 0 6.0625,0 l 25,-43.30078 A 3.50035,3.50035 0 0 0 375,472.81445 Z m 6.0625,7 h 37.875 L 350,512.61523 Z M 350,516.61523 a 3,3 0 0 0 -3,3 V 546.75 l -23.5,13.56836 a 3.0003,3.0003 0 0 0 3,5.19531 l 23.5,-13.5664 23.5,13.5664 a 3,3 0 0 0 4.09766,-1.09765 A 3,3 0 0 0 376.5,560.31836 L 353,546.75 v -27.13477 a 3,3 0 0 0 -3,-3 z m -0.90625,-0.38086 a 3.5,3.5 0 0 0 -0.375,0.28711 3.5,3.5 0 0 0 -0.46875,0.0625 3.5,3.5 0 0 0 -0.55664,0.72461 3.5,3.5 0 0 0 -0.72461,0.55664 l -25,43.30079 a 3.50035,3.50035 0 0 0 3.03125,5.25 h 50 a 3.50035,3.50035 0 0 0 3.03125,-5.25 l -25,-43.30079 a 3.5,3.5 0 0 0 -0.10742,-0.082 3.5,3.5 0 0 0 -1.17383,-1.19922 3.5,3.5 0 0 0 -0.46875,-0.0625 A 3.5,3.5 0 0 0 350,516.35352 3.5,3.5 0 0 0 349.09375,516.23437 Z M 350,526.61523 l 18.9375,32.80079 h -37.875 z m -25.77734,33.4043 a 3,3 0 0 0 -1.82032,1.39649 3,3 0 0 0 1.09766,4.09765 l 23.5,13.57031 v 27.13477 a 3,3 0 0 0 3,3 3,3 0 0 0 3,-3 v -27.13477 -0.002 l 23.5,-13.56836 a 3.0003,3.0003 0 0 0 -3,-5.19531 L 350,573.88672 326.5,560.31836 a 3,3 0 0 0 -2.27734,-0.29883 z M 325,559.41602 a 3.5,3.5 0 0 0 -0.84375,0.3496 3.5,3.5 0 0 0 -0.90625,0.11915 3.5,3.5 0 0 0 -0.28906,0.375 3.5,3.5 0 0 0 -0.78516,1.02343 3.5,3.5 0 0 0 -0.49414,1.19532 3.5,3.5 0 0 0 -0.18164,0.4375 3.5,3.5 0 0 0 0.34961,0.84375 3.5,3.5 0 0 0 0.11914,0.90625 l 25,43.30273 a 3.50035,3.50035 0 0 0 6.0625,0 l 25,-43.30273 A 3.50035,3.50035 0 0 0 375,559.41602 Z m 6.0625,7 h 37.875 L 350,599.21875 Z m 43.9375,-6.5 a 3,3 0 0 0 -3,3 v 27.13476 l -23.5,13.56836 a 3,3 0 0 0 -1.09766,4.09961 3,3 0 0 0 4.09766,1.09766 l 23.5,-13.56836 23.5,13.56836 a 3.0004839,3.0004839 0 0 0 3,-5.19727 L 378,590.05273 v -0.002 -27.13476 a 3,3 0 0 0 -3,-3 z m -0.90625,-0.38086 a 3.5,3.5 0 0 0 -0.375,0.28711 3.5,3.5 0 0 0 -0.46875,0.0625 3.5,3.5 0 0 0 -0.55664,0.7246 3.5,3.5 0 0 0 -0.72461,0.55665 l -25,43.30273 a 3.50035,3.50035 0 0 0 3.03125,5.25 h 50 a 3.50035,3.50035 0 0 0 3.03125,-5.25 l -25,-43.30273 a 3.5,3.5 0 0 0 -0.10742,-0.082 3.5,3.5 0 0 0 -1.17383,-1.19921 3.5,3.5 0 0 0 -0.46875,-0.0625 A 3.5,3.5 0 0 0 375,559.6543 3.5,3.5 0 0 0 374.09375,559.53516 Z M 375,569.91602 l 18.9375,32.80273 h -37.875 z m 299.22266,163.30859 a 3,3 0 0 0 -1.82032,1.39648 3,3 0 0 0 1.09766,4.09766 l 23.5,13.57031 v 27.13477 a 3,3 0 0 0 3,3 3,3 0 0 0 3,-3 v -27.13477 -0.002 l 23.5,-13.56836 a 3.0003,3.0003 0 0 0 -3,-5.19531 L 700,747.0918 676.5,733.52344 a 3,3 0 0 0 -2.27734,-0.29883 z M 675,732.62109 a 3.5,3.5 0 0 0 -0.84375,0.34961 3.5,3.5 0 0 0 -0.90625,0.11914 3.5,3.5 0 0 0 -0.28906,0.375 3.5,3.5 0 0 0 -0.78516,1.02344 3.5,3.5 0 0 0 -0.49414,1.19531 3.5,3.5 0 0 0 -0.18164,0.4375 3.5,3.5 0 0 0 0.34961,0.84375 3.5,3.5 0 0 0 0.11914,0.90625 l 25,43.30274 a 3.50035,3.50035 0 0 0 6.0625,0 l 25,-43.30274 A 3.50035,3.50035 0 0 0 725,732.62109 Z m 6.0625,7 h 37.875 L 700,772.42383 Z m -6.0625,-6.5 a 3,3 0 0 0 -3,3 v 27.13477 l -23.5,13.56836 a 3,3 0 0 0 -1.09766,4.09961 3,3 0 0 0 4.09766,1.09765 l 23.5,-13.56836 23.5,13.56836 a 3.000482,3.000482 0 0 0 3,-5.19726 L 678,763.25781 v -0.002 -27.13477 a 3,3 0 0 0 -3,-3 z m -0.90625,-0.38086 a 3.5,3.5 0 0 0 -0.375,0.28711 3.5,3.5 0 0 0 -0.46875,0.0625 3.5,3.5 0 0 0 -0.55664,0.72461 3.5,3.5 0 0 0 -0.72461,0.55664 l -25,43.30274 a 3.50035,3.50035 0 0 0 3.03125,5.25 h 50 a 3.50035,3.50035 0 0 0 3.03125,-5.25 l -25,-43.30274 a 3.5,3.5 0 0 0 -0.10742,-0.082 3.5,3.5 0 0 0 -1.17383,-1.19922 3.5,3.5 0 0 0 -0.46875,-0.0625 3.5,3.5 0 0 0 -1.28125,-0.168 3.5,3.5 0 0 0 -0.90625,-0.11914 z M 675,743.12109 l 18.9375,32.80274 h -37.875 z m -50.77734,-9.89648 a 3,3 0 0 0 -1.82032,1.39648 3,3 0 0 0 1.09766,4.09766 l 23.5,13.57031 v 27.13477 a 3,3 0 0 0 3,3 3,3 0 0 0 3,-3 v -27.13477 -0.002 l 23.5,-13.56836 a 3.0003,3.0003 0 0 0 -3,-5.19531 L 650,747.0918 626.5,733.52344 a 3,3 0 0 0 -2.27734,-0.29883 z M 625,732.62109 a 3.5,3.5 0 0 0 -0.84375,0.34961 3.5,3.5 0 0 0 -0.90625,0.11914 3.5,3.5 0 0 0 -0.28906,0.375 3.5,3.5 0 0 0 -0.78516,1.02344 3.5,3.5 0 0 0 -0.49414,1.19531 3.5,3.5 0 0 0 -0.18164,0.4375 3.5,3.5 0 0 0 0.34961,0.84375 3.5,3.5 0 0 0 0.11914,0.90625 l 25,43.30274 a 3.50035,3.50035 0 0 0 6.0625,0 l 25,-43.30274 A 3.50035,3.50035 0 0 0 675,732.62109 Z m 6.0625,7 h 37.875 L 650,772.42383 Z m -6.0625,-6.5 a 3,3 0 0 0 -3,3 v 27.13477 l -23.5,13.56836 a 3,3 0 0 0 -1.09766,4.09961 3,3 0 0 0 4.09766,1.09765 l 23.5,-13.56836 23.5,13.56836 a 3.000482,3.000482 0 0 0 3,-5.19726 L 628,763.25781 v -0.002 -27.13477 a 3,3 0 0 0 -3,-3 z m -0.90625,-0.38086 a 3.5,3.5 0 0 0 -0.375,0.28711 3.5,3.5 0 0 0 -0.46875,0.0625 3.5,3.5 0 0 0 -0.55664,0.72461 3.5,3.5 0 0 0 -0.72461,0.55664 l -25,43.30274 a 3.50035,3.50035 0 0 0 3.03125,5.25 h 50 a 3.50035,3.50035 0 0 0 3.03125,-5.25 l -25,-43.30274 a 3.5,3.5 0 0 0 -0.10742,-0.082 3.5,3.5 0 0 0 -1.17383,-1.19922 3.5,3.5 0 0 0 -0.46875,-0.0625 3.5,3.5 0 0 0 -1.28125,-0.168 3.5,3.5 0 0 0 -0.90625,-0.11914 z M 625,743.12109 l 18.9375,32.80274 h -37.875 z m -50.77734,-9.89648 a 3,3 0 0 0 -1.82032,1.39648 3,3 0 0 0 1.09766,4.09766 l 23.5,13.57031 v 27.13477 a 3,3 0 0 0 3,3 3,3 0 0 0 3,-3 v -27.13477 -0.002 l 23.5,-13.56836 a 3.0003,3.0003 0 0 0 -3,-5.19531 L 600,747.0918 576.5,733.52344 a 3,3 0 0 0 -2.27734,-0.29883 z M 575,732.62109 a 3.5,3.5 0 0 0 -0.84375,0.34961 3.5,3.5 0 0 0 -0.90625,0.11914 3.5,3.5 0 0 0 -0.28906,0.375 3.5,3.5 0 0 0 -0.78516,1.02344 3.5,3.5 0 0 0 -0.49414,1.19531 3.5,3.5 0 0 0 -0.18164,0.4375 3.5,3.5 0 0 0 0.34961,0.84375 3.5,3.5 0 0 0 0.11914,0.90625 l 25,43.30274 a 3.50035,3.50035 0 0 0 6.0625,0 l 25,-43.30274 A 3.50035,3.50035 0 0 0 625,732.62109 Z m 6.0625,7 h 37.875 L 600,772.42383 Z m -6.0625,-6.5 a 3,3 0 0 0 -3,3 v 27.13477 l -23.5,13.56836 a 3,3 0 0 0 -1.09766,4.09961 3,3 0 0 0 4.09766,1.09765 l 23.5,-13.56836 23.5,13.56836 a 3.000482,3.000482 0 0 0 3,-5.19726 L 578,763.25781 v -0.002 -27.13477 a 3,3 0 0 0 -3,-3 z m -0.90625,-0.38086 a 3.5,3.5 0 0 0 -0.375,0.28711 3.5,3.5 0 0 0 -0.46875,0.0625 3.5,3.5 0 0 0 -0.55664,0.72461 3.5,3.5 0 0 0 -0.72461,0.55664 l -25,43.30274 a 3.50035,3.50035 0 0 0 3.03125,5.25 h 50 a 3.50035,3.50035 0 0 0 3.03125,-5.25 l -25,-43.30274 a 3.5,3.5 0 0 0 -0.10742,-0.082 3.5,3.5 0 0 0 -1.17383,-1.19922 3.5,3.5 0 0 0 -0.46875,-0.0625 3.5,3.5 0 0 0 -1.28125,-0.168 3.5,3.5 0 0 0 -0.90625,-0.11914 z M 575,743.12109 l 18.9375,32.80274 h -37.875 z m -50.77734,-9.89648 a 3,3 0 0 0 -1.82032,1.39648 3,3 0 0 0 1.09766,4.09766 l 23.5,13.57031 v 27.13477 a 3,3 0 0 0 3,3 3,3 0 0 0 3,-3 v -27.13477 -0.002 l 23.5,-13.56836 a 3.0003,3.0003 0 0 0 -3,-5.19531 L 550,747.0918 526.5,733.52344 a 3,3 0 0 0 -2.27734,-0.29883 z M 525,732.62109 a 3.5,3.5 0 0 0 -0.84375,0.34961 3.5,3.5 0 0 0 -0.90625,0.11914 3.5,3.5 0 0 0 -0.28906,0.375 3.5,3.5 0 0 0 -0.78516,1.02344 3.5,3.5 0 0 0 -0.49414,1.19531 3.5,3.5 0 0 0 -0.18164,0.4375 3.5,3.5 0 0 0 0.34961,0.84375 3.5,3.5 0 0 0 0.11914,0.90625 l 25,43.30274 a 3.50035,3.50035 0 0 0 6.0625,0 l 25,-43.30274 A 3.50035,3.50035 0 0 0 575,732.62109 Z m 6.0625,7 h 37.875 L 550,772.42383 Z m -6.0625,-6.5 a 3,3 0 0 0 -3,3 v 27.13477 l -23.5,13.56836 a 3,3 0 0 0 -1.09766,4.09961 3,3 0 0 0 4.09766,1.09765 l 23.5,-13.56836 23.5,13.56836 a 3.000482,3.000482 0 0 0 3,-5.19726 L 528,763.25781 v -0.002 -27.13477 a 3,3 0 0 0 -3,-3 z m -0.90625,-0.38086 a 3.5,3.5 0 0 0 -0.375,0.28711 3.5,3.5 0 0 0 -0.46875,0.0625 3.5,3.5 0 0 0 -0.55664,0.72461 3.5,3.5 0 0 0 -0.72461,0.55664 l -25,43.30274 a 3.50035,3.50035 0 0 0 3.03125,5.25 h 50 a 3.50035,3.50035 0 0 0 3.03125,-5.25 l -25,-43.30274 a 3.5,3.5 0 0 0 -0.10742,-0.082 3.5,3.5 0 0 0 -1.17383,-1.19922 3.5,3.5 0 0 0 -0.46875,-0.0625 3.5,3.5 0 0 0 -1.28125,-0.168 3.5,3.5 0 0 0 -0.90625,-0.11914 z M 525,743.12109 l 18.9375,32.80274 h -37.875 z m -50.77734,-9.89648 a 3,3 0 0 0 -1.82032,1.39648 3,3 0 0 0 1.09766,4.09766 l 23.5,13.57031 v 27.13477 a 3,3 0 0 0 3,3 3,3 0 0 0 3,-3 v -27.13477 -0.002 l 23.5,-13.56836 a 3.0003,3.0003 0 0 0 -3,-5.19531 L 500,747.0918 476.5,733.52344 a 3,3 0 0 0 -2.27734,-0.29883 z M 475,732.62109 a 3.5,3.5 0 0 0 -0.84375,0.34961 3.5,3.5 0 0 0 -0.90625,0.11914 3.5,3.5 0 0 0 -0.28906,0.375 3.5,3.5 0 0 0 -0.78516,1.02344 3.5,3.5 0 0 0 -0.49414,1.19531 3.5,3.5 0 0 0 -0.18164,0.4375 3.5,3.5 0 0 0 0.34961,0.84375 3.5,3.5 0 0 0 0.11914,0.90625 l 25,43.30274 a 3.50035,3.50035 0 0 0 6.0625,0 l 25,-43.30274 A 3.50035,3.50035 0 0 0 525,732.62109 Z m 6.0625,7 h 37.875 L 500,772.42383 Z M 500,689.82031 a 3,3 0 0 0 -3,3 v 27.13477 l -23.5,13.56836 a 3,3 0 0 0 -1.09766,4.09765 3,3 0 0 0 4.09766,1.09766 l 23.5,-13.56641 23.5,13.56641 a 3.0003,3.0003 0 0 0 3,-5.19531 L 503,719.95508 v -27.13477 a 3,3 0 0 0 -3,-3 z m -0.90625,-0.38086 a 3.5,3.5 0 0 0 -0.375,0.28711 3.5,3.5 0 0 0 -0.46875,0.0625 3.5,3.5 0 0 0 -0.55664,0.72461 3.5,3.5 0 0 0 -0.72461,0.55664 l -25,43.30078 a 3.50035,3.50035 0 0 0 3.03125,5.25 h 50 a 3.50035,3.50035 0 0 0 3.03125,-5.25 l -25,-43.30078 a 3.5,3.5 0 0 0 -0.10742,-0.082 3.5,3.5 0 0 0 -1.17383,-1.19922 3.5,3.5 0 0 0 -0.46875,-0.0625 3.5,3.5 0 0 0 -1.28125,-0.168 3.5,3.5 0 0 0 -0.90625,-0.11914 z M 500,699.82031 l 18.9375,32.80078 h -37.875 z m 25,-53.30078 a 3,3 0 0 0 -3,3 v 27.13477 l -23.5,13.56836 a 3.0003,3.0003 0 0 0 3,5.19531 l 23.5,-13.56641 23.5,13.56641 a 3,3 0 0 0 4.09766,-1.09766 A 3,3 0 0 0 551.5,690.22266 L 528,676.6543 v -27.13477 a 3,3 0 0 0 -3,-3 z m -0.90625,-0.38086 a 3.5,3.5 0 0 0 -0.375,0.28711 3.5,3.5 0 0 0 -0.46875,0.0625 3.5,3.5 0 0 0 -0.55664,0.72461 3.5,3.5 0 0 0 -0.72461,0.55664 l -25,43.30078 a 3.50035,3.50035 0 0 0 3.03125,5.25 h 50 a 3.50035,3.50035 0 0 0 3.03125,-5.25 l -25,-43.30078 a 3.5,3.5 0 0 0 -0.10742,-0.082 3.5,3.5 0 0 0 -1.17383,-1.19922 3.5,3.5 0 0 0 -0.46875,-0.0625 3.5,3.5 0 0 0 -1.28125,-0.168 3.5,3.5 0 0 0 -0.90625,-0.11914 z M 525,656.51953 l 18.9375,32.80078 h -37.875 z m -25.77734,33.40234 a 3,3 0 0 0 -1.82032,1.39844 3,3 0 0 0 1.09766,4.09766 l 23.5,13.56836 v 27.13476 a 3,3 0 0 0 3,3 3,3 0 0 0 3,-3 v -27.13476 l 23.5,-13.56836 a 3.0003,3.0003 0 0 0 -3,-5.19531 l -23.5,13.5664 -23.5,-13.5664 a 3,3 0 0 0 -2.27734,-0.30079 z M 500,689.32031 a 3.5,3.5 0 0 0 -0.84375,0.34961 3.5,3.5 0 0 0 -0.90625,0.11914 3.5,3.5 0 0 0 -0.28906,0.375 3.5,3.5 0 0 0 -0.78516,1.02344 3.5,3.5 0 0 0 -0.49414,1.19531 3.5,3.5 0 0 0 -0.18164,0.4375 3.5,3.5 0 0 0 0.34961,0.84375 3.5,3.5 0 0 0 0.11914,0.90625 l 25,43.30078 a 3.50035,3.50035 0 0 0 6.0625,0 l 25,-43.30078 A 3.50035,3.50035 0 0 0 550,689.32031 Z m 6.0625,7 h 37.875 L 525,729.12109 Z m 43.9375,-6.5 a 3,3 0 0 0 -3,3 v 27.13477 l -23.5,13.56836 a 3,3 0 0 0 -1.09766,4.09765 3,3 0 0 0 4.09766,1.09766 l 23.5,-13.56641 23.5,13.56641 a 3.0003,3.0003 0 0 0 3,-5.19531 L 553,719.95508 v -27.13477 a 3,3 0 0 0 -3,-3 z m -0.90625,-0.38086 a 3.5,3.5 0 0 0 -0.375,0.28711 3.5,3.5 0 0 0 -0.46875,0.0625 3.5,3.5 0 0 0 -0.55664,0.72461 3.5,3.5 0 0 0 -0.72461,0.55664 l -25,43.30078 a 3.50035,3.50035 0 0 0 3.03125,5.25 h 50 a 3.50035,3.50035 0 0 0 3.03125,-5.25 l -25,-43.30078 a 3.5,3.5 0 0 0 -0.10742,-0.082 3.5,3.5 0 0 0 -1.17383,-1.19922 3.5,3.5 0 0 0 -0.46875,-0.0625 3.5,3.5 0 0 0 -1.28125,-0.168 3.5,3.5 0 0 0 -0.90625,-0.11914 z M 550,699.82031 l 18.9375,32.80078 h -37.875 z m -0.77734,-9.89844 a 3,3 0 0 0 -1.82032,1.39844 3,3 0 0 0 1.09766,4.09766 l 23.5,13.56836 v 27.13476 a 3,3 0 0 0 3,3 3,3 0 0 0 3,-3 v -27.13476 l 23.5,-13.56836 a 3.0003,3.0003 0 0 0 -3,-5.19531 l -23.5,13.5664 -23.5,-13.5664 a 3,3 0 0 0 -2.27734,-0.30079 z M 550,689.32031 a 3.5,3.5 0 0 0 -0.84375,0.34961 3.5,3.5 0 0 0 -0.90625,0.11914 3.5,3.5 0 0 0 -0.28906,0.375 3.5,3.5 0 0 0 -0.78516,1.02344 3.5,3.5 0 0 0 -0.49414,1.19531 3.5,3.5 0 0 0 -0.18164,0.4375 3.5,3.5 0 0 0 0.34961,0.84375 3.5,3.5 0 0 0 0.11914,0.90625 l 25,43.30078 a 3.50035,3.50035 0 0 0 6.0625,0 l 25,-43.30078 A 3.50035,3.50035 0 0 0 600,689.32031 Z m 6.0625,7 h 37.875 L 575,729.12109 Z m 43.9375,-6.5 a 3,3 0 0 0 -3,3 v 27.13477 l -23.5,13.56836 a 3.0003,3.0003 0 0 0 3,5.19531 l 23.5,-13.56641 23.5,13.56641 a 3,3 0 0 0 4.09766,-1.09766 A 3,3 0 0 0 626.5,733.52344 L 603,719.95508 v -27.13477 a 3,3 0 0 0 -3,-3 z m -0.90625,-0.38086 a 3.5,3.5 0 0 0 -0.375,0.28711 3.5,3.5 0 0 0 -0.46875,0.0625 3.5,3.5 0 0 0 -0.55664,0.72461 3.5,3.5 0 0 0 -0.72461,0.55664 l -25,43.30078 a 3.50035,3.50035 0 0 0 3.03125,5.25 h 50 a 3.50035,3.50035 0 0 0 3.03125,-5.25 l -25,-43.30078 a 3.5,3.5 0 0 0 -0.10742,-0.082 3.5,3.5 0 0 0 -1.17383,-1.19922 3.5,3.5 0 0 0 -0.46875,-0.0625 3.5,3.5 0 0 0 -1.28125,-0.168 3.5,3.5 0 0 0 -0.90625,-0.11914 z M 600,699.82031 l 18.9375,32.80078 h -37.875 z m 100,-10 a 3,3 0 0 0 -3,3 v 27.13477 l -23.5,13.56836 a 3.0003,3.0003 0 0 0 3,5.19531 l 23.5,-13.56641 23.5,13.56641 a 3,3 0 0 0 4.09766,-1.09766 A 3,3 0 0 0 726.5,733.52344 L 703,719.95508 v -27.13477 a 3,3 0 0 0 -3,-3 z m -0.90625,-0.38086 a 3.5,3.5 0 0 0 -0.375,0.28711 3.5,3.5 0 0 0 -0.46875,0.0625 3.5,3.5 0 0 0 -0.55664,0.72461 3.5,3.5 0 0 0 -0.72461,0.55664 l -25,43.30078 a 3.50035,3.50035 0 0 0 3.03125,5.25 h 50 a 3.50035,3.50035 0 0 0 3.03125,-5.25 l -25,-43.30078 a 3.5,3.5 0 0 0 -0.10742,-0.082 3.5,3.5 0 0 0 -1.17383,-1.19922 3.5,3.5 0 0 0 -0.46875,-0.0625 3.5,3.5 0 0 0 -1.28125,-0.168 3.5,3.5 0 0 0 -0.90625,-0.11914 z M 700,699.82031 l 18.9375,32.80078 h -37.875 z m -0.77734,-9.89844 a 3,3 0 0 0 -1.82032,1.39844 3,3 0 0 0 1.09766,4.09766 l 23.5,13.56836 v 27.13476 a 3,3 0 0 0 3,3 3,3 0 0 0 3,-3 v -27.13476 l 23.5,-13.56836 a 3.0003,3.0003 0 0 0 -3,-5.19531 l -23.5,13.5664 -23.5,-13.5664 a 3,3 0 0 0 -2.27734,-0.30079 z M 700,689.32031 a 3.5,3.5 0 0 0 -0.84375,0.34961 3.5,3.5 0 0 0 -0.90625,0.11914 3.5,3.5 0 0 0 -0.28906,0.375 3.5,3.5 0 0 0 -0.78516,1.02344 3.5,3.5 0 0 0 -0.49414,1.19531 3.5,3.5 0 0 0 -0.18164,0.4375 3.5,3.5 0 0 0 0.34961,0.84375 3.5,3.5 0 0 0 0.11914,0.90625 l 25,43.30078 a 3.50035,3.50035 0 0 0 6.0625,0 l 25,-43.30078 A 3.50035,3.50035 0 0 0 750,689.32031 Z m 6.0625,7 h 37.875 L 725,729.12109 Z M 725,646.51953 a 3,3 0 0 0 -3,3 v 27.13477 l -23.5,13.56836 a 3.0003,3.0003 0 0 0 3,5.19531 l 23.5,-13.56641 23.5,13.56641 a 3,3 0 0 0 4.09766,-1.09766 A 3,3 0 0 0 751.5,690.22266 L 728,676.6543 v -27.13477 a 3,3 0 0 0 -3,-3 z m -0.90625,-0.38086 a 3.5,3.5 0 0 0 -0.375,0.28711 3.5,3.5 0 0 0 -0.46875,0.0625 3.5,3.5 0 0 0 -0.55664,0.72461 3.5,3.5 0 0 0 -0.72461,0.55664 l -25,43.30078 a 3.50035,3.50035 0 0 0 3.03125,5.25 h 50 a 3.50035,3.50035 0 0 0 3.03125,-5.25 l -25,-43.30078 a 3.5,3.5 0 0 0 -0.10742,-0.082 3.5,3.5 0 0 0 -1.17383,-1.19922 3.5,3.5 0 0 0 -0.46875,-0.0625 3.5,3.5 0 0 0 -1.28125,-0.168 3.5,3.5 0 0 0 -0.90625,-0.11914 z M 725,656.51953 l 18.9375,32.80078 h -37.875 z m -0.77734,-9.89844 a 3,3 0 0 0 -1.82032,1.39844 3,3 0 0 0 1.09766,4.09766 l 23.5,13.56836 v 27.13476 a 3,3 0 0 0 3,3 3,3 0 0 0 3,-3 v -27.13476 l 23.5,-13.56836 a 3.0003,3.0003 0 0 0 -3,-5.19532 L 750,660.48828 726.5,646.92187 a 3,3 0 0 0 -2.27734,-0.30078 z M 725,646.01953 a 3.5,3.5 0 0 0 -0.84375,0.34961 3.5,3.5 0 0 0 -0.90625,0.11914 3.5,3.5 0 0 0 -0.28906,0.375 3.5,3.5 0 0 0 -0.78516,1.02344 3.5,3.5 0 0 0 -0.49414,1.19531 3.5,3.5 0 0 0 -0.18164,0.4375 3.5,3.5 0 0 0 0.34961,0.84375 3.5,3.5 0 0 0 0.11914,0.90625 l 25,43.30078 a 3.50035,3.50035 0 0 0 6.0625,0 l 25,-43.30078 A 3.50035,3.50035 0 0 0 775,646.01953 Z m 6.0625,7 h 37.875 L 750,685.82031 Z m 18.16016,-49.69922 a 3,3 0 0 0 -1.82032,1.39844 3,3 0 0 0 1.09766,4.09766 l 23.5,13.56836 v 27.13476 a 3,3 0 0 0 3,3 3,3 0 0 0 3,-3 v -27.13476 -0.002 l 23.5,-13.5664 a 3.0004839,3.0004839 0 0 0 -3,-5.19727 L 775,617.1875 751.5,603.61914 a 3,3 0 0 0 -2.27734,-0.29883 z M 750,602.71875 a 3.5,3.5 0 0 0 -0.8457,0.34961 3.5,3.5 0 0 0 -0.9043,0.11914 3.5,3.5 0 0 0 -0.28711,0.37305 3.5,3.5 0 0 0 -0.78711,1.02734 3.5,3.5 0 0 0 -0.49414,1.19336 3.5,3.5 0 0 0 -0.18164,0.4375 3.5,3.5 0 0 0 0.34961,0.84375 3.5,3.5 0 0 0 0.11914,0.90625 l 25,43.30078 a 3.50035,3.50035 0 0 0 6.0625,0 l 25,-43.30078 A 3.50035,3.50035 0 0 0 800,602.71875 Z m 6.0625,7 h 37.875 L 775,642.51953 Z m 18.16016,-49.69922 a 3,3 0 0 0 -1.82032,1.39649 3,3 0 0 0 1.09766,4.09765 l 23.5,13.57031 v 27.13477 a 3,3 0 0 0 3,3 3,3 0 0 0 3,-3 v -27.13477 -0.002 l 23.5,-13.56836 a 3.0003,3.0003 0 0 0 -3,-5.19531 L 800,573.88672 776.5,560.31836 a 3,3 0 0 0 -2.27734,-0.29883 z M 775,559.41602 a 3.5,3.5 0 0 0 -0.84375,0.3496 3.5,3.5 0 0 0 -0.90625,0.11915 3.5,3.5 0 0 0 -0.28906,0.375 3.5,3.5 0 0 0 -0.78516,1.02343 3.5,3.5 0 0 0 -0.49414,1.19532 3.5,3.5 0 0 0 -0.18164,0.4375 3.5,3.5 0 0 0 0.34961,0.84375 3.5,3.5 0 0 0 0.11914,0.90625 l 25,43.30273 a 3.50035,3.50035 0 0 0 6.0625,0 l 25,-43.30273 A 3.50035,3.50035 0 0 0 825,559.41602 Z m 6.0625,7 h 37.875 L 800,599.21875 Z m 18.16016,-49.69922 a 3,3 0 0 0 -1.82032,1.39843 3,3 0 0 0 1.09766,4.09766 l 23.5,13.56836 v 27.13477 a 3,3 0 0 0 3,3 3,3 0 0 0 3,-3 v -27.13477 l 23.5,-13.56836 a 3.0003,3.0003 0 0 0 -3,-5.19531 l -23.5,13.5664 -23.5,-13.5664 a 3,3 0 0 0 -2.27734,-0.30078 z M 800,516.11523 a 3.5,3.5 0 0 0 -0.84375,0.34961 3.5,3.5 0 0 0 -0.90625,0.11914 3.5,3.5 0 0 0 -0.28906,0.375 3.5,3.5 0 0 0 -0.78516,1.02344 3.5,3.5 0 0 0 -0.49414,1.19531 3.5,3.5 0 0 0 -0.18164,0.4375 3.5,3.5 0 0 0 0.34961,0.84375 3.5,3.5 0 0 0 0.11914,0.90625 l 25,43.30079 a 3.50035,3.50035 0 0 0 6.0625,0 l 25,-43.30079 A 3.50035,3.50035 0 0 0 850,516.11523 Z m 6.0625,7 h 37.875 L 825,555.91602 Z M 825,473.31445 a 3,3 0 0 0 -3,3 v 27.13477 l -23.5,13.56836 a 3.0003,3.0003 0 0 0 3,5.19531 l 23.5,-13.56641 23.5,13.56641 a 3,3 0 0 0 4.09766,-1.09766 A 3,3 0 0 0 851.5,517.01758 L 828,503.44922 v -27.13477 a 3,3 0 0 0 -3,-3 z m -0.90625,-0.38086 a 3.5,3.5 0 0 0 -0.375,0.28711 3.5,3.5 0 0 0 -0.46875,0.0625 3.5,3.5 0 0 0 -0.55664,0.72461 3.5,3.5 0 0 0 -0.72461,0.55664 l -25,43.30078 a 3.50035,3.50035 0 0 0 3.03125,5.25 h 50 a 3.50035,3.50035 0 0 0 3.03125,-5.25 l -25,-43.30078 a 3.5,3.5 0 0 0 -0.10742,-0.082 A 3.5,3.5 0 0 0 826.75,473.2832 3.5,3.5 0 0 0 826.28125,473.2207 3.5,3.5 0 0 0 825,473.05273 3.5,3.5 0 0 0 824.09375,472.93359 Z M 825,483.31445 l 18.9375,32.80078 h -37.875 z m -25,-53.30078 a 3,3 0 0 0 -3,3 v 27.13281 l -23.5,13.57032 a 3,3 0 0 0 -1.09766,4.09765 3,3 0 0 0 4.09766,1.09766 l 23.5,-13.56836 23.5,13.56836 a 3.0003,3.0003 0 0 0 3,-5.19531 L 803,460.14844 v -0.002 -27.13281 a 3,3 0 0 0 -3,-3 z m -0.90625,-0.38086 a 3.5,3.5 0 0 0 -0.375,0.28711 3.5,3.5 0 0 0 -0.46875,0.0625 3.5,3.5 0 0 0 -0.55664,0.72461 3.5,3.5 0 0 0 -0.72461,0.55664 l -25,43.30078 a 3.50035,3.50035 0 0 0 3.03125,5.25 h 50 a 3.50035,3.50035 0 0 0 3.03125,-5.25 l -25,-43.30078 a 3.5,3.5 0 0 0 -0.10742,-0.082 3.5,3.5 0 0 0 -1.17383,-1.19922 3.5,3.5 0 0 0 -0.46875,-0.0625 3.5,3.5 0 0 0 -1.28125,-0.168 3.5,3.5 0 0 0 -0.90625,-0.11914 z M 800,440.01367 l 18.9375,32.80078 h -37.875 z m 0,76.60156 a 3,3 0 0 0 -3,3 V 546.75 l -23.5,13.56836 a 3,3 0 0 0 -1.09766,4.09766 3,3 0 0 0 4.09766,1.09765 l 23.5,-13.5664 23.5,13.5664 a 3.0003,3.0003 0 0 0 3,-5.19531 L 803,546.75 v -27.13477 a 3,3 0 0 0 -3,-3 z m -0.90625,-0.38086 a 3.5,3.5 0 0 0 -0.375,0.28711 3.5,3.5 0 0 0 -0.46875,0.0625 3.5,3.5 0 0 0 -0.55664,0.72461 3.5,3.5 0 0 0 -0.72461,0.55664 l -25,43.30079 a 3.50035,3.50035 0 0 0 3.03125,5.25 h 50 a 3.50035,3.50035 0 0 0 3.03125,-5.25 l -25,-43.30079 a 3.5,3.5 0 0 0 -0.10742,-0.082 3.5,3.5 0 0 0 -1.17383,-1.19922 3.5,3.5 0 0 0 -0.46875,-0.0625 A 3.5,3.5 0 0 0 800,516.35352 3.5,3.5 0 0 0 799.09375,516.23437 Z M 800,526.61523 l 18.9375,32.80079 h -37.875 z m -25.77734,-53.19921 a 3,3 0 0 0 -1.82032,1.39843 3,3 0 0 0 1.09766,4.09766 l 23.5,13.56836 v 27.13476 a 3,3 0 0 0 3,3 3,3 0 0 0 3,-3 v -27.13476 l 23.5,-13.56836 a 3.0003,3.0003 0 0 0 -3,-5.19531 L 800,487.2832 776.5,473.7168 a 3,3 0 0 0 -2.27734,-0.30078 z M 775,472.81445 a 3.5,3.5 0 0 0 -0.84375,0.34961 3.5,3.5 0 0 0 -0.90625,0.11914 3.5,3.5 0 0 0 -0.28906,0.375 3.5,3.5 0 0 0 -0.78516,1.02344 3.5,3.5 0 0 0 -0.49414,1.19531 3.5,3.5 0 0 0 -0.18164,0.4375 3.5,3.5 0 0 0 0.34961,0.84375 3.5,3.5 0 0 0 0.11914,0.90625 l 25,43.30078 a 3.50035,3.50035 0 0 0 6.0625,0 l 25,-43.30078 A 3.50035,3.50035 0 0 0 825,472.81445 Z m 6.0625,7 h 37.875 L 800,512.61523 Z m -31.83984,-49.69922 a 3,3 0 0 0 -1.82032,1.39844 3,3 0 0 0 1.09766,4.09766 l 23.5,13.56836 v 27.13476 a 3,3 0 0 0 3,3 3,3 0 0 0 3,-3 v -27.13476 -0.002 l 23.5,-13.5664 a 3.0004839,3.0004839 0 0 0 -3,-5.19727 l -23.5,13.5684 -23.5,-13.56836 a 3,3 0 0 0 -2.27734,-0.29883 z M 750,429.51367 a 3.5,3.5 0 0 0 -0.8457,0.34961 3.5,3.5 0 0 0 -0.9043,0.11914 3.5,3.5 0 0 0 -0.28711,0.37305 3.5,3.5 0 0 0 -0.78711,1.02734 3.5,3.5 0 0 0 -0.49414,1.19336 3.5,3.5 0 0 0 -0.18164,0.4375 3.5,3.5 0 0 0 0.34961,0.84375 3.5,3.5 0 0 0 0.11914,0.90625 l 25,43.30078 a 3.50035,3.50035 0 0 0 6.0625,0 l 25,-43.30078 A 3.50035,3.50035 0 0 0 800,429.51367 Z m 6.0625,7 h 37.875 L 775,469.31445 Z M 775,386.71094 a 3,3 0 0 0 -3,3 v 27.13476 0.002 l -23.5,13.5664 a 3.0004839,3.0004839 0 0 0 3,5.19727 l 23.5,-13.56836 23.5,13.56836 a 3,3 0 0 0 4.09766,-1.09766 A 3,3 0 0 0 801.5,430.41406 L 778,416.8457 v -27.13476 a 3,3 0 0 0 -3,-3 z m -0.90625,-0.38086 a 3.5,3.5 0 0 0 -0.375,0.28711 3.5,3.5 0 0 0 -0.46875,0.0625 3.5,3.5 0 0 0 -0.55664,0.72461 3.5,3.5 0 0 0 -0.72461,0.55664 l -25,43.30273 a 3.50035,3.50035 0 0 0 3.03125,5.25 h 50 a 3.50035,3.50035 0 0 0 3.03125,-5.25 l -25,-43.30273 a 3.5,3.5 0 0 0 -0.10742,-0.082 3.5,3.5 0 0 0 -1.17383,-1.19922 3.5,3.5 0 0 0 -0.46875,-0.0625 3.5,3.5 0 0 0 -1.28125,-0.168 3.5,3.5 0 0 0 -0.90625,-0.11914 z M 775,396.71094 l 18.9375,32.80273 h -37.875 z m -75.77734,-53.19922 a 3,3 0 0 0 -1.82032,1.39844 3,3 0 0 0 1.09766,4.09765 l 23.5,13.56836 v 27.13477 a 3,3 0 0 0 3,3 3,3 0 0 0 3,-3 v -27.13477 l 23.5,-13.56836 a 3.0003,3.0003 0 0 0 -3,-5.19531 L 725,357.37891 701.5,343.8125 a 3,3 0 0 0 -2.27734,-0.30078 z M 700,342.91016 a 3.5,3.5 0 0 0 -0.84375,0.34961 3.5,3.5 0 0 0 -0.90625,0.11914 3.5,3.5 0 0 0 -0.28906,0.375 3.5,3.5 0 0 0 -0.78516,1.02343 3.5,3.5 0 0 0 -0.49414,1.19532 3.5,3.5 0 0 0 -0.18164,0.4375 3.5,3.5 0 0 0 0.34961,0.84375 3.5,3.5 0 0 0 0.11914,0.90625 l 25,43.30078 a 3.50035,3.50035 0 0 0 6.0625,0 l 25,-43.30078 A 3.50035,3.50035 0 0 0 750,342.91016 Z m 6.0625,7 h 37.875 L 725,382.71094 Z m 43.9375,-6.5 a 3,3 0 0 0 -3,3 v 27.13476 l -23.5,13.56836 a 3.0003,3.0003 0 0 0 3,5.19531 l 23.5,-13.5664 23.5,13.5664 a 3,3 0 0 0 4.09766,-1.09765 A 3,3 0 0 0 776.5,387.11328 L 753,373.54492 v -27.13476 a 3,3 0 0 0 -3,-3 z m -0.90625,-0.38086 a 3.5,3.5 0 0 0 -0.375,0.28711 3.5,3.5 0 0 0 -0.46875,0.0625 3.5,3.5 0 0 0 -0.55664,0.72461 3.5,3.5 0 0 0 -0.72461,0.55664 l -25,43.30078 a 3.50035,3.50035 0 0 0 3.03125,5.25 h 50 a 3.50035,3.50035 0 0 0 3.03125,-5.25 l -25,-43.30078 a 3.5,3.5 0 0 0 -0.10742,-0.082 3.5,3.5 0 0 0 -1.17383,-1.19921 3.5,3.5 0 0 0 -0.46875,-0.0625 A 3.5,3.5 0 0 0 750,343.14844 3.5,3.5 0 0 0 749.09375,343.0293 Z M 750,353.41016 l 18.9375,32.80078 h -37.875 z m -50,-96.60157 a 3,3 0 0 0 -3,3 v 27.13282 l -23.5,13.57031 a 3,3 0 0 0 -1.09766,4.09765 3,3 0 0 0 4.09766,1.09766 l 23.5,-13.56836 23.5,13.56836 a 3.0003,3.0003 0 0 0 3,-5.19531 L 703,286.94336 v -0.002 -27.13282 a 3,3 0 0 0 -3,-3 z m -0.90625,-0.38086 a 3.5,3.5 0 0 0 -0.375,0.28711 3.5,3.5 0 0 0 -0.46875,0.0625 3.5,3.5 0 0 0 -0.55664,0.72461 3.5,3.5 0 0 0 -0.72461,0.55664 l -25,43.30078 a 3.50035,3.50035 0 0 0 3.03125,5.25 h 50 a 3.50035,3.50035 0 0 0 3.03125,-5.25 l -25,-43.30078 a 3.5,3.5 0 0 0 -0.10742,-0.082 3.5,3.5 0 0 0 -1.17383,-1.19922 3.5,3.5 0 0 0 -0.46875,-0.0625 3.5,3.5 0 0 0 -1.28125,-0.168 3.5,3.5 0 0 0 -0.90625,-0.11914 z M 700,266.80859 l 18.9375,32.80078 h -37.875 z m -50.77734,-9.89843 a 3,3 0 0 0 -1.82032,1.39843 3,3 0 0 0 1.09766,4.09766 l 23.5,13.56836 v 27.13476 a 3,3 0 0 0 3,3 3,3 0 0 0 3,-3 v -27.13476 -0.002 l 23.5,-13.56641 a 3.0004839,3.0004839 0 0 0 -3,-5.19727 L 675,270.77734 651.5,257.20898 a 3,3 0 0 0 -2.27734,-0.29882 z M 650,256.30859 a 3.5,3.5 0 0 0 -0.8457,0.34961 3.5,3.5 0 0 0 -0.9043,0.11914 3.5,3.5 0 0 0 -0.28711,0.37305 3.5,3.5 0 0 0 -0.78711,1.02734 3.5,3.5 0 0 0 -0.49414,1.19336 3.5,3.5 0 0 0 -0.18164,0.4375 3.5,3.5 0 0 0 0.34961,0.84375 3.5,3.5 0 0 0 0.11914,0.90625 l 25,43.30078 a 3.50035,3.50035 0 0 0 6.0625,0 l 25,-43.30078 A 3.50035,3.50035 0 0 0 700,256.30859 Z m 6.0625,7 h 37.875 L 675,296.10937 Z m 18.16016,36.90235 a 3,3 0 0 0 -1.82032,1.39843 3,3 0 0 0 1.09766,4.09766 l 23.5,13.56836 v 27.13477 a 3,3 0 0 0 3,3 3,3 0 0 0 3,-3 v -27.13477 l 23.5,-13.56836 a 3.0003,3.0003 0 0 0 -3,-5.19531 l -23.5,13.5664 -23.5,-13.5664 a 3,3 0 0 0 -2.27734,-0.30078 z M 675,299.60937 a 3.5,3.5 0 0 0 -0.84375,0.34961 3.5,3.5 0 0 0 -0.90625,0.11914 3.5,3.5 0 0 0 -0.28906,0.375 3.5,3.5 0 0 0 -0.78516,1.02344 3.5,3.5 0 0 0 -0.49414,1.19531 3.5,3.5 0 0 0 -0.18164,0.4375 3.5,3.5 0 0 0 0.34961,0.84375 3.5,3.5 0 0 0 0.11914,0.90625 l 25,43.30079 a 3.50035,3.50035 0 0 0 6.0625,0 l 25,-43.30079 A 3.50035,3.50035 0 0 0 725,299.60937 Z m 6.0625,7 h 37.875 L 700,339.41016 Z M 650,256.80859 a 3,3 0 0 0 -3,3 v 27.13282 0.002 l -23.5,13.56836 a 3.0003,3.0003 0 0 0 3,5.19531 l 23.5,-13.56836 23.5,13.56836 a 3,3 0 0 0 4.09766,-1.09766 3,3 0 0 0 -1.09766,-4.0977 L 653,286.94141 v -27.13282 a 3,3 0 0 0 -3,-3 z m -0.90625,-0.38086 a 3.5,3.5 0 0 0 -0.375,0.28711 3.5,3.5 0 0 0 -0.46875,0.0625 3.5,3.5 0 0 0 -0.55664,0.72461 3.5,3.5 0 0 0 -0.72461,0.55664 l -25,43.30078 a 3.50035,3.50035 0 0 0 3.03125,5.25 h 50 a 3.50035,3.50035 0 0 0 3.03125,-5.25 l -25,-43.30078 a 3.5,3.5 0 0 0 -0.10742,-0.082 3.5,3.5 0 0 0 -1.17383,-1.19922 3.5,3.5 0 0 0 -0.46875,-0.0625 3.5,3.5 0 0 0 -1.28125,-0.168 3.5,3.5 0 0 0 -0.90625,-0.11914 z M 650,266.80859 l 18.9375,32.80078 h -37.875 z m -100.77734,-9.89843 a 3,3 0 0 0 -1.82032,1.39843 3,3 0 0 0 1.09766,4.09766 l 23.5,13.56836 v 27.13476 a 3,3 0 0 0 3,3 3,3 0 0 0 3,-3 v -27.13476 -0.002 l 23.5,-13.56641 a 3.0004839,3.0004839 0 0 0 -3,-5.19727 L 575,270.77734 551.5,257.20898 a 3,3 0 0 0 -2.27734,-0.29882 z M 550,256.30859 a 3.5,3.5 0 0 0 -0.8457,0.34961 3.5,3.5 0 0 0 -0.9043,0.11914 3.5,3.5 0 0 0 -0.28711,0.37305 3.5,3.5 0 0 0 -0.78711,1.02734 3.5,3.5 0 0 0 -0.49414,1.19336 3.5,3.5 0 0 0 -0.18164,0.4375 3.5,3.5 0 0 0 0.34961,0.84375 3.5,3.5 0 0 0 0.11914,0.90625 l 25,43.30078 a 3.50035,3.50035 0 0 0 6.0625,0 l 25,-43.30078 A 3.50035,3.50035 0 0 0 600,256.30859 Z m 6.0625,7 h 37.875 L 575,296.10937 Z m 43.9375,-6.5 a 3,3 0 0 0 -3,3 v 27.13282 0.002 l -23.5,13.56836 a 3.0003,3.0003 0 0 0 3,5.19531 l 23.5,-13.56836 23.5,13.56836 a 3,3 0 0 0 4.09766,-1.09766 3,3 0 0 0 -1.09766,-4.0977 L 603,286.94141 v -27.13282 a 3,3 0 0 0 -3,-3 z m -0.90625,-0.38086 a 3.5,3.5 0 0 0 -0.375,0.28711 3.5,3.5 0 0 0 -0.46875,0.0625 3.5,3.5 0 0 0 -0.55664,0.72461 3.5,3.5 0 0 0 -0.72461,0.55664 l -25,43.30078 a 3.50035,3.50035 0 0 0 3.03125,5.25 h 50 a 3.50035,3.50035 0 0 0 3.03125,-5.25 l -25,-43.30078 a 3.5,3.5 0 0 0 -0.10742,-0.082 3.5,3.5 0 0 0 -1.17383,-1.19922 3.5,3.5 0 0 0 -0.46875,-0.0625 3.5,3.5 0 0 0 -1.28125,-0.168 3.5,3.5 0 0 0 -0.90625,-0.11914 z M 600,266.80859 l 18.9375,32.80078 h -37.875 z m -150,-10 a 3,3 0 0 0 -3,3 v 27.13282 l -23.5,13.57031 a 3,3 0 0 0 -1.09766,4.09765 3,3 0 0 0 4.09766,1.09766 l 23.5,-13.56836 23.5,13.56836 a 3.0003,3.0003 0 0 0 3,-5.19531 L 453,286.94336 v -0.002 -27.13282 a 3,3 0 0 0 -3,-3 z m -0.90625,-0.38086 a 3.5,3.5 0 0 0 -0.375,0.28711 3.5,3.5 0 0 0 -0.46875,0.0625 3.5,3.5 0 0 0 -0.55664,0.72461 3.5,3.5 0 0 0 -0.72461,0.55664 l -25,43.30078 a 3.50035,3.50035 0 0 0 3.03125,5.25 h 50 a 3.50035,3.50035 0 0 0 3.03125,-5.25 l -25,-43.30078 a 3.5,3.5 0 0 0 -0.10742,-0.082 3.5,3.5 0 0 0 -1.17383,-1.19922 3.5,3.5 0 0 0 -0.46875,-0.0625 3.5,3.5 0 0 0 -1.28125,-0.168 3.5,3.5 0 0 0 -0.90625,-0.11914 z M 450,266.80859 l 18.9375,32.80078 h -37.875 z m 49.22266,-9.89843 a 3,3 0 0 0 -1.82032,1.39843 3,3 0 0 0 1.09766,4.09766 l 23.5,13.56836 v 27.13476 a 3,3 0 0 0 3,3 3,3 0 0 0 3,-3 v -27.13476 -0.002 l 23.5,-13.56641 a 3.0004839,3.0004839 0 0 0 -3,-5.19727 L 525,270.77734 501.5,257.20898 a 3,3 0 0 0 -2.27734,-0.29882 z M 500,256.30859 a 3.5,3.5 0 0 0 -0.8457,0.34961 3.5,3.5 0 0 0 -0.9043,0.11914 3.5,3.5 0 0 0 -0.28711,0.37305 3.5,3.5 0 0 0 -0.78711,1.02734 3.5,3.5 0 0 0 -0.49414,1.19336 3.5,3.5 0 0 0 -0.18164,0.4375 3.5,3.5 0 0 0 0.34961,0.84375 3.5,3.5 0 0 0 0.11914,0.90625 l 25,43.30078 a 3.50035,3.50035 0 0 0 6.0625,0 l 25,-43.30078 A 3.50035,3.50035 0 0 0 550,256.30859 Z m 6.0625,7 h 37.875 L 525,296.10937 Z m -56.83984,-6.39843 a 3,3 0 0 0 -1.82032,1.39843 3,3 0 0 0 1.09766,4.09766 l 23.5,13.56836 v 27.13476 a 3,3 0 0 0 3,3 3,3 0 0 0 3,-3 v -27.13476 -0.002 l 23.5,-13.56641 a 3.0004839,3.0004839 0 0 0 -3,-5.19727 L 475,270.77734 451.5,257.20898 a 3,3 0 0 0 -2.27734,-0.29882 z M 450,256.30859 a 3.5,3.5 0 0 0 -0.8457,0.34961 3.5,3.5 0 0 0 -0.9043,0.11914 3.5,3.5 0 0 0 -0.28711,0.37305 3.5,3.5 0 0 0 -0.78711,1.02734 3.5,3.5 0 0 0 -0.49414,1.19336 3.5,3.5 0 0 0 -0.18164,0.4375 3.5,3.5 0 0 0 0.34961,0.84375 3.5,3.5 0 0 0 0.11914,0.90625 l 25,43.30078 a 3.50035,3.50035 0 0 0 6.0625,0 l 25,-43.30078 A 3.50035,3.50035 0 0 0 500,256.30859 Z m 6.0625,7 h 37.875 L 475,296.10937 Z m -56.83984,-6.39843 a 3,3 0 0 0 -1.82032,1.39843 3,3 0 0 0 1.09766,4.09766 l 23.5,13.56836 v 27.13476 a 3,3 0 0 0 3,3 3,3 0 0 0 3,-3 v -27.13476 -0.002 l 23.5,-13.56641 a 3.0004839,3.0004839 0 0 0 -3,-5.19727 L 425,270.77734 401.5,257.20898 a 3,3 0 0 0 -2.27734,-0.29882 z M 400,256.30859 a 3.5,3.5 0 0 0 -0.8457,0.34961 3.5,3.5 0 0 0 -0.9043,0.11914 3.5,3.5 0 0 0 -0.28711,0.37305 3.5,3.5 0 0 0 -0.78711,1.02734 3.5,3.5 0 0 0 -0.49414,1.19336 3.5,3.5 0 0 0 -0.18164,0.4375 3.5,3.5 0 0 0 0.34961,0.84375 3.5,3.5 0 0 0 0.11914,0.90625 l 25,43.30078 a 3.50035,3.50035 0 0 0 6.0625,0 l 25,-43.30078 A 3.50035,3.50035 0 0 0 450,256.30859 Z m 6.0625,7 h 37.875 L 425,296.10937 Z m -6.0625,-6.5 a 3,3 0 0 0 -3,3 v 27.13282 l -23.5,13.57031 a 3,3 0 0 0 -1.09766,4.09765 3,3 0 0 0 4.09766,1.09766 l 23.5,-13.56836 23.5,13.56836 a 3.0003,3.0003 0 0 0 3,-5.19531 L 403,286.94336 v -0.002 -27.13282 a 3,3 0 0 0 -3,-3 z m -0.90625,-0.38086 a 3.5,3.5 0 0 0 -0.375,0.28711 3.5,3.5 0 0 0 -0.46875,0.0625 3.5,3.5 0 0 0 -0.55664,0.72461 3.5,3.5 0 0 0 -0.72461,0.55664 l -25,43.30078 a 3.50035,3.50035 0 0 0 3.03125,5.25 h 50 a 3.50035,3.50035 0 0 0 3.03125,-5.25 l -25,-43.30078 a 3.5,3.5 0 0 0 -0.10742,-0.082 3.5,3.5 0 0 0 -1.17383,-1.19922 3.5,3.5 0 0 0 -0.46875,-0.0625 3.5,3.5 0 0 0 -1.28125,-0.168 3.5,3.5 0 0 0 -0.90625,-0.11914 z M 400,266.80859 l 18.9375,32.80078 h -37.875 z m -25.77734,33.40235 a 3,3 0 0 0 -1.82032,1.39843 3,3 0 0 0 1.09766,4.09766 l 23.5,13.56836 v 27.13477 a 3,3 0 0 0 3,3 3,3 0 0 0 3,-3 v -27.13477 l 23.5,-13.56836 a 3.0003,3.0003 0 0 0 -3,-5.19531 l -23.5,13.5664 -23.5,-13.5664 a 3,3 0 0 0 -2.27734,-0.30078 z M 375,299.60937 a 3.5,3.5 0 0 0 -0.84375,0.34961 3.5,3.5 0 0 0 -0.90625,0.11914 3.5,3.5 0 0 0 -0.28906,0.375 3.5,3.5 0 0 0 -0.78516,1.02344 3.5,3.5 0 0 0 -0.49414,1.19531 3.5,3.5 0 0 0 -0.18164,0.4375 3.5,3.5 0 0 0 0.34961,0.84375 3.5,3.5 0 0 0 0.11914,0.90625 l 25,43.30079 a 3.50035,3.50035 0 0 0 6.0625,0 l 25,-43.30079 A 3.50035,3.50035 0 0 0 425,299.60937 Z m 6.0625,7 h 37.875 L 400,339.41016 Z m -6.0625,-6.5 a 3,3 0 0 0 -3,3 v 27.13477 l -23.5,13.56836 a 3,3 0 0 0 -1.09766,4.09766 3,3 0 0 0 4.09766,1.09765 l 23.5,-13.5664 23.5,13.5664 a 3.0003,3.0003 0 0 0 3,-5.19531 L 378,330.24414 v -27.13477 a 3,3 0 0 0 -3,-3 z m -0.90625,-0.38085 a 3.5,3.5 0 0 0 -0.375,0.2871 3.5,3.5 0 0 0 -0.46875,0.0625 3.5,3.5 0 0 0 -0.55664,0.72461 3.5,3.5 0 0 0 -0.72461,0.55664 l -25,43.30079 a 3.50035,3.50035 0 0 0 3.03125,5.25 h 50 a 3.50035,3.50035 0 0 0 3.03125,-5.25 l -25,-43.30079 a 3.5,3.5 0 0 0 -0.10742,-0.082 3.5,3.5 0 0 0 -1.17383,-1.19922 3.5,3.5 0 0 0 -0.46875,-0.0625 A 3.5,3.5 0 0 0 375,299.84766 3.5,3.5 0 0 0 374.09375,299.72852 Z M 375,310.10937 l 18.9375,32.80079 h -37.875 z m -25,33.30079 a 3,3 0 0 0 -3,3 v 27.13476 l -23.5,13.56836 a 3.0003,3.0003 0 0 0 3,5.19531 l 23.5,-13.5664 23.5,13.5664 a 3,3 0 0 0 4.09766,-1.09765 A 3,3 0 0 0 376.5,387.11328 L 353,373.54492 v -27.13476 a 3,3 0 0 0 -3,-3 z m -0.90625,-0.38086 a 3.5,3.5 0 0 0 -0.375,0.28711 3.5,3.5 0 0 0 -0.46875,0.0625 3.5,3.5 0 0 0 -0.55664,0.72461 3.5,3.5 0 0 0 -0.72461,0.55664 l -25,43.30078 a 3.50035,3.50035 0 0 0 3.03125,5.25 h 50 a 3.50035,3.50035 0 0 0 3.03125,-5.25 l -25,-43.30078 a 3.5,3.5 0 0 0 -0.10742,-0.082 3.5,3.5 0 0 0 -1.17383,-1.19921 3.5,3.5 0 0 0 -0.46875,-0.0625 A 3.5,3.5 0 0 0 350,343.14844 3.5,3.5 0 0 0 349.09375,343.0293 Z M 350,353.41016 l 18.9375,32.80078 h -37.875 z m 61.72266,-31.54883 a 3,3 0 0 0 -1.82032,1.39844 3,3 0 0 0 1.09766,4.09765 l 11,6.35156 v 12.70118 a 3.0003,3.0003 0 0 0 6,0 v -12.70118 l 11,-6.35156 a 3,3 0 0 0 1.09766,-4.09765 A 3,3 0 0 0 436,322.16211 l -11,6.35156 -11,-6.35156 a 3,3 0 0 0 -2.27734,-0.30078 z m 12.37109,-22.13281 a 3.5,3.5 0 0 0 -0.375,0.2871 3.5,3.5 0 0 0 -0.46875,0.0625 3.5,3.5 0 0 0 -0.55664,0.72461 3.5,3.5 0 0 0 -0.72461,0.55664 l -25,43.30079 a 3.50035,3.50035 0 0 0 3.03125,5.25 h 50 a 3.50035,3.50035 0 0 0 3.03125,-5.25 l -25,-43.30079 a 3.5,3.5 0 0 0 -0.10742,-0.082 3.5,3.5 0 0 0 -1.17383,-1.19922 3.5,3.5 0 0 0 -0.46875,-0.0625 A 3.5,3.5 0 0 0 425,299.84766 3.5,3.5 0 0 0 424.09375,299.72852 Z M 425,310.10937 l 18.9375,32.80079 h -37.875 z m 0,33.30079 a 3,3 0 0 0 -3,3 v 12.70117 l -11,6.35156 a 3,3 0 0 0 -1.09766,4.09766 A 3,3 0 0 0 414,370.6582 l 11,-6.34961 11,6.34961 a 3.0003,3.0003 0 0 0 3,-5.19531 l -11,-6.35156 v -12.70117 a 3,3 0 0 0 -3,-3 z m -25,-0.5 a 3.5,3.5 0 0 0 -0.84375,0.34961 3.5,3.5 0 0 0 -0.90625,0.11914 3.5,3.5 0 0 0 -0.28906,0.375 3.5,3.5 0 0 0 -0.78516,1.02343 3.5,3.5 0 0 0 -0.49414,1.19532 3.5,3.5 0 0 0 -0.18164,0.4375 3.5,3.5 0 0 0 0.34961,0.84375 3.5,3.5 0 0 0 0.11914,0.90625 l 25,43.30078 a 3.50035,3.50035 0 0 0 6.0625,0 l 25,-43.30078 A 3.50035,3.50035 0 0 0 450,342.91016 Z m 6.0625,7 h 37.875 L 425,382.71094 Z M 450,300.10937 a 3,3 0 0 0 -3,3 v 12.70118 l -11,6.35156 a 3,3 0 0 0 -1.09766,4.09766 3,3 0 0 0 4.09766,1.09765 l 11,-6.35156 11,6.35156 a 3.0003,3.0003 0 0 0 3,-5.19531 l -11,-6.35156 v -12.70118 a 3,3 0 0 0 -3,-3 z m -25,-0.5 a 3.5,3.5 0 0 0 -0.84375,0.34961 3.5,3.5 0 0 0 -0.90625,0.11914 3.5,3.5 0 0 0 -0.28906,0.375 3.5,3.5 0 0 0 -0.78516,1.02344 3.5,3.5 0 0 0 -0.49414,1.19531 3.5,3.5 0 0 0 -0.18164,0.4375 3.5,3.5 0 0 0 0.34961,0.84375 3.5,3.5 0 0 0 0.11914,0.90625 l 25,43.30079 a 3.50035,3.50035 0 0 0 6.0625,0 l 25,-43.30079 A 3.50035,3.50035 0 0 0 475,299.60937 Z m 6.0625,7 h 37.875 L 450,339.41016 Z m 30.66016,15.25196 a 3,3 0 0 0 -1.82032,1.39844 3,3 0 0 0 1.09766,4.09765 l 11,6.35156 v 12.70118 a 3.0003,3.0003 0 0 0 6,0 v -12.70118 l 11,-6.35156 a 3,3 0 0 0 1.09766,-4.09765 A 3,3 0 0 0 486,322.16211 l -11,6.35156 -11,-6.35156 a 3,3 0 0 0 -2.27734,-0.30078 z m 12.37109,-22.13281 a 3.5,3.5 0 0 0 -0.375,0.2871 3.5,3.5 0 0 0 -0.46875,0.0625 3.5,3.5 0 0 0 -0.55664,0.72461 3.5,3.5 0 0 0 -0.72461,0.55664 l -25,43.30079 a 3.50035,3.50035 0 0 0 3.03125,5.25 h 50 a 3.50035,3.50035 0 0 0 3.03125,-5.25 l -25,-43.30079 a 3.5,3.5 0 0 0 -0.10742,-0.082 3.5,3.5 0 0 0 -1.17383,-1.19922 3.5,3.5 0 0 0 -0.46875,-0.0625 A 3.5,3.5 0 0 0 475,299.84766 3.5,3.5 0 0 0 474.09375,299.72852 Z M 475,310.10937 l 18.9375,32.80079 h -37.875 z m 0,33.30079 a 3,3 0 0 0 -3,3 v 12.70117 l -11,6.35156 a 3,3 0 0 0 -1.09766,4.09766 A 3,3 0 0 0 464,370.6582 l 11,-6.34961 11,6.34961 a 3.0003,3.0003 0 0 0 3,-5.19531 l -11,-6.35156 v -12.70117 a 3,3 0 0 0 -3,-3 z m -25,-0.5 a 3.5,3.5 0 0 0 -0.84375,0.34961 3.5,3.5 0 0 0 -0.90625,0.11914 3.5,3.5 0 0 0 -0.28906,0.375 3.5,3.5 0 0 0 -0.78516,1.02343 3.5,3.5 0 0 0 -0.49414,1.19532 3.5,3.5 0 0 0 -0.18164,0.4375 3.5,3.5 0 0 0 0.34961,0.84375 3.5,3.5 0 0 0 0.11914,0.90625 l 25,43.30078 a 3.50035,3.50035 0 0 0 6.0625,0 l 25,-43.30078 A 3.50035,3.50035 0 0 0 500,342.91016 Z m 6.0625,7 h 37.875 L 475,382.71094 Z m -19.33984,15.25195 a 3,3 0 0 0 -1.82032,1.39844 A 3,3 0 0 0 436,370.6582 l 11,6.35157 v 12.70117 a 3.0003,3.0003 0 0 0 6,0 v -12.70117 l 11,-6.35157 a 3,3 0 0 0 1.09766,-4.09765 A 3,3 0 0 0 461,365.46289 l -11,6.35156 -11,-6.35156 a 3,3 0 0 0 -2.27734,-0.30078 z m 12.37109,-22.13281 a 3.5,3.5 0 0 0 -0.375,0.28711 3.5,3.5 0 0 0 -0.46875,0.0625 3.5,3.5 0 0 0 -0.55664,0.72461 3.5,3.5 0 0 0 -0.72461,0.55664 l -25,43.30078 a 3.50035,3.50035 0 0 0 3.03125,5.25 h 50 a 3.50035,3.50035 0 0 0 3.03125,-5.25 l -25,-43.30078 a 3.5,3.5 0 0 0 -0.10742,-0.082 3.5,3.5 0 0 0 -1.17383,-1.19921 3.5,3.5 0 0 0 -0.46875,-0.0625 A 3.5,3.5 0 0 0 450,343.14844 3.5,3.5 0 0 0 449.09375,343.0293 Z M 450,353.41016 l 18.9375,32.80078 h -37.875 z m -125,33.30078 a 3,3 0 0 0 -3,3 v 27.13476 0.002 l -23.5,13.5664 a 3.0004839,3.0004839 0 0 0 3,5.19727 l 23.5,-13.56836 23.5,13.56836 a 3,3 0 0 0 4.09766,-1.09766 A 3,3 0 0 0 351.5,430.41406 L 328,416.8457 v -27.13476 a 3,3 0 0 0 -3,-3 z m -0.90625,-0.38086 a 3.5,3.5 0 0 0 -0.375,0.28711 3.5,3.5 0 0 0 -0.46875,0.0625 3.5,3.5 0 0 0 -0.55664,0.72461 3.5,3.5 0 0 0 -0.72461,0.55664 l -25,43.30273 a 3.50035,3.50035 0 0 0 3.03125,5.25 h 50 a 3.50035,3.50035 0 0 0 3.03125,-5.25 l -25,-43.30273 a 3.5,3.5 0 0 0 -0.10742,-0.082 3.5,3.5 0 0 0 -1.17383,-1.19922 3.5,3.5 0 0 0 -0.46875,-0.0625 3.5,3.5 0 0 0 -1.28125,-0.168 3.5,3.5 0 0 0 -0.90625,-0.11914 z M 325,396.71094 l 18.9375,32.80273 h -37.875 z m -25.77734,33.40429 a 3,3 0 0 0 -1.82032,1.39844 3,3 0 0 0 1.09766,4.09766 l 23.5,13.56836 v 27.13476 a 3,3 0 0 0 3,3 3,3 0 0 0 3,-3 v -27.13476 -0.002 l 23.5,-13.5664 a 3.0004839,3.0004839 0 0 0 -3,-5.19727 l -23.5,13.5684 -23.5,-13.56836 a 3,3 0 0 0 -2.27734,-0.29883 z M 300,429.51367 a 3.5,3.5 0 0 0 -0.8457,0.34961 3.5,3.5 0 0 0 -0.9043,0.11914 3.5,3.5 0 0 0 -0.28711,0.37305 3.5,3.5 0 0 0 -0.78711,1.02734 3.5,3.5 0 0 0 -0.49414,1.19336 3.5,3.5 0 0 0 -0.18164,0.4375 3.5,3.5 0 0 0 0.34961,0.84375 3.5,3.5 0 0 0 0.11914,0.90625 l 25,43.30078 a 3.50035,3.50035 0 0 0 6.0625,0 l 25,-43.30078 A 3.50035,3.50035 0 0 0 350,429.51367 Z m 6.0625,7 h 37.875 L 325,469.31445 Z m 368.16016,210.10742 a 3,3 0 0 0 -1.82032,1.39844 3,3 0 0 0 1.09766,4.09766 l 23.5,13.56836 v 27.13476 a 3,3 0 0 0 3,3 3,3 0 0 0 3,-3 v -27.13476 l 23.5,-13.56836 a 3.0003,3.0003 0 0 0 -3,-5.19532 L 700,660.48828 676.5,646.92187 a 3,3 0 0 0 -2.27734,-0.30078 z M 675,646.01953 a 3.5,3.5 0 0 0 -0.84375,0.34961 3.5,3.5 0 0 0 -0.90625,0.11914 3.5,3.5 0 0 0 -0.28906,0.375 3.5,3.5 0 0 0 -0.78516,1.02344 3.5,3.5 0 0 0 -0.49414,1.19531 3.5,3.5 0 0 0 -0.18164,0.4375 3.5,3.5 0 0 0 0.34961,0.84375 3.5,3.5 0 0 0 0.11914,0.90625 l 25,43.30078 a 3.50035,3.50035 0 0 0 6.0625,0 l 25,-43.30078 A 3.50035,3.50035 0 0 0 725,646.01953 Z m 6.0625,7 h 37.875 L 700,685.82031 Z M 750,603.21875 a 3,3 0 0 0 -3,3 v 27.13281 l -23.5,13.57031 a 3,3 0 0 0 -1.09766,4.09766 3,3 0 0 0 4.09766,1.09766 l 23.5,-13.56836 23.5,13.56836 a 3.0003,3.0003 0 0 0 3,-5.19532 L 753,633.35352 v -0.002 -27.13281 a 3,3 0 0 0 -3,-3 z m -0.90625,-0.38086 a 3.5,3.5 0 0 0 -0.375,0.28711 3.5,3.5 0 0 0 -0.46875,0.0625 3.5,3.5 0 0 0 -0.55664,0.72461 3.5,3.5 0 0 0 -0.72461,0.55664 l -25,43.30078 a 3.50035,3.50035 0 0 0 3.03125,5.25 h 50 a 3.50035,3.50035 0 0 0 3.03125,-5.25 l -25,-43.30078 a 3.5,3.5 0 0 0 -0.10742,-0.082 A 3.5,3.5 0 0 0 751.75,603.1875 3.5,3.5 0 0 0 751.28125,603.125 3.5,3.5 0 0 0 750,602.95703 3.5,3.5 0 0 0 749.09375,602.83789 Z M 750,613.21875 l 18.9375,32.80078 h -37.875 z m -25.77734,-53.19922 a 3,3 0 0 0 -1.82032,1.39649 3,3 0 0 0 1.09766,4.09765 l 23.5,13.57031 v 27.13477 a 3,3 0 0 0 3,3 3,3 0 0 0 3,-3 v -27.13477 -0.002 l 23.5,-13.56836 a 3.0003,3.0003 0 0 0 -3,-5.19531 L 750,573.88672 726.5,560.31836 a 3,3 0 0 0 -2.27734,-0.29883 z M 725,559.41602 a 3.5,3.5 0 0 0 -0.84375,0.3496 3.5,3.5 0 0 0 -0.90625,0.11915 3.5,3.5 0 0 0 -0.28906,0.375 3.5,3.5 0 0 0 -0.78516,1.02343 3.5,3.5 0 0 0 -0.49414,1.19532 3.5,3.5 0 0 0 -0.18164,0.4375 3.5,3.5 0 0 0 0.34961,0.84375 3.5,3.5 0 0 0 0.11914,0.90625 l 25,43.30273 a 3.50035,3.50035 0 0 0 6.0625,0 l 25,-43.30273 A 3.50035,3.50035 0 0 0 775,559.41602 Z m 6.0625,7 h 37.875 L 750,599.21875 Z M 750,430.01367 a 3,3 0 0 0 -3,3 v 27.13281 l -23.5,13.57032 a 3,3 0 0 0 -1.09766,4.09765 3,3 0 0 0 4.09766,1.09766 l 23.5,-13.56836 23.5,13.56836 a 3.0003,3.0003 0 0 0 3,-5.19531 L 753,460.14844 v -0.002 -27.13281 a 3,3 0 0 0 -3,-3 z m -0.90625,-0.38086 a 3.5,3.5 0 0 0 -0.375,0.28711 3.5,3.5 0 0 0 -0.46875,0.0625 3.5,3.5 0 0 0 -0.55664,0.72461 3.5,3.5 0 0 0 -0.72461,0.55664 l -25,43.30078 a 3.50035,3.50035 0 0 0 3.03125,5.25 h 50 a 3.50035,3.50035 0 0 0 3.03125,-5.25 l -25,-43.30078 a 3.5,3.5 0 0 0 -0.10742,-0.082 3.5,3.5 0 0 0 -1.17383,-1.19922 3.5,3.5 0 0 0 -0.46875,-0.0625 3.5,3.5 0 0 0 -1.28125,-0.168 3.5,3.5 0 0 0 -0.90625,-0.11914 z M 750,440.01367 l 18.9375,32.80078 h -37.875 z m -25.77734,-53.19922 a 3,3 0 0 0 -1.82032,1.39649 3,3 0 0 0 1.09766,4.09765 l 23.5,13.57032 v 27.13476 a 3,3 0 0 0 3,3 3,3 0 0 0 3,-3 v -27.13476 -0.002 l 23.5,-13.56836 a 3.0003,3.0003 0 0 0 -3,-5.19531 l -23.5,13.5684 -23.5,-13.56836 a 3,3 0 0 0 -2.27734,-0.29883 z M 725,386.21094 a 3.5,3.5 0 0 0 -0.84375,0.34961 3.5,3.5 0 0 0 -0.90625,0.11914 3.5,3.5 0 0 0 -0.28906,0.375 3.5,3.5 0 0 0 -0.78516,1.02343 3.5,3.5 0 0 0 -0.49414,1.19532 3.5,3.5 0 0 0 -0.18164,0.4375 3.5,3.5 0 0 0 0.34961,0.84375 3.5,3.5 0 0 0 0.11914,0.90625 l 25,43.30273 a 3.50035,3.50035 0 0 0 6.0625,0 l 25,-43.30273 A 3.50035,3.50035 0 0 0 775,386.21094 Z m 6.0625,7 h 37.875 L 750,426.01367 Z M 700,343.41016 a 3,3 0 0 0 -3,3 v 27.13476 l -23.5,13.56836 a 3,3 0 0 0 -1.09766,4.09766 3,3 0 0 0 4.09766,1.09765 l 23.5,-13.5664 23.5,13.5664 a 3.0003,3.0003 0 0 0 3,-5.19531 L 703,373.54492 v -27.13476 a 3,3 0 0 0 -3,-3 z m -0.90625,-0.38086 a 3.5,3.5 0 0 0 -0.375,0.28711 3.5,3.5 0 0 0 -0.46875,0.0625 3.5,3.5 0 0 0 -0.55664,0.72461 3.5,3.5 0 0 0 -0.72461,0.55664 l -25,43.30078 a 3.50035,3.50035 0 0 0 3.03125,5.25 h 50 a 3.50035,3.50035 0 0 0 3.03125,-5.25 l -25,-43.30078 a 3.5,3.5 0 0 0 -0.10742,-0.082 3.5,3.5 0 0 0 -1.17383,-1.19921 3.5,3.5 0 0 0 -0.46875,-0.0625 A 3.5,3.5 0 0 0 700,343.14844 3.5,3.5 0 0 0 699.09375,343.0293 Z M 700,353.41016 l 18.9375,32.80078 h -37.875 z M 574.22266,300.21094 a 3,3 0 0 0 -1.82032,1.39843 3,3 0 0 0 1.09766,4.09766 l 23.5,13.56836 v 27.13477 a 3,3 0 0 0 3,3 3,3 0 0 0 3,-3 v -27.13477 l 23.5,-13.56836 a 3.0003,3.0003 0 0 0 -3,-5.19531 l -23.5,13.5664 -23.5,-13.5664 a 3,3 0 0 0 -2.27734,-0.30078 z M 575,299.60937 a 3.5,3.5 0 0 0 -0.84375,0.34961 3.5,3.5 0 0 0 -0.90625,0.11914 3.5,3.5 0 0 0 -0.28906,0.375 3.5,3.5 0 0 0 -0.78516,1.02344 3.5,3.5 0 0 0 -0.49414,1.19531 3.5,3.5 0 0 0 -0.18164,0.4375 3.5,3.5 0 0 0 0.34961,0.84375 3.5,3.5 0 0 0 0.11914,0.90625 l 25,43.30079 a 3.50035,3.50035 0 0 0 6.0625,0 l 25,-43.30079 A 3.50035,3.50035 0 0 0 625,299.60937 Z m 6.0625,7 h 37.875 L 600,339.41016 Z M 550,256.80859 a 3,3 0 0 0 -3,3 v 27.13282 l -23.5,13.57031 a 3,3 0 0 0 -1.09766,4.09765 3,3 0 0 0 4.09766,1.09766 l 23.5,-13.56836 23.5,13.56836 a 3.0003,3.0003 0 0 0 3,-5.19531 L 553,286.94336 v -0.002 -27.13282 a 3,3 0 0 0 -3,-3 z m -0.90625,-0.38086 a 3.5,3.5 0 0 0 -0.375,0.28711 3.5,3.5 0 0 0 -0.46875,0.0625 3.5,3.5 0 0 0 -0.55664,0.72461 3.5,3.5 0 0 0 -0.72461,0.55664 l -25,43.30078 a 3.50035,3.50035 0 0 0 3.03125,5.25 h 50 a 3.50035,3.50035 0 0 0 3.03125,-5.25 l -25,-43.30078 a 3.5,3.5 0 0 0 -0.10742,-0.082 3.5,3.5 0 0 0 -1.17383,-1.19922 3.5,3.5 0 0 0 -0.46875,-0.0625 3.5,3.5 0 0 0 -1.28125,-0.168 3.5,3.5 0 0 0 -0.90625,-0.11914 z M 550,266.80859 l 18.9375,32.80078 h -37.875 z m -75.77734,33.40235 a 3,3 0 0 0 -1.82032,1.39843 3,3 0 0 0 1.09766,4.09766 l 23.5,13.56836 v 27.13477 a 3,3 0 0 0 3,3 3,3 0 0 0 3,-3 v -27.13477 l 23.5,-13.56836 a 3.0003,3.0003 0 0 0 -3,-5.19531 l -23.5,13.5664 -23.5,-13.5664 a 3,3 0 0 0 -2.27734,-0.30078 z M 475,299.60937 a 3.5,3.5 0 0 0 -0.84375,0.34961 3.5,3.5 0 0 0 -0.90625,0.11914 3.5,3.5 0 0 0 -0.28906,0.375 3.5,3.5 0 0 0 -0.78516,1.02344 3.5,3.5 0 0 0 -0.49414,1.19531 3.5,3.5 0 0 0 -0.18164,0.4375 3.5,3.5 0 0 0 0.34961,0.84375 3.5,3.5 0 0 0 0.11914,0.90625 l 25,43.30079 a 3.50035,3.50035 0 0 0 6.0625,0 l 25,-43.30079 A 3.50035,3.50035 0 0 0 525,299.60937 Z m 6.0625,7 h 37.875 L 500,339.41016 Z M 350,430.01367 a 3,3 0 0 0 -3,3 v 27.13281 l -23.5,13.57032 a 3,3 0 0 0 -1.09766,4.09765 3,3 0 0 0 4.09766,1.09766 l 23.5,-13.56836 23.5,13.56836 a 3.0003,3.0003 0 0 0 3,-5.19531 L 353,460.14844 v -0.002 -27.13281 a 3,3 0 0 0 -3,-3 z m -0.90625,-0.38086 a 3.5,3.5 0 0 0 -0.375,0.28711 3.5,3.5 0 0 0 -0.46875,0.0625 3.5,3.5 0 0 0 -0.55664,0.72461 3.5,3.5 0 0 0 -0.72461,0.55664 l -25,43.30078 a 3.50035,3.50035 0 0 0 3.03125,5.25 h 50 a 3.50035,3.50035 0 0 0 3.03125,-5.25 l -25,-43.30078 a 3.5,3.5 0 0 0 -0.10742,-0.082 3.5,3.5 0 0 0 -1.17383,-1.19922 3.5,3.5 0 0 0 -0.46875,-0.0625 3.5,3.5 0 0 0 -1.28125,-0.168 3.5,3.5 0 0 0 -0.90625,-0.11914 z M 350,440.01367 l 18.9375,32.80078 h -37.875 z m -25.77734,-53.19922 a 3,3 0 0 0 -1.82032,1.39649 3,3 0 0 0 1.09766,4.09765 l 23.5,13.57032 v 27.13476 a 3,3 0 0 0 3,3 3,3 0 0 0 3,-3 v -27.13476 -0.002 l 23.5,-13.56836 a 3.0003,3.0003 0 0 0 -3,-5.19531 l -23.5,13.5684 -23.5,-13.56836 a 3,3 0 0 0 -2.27734,-0.29883 z M 325,386.21094 a 3.5,3.5 0 0 0 -0.84375,0.34961 3.5,3.5 0 0 0 -0.90625,0.11914 3.5,3.5 0 0 0 -0.28906,0.375 3.5,3.5 0 0 0 -0.78516,1.02343 3.5,3.5 0 0 0 -0.49414,1.19532 3.5,3.5 0 0 0 -0.18164,0.4375 3.5,3.5 0 0 0 0.34961,0.84375 3.5,3.5 0 0 0 0.11914,0.90625 l 25,43.30273 a 3.50035,3.50035 0 0 0 6.0625,0 l 25,-43.30273 A 3.50035,3.50035 0 0 0 375,386.21094 Z m 6.0625,7 h 37.875 L 350,426.01367 Z M 400,343.41016 a 3,3 0 0 0 -3,3 v 27.13476 l -23.5,13.56836 a 3.0003,3.0003 0 0 0 3,5.19531 l 23.5,-13.5664 23.5,13.5664 a 3,3 0 0 0 4.09766,-1.09765 A 3,3 0 0 0 426.5,387.11328 L 403,373.54492 v -27.13476 a 3,3 0 0 0 -3,-3 z m -0.90625,-0.38086 a 3.5,3.5 0 0 0 -0.375,0.28711 3.5,3.5 0 0 0 -0.46875,0.0625 3.5,3.5 0 0 0 -0.55664,0.72461 3.5,3.5 0 0 0 -0.72461,0.55664 l -25,43.30078 a 3.50035,3.50035 0 0 0 3.03125,5.25 h 50 a 3.50035,3.50035 0 0 0 3.03125,-5.25 l -25,-43.30078 a 3.5,3.5 0 0 0 -0.10742,-0.082 3.5,3.5 0 0 0 -1.17383,-1.19921 3.5,3.5 0 0 0 -0.46875,-0.0625 A 3.5,3.5 0 0 0 400,343.14844 3.5,3.5 0 0 0 399.09375,343.0293 Z M 400,353.41016 l 18.9375,32.80078 h -37.875 z m 99.22266,163.30664 a 3,3 0 0 0 -1.82032,1.39843 3,3 0 0 0 1.09766,4.09766 l 23.5,13.56836 v 27.13477 a 3,3 0 0 0 3,3 3,3 0 0 0 3,-3 v -27.13477 l 23.5,-13.56836 a 3.0003,3.0003 0 0 0 -3,-5.19531 l -23.5,13.5664 -23.5,-13.5664 a 3,3 0 0 0 -2.27734,-0.30078 z M 500,516.11523 a 3.5,3.5 0 0 0 -0.84375,0.34961 3.5,3.5 0 0 0 -0.90625,0.11914 3.5,3.5 0 0 0 -0.28906,0.375 3.5,3.5 0 0 0 -0.78516,1.02344 3.5,3.5 0 0 0 -0.49414,1.19531 3.5,3.5 0 0 0 -0.18164,0.4375 3.5,3.5 0 0 0 0.34961,0.84375 3.5,3.5 0 0 0 0.11914,0.90625 l 25,43.30079 a 3.50035,3.50035 0 0 0 6.0625,0 l 25,-43.30079 A 3.50035,3.50035 0 0 0 550,516.11523 Z m 6.0625,7 h 37.875 L 525,555.91602 Z m 43.9375,-6.5 a 3,3 0 0 0 -3,3 V 546.75 l -23.5,13.56836 a 3.0003,3.0003 0 0 0 3,5.19531 l 23.5,-13.5664 23.5,13.5664 a 3,3 0 0 0 4.09766,-1.09765 A 3,3 0 0 0 576.5,560.31836 L 553,546.75 v -27.13477 a 3,3 0 0 0 -3,-3 z m -0.90625,-0.38086 a 3.5,3.5 0 0 0 -0.375,0.28711 3.5,3.5 0 0 0 -0.46875,0.0625 3.5,3.5 0 0 0 -0.55664,0.72461 3.5,3.5 0 0 0 -0.72461,0.55664 l -25,43.30079 a 3.50035,3.50035 0 0 0 3.03125,5.25 h 50 a 3.50035,3.50035 0 0 0 3.03125,-5.25 l -25,-43.30079 a 3.5,3.5 0 0 0 -0.10742,-0.082 3.5,3.5 0 0 0 -1.17383,-1.19922 3.5,3.5 0 0 0 -0.46875,-0.0625 A 3.5,3.5 0 0 0 550,516.35352 3.5,3.5 0 0 0 549.09375,516.23437 Z M 550,526.61523 l 18.9375,32.80079 h -37.875 z m -0.77734,-9.89843 a 3,3 0 0 0 -1.82032,1.39843 3,3 0 0 0 1.09766,4.09766 l 23.5,13.56836 v 27.13477 a 3,3 0 0 0 3,3 3,3 0 0 0 3,-3 v -27.13477 l 23.5,-13.56836 a 3.0003,3.0003 0 0 0 -3,-5.19531 l -23.5,13.5664 -23.5,-13.5664 a 3,3 0 0 0 -2.27734,-0.30078 z M 550,516.11523 a 3.5,3.5 0 0 0 -0.84375,0.34961 3.5,3.5 0 0 0 -0.90625,0.11914 3.5,3.5 0 0 0 -0.28906,0.375 3.5,3.5 0 0 0 -0.78516,1.02344 3.5,3.5 0 0 0 -0.49414,1.19531 3.5,3.5 0 0 0 -0.18164,0.4375 3.5,3.5 0 0 0 0.34961,0.84375 3.5,3.5 0 0 0 0.11914,0.90625 l 25,43.30079 a 3.50035,3.50035 0 0 0 6.0625,0 l 25,-43.30079 A 3.50035,3.50035 0 0 0 600,516.11523 Z m 6.0625,7 h 37.875 L 575,555.91602 Z M 575,473.31445 a 3,3 0 0 0 -3,3 v 27.13477 l -23.5,13.56836 a 3.0003,3.0003 0 0 0 3,5.19531 l 23.5,-13.56641 23.5,13.56641 a 3,3 0 0 0 4.09766,-1.09766 A 3,3 0 0 0 601.5,517.01758 L 578,503.44922 v -27.13477 a 3,3 0 0 0 -3,-3 z m -0.90625,-0.38086 a 3.5,3.5 0 0 0 -0.375,0.28711 3.5,3.5 0 0 0 -0.46875,0.0625 3.5,3.5 0 0 0 -0.55664,0.72461 3.5,3.5 0 0 0 -0.72461,0.55664 l -25,43.30078 a 3.50035,3.50035 0 0 0 3.03125,5.25 h 50 a 3.50035,3.50035 0 0 0 3.03125,-5.25 l -25,-43.30078 a 3.5,3.5 0 0 0 -0.10742,-0.082 A 3.5,3.5 0 0 0 576.75,473.2832 3.5,3.5 0 0 0 576.28125,473.2207 3.5,3.5 0 0 0 575,473.05273 3.5,3.5 0 0 0 574.09375,472.93359 Z M 575,483.31445 l 18.9375,32.80078 h -37.875 z m -50.77734,-9.89843 a 3,3 0 0 0 -1.82032,1.39843 3,3 0 0 0 1.09766,4.09766 l 23.5,13.56836 v 27.13476 a 3,3 0 0 0 3,3 3,3 0 0 0 3,-3 v -27.13476 l 23.5,-13.56836 a 3.0003,3.0003 0 0 0 -3,-5.19531 L 550,487.2832 526.5,473.7168 a 3,3 0 0 0 -2.27734,-0.30078 z M 525,472.81445 a 3.5,3.5 0 0 0 -0.84375,0.34961 3.5,3.5 0 0 0 -0.90625,0.11914 3.5,3.5 0 0 0 -0.28906,0.375 3.5,3.5 0 0 0 -0.78516,1.02344 3.5,3.5 0 0 0 -0.49414,1.19531 3.5,3.5 0 0 0 -0.18164,0.4375 3.5,3.5 0 0 0 0.34961,0.84375 3.5,3.5 0 0 0 0.11914,0.90625 l 25,43.30078 a 3.50035,3.50035 0 0 0 6.0625,0 l 25,-43.30078 A 3.50035,3.50035 0 0 0 575,472.81445 Z m 6.0625,7 h 37.875 L 550,512.61523 Z m -6.0625,-6.5 a 3,3 0 0 0 -3,3 v 27.13477 l -23.5,13.56836 a 3,3 0 0 0 -1.09766,4.09765 3,3 0 0 0 4.09766,1.09766 l 23.5,-13.56641 23.5,13.56641 a 3.0003,3.0003 0 0 0 3,-5.19531 L 528,503.44922 v -27.13477 a 3,3 0 0 0 -3,-3 z m -0.90625,-0.38086 a 3.5,3.5 0 0 0 -0.375,0.28711 3.5,3.5 0 0 0 -0.46875,0.0625 3.5,3.5 0 0 0 -0.55664,0.72461 3.5,3.5 0 0 0 -0.72461,0.55664 l -25,43.30078 a 3.50035,3.50035 0 0 0 3.03125,5.25 h 50 a 3.50035,3.50035 0 0 0 3.03125,-5.25 l -25,-43.30078 a 3.5,3.5 0 0 0 -0.10742,-0.082 A 3.5,3.5 0 0 0 526.75,473.2832 3.5,3.5 0 0 0 526.28125,473.2207 3.5,3.5 0 0 0 525,473.05273 3.5,3.5 0 0 0 524.09375,472.93359 Z M 525,483.31445 l 18.9375,32.80078 h -37.875 z m -0.77734,163.30664 a 3,3 0 0 0 -1.82032,1.39844 3,3 0 0 0 1.09766,4.09766 l 23.5,13.56836 v 27.13476 a 3,3 0 0 0 3,3 3,3 0 0 0 3,-3 v -27.13476 l 23.5,-13.56836 a 3.0003,3.0003 0 0 0 -3,-5.19532 L 550,660.48828 526.5,646.92187 a 3,3 0 0 0 -2.27734,-0.30078 z M 525,646.01953 a 3.5,3.5 0 0 0 -0.84375,0.34961 3.5,3.5 0 0 0 -0.90625,0.11914 3.5,3.5 0 0 0 -0.28906,0.375 3.5,3.5 0 0 0 -0.78516,1.02344 3.5,3.5 0 0 0 -0.49414,1.19531 3.5,3.5 0 0 0 -0.18164,0.4375 3.5,3.5 0 0 0 0.34961,0.84375 3.5,3.5 0 0 0 0.11914,0.90625 l 25,43.30078 a 3.50035,3.50035 0 0 0 6.0625,0 l 25,-43.30078 A 3.50035,3.50035 0 0 0 575,646.01953 Z m 6.0625,7 h 37.875 L 550,685.82031 Z m 43.9375,-6.5 a 3,3 0 0 0 -3,3 v 27.13477 l -23.5,13.56836 a 3,3 0 0 0 -1.09766,4.09765 3,3 0 0 0 4.09766,1.09766 l 23.5,-13.56641 23.5,13.56641 a 3.0003,3.0003 0 0 0 3,-5.19531 L 578,676.6543 v -27.13477 a 3,3 0 0 0 -3,-3 z m -0.90625,-0.38086 a 3.5,3.5 0 0 0 -0.375,0.28711 3.5,3.5 0 0 0 -0.46875,0.0625 3.5,3.5 0 0 0 -0.55664,0.72461 3.5,3.5 0 0 0 -0.72461,0.55664 l -25,43.30078 a 3.50035,3.50035 0 0 0 3.03125,5.25 h 50 a 3.50035,3.50035 0 0 0 3.03125,-5.25 l -25,-43.30078 a 3.5,3.5 0 0 0 -0.10742,-0.082 3.5,3.5 0 0 0 -1.17383,-1.19922 3.5,3.5 0 0 0 -0.46875,-0.0625 3.5,3.5 0 0 0 -1.28125,-0.168 3.5,3.5 0 0 0 -0.90625,-0.11914 z M 575,656.51953 l 18.9375,32.80078 h -37.875 z M 425,559.91602 a 3,3 0 0 0 -3,3 v 27.13476 l -23.5,13.56836 a 3,3 0 0 0 -1.09766,4.09961 3,3 0 0 0 4.09766,1.09766 l 23.5,-13.56836 23.5,13.56836 a 3.0004839,3.0004839 0 0 0 3,-5.19727 L 428,590.05273 v -0.002 -27.13476 a 3,3 0 0 0 -3,-3 z m -0.90625,-0.38086 a 3.5,3.5 0 0 0 -0.375,0.28711 3.5,3.5 0 0 0 -0.46875,0.0625 3.5,3.5 0 0 0 -0.55664,0.7246 3.5,3.5 0 0 0 -0.72461,0.55665 l -25,43.30273 a 3.50035,3.50035 0 0 0 3.03125,5.25 h 50 a 3.50035,3.50035 0 0 0 3.03125,-5.25 l -25,-43.30273 a 3.5,3.5 0 0 0 -0.10742,-0.082 3.5,3.5 0 0 0 -1.17383,-1.19921 3.5,3.5 0 0 0 -0.46875,-0.0625 A 3.5,3.5 0 0 0 425,559.6543 3.5,3.5 0 0 0 424.09375,559.53516 Z M 425,569.91602 l 18.9375,32.80273 h -37.875 z m -50.77734,-9.89649 a 3,3 0 0 0 -1.82032,1.39649 3,3 0 0 0 1.09766,4.09765 l 23.5,13.57031 v 27.13477 a 3,3 0 0 0 3,3 3,3 0 0 0 3,-3 v -27.13477 -0.002 l 23.5,-13.56836 a 3.0003,3.0003 0 0 0 -3,-5.19531 L 400,573.88672 376.5,560.31836 a 3,3 0 0 0 -2.27734,-0.29883 z M 375,559.41602 a 3.5,3.5 0 0 0 -0.84375,0.3496 3.5,3.5 0 0 0 -0.90625,0.11915 3.5,3.5 0 0 0 -0.28906,0.375 3.5,3.5 0 0 0 -0.78516,1.02343 3.5,3.5 0 0 0 -0.49414,1.19532 3.5,3.5 0 0 0 -0.18164,0.4375 3.5,3.5 0 0 0 0.34961,0.84375 3.5,3.5 0 0 0 0.11914,0.90625 l 25,43.30273 a 3.50035,3.50035 0 0 0 6.0625,0 l 25,-43.30273 A 3.50035,3.50035 0 0 0 425,559.41602 Z m 6.0625,7 h 37.875 L 400,599.21875 Z M 349.22266,516.7168 a 3,3 0 0 0 -1.82032,1.39843 3,3 0 0 0 1.09766,4.09766 l 23.5,13.56836 v 27.13477 a 3,3 0 0 0 3,3 3,3 0 0 0 3,-3 v -27.13477 l 23.5,-13.56836 a 3.0003,3.0003 0 0 0 -3,-5.19531 l -23.5,13.5664 -23.5,-13.5664 a 3,3 0 0 0 -2.27734,-0.30078 z M 350,516.11523 a 3.5,3.5 0 0 0 -0.84375,0.34961 3.5,3.5 0 0 0 -0.90625,0.11914 3.5,3.5 0 0 0 -0.28906,0.375 3.5,3.5 0 0 0 -0.78516,1.02344 3.5,3.5 0 0 0 -0.49414,1.19531 3.5,3.5 0 0 0 -0.18164,0.4375 3.5,3.5 0 0 0 0.34961,0.84375 3.5,3.5 0 0 0 0.11914,0.90625 l 25,43.30079 a 3.50035,3.50035 0 0 0 6.0625,0 l 25,-43.30079 A 3.50035,3.50035 0 0 0 400,516.11523 Z m 6.0625,7 h 37.875 L 375,555.91602 Z M 375,473.31445 a 3,3 0 0 0 -3,3 v 27.13477 l -23.5,13.56836 a 3.0003,3.0003 0 0 0 3,5.19531 l 23.5,-13.56641 23.5,13.56641 a 3,3 0 0 0 4.09766,-1.09766 A 3,3 0 0 0 401.5,517.01758 L 378,503.44922 v -27.13477 a 3,3 0 0 0 -3,-3 z m -0.90625,-0.38086 a 3.5,3.5 0 0 0 -0.375,0.28711 3.5,3.5 0 0 0 -0.46875,0.0625 3.5,3.5 0 0 0 -0.55664,0.72461 3.5,3.5 0 0 0 -0.72461,0.55664 l -25,43.30078 a 3.50035,3.50035 0 0 0 3.03125,5.25 h 50 a 3.50035,3.50035 0 0 0 3.03125,-5.25 l -25,-43.30078 a 3.5,3.5 0 0 0 -0.10742,-0.082 A 3.5,3.5 0 0 0 376.75,473.2832 3.5,3.5 0 0 0 376.28125,473.2207 3.5,3.5 0 0 0 375,473.05273 3.5,3.5 0 0 0 374.09375,472.93359 Z M 375,483.31445 l 18.9375,32.80078 h -37.875 z m 25,-53.30078 a 3,3 0 0 0 -3,3 v 27.13281 0.002 l -23.5,13.56836 a 3.0003,3.0003 0 0 0 3,5.19531 l 23.5,-13.56836 23.5,13.56836 a 3,3 0 0 0 4.09766,-1.09766 A 3,3 0 0 0 426.5,473.7168 L 403,460.14648 v -27.13281 a 3,3 0 0 0 -3,-3 z m -0.90625,-0.38086 a 3.5,3.5 0 0 0 -0.375,0.28711 3.5,3.5 0 0 0 -0.46875,0.0625 3.5,3.5 0 0 0 -0.55664,0.72461 3.5,3.5 0 0 0 -0.72461,0.55664 l -25,43.30078 a 3.50035,3.50035 0 0 0 3.03125,5.25 h 50 a 3.50035,3.50035 0 0 0 3.03125,-5.25 l -25,-43.30078 a 3.5,3.5 0 0 0 -0.10742,-0.082 3.5,3.5 0 0 0 -1.17383,-1.19922 3.5,3.5 0 0 0 -0.46875,-0.0625 3.5,3.5 0 0 0 -1.28125,-0.168 3.5,3.5 0 0 0 -0.90625,-0.11914 z M 400,440.01367 l 18.9375,32.80078 h -37.875 z m 25,-53.30273 a 3,3 0 0 0 -3,3 v 27.13476 0.002 l -23.5,13.5664 a 3.0004839,3.0004839 0 0 0 3,5.19727 l 23.5,-13.56836 23.5,13.56836 a 3,3 0 0 0 4.09766,-1.09766 A 3,3 0 0 0 451.5,430.41406 L 428,416.8457 v -27.13476 a 3,3 0 0 0 -3,-3 z m -0.90625,-0.38086 a 3.5,3.5 0 0 0 -0.375,0.28711 3.5,3.5 0 0 0 -0.46875,0.0625 3.5,3.5 0 0 0 -0.55664,0.72461 3.5,3.5 0 0 0 -0.72461,0.55664 l -25,43.30273 a 3.50035,3.50035 0 0 0 3.03125,5.25 h 50 a 3.50035,3.50035 0 0 0 3.03125,-5.25 l -25,-43.30273 a 3.5,3.5 0 0 0 -0.10742,-0.082 3.5,3.5 0 0 0 -1.17383,-1.19922 3.5,3.5 0 0 0 -0.46875,-0.0625 3.5,3.5 0 0 0 -1.28125,-0.168 3.5,3.5 0 0 0 -0.90625,-0.11914 z M 425,396.71094 l 18.9375,32.80273 h -37.875 z m 74.22266,-53.19922 a 3,3 0 0 0 -1.82032,1.39844 3,3 0 0 0 1.09766,4.09765 l 23.5,13.56836 v 27.13477 a 3,3 0 0 0 3,3 3,3 0 0 0 3,-3 v -27.13477 l 23.5,-13.56836 a 3.0003,3.0003 0 0 0 -3,-5.19531 L 525,357.37891 501.5,343.8125 a 3,3 0 0 0 -2.27734,-0.30078 z M 500,342.91016 a 3.5,3.5 0 0 0 -0.84375,0.34961 3.5,3.5 0 0 0 -0.90625,0.11914 3.5,3.5 0 0 0 -0.28906,0.375 3.5,3.5 0 0 0 -0.78516,1.02343 3.5,3.5 0 0 0 -0.49414,1.19532 3.5,3.5 0 0 0 -0.18164,0.4375 3.5,3.5 0 0 0 0.34961,0.84375 3.5,3.5 0 0 0 0.11914,0.90625 l 25,43.30078 a 3.50035,3.50035 0 0 0 6.0625,0 l 25,-43.30078 A 3.50035,3.50035 0 0 0 550,342.91016 Z m 6.0625,7 h 37.875 L 525,382.71094 Z m 43.16016,-6.39844 a 3,3 0 0 0 -1.82032,1.39844 3,3 0 0 0 1.09766,4.09765 l 23.5,13.56836 v 27.13477 a 3,3 0 0 0 3,3 3,3 0 0 0 3,-3 v -27.13477 l 23.5,-13.56836 a 3.0003,3.0003 0 0 0 -3,-5.19531 L 575,357.37891 551.5,343.8125 a 3,3 0 0 0 -2.27734,-0.30078 z M 550,342.91016 a 3.5,3.5 0 0 0 -0.84375,0.34961 3.5,3.5 0 0 0 -0.90625,0.11914 3.5,3.5 0 0 0 -0.28906,0.375 3.5,3.5 0 0 0 -0.78516,1.02343 3.5,3.5 0 0 0 -0.49414,1.19532 3.5,3.5 0 0 0 -0.18164,0.4375 3.5,3.5 0 0 0 0.34961,0.84375 3.5,3.5 0 0 0 0.11914,0.90625 l 25,43.30078 a 3.50035,3.50035 0 0 0 6.0625,0 l 25,-43.30078 A 3.50035,3.50035 0 0 0 600,342.91016 Z m 6.0625,7 h 37.875 L 575,382.71094 Z M 675,386.71094 a 3,3 0 0 0 -3,3 v 27.13476 l -23.5,13.56836 a 3,3 0 0 0 -1.09766,4.09961 3,3 0 0 0 4.09766,1.09766 l 23.5,-13.56836 23.5,13.56836 a 3.0004839,3.0004839 0 0 0 3,-5.19727 L 678,416.84766 v -0.002 -27.13476 a 3,3 0 0 0 -3,-3 z m -0.90625,-0.38086 a 3.5,3.5 0 0 0 -0.375,0.28711 3.5,3.5 0 0 0 -0.46875,0.0625 3.5,3.5 0 0 0 -0.55664,0.72461 3.5,3.5 0 0 0 -0.72461,0.55664 l -25,43.30273 a 3.50035,3.50035 0 0 0 3.03125,5.25 h 50 a 3.50035,3.50035 0 0 0 3.03125,-5.25 l -25,-43.30273 a 3.5,3.5 0 0 0 -0.10742,-0.082 3.5,3.5 0 0 0 -1.17383,-1.19922 3.5,3.5 0 0 0 -0.46875,-0.0625 3.5,3.5 0 0 0 -1.28125,-0.168 3.5,3.5 0 0 0 -0.90625,-0.11914 z M 675,396.71094 l 18.9375,32.80273 h -37.875 z m 25,33.30273 a 3,3 0 0 0 -3,3 v 27.13281 l -23.5,13.57032 a 3,3 0 0 0 -1.09766,4.09765 3,3 0 0 0 4.09766,1.09766 l 23.5,-13.56836 23.5,13.56836 a 3.0003,3.0003 0 0 0 3,-5.19531 L 703,460.14844 v -0.002 -27.13281 a 3,3 0 0 0 -3,-3 z m -0.90625,-0.38086 a 3.5,3.5 0 0 0 -0.375,0.28711 3.5,3.5 0 0 0 -0.46875,0.0625 3.5,3.5 0 0 0 -0.55664,0.72461 3.5,3.5 0 0 0 -0.72461,0.55664 l -25,43.30078 a 3.50035,3.50035 0 0 0 3.03125,5.25 h 50 a 3.50035,3.50035 0 0 0 3.03125,-5.25 l -25,-43.30078 a 3.5,3.5 0 0 0 -0.10742,-0.082 3.5,3.5 0 0 0 -1.17383,-1.19922 3.5,3.5 0 0 0 -0.46875,-0.0625 3.5,3.5 0 0 0 -1.28125,-0.168 3.5,3.5 0 0 0 -0.90625,-0.11914 z M 700,440.01367 l 18.9375,32.80078 h -37.875 z m -25.77734,120.00586 a 3,3 0 0 0 -1.82032,1.39649 3,3 0 0 0 1.09766,4.09765 l 23.5,13.57031 v 27.13477 a 3,3 0 0 0 3,3 3,3 0 0 0 3,-3 v -27.13477 -0.002 l 23.5,-13.56836 a 3.0003,3.0003 0 0 0 -3,-5.19531 L 700,573.88672 676.5,560.31836 a 3,3 0 0 0 -2.27734,-0.29883 z M 675,559.41602 a 3.5,3.5 0 0 0 -0.84375,0.3496 3.5,3.5 0 0 0 -0.90625,0.11915 3.5,3.5 0 0 0 -0.28906,0.375 3.5,3.5 0 0 0 -0.78516,1.02343 3.5,3.5 0 0 0 -0.49414,1.19532 3.5,3.5 0 0 0 -0.18164,0.4375 3.5,3.5 0 0 0 0.34961,0.84375 3.5,3.5 0 0 0 0.11914,0.90625 l 25,43.30273 a 3.50035,3.50035 0 0 0 6.0625,0 l 25,-43.30273 A 3.50035,3.50035 0 0 0 725,559.41602 Z m 6.0625,7 h 37.875 L 700,599.21875 Z m -31.83984,36.90429 a 3,3 0 0 0 -1.82032,1.39844 3,3 0 0 0 1.09766,4.09766 l 23.5,13.56836 v 27.13476 a 3,3 0 0 0 3,3 3,3 0 0 0 3,-3 v -27.13476 -0.002 l 23.5,-13.5664 a 3.0004839,3.0004839 0 0 0 -3,-5.19727 L 675,617.1875 651.5,603.61914 a 3,3 0 0 0 -2.27734,-0.29883 z M 650,602.71875 a 3.5,3.5 0 0 0 -0.8457,0.34961 3.5,3.5 0 0 0 -0.9043,0.11914 3.5,3.5 0 0 0 -0.28711,0.37305 3.5,3.5 0 0 0 -0.78711,1.02734 3.5,3.5 0 0 0 -0.49414,1.19336 3.5,3.5 0 0 0 -0.18164,0.4375 3.5,3.5 0 0 0 0.34961,0.84375 3.5,3.5 0 0 0 0.11914,0.90625 l 25,43.30078 a 3.50035,3.50035 0 0 0 6.0625,0 l 25,-43.30078 A 3.50035,3.50035 0 0 0 700,602.71875 Z m 6.0625,7 h 37.875 L 675,642.51953 Z m -81.83984,36.90234 a 3,3 0 0 0 -1.82032,1.39844 3,3 0 0 0 1.09766,4.09766 l 23.5,13.56836 v 27.13476 a 3,3 0 0 0 3,3 3,3 0 0 0 3,-3 v -27.13476 l 23.5,-13.56836 a 3.0003,3.0003 0 0 0 -3,-5.19532 L 600,660.48828 576.5,646.92187 a 3,3 0 0 0 -2.27734,-0.30078 z M 575,646.01953 a 3.5,3.5 0 0 0 -0.84375,0.34961 3.5,3.5 0 0 0 -0.90625,0.11914 3.5,3.5 0 0 0 -0.28906,0.375 3.5,3.5 0 0 0 -0.78516,1.02344 3.5,3.5 0 0 0 -0.49414,1.19531 3.5,3.5 0 0 0 -0.18164,0.4375 3.5,3.5 0 0 0 0.34961,0.84375 3.5,3.5 0 0 0 0.11914,0.90625 l 25,43.30078 a 3.50035,3.50035 0 0 0 6.0625,0 l 25,-43.30078 A 3.50035,3.50035 0 0 0 625,646.01953 Z m 6.0625,7 h 37.875 L 600,685.82031 Z M 650,603.21875 a 3,3 0 0 0 -3,3 v 27.13281 0.002 l -23.5,13.56835 a 3.0003,3.0003 0 0 0 3,5.19532 l 23.5,-13.56836 23.5,13.56836 a 3,3 0 0 0 4.09766,-1.09766 3,3 0 0 0 -1.09766,-4.0977 L 653,633.35156 v -27.13281 a 3,3 0 0 0 -3,-3 z m -0.90625,-0.38086 a 3.5,3.5 0 0 0 -0.375,0.28711 3.5,3.5 0 0 0 -0.46875,0.0625 3.5,3.5 0 0 0 -0.55664,0.72461 3.5,3.5 0 0 0 -0.72461,0.55664 l -25,43.30078 a 3.50035,3.50035 0 0 0 3.03125,5.25 h 50 a 3.50035,3.50035 0 0 0 3.03125,-5.25 l -25,-43.30078 a 3.5,3.5 0 0 0 -0.10742,-0.082 A 3.5,3.5 0 0 0 651.75,603.1875 3.5,3.5 0 0 0 651.28125,603.125 3.5,3.5 0 0 0 650,602.95703 3.5,3.5 0 0 0 649.09375,602.83789 Z M 650,613.21875 l 18.9375,32.80078 h -37.875 z m 50,-96.60352 a 3,3 0 0 0 -3,3 V 546.75 l -23.5,13.56836 a 3,3 0 0 0 -1.09766,4.09766 3,3 0 0 0 4.09766,1.09765 l 23.5,-13.5664 23.5,13.5664 a 3.0003,3.0003 0 0 0 3,-5.19531 L 703,546.75 v -27.13477 a 3,3 0 0 0 -3,-3 z m -0.90625,-0.38086 a 3.5,3.5 0 0 0 -0.375,0.28711 3.5,3.5 0 0 0 -0.46875,0.0625 3.5,3.5 0 0 0 -0.55664,0.72461 3.5,3.5 0 0 0 -0.72461,0.55664 l -25,43.30079 a 3.50035,3.50035 0 0 0 3.03125,5.25 h 50 a 3.50035,3.50035 0 0 0 3.03125,-5.25 l -25,-43.30079 a 3.5,3.5 0 0 0 -0.10742,-0.082 3.5,3.5 0 0 0 -1.17383,-1.19922 3.5,3.5 0 0 0 -0.46875,-0.0625 A 3.5,3.5 0 0 0 700,516.35352 3.5,3.5 0 0 0 699.09375,516.23437 Z M 700,526.61523 l 18.9375,32.80079 h -37.875 z m -25.77734,-53.19921 a 3,3 0 0 0 -1.82032,1.39843 3,3 0 0 0 1.09766,4.09766 l 23.5,13.56836 v 27.13476 a 3,3 0 0 0 3,3 3,3 0 0 0 3,-3 v -27.13476 l 23.5,-13.56836 a 3.0003,3.0003 0 0 0 -3,-5.19531 L 700,487.2832 676.5,473.7168 a 3,3 0 0 0 -2.27734,-0.30078 z M 675,472.81445 a 3.5,3.5 0 0 0 -0.84375,0.34961 3.5,3.5 0 0 0 -0.90625,0.11914 3.5,3.5 0 0 0 -0.28906,0.375 3.5,3.5 0 0 0 -0.78516,1.02344 3.5,3.5 0 0 0 -0.49414,1.19531 3.5,3.5 0 0 0 -0.18164,0.4375 3.5,3.5 0 0 0 0.34961,0.84375 3.5,3.5 0 0 0 0.11914,0.90625 l 25,43.30078 a 3.50035,3.50035 0 0 0 6.0625,0 l 25,-43.30078 A 3.50035,3.50035 0 0 0 725,472.81445 Z m 6.0625,7 h 37.875 L 700,512.61523 Z m -56.83984,-93 a 3,3 0 0 0 -1.82032,1.39649 3,3 0 0 0 1.09766,4.09765 l 23.5,13.57032 v 27.13476 a 3,3 0 0 0 3,3 3,3 0 0 0 3,-3 v -27.13476 -0.002 l 23.5,-13.56836 a 3.0003,3.0003 0 0 0 -3,-5.19531 l -23.5,13.5684 -23.5,-13.56836 a 3,3 0 0 0 -2.27734,-0.29883 z M 625,386.21094 a 3.5,3.5 0 0 0 -0.84375,0.34961 3.5,3.5 0 0 0 -0.90625,0.11914 3.5,3.5 0 0 0 -0.28906,0.375 3.5,3.5 0 0 0 -0.78516,1.02343 3.5,3.5 0 0 0 -0.49414,1.19532 3.5,3.5 0 0 0 -0.18164,0.4375 3.5,3.5 0 0 0 0.34961,0.84375 3.5,3.5 0 0 0 0.11914,0.90625 l 25,43.30273 a 3.50035,3.50035 0 0 0 6.0625,0 l 25,-43.30273 A 3.50035,3.50035 0 0 0 675,386.21094 Z m 6.0625,7 h 37.875 L 650,426.01367 Z M 600,343.41016 a 3,3 0 0 0 -3,3 v 27.13476 l -23.5,13.56836 a 3,3 0 0 0 -1.09766,4.09766 3,3 0 0 0 4.09766,1.09765 l 23.5,-13.5664 23.5,13.5664 a 3.0003,3.0003 0 0 0 3,-5.19531 L 603,373.54492 v -27.13476 a 3,3 0 0 0 -3,-3 z m -0.90625,-0.38086 a 3.5,3.5 0 0 0 -0.375,0.28711 3.5,3.5 0 0 0 -0.46875,0.0625 3.5,3.5 0 0 0 -0.55664,0.72461 3.5,3.5 0 0 0 -0.72461,0.55664 l -25,43.30078 a 3.50035,3.50035 0 0 0 3.03125,5.25 h 50 a 3.50035,3.50035 0 0 0 3.03125,-5.25 l -25,-43.30078 a 3.5,3.5 0 0 0 -0.10742,-0.082 3.5,3.5 0 0 0 -1.17383,-1.19921 3.5,3.5 0 0 0 -0.46875,-0.0625 A 3.5,3.5 0 0 0 600,343.14844 3.5,3.5 0 0 0 599.09375,343.0293 Z M 600,353.41016 l 18.9375,32.80078 h -37.875 z m -100,-10 a 3,3 0 0 0 -3,3 v 27.13476 l -23.5,13.56836 a 3,3 0 0 0 -1.09766,4.09766 3,3 0 0 0 4.09766,1.09765 l 23.5,-13.5664 23.5,13.5664 a 3.0003,3.0003 0 0 0 3,-5.19531 L 503,373.54492 v -27.13476 a 3,3 0 0 0 -3,-3 z m -0.90625,-0.38086 a 3.5,3.5 0 0 0 -0.375,0.28711 3.5,3.5 0 0 0 -0.46875,0.0625 3.5,3.5 0 0 0 -0.55664,0.72461 3.5,3.5 0 0 0 -0.72461,0.55664 l -25,43.30078 a 3.50035,3.50035 0 0 0 3.03125,5.25 h 50 a 3.50035,3.50035 0 0 0 3.03125,-5.25 l -25,-43.30078 a 3.5,3.5 0 0 0 -0.10742,-0.082 3.5,3.5 0 0 0 -1.17383,-1.19921 3.5,3.5 0 0 0 -0.46875,-0.0625 A 3.5,3.5 0 0 0 500,343.14844 3.5,3.5 0 0 0 499.09375,343.0293 Z M 500,353.41016 l 18.9375,32.80078 h -37.875 z m -75.77734,33.40429 a 3,3 0 0 0 -1.82032,1.39649 3,3 0 0 0 1.09766,4.09765 l 23.5,13.57032 v 27.13476 a 3,3 0 0 0 3,3 3,3 0 0 0 3,-3 v -27.13476 -0.002 l 23.5,-13.56836 a 3.0003,3.0003 0 0 0 -3,-5.19531 l -23.5,13.5684 -23.5,-13.56836 a 3,3 0 0 0 -2.27734,-0.29883 z M 425,386.21094 a 3.5,3.5 0 0 0 -0.84375,0.34961 3.5,3.5 0 0 0 -0.90625,0.11914 3.5,3.5 0 0 0 -0.28906,0.375 3.5,3.5 0 0 0 -0.78516,1.02343 3.5,3.5 0 0 0 -0.49414,1.19532 3.5,3.5 0 0 0 -0.18164,0.4375 3.5,3.5 0 0 0 0.34961,0.84375 3.5,3.5 0 0 0 0.11914,0.90625 l 25,43.30273 a 3.50035,3.50035 0 0 0 6.0625,0 l 25,-43.30273 A 3.50035,3.50035 0 0 0 475,386.21094 Z m 6.0625,7 h 37.875 L 450,426.01367 Z m -56.83984,80.20508 a 3,3 0 0 0 -1.82032,1.39843 3,3 0 0 0 1.09766,4.09766 l 23.5,13.56836 v 27.13476 a 3,3 0 0 0 3,3 3,3 0 0 0 3,-3 v -27.13476 l 23.5,-13.56836 a 3.0003,3.0003 0 0 0 -3,-5.19531 L 400,487.2832 376.5,473.7168 a 3,3 0 0 0 -2.27734,-0.30078 z M 375,472.81445 a 3.5,3.5 0 0 0 -0.84375,0.34961 3.5,3.5 0 0 0 -0.90625,0.11914 3.5,3.5 0 0 0 -0.28906,0.375 3.5,3.5 0 0 0 -0.78516,1.02344 3.5,3.5 0 0 0 -0.49414,1.19531 3.5,3.5 0 0 0 -0.18164,0.4375 3.5,3.5 0 0 0 0.34961,0.84375 3.5,3.5 0 0 0 0.11914,0.90625 l 25,43.30078 a 3.50035,3.50035 0 0 0 6.0625,0 l 25,-43.30078 A 3.50035,3.50035 0 0 0 425,472.81445 Z m 6.0625,7 h 37.875 L 400,512.61523 Z M 400,516.61523 a 3,3 0 0 0 -3,3 V 546.75 l -23.5,13.56836 a 3,3 0 0 0 -1.09766,4.09766 3,3 0 0 0 4.09766,1.09765 l 23.5,-13.5664 23.5,13.5664 a 3.0003,3.0003 0 0 0 3,-5.19531 L 403,546.75 v -27.13477 a 3,3 0 0 0 -3,-3 z m -0.90625,-0.38086 a 3.5,3.5 0 0 0 -0.375,0.28711 3.5,3.5 0 0 0 -0.46875,0.0625 3.5,3.5 0 0 0 -0.55664,0.72461 3.5,3.5 0 0 0 -0.72461,0.55664 l -25,43.30079 a 3.50035,3.50035 0 0 0 3.03125,5.25 h 50 a 3.50035,3.50035 0 0 0 3.03125,-5.25 l -25,-43.30079 a 3.5,3.5 0 0 0 -0.10742,-0.082 3.5,3.5 0 0 0 -1.17383,-1.19922 3.5,3.5 0 0 0 -0.46875,-0.0625 A 3.5,3.5 0 0 0 400,516.35352 3.5,3.5 0 0 0 399.09375,516.23437 Z M 400,526.61523 l 18.9375,32.80079 h -37.875 z m 24.22266,33.4043 a 3,3 0 0 0 -1.82032,1.39649 3,3 0 0 0 1.09766,4.09765 l 23.5,13.57031 v 27.13477 a 3,3 0 0 0 3,3 3,3 0 0 0 3,-3 v -27.13477 -0.002 l 23.5,-13.56836 a 3.0003,3.0003 0 0 0 -3,-5.19531 L 450,573.88672 426.5,560.31836 a 3,3 0 0 0 -2.27734,-0.29883 z M 425,559.41602 a 3.5,3.5 0 0 0 -0.84375,0.3496 3.5,3.5 0 0 0 -0.90625,0.11915 3.5,3.5 0 0 0 -0.28906,0.375 3.5,3.5 0 0 0 -0.78516,1.02343 3.5,3.5 0 0 0 -0.49414,1.19532 3.5,3.5 0 0 0 -0.18164,0.4375 3.5,3.5 0 0 0 0.34961,0.84375 3.5,3.5 0 0 0 0.11914,0.90625 l 25,43.30273 a 3.50035,3.50035 0 0 0 6.0625,0 l 25,-43.30273 A 3.50035,3.50035 0 0 0 475,559.41602 Z m 6.0625,7 h 37.875 L 450,599.21875 Z M 550,603.21875 a 3,3 0 0 0 -3,3 v 27.13281 0.002 l -23.5,13.56835 a 3.0003,3.0003 0 0 0 3,5.19532 l 23.5,-13.56836 23.5,13.56836 a 3,3 0 0 0 4.09766,-1.09766 3,3 0 0 0 -1.09766,-4.0977 L 553,633.35156 v -27.13281 a 3,3 0 0 0 -3,-3 z m -0.90625,-0.38086 a 3.5,3.5 0 0 0 -0.375,0.28711 3.5,3.5 0 0 0 -0.46875,0.0625 3.5,3.5 0 0 0 -0.55664,0.72461 3.5,3.5 0 0 0 -0.72461,0.55664 l -25,43.30078 a 3.50035,3.50035 0 0 0 3.03125,5.25 h 50 a 3.50035,3.50035 0 0 0 3.03125,-5.25 l -25,-43.30078 a 3.5,3.5 0 0 0 -0.10742,-0.082 A 3.5,3.5 0 0 0 551.75,603.1875 3.5,3.5 0 0 0 551.28125,603.125 3.5,3.5 0 0 0 550,602.95703 3.5,3.5 0 0 0 549.09375,602.83789 Z M 550,613.21875 l 18.9375,32.80078 h -37.875 z m 74.22266,-53.19922 a 3,3 0 0 0 -1.82032,1.39649 3,3 0 0 0 1.09766,4.09765 l 23.5,13.57031 v 27.13477 a 3,3 0 0 0 3,3 3,3 0 0 0 3,-3 v -27.13477 -0.002 l 23.5,-13.56836 a 3.0003,3.0003 0 0 0 -3,-5.19531 L 650,573.88672 626.5,560.31836 a 3,3 0 0 0 -2.27734,-0.29883 z M 625,559.41602 a 3.5,3.5 0 0 0 -0.84375,0.3496 3.5,3.5 0 0 0 -0.90625,0.11915 3.5,3.5 0 0 0 -0.28906,0.375 3.5,3.5 0 0 0 -0.78516,1.02343 3.5,3.5 0 0 0 -0.49414,1.19532 3.5,3.5 0 0 0 -0.18164,0.4375 3.5,3.5 0 0 0 0.34961,0.84375 3.5,3.5 0 0 0 0.11914,0.90625 l 25,43.30273 a 3.50035,3.50035 0 0 0 6.0625,0 l 25,-43.30273 A 3.50035,3.50035 0 0 0 675,559.41602 Z m 6.0625,7 h 37.875 L 650,599.21875 Z M 650,430.01367 a 3,3 0 0 0 -3,3 v 27.13281 0.002 l -23.5,13.56836 a 3.0003,3.0003 0 0 0 3,5.19531 l 23.5,-13.56836 23.5,13.56836 a 3,3 0 0 0 4.09766,-1.09766 A 3,3 0 0 0 676.5,473.7168 L 653,460.14648 v -27.13281 a 3,3 0 0 0 -3,-3 z m -0.90625,-0.38086 a 3.5,3.5 0 0 0 -0.375,0.28711 3.5,3.5 0 0 0 -0.46875,0.0625 3.5,3.5 0 0 0 -0.55664,0.72461 3.5,3.5 0 0 0 -0.72461,0.55664 l -25,43.30078 a 3.50035,3.50035 0 0 0 3.03125,5.25 h 50 a 3.50035,3.50035 0 0 0 3.03125,-5.25 l -25,-43.30078 a 3.5,3.5 0 0 0 -0.10742,-0.082 3.5,3.5 0 0 0 -1.17383,-1.19922 3.5,3.5 0 0 0 -0.46875,-0.0625 3.5,3.5 0 0 0 -1.28125,-0.168 3.5,3.5 0 0 0 -0.90625,-0.11914 z M 650,440.01367 l 18.9375,32.80078 h -37.875 z M 524.22266,386.81445 a 3,3 0 0 0 -1.82032,1.39649 3,3 0 0 0 1.09766,4.09765 l 23.5,13.57032 v 27.13476 a 3,3 0 0 0 3,3 3,3 0 0 0 3,-3 v -27.13476 -0.002 l 23.5,-13.56836 a 3.0003,3.0003 0 0 0 -3,-5.19531 l -23.5,13.5684 -23.5,-13.56836 a 3,3 0 0 0 -2.27734,-0.29883 z M 525,386.21094 a 3.5,3.5 0 0 0 -0.84375,0.34961 3.5,3.5 0 0 0 -0.90625,0.11914 3.5,3.5 0 0 0 -0.28906,0.375 3.5,3.5 0 0 0 -0.78516,1.02343 3.5,3.5 0 0 0 -0.49414,1.19532 3.5,3.5 0 0 0 -0.18164,0.4375 3.5,3.5 0 0 0 0.34961,0.84375 3.5,3.5 0 0 0 0.11914,0.90625 l 25,43.30273 a 3.50035,3.50035 0 0 0 6.0625,0 l 25,-43.30273 A 3.50035,3.50035 0 0 0 575,386.21094 Z m 6.0625,7 h 37.875 L 550,426.01367 Z M 450,430.01367 a 3,3 0 0 0 -3,3 v 27.13281 l -23.5,13.57032 a 3,3 0 0 0 -1.09766,4.09765 3,3 0 0 0 4.09766,1.09766 l 23.5,-13.56836 23.5,13.56836 a 3.0003,3.0003 0 0 0 3,-5.19531 L 453,460.14844 v -0.002 -27.13281 a 3,3 0 0 0 -3,-3 z m -0.90625,-0.38086 a 3.5,3.5 0 0 0 -0.375,0.28711 3.5,3.5 0 0 0 -0.46875,0.0625 3.5,3.5 0 0 0 -0.55664,0.72461 3.5,3.5 0 0 0 -0.72461,0.55664 l -25,43.30078 a 3.50035,3.50035 0 0 0 3.03125,5.25 h 50 a 3.50035,3.50035 0 0 0 3.03125,-5.25 l -25,-43.30078 a 3.5,3.5 0 0 0 -0.10742,-0.082 3.5,3.5 0 0 0 -1.17383,-1.19922 3.5,3.5 0 0 0 -0.46875,-0.0625 3.5,3.5 0 0 0 -1.28125,-0.168 3.5,3.5 0 0 0 -0.90625,-0.11914 z M 450,440.01367 l 18.9375,32.80078 h -37.875 z m 50,76.60156 a 3,3 0 0 0 -3,3 V 546.75 l -23.5,13.56836 a 3.0003,3.0003 0 0 0 3,5.19531 l 23.5,-13.5664 23.5,13.5664 a 3,3 0 0 0 4.09766,-1.09765 A 3,3 0 0 0 526.5,560.31836 L 503,546.75 v -27.13477 a 3,3 0 0 0 -3,-3 z m -0.90625,-0.38086 a 3.5,3.5 0 0 0 -0.375,0.28711 3.5,3.5 0 0 0 -0.46875,0.0625 3.5,3.5 0 0 0 -0.55664,0.72461 3.5,3.5 0 0 0 -0.72461,0.55664 l -25,43.30079 a 3.50035,3.50035 0 0 0 3.03125,5.25 h 50 a 3.50035,3.50035 0 0 0 3.03125,-5.25 l -25,-43.30079 a 3.5,3.5 0 0 0 -0.10742,-0.082 3.5,3.5 0 0 0 -1.17383,-1.19922 3.5,3.5 0 0 0 -0.46875,-0.0625 A 3.5,3.5 0 0 0 500,516.35352 3.5,3.5 0 0 0 499.09375,516.23437 Z M 500,526.61523 l 18.9375,32.80079 h -37.875 z m 24.22266,33.4043 a 3,3 0 0 0 -1.82032,1.39649 3,3 0 0 0 1.09766,4.09765 l 23.5,13.57031 v 27.13477 a 3,3 0 0 0 3,3 3,3 0 0 0 3,-3 v -27.13477 -0.002 l 23.5,-13.56836 a 3.0003,3.0003 0 0 0 -3,-5.19531 L 550,573.88672 526.5,560.31836 a 3,3 0 0 0 -2.27734,-0.29883 z M 525,559.41602 a 3.5,3.5 0 0 0 -0.84375,0.3496 3.5,3.5 0 0 0 -0.90625,0.11915 3.5,3.5 0 0 0 -0.28906,0.375 3.5,3.5 0 0 0 -0.78516,1.02343 3.5,3.5 0 0 0 -0.49414,1.19532 3.5,3.5 0 0 0 -0.18164,0.4375 3.5,3.5 0 0 0 0.34961,0.84375 3.5,3.5 0 0 0 0.11914,0.90625 l 25,43.30273 a 3.50035,3.50035 0 0 0 6.0625,0 l 25,-43.30273 A 3.50035,3.50035 0 0 0 575,559.41602 Z m 6.0625,7 h 37.875 L 550,599.21875 Z M 600,516.61523 a 3,3 0 0 0 -3,3 V 546.75 l -23.5,13.56836 a 3,3 0 0 0 -1.09766,4.09766 3,3 0 0 0 4.09766,1.09765 l 23.5,-13.5664 23.5,13.5664 a 3.0003,3.0003 0 0 0 3,-5.19531 L 603,546.75 v -27.13477 a 3,3 0 0 0 -3,-3 z m -0.90625,-0.38086 a 3.5,3.5 0 0 0 -0.375,0.28711 3.5,3.5 0 0 0 -0.46875,0.0625 3.5,3.5 0 0 0 -0.55664,0.72461 3.5,3.5 0 0 0 -0.72461,0.55664 l -25,43.30079 a 3.50035,3.50035 0 0 0 3.03125,5.25 h 50 a 3.50035,3.50035 0 0 0 3.03125,-5.25 l -25,-43.30079 a 3.5,3.5 0 0 0 -0.10742,-0.082 3.5,3.5 0 0 0 -1.17383,-1.19922 3.5,3.5 0 0 0 -0.46875,-0.0625 A 3.5,3.5 0 0 0 600,516.35352 3.5,3.5 0 0 0 599.09375,516.23437 Z M 600,526.61523 l 18.9375,32.80079 h -37.875 z m -25.77734,-53.19921 a 3,3 0 0 0 -1.82032,1.39843 3,3 0 0 0 1.09766,4.09766 l 23.5,13.56836 v 27.13476 a 3,3 0 0 0 3,3 3,3 0 0 0 3,-3 v -27.13476 l 23.5,-13.56836 a 3.0003,3.0003 0 0 0 -3,-5.19531 L 600,487.2832 576.5,473.7168 a 3,3 0 0 0 -2.27734,-0.30078 z M 575,472.81445 a 3.5,3.5 0 0 0 -0.84375,0.34961 3.5,3.5 0 0 0 -0.90625,0.11914 3.5,3.5 0 0 0 -0.28906,0.375 3.5,3.5 0 0 0 -0.78516,1.02344 3.5,3.5 0 0 0 -0.49414,1.19531 3.5,3.5 0 0 0 -0.18164,0.4375 3.5,3.5 0 0 0 0.34961,0.84375 3.5,3.5 0 0 0 0.11914,0.90625 l 25,43.30078 a 3.50035,3.50035 0 0 0 6.0625,0 l 25,-43.30078 A 3.50035,3.50035 0 0 0 625,472.81445 Z m 6.0625,7 h 37.875 L 600,512.61523 Z m -106.83984,-6.39843 a 3,3 0 0 0 -1.82032,1.39843 3,3 0 0 0 1.09766,4.09766 l 23.5,13.56836 v 27.13476 a 3,3 0 0 0 3,3 3,3 0 0 0 3,-3 v -27.13476 l 23.5,-13.56836 a 3.0003,3.0003 0 0 0 -3,-5.19531 L 500,487.2832 476.5,473.7168 a 3,3 0 0 0 -2.27734,-0.30078 z M 475,472.81445 a 3.5,3.5 0 0 0 -0.84375,0.34961 3.5,3.5 0 0 0 -0.90625,0.11914 3.5,3.5 0 0 0 -0.28906,0.375 3.5,3.5 0 0 0 -0.78516,1.02344 3.5,3.5 0 0 0 -0.49414,1.19531 3.5,3.5 0 0 0 -0.18164,0.4375 3.5,3.5 0 0 0 0.34961,0.84375 3.5,3.5 0 0 0 0.11914,0.90625 l 25,43.30078 a 3.50035,3.50035 0 0 0 6.0625,0 l 25,-43.30078 A 3.50035,3.50035 0 0 0 525,472.81445 Z m 6.0625,7 h 37.875 L 500,512.61523 Z M 550,430.01367 a 3,3 0 0 0 -3,3 v 27.13281 l -23.5,13.57032 a 3,3 0 0 0 -1.09766,4.09765 3,3 0 0 0 4.09766,1.09766 l 23.5,-13.56836 23.5,13.56836 a 3.0003,3.0003 0 0 0 3,-5.19531 L 553,460.14844 v -0.002 -27.13281 a 3,3 0 0 0 -3,-3 z m -0.90625,-0.38086 a 3.5,3.5 0 0 0 -0.375,0.28711 3.5,3.5 0 0 0 -0.46875,0.0625 3.5,3.5 0 0 0 -0.55664,0.72461 3.5,3.5 0 0 0 -0.72461,0.55664 l -25,43.30078 a 3.50035,3.50035 0 0 0 3.03125,5.25 h 50 a 3.50035,3.50035 0 0 0 3.03125,-5.25 l -25,-43.30078 a 3.5,3.5 0 0 0 -0.10742,-0.082 3.5,3.5 0 0 0 -1.17383,-1.19922 3.5,3.5 0 0 0 -0.46875,-0.0625 3.5,3.5 0 0 0 -1.28125,-0.168 3.5,3.5 0 0 0 -0.90625,-0.11914 z M 550,440.01367 l 18.9375,32.80078 h -37.875 z" />
</svg>
