<?xml version="1.0" encoding="UTF-8" standalone="no"?>
<svg
   version="1.1"
   width="1500"
   height="1000"
   class="svg_pane"
   data-attrTriangle="{&quot;fill&quot;:&quot;none&quot;,&quot;stroke&quot;:&quot;black&quot;,&quot;stroke-width&quot;:7,&quot;stroke-linecap&quot;:&quot;round&quot;,&quot;stroke-linejoin&quot;:&quot;round&quot;}"
   data-attrPattern="{&quot;fill&quot;:&quot;none&quot;,&quot;stroke&quot;:&quot;black&quot;,&quot;stroke-width&quot;:6,&quot;stroke-linecap&quot;:&quot;round&quot;,&quot;stroke-linejoin&quot;:&quot;round&quot;}"
   id="svg84"
   sodipodi:docname="kumiko_medium.svg"
   inkscape:version="1.3.2 (091e20e, 2023-11-25)"
   xmlns:inkscape="http://www.inkscape.org/namespaces/inkscape"
   xmlns:sodipodi="http://sodipodi.sourceforge.net/DTD/sodipodi-0.dtd"
   xmlns="http://www.w3.org/2000/svg"
   xmlns:svg="http://www.w3.org/2000/svg">
  <defs
     id="defs84" />
  <sodipodi:namedview
     id="namedview84"
     pagecolor="#ffffff"
     bordercolor="#000000"
     borderopacity="0.25"
     inkscape:showpageshadow="2"
     inkscape:pageopacity="0.0"
     inkscape:pagecheckerboard="0"
     inkscape:deskcolor="#d1d1d1"
     inkscape:zoom="0.86346221"
     inkscape:cx="511.31363"
     inkscape:cy="446.45845"
     inkscape:window-width="1392"
     inkscape:window-height="824"
     inkscape:window-x="0"
     inkscape:window-y="25"
     inkscape:window-maximized="0"
     inkscape:current-layer="svg84" />
  <path
     id="polyline84"
     style="color:#000000;fill:#000000;stroke-linecap:round;stroke-linejoin:round;-inkscape-stroke:none"
     d="m 499.22266,516.7168 a 3,3 0 0 0 -1.82032,1.39843 3,3 0 0 0 1.09766,4.09766 l 23.5,13.56836 v 27.13477 a 3,3 0 0 0 3,3 3,3 0 0 0 3,-3 v -27.13477 l 23.5,-13.56836 a 3.0003,3.0003 0 0 0 -3,-5.19531 l -23.5,13.5664 -23.5,-13.5664 a 3,3 0 0 0 -2.27734,-0.30078 z M 500,516.11523 a 3.5,3.5 0 0 0 -0.84375,0.34961 3.5,3.5 0 0 0 -0.90625,0.11914 3.5,3.5 0 0 0 -0.28906,0.375 3.5,3.5 0 0 0 -0.78516,1.02344 3.5,3.5 0 0 0 -0.49414,1.19531 3.5,3.5 0 0 0 -0.18164,0.4375 3.5,3.5 0 0 0 0.34961,0.84375 3.5,3.5 0 0 0 0.11914,0.90625 l 25,43.30079 a 3.50035,3.50035 0 0 0 6.0625,0 l 25,-43.30079 A 3.50035,3.50035 0 0 0 550,516.11523 Z m 6.0625,7 h 37.875 L 525,555.91602 Z m 43.9375,-6.5 a 3,3 0 0 0 -3,3 V 546.75 l -23.5,13.56836 a 3.0003,3.0003 0 0 0 3,5.19531 l 23.5,-13.5664 23.5,13.5664 a 3,3 0 0 0 4.09766,-1.09765 A 3,3 0 0 0 576.5,560.31836 L 553,546.75 v -27.13477 a 3,3 0 0 0 -3,-3 z m -0.90625,-0.38086 a 3.5,3.5 0 0 0 -0.375,0.28711 3.5,3.5 0 0 0 -0.46875,0.0625 3.5,3.5 0 0 0 -0.55664,0.72461 3.5,3.5 0 0 0 -0.72461,0.55664 l -25,43.30079 a 3.50035,3.50035 0 0 0 3.03125,5.25 h 50 a 3.50035,3.50035 0 0 0 3.03125,-5.25 l -25,-43.30079 a 3.5,3.5 0 0 0 -0.10742,-0.082 3.5,3.5 0 0 0 -1.17383,-1.19922 3.5,3.5 0 0 0 -0.46875,-0.0625 A 3.5,3.5 0 0 0 550,516.35352 3.5,3.5 0 0 0 549.09375,516.23437 Z M 550,526.61523 l 18.9375,32.80079 h -37.875 z m -0.77734,-9.89843 a 3,3 0 0 0 -1.82032,1.39843 3,3 0 0 0 1.09766,4.09766 l 23.5,13.56836 v 27.13477 a 3,3 0 0 0 3,3 3,3 0 0 0 3,-3 v -27.13477 l 23.5,-13.56836 a 3.0003,3.0003 0 0 0 -3,-5.19531 l -23.5,13.5664 -23.5,-13.5664 a 3,3 0 0 0 -2.27734,-0.30078 z M 550,516.11523 a 3.5,3.5 0 0 0 -0.84375,0.34961 3.5,3.5 0 0 0 -0.90625,0.11914 3.5,3.5 0 0 0 -0.28906,0.375 3.5,3.5 0 0 0 -0.78516,1.02344 3.5,3.5 0 0 0 -0.49414,1.19531 3.5,3.5 0 0 0 -0.18164,0.4375 3.5,3.5 0 0 0 0.34961,0.84375 3.5,3.5 0 0 0 0.11914,0.90625 l 25,43.30079 a 3.50035,3.50035 0 0 0 6.0625,0 l 25,-43.30079 A 3.50035,3.50035 0 0 0 600,516.11523 Z m 6.0625,7 h 37.875 L 575,555.91602 Z M 575,473.31445 a 3,3 0 0 0 -3,3 v 27.13477 l -23.5,13.56836 a 3.0003,3.0003 0 0 0 3,5.19531 l 23.5,-13.56641 23.5,13.56641 a 3,3 0 0 0 4.09766,-1.09766 A 3,3 0 0 0 601.5,517.01758 L 578,503.44922 v -27.13477 a 3,3 0 0 0 -3,-3 z m -0.90625,-0.38086 a 3.5,3.5 0 0 0 -0.375,0.28711 3.5,3.5 0 0 0 -0.46875,0.0625 3.5,3.5 0 0 0 -0.55664,0.72461 3.5,3.5 0 0 0 -0.72461,0.55664 l -25,43.30078 a 3.50035,3.50035 0 0 0 3.03125,5.25 h 50 a 3.50035,3.50035 0 0 0 3.03125,-5.25 l -25,-43.30078 a 3.5,3.5 0 0 0 -0.10742,-0.082 A 3.5,3.5 0 0 0 576.75,473.2832 3.5,3.5 0 0 0 576.28125,473.2207 3.5,3.5 0 0 0 575,473.05273 3.5,3.5 0 0 0 574.09375,472.93359 Z M 575,483.31445 l 18.9375,32.80078 h -37.875 z m -50.77734,-9.89843 a 3,3 0 0 0 -1.82032,1.39843 3,3 0 0 0 1.09766,4.09766 l 23.5,13.56836 v 27.13476 a 3,3 0 0 0 3,3 3,3 0 0 0 3,-3 v -27.13476 l 23.5,-13.56836 a 3.0003,3.0003 0 0 0 -3,-5.19531 L 550,487.2832 526.5,473.7168 a 3,3 0 0 0 -2.27734,-0.30078 z M 525,472.81445 a 3.5,3.5 0 0 0 -0.84375,0.34961 3.5,3.5 0 0 0 -0.90625,0.11914 3.5,3.5 0 0 0 -0.28906,0.375 3.5,3.5 0 0 0 -0.78516,1.02344 3.5,3.5 0 0 0 -0.49414,1.19531 3.5,3.5 0 0 0 -0.18164,0.4375 3.5,3.5 0 0 0 0.34961,0.84375 3.5,3.5 0 0 0 0.11914,0.90625 l 25,43.30078 a 3.50035,3.50035 0 0 0 6.0625,0 l 25,-43.30078 A 3.50035,3.50035 0 0 0 575,472.81445 Z m 6.0625,7 h 37.875 L 550,512.61523 Z m -6.0625,-6.5 a 3,3 0 0 0 -3,3 v 27.13477 l -23.5,13.56836 a 3,3 0 0 0 -1.09766,4.09765 3,3 0 0 0 4.09766,1.09766 l 23.5,-13.56641 23.5,13.56641 a 3.0003,3.0003 0 0 0 3,-5.19531 L 528,503.44922 v -27.13477 a 3,3 0 0 0 -3,-3 z m -0.90625,-0.38086 a 3.5,3.5 0 0 0 -0.375,0.28711 3.5,3.5 0 0 0 -0.46875,0.0625 3.5,3.5 0 0 0 -0.55664,0.72461 3.5,3.5 0 0 0 -0.72461,0.55664 l -25,43.30078 a 3.50035,3.50035 0 0 0 3.03125,5.25 h 50 a 3.50035,3.50035 0 0 0 3.03125,-5.25 l -25,-43.30078 a 3.5,3.5 0 0 0 -0.10742,-0.082 A 3.5,3.5 0 0 0 526.75,473.2832 3.5,3.5 0 0 0 526.28125,473.2207 3.5,3.5 0 0 0 525,473.05273 3.5,3.5 0 0 0 524.09375,472.93359 Z M 525,483.31445 l 18.9375,32.80078 h -37.875 z m -0.77734,163.30664 a 3,3 0 0 0 -1.82032,1.39844 3,3 0 0 0 1.09766,4.09766 l 23.5,13.56836 v 27.13476 a 3,3 0 0 0 3,3 3,3 0 0 0 3,-3 v -27.13476 l 23.5,-13.56836 a 3.0003,3.0003 0 0 0 -3,-5.19532 L 550,660.48828 526.5,646.92187 a 3,3 0 0 0 -2.27734,-0.30078 z M 525,646.01953 a 3.5,3.5 0 0 0 -0.84375,0.34961 3.5,3.5 0 0 0 -0.90625,0.11914 3.5,3.5 0 0 0 -0.28906,0.375 3.5,3.5 0 0 0 -0.78516,1.02344 3.5,3.5 0 0 0 -0.49414,1.19531 3.5,3.5 0 0 0 -0.18164,0.4375 3.5,3.5 0 0 0 0.34961,0.84375 3.5,3.5 0 0 0 0.11914,0.90625 l 25,43.30078 a 3.50035,3.50035 0 0 0 6.0625,0 l 25,-43.30078 A 3.50035,3.50035 0 0 0 575,646.01953 Z m 6.0625,7 h 37.875 L 550,685.82031 Z m 43.9375,-6.5 a 3,3 0 0 0 -3,3 v 27.13477 l -23.5,13.56836 a 3,3 0 0 0 -1.09766,4.09765 3,3 0 0 0 4.09766,1.09766 l 23.5,-13.56641 23.5,13.56641 a 3.0003,3.0003 0 0 0 3,-5.19531 L 578,676.6543 v -27.13477 a 3,3 0 0 0 -3,-3 z m -0.90625,-0.38086 a 3.5,3.5 0 0 0 -0.375,0.28711 3.5,3.5 0 0 0 -0.46875,0.0625 3.5,3.5 0 0 0 -0.55664,0.72461 3.5,3.5 0 0 0 -0.72461,0.55664 l -25,43.30078 a 3.50035,3.50035 0 0 0 3.03125,5.25 h 50 a 3.50035,3.50035 0 0 0 3.03125,-5.25 l -25,-43.30078 a 3.5,3.5 0 0 0 -0.10742,-0.082 3.5,3.5 0 0 0 -1.17383,-1.19922 3.5,3.5 0 0 0 -0.46875,-0.0625 3.5,3.5 0 0 0 -1.28125,-0.168 3.5,3.5 0 0 0 -0.90625,-0.11914 z M 575,656.51953 l 18.9375,32.80078 h -37.875 z M 425,559.91602 a 3,3 0 0 0 -3,3 v 27.13476 l -23.5,13.56836 a 3,3 0 0 0 -1.09766,4.09961 3,3 0 0 0 4.09766,1.09766 l 23.5,-13.56836 23.5,13.56836 a 3.0004839,3.0004839 0 0 0 3,-5.19727 L 428,590.05273 v -0.002 -27.13476 a 3,3 0 0 0 -3,-3 z m -0.90625,-0.38086 a 3.5,3.5 0 0 0 -0.375,0.28711 3.5,3.5 0 0 0 -0.46875,0.0625 3.5,3.5 0 0 0 -0.55664,0.7246 3.5,3.5 0 0 0 -0.72461,0.55665 l -25,43.30273 a 3.50035,3.50035 0 0 0 3.03125,5.25 h 50 a 3.50035,3.50035 0 0 0 3.03125,-5.25 l -25,-43.30273 a 3.5,3.5 0 0 0 -0.10742,-0.082 3.5,3.5 0 0 0 -1.17383,-1.19921 3.5,3.5 0 0 0 -0.46875,-0.0625 A 3.5,3.5 0 0 0 425,559.6543 3.5,3.5 0 0 0 424.09375,559.53516 Z M 425,569.91602 l 18.9375,32.80273 h -37.875 z m -50.77734,-9.89649 a 3,3 0 0 0 -1.82032,1.39649 3,3 0 0 0 1.09766,4.09765 l 23.5,13.57031 v 27.13477 a 3,3 0 0 0 3,3 3,3 0 0 0 3,-3 v -27.13477 -0.002 l 23.5,-13.56836 a 3.0003,3.0003 0 0 0 -3,-5.19531 L 400,573.88672 376.5,560.31836 a 3,3 0 0 0 -2.27734,-0.29883 z M 375,559.41602 a 3.5,3.5 0 0 0 -0.84375,0.3496 3.5,3.5 0 0 0 -0.90625,0.11915 3.5,3.5 0 0 0 -0.28906,0.375 3.5,3.5 0 0 0 -0.78516,1.02343 3.5,3.5 0 0 0 -0.49414,1.19532 3.5,3.5 0 0 0 -0.18164,0.4375 3.5,3.5 0 0 0 0.34961,0.84375 3.5,3.5 0 0 0 0.11914,0.90625 l 25,43.30273 a 3.50035,3.50035 0 0 0 6.0625,0 l 25,-43.30273 A 3.50035,3.50035 0 0 0 425,559.41602 Z m 6.0625,7 h 37.875 L 400,599.21875 Z M 349.22266,516.7168 a 3,3 0 0 0 -1.82032,1.39843 3,3 0 0 0 1.09766,4.09766 l 23.5,13.56836 v 27.13477 a 3,3 0 0 0 3,3 3,3 0 0 0 3,-3 v -27.13477 l 23.5,-13.56836 a 3.0003,3.0003 0 0 0 -3,-5.19531 l -23.5,13.5664 -23.5,-13.5664 a 3,3 0 0 0 -2.27734,-0.30078 z M 350,516.11523 a 3.5,3.5 0 0 0 -0.84375,0.34961 3.5,3.5 0 0 0 -0.90625,0.11914 3.5,3.5 0 0 0 -0.28906,0.375 3.5,3.5 0 0 0 -0.78516,1.02344 3.5,3.5 0 0 0 -0.49414,1.19531 3.5,3.5 0 0 0 -0.18164,0.4375 3.5,3.5 0 0 0 0.34961,0.84375 3.5,3.5 0 0 0 0.11914,0.90625 l 25,43.30079 a 3.50035,3.50035 0 0 0 6.0625,0 l 25,-43.30079 A 3.50035,3.50035 0 0 0 400,516.11523 Z m 6.0625,7 h 37.875 L 375,555.91602 Z M 375,473.31445 a 3,3 0 0 0 -3,3 v 27.13477 l -23.5,13.56836 a 3.0003,3.0003 0 0 0 3,5.19531 l 23.5,-13.56641 23.5,13.56641 a 3,3 0 0 0 4.09766,-1.09766 A 3,3 0 0 0 401.5,517.01758 L 378,503.44922 v -27.13477 a 3,3 0 0 0 -3,-3 z m -0.90625,-0.38086 a 3.5,3.5 0 0 0 -0.375,0.28711 3.5,3.5 0 0 0 -0.46875,0.0625 3.5,3.5 0 0 0 -0.55664,0.72461 3.5,3.5 0 0 0 -0.72461,0.55664 l -25,43.30078 a 3.50035,3.50035 0 0 0 3.03125,5.25 h 50 a 3.50035,3.50035 0 0 0 3.03125,-5.25 l -25,-43.30078 a 3.5,3.5 0 0 0 -0.10742,-0.082 A 3.5,3.5 0 0 0 376.75,473.2832 3.5,3.5 0 0 0 376.28125,473.2207 3.5,3.5 0 0 0 375,473.05273 3.5,3.5 0 0 0 374.09375,472.93359 Z M 375,483.31445 l 18.9375,32.80078 h -37.875 z m 25,-53.30078 a 3,3 0 0 0 -3,3 v 27.13281 0.002 l -23.5,13.56836 a 3.0003,3.0003 0 0 0 3,5.19531 l 23.5,-13.56836 23.5,13.56836 a 3,3 0 0 0 4.09766,-1.09766 A 3,3 0 0 0 426.5,473.7168 L 403,460.14648 v -27.13281 a 3,3 0 0 0 -3,-3 z m -0.90625,-0.38086 a 3.5,3.5 0 0 0 -0.375,0.28711 3.5,3.5 0 0 0 -0.46875,0.0625 3.5,3.5 0 0 0 -0.55664,0.72461 3.5,3.5 0 0 0 -0.72461,0.55664 l -25,43.30078 a 3.50035,3.50035 0 0 0 3.03125,5.25 h 50 a 3.50035,3.50035 0 0 0 3.03125,-5.25 l -25,-43.30078 a 3.5,3.5 0 0 0 -0.10742,-0.082 3.5,3.5 0 0 0 -1.17383,-1.19922 3.5,3.5 0 0 0 -0.46875,-0.0625 3.5,3.5 0 0 0 -1.28125,-0.168 3.5,3.5 0 0 0 -0.90625,-0.11914 z M 400,440.01367 l 18.9375,32.80078 h -37.875 z m 25,-53.30273 a 3,3 0 0 0 -3,3 v 27.13476 0.002 l -23.5,13.5664 a 3.0004839,3.0004839 0 0 0 3,5.19727 l 23.5,-13.56836 23.5,13.56836 a 3,3 0 0 0 4.09766,-1.09766 A 3,3 0 0 0 451.5,430.41406 L 428,416.8457 v -27.13476 a 3,3 0 0 0 -3,-3 z m -0.90625,-0.38086 a 3.5,3.5 0 0 0 -0.375,0.28711 3.5,3.5 0 0 0 -0.46875,0.0625 3.5,3.5 0 0 0 -0.55664,0.72461 3.5,3.5 0 0 0 -0.72461,0.55664 l -25,43.30273 a 3.50035,3.50035 0 0 0 3.03125,5.25 h 50 a 3.50035,3.50035 0 0 0 3.03125,-5.25 l -25,-43.30273 a 3.5,3.5 0 0 0 -0.10742,-0.082 3.5,3.5 0 0 0 -1.17383,-1.19922 3.5,3.5 0 0 0 -0.46875,-0.0625 3.5,3.5 0 0 0 -1.28125,-0.168 3.5,3.5 0 0 0 -0.90625,-0.11914 z M 425,396.71094 l 18.9375,32.80273 h -37.875 z m 74.22266,-53.19922 a 3,3 0 0 0 -1.82032,1.39844 3,3 0 0 0 1.09766,4.09765 l 23.5,13.56836 v 27.13477 a 3,3 0 0 0 3,3 3,3 0 0 0 3,-3 v -27.13477 l 23.5,-13.56836 a 3.0003,3.0003 0 0 0 -3,-5.19531 L 525,357.37891 501.5,343.8125 a 3,3 0 0 0 -2.27734,-0.30078 z M 500,342.91016 a 3.5,3.5 0 0 0 -0.84375,0.34961 3.5,3.5 0 0 0 -0.90625,0.11914 3.5,3.5 0 0 0 -0.28906,0.375 3.5,3.5 0 0 0 -0.78516,1.02343 3.5,3.5 0 0 0 -0.49414,1.19532 3.5,3.5 0 0 0 -0.18164,0.4375 3.5,3.5 0 0 0 0.34961,0.84375 3.5,3.5 0 0 0 0.11914,0.90625 l 25,43.30078 a 3.50035,3.50035 0 0 0 6.0625,0 l 25,-43.30078 A 3.50035,3.50035 0 0 0 550,342.91016 Z m 6.0625,7 h 37.875 L 525,382.71094 Z m 43.16016,-6.39844 a 3,3 0 0 0 -1.82032,1.39844 3,3 0 0 0 1.09766,4.09765 l 23.5,13.56836 v 27.13477 a 3,3 0 0 0 3,3 3,3 0 0 0 3,-3 v -27.13477 l 23.5,-13.56836 a 3.0003,3.0003 0 0 0 -3,-5.19531 L 575,357.37891 551.5,343.8125 a 3,3 0 0 0 -2.27734,-0.30078 z M 550,342.91016 a 3.5,3.5 0 0 0 -0.84375,0.34961 3.5,3.5 0 0 0 -0.90625,0.11914 3.5,3.5 0 0 0 -0.28906,0.375 3.5,3.5 0 0 0 -0.78516,1.02343 3.5,3.5 0 0 0 -0.49414,1.19532 3.5,3.5 0 0 0 -0.18164,0.4375 3.5,3.5 0 0 0 0.34961,0.84375 3.5,3.5 0 0 0 0.11914,0.90625 l 25,43.30078 a 3.50035,3.50035 0 0 0 6.0625,0 l 25,-43.30078 A 3.50035,3.50035 0 0 0 600,342.91016 Z m 6.0625,7 h 37.875 L 575,382.71094 Z M 675,386.71094 a 3,3 0 0 0 -3,3 v 27.13476 l -23.5,13.56836 a 3,3 0 0 0 -1.09766,4.09961 3,3 0 0 0 4.09766,1.09766 l 23.5,-13.56836 23.5,13.56836 a 3.0004839,3.0004839 0 0 0 3,-5.19727 L 678,416.84766 v -0.002 -27.13476 a 3,3 0 0 0 -3,-3 z m -0.90625,-0.38086 a 3.5,3.5 0 0 0 -0.375,0.28711 3.5,3.5 0 0 0 -0.46875,0.0625 3.5,3.5 0 0 0 -0.55664,0.72461 3.5,3.5 0 0 0 -0.72461,0.55664 l -25,43.30273 a 3.50035,3.50035 0 0 0 3.03125,5.25 h 50 a 3.50035,3.50035 0 0 0 3.03125,-5.25 l -25,-43.30273 a 3.5,3.5 0 0 0 -0.10742,-0.082 3.5,3.5 0 0 0 -1.17383,-1.19922 3.5,3.5 0 0 0 -0.46875,-0.0625 3.5,3.5 0 0 0 -1.28125,-0.168 3.5,3.5 0 0 0 -0.90625,-0.11914 z M 675,396.71094 l 18.9375,32.80273 h -37.875 z m 25,33.30273 a 3,3 0 0 0 -3,3 v 27.13281 l -23.5,13.57032 a 3,3 0 0 0 -1.09766,4.09765 3,3 0 0 0 4.09766,1.09766 l 23.5,-13.56836 23.5,13.56836 a 3.0003,3.0003 0 0 0 3,-5.19531 L 703,460.14844 v -0.002 -27.13281 a 3,3 0 0 0 -3,-3 z m -0.90625,-0.38086 a 3.5,3.5 0 0 0 -0.375,0.28711 3.5,3.5 0 0 0 -0.46875,0.0625 3.5,3.5 0 0 0 -0.55664,0.72461 3.5,3.5 0 0 0 -0.72461,0.55664 l -25,43.30078 a 3.50035,3.50035 0 0 0 3.03125,5.25 h 50 a 3.50035,3.50035 0 0 0 3.03125,-5.25 l -25,-43.30078 a 3.5,3.5 0 0 0 -0.10742,-0.082 3.5,3.5 0 0 0 -1.17383,-1.19922 3.5,3.5 0 0 0 -0.46875,-0.0625 3.5,3.5 0 0 0 -1.28125,-0.168 3.5,3.5 0 0 0 -0.90625,-0.11914 z M 700,440.01367 l 18.9375,32.80078 h -37.875 z m -25.77734,120.00586 a 3,3 0 0 0 -1.82032,1.39649 3,3 0 0 0 1.09766,4.09765 l 23.5,13.57031 v 27.13477 a 3,3 0 0 0 3,3 3,3 0 0 0 3,-3 v -27.13477 -0.002 l 23.5,-13.56836 a 3.0003,3.0003 0 0 0 -3,-5.19531 L 700,573.88672 676.5,560.31836 a 3,3 0 0 0 -2.27734,-0.29883 z M 675,559.41602 a 3.5,3.5 0 0 0 -0.84375,0.3496 3.5,3.5 0 0 0 -0.90625,0.11915 3.5,3.5 0 0 0 -0.28906,0.375 3.5,3.5 0 0 0 -0.78516,1.02343 3.5,3.5 0 0 0 -0.49414,1.19532 3.5,3.5 0 0 0 -0.18164,0.4375 3.5,3.5 0 0 0 0.34961,0.84375 3.5,3.5 0 0 0 0.11914,0.90625 l 25,43.30273 a 3.50035,3.50035 0 0 0 6.0625,0 l 25,-43.30273 A 3.50035,3.50035 0 0 0 725,559.41602 Z m 6.0625,7 h 37.875 L 700,599.21875 Z m -31.83984,36.90429 a 3,3 0 0 0 -1.82032,1.39844 3,3 0 0 0 1.09766,4.09766 l 23.5,13.56836 v 27.13476 a 3,3 0 0 0 3,3 3,3 0 0 0 3,-3 v -27.13476 -0.002 l 23.5,-13.5664 a 3.0004839,3.0004839 0 0 0 -3,-5.19727 L 675,617.1875 651.5,603.61914 a 3,3 0 0 0 -2.27734,-0.29883 z M 650,602.71875 a 3.5,3.5 0 0 0 -0.8457,0.34961 3.5,3.5 0 0 0 -0.9043,0.11914 3.5,3.5 0 0 0 -0.28711,0.37305 3.5,3.5 0 0 0 -0.78711,1.02734 3.5,3.5 0 0 0 -0.49414,1.19336 3.5,3.5 0 0 0 -0.18164,0.4375 3.5,3.5 0 0 0 0.34961,0.84375 3.5,3.5 0 0 0 0.11914,0.90625 l 25,43.30078 a 3.50035,3.50035 0 0 0 6.0625,0 l 25,-43.30078 A 3.50035,3.50035 0 0 0 700,602.71875 Z m 6.0625,7 h 37.875 L 675,642.51953 Z m -81.83984,36.90234 a 3,3 0 0 0 -1.82032,1.39844 3,3 0 0 0 1.09766,4.09766 l 23.5,13.56836 v 27.13476 a 3,3 0 0 0 3,3 3,3 0 0 0 3,-3 v -27.13476 l 23.5,-13.56836 a 3.0003,3.0003 0 0 0 -3,-5.19532 L 600,660.48828 576.5,646.92187 a 3,3 0 0 0 -2.27734,-0.30078 z M 575,646.01953 a 3.5,3.5 0 0 0 -0.84375,0.34961 3.5,3.5 0 0 0 -0.90625,0.11914 3.5,3.5 0 0 0 -0.28906,0.375 3.5,3.5 0 0 0 -0.78516,1.02344 3.5,3.5 0 0 0 -0.49414,1.19531 3.5,3.5 0 0 0 -0.18164,0.4375 3.5,3.5 0 0 0 0.34961,0.84375 3.5,3.5 0 0 0 0.11914,0.90625 l 25,43.30078 a 3.50035,3.50035 0 0 0 6.0625,0 l 25,-43.30078 A 3.50035,3.50035 0 0 0 625,646.01953 Z m 6.0625,7 h 37.875 L 600,685.82031 Z M 650,603.21875 a 3,3 0 0 0 -3,3 v 27.13281 0.002 l -23.5,13.56835 a 3.0003,3.0003 0 0 0 3,5.19532 l 23.5,-13.56836 23.5,13.56836 a 3,3 0 0 0 4.09766,-1.09766 3,3 0 0 0 -1.09766,-4.0977 L 653,633.35156 v -27.13281 a 3,3 0 0 0 -3,-3 z m -0.90625,-0.38086 a 3.5,3.5 0 0 0 -0.375,0.28711 3.5,3.5 0 0 0 -0.46875,0.0625 3.5,3.5 0 0 0 -0.55664,0.72461 3.5,3.5 0 0 0 -0.72461,0.55664 l -25,43.30078 a 3.50035,3.50035 0 0 0 3.03125,5.25 h 50 a 3.50035,3.50035 0 0 0 3.03125,-5.25 l -25,-43.30078 a 3.5,3.5 0 0 0 -0.10742,-0.082 A 3.5,3.5 0 0 0 651.75,603.1875 3.5,3.5 0 0 0 651.28125,603.125 3.5,3.5 0 0 0 650,602.95703 3.5,3.5 0 0 0 649.09375,602.83789 Z M 650,613.21875 l 18.9375,32.80078 h -37.875 z m 50,-96.60352 a 3,3 0 0 0 -3,3 V 546.75 l -23.5,13.56836 a 3,3 0 0 0 -1.09766,4.09766 3,3 0 0 0 4.09766,1.09765 l 23.5,-13.5664 23.5,13.5664 a 3.0003,3.0003 0 0 0 3,-5.19531 L 703,546.75 v -27.13477 a 3,3 0 0 0 -3,-3 z m -0.90625,-0.38086 a 3.5,3.5 0 0 0 -0.375,0.28711 3.5,3.5 0 0 0 -0.46875,0.0625 3.5,3.5 0 0 0 -0.55664,0.72461 3.5,3.5 0 0 0 -0.72461,0.55664 l -25,43.30079 a 3.50035,3.50035 0 0 0 3.03125,5.25 h 50 a 3.50035,3.50035 0 0 0 3.03125,-5.25 l -25,-43.30079 a 3.5,3.5 0 0 0 -0.10742,-0.082 3.5,3.5 0 0 0 -1.17383,-1.19922 3.5,3.5 0 0 0 -0.46875,-0.0625 A 3.5,3.5 0 0 0 700,516.35352 3.5,3.5 0 0 0 699.09375,516.23437 Z M 700,526.61523 l 18.9375,32.80079 h -37.875 z m -25.77734,-53.19921 a 3,3 0 0 0 -1.82032,1.39843 3,3 0 0 0 1.09766,4.09766 l 23.5,13.56836 v 27.13476 a 3,3 0 0 0 3,3 3,3 0 0 0 3,-3 v -27.13476 l 23.5,-13.56836 a 3.0003,3.0003 0 0 0 -3,-5.19531 L 700,487.2832 676.5,473.7168 a 3,3 0 0 0 -2.27734,-0.30078 z M 675,472.81445 a 3.5,3.5 0 0 0 -0.84375,0.34961 3.5,3.5 0 0 0 -0.90625,0.11914 3.5,3.5 0 0 0 -0.28906,0.375 3.5,3.5 0 0 0 -0.78516,1.02344 3.5,3.5 0 0 0 -0.49414,1.19531 3.5,3.5 0 0 0 -0.18164,0.4375 3.5,3.5 0 0 0 0.34961,0.84375 3.5,3.5 0 0 0 0.11914,0.90625 l 25,43.30078 a 3.50035,3.50035 0 0 0 6.0625,0 l 25,-43.30078 A 3.50035,3.50035 0 0 0 725,472.81445 Z m 6.0625,7 h 37.875 L 700,512.61523 Z m -56.83984,-93 a 3,3 0 0 0 -1.82032,1.39649 3,3 0 0 0 1.09766,4.09765 l 23.5,13.57032 v 27.13476 a 3,3 0 0 0 3,3 3,3 0 0 0 3,-3 v -27.13476 -0.002 l 23.5,-13.56836 a 3.0003,3.0003 0 0 0 -3,-5.19531 l -23.5,13.5684 -23.5,-13.56836 a 3,3 0 0 0 -2.27734,-0.29883 z M 625,386.21094 a 3.5,3.5 0 0 0 -0.84375,0.34961 3.5,3.5 0 0 0 -0.90625,0.11914 3.5,3.5 0 0 0 -0.28906,0.375 3.5,3.5 0 0 0 -0.78516,1.02343 3.5,3.5 0 0 0 -0.49414,1.19532 3.5,3.5 0 0 0 -0.18164,0.4375 3.5,3.5 0 0 0 0.34961,0.84375 3.5,3.5 0 0 0 0.11914,0.90625 l 25,43.30273 a 3.50035,3.50035 0 0 0 6.0625,0 l 25,-43.30273 A 3.50035,3.50035 0 0 0 675,386.21094 Z m 6.0625,7 h 37.875 L 650,426.01367 Z M 600,343.41016 a 3,3 0 0 0 -3,3 v 27.13476 l -23.5,13.56836 a 3,3 0 0 0 -1.09766,4.09766 3,3 0 0 0 4.09766,1.09765 l 23.5,-13.5664 23.5,13.5664 a 3.0003,3.0003 0 0 0 3,-5.19531 L 603,373.54492 v -27.13476 a 3,3 0 0 0 -3,-3 z m -0.90625,-0.38086 a 3.5,3.5 0 0 0 -0.375,0.28711 3.5,3.5 0 0 0 -0.46875,0.0625 3.5,3.5 0 0 0 -0.55664,0.72461 3.5,3.5 0 0 0 -0.72461,0.55664 l -25,43.30078 a 3.50035,3.50035 0 0 0 3.03125,5.25 h 50 a 3.50035,3.50035 0 0 0 3.03125,-5.25 l -25,-43.30078 a 3.5,3.5 0 0 0 -0.10742,-0.082 3.5,3.5 0 0 0 -1.17383,-1.19921 3.5,3.5 0 0 0 -0.46875,-0.0625 A 3.5,3.5 0 0 0 600,343.14844 3.5,3.5 0 0 0 599.09375,343.0293 Z M 600,353.41016 l 18.9375,32.80078 h -37.875 z m -100,-10 a 3,3 0 0 0 -3,3 v 27.13476 l -23.5,13.56836 a 3,3 0 0 0 -1.09766,4.09766 3,3 0 0 0 4.09766,1.09765 l 23.5,-13.5664 23.5,13.5664 a 3.0003,3.0003 0 0 0 3,-5.19531 L 503,373.54492 v -27.13476 a 3,3 0 0 0 -3,-3 z m -0.90625,-0.38086 a 3.5,3.5 0 0 0 -0.375,0.28711 3.5,3.5 0 0 0 -0.46875,0.0625 3.5,3.5 0 0 0 -0.55664,0.72461 3.5,3.5 0 0 0 -0.72461,0.55664 l -25,43.30078 a 3.50035,3.50035 0 0 0 3.03125,5.25 h 50 a 3.50035,3.50035 0 0 0 3.03125,-5.25 l -25,-43.30078 a 3.5,3.5 0 0 0 -0.10742,-0.082 3.5,3.5 0 0 0 -1.17383,-1.19921 3.5,3.5 0 0 0 -0.46875,-0.0625 A 3.5,3.5 0 0 0 500,343.14844 3.5,3.5 0 0 0 499.09375,343.0293 Z M 500,353.41016 l 18.9375,32.80078 h -37.875 z m -75.77734,33.40429 a 3,3 0 0 0 -1.82032,1.39649 3,3 0 0 0 1.09766,4.09765 l 23.5,13.57032 v 27.13476 a 3,3 0 0 0 3,3 3,3 0 0 0 3,-3 v -27.13476 -0.002 l 23.5,-13.56836 a 3.0003,3.0003 0 0 0 -3,-5.19531 l -23.5,13.5684 -23.5,-13.56836 a 3,3 0 0 0 -2.27734,-0.29883 z M 425,386.21094 a 3.5,3.5 0 0 0 -0.84375,0.34961 3.5,3.5 0 0 0 -0.90625,0.11914 3.5,3.5 0 0 0 -0.28906,0.375 3.5,3.5 0 0 0 -0.78516,1.02343 3.5,3.5 0 0 0 -0.49414,1.19532 3.5,3.5 0 0 0 -0.18164,0.4375 3.5,3.5 0 0 0 0.34961,0.84375 3.5,3.5 0 0 0 0.11914,0.90625 l 25,43.30273 a 3.50035,3.50035 0 0 0 6.0625,0 l 25,-43.30273 A 3.50035,3.50035 0 0 0 475,386.21094 Z m 6.0625,7 h 37.875 L 450,426.01367 Z m -56.83984,80.20508 a 3,3 0 0 0 -1.82032,1.39843 3,3 0 0 0 1.09766,4.09766 l 23.5,13.56836 v 27.13476 a 3,3 0 0 0 3,3 3,3 0 0 0 3,-3 v -27.13476 l 23.5,-13.56836 a 3.0003,3.0003 0 0 0 -3,-5.19531 L 400,487.2832 376.5,473.7168 a 3,3 0 0 0 -2.27734,-0.30078 z M 375,472.81445 a 3.5,3.5 0 0 0 -0.84375,0.34961 3.5,3.5 0 0 0 -0.90625,0.11914 3.5,3.5 0 0 0 -0.28906,0.375 3.5,3.5 0 0 0 -0.78516,1.02344 3.5,3.5 0 0 0 -0.49414,1.19531 3.5,3.5 0 0 0 -0.18164,0.4375 3.5,3.5 0 0 0 0.34961,0.84375 3.5,3.5 0 0 0 0.11914,0.90625 l 25,43.30078 a 3.50035,3.50035 0 0 0 6.0625,0 l 25,-43.30078 A 3.50035,3.50035 0 0 0 425,472.81445 Z m 6.0625,7 h 37.875 L 400,512.61523 Z M 400,516.61523 a 3,3 0 0 0 -3,3 V 546.75 l -23.5,13.56836 a 3,3 0 0 0 -1.09766,4.09766 3,3 0 0 0 4.09766,1.09765 l 23.5,-13.5664 23.5,13.5664 a 3.0003,3.0003 0 0 0 3,-5.19531 L 403,546.75 v -27.13477 a 3,3 0 0 0 -3,-3 z m -0.90625,-0.38086 a 3.5,3.5 0 0 0 -0.375,0.28711 3.5,3.5 0 0 0 -0.46875,0.0625 3.5,3.5 0 0 0 -0.55664,0.72461 3.5,3.5 0 0 0 -0.72461,0.55664 l -25,43.30079 a 3.50035,3.50035 0 0 0 3.03125,5.25 h 50 a 3.50035,3.50035 0 0 0 3.03125,-5.25 l -25,-43.30079 a 3.5,3.5 0 0 0 -0.10742,-0.082 3.5,3.5 0 0 0 -1.17383,-1.19922 3.5,3.5 0 0 0 -0.46875,-0.0625 A 3.5,3.5 0 0 0 400,516.35352 3.5,3.5 0 0 0 399.09375,516.23437 Z M 400,526.61523 l 18.9375,32.80079 h -37.875 z m 24.22266,33.4043 a 3,3 0 0 0 -1.82032,1.39649 3,3 0 0 0 1.09766,4.09765 l 23.5,13.57031 v 27.13477 a 3,3 0 0 0 3,3 3,3 0 0 0 3,-3 v -27.13477 -0.002 l 23.5,-13.56836 a 3.0003,3.0003 0 0 0 -3,-5.19531 L 450,573.88672 426.5,560.31836 a 3,3 0 0 0 -2.27734,-0.29883 z M 425,559.41602 a 3.5,3.5 0 0 0 -0.84375,0.3496 3.5,3.5 0 0 0 -0.90625,0.11915 3.5,3.5 0 0 0 -0.28906,0.375 3.5,3.5 0 0 0 -0.78516,1.02343 3.5,3.5 0 0 0 -0.49414,1.19532 3.5,3.5 0 0 0 -0.18164,0.4375 3.5,3.5 0 0 0 0.34961,0.84375 3.5,3.5 0 0 0 0.11914,0.90625 l 25,43.30273 a 3.50035,3.50035 0 0 0 6.0625,0 l 25,-43.30273 A 3.50035,3.50035 0 0 0 475,559.41602 Z m 6.0625,7 h 37.875 L 450,599.21875 Z M 550,603.21875 a 3,3 0 0 0 -3,3 v 27.13281 0.002 l -23.5,13.56835 a 3.0003,3.0003 0 0 0 3,5.19532 l 23.5,-13.56836 23.5,13.56836 a 3,3 0 0 0 4.09766,-1.09766 3,3 0 0 0 -1.09766,-4.0977 L 553,633.35156 v -27.13281 a 3,3 0 0 0 -3,-3 z m -0.90625,-0.38086 a 3.5,3.5 0 0 0 -0.375,0.28711 3.5,3.5 0 0 0 -0.46875,0.0625 3.5,3.5 0 0 0 -0.55664,0.72461 3.5,3.5 0 0 0 -0.72461,0.55664 l -25,43.30078 a 3.50035,3.50035 0 0 0 3.03125,5.25 h 50 a 3.50035,3.50035 0 0 0 3.03125,-5.25 l -25,-43.30078 a 3.5,3.5 0 0 0 -0.10742,-0.082 A 3.5,3.5 0 0 0 551.75,603.1875 3.5,3.5 0 0 0 551.28125,603.125 3.5,3.5 0 0 0 550,602.95703 3.5,3.5 0 0 0 549.09375,602.83789 Z M 550,613.21875 l 18.9375,32.80078 h -37.875 z m 74.22266,-53.19922 a 3,3 0 0 0 -1.82032,1.39649 3,3 0 0 0 1.09766,4.09765 l 23.5,13.57031 v 27.13477 a 3,3 0 0 0 3,3 3,3 0 0 0 3,-3 v -27.13477 -0.002 l 23.5,-13.56836 a 3.0003,3.0003 0 0 0 -3,-5.19531 L 650,573.88672 626.5,560.31836 a 3,3 0 0 0 -2.27734,-0.29883 z M 625,559.41602 a 3.5,3.5 0 0 0 -0.84375,0.3496 3.5,3.5 0 0 0 -0.90625,0.11915 3.5,3.5 0 0 0 -0.28906,0.375 3.5,3.5 0 0 0 -0.78516,1.02343 3.5,3.5 0 0 0 -0.49414,1.19532 3.5,3.5 0 0 0 -0.18164,0.4375 3.5,3.5 0 0 0 0.34961,0.84375 3.5,3.5 0 0 0 0.11914,0.90625 l 25,43.30273 a 3.50035,3.50035 0 0 0 6.0625,0 l 25,-43.30273 A 3.50035,3.50035 0 0 0 675,559.41602 Z m 6.0625,7 h 37.875 L 650,599.21875 Z M 650,430.01367 a 3,3 0 0 0 -3,3 v 27.13281 0.002 l -23.5,13.56836 a 3.0003,3.0003 0 0 0 3,5.19531 l 23.5,-13.56836 23.5,13.56836 a 3,3 0 0 0 4.09766,-1.09766 A 3,3 0 0 0 676.5,473.7168 L 653,460.14648 v -27.13281 a 3,3 0 0 0 -3,-3 z m -0.90625,-0.38086 a 3.5,3.5 0 0 0 -0.375,0.28711 3.5,3.5 0 0 0 -0.46875,0.0625 3.5,3.5 0 0 0 -0.55664,0.72461 3.5,3.5 0 0 0 -0.72461,0.55664 l -25,43.30078 a 3.50035,3.50035 0 0 0 3.03125,5.25 h 50 a 3.50035,3.50035 0 0 0 3.03125,-5.25 l -25,-43.30078 a 3.5,3.5 0 0 0 -0.10742,-0.082 3.5,3.5 0 0 0 -1.17383,-1.19922 3.5,3.5 0 0 0 -0.46875,-0.0625 3.5,3.5 0 0 0 -1.28125,-0.168 3.5,3.5 0 0 0 -0.90625,-0.11914 z M 650,440.01367 l 18.9375,32.80078 h -37.875 z M 524.22266,386.81445 a 3,3 0 0 0 -1.82032,1.39649 3,3 0 0 0 1.09766,4.09765 l 23.5,13.57032 v 27.13476 a 3,3 0 0 0 3,3 3,3 0 0 0 3,-3 v -27.13476 -0.002 l 23.5,-13.56836 a 3.0003,3.0003 0 0 0 -3,-5.19531 l -23.5,13.5684 -23.5,-13.56836 a 3,3 0 0 0 -2.27734,-0.29883 z M 525,386.21094 a 3.5,3.5 0 0 0 -0.84375,0.34961 3.5,3.5 0 0 0 -0.90625,0.11914 3.5,3.5 0 0 0 -0.28906,0.375 3.5,3.5 0 0 0 -0.78516,1.02343 3.5,3.5 0 0 0 -0.49414,1.19532 3.5,3.5 0 0 0 -0.18164,0.4375 3.5,3.5 0 0 0 0.34961,0.84375 3.5,3.5 0 0 0 0.11914,0.90625 l 25,43.30273 a 3.50035,3.50035 0 0 0 6.0625,0 l 25,-43.30273 A 3.50035,3.50035 0 0 0 575,386.21094 Z m 6.0625,7 h 37.875 L 550,426.01367 Z M 450,430.01367 a 3,3 0 0 0 -3,3 v 27.13281 l -23.5,13.57032 a 3,3 0 0 0 -1.09766,4.09765 3,3 0 0 0 4.09766,1.09766 l 23.5,-13.56836 23.5,13.56836 a 3.0003,3.0003 0 0 0 3,-5.19531 L 453,460.14844 v -0.002 -27.13281 a 3,3 0 0 0 -3,-3 z m -0.90625,-0.38086 a 3.5,3.5 0 0 0 -0.375,0.28711 3.5,3.5 0 0 0 -0.46875,0.0625 3.5,3.5 0 0 0 -0.55664,0.72461 3.5,3.5 0 0 0 -0.72461,0.55664 l -25,43.30078 a 3.50035,3.50035 0 0 0 3.03125,5.25 h 50 a 3.50035,3.50035 0 0 0 3.03125,-5.25 l -25,-43.30078 a 3.5,3.5 0 0 0 -0.10742,-0.082 3.5,3.5 0 0 0 -1.17383,-1.19922 3.5,3.5 0 0 0 -0.46875,-0.0625 3.5,3.5 0 0 0 -1.28125,-0.168 3.5,3.5 0 0 0 -0.90625,-0.11914 z M 450,440.01367 l 18.9375,32.80078 h -37.875 z m 50,76.60156 a 3,3 0 0 0 -3,3 V 546.75 l -23.5,13.56836 a 3.0003,3.0003 0 0 0 3,5.19531 l 23.5,-13.5664 23.5,13.5664 a 3,3 0 0 0 4.09766,-1.09765 A 3,3 0 0 0 526.5,560.31836 L 503,546.75 v -27.13477 a 3,3 0 0 0 -3,-3 z m -0.90625,-0.38086 a 3.5,3.5 0 0 0 -0.375,0.28711 3.5,3.5 0 0 0 -0.46875,0.0625 3.5,3.5 0 0 0 -0.55664,0.72461 3.5,3.5 0 0 0 -0.72461,0.55664 l -25,43.30079 a 3.50035,3.50035 0 0 0 3.03125,5.25 h 50 a 3.50035,3.50035 0 0 0 3.03125,-5.25 l -25,-43.30079 a 3.5,3.5 0 0 0 -0.10742,-0.082 3.5,3.5 0 0 0 -1.17383,-1.19922 3.5,3.5 0 0 0 -0.46875,-0.0625 A 3.5,3.5 0 0 0 500,516.35352 3.5,3.5 0 0 0 499.09375,516.23437 Z M 500,526.61523 l 18.9375,32.80079 h -37.875 z m 24.22266,33.4043 a 3,3 0 0 0 -1.82032,1.39649 3,3 0 0 0 1.09766,4.09765 l 23.5,13.57031 v 27.13477 a 3,3 0 0 0 3,3 3,3 0 0 0 3,-3 v -27.13477 -0.002 l 23.5,-13.56836 a 3.0003,3.0003 0 0 0 -3,-5.19531 L 550,573.88672 526.5,560.31836 a 3,3 0 0 0 -2.27734,-0.29883 z M 525,559.41602 a 3.5,3.5 0 0 0 -0.84375,0.3496 3.5,3.5 0 0 0 -0.90625,0.11915 3.5,3.5 0 0 0 -0.28906,0.375 3.5,3.5 0 0 0 -0.78516,1.02343 3.5,3.5 0 0 0 -0.49414,1.19532 3.5,3.5 0 0 0 -0.18164,0.4375 3.5,3.5 0 0 0 0.34961,0.84375 3.5,3.5 0 0 0 0.11914,0.90625 l 25,43.30273 a 3.50035,3.50035 0 0 0 6.0625,0 l 25,-43.30273 A 3.50035,3.50035 0 0 0 575,559.41602 Z m 6.0625,7 h 37.875 L 550,599.21875 Z M 600,516.61523 a 3,3 0 0 0 -3,3 V 546.75 l -23.5,13.56836 a 3,3 0 0 0 -1.09766,4.09766 3,3 0 0 0 4.09766,1.09765 l 23.5,-13.5664 23.5,13.5664 a 3.0003,3.0003 0 0 0 3,-5.19531 L 603,546.75 v -27.13477 a 3,3 0 0 0 -3,-3 z m -0.90625,-0.38086 a 3.5,3.5 0 0 0 -0.375,0.28711 3.5,3.5 0 0 0 -0.46875,0.0625 3.5,3.5 0 0 0 -0.55664,0.72461 3.5,3.5 0 0 0 -0.72461,0.55664 l -25,43.30079 a 3.50035,3.50035 0 0 0 3.03125,5.25 h 50 a 3.50035,3.50035 0 0 0 3.03125,-5.25 l -25,-43.30079 a 3.5,3.5 0 0 0 -0.10742,-0.082 3.5,3.5 0 0 0 -1.17383,-1.19922 3.5,3.5 0 0 0 -0.46875,-0.0625 A 3.5,3.5 0 0 0 600,516.35352 3.5,3.5 0 0 0 599.09375,516.23437 Z M 600,526.61523 l 18.9375,32.80079 h -37.875 z m -25.77734,-53.19921 a 3,3 0 0 0 -1.82032,1.39843 3,3 0 0 0 1.09766,4.09766 l 23.5,13.56836 v 27.13476 a 3,3 0 0 0 3,3 3,3 0 0 0 3,-3 v -27.13476 l 23.5,-13.56836 a 3.0003,3.0003 0 0 0 -3,-5.19531 L 600,487.2832 576.5,473.7168 a 3,3 0 0 0 -2.27734,-0.30078 z M 575,472.81445 a 3.5,3.5 0 0 0 -0.84375,0.34961 3.5,3.5 0 0 0 -0.90625,0.11914 3.5,3.5 0 0 0 -0.28906,0.375 3.5,3.5 0 0 0 -0.78516,1.02344 3.5,3.5 0 0 0 -0.49414,1.19531 3.5,3.5 0 0 0 -0.18164,0.4375 3.5,3.5 0 0 0 0.34961,0.84375 3.5,3.5 0 0 0 0.11914,0.90625 l 25,43.30078 a 3.50035,3.50035 0 0 0 6.0625,0 l 25,-43.30078 A 3.50035,3.50035 0 0 0 625,472.81445 Z m 6.0625,7 h 37.875 L 600,512.61523 Z m -106.83984,-6.39843 a 3,3 0 0 0 -1.82032,1.39843 3,3 0 0 0 1.09766,4.09766 l 23.5,13.56836 v 27.13476 a 3,3 0 0 0 3,3 3,3 0 0 0 3,-3 v -27.13476 l 23.5,-13.56836 a 3.0003,3.0003 0 0 0 -3,-5.19531 L 500,487.2832 476.5,473.7168 a 3,3 0 0 0 -2.27734,-0.30078 z M 475,472.81445 a 3.5,3.5 0 0 0 -0.84375,0.34961 3.5,3.5 0 0 0 -0.90625,0.11914 3.5,3.5 0 0 0 -0.28906,0.375 3.5,3.5 0 0 0 -0.78516,1.02344 3.5,3.5 0 0 0 -0.49414,1.19531 3.5,3.5 0 0 0 -0.18164,0.4375 3.5,3.5 0 0 0 0.34961,0.84375 3.5,3.5 0 0 0 0.11914,0.90625 l 25,43.30078 a 3.50035,3.50035 0 0 0 6.0625,0 l 25,-43.30078 A 3.50035,3.50035 0 0 0 525,472.81445 Z m 6.0625,7 h 37.875 L 500,512.61523 Z M 550,430.01367 a 3,3 0 0 0 -3,3 v 27.13281 l -23.5,13.57032 a 3,3 0 0 0 -1.09766,4.09765 3,3 0 0 0 4.09766,1.09766 l 23.5,-13.56836 23.5,13.56836 a 3.0003,3.0003 0 0 0 3,-5.19531 L 553,460.14844 v -0.002 -27.13281 a 3,3 0 0 0 -3,-3 z m -0.90625,-0.38086 a 3.5,3.5 0 0 0 -0.375,0.28711 3.5,3.5 0 0 0 -0.46875,0.0625 3.5,3.5 0 0 0 -0.55664,0.72461 3.5,3.5 0 0 0 -0.72461,0.55664 l -25,43.30078 a 3.50035,3.50035 0 0 0 3.03125,5.25 h 50 a 3.50035,3.50035 0 0 0 3.03125,-5.25 l -25,-43.30078 a 3.5,3.5 0 0 0 -0.10742,-0.082 3.5,3.5 0 0 0 -1.17383,-1.19922 3.5,3.5 0 0 0 -0.46875,-0.0625 3.5,3.5 0 0 0 -1.28125,-0.168 3.5,3.5 0 0 0 -0.90625,-0.11914 z M 550,440.01367 l 18.9375,32.80078 h -37.875 z" />
</svg>
