<?xml version="1.0" encoding="UTF-8" standalone="no"?>
<svg
   version="1.1"
   width="355.88205"
   height="261.71371"
   class="svg_pane"
   data-attrTriangle="{&quot;fill&quot;:&quot;none&quot;,&quot;stroke&quot;:&quot;black&quot;,&quot;stroke-width&quot;:4,&quot;stroke-linecap&quot;:&quot;round&quot;,&quot;stroke-linejoin&quot;:&quot;round&quot;}"
   data-attrPattern="{&quot;fill&quot;:&quot;none&quot;,&quot;stroke&quot;:&quot;black&quot;,&quot;stroke-width&quot;:8,&quot;stroke-linecap&quot;:&quot;round&quot;,&quot;stroke-linejoin&quot;:&quot;round&quot;}"
   id="svg574"
   xmlns="http://www.w3.org/2000/svg"
   xmlns:svg="http://www.w3.org/2000/svg">
  <defs
     id="defs574" />
  <path
     id="polyline246"
     style="color:#000000;vector-effect:non-scaling-stroke;fill:none;stroke:#ff0000;stroke-width:1.48526;stroke-linecap:round;stroke-linejoin:round;stroke-dasharray:none;stroke-opacity:1;-inkscape-stroke:hairline"
     d="M 82.47891,5.7373047e-7 A 6.1095471,5.7771793 0 0 0 81.71521,0.29901057 a 6.1095471,5.7771793 0 0 0 -0.81739,-0.10157 6.1095471,5.7771793 0 0 0 -0.65629,0.47674 6.1095471,5.7771793 0 0 0 -0.8174,0.10155 6.1095471,5.7771793 0 0 0 -0.50116,0.61778003 6.1095471,5.7771793 0 0 0 -0.46538,0.57546 6.1095471,5.7771793 0 0 0 -0.006,0.003 6.1095471,5.7771793 0 0 0 -1.26485,0.9168 L 39.00207,65.430671 0.81740046,127.96977 a 6.1101581,5.777757 0 0 0 -0.33114,1.77716 6.1095471,5.7771793 0 0 0 -0.17005,0.38928 A 6.1095471,5.7771793 0 0 0 4.589844e-7,130.85836 6.1095471,5.7771793 0 0 0 0.19690046,131.30688 a 6.1101581,5.777757 0 0 0 0.49519,1.53456 6.1095471,5.7771793 0 0 0 0.12531,0.90551 L 39.00207,196.28604 77.18674,258.82513 a 6.1101581,5.777757 0 0 0 0.82931,0.65727 6.1101581,5.777757 0 0 0 1.5423,1.22709 6.1101581,5.777757 0 0 0 1.91222,0.65727 6.1101581,5.777757 0 0 0 1.00832,0.34696 h 76.36934 76.36939 a 6.1101581,5.777757 0 0 0 2.0703,-0.34696 6.1101581,5.777757 0 0 0 0.039,-0.0141 6.1101581,5.777757 0 0 0 3.183,-2.52752 l 38.1847,-62.53909 38.1847,-62.53909 38.1846,-62.539099 a 6.1101581,5.777757 0 0 0 0.725,-3.89282 6.1101581,5.777757 0 0 0 -0.725,-1.88436 L 316.87932,2.8887806 a 6.1101581,5.777757 0 0 0 -1.9988,-1.88436 6.1095471,5.7771793 0 0 0 -0.2386,-0.22850003 6.1095471,5.7771793 0 0 0 -0.2357,-0.0282 6.1101581,5.777757 0 0 0 -2.8191,-0.74751999627 h -76.3693 -76.36939 z M 99.16978,11.554351 h 42.98759 l -21.49379,11.7349 z m 76.36934,0 h 42.98759 l -21.4938,11.7349 z m 76.3693,0 h 42.9876 l -21.4938,11.7349 z m -155.79042,5.00425 21.4908,11.73208 v 23.46696 z m 76.36934,0 21.4908,11.73208 v 23.46696 z m 76.36938,0 21.4908,11.73208 v 23.46696 z m -103.65054,0.003 -21.48783,35.19622 v -23.46414 z m 76.36934,0 -21.48783,35.19622 v -23.46414 z m 76.3693,0 -21.4878,35.19622 v -23.46414 z m -218.52069,5.77718 v 23.46697 l -21.4908,11.73208 z m 6.10955,0 21.48783,35.19622 -21.48783,-11.73206 z m 70.25979,0 v 23.46416 l -21.48783,11.73206 z m 6.10955,0 21.4908,35.19905 -21.4908,-11.73208 z m 70.2598,0 v 23.46416 l -21.48784,11.73206 z m 6.1095,0 21.4879,35.19622 -21.4879,-11.73206 z m 70.2598,0 v 23.46416 l -21.4878,11.73206 z m 6.1096,0 21.4908,35.19905 -21.4908,-11.73208 z m -232.16281,28.46841 21.49677,11.73489 H 60.98213 Z m 76.36934,0 21.49677,11.73489 h -42.99355 z m 76.36937,0 21.4967,11.73489 h -42.99351 z m 76.3693,0 21.4968,11.73489 h -42.9936 z M 60.9881,74.096441 h 42.98161 l -21.4908,11.73208 z m 76.36934,0 h 42.98161 l -21.4908,11.73208 z m 76.36934,0 h 42.98164 l -21.4908,11.73208 z m 76.36934,0 h 42.9816 l -21.4908,11.73208 z m -232.16279,5.00144 21.4908,11.73208 v 23.466959 z m 49.09116,0 -21.49081,35.199039 V 90.832771 Z m 27.27818,0 21.4908,11.73208 v 23.466959 z m 49.09115,0 -21.4908,35.199039 V 90.832771 Z m 27.27819,0 21.49081,11.73208 v 23.466959 z m 49.09111,0 -21.4908,35.199039 V 90.832771 Z m 27.2782,0 21.4908,11.73208 v 23.466959 z m 49.0912,0 -21.4908,35.199039 V 90.832771 Z m -294.89306,5.78282 v 23.464149 l -21.4908,11.73208 z m 6.10955,0 21.48783,35.193399 -21.48783,-11.73207 z m 70.25979,0 V 108.34485 L 96.118,120.07693 Z m 6.10955,0 21.48783,35.193399 -21.48783,-11.73207 z m 70.25979,0 v 23.461329 l -21.48783,11.73207 z m 6.10955,0 21.4908,35.196229 -21.4908,-11.73208 z m 70.25983,0 v 23.461329 l -21.4879,11.73207 z m 6.1095,0 21.4908,35.196229 -21.4908,-11.73208 z m -232.16278,28.465579 21.4938,11.7349 h -42.9876 z m 76.36934,0 21.49379,11.7349 H 99.16978 Z m 76.36933,0 21.4938,11.7349 h -42.98759 z m 76.36931,0 21.4938,11.7349 h -42.9876 z M 22.80343,136.63554 h 42.98161 l -21.4908,11.73207 z m 76.36934,0 h 42.98161 l -21.4908,11.73207 z m 76.36934,0 h 42.98161 l -21.49081,11.73207 z m 76.36931,0 h 42.9816 l -21.4908,11.73207 z m -232.16276,5.00426 21.4908,11.73206 v 23.46416 z m 49.09116,0 -21.49081,35.19622 v -23.46416 z m 27.27818,0 21.4908,11.73206 v 23.46416 z m 49.09115,0 -21.4908,35.19622 v -23.46416 z m 27.27819,0 21.4908,11.73206 v 23.46416 z m 49.09115,0 -21.4908,35.19622 v -23.46416 z m 27.27823,0 21.4908,11.73206 v 23.46416 z m 49.0911,0 -21.4908,35.19622 v -23.46416 z m -218.52369,5.78 v 23.46414 l -21.4908,11.73208 z m 6.10955,0 21.49081,35.19622 -21.49081,-11.73208 z m 70.25979,0 v 23.46414 l -21.4908,11.73208 z m 6.10955,0 21.4908,35.19622 -21.4908,-11.73208 z m 70.2598,0 v 23.46414 l -21.49081,11.73208 z m 6.1095,0 21.4908,35.19622 -21.4908,-11.73208 z m -155.79639,28.46557 21.49378,11.7349 h -42.9846 z m 76.37232,0 h 0.003 l 21.49082,11.7349 h -42.98759 z m 76.36637,0 21.4938,11.7349 H 213.72379 Z M 60.98511,199.17445 h 42.9876 l -21.4938,11.73489 h -0.003 z m 76.36934,0 h 42.98759 l -21.49379,11.73489 h -0.003 z m 76.36934,0 h 42.98763 l -21.4938,11.73489 v 0 z m -155.79046,5.00426 21.4908,11.73207 v 23.46416 z m 49.09116,0 -21.49081,35.19623 v -23.46416 z m 27.27818,0 21.4908,11.73207 v 23.46416 z m 49.09115,0 -21.4908,35.19623 v -23.46416 z m 27.27819,0 21.49081,11.73207 v 23.46416 z m 49.09111,0 -21.4908,35.19623 v -23.46416 z m -142.15432,5.78 v 23.46414 L 96.118,245.15493 Z m 6.10955,0 21.4908,35.19622 -21.4908,-11.73208 z m 70.25979,0 v 23.46414 l -21.4908,11.73208 z m 6.10955,0 21.4908,35.19622 -21.4908,-11.73208 z m -79.42411,28.46841 21.4908,11.73206 H 99.17277 Z m 76.36933,0 21.49081,11.73206 h -42.98161 z" />
</svg>
