<?xml version="1.0" encoding="UTF-8" standalone="no"?>
<svg
   version="1.1"
   width="1510"
   height="2000"
   class="svg_pane"
   data-attrTriangle="{&quot;fill&quot;:&quot;none&quot;,&quot;stroke&quot;:&quot;black&quot;,&quot;stroke-width&quot;:10,&quot;stroke-linecap&quot;:&quot;round&quot;,&quot;stroke-linejoin&quot;:&quot;round&quot;}"
   data-attrPattern="{&quot;fill&quot;:&quot;none&quot;,&quot;stroke&quot;:&quot;black&quot;,&quot;stroke-width&quot;:10,&quot;stroke-linecap&quot;:&quot;round&quot;,&quot;stroke-linejoin&quot;:&quot;round&quot;}"
   id="svg1482"
   xmlns="http://www.w3.org/2000/svg"
   xmlns:svg="http://www.w3.org/2000/svg">
  <defs
     id="defs1482" />
  <path
     id="line1482"
     style="color:#000000;fill:none;stroke-linecap:round;stroke-linejoin:round;-inkscape-stroke:hairline;stroke:#ff0000;stroke-opacity:1;vector-effect:non-scaling-stroke;stroke-width:1;stroke-dasharray:none"
     d="M 275 211.50586 A 5 5 0 0 0 274.91992 211.53906 A 5 5 0 0 0 274.24023 211.66016 A 5 5 0 0 0 273.74609 211.68164 A 5 5 0 0 0 273.70508 211.67578 A 5 5 0 0 0 273.57422 211.77734 A 5 5 0 0 0 273.56641 211.78125 A 5 5 0 0 0 273.56445 211.78125 A 5 5 0 0 0 272.71289 212.14844 A 5 5 0 0 0 272.5 212.17578 A 5 5 0 0 0 272.33594 212.39062 A 5 5 0 0 0 271.55469 212.89062 A 5 5 0 0 0 271.5332 212.9043 A 5 5 0 0 0 271.03906 213.72266 A 5 5 0 0 0 271.03711 213.72461 A 5 5 0 0 0 270.66992 214.00586 L 245.66992 257.30859 A 5.0005 5.0005 0 0 0 245.51172 257.89648 A 5 5 0 0 0 245.18164 259.12891 A 5.0005 5.0005 0 0 0 245 259.80859 A 5.0005 5.0005 0 0 0 245.1582 260.39844 A 5 5 0 0 0 245.48828 261.62695 A 5.0005 5.0005 0 0 0 245.66992 262.30859 L 270.66992 305.60938 L 295.66992 348.91016 A 5.0005 5.0005 0 0 0 296.10156 349.3418 A 5 5 0 0 0 297.00195 350.24219 A 5.0005 5.0005 0 0 0 298.08789 350.89844 A 5 5 0 0 0 299.32031 351.22852 A 5.0005 5.0005 0 0 0 300 351.41016 L 350 351.41016 A 5.0005 5.0005 0 0 0 352.5 350.74023 A 5.0005 5.0005 0 0 0 354.33008 348.91016 L 379.33008 305.60938 L 404.33008 262.30859 A 5.0005 5.0005 0 0 0 404.39062 262.16406 A 5 5 0 0 0 404.78125 261.21875 A 5.0005 5.0005 0 0 0 404.83008 261.10352 A 5.0005 5.0005 0 0 0 404.83594 261.0625 A 5 5 0 0 0 404.85352 261.00977 A 5 5 0 0 0 404.85352 261.00781 A 5 5 0 0 0 404.98828 260.14844 A 5 5 0 0 0 404.98828 260.14648 A 5 5 0 0 0 404.98438 259.93164 A 5 5 0 0 0 404.98438 259.92773 A 5.0005 5.0005 0 0 0 404.97852 259.65234 A 5.0005 5.0005 0 0 0 404.97852 259.65039 A 5.0005 5.0005 0 0 0 404.97852 259.64258 A 5 5 0 0 0 404.8457 258.62891 A 5 5 0 0 0 404.8457 258.62695 A 5 5 0 0 0 404.84375 258.625 A 5 5 0 0 0 404.84375 258.62305 A 5.0005 5.0005 0 0 0 404.83008 258.51367 A 5.0005 5.0005 0 0 0 404.81641 258.48047 A 5 5 0 0 0 404.80469 258.41992 A 5 5 0 0 0 404.49023 257.60742 A 5 5 0 0 0 404.375 257.41602 A 5.0005 5.0005 0 0 0 404.33008 257.30859 L 379.33008 214.00586 A 5.0005 5.0005 0 0 0 379.25586 213.91016 A 5 5 0 0 0 379.08789 213.64062 A 5 5 0 0 0 378.83203 213.32422 A 5 5 0 0 0 378.55664 212.99805 A 5.0005 5.0005 0 0 0 378.50391 212.94727 A 5 5 0 0 0 378.4668 212.9043 A 5 5 0 0 0 378.39648 212.85938 A 5 5 0 0 0 377.63867 212.28125 A 5.0005 5.0005 0 0 0 377.5 212.17578 A 5.0005 5.0005 0 0 0 377.37695 212.125 A 5 5 0 0 0 376.90625 211.9043 A 5 5 0 0 0 376.72461 211.83398 A 5 5 0 0 0 376.38672 211.70312 A 5 5 0 0 0 376.35938 211.70312 A 5.0005 5.0005 0 0 0 375 211.50586 L 325 211.50586 L 275 211.50586 z M 286.75 221.50586 L 313.25 221.50586 L 300 235.27539 L 286.75 221.50586 z M 336.75 221.50586 L 363.25 221.50586 L 350 235.27539 L 336.75 221.50586 z M 276.54492 229.18359 L 283.16992 240.65625 L 289.79297 252.13086 L 271.24609 247.54102 L 276.54492 229.18359 z M 326.54492 229.18359 L 333.16992 240.65625 L 339.79297 252.13086 L 321.24609 247.54102 L 326.54492 229.18359 z M 376.54492 229.18359 L 389.79297 252.13086 L 371.24609 247.54102 L 376.54492 229.18359 z M 300 249.69922 L 300.03906 249.74023 L 300 249.80859 L 299.96094 249.74023 L 300 249.69922 z M 350 249.69922 L 350.03906 249.74023 L 350 249.80859 L 349.96094 249.74023 L 350 249.69922 z M 258.69922 254.74023 L 258.75391 254.75195 L 258.73828 254.80859 L 258.66016 254.80859 L 258.69922 254.74023 z M 308.69922 254.74023 L 308.75391 254.75195 L 308.73828 254.80859 L 308.66016 254.80859 L 308.69922 254.74023 z M 358.69922 254.74023 L 358.75391 254.75195 L 358.73828 254.80859 L 358.66016 254.80859 L 358.69922 254.74023 z M 261.75195 264.80859 L 288.24805 264.80859 L 275 278.57617 L 261.75195 264.80859 z M 311.75195 264.80859 L 338.24805 264.80859 L 325 278.57617 L 311.75195 264.80859 z M 361.75195 264.80859 L 388.24805 264.80859 L 375 278.57617 L 361.75195 264.80859 z M 298.45508 272.48633 L 303.75391 290.84375 L 285.20508 295.43359 L 298.45508 272.48633 z M 351.54492 272.48633 L 358.16992 283.95898 L 364.79492 295.43359 L 346.24609 290.84375 L 351.54492 272.48633 z M 275 293 L 275.03906 293.04102 L 275 293.10938 L 274.96094 293.04102 L 275 293 z M 325 293 L 325.03906 293.04102 L 325 293.10938 L 324.96094 293.04102 L 325 293 z M 375 293 L 375.03906 293.04102 L 375 293.10938 L 374.96094 293.04102 L 375 293 z M 316.30078 298.04102 L 316.33984 298.10938 L 316.26172 298.10938 L 316.24609 298.05273 L 316.30078 298.04102 z M 333.69922 298.04102 L 333.75391 298.05273 L 333.73828 298.10938 L 333.66016 298.10938 L 333.69922 298.04102 z M 286.75195 308.10938 L 313.24805 308.10938 L 300 321.87695 L 286.75195 308.10938 z M 336.75195 308.10938 L 363.24805 308.10938 L 350 321.87695 L 336.75195 308.10938 z M 323.45508 315.78711 L 328.75391 334.14453 L 310.20508 338.73438 L 323.45508 315.78711 z M 300 336.30078 L 300.03906 336.3418 L 300 336.41016 L 299.96094 336.3418 L 300 336.30078 z M 350 336.30078 L 350.03906 336.3418 L 350 336.41016 L 349.96094 336.3418 L 350 336.30078 z M 341.30078 341.3418 L 341.33984 341.41016 L 341.26172 341.41016 L 341.24609 341.35352 L 341.30078 341.3418 z " />
</svg>
