<?xml version="1.0" encoding="UTF-8" standalone="no"?>
<svg
   version="1.1"
   width="1510"
   height="2000"
   class="svg_pane"
   data-attrTriangle="{&quot;fill&quot;:&quot;none&quot;,&quot;stroke&quot;:&quot;black&quot;,&quot;stroke-width&quot;:10,&quot;stroke-linecap&quot;:&quot;round&quot;,&quot;stroke-linejoin&quot;:&quot;round&quot;}"
   data-attrPattern="{&quot;fill&quot;:&quot;none&quot;,&quot;stroke&quot;:&quot;black&quot;,&quot;stroke-width&quot;:10,&quot;stroke-linecap&quot;:&quot;round&quot;,&quot;stroke-linejoin&quot;:&quot;round&quot;}"
   id="svg1488"
   xmlns="http://www.w3.org/2000/svg"
   xmlns:svg="http://www.w3.org/2000/svg">
  <defs
     id="defs1488" />
  <path
     id="line1488"
     style="color:#000000;fill:#000000;stroke-linecap:round;stroke-linejoin:round;-inkscape-stroke:none"
     d="M 275 211.50586 A 5 5 0 0 0 274.91992 211.53906 A 5 5 0 0 0 274.05273 211.69531 A 5 5 0 0 0 273.875 211.69727 A 5 5 0 0 0 273.70508 211.67578 A 5 5 0 0 0 273.67188 211.70117 A 5 5 0 0 0 273.61328 211.70312 A 5 5 0 0 0 273.44727 211.80273 A 5 5 0 0 0 272.71289 212.14844 A 5 5 0 0 0 272.5 212.17578 A 5 5 0 0 0 272.33594 212.39062 A 5 5 0 0 0 271.5332 212.9043 A 5 5 0 0 0 271.48438 212.98633 A 5 5 0 0 0 271.00391 213.75 A 5 5 0 0 0 270.66992 214.00586 L 245.66992 257.30859 A 5.0005 5.0005 0 0 0 245.51367 257.89258 A 5.0005 5.0005 0 0 0 245.51172 257.89648 A 5 5 0 0 0 245.19531 258.41992 A 5 5 0 0 0 245.18164 259.12891 A 5.0005 5.0005 0 0 0 245 259.80859 A 5.0005 5.0005 0 0 0 245.1582 260.39844 A 5 5 0 0 0 245.14648 261.00781 A 5 5 0 0 0 245.14648 261.00977 A 5 5 0 0 0 245.48633 261.625 A 5 5 0 0 0 245.48828 261.62695 A 5.0005 5.0005 0 0 0 245.66992 262.30859 L 270.66992 305.60938 L 295.66992 348.91016 A 5.0005 5.0005 0 0 0 296.10156 349.3418 A 5 5 0 0 0 297.00195 350.24219 A 5.0005 5.0005 0 0 0 298.08789 350.89844 A 5 5 0 0 0 299.32031 351.22852 A 5.0005 5.0005 0 0 0 300 351.41016 L 350 351.41016 L 400 351.41016 A 5.0005 5.0005 0 0 0 402.28125 350.79883 A 5.0005 5.0005 0 0 0 402.58984 350.65039 A 5.0005 5.0005 0 0 0 404.17578 349.06445 A 5.0005 5.0005 0 0 0 404.33008 348.91016 L 429.33008 305.60938 A 5.0005 5.0005 0 0 0 429.39258 305.45117 A 5 5 0 0 0 429.6543 304.93555 A 5 5 0 0 0 429.80859 304.38867 A 5.0005 5.0005 0 0 0 429.88086 304.13281 A 5 5 0 0 0 429.94922 303.64258 A 5.0005 5.0005 0 0 0 429.97461 303.32812 A 5 5 0 0 0 429.97852 302.83594 A 5.0005 5.0005 0 0 0 429.94727 302.5625 A 5 5 0 0 0 429.87695 302.01367 A 5.0005 5.0005 0 0 0 429.85156 301.93359 A 5 5 0 0 0 429.68945 301.43945 A 5.0005 5.0005 0 0 0 429.61914 301.22266 A 5 5 0 0 0 429.39258 300.76953 A 5.0005 5.0005 0 0 0 429.33008 300.60938 L 404.33008 257.30859 L 404.28125 257.22461 L 379.33008 214.00586 A 5 5 0 0 0 379.30664 213.98828 A 5 5 0 0 0 379.22852 213.875 A 5 5 0 0 0 378.9668 213.49023 A 5.0005 5.0005 0 0 0 378.87109 213.35352 A 5 5 0 0 0 378.63281 213.09961 A 5 5 0 0 0 378.4668 212.9043 A 5 5 0 0 0 378.36719 212.83984 A 5 5 0 0 0 377.91797 212.46875 A 5.0005 5.0005 0 0 0 377.64648 212.29297 A 5 5 0 0 0 377.56055 212.23633 A 5 5 0 0 0 377.5 212.17578 A 5 5 0 0 0 377.45703 212.16992 A 5 5 0 0 0 376.93164 211.92188 A 5 5 0 0 0 376.70508 211.83008 A 5 5 0 0 0 376.5918 211.78516 A 5.0005 5.0005 0 0 0 376.43555 211.72266 A 5 5 0 0 0 376.38672 211.70312 A 5 5 0 0 0 376.29492 211.70117 A 5.0005 5.0005 0 0 0 375 211.50586 L 325 211.50586 L 275 211.50586 z M 286.75 221.50586 L 313.25 221.50586 L 300 235.27539 L 286.75 221.50586 z M 336.75 221.50586 L 363.25 221.50586 L 350 235.27539 L 336.75 221.50586 z M 273.45508 229.18359 L 278.75391 247.54102 L 260.20703 252.13086 L 273.45508 229.18359 z M 326.54492 229.18359 L 333.16992 240.65625 L 339.79297 252.13086 L 321.24609 247.54102 L 326.54492 229.18359 z M 376.54492 229.18359 L 389.79297 252.13086 L 371.24609 247.54102 L 376.54492 229.18359 z M 300 249.69922 L 300.03906 249.74023 L 300 249.80859 L 299.96094 249.74023 L 300 249.69922 z M 350 249.69922 L 350.03906 249.74023 L 350 249.80859 L 349.96094 249.74023 L 350 249.69922 z M 291.30078 254.74023 L 291.33984 254.80859 L 291.26172 254.80859 L 291.24609 254.75195 L 291.30078 254.74023 z M 308.69922 254.74023 L 308.75391 254.75195 L 308.73828 254.80859 L 308.66016 254.80859 L 308.69922 254.74023 z M 358.69922 254.74023 L 358.75391 254.75195 L 358.73828 254.80859 L 358.66016 254.80859 L 358.69922 254.74023 z M 261.75195 264.80859 L 288.24805 264.80859 L 275 278.57617 L 261.75195 264.80859 z M 311.75195 264.80859 L 338.24805 264.80859 L 325 278.57617 L 311.75195 264.80859 z M 361.75195 264.80859 L 388.24805 264.80859 L 375 278.57617 L 361.75195 264.80859 z M 301.54492 272.48633 L 308.16992 283.95898 L 314.79492 295.43359 L 296.24609 290.84375 L 301.54492 272.48633 z M 351.54492 272.48633 L 358.16992 283.95898 L 364.79492 295.43359 L 346.24609 290.84375 L 351.54492 272.48633 z M 398.45508 272.48633 L 403.75391 290.84375 L 385.20508 295.43359 L 398.45508 272.48633 z M 275 293 L 275.03906 293.04102 L 275 293.10938 L 274.96094 293.04102 L 275 293 z M 325 293 L 325.03906 293.04102 L 325 293.10938 L 324.96094 293.04102 L 325 293 z M 375 293 L 375.03906 293.04102 L 375 293.10938 L 374.96094 293.04102 L 375 293 z M 283.69922 298.04102 L 283.75391 298.05273 L 283.73828 298.10938 L 283.66016 298.10938 L 283.69922 298.04102 z M 333.69922 298.04102 L 333.75391 298.05273 L 333.73828 298.10938 L 333.66016 298.10938 L 333.69922 298.04102 z M 416.30078 298.04102 L 416.33984 298.10938 L 416.26172 298.10938 L 416.24609 298.05273 L 416.30078 298.04102 z M 286.75195 308.10938 L 313.24805 308.10938 L 300 321.87695 L 286.75195 308.10938 z M 336.75195 308.10938 L 363.24805 308.10938 L 350 321.87695 L 336.75195 308.10938 z M 386.75195 308.10938 L 413.24805 308.10938 L 400 321.87695 L 386.75195 308.10938 z M 323.45508 315.78711 L 328.75391 334.14453 L 310.20508 338.73438 L 323.45508 315.78711 z M 373.45508 315.78711 L 378.75391 334.14453 L 360.20508 338.73438 L 373.45508 315.78711 z M 300 336.30078 L 300.03906 336.3418 L 300 336.41016 L 299.96094 336.3418 L 300 336.30078 z M 350 336.30078 L 350.03906 336.3418 L 350 336.41016 L 349.96094 336.3418 L 350 336.30078 z M 400 336.30078 L 400.03906 336.3418 L 400 336.41016 L 399.96094 336.3418 L 400 336.30078 z M 341.30078 341.3418 L 341.33984 341.41016 L 341.26172 341.41016 L 341.24609 341.35352 L 341.30078 341.3418 z M 391.30078 341.3418 L 391.33984 341.41016 L 391.26172 341.41016 L 391.24609 341.35352 L 391.30078 341.3418 z " />
</svg>
