<?xml version="1.0" encoding="UTF-8" standalone="no"?>
<svg
   version="1.1"
   width="1510"
   height="2000"
   class="svg_pane"
   data-attrTriangle="{&quot;fill&quot;:&quot;none&quot;,&quot;stroke&quot;:&quot;black&quot;,&quot;stroke-width&quot;:10,&quot;stroke-linecap&quot;:&quot;round&quot;,&quot;stroke-linejoin&quot;:&quot;round&quot;}"
   data-attrPattern="{&quot;fill&quot;:&quot;none&quot;,&quot;stroke&quot;:&quot;black&quot;,&quot;stroke-width&quot;:10,&quot;stroke-linecap&quot;:&quot;round&quot;,&quot;stroke-linejoin&quot;:&quot;round&quot;}"
   id="svg1488"
   xmlns="http://www.w3.org/2000/svg"
   xmlns:svg="http://www.w3.org/2000/svg">
  <defs
     id="defs1488" />
  <path
     id="polyline1488"
     style="color:#000000;fill:#000000;stroke-linecap:round;stroke-linejoin:round;-inkscape-stroke:none"
     d="M 225 211.50586 A 5 5 0 0 0 224.37695 211.76367 A 5 5 0 0 0 223.70508 211.67578 A 5 5 0 0 0 223.16797 212.08789 A 5 5 0 0 0 222.5 212.17578 A 5 5 0 0 0 222.08789 212.71289 A 5 5 0 0 0 221.70703 213.21094 A 5 5 0 0 0 221.70312 213.21289 A 5 5 0 0 0 220.66992 214.00586 L 208.17188 235.6543 A 5 5 0 0 0 208.16992 235.65625 A 5 5 0 0 0 208.16992 235.6582 L 195.66992 257.30859 A 5.0005 5.0005 0 0 0 195 259.80859 A 5.0005 5.0005 0 0 0 195.66992 262.30859 L 208.16992 283.95898 L 220.66992 305.60938 L 233.16992 327.25977 L 245.66992 348.91016 A 5.0005 5.0005 0 0 0 250 351.41016 L 300 351.41016 L 350 351.41016 A 5.0005 5.0005 0 0 0 352.28125 350.79883 A 5.0005 5.0005 0 0 0 352.58984 350.65039 A 5.0005 5.0005 0 0 0 354.17578 349.06445 A 5.0005 5.0005 0 0 0 354.33008 348.91016 L 379.33008 305.60938 A 5.0005 5.0005 0 0 0 379.46875 305.25781 A 5.0005 5.0005 0 0 0 379.73633 304.57422 A 5.0005 5.0005 0 0 0 379.90234 303.8457 A 5.0005 5.0005 0 0 0 379.95898 303.10938 A 5.0005 5.0005 0 0 0 379.90234 302.37305 A 5.0005 5.0005 0 0 0 379.73633 301.64453 A 5.0005 5.0005 0 0 0 379.46875 300.96094 A 5.0005 5.0005 0 0 0 379.33008 300.60938 L 366.83008 278.95898 L 354.33008 257.30859 L 341.83203 235.66016 L 341.83008 235.65625 A 5 5 0 0 0 341.82812 235.6543 L 329.33008 214.00586 A 5 5 0 0 0 329.21484 213.91797 A 5.0005 5.0005 0 0 0 327.58594 212.26367 A 5 5 0 0 0 327.5 212.17578 A 5 5 0 0 0 327.36719 212.1582 A 5.0005 5.0005 0 0 0 325 211.50586 L 300 211.50586 L 275 211.50586 L 250 211.50586 L 225 211.50586 z M 233.66016 221.50586 L 245 221.50586 L 245 228.05273 L 239.33008 231.32617 L 233.66016 221.50586 z M 255 221.50586 L 266.33984 221.50586 L 260.66992 231.32617 L 255 228.05273 L 255 221.50586 z M 283.66016 221.50586 L 295 221.50586 L 295 228.05273 L 289.33008 231.32617 L 283.66016 221.50586 z M 305 221.50586 L 316.33984 221.50586 L 310.66992 231.32617 L 305 228.05273 L 305 221.50586 z M 225 226.50586 L 230.66992 236.32617 L 225 239.59961 L 219.33008 236.32617 L 225 226.50586 z M 275 226.50586 L 280.66992 236.32617 L 275 239.59961 L 269.33008 236.32617 L 275 226.50586 z M 325 226.50586 L 330.66992 236.32617 L 325 239.59961 L 319.33008 236.32617 L 325 226.50586 z M 250 236.71289 L 255.66992 239.98633 L 250 249.80859 L 244.33008 239.98633 L 250 236.71289 z M 300 236.71289 L 305.66992 239.98633 L 300 249.80859 L 294.33008 239.98633 L 300 236.71289 z M 214.33008 244.98633 L 220 248.25977 L 220 254.80859 L 208.66016 254.80859 L 214.33008 244.98633 z M 235.66992 244.98633 L 241.33984 254.80859 L 230 254.80859 L 230 248.25977 L 235.66992 244.98633 z M 264.33008 244.98633 L 270 248.25977 L 270 254.80859 L 258.66016 254.80859 L 264.33008 244.98633 z M 285.66992 244.98633 L 291.33984 254.80859 L 280 254.80859 L 280 248.25977 L 285.66992 244.98633 z M 314.33008 244.98633 L 320 248.25977 L 320 254.80859 L 308.66016 254.80859 L 314.33008 244.98633 z M 335.66992 244.98633 L 341.33984 254.80859 L 330 254.80859 L 330 248.25977 L 335.66992 244.98633 z M 208.66016 264.80859 L 220 264.80859 L 220 271.35547 L 214.33008 274.62891 L 208.66016 264.80859 z M 230 264.80859 L 241.33984 264.80859 L 235.66992 274.62891 L 230 271.35547 L 230 264.80859 z M 258.66016 264.80859 L 270 264.80859 L 270 271.35547 L 264.33008 274.62891 L 258.66016 264.80859 z M 280 264.80859 L 291.33984 264.80859 L 285.66992 274.62891 L 280 271.35547 L 280 264.80859 z M 308.66016 264.80859 L 320 264.80859 L 320 271.35547 L 314.33008 274.62891 L 308.66016 264.80859 z M 330 264.80859 L 341.33984 264.80859 L 335.66992 274.62891 L 330 271.35547 L 330 264.80859 z M 250 269.80859 L 255.66992 279.62891 L 250 282.90234 L 244.33008 279.62891 L 250 269.80859 z M 300 269.80859 L 305.66992 279.62891 L 300 282.90234 L 294.33008 279.62891 L 300 269.80859 z M 350 269.80859 L 355.66992 279.62891 L 350 282.90234 L 344.33008 279.62891 L 350 269.80859 z M 225 280.01562 L 230.66992 283.28906 L 225 293.10938 L 219.33008 283.28906 L 225 280.01562 z M 275 280.01562 L 280.66992 283.28906 L 275 293.10938 L 269.33008 283.28906 L 275 280.01562 z M 325 280.01562 L 330.66992 283.28906 L 325 293.10938 L 319.33008 283.28906 L 325 280.01562 z M 239.33008 288.28906 L 245 291.5625 L 245 298.10938 L 233.66016 298.10938 L 239.33008 288.28906 z M 260.66992 288.28906 L 266.33984 298.10938 L 255 298.10938 L 255 291.5625 L 260.66992 288.28906 z M 289.33008 288.28906 L 295 291.5625 L 295 298.10938 L 283.66016 298.10938 L 289.33008 288.28906 z M 310.66992 288.28906 L 316.33984 298.10938 L 305 298.10938 L 305 291.5625 L 310.66992 288.28906 z M 339.33008 288.28906 L 345 291.5625 L 345 298.10938 L 333.66016 298.10938 L 339.33008 288.28906 z M 360.66992 288.28906 L 366.33984 298.10938 L 355 298.10938 L 355 291.5625 L 360.66992 288.28906 z M 233.66016 308.10938 L 245 308.10938 L 245 314.65625 L 239.33008 317.92969 L 233.66016 308.10938 z M 255 308.10938 L 266.33984 308.10938 L 260.66992 317.92969 L 255 314.65625 L 255 308.10938 z M 283.66016 308.10938 L 295 308.10938 L 295 314.65625 L 289.33008 317.92969 L 283.66016 308.10938 z M 305 308.10938 L 316.33984 308.10938 L 310.66992 317.92969 L 305 314.65625 L 305 308.10938 z M 333.66016 308.10938 L 345 308.10938 L 345 314.65625 L 339.33008 317.92969 L 333.66016 308.10938 z M 355 308.10938 L 366.33984 308.10938 L 360.66992 317.92969 L 355 314.65625 L 355 308.10938 z M 275 313.10938 L 280.66992 322.92969 L 275 326.20312 L 269.33008 322.92969 L 275 313.10938 z M 325 313.10938 L 330.66992 322.92969 L 325 326.20312 L 319.33008 322.92969 L 325 313.10938 z M 250 323.31641 L 255.66992 326.58984 L 250 336.41016 L 244.33008 326.58984 L 250 323.31641 z M 300 323.31641 L 305.66992 326.58984 L 300 336.41016 L 294.33008 326.58984 L 300 323.31641 z M 350 323.31641 L 355.66992 326.58984 L 350 336.41016 L 344.33008 326.58984 L 350 323.31641 z M 264.33008 331.58984 L 270 334.86328 L 270 341.41016 L 258.66016 341.41016 L 264.33008 331.58984 z M 285.66992 331.58984 L 291.33984 341.41016 L 280 341.41016 L 280 334.86328 L 285.66992 331.58984 z M 314.33008 331.58984 L 320 334.86328 L 320 341.41016 L 308.66016 341.41016 L 314.33008 331.58984 z M 335.66992 331.58984 L 341.33984 341.41016 L 330 341.41016 L 330 334.86328 L 335.66992 331.58984 z " />
</svg>
