<?xml version="1.0" encoding="UTF-8" standalone="no"?>
<svg
   version="1.1"
   width="1500"
   height="1000"
   class="svg_pane"
   data-attrTriangle="{&quot;fill&quot;:&quot;none&quot;,&quot;stroke&quot;:&quot;black&quot;,&quot;stroke-width&quot;:4,&quot;stroke-linecap&quot;:&quot;round&quot;,&quot;stroke-linejoin&quot;:&quot;round&quot;}"
   data-attrPattern="{&quot;fill&quot;:&quot;none&quot;,&quot;stroke&quot;:&quot;black&quot;,&quot;stroke-width&quot;:8,&quot;stroke-linecap&quot;:&quot;round&quot;,&quot;stroke-linejoin&quot;:&quot;round&quot;}"
   id="svg574"
   xmlns="http://www.w3.org/2000/svg"
   xmlns:svg="http://www.w3.org/2000/svg">
  <defs
     id="defs574" />
  <path
     id="polyline246"
     style="color:#000000;fill:#000000;stroke-linecap:round;stroke-linejoin:round;-inkscape-stroke:none"
     d="M 825 558.91602 A 4 4 0 0 0 824.5 559.12305 A 4 4 0 0 0 823.96484 559.05273 A 4 4 0 0 0 823.53516 559.38281 A 4 4 0 0 0 823 559.45312 A 4 4 0 0 0 822.67188 559.88086 A 4 4 0 0 0 822.36719 560.2793 A 4 4 0 0 0 822.36328 560.28125 A 4 4 0 0 0 821.53516 560.91602 L 796.53516 604.21875 L 771.53516 647.51953 A 4.0004 4.0004 0 0 0 771.31836 648.75 A 4 4 0 0 0 771.20703 649.01953 A 4 4 0 0 0 771 649.51953 A 4 4 0 0 0 771.12891 649.83008 A 4.0004 4.0004 0 0 0 771.45312 650.89258 A 4 4 0 0 0 771.53516 651.51953 L 796.53516 694.82031 L 821.53516 738.12109 A 4.0004 4.0004 0 0 0 822.07812 738.57617 A 4.0004 4.0004 0 0 0 823.08789 739.42578 A 4.0004 4.0004 0 0 0 824.33984 739.88086 A 4.0004 4.0004 0 0 0 825 740.12109 L 875 740.12109 L 925 740.12109 A 4.0004 4.0004 0 0 0 926.35547 739.88086 A 4.0004 4.0004 0 0 0 926.38086 739.87109 A 4.0004 4.0004 0 0 0 928.46484 738.12109 L 953.46484 694.82031 L 978.46484 651.51953 L 1003.4648 608.21875 A 4.0004 4.0004 0 0 0 1003.9395 605.52344 A 4.0004 4.0004 0 0 0 1003.4648 604.21875 L 978.46484 560.91602 A 4.0004 4.0004 0 0 0 977.15625 559.61133 A 4 4 0 0 0 977 559.45312 A 4 4 0 0 0 976.8457 559.43359 A 4.0004 4.0004 0 0 0 975 558.91602 L 925 558.91602 L 875 558.91602 L 825 558.91602 z M 835.92773 566.91602 L 864.07227 566.91602 L 850 575.04102 L 835.92773 566.91602 z M 885.92773 566.91602 L 914.07227 566.91602 L 900 575.04102 L 885.92773 566.91602 z M 935.92773 566.91602 L 964.07227 566.91602 L 950 575.04102 L 935.92773 566.91602 z M 833.92969 570.38086 L 848 578.50391 L 848 594.75195 L 833.92969 570.38086 z M 883.92969 570.38086 L 898 578.50391 L 898 594.75195 L 883.92969 570.38086 z M 933.92969 570.38086 L 948 578.50391 L 948 594.75195 L 933.92969 570.38086 z M 866.06836 570.38281 L 852 594.75195 L 852 578.50586 L 866.06836 570.38281 z M 916.06836 570.38281 L 902 594.75195 L 902 578.50586 L 916.06836 570.38281 z M 966.06836 570.38281 L 952 594.75195 L 952 578.50586 L 966.06836 570.38281 z M 823 574.38281 L 823 590.63086 L 808.92969 598.75391 L 823 574.38281 z M 827 574.38281 L 841.06836 598.75195 L 827 590.62891 L 827 574.38281 z M 873 574.38281 L 873 590.62891 L 858.93164 598.75195 L 873 574.38281 z M 877 574.38281 L 891.07031 598.75391 L 877 590.63086 L 877 574.38281 z M 923 574.38281 L 923 590.62891 L 908.93164 598.75195 L 923 574.38281 z M 927 574.38281 L 941.06836 598.75195 L 927 590.62891 L 927 574.38281 z M 973 574.38281 L 973 590.62891 L 958.93164 598.75195 L 973 574.38281 z M 977 574.38281 L 991.07031 598.75391 L 977 590.63086 L 977 574.38281 z M 825 594.09375 L 839.07422 602.21875 L 810.92578 602.21875 L 825 594.09375 z M 875 594.09375 L 889.07422 602.21875 L 860.92578 602.21875 L 875 594.09375 z M 925 594.09375 L 939.07422 602.21875 L 910.92578 602.21875 L 925 594.09375 z M 975 594.09375 L 989.07422 602.21875 L 960.92578 602.21875 L 975 594.09375 z M 810.92969 610.21875 L 839.07031 610.21875 L 825 618.3418 L 810.92969 610.21875 z M 860.92969 610.21875 L 889.07031 610.21875 L 875 618.3418 L 860.92969 610.21875 z M 910.92969 610.21875 L 939.07031 610.21875 L 925 618.3418 L 910.92969 610.21875 z M 960.92969 610.21875 L 989.07031 610.21875 L 975 618.3418 L 960.92969 610.21875 z M 808.92969 613.68164 L 823 621.80469 L 823 638.05273 L 808.92969 613.68164 z M 841.07031 613.68164 L 827 638.05273 L 827 621.80664 L 841.07031 613.68164 z M 858.92969 613.68164 L 873 621.80469 L 873 638.05273 L 858.92969 613.68164 z M 891.07031 613.68164 L 877 638.05273 L 877 621.80664 L 891.07031 613.68164 z M 908.92969 613.68164 L 923 621.80469 L 923 638.05273 L 908.92969 613.68164 z M 941.07031 613.68164 L 927 638.05273 L 927 621.80664 L 941.07031 613.68164 z M 958.92969 613.68164 L 973 621.80469 L 973 638.05273 L 958.92969 613.68164 z M 991.07031 613.68164 L 977 638.05273 L 977 621.80664 L 991.07031 613.68164 z M 798 617.68555 L 798 633.93164 L 783.92969 642.05469 L 798 617.68555 z M 802 617.68555 L 816.06836 642.05273 L 802 633.92969 L 802 617.68555 z M 848 617.68555 L 848 633.93164 L 833.92969 642.05469 L 848 617.68555 z M 852 617.68555 L 866.06836 642.05273 L 852 633.92969 L 852 617.68555 z M 898 617.68555 L 898 633.92969 L 883.93164 642.05273 L 898 617.68555 z M 902 617.68555 L 916.07031 642.05469 L 902 633.93164 L 902 617.68555 z M 948 617.68555 L 948 633.92969 L 933.93164 642.05273 L 948 617.68555 z M 952 617.68555 L 966.07031 642.05469 L 952 633.93164 L 952 617.68555 z M 800 637.39453 L 814.07227 645.51953 L 785.92773 645.51953 L 800 637.39453 z M 850 637.39453 L 864.07227 645.51953 L 835.92773 645.51953 L 850 637.39453 z M 900 637.39453 L 914.07227 645.51953 L 885.92773 645.51953 L 900 637.39453 z M 950 637.39453 L 964.07227 645.51953 L 935.92773 645.51953 L 950 637.39453 z M 785.92969 653.51953 L 814.07031 653.51953 L 800 661.64258 L 785.92969 653.51953 z M 835.92969 653.51953 L 864.07031 653.51953 L 850 661.64258 L 835.92969 653.51953 z M 885.92969 653.51953 L 914.07031 653.51953 L 900 661.64258 L 885.92969 653.51953 z M 935.92969 653.51953 L 964.07031 653.51953 L 950 661.64258 L 935.92969 653.51953 z M 783.92969 656.98438 L 798 665.10742 L 798 681.35352 L 783.92969 656.98438 z M 816.07031 656.98438 L 802 681.35352 L 802 665.10742 L 816.07031 656.98438 z M 833.92969 656.98438 L 848 665.10742 L 848 681.35352 L 833.92969 656.98438 z M 866.07031 656.98438 L 852 681.35352 L 852 665.10742 L 866.07031 656.98438 z M 883.92969 656.98438 L 898 665.10742 L 898 681.35352 L 883.92969 656.98438 z M 916.07031 656.98438 L 902 681.35352 L 902 665.10742 L 916.07031 656.98438 z M 933.92969 656.98438 L 948 665.10742 L 948 681.35352 L 933.92969 656.98438 z M 966.07031 656.98438 L 952 681.35352 L 952 665.10742 L 966.07031 656.98438 z M 823 660.98633 L 823 677.23242 L 808.92969 685.35547 L 823 660.98633 z M 827 660.98633 L 841.07031 685.35547 L 827 677.23242 L 827 660.98633 z M 873 660.98633 L 873 677.23242 L 858.92969 685.35547 L 873 660.98633 z M 877 660.98633 L 891.07031 685.35547 L 877 677.23242 L 877 660.98633 z M 923 660.98633 L 923 677.23242 L 908.92969 685.35547 L 923 660.98633 z M 927 660.98633 L 941.07031 685.35547 L 927 677.23242 L 927 660.98633 z M 824.99805 680.69531 L 839.07031 688.82031 L 810.92773 688.82031 L 824.99805 680.69531 z M 875 680.69531 L 875.00195 680.69531 L 889.07227 688.82031 L 860.92773 688.82031 L 875 680.69531 z M 924.99805 680.69531 L 939.07031 688.82031 L 910.92773 688.82031 L 924.99805 680.69531 z M 810.92773 696.82031 L 839.07227 696.82031 L 825 704.94531 L 824.99805 704.94531 L 810.92773 696.82031 z M 860.92773 696.82031 L 889.07227 696.82031 L 875 704.94531 L 874.99805 704.94531 L 860.92773 696.82031 z M 910.92773 696.82031 L 939.07227 696.82031 L 925 704.94531 L 924.99805 704.94531 L 910.92773 696.82031 z M 808.92969 700.28516 L 823 708.4082 L 823 724.6543 L 808.92969 700.28516 z M 841.07031 700.28516 L 827 724.6543 L 827 708.4082 L 841.07031 700.28516 z M 858.92969 700.28516 L 873 708.4082 L 873 724.6543 L 858.92969 700.28516 z M 891.07031 700.28516 L 877 724.6543 L 877 708.4082 L 891.07031 700.28516 z M 908.92969 700.28516 L 923 708.4082 L 923 724.6543 L 908.92969 700.28516 z M 941.07031 700.28516 L 927 724.6543 L 927 708.4082 L 941.07031 700.28516 z M 848 704.28711 L 848 720.5332 L 833.92969 728.65625 L 848 704.28711 z M 852 704.28711 L 866.07031 728.65625 L 852 720.5332 L 852 704.28711 z M 898 704.28711 L 898 720.5332 L 883.92969 728.65625 L 898 704.28711 z M 902 704.28711 L 916.07031 728.65625 L 902 720.5332 L 902 704.28711 z M 850 723.99805 L 864.07031 732.12109 L 835.92969 732.12109 L 850 723.99805 z M 900 723.99805 L 914.07031 732.12109 L 885.92969 732.12109 L 900 723.99805 z " />
</svg>
