<?xml version="1.0" encoding="UTF-8" standalone="no"?>
<svg
   version="1.1"
   width="1510"
   height="2000"
   class="svg_pane"
   data-attrTriangle="{&quot;fill&quot;:&quot;none&quot;,&quot;stroke&quot;:&quot;black&quot;,&quot;stroke-width&quot;:8,&quot;stroke-linecap&quot;:&quot;round&quot;,&quot;stroke-linejoin&quot;:&quot;round&quot;}"
   data-attrPattern="{&quot;fill&quot;:&quot;none&quot;,&quot;stroke&quot;:&quot;black&quot;,&quot;stroke-width&quot;:8,&quot;stroke-linecap&quot;:&quot;round&quot;,&quot;stroke-linejoin&quot;:&quot;round&quot;}"
   id="svg1504"
   xmlns="http://www.w3.org/2000/svg"
   xmlns:svg="http://www.w3.org/2000/svg">
  <path
     id="path1567"
     style="stroke-linecap:round;stroke-linejoin:round"
     d="M 275 212.50586 C 274.82235 212.55337 274.64955 212.61422 274.48047 212.68555 C 274.3094 212.6622 274.13798 212.64267 273.96484 212.64258 C 273.8306 212.73193 273.70449 212.83263 273.58203 212.9375 C 273.38578 212.95997 273.19118 212.99167 273 213.04297 C 272.82418 213.21924 272.6711 213.41564 272.53125 213.62109 C 272.41588 213.73556 272.30156 213.85117 272.20117 213.97852 C 271.9623 214.13216 271.73643 214.30494 271.53516 214.50586 L 263.14844 229.0332 L 254.92383 243.28125 L 246.53516 257.80859 C 245.76558 259.14207 245.86146 260.64196 246.53516 261.80859 L 271.53516 305.10938 L 296.53516 348.41016 C 296.66575 348.6363 296.82422 348.84552 296.99609 349.04297 C 297.00468 349.05256 297.01292 349.0626 297.02148 349.07227 C 297.06903 349.12584 297.11364 349.18137 297.16406 349.23242 C 297.23636 349.30572 297.31399 349.37107 297.39062 349.4375 C 297.49936 349.53201 297.61319 349.62046 297.73242 349.70312 C 297.75068 349.71534 297.76875 349.72804 297.78711 349.74023 C 297.85603 349.78633 297.92396 349.83313 297.99609 349.875 C 298.06519 349.9148 298.13601 349.94901 298.20703 349.98438 C 298.298 350.03005 298.38907 350.07447 298.48438 350.11328 C 298.5456 350.13774 298.60783 350.15807 298.66992 350.17969 C 298.76693 350.21362 298.86396 350.24688 298.96484 350.27344 C 299.03774 350.29264 299.11182 350.30521 299.18555 350.32031 C 299.44759 350.37366 299.7166 350.41016 300 350.41016 L 316.77344 350.41016 C 316.55351 350.41582 316.33558 350.39737 316.11914 350.36719 A 4 4 0 0 0 316.92383 350.39648 C 316.87374 350.39967 316.82349 350.40887 316.77344 350.41016 L 333.22656 350.41016 L 350 350.41016 L 400 350.41016 C 400.18243 350.41016 400.36131 350.39561 400.53516 350.37305 C 400.53769 350.37272 400.54044 350.37338 400.54297 350.37305 C 400.54425 350.37287 400.54559 350.37323 400.54688 350.37305 C 401.83404 350.20164 402.87301 349.43503 403.46484 348.41016 L 428.46484 305.10938 C 429.13854 303.94274 429.23442 302.44285 428.46484 301.10938 L 403.46484 257.80859 L 378.46484 214.50586 C 377.79114 213.33922 376.53961 212.50584 375 212.50586 L 325 212.50586 L 275 212.50586 z M 308.00586 212.51953 C 308.01233 212.519 308.01891 212.52003 308.02539 212.51953 C 308.0058 212.52105 307.98635 212.52359 307.9668 212.52539 C 307.97993 212.52418 307.99271 212.52061 308.00586 212.51953 z M 307.45703 212.60742 C 307.43487 212.61239 307.4127 212.6177 307.39062 212.62305 C 307.41281 212.61766 307.43476 212.61243 307.45703 212.60742 z M 289.55273 213.11133 C 289.33174 213.24898 289.12372 213.40806 288.93359 213.58594 C 289.12372 213.40806 289.33174 213.24898 289.55273 213.11133 z M 339.55273 213.11133 C 339.33174 213.24898 339.12372 213.40806 338.93359 213.58594 C 339.12372 213.40806 339.33174 213.24898 339.55273 213.11133 z M 272.12109 214.08984 C 271.99203 214.26568 271.87056 214.44722 271.77148 214.64258 C 271.63595 214.85032 271.52026 215.07063 271.42578 215.29883 C 271.3313 215.52702 271.25802 215.76311 271.20703 216.00586 C 271.25802 215.76311 271.3313 215.52702 271.42578 215.29883 C 271.52026 215.07063 271.63595 214.85032 271.77148 214.64258 C 271.87056 214.44722 271.9912 214.26494 272.12109 214.08984 z M 281.92969 220.50586 L 284.73828 220.50586 L 283.33398 222.93945 L 281.92969 220.50586 z M 293.97656 220.50586 L 306.02344 220.50586 L 312.04688 230.93945 L 306.02344 241.37305 L 293.97656 241.37305 L 287.95312 230.9375 L 293.97656 220.50586 z M 315.26172 220.50586 L 318.07031 220.50586 L 316.66602 222.93945 L 315.26172 220.50586 z M 331.92969 220.50586 L 334.73828 220.50586 L 333.33398 222.93945 L 331.92969 220.50586 z M 343.97656 220.50586 L 356.02344 220.50586 L 362.04688 230.93945 L 356.02344 241.37305 L 343.97656 241.37305 L 337.95312 230.9375 L 343.97656 220.50586 z M 365.26172 220.50586 L 368.07031 220.50586 L 366.66602 222.93945 L 365.26172 220.50586 z M 275 224.50781 L 276.4043 226.93945 L 273.5957 226.93945 L 275 224.50781 z M 325 224.50781 L 326.4043 226.93945 L 341.66602 253.37305 L 337.04688 245.375 L 331.02344 255.80859 L 318.97656 255.80859 L 312.95312 245.375 L 318.97852 234.93945 L 331.02148 234.93945 L 326.4043 226.93945 L 323.5957 226.93945 L 325 224.50781 z M 375 224.50781 L 376.4043 226.93945 L 373.5957 226.93945 L 375 224.50781 z M 365.85938 234.85742 C 366.11977 234.91071 366.38987 234.93945 366.66602 234.93945 C 366.38987 234.93945 366.11977 234.91071 365.85938 234.85742 z M 384.14062 234.85742 C 383.88023 234.91071 383.61013 234.93945 383.33398 234.93945 C 383.61013 234.93945 383.88023 234.91071 384.14062 234.85742 z M 268.97852 234.93945 L 281.02148 234.93945 L 287.04688 245.375 L 281.02344 255.80859 L 268.97656 255.80859 L 262.95312 245.375 L 268.97852 234.93945 z M 368.97852 234.93945 L 381.02148 234.93945 L 387.04688 245.375 L 381.02344 255.80859 L 368.97656 255.80859 L 362.95312 245.375 L 368.97852 234.93945 z M 257.45508 241.47461 C 257.43353 241.47945 257.41209 241.48504 257.39062 241.49023 C 257.41219 241.485 257.43343 241.47949 257.45508 241.47461 z M 307.45508 241.47461 C 307.43353 241.47945 307.41209 241.48504 307.39062 241.49023 C 307.41219 241.485 307.43343 241.47949 307.45508 241.47461 z M 392.54492 241.47461 C 392.56657 241.47949 392.58781 241.485 392.60938 241.49023 C 392.58791 241.48504 392.56647 241.47945 392.54492 241.47461 z M 256.88672 241.64648 C 256.87506 241.651 256.86318 241.65553 256.85156 241.66016 C 256.86324 241.6555 256.875 241.65103 256.88672 241.64648 z M 298.5957 249.37305 L 301.4043 249.37305 L 300 251.80664 L 298.5957 249.37305 z M 348.5957 249.37305 L 351.4043 249.37305 L 350 251.80664 L 348.5957 249.37305 z M 258.33398 253.375 L 259.74023 255.80859 L 256.92969 255.80859 L 258.33398 253.375 z M 291.66602 253.375 L 293.07031 255.80859 L 290.25977 255.80859 L 291.66602 253.375 z M 341.66602 253.375 L 343.07031 255.80859 L 340.25977 255.80859 L 341.66602 253.375 z M 358.33398 253.375 L 359.74023 255.80859 L 356.92969 255.80859 L 358.33398 253.375 z M 391.66602 253.375 L 393.07031 255.80859 L 390.25977 255.80859 L 391.66602 253.375 z M 317.54492 255.9082 C 317.56657 255.91308 317.58781 255.91859 317.60938 255.92383 C 317.58791 255.91863 317.56647 255.91305 317.54492 255.9082 z M 332.45508 255.9082 C 332.43353 255.91304 332.41209 255.91863 332.39062 255.92383 C 332.41219 255.91859 332.43343 255.91308 332.45508 255.9082 z M 365.25391 256.06445 C 365.00797 256.15741 364.77376 256.2743 364.55273 256.41211 C 364.77376 256.2743 365.00797 256.15741 365.25391 256.06445 z M 247.67188 256.77148 C 247.48672 256.93714 247.31868 257.12025 247.16797 257.31641 C 247.01725 257.51257 246.88385 257.72178 246.77148 257.94336 C 246.63584 258.1514 246.52026 258.37108 246.42578 258.59961 C 246.3313 258.82814 246.25791 259.06551 246.20703 259.30859 C 246.25791 259.06551 246.3313 258.82814 246.42578 258.59961 C 246.52027 258.37108 246.63585 258.1514 246.77148 257.94336 C 246.88385 257.72178 247.01725 257.51257 247.16797 257.31641 C 247.31869 257.12024 247.48673 256.93714 247.67188 256.77148 z M 319.60547 257.09375 L 319.60742 257.09375 C 319.6964 257.19009 319.77912 257.29092 319.85742 257.39453 C 319.77912 257.29092 319.69445 257.19009 319.60547 257.09375 z M 320.46289 261.06836 C 320.37894 261.32047 320.26881 261.5675 320.13086 261.80664 C 320.26881 261.5675 320.37894 261.32047 320.46289 261.06836 z M 256.92969 263.80859 L 259.73828 263.80859 L 258.33398 266.24023 L 256.92969 263.80859 z M 268.97461 263.80859 L 281.02539 263.80859 L 287.04688 274.24023 L 281.02344 284.67578 L 268.97656 284.67578 L 262.95312 274.24023 L 268.97461 263.80859 z M 290.26172 263.80859 L 293.07031 263.80859 L 291.66602 266.24023 L 290.26172 263.80859 z M 306.92969 263.80859 L 309.73828 263.80859 L 308.33398 266.24219 L 306.92969 263.80859 z M 318.97461 263.80859 L 331.02539 263.80859 L 337.04688 274.24023 L 331.02344 284.67578 L 318.97656 284.67578 L 312.95117 274.24023 L 318.97461 263.80859 z M 340.26172 263.80859 L 343.07031 263.80859 L 341.66602 266.24219 L 340.26172 263.80859 z M 356.92969 263.80859 L 359.73828 263.80859 L 358.33398 266.24023 L 356.92969 263.80859 z M 368.97461 263.80859 L 381.02539 263.80859 L 387.04883 274.24023 L 381.02344 284.67578 L 368.97656 284.67578 L 362.95312 274.24023 L 368.97461 263.80859 z M 390.26172 263.80859 L 393.07031 263.80859 L 391.66602 266.24219 L 390.26172 263.80859 z M 300 267.81055 L 301.4043 270.24219 L 298.5957 270.24219 L 293.97852 278.24219 L 306.02344 278.24219 L 312.04688 288.67773 L 306.02344 299.10938 L 293.97656 299.10938 L 287.95312 288.67773 L 283.33398 296.67773 L 284.73828 299.10938 L 281.92969 299.10938 L 283.33398 296.67773 L 298.5957 270.24219 L 300 267.81055 z M 350 267.81055 L 351.4043 270.24219 L 366.66602 296.67773 L 368.07031 299.10938 L 365.26172 299.10938 L 366.66602 296.67773 L 362.04688 288.67773 L 356.02344 299.10938 L 343.97656 299.10938 L 337.95312 288.67773 L 343.97656 278.24219 L 356.02148 278.24219 L 351.4043 270.24219 L 348.5957 270.24219 L 350 267.81055 z M 400 267.81055 L 401.4043 270.24219 L 398.5957 270.24219 L 400 267.81055 z M 293.66602 277.70508 C 293.42694 277.84307 293.1798 277.9531 292.92773 278.03711 C 293.1798 277.9531 293.42694 277.84307 293.66602 277.70508 z M 393.97656 278.24219 L 406.02344 278.24219 L 412.04688 288.67773 L 406.02344 299.10938 L 393.97656 299.10938 L 387.95312 288.67773 L 393.97656 278.24219 z M 317.54492 284.77539 C 317.56657 284.78027 317.58781 284.78578 317.60938 284.79102 C 317.58791 284.78582 317.56647 284.78023 317.54492 284.77539 z M 332.45508 284.77539 C 332.43353 284.78023 332.41209 284.78582 332.39062 284.79102 C 332.41219 284.78578 332.43343 284.78027 332.45508 284.77539 z M 315.25391 284.93164 C 315.00797 285.0246 314.77376 285.14148 314.55273 285.2793 C 314.77376 285.14148 315.00797 285.0246 315.25391 284.93164 z M 415.25391 284.93164 C 415.12103 284.98186 414.9932 285.04184 414.86719 285.10547 C 414.99349 285.04165 415.1207 284.98199 415.25391 284.93164 z M 265.85938 292.59375 C 266.11977 292.64703 266.38987 292.67578 266.66602 292.67578 C 266.38987 292.67578 266.11976 292.64703 265.85938 292.59375 z M 284.14062 292.59375 C 283.88024 292.64703 283.61013 292.67578 283.33398 292.67578 C 283.61013 292.67578 283.88023 292.64703 284.14062 292.59375 z M 273.5957 292.67578 L 276.4043 292.67578 L 275 295.10742 L 273.5957 292.67578 z M 323.5957 292.67578 L 326.4043 292.67578 L 325 295.10742 L 323.5957 292.67578 z M 373.5957 292.67578 L 376.4043 292.67578 L 375 295.10742 L 373.5957 292.67578 z M 316.66602 296.67773 L 318.07031 299.10938 L 315.26172 299.10938 L 316.66602 296.67773 z M 333.33398 296.67773 L 334.73828 299.10938 L 331.92969 299.10938 L 333.33398 296.67773 z M 383.33398 296.67773 L 384.73828 299.10938 L 381.92969 299.10938 L 383.33398 296.67773 z M 416.66602 296.67773 L 418.07031 299.10938 L 415.26172 299.10938 L 416.66602 296.67773 z M 325 299.10938 C 325.3849 299.10937 325.75134 299.16146 326.0957 299.25781 C 325.75134 299.16146 325.3849 299.10937 325 299.10938 z M 342.54492 299.20898 C 342.56657 299.21386 342.58781 299.21937 342.60938 299.22461 C 342.58791 299.21941 342.56647 299.21383 342.54492 299.20898 z M 339.55273 299.71484 C 339.33174 299.8525 339.12372 300.01157 338.93359 300.18945 C 339.12372 300.01157 339.33174 299.8525 339.55273 299.71484 z M 289.25977 299.91797 C 289.24345 299.93027 289.22706 299.94252 289.21094 299.95508 C 289.22712 299.94247 289.24339 299.93032 289.25977 299.91797 z M 281.92969 307.10938 L 284.73828 307.10938 L 283.33398 309.54102 L 281.92969 307.10938 z M 293.97656 307.10938 L 306.02344 307.10938 L 312.04688 317.54102 L 306.02344 327.97656 L 293.97656 327.97656 L 287.95312 317.54102 L 293.97656 307.10938 z M 315.26172 307.10938 L 318.07031 307.10938 L 316.66602 309.54297 L 315.26172 307.10938 z M 331.92969 307.10938 L 334.73828 307.10938 L 333.33398 309.54297 L 331.92969 307.10938 z M 343.97656 307.10938 L 356.02344 307.10938 L 362.04688 317.54102 L 356.02344 327.97656 L 343.97656 327.97656 L 337.95312 317.54102 L 343.97656 307.10938 z M 365.26172 307.10938 L 368.07031 307.10938 L 366.66602 309.54102 L 365.26172 307.10938 z M 381.92969 307.10938 L 384.73828 307.10938 L 383.33398 309.54297 L 381.92969 307.10938 z M 393.97656 307.10938 L 406.02344 307.10938 L 412.04688 317.54102 L 406.02344 327.97656 L 393.97656 327.97656 L 383.90625 310.5332 L 387.95312 317.54102 L 393.97656 307.10938 z M 415.26172 307.10938 L 418.07031 307.10938 L 416.66602 309.54102 L 415.26172 307.10938 z M 325 311.11133 L 326.4043 313.54297 L 323.5957 313.54297 L 325 311.11133 z M 375 311.11133 L 376.4043 313.54297 L 373.5957 313.54297 L 368.97852 321.54297 L 381.02344 321.54297 L 387.04688 331.97852 L 381.02344 342.41016 L 368.97656 342.41016 L 362.95312 331.97852 L 358.33398 339.97656 L 359.73828 342.41016 L 356.92969 342.41016 L 358.33398 339.97656 L 373.5957 313.54297 L 375 311.11133 z M 316.17188 313.57812 C 316.12014 313.58452 316.06868 313.59321 316.01758 313.60156 C 316.06889 313.59316 316.11992 313.58455 316.17188 313.57812 z M 333.82812 313.57812 C 333.88008 313.58455 333.93111 313.59316 333.98242 313.60156 C 333.93132 313.59321 333.87986 313.58452 333.82812 313.57812 z M 315.64844 313.67969 C 315.61143 313.68941 315.57369 313.69628 315.53711 313.70703 C 315.57363 313.6963 315.61149 313.68939 315.64844 313.67969 z M 334.35156 313.67969 C 334.38851 313.68939 334.42637 313.6963 334.46289 313.70703 C 334.42631 313.69628 334.38857 313.68941 334.35156 313.67969 z M 315.08203 313.87109 C 315.05868 313.88118 315.03679 313.89378 315.01367 313.9043 C 315.03682 313.89376 315.05865 313.8812 315.08203 313.87109 z M 334.91797 313.87109 C 334.94135 313.8812 334.96318 313.89376 334.98633 313.9043 C 334.96321 313.89378 334.94132 313.88118 334.91797 313.87109 z M 314.64453 314.0957 C 314.60904 314.11657 314.57384 314.13824 314.53906 314.16016 C 314.57398 314.13816 314.6089 314.11664 314.64453 314.0957 z M 335.35547 314.0957 C 335.3911 314.11664 335.42602 314.13816 335.46094 314.16016 C 335.42616 314.13824 335.39096 314.11657 335.35547 314.0957 z M 314.23047 314.375 C 314.19998 314.39847 314.16845 314.42099 314.13867 314.44531 C 314.16859 314.42088 314.19984 314.39858 314.23047 314.375 z M 335.76953 314.375 C 335.80016 314.39858 335.83141 314.42088 335.86133 314.44531 C 335.83155 314.42099 335.80002 314.39847 335.76953 314.375 z M 313.80664 314.74805 C 313.77111 314.7844 313.73922 314.82365 313.70508 314.86133 C 313.73918 314.82371 313.77115 314.78434 313.80664 314.74805 z M 336.19336 314.74805 C 336.22885 314.78434 336.26082 314.82371 336.29492 314.86133 C 336.26078 314.82365 336.22889 314.7844 336.19336 314.74805 z M 313.48633 315.125 C 313.45766 315.16265 313.42773 315.1996 313.40039 315.23828 C 313.42785 315.19947 313.45754 315.16278 313.48633 315.125 z M 336.51367 315.125 C 336.54246 315.16278 336.57215 315.19947 336.59961 315.23828 C 336.57227 315.1996 336.54234 315.16265 336.51367 315.125 z M 312.96289 316.03516 C 312.94381 316.08196 312.9275 316.13007 312.91016 316.17773 C 312.9275 316.13002 312.9438 316.082 312.96289 316.03516 z M 337.03711 316.03516 C 337.0562 316.082 337.0725 316.13002 337.08984 316.17773 C 337.0725 316.13007 337.05619 316.08196 337.03711 316.03516 z M 312.82031 316.45312 C 312.80258 316.51582 312.7862 316.57867 312.77148 316.64258 C 312.78618 316.57875 312.8026 316.51574 312.82031 316.45312 z M 337.17969 316.45312 C 337.1974 316.51574 337.21382 316.57875 337.22852 316.64258 C 337.2138 316.57867 337.19742 316.51582 337.17969 316.45312 z M 312.72461 316.88867 C 312.71331 316.9572 312.70113 317.02605 312.69336 317.0957 C 312.70114 317.02577 312.71327 316.95746 312.72461 316.88867 z M 337.27539 316.88867 C 337.28673 316.95746 337.29886 317.02577 337.30664 317.0957 C 337.29887 317.02605 337.28669 316.9572 337.27539 316.88867 z M 368.66602 321.00586 C 368.42694 321.14385 368.1798 321.25388 367.92773 321.33789 C 368.1798 321.25388 368.42694 321.14385 368.66602 321.00586 z M 315.85938 321.46094 C 316.11977 321.51422 316.38987 321.54297 316.66602 321.54297 C 316.38987 321.54297 316.11977 321.51422 315.85938 321.46094 z M 318.97656 321.54297 L 331.02344 321.54297 L 337.04688 331.97852 L 331.02344 342.41016 L 318.97656 342.41016 L 312.95312 331.97852 L 318.97656 321.54297 z M 308.30078 327.97656 C 308.39918 327.97573 308.49702 327.97738 308.5957 327.98438 A 4 4 0 0 0 307.86523 328.00781 C 308.00966 327.99077 308.15476 327.9778 308.30078 327.97656 z M 307.78711 328.01367 C 307.79096 328.01314 307.79497 328.01419 307.79883 328.01367 A 4 4 0 0 0 307.13867 328.16602 C 307.3508 328.09963 307.56685 328.04402 307.78711 328.01367 z M 306.96289 328.22656 A 4 4 0 0 0 306.33398 328.51172 A 4 4 0 0 0 305.66992 329.00195 C 305.87208 328.82128 306.08978 328.65263 306.33398 328.51172 C 306.53503 328.39565 306.74669 328.30544 306.96289 328.22656 z M 389.55273 328.58203 C 389.33174 328.71969 389.12372 328.87876 388.93359 329.05664 C 389.12372 328.87876 389.33174 328.71969 389.55273 328.58203 z M 344.05664 328.77148 C 344.09149 328.79739 344.12441 328.82469 344.1582 328.85156 C 344.12443 328.82469 344.09146 328.79739 344.05664 328.77148 z M 339.25977 328.78516 C 339.24345 328.79746 339.22706 328.80971 339.21094 328.82227 C 339.22712 328.80966 339.24339 328.79751 339.25977 328.78516 z M 311.04492 329.0625 C 311.14397 329.15465 311.25034 329.23775 311.33984 329.33984 A 4 4 0 0 0 311.04492 329.0625 z M 305.58984 329.07031 A 4 4 0 0 0 305.06641 329.67969 C 305.21943 329.46156 305.3918 329.25695 305.58984 329.07031 z M 344.42578 329.08398 C 344.45293 329.10984 344.47955 329.13559 344.50586 329.16211 C 344.47967 329.13571 344.45281 329.10973 344.42578 329.08398 z M 344.74219 329.42383 C 344.76822 329.45523 344.79533 329.48548 344.82031 329.51758 C 344.79537 329.48556 344.76818 329.45516 344.74219 329.42383 z M 305.00781 329.76172 A 4 4 0 0 0 304.63867 330.45898 C 304.71992 330.26058 304.81109 330.06682 304.92383 329.88281 C 304.94935 329.84116 304.98072 329.80249 305.00781 329.76172 z M 345.29492 330.29883 C 345.31453 330.34136 345.33152 330.38459 345.34961 330.42773 C 345.33155 330.38474 345.31449 330.34121 345.29492 330.29883 z M 304.58398 330.60547 A 4 4 0 0 0 304.38086 331.36328 C 304.42121 331.10429 304.49419 330.85162 304.58398 330.60547 z M 345.48242 330.78711 C 345.49155 330.81644 345.50131 330.84547 345.50977 330.875 C 345.5013 330.84548 345.49156 330.81643 345.48242 330.78711 z M 345.61523 331.34375 C 345.6195 331.37029 345.62126 331.3972 345.625 331.42383 C 345.62125 331.39715 345.61951 331.37034 345.61523 331.34375 z M 304.375 331.42773 A 4 4 0 0 0 304.34766 332.1875 C 304.33441 331.93253 304.34005 331.67852 304.375 331.42773 z M 345.66016 331.83398 C 345.6616 331.87312 345.66377 331.91195 345.66406 331.95117 C 345.66378 331.91214 345.66158 331.87294 345.66016 331.83398 z M 304.35352 332.32422 A 4 4 0 0 0 304.5 333.0957 C 304.42538 332.84079 304.37597 332.58348 304.35352 332.32422 z M 345.64648 332.35352 C 345.64366 332.38357 345.64219 332.41333 345.63867 332.44336 C 345.64218 332.41337 345.64366 332.38352 345.64648 332.35352 z M 345.55273 332.92188 C 345.54476 332.95457 345.53422 332.98695 345.52539 333.01953 C 345.53422 332.98691 345.54477 332.95461 345.55273 332.92188 z M 304.54492 333.23047 A 4 4 0 0 0 304.86914 333.97656 C 304.73013 333.73582 304.62918 333.48438 304.54492 333.23047 z M 345.40234 333.39453 C 345.38622 333.43689 345.37118 333.47946 345.35352 333.52148 C 345.37125 333.4793 345.38616 333.43704 345.40234 333.39453 z M 358.80664 335.94727 C 358.76323 335.95239 358.71961 335.95721 358.67578 335.96094 C 358.71951 335.95723 358.76332 335.95237 358.80664 335.94727 z M 298.5957 335.97656 L 301.4043 335.97656 L 300 338.4082 L 298.5957 335.97656 z M 348.5957 335.97656 L 351.4043 335.97656 L 350 338.4082 L 348.5957 335.97656 z M 398.5957 335.97656 L 401.4043 335.97656 L 400 338.4082 L 398.5957 335.97656 z M 308.33398 339.97852 L 309.73828 342.41016 L 306.92969 342.41016 L 308.33398 339.97852 z M 341.66602 339.97852 L 343.07031 342.41016 L 340.26172 342.41016 L 341.66602 339.97852 z M 391.66602 339.97852 L 393.07031 342.41016 L 390.26172 342.41016 L 391.66602 339.97852 z M 320.29688 344.73438 C 320.31765 344.77922 320.33649 344.82387 320.35547 344.86914 A 4 4 0 0 0 320.29688 344.73438 z M 320.43164 345.06641 C 320.44863 345.11387 320.46537 345.16119 320.48047 345.20898 A 4 4 0 0 0 320.43164 345.06641 z M 320.54492 345.4375 C 320.55503 345.47769 320.56541 345.51825 320.57422 345.55859 A 4 4 0 0 0 320.54492 345.4375 z M 320.63281 345.89844 C 320.63441 345.91088 320.63524 345.9231 320.63672 345.93555 A 4 4 0 0 0 320.63281 345.89844 z M 320.65625 346.64648 C 320.65456 346.67471 320.65268 346.70231 320.65039 346.73047 A 4 4 0 0 0 320.65625 346.64648 z M 320.27539 348.12695 C 320.26337 348.1523 320.2528 348.17801 320.24023 348.20312 A 4 4 0 0 0 320.27539 348.12695 z M 313.20312 348.41016 A 4 4 0 0 0 313.6875 349.06641 C 313.50903 348.86591 313.34259 348.65173 313.20312 348.41016 z M 336.51953 348.82227 C 336.48918 348.86246 336.45742 348.90068 336.42578 348.93945 C 336.45736 348.90075 336.48923 348.86239 336.51953 348.82227 z M 319.63672 349.08984 C 319.59372 349.13749 319.54748 349.18276 319.50195 349.22852 A 4 4 0 0 0 319.63672 349.08984 z M 313.7793 349.16797 A 4 4 0 0 0 314.38281 349.68945 C 314.16616 349.53869 313.96528 349.36298 313.7793 349.16797 z M 336.18555 349.20898 C 336.15004 349.24523 336.11482 349.28171 336.07812 349.31641 C 336.11483 349.28172 336.15003 349.24522 336.18555 349.20898 z M 319.38281 349.3457 C 319.33989 349.38536 319.29493 349.42297 319.25 349.46094 A 4 4 0 0 0 319.38281 349.3457 z M 319.07812 349.59766 C 319.04362 349.6237 319.01015 349.65072 318.97461 349.67578 A 4 4 0 0 0 319.07812 349.59766 z M 335.72266 349.61719 C 335.69843 349.63524 335.67302 349.65051 335.64844 349.66797 C 335.67293 349.65058 335.69852 349.63516 335.72266 349.61719 z M 314.47656 349.74805 A 4 4 0 0 0 315.20508 350.13281 A 4 4 0 0 0 316.00195 350.3457 C 315.73008 350.29952 315.46189 350.23357 315.20508 350.13281 C 314.9499 350.03269 314.70788 349.89962 314.47656 349.74805 z M 318.66602 349.875 C 318.41894 350.01753 318.16124 350.12394 317.90039 350.20898 A 4 4 0 0 0 318.66602 349.875 z M 335.31055 349.88281 C 335.27545 349.90276 335.24071 349.92256 335.20508 349.94141 C 335.24064 349.92259 335.27552 349.90272 335.31055 349.88281 z M 331.75781 350.08594 C 331.7972 350.10288 331.83726 350.11528 331.87695 350.13086 C 331.83744 350.11534 331.79702 350.1028 331.75781 350.08594 z M 334.86133 350.10156 C 334.82334 350.11727 334.78647 350.13587 334.74805 350.15039 C 334.78651 350.13586 334.8233 350.11727 334.86133 350.10156 z M 317.81641 350.23828 C 317.55266 350.31784 317.28612 350.36519 317.01758 350.38867 A 4 4 0 0 0 317.81641 350.23828 z M 332.19336 350.24023 C 332.2389 350.25381 332.28429 350.26742 332.33008 350.2793 C 332.2842 350.26736 332.239 350.25388 332.19336 350.24023 z M 334.32617 350.2832 C 334.27386 350.29664 334.22079 350.30508 334.16797 350.31641 C 334.22066 350.30513 334.27399 350.29659 334.32617 350.2832 z M 332.66602 350.35156 C 332.70368 350.35792 332.74156 350.36583 332.7793 350.37109 C 332.74135 350.3658 332.7039 350.35797 332.66602 350.35156 z M 333.84961 350.37305 C 333.79557 350.38015 333.74185 350.38573 333.6875 350.39062 C 333.74155 350.38575 333.79586 350.3801 333.84961 350.37305 z " />
  <defs
     id="defs1504" />
</svg>
