<?xml version="1.0" encoding="UTF-8" standalone="no"?>
<svg
   version="1.1"
   width="1510"
   height="2000"
   class="svg_pane"
   data-attrTriangle="{&quot;fill&quot;:&quot;none&quot;,&quot;stroke&quot;:&quot;black&quot;,&quot;stroke-width&quot;:10,&quot;stroke-linecap&quot;:&quot;round&quot;,&quot;stroke-linejoin&quot;:&quot;round&quot;}"
   data-attrPattern="{&quot;fill&quot;:&quot;none&quot;,&quot;stroke&quot;:&quot;black&quot;,&quot;stroke-width&quot;:10,&quot;stroke-linecap&quot;:&quot;round&quot;,&quot;stroke-linejoin&quot;:&quot;round&quot;}"
   id="svg1506"
   xmlns="http://www.w3.org/2000/svg"
   xmlns:svg="http://www.w3.org/2000/svg">
  <defs
     id="defs1506" />
  <path
     id="line1506"
     style="color:#000000;fill:#000000;stroke-linecap:round;stroke-linejoin:round;-inkscape-stroke:none"
     d="M 275 211.50586 A 5 5 0 0 0 274.37695 211.76367 A 5 5 0 0 0 273.70508 211.67578 A 5 5 0 0 0 273.16797 212.08789 A 5 5 0 0 0 272.5 212.17578 A 5 5 0 0 0 272.08789 212.71289 A 5 5 0 0 0 271.70703 213.21094 A 5 5 0 0 0 271.70312 213.21289 A 5 5 0 0 0 270.66992 214.00586 L 262.33789 228.4375 A 5 5 0 0 0 262.33594 228.44336 L 254.00391 242.87305 L 245.66992 257.30859 A 5.0005 5.0005 0 0 0 245 259.80859 A 5.0005 5.0005 0 0 0 245.66992 262.30859 L 258.16992 283.95898 L 270.66992 305.60938 L 283.16992 327.25977 L 295.66992 348.91016 A 5.0005 5.0005 0 0 0 297.5 350.74023 A 5.0005 5.0005 0 0 0 300 351.41016 L 316.66602 351.41016 L 333.33398 351.41016 L 350 351.41016 L 366.66602 351.41016 L 383.33398 351.41016 L 400 351.41016 A 5.0005 5.0005 0 0 0 402.28125 350.79883 A 5.0005 5.0005 0 0 0 402.58984 350.65039 A 5.0005 5.0005 0 0 0 404.17578 349.06445 A 5.0005 5.0005 0 0 0 404.33008 348.91016 L 412.66211 334.47852 L 412.66406 334.47656 A 5 5 0 0 0 412.66406 334.47461 L 429.33008 305.60938 A 5.0005 5.0005 0 0 0 429.46875 305.25781 A 5.0005 5.0005 0 0 0 429.73633 304.57422 A 5.0005 5.0005 0 0 0 429.90234 303.8457 A 5.0005 5.0005 0 0 0 429.95898 303.10938 A 5.0005 5.0005 0 0 0 429.90234 302.37305 A 5.0005 5.0005 0 0 0 429.73633 301.64453 A 5.0005 5.0005 0 0 0 429.46875 300.96094 A 5.0005 5.0005 0 0 0 429.33008 300.60938 L 404.33008 257.30859 L 379.33008 214.00586 A 5 5 0 0 0 379.21484 213.91797 A 5.0005 5.0005 0 0 0 377.58594 212.26367 A 5 5 0 0 0 377.5 212.17578 A 5 5 0 0 0 377.36719 212.1582 A 5.0005 5.0005 0 0 0 375 211.50586 L 350 211.50586 L 325 211.50586 L 300 211.50586 L 275 211.50586 z M 283.66016 221.50586 L 295 221.50586 L 295 228.05273 L 289.33008 231.32617 L 283.66016 221.50586 z M 305 221.50586 L 316.33984 221.50586 L 310.66992 231.32617 L 305 228.05273 L 305 221.50586 z M 333.66016 221.50586 L 345 221.50586 L 345 228.05273 L 339.33008 231.32617 L 333.66016 221.50586 z M 355 221.50586 L 366.33984 221.50586 L 362.33789 228.4375 A 5 5 0 0 0 362.33594 228.44336 L 360.66992 231.32617 L 355 228.05273 L 355 221.50586 z M 325 226.50586 L 330.66992 236.32617 L 325 239.59961 L 319.33008 236.32617 L 325 226.50586 z M 269.55469 235.93945 L 280.44531 235.93945 L 283.16992 240.65625 L 285.89258 245.37305 L 280.44727 254.80859 L 275 254.80859 L 269.55273 254.80859 L 264.10742 245.37305 L 269.55469 235.93945 z M 369.55469 235.93945 L 380.44531 235.93945 L 385.89258 245.37305 L 380.44727 254.80859 L 375 254.80859 L 369.55273 254.80859 L 364.10742 245.37305 L 366.83008 240.65625 L 369.55469 235.93945 z M 300 236.71289 L 305.66992 239.98633 L 300 249.80859 L 294.33008 239.98633 L 300 236.71289 z M 350 236.71289 L 355.66992 239.98633 L 354.00391 242.87305 L 350 249.80859 L 344.33008 239.98633 L 350 236.71289 z M 314.33008 244.98633 L 320 248.25977 L 320 254.80859 L 308.66016 254.80859 L 314.33008 244.98633 z M 335.66992 244.98633 L 341.33984 254.80859 L 330 254.80859 L 330 248.25977 L 335.66992 244.98633 z M 258.66016 264.80859 L 266.66602 264.80859 L 270 264.80859 L 270 271.35547 L 264.33008 274.62891 L 258.66016 264.80859 z M 280 264.80859 L 283.33398 264.80859 L 291.33984 264.80859 L 285.66992 274.62891 L 280 271.35547 L 280 264.80859 z M 319.55273 264.80859 L 330.44727 264.80859 L 335.89258 274.24219 L 333.16992 278.95898 L 330.44727 283.67578 L 319.55273 283.67578 L 316.83008 278.95898 L 314.10742 274.24219 L 319.55273 264.80859 z M 358.66016 264.80859 L 366.66602 264.80859 L 370 264.80859 L 370 271.35547 L 364.33008 274.62891 L 358.66016 264.80859 z M 380 264.80859 L 383.33398 264.80859 L 391.33984 264.80859 L 387.33789 271.74023 A 5 5 0 0 0 387.33594 271.74414 L 385.66992 274.62891 L 380 271.35547 L 380 264.80859 z M 300 269.80859 L 304.00391 276.74219 L 305.66992 279.62891 L 300 282.90234 L 294.33008 279.62891 L 300 269.80859 z M 350 269.80859 L 355.66992 279.62891 L 350 282.90234 L 344.33008 279.62891 L 350 269.80859 z M 394.55273 279.24219 L 405.44727 279.24219 L 410.89258 288.67578 L 405.44727 298.10938 L 394.55273 298.10938 L 389.10742 288.67578 L 391.83008 283.95898 L 394.55273 279.24219 z M 275 280.01562 L 280.66992 283.28906 L 275 293.10938 L 269.33008 283.28906 L 275 280.01562 z M 375 280.01562 L 380.66992 283.28906 L 379.00391 286.17578 L 375 293.10938 L 369.33008 283.28906 L 375 280.01562 z M 289.33008 288.28906 L 295 291.5625 L 295 298.10938 L 283.66016 298.10938 L 289.33008 288.28906 z M 310.66992 288.28906 L 312.33594 291.17383 A 5 5 0 0 0 312.33789 291.17773 L 316.33984 298.10938 L 305 298.10938 L 305 291.5625 L 310.66992 288.28906 z M 339.33008 288.28906 L 345 291.5625 L 345 298.10938 L 333.66016 298.10938 L 337.66211 291.17773 L 337.66406 291.17578 A 5 5 0 0 0 337.66406 291.17383 L 339.33008 288.28906 z M 360.66992 288.28906 L 366.33984 298.10938 L 355 298.10938 L 355 291.5625 L 360.66992 288.28906 z M 283.66016 308.10938 L 295 308.10938 L 295 314.65625 L 289.33008 317.92969 L 283.66016 308.10938 z M 305 308.10938 L 316.33984 308.10938 L 312.33789 315.04102 A 5 5 0 0 0 312.33594 315.04492 L 310.66992 317.92969 L 305 314.65625 L 305 308.10938 z M 333.66016 308.10938 L 345 308.10938 L 345 314.65625 L 339.33008 317.92969 L 333.66016 308.10938 z M 355 308.10938 L 366.33984 308.10938 L 362.33789 315.04102 A 5 5 0 0 0 362.33594 315.04492 L 360.66992 317.92969 L 355 314.65625 L 355 308.10938 z M 394.55273 308.10938 L 405.44727 308.10938 L 410.89258 317.54297 L 405.44727 326.97656 L 394.55273 326.97656 L 391.83008 322.25977 L 389.10742 317.54297 L 394.55273 308.10938 z M 319.55273 322.54297 L 330.44727 322.54297 L 333.16992 327.25977 L 335.89258 331.97656 L 330.44727 341.41016 L 319.55273 341.41016 L 314.10742 331.97656 L 316.83008 327.25977 L 319.55273 322.54297 z M 369.55273 322.54297 L 380.44727 322.54297 L 383.16992 327.25977 L 385.89258 331.97656 L 380.44727 341.41016 L 369.55273 341.41016 L 364.10742 331.97656 L 366.83008 327.25977 L 369.55273 322.54297 z M 300 323.31641 L 305.66992 326.58984 L 304.00391 329.47656 L 300 336.41016 L 294.33008 326.58984 L 300 323.31641 z M 350 323.31641 L 355.66992 326.58984 L 354.00391 329.47656 L 350 336.41016 L 344.33008 326.58984 L 350 323.31641 z " />
</svg>
