<?xml version="1.0" encoding="UTF-8" standalone="no"?>
<svg
   version="1.1"
   width="1500"
   height="1000"
   class="svg_pane"
   data-attrTriangle="{&quot;fill&quot;:&quot;none&quot;,&quot;stroke&quot;:&quot;black&quot;,&quot;stroke-width&quot;:3,&quot;stroke-linecap&quot;:&quot;round&quot;,&quot;stroke-linejoin&quot;:&quot;round&quot;}"
   data-attrPattern="{&quot;fill&quot;:&quot;none&quot;,&quot;stroke&quot;:&quot;black&quot;,&quot;stroke-width&quot;:8,&quot;stroke-linecap&quot;:&quot;round&quot;,&quot;stroke-linejoin&quot;:&quot;round&quot;}"
   id="svg196"
   xmlns="http://www.w3.org/2000/svg"
   xmlns:svg="http://www.w3.org/2000/svg">
  <defs
     id="defs196" />
  <path
     id="path196"
     d="M 239.32617 363.86133 A 4 4 0 0 0 239.20898 363.875 A 4 4 0 0 0 238.84375 363.91602 A 4 4 0 0 0 238.06836 364.06445 A 4 4 0 0 0 237.66406 364.22266 A 4 4 0 0 0 237.01953 364.57812 A 4 4 0 0 0 236.66602 364.83984 A 4 4 0 0 0 236.47656 364.97852 A 4 4 0 0 0 236.23047 365.30273 A 4 4 0 0 0 235.8457 365.81445 A 4 4 0 0 0 235.58984 366.35742 A 4 4 0 0 0 235.40625 366.75 L 232.6543 376.28516 L 221.03125 396.41602 A 4 4 0 0 0 216.61719 399.375 A 4 4 0 0 0 217.35938 402.77734 L 214.78711 407.23242 A 4 4 0 0 0 214.55078 407.19727 A 4 4 0 0 0 214.35938 407.16797 A 4 4 0 0 0 214.32617 407.16211 A 4 4 0 0 0 213.21289 407.30859 A 4 4 0 0 0 213.14062 407.31836 A 4 4 0 0 0 212.89453 407.43359 A 4 4 0 0 0 212.15039 407.7832 A 4 4 0 0 0 211.81641 408.0293 A 4 4 0 0 0 211.47656 408.2793 A 4 4 0 0 0 211.30078 408.51172 A 4 4 0 0 0 210.93164 409 A 4 4 0 0 0 210.62695 409.55078 A 4 4 0 0 0 210.42188 410.14062 A 4 4 0 0 0 210.30664 410.74414 A 4 4 0 0 0 210.29492 411.36914 A 4 4 0 0 0 210.37109 411.98633 A 4 4 0 0 0 210.4082 412.27148 L 210.89648 413.9707 L 190.00781 450.15625 L 188.28906 450.58008 A 4 4 0 0 0 187.22461 451.0293 A 4 4 0 0 0 186.92773 451.24805 A 4 4 0 0 0 186.47656 451.58008 A 4 4 0 0 0 186.35156 451.74805 A 4 4 0 0 0 185.97656 452.24219 A 4 4 0 0 0 185.65039 452.7793 A 4 4 0 0 0 185.44922 453.37109 A 4 4 0 0 0 185.30859 453.96875 A 4 4 0 0 0 185.29492 454.59375 A 4 4 0 0 0 185.34961 455.2168 A 4 4 0 0 0 185.36914 455.42383 A 4 4 0 0 0 185.52734 455.80273 A 4 4 0 0 0 185.77148 456.38281 A 4 4 0 0 0 186.12695 456.89062 A 4 4 0 0 0 186.36914 457.23633 L 193.25 464.38672 L 204.87109 484.51758 A 4 4 0 0 0 205.22656 489.82031 A 4 4 0 0 0 208.54492 490.87891 L 211.125 495.34766 A 4 4 0 0 0 211.36914 500.53711 L 218.25 507.6875 L 229.87109 527.82031 A 4 4 0 0 0 230.22656 533.12109 A 4 4 0 0 0 233.54492 534.18164 L 236.10742 538.62305 A 4 4 0 0 0 235.36914 542.02539 A 4 4 0 0 0 240.21289 544.94727 L 249.84375 542.56445 L 273.08984 542.56445 A 4 4 0 0 0 277.86133 544.9082 A 4 4 0 0 0 280.45312 542.56445 L 289.25 542.56445 L 298.06445 542.56445 A 4 4 0 0 0 299.08594 544.03125 A 4 4 0 0 0 300.64062 544.9082 A 4 4 0 0 0 305.41016 542.56445 L 328.6582 542.56445 L 338.28906 544.94727 A 4 4 0 0 0 343.13281 542.02539 A 4 4 0 0 0 343.2168 541.58203 A 4 4 0 0 0 342.40039 538.60742 L 344.95703 534.18164 A 4 4 0 0 0 348.27344 533.12109 A 4 4 0 0 0 348.65234 527.7793 L 360.25195 507.6875 L 367.13281 500.53711 A 4 4 0 0 0 367.40039 495.30664 L 369.95703 490.87891 A 4 4 0 0 0 373.27344 489.82031 A 4 4 0 0 0 373.65234 484.47656 L 385.25195 464.38672 L 392.13281 457.23633 A 4 4 0 0 0 393.13281 455.42383 A 4 4 0 0 0 393.21289 455.01172 A 4 4 0 0 0 393.24805 454.5957 A 4 4 0 0 0 393.24023 454.17578 A 4 4 0 0 0 393.1875 453.76172 A 4 4 0 0 0 392.95703 452.95703 A 4 4 0 0 0 392.7793 452.57812 A 4 4 0 0 0 392.5625 452.21875 A 4 4 0 0 0 392.31055 451.88672 A 4 4 0 0 0 391.21875 450.98633 A 4 4 0 0 0 391.14258 450.94531 A 4 4 0 0 0 390.21094 450.58008 L 388.49414 450.15625 L 367.60352 413.9707 L 368.09375 412.27148 A 4 4 0 0 0 368.11328 412.18555 A 4 4 0 0 0 368.1543 412.01758 A 4 4 0 0 0 368.19922 411.77734 A 4 4 0 0 0 368.22461 411.58203 A 4 4 0 0 0 368.24219 411.37109 A 4 4 0 0 0 368.24609 411.16211 A 4 4 0 0 0 368.24219 410.95312 A 4 4 0 0 0 368.22461 410.75586 A 4 4 0 0 0 368.19531 410.51953 A 4 4 0 0 0 368.16016 410.3457 A 4 4 0 0 0 368.11133 410.13281 A 4 4 0 0 0 368.04688 409.91602 A 4 4 0 0 0 367.98438 409.73633 A 4 4 0 0 0 367.90234 409.53711 A 4 4 0 0 0 367.80859 409.33984 A 4 4 0 0 0 367.71484 409.17188 A 4 4 0 0 0 367.60352 408.98438 A 4 4 0 0 0 367.47266 408.79883 A 4 4 0 0 0 367.36328 408.6543 A 4 4 0 0 0 367.2168 408.48438 A 4 4 0 0 0 367.07617 408.33594 A 4 4 0 0 0 367.02344 408.2793 A 4 4 0 0 0 366.98828 408.25391 A 4 4 0 0 0 366.20117 407.67383 A 4 4 0 0 0 366.17383 407.65625 A 4 4 0 0 0 365.35938 407.31836 A 4 4 0 0 0 365.28711 407.30859 A 4 4 0 0 0 364.17383 407.16211 A 4 4 0 0 0 364.14062 407.16797 A 4 4 0 0 0 363.94922 407.19727 A 4 4 0 0 0 363.71289 407.23242 L 361.15039 402.79297 A 4 4 0 0 0 361.88281 399.375 A 4 4 0 0 0 357.46875 396.41602 L 345.8457 376.28516 L 343.09375 366.75 A 4 4 0 0 0 343.08594 366.73438 A 4 4 0 0 0 342.02344 364.97852 A 4 4 0 0 0 341.83398 364.83984 A 4 4 0 0 0 341.48047 364.57812 A 4 4 0 0 0 340.83594 364.22266 A 4 4 0 0 0 340.43164 364.06445 A 4 4 0 0 0 339.65625 363.91602 A 4 4 0 0 0 339.29102 363.875 A 4 4 0 0 0 339.17383 363.86133 A 4 4 0 0 0 337.08984 364.50977 A 4 4 0 0 0 336.8125 364.73047 A 4 4 0 0 0 336.36719 365.08594 L 335.14258 366.35938 L 293.35742 366.35938 L 292.13281 365.08594 A 4 4 0 0 0 292.06445 365.02344 A 4 4 0 0 0 292.02344 364.97852 A 4 4 0 0 0 291.99414 364.95703 A 4 4 0 0 0 291.35352 364.46484 A 4 4 0 0 0 291.27344 364.41797 A 4 4 0 0 0 291.20117 364.37305 A 4 4 0 0 0 291.17383 364.35547 A 4 4 0 0 0 290.35938 364.01758 A 4 4 0 0 0 290.28125 364.00586 A 4 4 0 0 0 289.77734 363.92969 A 4 4 0 0 0 289.32617 363.86133 A 4 4 0 0 0 289.25 363.86914 A 4 4 0 0 0 289.17383 363.86133 A 4 4 0 0 0 289.14062 363.86719 A 4 4 0 0 0 288.95703 363.89453 A 4 4 0 0 0 288.73242 363.92773 A 4 4 0 0 0 288.2207 364.00586 A 4 4 0 0 0 288.00391 364.07812 A 4 4 0 0 0 287.66016 364.22461 A 4 4 0 0 0 287.25586 364.4043 A 4 4 0 0 0 286.9707 364.60547 A 4 4 0 0 0 286.66797 364.83789 A 4 4 0 0 0 286.47656 364.97852 A 4 4 0 0 0 286.4375 365.0293 A 4 4 0 0 0 286.36719 365.08594 L 285.14258 366.35938 L 243.35742 366.35938 L 242.13281 365.08594 A 4 4 0 0 0 241.35156 364.46289 A 4 4 0 0 0 241.27734 364.41797 A 4 4 0 0 0 240.35938 364.01758 A 4 4 0 0 0 239.32617 363.86133 z "
     style="fill:none;stroke:#ff0000;stroke-opacity:1" />
</svg>
