<?xml version="1.0" encoding="UTF-8" standalone="no"?>
<svg
   version="1.1"
   width="1500"
   height="1000"
   class="svg_pane"
   data-attrTriangle="{&quot;fill&quot;:&quot;none&quot;,&quot;stroke&quot;:&quot;black&quot;,&quot;stroke-width&quot;:4,&quot;stroke-linecap&quot;:&quot;round&quot;,&quot;stroke-linejoin&quot;:&quot;round&quot;}"
   data-attrPattern="{&quot;fill&quot;:&quot;none&quot;,&quot;stroke&quot;:&quot;black&quot;,&quot;stroke-width&quot;:8,&quot;stroke-linecap&quot;:&quot;round&quot;,&quot;stroke-linejoin&quot;:&quot;round&quot;}"
   id="svg574"
   xmlns="http://www.w3.org/2000/svg"
   xmlns:svg="http://www.w3.org/2000/svg">
  <defs
     id="defs574" />
  <path
     id="polyline96"
     style="color:#000000;fill:none;stroke-linecap:round;stroke-linejoin:round;-inkscape-stroke:hairline;stroke:#ff0000;stroke-opacity:1;vector-effect:non-scaling-stroke;stroke-width:1;stroke-dasharray:none"
     d="M 825 299.10938 A 4 4 0 0 0 824.66211 299.19922 A 4 4 0 0 0 823.96484 299.24609 A 4 4 0 0 0 823.33984 299.55273 A 4 4 0 0 0 822.84961 299.79492 A 4 4 0 0 0 821.53516 301.10938 A 4 4 0 0 0 821 303.10938 L 821 306.03711 L 800.53516 341.48047 L 798 342.94531 A 4 4 0 0 0 797.84961 343.0957 A 4 4 0 0 0 796.53516 344.41016 A 4 4 0 0 0 796 346.41016 L 796 349.33789 L 775.53516 384.78516 L 773 386.24805 A 4 4 0 0 0 772.85352 386.39453 A 4 4 0 0 0 771.53516 387.71094 A 4 4 0 0 0 771.53516 391.71094 A 4 4 0 0 0 773 393.17578 L 775.53516 394.64062 L 796 430.08594 L 796 433.01367 A 4 4 0 0 0 796.53516 435.01367 A 4 4 0 0 0 798 436.47656 A 4 4 0 0 0 798.00586 436.48047 L 800.53516 437.93945 L 821 473.38672 L 821 476.31445 A 4 4 0 0 0 821.16797 476.94336 A 4.0004 4.0004 0 0 0 821.27344 477.33984 A 4 4 0 0 0 822.25 479.0293 A 4.0004 4.0004 0 0 0 822.53711 479.31641 A 4 4 0 0 0 824.36328 480.14453 A 4.0004 4.0004 0 0 0 824.69727 480.23242 A 4 4 0 0 0 825 480.31445 A 4 4 0 0 0 827 479.77734 L 827.00391 479.77539 L 829.5332 478.31445 L 870.4668 478.31445 L 872.99609 479.77539 A 4 4 0 0 0 873 479.77734 A 4 4 0 0 0 875 480.31445 A 4 4 0 0 0 877 479.77734 A 4 4 0 0 0 877.00391 479.77539 L 879.5332 478.31445 L 920.4668 478.31445 L 922.99609 479.77539 A 4 4 0 0 0 923 479.77734 A 4 4 0 0 0 925 480.31445 A 4 4 0 0 0 925.30273 480.23242 A 4.0004 4.0004 0 0 0 925.63672 480.14453 A 4 4 0 0 0 927.46289 479.31641 A 4.0004 4.0004 0 0 0 927.75 479.0293 A 4 4 0 0 0 928.72656 477.33984 A 4.0004 4.0004 0 0 0 928.83203 476.94336 A 4 4 0 0 0 929 476.31445 L 929 473.38672 L 949.46484 437.93945 L 951.99414 436.48047 A 4 4 0 0 0 952 436.47656 A 4 4 0 0 0 953.46484 435.01367 A 4 4 0 0 0 953.98242 433.08203 A 4 4 0 0 0 954 433.01367 L 954 430.08594 L 974.46484 394.64062 L 977 393.17578 A 4 4 0 0 0 978.46484 391.71094 A 4 4 0 0 0 977 386.24805 L 974.46484 384.78516 L 954 349.33789 L 954 346.41016 A 4 4 0 0 0 953.96875 346.13086 A 4 4 0 0 0 953.91602 345.66211 A 4 4 0 0 0 953.91016 345.61133 A 4.0006438 4.0006438 0 0 0 953.9043 345.5625 A 4 4 0 0 0 953.80469 345.25 A 4 4 0 0 0 953.65039 344.80859 A 4 4 0 0 0 953.44922 344.42773 A 4 4 0 0 0 953.20508 344.04102 A 4 4 0 0 0 952.92383 343.71289 A 4 4 0 0 0 952.68555 343.45117 A 4.0006438 4.0006438 0 0 0 952.65234 343.42578 A 4 4 0 0 0 952.59375 343.38281 A 4 4 0 0 0 952.25 343.13086 A 4 4 0 0 0 952 342.94531 L 949.46484 341.48047 L 929 306.03711 L 929 303.10938 A 4 4 0 0 0 925 299.10938 A 4 4 0 0 0 923 299.64453 L 920.46289 301.10938 L 879.53711 301.10938 L 877 299.64453 A 4 4 0 0 0 876.90625 299.61328 A 4 4 0 0 0 875.63086 299.17969 A 4 4 0 0 0 875.38086 299.15234 A 4 4 0 0 0 875 299.10938 A 4 4 0 0 0 874.66211 299.19922 A 4 4 0 0 0 873.96484 299.24609 A 4 4 0 0 0 873.33984 299.55273 A 4 4 0 0 0 873 299.64453 L 870.46289 301.10938 L 829.53711 301.10938 L 827 299.64453 A 4 4 0 0 0 826.90625 299.61328 A 4 4 0 0 0 825.63086 299.17969 A 4 4 0 0 0 825.38086 299.15234 A 4 4 0 0 0 825 299.10938 z M 836.46484 305.10938 L 863.53516 305.10938 L 850 312.92383 L 836.46484 305.10938 z M 886.46484 305.10938 L 913.53516 305.10938 L 900 312.92383 L 886.46484 305.10938 z M 832.46484 312.03711 L 846 319.85156 L 846 335.48047 L 832.46484 312.03711 z M 867.53516 312.03711 L 854 335.48047 L 854 319.85156 L 867.53516 312.03711 z M 882.46484 312.03711 L 896 319.85156 L 896 335.48047 L 882.46484 312.03711 z M 917.53516 312.03711 L 904 335.48047 L 904 319.85156 L 917.53516 312.03711 z M 821 314.03711 L 821 329.66602 L 807.46484 337.48047 L 821 314.03711 z M 929 314.03711 L 942.53516 337.48047 L 929 329.66602 L 929 314.03711 z M 829 314.03906 L 835.76758 325.75977 L 842.53516 337.48047 L 829 329.66602 L 829 314.03906 z M 871 314.03906 L 871 329.66602 L 857.46484 337.48047 L 871 314.03906 z M 879 314.03906 L 885.76758 325.75977 L 892.53516 337.48047 L 879 329.66602 L 879 314.03906 z M 921 314.03906 L 921 329.66602 L 907.46484 337.48047 L 921 314.03906 z M 825 336.5957 L 838.53516 344.41016 L 811.46484 344.41016 L 825 336.5957 z M 875 336.5957 L 888.53516 344.41016 L 861.46484 344.41016 L 875 336.5957 z M 925 336.5957 L 938.53516 344.41016 L 911.46484 344.41016 L 925 336.5957 z M 811.46484 348.41016 L 838.53516 348.41016 L 825 356.22461 L 811.46484 348.41016 z M 861.46484 348.41016 L 888.53516 348.41016 L 875 356.22461 L 861.46484 348.41016 z M 911.46484 348.41016 L 938.53516 348.41016 L 925 356.22461 L 911.46484 348.41016 z M 807.46484 355.33984 L 821 363.1543 L 821 378.78125 L 807.46484 355.33984 z M 842.53516 355.33984 L 829 378.78125 L 829 363.1543 L 842.53516 355.33984 z M 857.46484 355.33984 L 871 363.1543 L 871 378.78125 L 857.46484 355.33984 z M 892.53516 355.33984 L 879 378.78125 L 879 363.1543 L 892.53516 355.33984 z M 907.46484 355.33984 L 921 363.1543 L 921 378.78125 L 907.46484 355.33984 z M 942.53516 355.33984 L 929 378.78125 L 929 363.1543 L 942.53516 355.33984 z M 796 357.33789 L 796 372.96875 L 782.46484 380.7832 L 796 357.33789 z M 954 357.33789 L 967.53516 380.7832 L 954 372.96875 L 954 357.33789 z M 804 357.33984 L 810.76758 369.06055 L 817.53516 380.7832 L 804 372.96875 L 804 357.33984 z M 846 357.33984 L 846 372.96875 L 832.46484 380.7832 L 846 357.33984 z M 854 357.33984 L 860.76758 369.06055 L 867.53516 380.7832 L 854 372.96875 L 854 357.33984 z M 896 357.33984 L 896 372.96875 L 882.46484 380.7832 L 896 357.33984 z M 904 357.33984 L 910.76758 369.06055 L 917.53516 380.7832 L 904 372.96875 L 904 357.33984 z M 946 357.33984 L 946 372.96875 L 932.46484 380.7832 L 946 357.33984 z M 800 379.89648 L 813.53516 387.71094 L 786.46484 387.71094 L 800 379.89648 z M 850 379.89648 L 863.53516 387.71094 L 836.46484 387.71094 L 850 379.89648 z M 900 379.89648 L 913.53516 387.71094 L 886.46484 387.71094 L 900 379.89648 z M 950 379.89648 L 963.53516 387.71094 L 936.46484 387.71094 L 950 379.89648 z M 786.46094 391.71094 L 813.53906 391.71094 L 800 399.52734 L 786.46094 391.71094 z M 836.46094 391.71094 L 863.53906 391.71094 L 850 399.52734 L 836.46094 391.71094 z M 886.46094 391.71094 L 913.53906 391.71094 L 900 399.52734 L 886.46094 391.71094 z M 936.46094 391.71094 L 963.53906 391.71094 L 950 399.52734 L 936.46094 391.71094 z M 782.46484 398.64062 L 796 406.45508 L 796 422.08398 L 782.46484 398.64062 z M 817.53516 398.64062 L 810.76758 410.36328 L 804 422.08398 L 804 406.45508 L 817.53516 398.64062 z M 832.46484 398.64062 L 846 406.45508 L 846 422.08398 L 832.46484 398.64062 z M 867.53516 398.64062 L 860.76758 410.36328 L 854 422.08398 L 854 406.45508 L 867.53516 398.64062 z M 882.46484 398.64062 L 896 406.45508 L 896 422.08398 L 882.46484 398.64062 z M 917.53516 398.64062 L 910.76758 410.36328 L 904 422.08398 L 904 406.45508 L 917.53516 398.64062 z M 932.46484 398.64062 L 946 406.45508 L 946 422.08398 L 932.46484 398.64062 z M 967.53516 398.64062 L 954 422.08398 L 954 406.45508 L 967.53516 398.64062 z M 821 400.64062 L 821 416.26953 L 807.46484 424.08398 L 821 400.64062 z M 829 400.64062 L 835.76758 412.36328 L 842.53516 424.08398 L 829 416.26953 L 829 400.64062 z M 871 400.64062 L 871 416.26953 L 857.46484 424.08398 L 871 400.64062 z M 879 400.64062 L 885.76758 412.36328 L 892.53516 424.08398 L 879 416.26953 L 879 400.64062 z M 921 400.64062 L 921 416.26953 L 907.46484 424.08398 L 921 400.64062 z M 929 400.64062 L 935.76758 412.36328 L 942.53516 424.08398 L 929 416.26953 L 929 400.64062 z M 825 423.19727 L 838.53906 431.01367 L 811.46094 431.01367 L 825 423.19727 z M 875 423.19727 L 888.53906 431.01367 L 861.46094 431.01367 L 875 423.19727 z M 925 423.19727 L 938.53906 431.01367 L 911.46094 431.01367 L 925 423.19727 z M 811.46484 435.01367 L 838.53516 435.01367 L 825 442.82812 L 811.46484 435.01367 z M 861.46484 435.01367 L 888.53516 435.01367 L 875 442.82812 L 861.46484 435.01367 z M 911.46484 435.01367 L 938.53516 435.01367 L 925 442.82812 L 911.46484 435.01367 z M 807.46484 441.94141 L 821 449.75586 L 821 465.38672 L 807.46484 441.94141 z M 842.53516 441.94141 L 835.76758 453.66406 L 829 465.38477 L 829 449.75586 L 842.53516 441.94141 z M 857.46484 441.94141 L 871 449.75586 L 871 465.38477 L 857.46484 441.94141 z M 892.53516 441.94141 L 879 465.38477 L 879 449.75586 L 892.53516 441.94141 z M 907.46484 441.94141 L 921 449.75586 L 921 465.38477 L 907.46484 441.94141 z M 942.53516 441.94141 L 929 465.38672 L 929 449.75586 L 942.53516 441.94141 z M 846 443.94336 L 846 459.57031 L 832.46484 467.38477 L 846 443.94336 z M 854 443.94336 L 860.76758 455.66406 L 867.53516 467.38477 L 854 459.57031 L 854 443.94336 z M 896 443.94336 L 896 459.57031 L 882.46484 467.38477 L 896 443.94336 z M 904 443.94336 L 910.76758 455.66406 L 917.53516 467.38477 L 904 459.57031 L 904 443.94336 z M 850 466.49805 L 863.53906 474.31445 L 836.46094 474.31445 L 850 466.49805 z M 900 466.49805 L 913.53906 474.31445 L 886.46094 474.31445 L 900 466.49805 z " />
  <path
     id="polyline144"
     style="color:#000000;fill:none;stroke-linecap:round;stroke-linejoin:round;-inkscape-stroke:hairline;stroke:#ff0000;stroke-opacity:1;vector-effect:non-scaling-stroke;stroke-width:1;stroke-dasharray:none"
     d="M 475 472.31445 A 4 4 0 0 0 474.5 472.52148 A 4 4 0 0 0 473.96484 472.45117 A 4 4 0 0 0 473.53711 472.7793 A 4 4 0 0 0 473 472.84961 A 4 4 0 0 0 472.66992 473.2793 A 4 4 0 0 0 472.36328 473.67773 A 4 4 0 0 0 471.53516 474.31445 L 446.53516 517.61523 L 421.53516 560.91602 A 4.0004 4.0004 0 0 0 421.31836 562.14648 A 4 4 0 0 0 421.20703 562.41602 A 4 4 0 0 0 421 562.91602 A 4 4 0 0 0 421.12891 563.22656 A 4.0004 4.0004 0 0 0 421.45312 564.28906 A 4 4 0 0 0 421.53516 564.91602 L 446.53516 608.21875 L 471.53516 651.51953 A 4.0004 4.0004 0 0 0 472.07812 651.97461 A 4.0004 4.0004 0 0 0 473.08789 652.82422 A 4.0004 4.0004 0 0 0 474.33984 653.2793 A 4.0004 4.0004 0 0 0 475 653.51953 L 525 653.51953 L 575 653.51953 A 4.0004 4.0004 0 0 0 576.35547 653.2793 A 4.0004 4.0004 0 0 0 576.38086 653.26953 A 4.0004 4.0004 0 0 0 578.46484 651.51953 L 603.46484 608.21875 L 628.46484 564.91602 A 4.0004 4.0004 0 0 0 628.93945 563.61133 A 4.0004 4.0004 0 0 0 628.46484 560.91602 L 603.46484 517.61523 L 578.46484 474.31445 A 4.0004 4.0004 0 0 0 577.16016 473.01172 A 4 4 0 0 0 577 472.84961 A 4 4 0 0 0 576.8418 472.82812 A 4.0004 4.0004 0 0 0 575 472.31445 L 525 472.31445 L 475 472.31445 z M 485.92969 480.31445 L 514.07031 480.31445 L 500 488.4375 L 485.92969 480.31445 z M 535.92969 480.31445 L 564.07031 480.31445 L 550 488.4375 L 535.92969 480.31445 z M 483.92969 483.7793 L 498 491.90234 L 498 508.14844 L 483.92969 483.7793 z M 516.07031 483.7793 L 502 508.14844 L 502 491.90234 L 516.07031 483.7793 z M 533.92969 483.7793 L 548 491.90234 L 548 508.14844 L 533.92969 483.7793 z M 566.07031 483.7793 L 552 508.14844 L 552 491.90234 L 566.07031 483.7793 z M 473 487.78125 L 473 504.02734 L 458.92969 512.15039 L 473 487.78125 z M 477 487.78125 L 491.07031 512.15039 L 477 504.02734 L 477 487.78125 z M 523 487.78125 L 523 504.02734 L 508.92969 512.15039 L 523 487.78125 z M 527 487.78125 L 541.07031 512.15039 L 527 504.02734 L 527 487.78125 z M 573 487.78125 L 573 504.02734 L 558.92969 512.15039 L 573 487.78125 z M 577 487.78125 L 591.07031 512.15039 L 577 504.02734 L 577 487.78125 z M 474.99805 507.49023 L 489.07031 515.61523 L 460.92773 515.61523 L 474.99805 507.49023 z M 524.99805 507.49023 L 539.07031 515.61523 L 510.92773 515.61523 L 524.99805 507.49023 z M 575 507.49023 L 575.00195 507.49023 L 589.07227 515.61523 L 560.92773 515.61523 L 575 507.49023 z M 460.92773 523.61523 L 489.07227 523.61523 L 475 531.74023 L 474.99805 531.74023 L 460.92773 523.61523 z M 510.92773 523.61523 L 539.07227 523.61523 L 525 531.74023 L 524.99805 531.74023 L 510.92773 523.61523 z M 560.92773 523.61523 L 589.07227 523.61523 L 575 531.74023 L 574.99805 531.74023 L 560.92773 523.61523 z M 458.92969 527.08008 L 473 535.20312 L 473 551.44922 L 458.92969 527.08008 z M 491.07031 527.08008 L 477 551.44922 L 477 535.20312 L 491.07031 527.08008 z M 508.92969 527.08008 L 523 535.20312 L 523 551.44922 L 508.92969 527.08008 z M 541.07031 527.08008 L 527 551.44922 L 527 535.20312 L 541.07031 527.08008 z M 558.92969 527.08008 L 573 535.20312 L 573 551.44922 L 558.92969 527.08008 z M 591.07031 527.08008 L 577 551.44922 L 577 535.20312 L 591.07031 527.08008 z M 448 531.08203 L 448 547.32812 L 433.92969 555.45117 L 448 531.08203 z M 452 531.08203 L 466.07031 555.45117 L 452 547.32812 L 452 531.08203 z M 498 531.08203 L 498 547.32812 L 483.92969 555.45117 L 498 531.08203 z M 502 531.08203 L 516.07031 555.45117 L 502 547.32812 L 502 531.08203 z M 548 531.08203 L 548 547.32812 L 533.92969 555.45117 L 548 531.08203 z M 552 531.08203 L 566.07031 555.45117 L 552 547.32812 L 552 531.08203 z M 598 531.08203 L 598 547.32812 L 583.92969 555.45117 L 598 531.08203 z M 602 531.08203 L 616.07031 555.45117 L 602 547.32812 L 602 531.08203 z M 450 550.79297 L 464.07031 558.91602 L 435.92969 558.91602 L 450 550.79297 z M 500 550.79297 L 514.07031 558.91602 L 485.92969 558.91602 L 500 550.79297 z M 550 550.79297 L 564.07031 558.91602 L 535.92969 558.91602 L 550 550.79297 z M 600 550.79297 L 614.07031 558.91602 L 585.92969 558.91602 L 600 550.79297 z M 435.92773 566.91602 L 464.07227 566.91602 L 450 575.04102 L 435.92773 566.91602 z M 485.92773 566.91602 L 514.07227 566.91602 L 500 575.04102 L 485.92773 566.91602 z M 535.92773 566.91602 L 564.07227 566.91602 L 550 575.04102 L 535.92773 566.91602 z M 585.92773 566.91602 L 614.07227 566.91602 L 600 575.04102 L 585.92773 566.91602 z M 433.92969 570.38086 L 448 578.50391 L 448 594.75195 L 433.92969 570.38086 z M 483.92969 570.38086 L 498 578.50391 L 498 594.75195 L 483.92969 570.38086 z M 533.92969 570.38086 L 548 578.50391 L 548 594.75195 L 533.92969 570.38086 z M 583.92969 570.38086 L 598 578.50391 L 598 594.75195 L 583.92969 570.38086 z M 466.06836 570.38281 L 452 594.75195 L 452 578.50586 L 466.06836 570.38281 z M 516.06836 570.38281 L 502 594.75195 L 502 578.50586 L 516.06836 570.38281 z M 566.06836 570.38281 L 552 594.75195 L 552 578.50586 L 566.06836 570.38281 z M 616.06836 570.38281 L 602 594.75195 L 602 578.50586 L 616.06836 570.38281 z M 473 574.38281 L 473 590.62891 L 458.93164 598.75195 L 473 574.38281 z M 477 574.38281 L 491.07031 598.75391 L 477 590.63086 L 477 574.38281 z M 523 574.38281 L 523 590.62891 L 508.93164 598.75195 L 523 574.38281 z M 527 574.38281 L 541.07031 598.75391 L 527 590.63086 L 527 574.38281 z M 573 574.38281 L 573 590.62891 L 558.93164 598.75195 L 573 574.38281 z M 577 574.38281 L 591.07031 598.75391 L 577 590.63086 L 577 574.38281 z M 475 594.09375 L 489.07422 602.21875 L 460.92578 602.21875 L 475 594.09375 z M 525 594.09375 L 539.07422 602.21875 L 510.92578 602.21875 L 525 594.09375 z M 575 594.09375 L 589.07422 602.21875 L 560.92578 602.21875 L 575 594.09375 z M 460.92969 610.21875 L 489.07031 610.21875 L 475 618.3418 L 460.92969 610.21875 z M 510.92969 610.21875 L 539.07031 610.21875 L 525 618.3418 L 510.92969 610.21875 z M 560.92969 610.21875 L 589.07031 610.21875 L 575 618.3418 L 560.92969 610.21875 z M 458.92969 613.68164 L 473 621.80469 L 473 638.05273 L 458.92969 613.68164 z M 491.07031 613.68164 L 477 638.05273 L 477 621.80664 L 491.07031 613.68164 z M 508.92969 613.68164 L 523 621.80469 L 523 638.05273 L 508.92969 613.68164 z M 541.07031 613.68164 L 527 638.05273 L 527 621.80664 L 541.07031 613.68164 z M 558.92969 613.68164 L 573 621.80469 L 573 638.05273 L 558.92969 613.68164 z M 591.07031 613.68164 L 577 638.05273 L 577 621.80664 L 591.07031 613.68164 z M 498 617.68555 L 498 633.93164 L 483.92969 642.05469 L 498 617.68555 z M 502 617.68555 L 516.06836 642.05273 L 502 633.92969 L 502 617.68555 z M 548 617.68555 L 548 633.93164 L 533.92969 642.05469 L 548 617.68555 z M 552 617.68555 L 566.06836 642.05273 L 552 633.92969 L 552 617.68555 z M 500 637.39453 L 514.07227 645.51953 L 485.92773 645.51953 L 500 637.39453 z M 550 637.39453 L 564.07227 645.51953 L 535.92773 645.51953 L 550 637.39453 z " />
  <path
     id="line438"
     style="color:#000000;fill:none;stroke-linecap:round;stroke-linejoin:round;-inkscape-stroke:hairline;stroke:#ff0000;stroke-opacity:1;vector-effect:non-scaling-stroke;stroke-width:1;stroke-dasharray:none"
     d="M 150 775.42383 A 4 4 0 0 0 149.50195 775.62891 A 4 4 0 0 0 148.96484 775.55859 A 4 4 0 0 0 148.53516 775.88867 A 4 4 0 0 0 148 775.95898 A 4 4 0 0 0 147.67188 776.38672 A 4 4 0 0 0 147.36328 776.78711 A 4 4 0 0 0 146.53516 777.42383 L 121.53516 820.72461 L 96.535156 864.02539 A 4.0004 4.0004 0 0 0 96.318359 865.25586 A 4 4 0 0 0 96.207031 865.52539 A 4 4 0 0 0 96 866.02539 A 4 4 0 0 0 96.128906 866.33594 A 4.0004 4.0004 0 0 0 96.453125 867.39844 A 4 4 0 0 0 96.535156 868.02539 L 121.53516 911.32617 L 146.53516 954.62891 A 4.0004 4.0004 0 0 0 147.07812 955.08398 A 4.0004 4.0004 0 0 0 148.08789 955.93359 A 4.0004 4.0004 0 0 0 149.33984 956.38867 A 4.0004 4.0004 0 0 0 150 956.62891 L 200 956.62891 L 250 956.62891 A 4.0004 4.0004 0 0 0 251.36719 956.38867 A 4.0004 4.0004 0 0 0 251.37305 956.38477 A 4.0004 4.0004 0 0 0 253.46484 954.62891 L 278.46484 911.32617 L 303.46484 868.02539 A 4.0004 4.0004 0 0 0 303.93945 866.7207 A 4.0004 4.0004 0 0 0 303.93945 865.33008 A 4.0004 4.0004 0 0 0 303.46484 864.02539 L 278.46484 820.72461 L 253.46484 777.42383 A 4.0004 4.0004 0 0 0 252.57031 776.35938 A 4.0004 4.0004 0 0 0 252.16016 776.12109 A 4 4 0 0 0 252 775.95898 A 4 4 0 0 0 251.8418 775.9375 A 4.0004 4.0004 0 0 0 251.36719 775.66406 A 4.0004 4.0004 0 0 0 250 775.42383 L 200 775.42383 L 150 775.42383 z M 156.92969 783.42383 L 173 783.42383 L 173 792.70312 L 164.96484 797.3418 L 156.92969 783.42383 z M 177 783.42383 L 193.07031 783.42383 L 185.03516 797.3418 L 177 792.70117 L 177 783.42383 z M 210.92969 783.42383 L 223 783.42383 L 223 790.39258 L 210.92969 783.42383 z M 227 783.42383 L 239.07031 783.42383 L 227 790.39258 L 227 783.42383 z M 208.92969 786.88672 L 221.00195 793.85547 L 214.96484 797.3418 L 208.92969 786.88672 z M 241.07031 786.88672 L 235.03516 797.3418 L 229 793.85742 L 241.07031 786.88672 z M 150 787.42578 L 158.03516 801.3418 L 150 805.98047 L 141.96484 801.3418 L 150 787.42578 z M 200 787.42578 L 208.03516 801.3418 L 200 805.98047 L 191.96484 801.3418 L 200 787.42578 z M 250 787.42578 L 258.03516 801.3418 L 250 805.98047 L 245.21289 803.2168 L 249.54492 788.21484 L 250 787.42578 z M 175 796.16602 L 183.03516 800.80469 L 175 814.72266 L 166.96484 800.80469 L 175 796.16602 z M 223 797.32031 L 223 811.25781 L 216.96484 800.80469 L 223 797.32031 z M 227 797.32031 L 233.03516 800.80469 L 227 811.25781 L 227 797.32031 z M 139.96484 804.80664 L 148 809.44531 L 148 818.72461 L 131.92969 818.72461 L 139.96484 804.80664 z M 160.03516 804.80664 L 168.07031 818.72461 L 152 818.72461 L 152 809.44531 L 160.03516 804.80664 z M 189.96484 804.80664 L 198 809.44531 L 198 818.72461 L 181.92969 818.72461 L 189.96484 804.80664 z M 210.03516 804.80664 L 218.07031 818.72461 L 202 818.72461 L 202 809.44531 L 210.03516 804.80664 z M 239.96484 804.80664 L 240.50195 805.11523 L 238.61133 811.66016 L 236.33398 811.0957 L 239.96484 804.80664 z M 260.03516 804.80664 L 268.07031 818.72461 L 267.16211 818.72461 L 252 814.97266 L 252 809.44531 L 260.03516 804.80664 z M 244.07031 807.17578 L 248 809.44531 L 248 813.98242 L 242.49805 812.62109 L 244.07031 807.17578 z M 234.25195 814.70117 L 237.50195 815.50586 L 236.57227 818.72461 L 231.92969 818.72461 L 234.25195 814.70117 z M 241.38867 816.4668 L 248 818.10352 L 248 818.72461 L 240.73633 818.72461 L 241.38867 816.4668 z M 131.92969 826.72461 L 148 826.72461 L 148 836.00391 L 139.96484 840.64258 L 131.92969 826.72461 z M 152 826.72461 L 168.07031 826.72461 L 160.03516 840.64258 L 152 836.00391 L 152 826.72461 z M 185.92969 826.72461 L 198 826.72461 L 198 833.69336 L 185.92969 826.72461 z M 202 826.72461 L 214.07031 826.72461 L 202 833.69336 L 202 826.72461 z M 231.92969 826.72461 L 248 826.72461 L 248 836.00391 L 239.96484 840.64258 L 231.92969 826.72461 z M 252 826.72461 L 268.07031 826.72461 L 260.03516 840.64258 L 252 836.00391 L 252 826.72461 z M 183.92969 830.18945 L 196 837.1582 L 189.96484 840.64258 L 183.92969 830.18945 z M 216.07031 830.18945 L 210.03516 840.64258 L 204 837.1582 L 216.07031 830.18945 z M 125 830.72656 L 133.03516 844.64258 L 125 849.28125 L 116.96484 844.64258 L 125 830.72656 z M 275 830.72656 L 283.03516 844.64258 L 275 849.28125 L 266.96484 844.64258 L 275 830.72656 z M 173 834.19141 L 173 848.12695 L 166.96484 844.64258 L 173 834.19141 z M 177 834.19141 L 183.03516 844.64258 L 177 848.12695 L 177 834.19141 z M 223 834.19141 L 223 848.12695 L 216.96484 844.64258 L 223 834.19141 z M 227 834.19141 L 233.03516 844.64258 L 227 848.12695 L 227 834.19141 z M 149.99805 839.4668 L 158.03516 844.10742 L 150 858.02344 L 141.96484 844.10742 L 141.96484 844.10547 L 149.99805 839.4668 z M 249.99805 839.4668 L 258.03516 844.10742 L 250 858.02344 L 241.96484 844.10742 L 241.96484 844.10547 L 249.99805 839.4668 z M 198 840.62109 L 198 854.55859 L 191.96484 844.10742 L 191.96484 844.10547 L 198 840.62109 z M 202 840.62305 L 208.03516 844.10742 L 202 854.55859 L 202 840.62305 z M 114.96484 848.10742 L 123 852.74609 L 123 862.02539 L 106.92969 862.02539 L 114.96484 848.10742 z M 135.03516 848.10742 L 143.07031 862.02539 L 127 862.02539 L 127 852.74609 L 135.03516 848.10742 z M 164.96484 848.10742 L 171 851.5918 L 158.92969 858.56055 L 164.96484 848.10742 z M 185.03516 848.10742 L 191.07031 858.56055 L 179 851.5918 L 185.03516 848.10742 z M 214.96484 848.10742 L 221 851.5918 L 208.92969 858.56055 L 214.96484 848.10742 z M 235.03516 848.10742 L 241.07031 858.56055 L 229 851.5918 L 235.03516 848.10742 z M 264.96484 848.10742 L 273 852.74609 L 273 862.02539 L 256.92969 862.02539 L 264.96484 848.10742 z M 285.03516 848.10742 L 293.07031 862.02539 L 277 862.02539 L 277 852.74609 L 285.03516 848.10742 z M 173 855.05469 L 173 862.02539 L 160.92773 862.02539 L 173 855.05469 z M 223 855.05469 L 223 862.02539 L 210.92773 862.02539 L 223 855.05469 z M 177 855.05664 L 189.07031 862.02539 L 177 862.02539 L 177 855.05664 z M 227 855.05664 L 239.07031 862.02539 L 227 862.02539 L 227 855.05664 z M 106.92969 870.02539 L 123 870.02539 L 123 879.30469 L 114.96484 883.94336 L 106.92969 870.02539 z M 127 870.02539 L 143.07031 870.02539 L 135.03516 883.94336 L 127 879.30469 L 127 870.02539 z M 160.92773 870.02539 L 173 870.02539 L 173 876.99609 L 160.92773 870.02539 z M 177 870.02539 L 189.07227 870.02539 L 177 876.99609 L 177 870.02539 z M 206.92969 870.02539 L 223 870.02539 L 223 879.30469 L 214.96484 883.94336 L 206.92969 870.02539 z M 227 870.02539 L 243.07031 870.02539 L 235.03516 883.94336 L 227 879.30469 L 227 870.02539 z M 256.92969 870.02539 L 273 870.02539 L 273 879.30469 L 268.21289 882.06836 L 257.38672 870.81836 L 256.92969 870.02539 z M 277 870.02539 L 293.07031 870.02539 L 292.61328 870.81836 L 281.78711 882.06836 L 277 879.30469 L 277 870.02539 z M 158.92969 873.49023 L 171 880.45898 L 164.96484 883.94336 L 158.92969 873.49023 z M 191.07031 873.49023 L 185.03516 883.94336 L 179 880.45898 L 191.07031 873.49023 z M 250 874.02734 L 250.45508 874.81641 L 254.78711 889.81836 L 250 892.58203 L 245.21289 889.81836 L 249.54492 874.81641 L 250 874.02734 z M 148 877.49219 L 148 891.42773 L 141.96484 887.94336 L 148 877.49219 z M 152 877.49219 L 158.03516 887.94336 L 152 891.42773 L 152 877.49219 z M 198 877.49219 L 198 891.42773 L 191.96484 887.94336 L 198 877.49219 z M 202 877.49219 L 208.03516 887.94336 L 202 891.42773 L 202 877.49219 z M 125 882.76953 L 133.03516 887.4082 L 125 901.32422 L 116.96484 887.4082 L 125 882.76953 z M 225 882.76953 L 233.03516 887.4082 L 225 901.32422 L 216.96484 887.4082 L 225 882.76953 z M 275 882.76953 L 278.92969 885.03711 L 275 889.12109 L 271.07031 885.03711 L 275 882.76953 z M 173 883.92383 L 173 897.85938 L 166.96484 887.4082 L 173 883.92383 z M 177 883.92383 L 183.03516 887.4082 L 177 897.85938 L 177 883.92383 z M 267.50195 887.09766 L 272.22461 892.00586 L 270.59766 893.69727 L 270.5957 893.69727 L 266.96484 887.4082 L 267.50195 887.09766 z M 282.49805 887.09766 L 283.03516 887.4082 L 279.40234 893.69727 L 277.77539 892.00586 L 282.49805 887.09766 z M 139.96484 891.4082 L 146 894.89258 L 133.92969 901.86133 L 139.96484 891.4082 z M 160.03516 891.4082 L 166.07031 901.86133 L 154 894.89258 L 160.03516 891.4082 z M 189.96484 891.4082 L 196 894.89258 L 183.92969 901.86133 L 189.96484 891.4082 z M 210.03516 891.4082 L 216.07031 901.86133 L 204 894.89258 L 210.03516 891.4082 z M 239.96484 891.4082 L 240.50195 891.71875 L 238.61133 898.26367 L 236.33398 897.69922 L 239.96484 891.4082 z M 260.03516 891.4082 L 263.66602 897.69922 L 261.38867 898.26367 L 259.49805 891.71875 L 260.03516 891.4082 z M 244.07031 893.7793 L 248 896.04688 L 248 900.58594 L 242.49805 899.22461 L 244.07031 893.7793 z M 255.92969 893.7793 L 257.50195 899.22461 L 252 900.58594 L 252 896.04688 L 255.92969 893.7793 z M 275 894.89062 L 277.32031 897.30273 L 275 901.32422 L 272.67969 897.30273 L 275 894.89062 z M 148 898.35742 L 148 905.32617 L 135.92969 905.32617 L 148 898.35742 z M 152 898.35742 L 164.07031 905.32617 L 152 905.32617 L 152 898.35742 z M 198 898.35742 L 198 905.32617 L 185.92969 905.32617 L 198 898.35742 z M 202 898.35742 L 214.07031 905.32617 L 202 905.32617 L 202 898.35742 z M 234.25 901.30469 L 234.25195 901.30469 L 237.50195 902.10938 L 236.85938 904.33203 L 232.83984 905.32617 L 231.92969 905.32617 L 234.25 901.30469 z M 265.74805 901.30469 L 265.75 901.30469 L 268.07031 905.32617 L 267.16016 905.32617 L 263.14062 904.33203 L 262.49805 902.10938 L 265.74805 901.30469 z M 241.38867 903.07031 L 241.67188 903.14062 L 241.34375 903.22266 L 241.38867 903.07031 z M 258.61133 903.07031 L 258.65625 903.22266 L 258.32812 903.14062 L 258.61133 903.07031 z M 131.92969 913.32617 L 148 913.32617 L 148 922.60742 L 139.96484 927.24609 L 131.92969 913.32617 z M 152 913.32617 L 168.07031 913.32617 L 160.03516 927.24414 L 152 922.60547 L 152 913.32617 z M 181.92969 913.32617 L 198 913.32617 L 198 922.60742 L 189.96484 927.24609 L 181.92969 913.32617 z M 202 913.32617 L 218.07031 913.32617 L 210.03516 927.24414 L 202 922.60547 L 202 913.32617 z M 231.92969 913.32617 L 248 913.32617 L 248 922.60742 L 243.21484 925.37109 L 232.38672 914.11914 L 231.92969 913.32617 z M 252 913.32617 L 268.07031 913.32617 L 267.61328 914.11914 L 256.78711 925.36914 L 252 922.60547 L 252 913.32617 z M 175 917.32812 L 183.03516 931.24609 L 175 935.88477 L 166.96484 931.24609 L 175 917.32812 z M 225 917.32812 L 233.03516 931.24609 L 225 935.88477 L 216.96484 931.24609 L 225 917.32812 z M 150 926.07031 L 158.03516 930.70898 L 150 944.62695 L 141.96484 930.70898 L 150 926.07031 z M 200 926.07031 L 208.03516 930.70898 L 200 944.62695 L 191.96484 930.70898 L 200 926.07031 z M 250 926.07031 L 253.92969 928.33789 L 250 932.42188 L 246.07031 928.33789 L 250 926.07031 z M 242.50195 930.39844 L 247.22461 935.30664 L 245.5957 937 L 241.96484 930.70898 L 242.50195 930.39844 z M 257.49805 930.39844 L 258.03516 930.70898 L 254.4043 937 L 252.77539 935.30664 L 257.49805 930.39844 z M 164.96484 934.71094 L 173 939.34961 L 173 948.62891 L 156.92969 948.62891 L 164.96484 934.71094 z M 185.03516 934.71094 L 193.07031 948.62891 L 177 948.62891 L 177 939.34961 L 185.03516 934.71094 z M 214.96484 934.71094 L 223 939.34961 L 223 948.62891 L 206.92969 948.62891 L 214.96484 934.71094 z M 235.03516 934.71094 L 243.07031 948.62891 L 227 948.62891 L 227 939.34961 L 235.03516 934.71094 z M 250 938.19141 L 252.32227 940.60547 L 250 944.62695 L 247.67773 940.60547 L 250 938.19141 z " />
</svg>
