<?xml version="1.0" encoding="UTF-8" standalone="no"?>
<svg
   version="1.1"
   width="1510"
   height="2000"
   class="svg_pane"
   data-attrTriangle="{&quot;fill&quot;:&quot;none&quot;,&quot;stroke&quot;:&quot;black&quot;,&quot;stroke-width&quot;:8,&quot;stroke-linecap&quot;:&quot;round&quot;,&quot;stroke-linejoin&quot;:&quot;round&quot;}"
   data-attrPattern="{&quot;fill&quot;:&quot;none&quot;,&quot;stroke&quot;:&quot;black&quot;,&quot;stroke-width&quot;:8,&quot;stroke-linecap&quot;:&quot;round&quot;,&quot;stroke-linejoin&quot;:&quot;round&quot;}"
   id="svg1494"
   xmlns="http://www.w3.org/2000/svg"
   xmlns:svg="http://www.w3.org/2000/svg">
  <defs
     id="defs1494" />
  <path
     id="polyline1488"
     style="color:#000000;fill:none;stroke-linecap:round;stroke-linejoin:round;-inkscape-stroke:hairline;stroke:#ff0000;stroke-opacity:1;vector-effect:non-scaling-stroke;stroke-width:1;stroke-dasharray:none"
     d="M 250 169.20508 A 4 4 0 0 0 249.66211 169.29492 A 4 4 0 0 0 248.96484 169.3418 A 4 4 0 0 0 248.33984 169.64844 A 4 4 0 0 0 248 169.74023 A 4 4 0 0 0 247.84961 169.89062 A 4 4 0 0 0 246.53516 171.20508 L 221.53516 214.50586 A 4.0004 4.0004 0 0 0 221.45508 214.80859 A 4.0004 4.0004 0 0 0 221.36328 215.15234 A 4 4 0 0 0 221 216.50586 A 4 4 0 0 0 221.16797 217.13477 A 4.0004 4.0004 0 0 0 221.27539 217.53516 A 4 4 0 0 0 221.53516 218.50586 L 246.53516 261.80859 L 271.53516 305.10938 A 4 4 0 0 0 273 306.57422 A 4.0004 4.0004 0 0 0 275 307.10938 L 325 307.10938 L 375 307.10938 A 4.0004 4.0004 0 0 0 376.82422 306.62109 A 4 4 0 0 0 377 306.57422 A 4.0004 4.0004 0 0 0 377.07227 306.50195 A 4.0004 4.0004 0 0 0 378.3418 305.23242 A 4 4 0 0 0 378.46484 305.10938 L 403.46484 261.80859 A 4 4 0 0 0 403.62305 261.44336 A 4.0004 4.0004 0 0 0 403.75195 261.15039 A 4 4 0 0 0 403.85547 260.8125 A 4.0004 4.0004 0 0 0 403.91406 260.50195 A 4 4 0 0 0 403.97461 259.69141 A 4.0004 4.0004 0 0 0 403.96484 259.4043 A 4 4 0 0 0 403.9082 259.03125 A 4.0004 4.0004 0 0 0 403.83008 258.74023 A 4 4 0 0 0 403.72461 258.34766 A 4.0004 4.0004 0 0 0 403.72461 258.3457 A 4 4 0 0 0 403.53711 257.99219 A 4.0004 4.0004 0 0 0 403.46484 257.80859 L 378.46484 214.50586 L 353.46484 171.20508 A 4 4 0 0 0 353.41211 171.16602 A 4 4 0 0 0 353.12695 170.71094 A 4 4 0 0 0 352.71875 170.30273 A 4.0006438 4.0006438 0 0 0 352.625 170.20898 A 4 4 0 0 0 352.34375 169.98242 A 4.0004 4.0004 0 0 0 352.07227 169.8125 A 4.0004 4.0004 0 0 0 352.06836 169.81055 A 4 4 0 0 0 352 169.74023 A 4 4 0 0 0 351.94531 169.73242 A 4 4 0 0 0 351.35742 169.46875 A 4.0004 4.0004 0 0 0 351.0625 169.36523 A 4 4 0 0 0 350.49414 169.25977 A 4.0006438 4.0006438 0 0 0 350.33984 169.24219 A 4 4 0 0 0 350 169.20508 L 300 169.20508 L 250 169.20508 z M 264.92969 177.20508 L 285.07031 177.20508 L 275 183.01953 L 264.92969 177.20508 z M 314.92969 177.20508 L 335.07031 177.20508 L 325 183.01953 L 314.92969 177.20508 z M 260.93164 184.13672 L 271 189.94922 L 271 201.57617 L 260.93164 184.13672 z M 289.06836 184.13672 L 279 201.57617 L 279 189.94922 L 289.06836 184.13672 z M 310.93164 184.13672 L 321 189.94922 L 321 201.57617 L 310.93164 184.13672 z M 339.06836 184.13672 L 329 201.57617 L 329 189.94922 L 339.06836 184.13672 z M 246 188.13477 L 246 199.76367 L 235.92969 205.57812 L 246 188.13477 z M 254 188.13477 L 264.07031 205.57812 L 254 199.76367 L 254 188.13477 z M 296 188.13477 L 296 199.76367 L 285.92969 205.57812 L 296 188.13477 z M 304 188.13477 L 314.07031 205.57812 L 304 199.76367 L 304 188.13477 z M 346 188.13477 L 346 199.76367 L 335.92969 205.57812 L 346 188.13477 z M 354 188.13477 L 364.07031 205.57812 L 354 199.76367 L 354 188.13477 z M 250 206.69141 L 260.07031 212.50586 L 239.92969 212.50586 L 250 206.69141 z M 300 206.69141 L 310.07031 212.50586 L 289.92969 212.50586 L 300 206.69141 z M 350 206.69141 L 360.07031 212.50586 L 339.92969 212.50586 L 350 206.69141 z M 239.92578 220.50586 L 260.07422 220.50586 L 250 226.32227 L 239.92578 220.50586 z M 289.92578 220.50586 L 310.07422 220.50586 L 300 226.32227 L 289.92578 220.50586 z M 339.92578 220.50586 L 360.07422 220.50586 L 350 226.32227 L 339.92578 220.50586 z M 235.93164 227.43555 L 246 233.25 L 246 244.87891 L 235.93164 227.43555 z M 264.06836 227.43555 L 254 244.87891 L 254 233.25 L 264.06836 227.43555 z M 285.93164 227.43555 L 296 233.25 L 296 244.87891 L 285.93164 227.43555 z M 314.06836 227.43555 L 304 244.87891 L 304 233.25 L 314.06836 227.43555 z M 335.93164 227.43555 L 346 233.25 L 346 244.87891 L 335.93164 227.43555 z M 364.06836 227.43555 L 354 244.87891 L 354 233.25 L 364.06836 227.43555 z M 271 231.43555 L 271 243.06445 L 260.92969 248.87891 L 271 231.43555 z M 279 231.43555 L 289.07031 248.87891 L 279 243.06445 L 279 231.43555 z M 321 231.43555 L 321 243.06445 L 310.93164 248.87891 L 321 231.43555 z M 329 231.43555 L 339.06836 248.87891 L 329 243.06445 L 329 231.43555 z M 371 231.43555 L 371 243.06445 L 360.93164 248.87891 L 371 231.43555 z M 379 231.43555 L 389.06836 248.87891 L 379 243.06445 L 379 231.43555 z M 275 249.99219 L 285.07422 255.80859 L 264.92578 255.80859 L 275 249.99219 z M 325 249.99219 L 335.07422 255.80859 L 314.92578 255.80859 L 325 249.99219 z M 375 249.99219 L 385.07422 255.80859 L 364.92578 255.80859 L 375 249.99219 z M 264.92969 263.80859 L 285.07031 263.80859 L 275 269.62305 L 264.92969 263.80859 z M 314.92969 263.80859 L 335.07031 263.80859 L 325 269.62305 L 314.92969 263.80859 z M 364.92969 263.80859 L 385.07031 263.80859 L 375 269.62305 L 364.92969 263.80859 z M 260.92969 270.73633 L 271 276.55078 L 271 288.17969 L 260.92969 270.73633 z M 289.07031 270.73633 L 279 288.17969 L 279 276.55078 L 289.07031 270.73633 z M 310.92969 270.73633 L 321 276.55078 L 321 288.17969 L 310.92969 270.73633 z M 339.07031 270.73633 L 329 288.17969 L 329 276.55078 L 339.07031 270.73633 z M 360.92969 270.73633 L 371 276.55078 L 371 288.17969 L 360.92969 270.73633 z M 389.07031 270.73633 L 379 288.17969 L 379 276.55078 L 389.07031 270.73633 z M 296 274.73828 L 296 286.36523 L 285.93164 292.17773 L 296 274.73828 z M 304 274.73828 L 314.06836 292.17773 L 304 286.36523 L 304 274.73828 z M 346 274.73828 L 346 286.36523 L 335.93164 292.17773 L 346 274.73828 z M 354 274.73828 L 364.06836 292.17773 L 354 286.36523 L 354 274.73828 z M 300 293.29297 L 310.07422 299.10938 L 289.92578 299.10938 L 300 293.29297 z M 350 293.29297 L 360.07422 299.10938 L 339.92578 299.10938 L 350 293.29297 z " />
</svg>
