<?xml version="1.0" encoding="UTF-8" standalone="no"?>
<svg
   version="1.1"
   width="1510"
   height="2000"
   class="svg_pane"
   data-attrTriangle="{&quot;fill&quot;:&quot;none&quot;,&quot;stroke&quot;:&quot;black&quot;,&quot;stroke-width&quot;:8,&quot;stroke-linecap&quot;:&quot;round&quot;,&quot;stroke-linejoin&quot;:&quot;round&quot;}"
   data-attrPattern="{&quot;fill&quot;:&quot;none&quot;,&quot;stroke&quot;:&quot;black&quot;,&quot;stroke-width&quot;:5,&quot;stroke-linecap&quot;:&quot;round&quot;,&quot;stroke-linejoin&quot;:&quot;round&quot;}"
   id="svg1752"
   xmlns="http://www.w3.org/2000/svg"
   xmlns:svg="http://www.w3.org/2000/svg">
  <defs
     id="defs1752" />
  <path
     id="line1621"
     style="color:#000000;fill:none;stroke-linecap:round;stroke-linejoin:round;-inkscape-stroke:hairline;stroke:#ff0000;stroke-opacity:1;vector-effect:non-scaling-stroke;stroke-width:1;stroke-dasharray:none"
     d="M 400 169.20508 A 4 4 0 0 0 399.5 169.41211 A 4 4 0 0 0 398.96484 169.3418 A 4 4 0 0 0 398.53711 169.66992 A 4 4 0 0 0 398 169.74023 A 4 4 0 0 0 397.66992 170.16992 A 4 4 0 0 0 397.36328 170.56836 A 4 4 0 0 0 396.53516 171.20508 L 371.53516 214.50586 L 346.53516 257.80859 A 4.0004 4.0004 0 0 0 346.31836 259.03906 A 4 4 0 0 0 346.20703 259.30859 A 4 4 0 0 0 346 259.80859 A 4 4 0 0 0 346.12891 260.11914 A 4.0004 4.0004 0 0 0 346.45312 261.18164 A 4 4 0 0 0 346.53516 261.80859 L 371.53516 305.10938 L 396.53516 348.41016 A 4.0004 4.0004 0 0 0 397.07812 348.86523 A 4.0004 4.0004 0 0 0 398.08789 349.71484 A 4.0004 4.0004 0 0 0 399.33984 350.16992 A 4.0004 4.0004 0 0 0 400 350.41016 L 450 350.41016 L 500 350.41016 A 4.0004 4.0004 0 0 0 501.36719 350.16992 A 4.0004 4.0004 0 0 0 501.37305 350.16602 A 4.0004 4.0004 0 0 0 502.57031 349.47461 A 4.0004 4.0004 0 0 0 503.46484 348.41016 L 528.46484 305.10938 L 553.46484 261.80859 L 578.46484 218.50586 A 4.0004 4.0004 0 0 0 578.93945 217.20117 A 4.0004 4.0004 0 0 0 578.93945 215.81055 A 4.0004 4.0004 0 0 0 578.46484 214.50586 L 553.46484 171.20508 A 4.0004 4.0004 0 0 0 552.57031 170.14062 A 4.0004 4.0004 0 0 0 552.16016 169.90234 A 4 4 0 0 0 552 169.74023 A 4 4 0 0 0 551.8418 169.71875 A 4.0004 4.0004 0 0 0 551.36719 169.44531 A 4.0004 4.0004 0 0 0 550 169.20508 L 500 169.20508 L 450 169.20508 L 400 169.20508 z M 406.92969 177.20508 L 411.4707 177.20508 L 409.19922 181.13672 L 406.92969 177.20508 z M 417.24414 177.20508 L 422.5 177.20508 L 422.5 186.19531 L 414.71484 190.68945 L 412.08594 186.13867 L 412.08594 186.13672 L 417.24414 177.20508 z M 427.5 177.20508 L 432.75586 177.20508 L 437.91406 186.13672 L 437.91406 186.13867 L 435.28516 190.68945 L 427.5 186.19531 L 427.5 177.20508 z M 438.5293 177.20508 L 443.07031 177.20508 L 440.80078 181.13672 L 438.5293 177.20508 z M 456.92969 177.20508 L 461.4707 177.20508 L 459.19922 181.13672 L 456.92969 177.20508 z M 467.24414 177.20508 L 472.5 177.20508 L 472.5 186.19531 L 464.71484 190.68945 L 462.08594 186.13867 L 462.08594 186.13672 L 467.24414 177.20508 z M 477.5 177.20508 L 482.75586 177.20508 L 487.91406 186.13672 L 487.91406 186.13867 L 485.28516 190.68945 L 477.5 186.19531 L 477.5 177.20508 z M 488.5293 177.20508 L 493.07031 177.20508 L 490.80078 181.13672 L 488.5293 177.20508 z M 506.92969 177.20508 L 511.4707 177.20508 L 509.19922 181.13672 L 506.92969 177.20508 z M 517.24414 177.20508 L 522.5 177.20508 L 522.5 186.19531 L 514.71484 190.68945 L 512.08594 186.13867 L 512.08594 186.13672 L 517.24414 177.20508 z M 527.5 177.20508 L 532.75586 177.20508 L 537.91406 186.13672 L 537.91406 186.13867 L 535.28516 190.68945 L 527.5 186.19531 L 527.5 177.20508 z M 538.5293 177.20508 L 543.07031 177.20508 L 540.80078 181.13672 L 538.5293 177.20508 z M 400 181.20703 L 402.26953 185.13867 L 397.73047 185.13867 L 400 181.20703 z M 450 181.20703 L 452.26953 185.13867 L 447.73047 185.13867 L 450 181.20703 z M 550 181.20703 L 552.26953 185.13867 L 547.73047 185.13867 L 550 181.20703 z M 500.19531 181.54492 L 502.26953 185.13867 L 499.1582 185.13867 L 500.19531 181.54492 z M 394.84375 190.13867 L 405.15625 190.13867 L 407.78516 194.69141 L 400 199.1875 L 392.21484 194.69141 L 394.84375 190.13867 z M 444.84375 190.13867 L 455.15625 190.13867 L 457.78516 194.69141 L 450 199.1875 L 442.21484 194.69141 L 444.84375 190.13867 z M 497.71484 190.13867 L 505.15625 190.13867 L 507.78516 194.69141 L 500 199.1875 L 495.80078 196.76367 L 497.71484 190.13867 z M 544.84375 190.13867 L 555.15625 190.13867 L 557.78516 194.69141 L 550 199.1875 L 542.21484 194.69141 L 544.84375 190.13867 z M 425 190.52539 L 432.78516 195.01953 L 432.78516 195.02148 L 430.15625 199.57227 L 419.84375 199.57227 L 417.21484 195.02148 L 417.21484 195.01953 L 425 190.52539 z M 475 190.52539 L 482.78516 195.01953 L 482.78516 195.02148 L 480.15625 199.57227 L 469.84375 199.57227 L 467.21484 195.02148 L 467.21484 195.01953 L 475 190.52539 z M 525 190.52539 L 532.78516 195.01953 L 532.78516 195.02148 L 530.15625 199.57227 L 519.84375 199.57227 L 517.21484 195.02148 L 517.21484 195.01953 L 525 190.52539 z M 389.71484 199.02148 L 397.5 203.51562 L 397.5 212.50586 L 392.24414 212.50586 L 387.08594 203.57422 L 389.71484 199.02148 z M 410.28516 199.02148 L 412.91406 203.57227 L 412.91406 203.57422 L 407.75586 212.50586 L 402.5 212.50586 L 402.5 203.51562 L 410.28516 199.02148 z M 439.71484 199.02148 L 447.5 203.51562 L 447.5 212.50586 L 442.24414 212.50586 L 437.08594 203.57422 L 437.08594 203.57227 L 439.71484 199.02148 z M 460.28516 199.02148 L 462.91406 203.57227 L 462.91406 203.57422 L 457.75586 212.50586 L 452.5 212.50586 L 452.5 203.51562 L 460.28516 199.02148 z M 489.71484 199.02148 L 489.91211 199.13477 L 488.26562 204.8418 L 487.74414 204.71289 L 487.08594 203.57422 L 487.08594 203.57227 L 489.71484 199.02148 z M 510.28516 199.02148 L 512.91406 203.57227 L 512.91406 203.57422 L 509.19141 210.01953 L 502.5 208.36328 L 502.5 203.51562 L 510.28516 199.02148 z M 539.71484 199.02148 L 547.5 203.51562 L 547.5 212.50586 L 542.24414 212.50586 L 537.08594 203.57422 L 537.08594 203.57227 L 539.71484 199.02148 z M 560.28516 199.02148 L 562.91406 203.57422 L 557.75586 212.50586 L 552.5 212.50586 L 552.5 203.51562 L 560.28516 199.02148 z M 494.37305 201.71094 L 497.5 203.51562 L 497.5 207.12695 L 493.12305 206.04297 L 494.37305 201.71094 z M 422.73047 204.57227 L 427.26953 204.57227 L 425 208.50391 L 422.73047 204.57227 z M 472.73047 204.57227 L 477.26953 204.57227 L 475 208.50391 L 472.73047 204.57227 z M 522.73047 204.57227 L 527.26953 204.57227 L 525 208.50391 L 522.73047 204.57227 z M 384.19922 208.57422 L 386.4707 212.50586 L 381.92969 212.50586 L 384.19922 208.57422 z M 415.80078 208.57422 L 418.07031 212.50586 L 413.5293 212.50586 L 415.80078 208.57422 z M 434.19922 208.57422 L 436.4707 212.50586 L 431.92969 212.50586 L 434.19922 208.57422 z M 465.80078 208.57422 L 468.07031 212.50586 L 463.5293 212.50586 L 465.80078 208.57422 z M 515.80078 208.57422 L 517.875 212.16797 L 514.24219 211.26953 L 515.80078 208.57422 z M 534.19922 208.57422 L 536.4707 212.50586 L 531.92969 212.50586 L 534.19922 208.57422 z M 565.80078 208.57422 L 568.07031 212.50586 L 563.5293 212.50586 L 565.80078 208.57422 z M 483.99219 208.93359 L 484.47852 209.05469 L 486.19141 212.02344 L 486.05273 212.50586 L 481.92969 212.50586 L 483.99219 208.93359 z M 491.73438 210.84961 L 497.5 212.27734 L 497.5 212.50586 L 492.24414 212.50586 L 491.58594 211.36719 L 491.73438 210.84961 z M 381.92969 220.50586 L 386.4707 220.50586 L 384.19922 224.4375 L 381.92969 220.50586 z M 392.24414 220.50586 L 397.5 220.50586 L 397.5 229.49609 L 389.71484 233.99219 L 387.08594 229.43945 L 387.08594 229.4375 L 392.24414 220.50586 z M 402.5 220.50586 L 407.75586 220.50586 L 412.91406 229.4375 L 412.91406 229.43945 L 410.28516 233.99219 L 402.5 229.49609 L 402.5 220.50586 z M 413.5293 220.50586 L 418.07031 220.50586 L 415.80078 224.4375 L 413.5293 220.50586 z M 436.92773 220.50586 L 447.5 220.50586 L 447.5 226.60938 L 436.92773 220.50586 z M 452.5 220.50586 L 463.07227 220.50586 L 452.5 226.60938 L 452.5 220.50586 z M 482.31641 220.50586 L 497.5 220.50586 L 497.5 229.49609 L 493.30078 231.91992 L 482.31641 220.50586 z M 502.5 220.50586 L 517.68359 220.50586 L 506.69922 231.91992 L 502.5 229.49609 L 502.5 220.50586 z M 531.92969 220.50586 L 536.4707 220.50586 L 534.19922 224.4375 L 531.92969 220.50586 z M 542.24414 220.50586 L 547.5 220.50586 L 547.5 229.49609 L 539.71484 233.99219 L 537.08594 229.43945 L 537.08594 229.4375 L 542.24414 220.50586 z M 552.5 220.50586 L 557.75586 220.50586 L 562.91406 229.4375 L 560.28516 233.99219 L 552.5 229.49609 L 552.5 220.50586 z M 563.5293 220.50586 L 568.07031 220.50586 L 565.80078 224.4375 L 563.5293 220.50586 z M 375 224.50781 L 377.26953 228.43945 L 372.73047 228.43945 L 375 224.50781 z M 434.42969 224.83789 L 445 230.93945 L 439.71484 233.99219 L 434.42969 224.83789 z M 465.57031 224.83789 L 460.28516 233.99219 L 455 230.93945 L 465.57031 224.83789 z M 474.80469 224.8457 L 479.19727 240.06445 L 475 242.48828 L 467.21484 237.99219 L 474.80469 224.8457 z M 524.80469 224.8457 L 529.19727 240.06445 L 525 242.48828 L 517.21484 237.99219 L 524.80469 224.8457 z M 422.5 228.83789 L 422.5 241.04492 L 417.21484 237.99219 L 422.5 228.83789 z M 427.5 228.83789 L 432.78516 237.99219 L 427.5 241.04492 L 427.5 228.83789 z M 369.84375 233.43945 L 380.15625 233.43945 L 382.78516 237.99219 L 375 242.48828 L 367.21484 237.99219 L 369.84375 233.43945 z M 400 233.82617 L 407.78516 238.32227 L 405.1582 242.87305 L 394.8418 242.87305 L 392.21484 238.32227 L 400 233.82617 z M 500 233.82617 L 503.12695 235.63281 L 500 238.88086 L 496.87305 235.63281 L 500 233.82617 z M 550 233.82617 L 557.78516 238.32227 L 555.1582 242.87305 L 544.8418 242.87305 L 542.21484 238.32227 L 550 233.82617 z M 447.5 235.26953 L 447.5 247.47656 L 442.21484 238.32227 L 447.5 235.26953 z M 452.5 235.26953 L 457.78516 238.32227 L 452.5 247.47656 L 452.5 235.26953 z M 492.41406 238.20703 L 496.53125 242.48633 L 495.33594 243.72852 L 492.21484 238.32227 L 492.41406 238.20703 z M 507.58594 238.20703 L 507.78516 238.32227 L 504.66406 243.72852 L 503.46875 242.48633 L 507.58594 238.20703 z M 364.71484 242.32227 L 372.5 246.81641 L 372.5 255.80859 L 367.24414 255.80859 L 362.08789 246.875 L 364.71484 242.32227 z M 385.28516 242.32227 L 387.91211 246.875 L 382.75586 255.80859 L 377.5 255.80859 L 377.5 246.81641 L 385.28516 242.32227 z M 414.71484 242.32227 L 420 245.37305 L 409.43164 251.47461 L 414.71484 242.32227 z M 435.28516 242.32227 L 440.56836 251.47461 L 430 245.37305 L 435.28516 242.32227 z M 464.71484 242.32227 L 472.5 246.81641 L 472.5 251.66406 L 457.125 255.46875 L 464.71484 242.32227 z M 485.28516 242.32227 L 488.40625 247.72852 L 486.73438 248.14258 L 485.08789 242.43555 L 485.28516 242.32227 z M 514.71484 242.32227 L 522.5 246.81641 L 522.5 251.66406 L 507.125 255.46875 L 514.71484 242.32227 z M 535.28516 242.32227 L 538.40625 247.72852 L 536.73438 248.14258 L 535.08789 242.43555 L 535.28516 242.32227 z M 480.62695 245.01172 L 481.87695 249.34375 L 477.5 250.42773 L 477.5 246.81641 L 480.62695 245.01172 z M 530.62695 245.01172 L 531.87695 249.34375 L 527.5 250.42773 L 527.5 246.81641 L 530.62695 245.01172 z M 500 246.0918 L 502.0625 248.23438 L 500 251.80664 L 497.9375 248.23438 L 500 246.0918 z M 397.72852 247.87305 L 402.27148 247.87305 L 400 251.80664 L 397.72852 247.87305 z M 547.72852 247.87305 L 552.27148 247.87305 L 550 251.80664 L 547.72852 247.87305 z M 422.5 249.70312 L 422.5 255.80859 L 411.92578 255.80859 L 422.5 249.70312 z M 427.5 249.70312 L 438.07422 255.80859 L 427.5 255.80859 L 427.5 249.70312 z M 359.20117 251.875 L 361.47266 255.80859 L 356.92969 255.80859 L 359.20117 251.875 z M 390.79883 251.875 L 390.80078 251.875 L 393.07031 255.80859 L 388.52734 255.80859 L 390.79883 251.875 z M 491.00781 252.23438 L 493.07031 255.80859 L 488.94922 255.80859 L 488.12305 252.94922 L 491.00781 252.23438 z M 541.00781 252.23438 L 543.07031 255.80859 L 538.94922 255.80859 L 538.12305 252.94922 L 541.00781 252.23438 z M 483.26367 254.15039 L 483.74219 255.80859 L 477.5 255.80859 L 477.5 255.57812 L 483.26367 254.15039 z M 533.26367 254.15039 L 533.74219 255.80859 L 527.5 255.80859 L 527.5 255.57812 L 533.26367 254.15039 z M 356.92969 263.80859 L 361.4707 263.80859 L 359.19922 267.74023 L 356.92969 263.80859 z M 367.24414 263.80859 L 372.5 263.80859 L 372.5 272.79688 L 364.71484 277.29297 L 362.08594 272.74023 L 367.24414 263.80859 z M 377.5 263.80859 L 382.75586 263.80859 L 387.91406 272.74023 L 385.28516 277.29297 L 377.5 272.79883 L 377.5 272.79688 L 377.5 263.80859 z M 388.5293 263.80859 L 393.07031 263.80859 L 390.80078 267.74023 L 388.5293 263.80859 z M 411.92969 263.80859 L 422.5 263.80859 L 422.5 269.91211 L 411.92969 263.80859 z M 427.5 263.80859 L 438.07031 263.80859 L 427.5 269.91211 L 427.5 263.80859 z M 457.31836 263.80859 L 472.5 263.80859 L 472.5 272.79688 L 468.30078 275.22266 L 457.31836 263.80859 z M 477.5 263.80859 L 492.68164 263.80859 L 481.69922 275.22266 L 477.5 272.79883 L 477.5 272.79688 L 477.5 263.80859 z M 506.92969 263.80859 L 511.4707 263.80859 L 509.19922 267.74023 L 506.92969 263.80859 z M 517.24414 263.80859 L 522.5 263.80859 L 522.5 272.79688 L 514.71484 277.29297 L 512.08594 272.74219 L 512.08594 272.74023 L 517.24414 263.80859 z M 527.5 263.80859 L 532.75586 263.80859 L 537.91406 272.74023 L 535.28516 277.29297 L 527.5 272.79883 L 527.5 272.79688 L 527.5 263.80859 z M 538.5293 263.80859 L 543.07031 263.80859 L 540.80078 267.74023 L 538.5293 263.80859 z M 400 267.81055 L 402.26953 271.74219 L 397.73047 271.74219 L 400 267.81055 z M 409.42969 268.13867 L 420 274.24023 L 414.71484 277.29297 L 409.42969 268.13867 z M 440.57031 268.13867 L 435.28516 277.29297 L 430 274.24219 L 440.57031 268.13867 z M 450.19531 268.14844 L 457.78516 281.29297 L 457.78516 281.29492 L 450 285.78906 L 445.80273 283.36523 L 450.19531 268.14844 z M 500.19531 268.14844 L 507.78516 281.29297 L 507.78516 281.29492 L 500 285.78906 L 495.80273 283.36523 L 500.19531 268.14844 z M 394.84375 276.74219 L 405.15625 276.74219 L 407.78516 281.29297 L 407.78516 281.29492 L 400 285.78906 L 392.21484 281.29492 L 392.21484 281.29297 L 394.84375 276.74219 z M 375 277.12891 L 382.78516 281.62305 L 380.15625 286.17578 L 369.84375 286.17578 L 367.21484 281.62305 L 375 277.12891 z M 475 277.12891 L 478.12695 278.93359 L 475 282.18359 L 471.87305 278.93359 L 475 277.12891 z M 525 277.12891 L 532.78516 281.62305 L 530.15625 286.17578 L 519.84375 286.17578 L 517.21484 281.62305 L 525 277.12891 z M 422.5 278.57227 L 422.5 290.77734 L 417.21484 281.62305 L 422.5 278.57227 z M 427.5 278.57227 L 432.78516 281.62305 L 427.5 290.77734 L 427.5 278.57227 z M 467.41211 281.50781 L 471.53125 285.78906 L 470.33594 287.03125 L 467.21484 281.62305 L 467.41211 281.50781 z M 482.58789 281.50781 L 482.78516 281.62305 L 479.66406 287.03125 L 478.46875 285.78906 L 482.58789 281.50781 z M 389.71484 285.625 L 397.5 290.11914 L 397.5 299.10938 L 392.24414 299.10938 L 387.08594 290.17773 L 387.08594 290.17578 L 389.71484 285.625 z M 410.28516 285.625 L 412.91406 290.17578 L 412.91406 290.17773 L 407.75586 299.10938 L 402.5 299.10938 L 402.5 290.11914 L 410.28516 285.625 z M 439.71484 285.625 L 439.91211 285.73828 L 438.26562 291.44531 L 436.59375 291.03125 L 439.71484 285.625 z M 460.28516 285.625 L 467.875 298.76953 L 452.5 294.9668 L 452.5 290.11914 L 460.28516 285.625 z M 489.71484 285.625 L 489.91211 285.73828 L 488.26562 291.44531 L 486.59375 291.03125 L 489.71484 285.625 z M 510.28516 285.625 L 517.875 298.76953 L 502.5 294.9668 L 502.5 290.11914 L 510.28516 285.625 z M 444.37305 288.31445 L 447.5 290.11914 L 447.5 293.73047 L 443.12305 292.64648 L 444.37305 288.31445 z M 494.37305 288.31445 L 497.5 290.11914 L 497.5 293.73047 L 493.12305 292.64648 L 494.37305 288.31445 z M 475 289.39453 L 477.0625 291.53711 L 475 295.10742 L 472.9375 291.53711 L 475 289.39453 z M 372.73047 291.17578 L 377.26953 291.17578 L 375 295.10742 L 372.73047 291.17578 z M 522.73047 291.17578 L 527.26953 291.17578 L 525 295.10742 L 522.73047 291.17578 z M 384.19922 295.17773 L 386.4707 299.10938 L 381.92969 299.10938 L 384.19922 295.17773 z M 415.80078 295.17773 L 418.07031 299.10938 L 413.5293 299.10938 L 415.80078 295.17773 z M 433.99219 295.53711 L 436.87695 296.25195 L 436.05273 299.10938 L 431.92969 299.10938 L 433.99219 295.53711 z M 483.99219 295.53711 L 486.87695 296.25195 L 486.05273 299.10938 L 481.92969 299.10938 L 483.99219 295.53711 z M 441.73438 297.45312 L 447.5 298.87891 L 447.5 299.10938 L 441.25781 299.10938 L 441.73438 297.45312 z M 491.73438 297.45312 L 497.5 298.87891 L 497.5 299.10938 L 491.25781 299.10938 L 491.73438 297.45312 z M 381.92969 307.10938 L 386.4707 307.10938 L 384.19922 311.04102 L 381.92969 307.10938 z M 392.24414 307.10938 L 397.5 307.10938 L 397.5 316.09766 L 389.71484 320.59375 L 387.08594 316.04102 L 392.24414 307.10938 z M 402.5 307.10938 L 407.75586 307.10938 L 412.91406 316.04102 L 412.91406 316.04297 L 410.28516 320.59375 L 402.5 316.09961 L 402.5 316.09766 L 402.5 307.10938 z M 413.5293 307.10938 L 418.07031 307.10938 L 415.80078 311.04102 L 413.5293 307.10938 z M 432.31836 307.10938 L 447.5 307.10938 L 447.5 316.09766 L 443.30078 318.52344 L 432.31836 307.10938 z M 452.5 307.10938 L 467.68164 307.10938 L 456.69922 318.52344 L 452.5 316.09961 L 452.5 316.09766 L 452.5 307.10938 z M 481.92969 307.10938 L 486.4707 307.10938 L 484.19922 311.04102 L 481.92969 307.10938 z M 492.24414 307.10938 L 497.5 307.10938 L 497.5 316.09766 L 489.71484 320.59375 L 487.08594 316.04297 L 487.08594 316.04102 L 492.24414 307.10938 z M 502.5 307.10938 L 507.75586 307.10938 L 512.91406 316.04102 L 510.28516 320.59375 L 502.5 316.09961 L 502.5 316.09766 L 502.5 307.10938 z M 513.5293 307.10938 L 518.07031 307.10938 L 515.80078 311.04102 L 513.5293 307.10938 z M 425 311.11133 L 427.26953 315.04297 L 422.73047 315.04297 L 425 311.11133 z M 474.80469 311.44922 L 479.19727 326.66602 L 475 329.08984 L 467.21484 324.5957 L 467.21484 324.59375 L 474.80469 311.44922 z M 419.84375 320.04297 L 430.15625 320.04297 L 432.78516 324.59375 L 432.78516 324.5957 L 425 329.08984 L 417.21484 324.5957 L 417.21484 324.59375 L 419.84375 320.04297 z M 400 320.42969 L 407.78516 324.92383 L 405.15625 329.47656 L 394.84375 329.47656 L 392.21484 324.92383 L 400 320.42969 z M 450 320.42969 L 453.12695 322.23438 L 450 325.48438 L 446.87305 322.23438 L 450 320.42969 z M 500 320.42969 L 507.78516 324.92383 L 505.15625 329.47656 L 494.84375 329.47656 L 492.21484 324.92383 L 500 320.42969 z M 442.41211 324.80859 L 446.53125 329.08984 L 445.33594 330.33203 L 442.21484 324.92383 L 442.41211 324.80859 z M 457.58789 324.80859 L 457.78516 324.92383 L 454.66406 330.33203 L 453.46875 329.08984 L 457.58789 324.80859 z M 414.71484 328.92578 L 422.5 333.41992 L 422.5 342.41016 L 417.24414 342.41016 L 412.08594 333.47852 L 412.08594 333.47656 L 414.71484 328.92578 z M 435.28516 328.92578 L 437.91406 333.47656 L 437.91406 333.47852 L 432.75586 342.41016 L 427.5 342.41016 L 427.5 333.41992 L 435.28516 328.92578 z M 464.71484 328.92578 L 472.5 333.41992 L 472.5 338.26758 L 457.125 342.07031 L 464.71484 328.92578 z M 485.28516 328.92578 L 488.40625 334.33203 L 486.73438 334.74609 L 485.08789 329.03906 L 485.28516 328.92578 z M 480.62695 331.61523 L 481.87695 335.94727 L 477.5 337.03125 L 477.5 333.41992 L 480.62695 331.61523 z M 450 332.69531 L 452.0625 334.83789 L 450 338.4082 L 447.9375 334.83789 L 450 332.69531 z M 397.73047 334.47656 L 402.26953 334.47656 L 400 338.4082 L 397.73047 334.47656 z M 497.73047 334.47656 L 502.26953 334.47656 L 500 338.4082 L 497.73047 334.47656 z M 409.19922 338.47852 L 411.4707 342.41016 L 406.92969 342.41016 L 409.19922 338.47852 z M 440.80078 338.47852 L 443.07031 342.41016 L 438.5293 342.41016 L 440.80078 338.47852 z M 491.00781 338.83789 L 493.07031 342.41016 L 488.94727 342.41016 L 488.12305 339.55273 L 491.00781 338.83789 z M 483.26562 340.75391 L 483.74219 342.41016 L 477.5 342.41016 L 477.5 342.18164 L 483.26562 340.75391 z " />
  <path
     id="polyline1752"
     style="color:#000000;fill:none;stroke-linecap:round;stroke-linejoin:round;-inkscape-stroke:hairline;stroke:#ff0000;stroke-opacity:1;vector-effect:non-scaling-stroke;stroke-width:1;stroke-dasharray:none"
     d="M 550 429.01367 A 4 4 0 0 0 549.50195 429.21875 A 4 4 0 0 0 548.96484 429.14844 A 4 4 0 0 0 548.53516 429.47852 A 4 4 0 0 0 548 429.54883 A 4 4 0 0 0 547.67188 429.97656 A 4 4 0 0 0 547.36328 430.37695 A 4 4 0 0 0 546.53516 431.01367 L 521.53516 474.31445 L 496.53516 517.61523 A 4.0004 4.0004 0 0 0 496.31836 518.8457 A 4 4 0 0 0 496.20703 519.11523 A 4 4 0 0 0 496 519.61523 A 4 4 0 0 0 496.12891 519.92578 A 4.0004 4.0004 0 0 0 496.45312 520.98828 A 4 4 0 0 0 496.53516 521.61523 L 521.53516 564.91602 L 546.53516 608.21875 A 4.0004 4.0004 0 0 0 547.07812 608.67383 A 4.0004 4.0004 0 0 0 548.08789 609.52344 A 4.0004 4.0004 0 0 0 549.33984 609.97852 A 4.0004 4.0004 0 0 0 550 610.21875 L 600 610.21875 L 650 610.21875 A 4.0004 4.0004 0 0 0 651.35547 609.97852 A 4.0004 4.0004 0 0 0 651.36914 609.97852 A 4.0004 4.0004 0 0 0 651.38086 609.96875 A 4.0004 4.0004 0 0 0 652.57031 609.2832 A 4.0004 4.0004 0 0 0 653.46484 608.21875 L 678.46484 564.91602 L 703.46484 521.61523 L 728.46484 478.31445 A 4.0004 4.0004 0 0 0 728.93945 477.00977 A 4.0004 4.0004 0 0 0 728.46484 474.31445 L 703.46484 431.01367 A 4.0004 4.0004 0 0 0 702.16016 429.71094 A 4 4 0 0 0 702 429.54883 A 4 4 0 0 0 701.8418 429.52734 A 4.0004 4.0004 0 0 0 700 429.01367 L 650 429.01367 L 600 429.01367 L 550 429.01367 z M 556.92969 437.01367 L 561.4707 437.01367 L 559.19922 440.94531 L 556.92969 437.01367 z M 567.24414 437.01367 L 572.5 437.01367 L 572.5 446.00391 L 564.71484 450.49805 L 562.08594 445.94727 L 562.08594 445.94531 L 567.24414 437.01367 z M 577.5 437.01367 L 582.75586 437.01367 L 587.91406 445.94531 L 587.91406 445.94727 L 585.28516 450.49805 L 577.5 446.00391 L 577.5 437.01367 z M 588.5293 437.01367 L 593.07031 437.01367 L 590.80078 440.94531 L 588.5293 437.01367 z M 606.92969 437.01367 L 611.4707 437.01367 L 609.19922 440.94531 L 606.92969 437.01367 z M 617.24414 437.01367 L 622.5 437.01367 L 622.5 446.00391 L 614.71484 450.49805 L 612.08594 445.94727 L 612.08594 445.94531 L 617.24414 437.01367 z M 627.5 437.01367 L 632.75586 437.01367 L 637.91406 445.94531 L 637.91406 445.94727 L 635.28516 450.49805 L 627.5 446.00391 L 627.5 437.01367 z M 638.5293 437.01367 L 643.07031 437.01367 L 640.80078 440.94531 L 638.5293 437.01367 z M 656.92969 437.01367 L 661.4707 437.01367 L 659.19922 440.94531 L 656.92969 437.01367 z M 667.24414 437.01367 L 682.75586 437.01367 L 687.91406 445.94531 L 687.91406 445.94727 L 680.15625 459.38086 L 669.84375 459.38086 L 662.08594 445.94727 L 662.08594 445.94531 L 667.24414 437.01367 z M 688.5293 437.01367 L 693.07031 437.01367 L 690.80078 440.94531 L 688.5293 437.01367 z M 550 441.01562 L 552.26953 444.94727 L 547.73047 444.94727 L 550 441.01562 z M 600 441.01562 L 602.26953 444.94727 L 597.73047 444.94727 L 600 441.01562 z M 650 441.01562 L 652.26953 444.94727 L 647.73047 444.94727 L 650 441.01562 z M 700 441.01562 L 702.26953 444.94727 L 697.73047 444.94727 L 700 441.01562 z M 544.84375 449.94727 L 555.15625 449.94727 L 557.78516 454.49805 L 550 458.99219 L 542.21484 454.49805 L 544.84375 449.94727 z M 594.84375 449.94727 L 605.15625 449.94727 L 607.78516 454.49805 L 600 458.99219 L 592.21484 454.49805 L 594.84375 449.94727 z M 644.84375 449.94727 L 655.15625 449.94727 L 662.91406 463.38086 L 662.91406 463.38281 L 657.75586 472.31445 L 642.24414 472.31445 L 637.08594 463.38281 L 637.08594 463.38086 L 644.84375 449.94727 z M 694.84375 449.94727 L 705.15625 449.94727 L 712.91406 463.38281 L 707.75586 472.31445 L 692.24414 472.31445 L 687.08594 463.38281 L 687.08594 463.38086 L 694.84375 449.94727 z M 575 450.33398 L 582.78516 454.82812 L 580.15625 459.38086 L 569.84375 459.38086 L 567.21484 454.82812 L 575 450.33398 z M 625 450.33398 L 632.78516 454.82812 L 630.15625 459.38086 L 619.84375 459.38086 L 617.21484 454.82812 L 625 450.33398 z M 539.71484 458.83008 L 547.5 463.32422 L 547.5 472.31445 L 542.24414 472.31445 L 537.08594 463.38281 L 539.71484 458.83008 z M 560.28516 458.83008 L 562.91406 463.38086 L 562.91406 463.38281 L 557.75586 472.31445 L 552.5 472.31445 L 552.5 463.32422 L 560.28516 458.83008 z M 589.71484 458.83008 L 597.5 463.32422 L 597.5 472.31445 L 592.24414 472.31445 L 587.08594 463.38281 L 587.08594 463.38086 L 589.71484 458.83008 z M 610.28516 458.83008 L 612.91406 463.38086 L 612.91406 463.38281 L 607.75586 472.31445 L 602.5 472.31445 L 602.5 463.32422 L 610.28516 458.83008 z M 572.73047 464.38086 L 577.26953 464.38086 L 575 468.3125 L 572.73047 464.38086 z M 622.73047 464.38086 L 627.26953 464.38086 L 625 468.3125 L 622.73047 464.38086 z M 672.73047 464.38086 L 677.26953 464.38086 L 675 468.3125 L 672.73047 464.38086 z M 534.19922 468.38281 L 536.4707 472.31445 L 531.92969 472.31445 L 534.19922 468.38281 z M 565.80078 468.38281 L 568.07031 472.31445 L 563.5293 472.31445 L 565.80078 468.38281 z M 584.19922 468.38281 L 586.4707 472.31445 L 581.92969 472.31445 L 584.19922 468.38281 z M 615.80078 468.38281 L 618.07031 472.31445 L 613.5293 472.31445 L 615.80078 468.38281 z M 634.19922 468.38281 L 636.4707 472.31445 L 631.92969 472.31445 L 634.19922 468.38281 z M 665.80078 468.38281 L 668.07031 472.31445 L 663.5293 472.31445 L 665.80078 468.38281 z M 684.19922 468.38281 L 686.4707 472.31445 L 681.92969 472.31445 L 684.19922 468.38281 z M 715.80078 468.38281 L 718.07031 472.31445 L 713.5293 472.31445 L 715.80078 468.38281 z M 531.92969 480.31445 L 536.4707 480.31445 L 534.19922 484.24609 L 531.92969 480.31445 z M 542.24414 480.31445 L 547.5 480.31445 L 547.5 489.30469 L 539.71484 493.79883 L 537.08594 489.24805 L 537.08594 489.24609 L 542.24414 480.31445 z M 552.5 480.31445 L 557.75586 480.31445 L 562.91406 489.24609 L 562.91406 489.24805 L 560.28516 493.79883 L 552.5 489.30469 L 552.5 480.31445 z M 563.5293 480.31445 L 568.07031 480.31445 L 565.80078 484.24609 L 563.5293 480.31445 z M 581.92969 480.31445 L 586.4707 480.31445 L 584.19922 484.24609 L 581.92969 480.31445 z M 592.24414 480.31445 L 597.5 480.31445 L 597.5 489.30469 L 589.71484 493.79883 L 587.08594 489.24805 L 587.08594 489.24609 L 592.24414 480.31445 z M 602.5 480.31445 L 607.75586 480.31445 L 612.91406 489.24609 L 612.91406 489.24805 L 610.28516 493.79883 L 602.5 489.30469 L 602.5 480.31445 z M 613.5293 480.31445 L 618.07031 480.31445 L 615.80078 484.24609 L 613.5293 480.31445 z M 631.92969 480.31445 L 636.4707 480.31445 L 634.19922 484.24609 L 631.92969 480.31445 z M 642.24414 480.31445 L 647.5 480.31445 L 647.5 489.30469 L 639.71484 493.79883 L 637.08594 489.24805 L 637.08594 489.24609 L 642.24414 480.31445 z M 652.5 480.31445 L 657.75586 480.31445 L 662.91406 489.24609 L 662.91406 489.24805 L 660.28516 493.79883 L 652.5 489.30469 L 652.5 480.31445 z M 663.5293 480.31445 L 668.07031 480.31445 L 665.80078 484.24609 L 663.5293 480.31445 z M 681.92969 480.31445 L 686.4707 480.31445 L 684.19922 484.24609 L 681.92969 480.31445 z M 692.24414 480.31445 L 707.75586 480.31445 L 712.91406 489.24609 L 705.15625 502.68164 L 694.84375 502.68164 L 687.08594 489.24805 L 687.08594 489.24609 L 692.24414 480.31445 z M 713.5293 480.31445 L 718.07031 480.31445 L 715.80078 484.24609 L 713.5293 480.31445 z M 575 484.31641 L 577.26953 488.24805 L 572.73047 488.24805 L 575 484.31641 z M 675 484.31641 L 677.26953 488.24805 L 672.73047 488.24805 L 675 484.31641 z M 625.19531 484.6543 L 627.26953 488.24805 L 624.1582 488.24805 L 625.19531 484.6543 z M 519.84375 493.24805 L 522.5 493.24805 L 522.5 503.73828 L 513.41406 508.98242 L 512.08594 506.68359 L 519.84375 493.24805 z M 527.5 493.24805 L 530.15625 493.24805 L 537.91406 506.68164 L 537.91406 506.68359 L 536.58594 508.98242 L 527.5 503.73828 L 527.5 493.24805 z M 569.84375 493.24805 L 580.15625 493.24805 L 582.78516 497.79883 L 575 502.29297 L 567.21484 497.79883 L 569.84375 493.24805 z M 622.71484 493.24805 L 630.15625 493.24805 L 632.78516 497.79883 L 625 502.29297 L 620.80273 499.86914 L 622.71484 493.24805 z M 669.84375 493.24805 L 680.15625 493.24805 L 682.78516 497.79883 L 675 502.29297 L 667.21484 497.79883 L 669.84375 493.24805 z M 550 493.63477 L 557.78516 498.12891 L 555.15625 502.68164 L 544.84375 502.68164 L 542.21484 498.12891 L 550 493.63477 z M 600 493.63477 L 607.78516 498.12891 L 605.15625 502.68164 L 594.84375 502.68164 L 592.21484 498.12891 L 600 493.63477 z M 650 493.63477 L 657.78516 498.12891 L 655.15625 502.68164 L 644.84375 502.68164 L 642.21484 498.12891 L 650 493.63477 z M 564.71484 502.13086 L 572.5 506.625 L 572.5 515.61523 L 567.24414 515.61523 L 562.08594 506.68359 L 562.08594 506.68164 L 564.71484 502.13086 z M 585.28516 502.13086 L 587.91406 506.68164 L 587.91406 506.68359 L 582.75586 515.61523 L 577.5 515.61523 L 577.5 506.625 L 585.28516 502.13086 z M 614.71484 502.13086 L 614.91211 502.24414 L 613.26562 507.95117 L 612.74414 507.82227 L 612.08594 506.68359 L 612.08594 506.68164 L 614.71484 502.13086 z M 635.28516 502.13086 L 637.91406 506.68164 L 637.91406 506.68359 L 634.19141 513.12891 L 627.5 511.47266 L 627.5 506.625 L 635.28516 502.13086 z M 664.71484 502.13086 L 672.5 506.625 L 672.5 515.61523 L 667.24414 515.61523 L 662.08594 506.68359 L 662.08594 506.68164 L 664.71484 502.13086 z M 685.28516 502.13086 L 687.91406 506.68164 L 687.91406 506.68359 L 682.75586 515.61523 L 677.5 515.61523 L 677.5 506.625 L 685.28516 502.13086 z M 619.37305 504.82031 L 622.5 506.625 L 622.5 510.23633 L 618.12305 509.15234 L 619.37305 504.82031 z M 547.73047 507.68164 L 552.26953 507.68164 L 550 511.61328 L 547.73047 507.68164 z M 597.73047 507.68164 L 602.26953 507.68164 L 600 511.61328 L 597.73047 507.68164 z M 647.73047 507.68164 L 652.26953 507.68164 L 650 511.61328 L 647.73047 507.68164 z M 697.73047 507.68164 L 702.26953 507.68164 L 700 511.61328 L 697.73047 507.68164 z M 525 508.06836 L 534.08398 513.31445 L 532.75586 515.61523 L 517.24414 515.61523 L 515.91602 513.31445 L 525 508.06836 z M 559.19922 511.68359 L 561.4707 515.61523 L 556.92969 515.61523 L 559.19922 511.68359 z M 590.80078 511.68359 L 593.07031 515.61523 L 588.5293 515.61523 L 590.80078 511.68359 z M 640.80078 511.68359 L 642.875 515.27539 L 639.24414 514.37891 L 640.80078 511.68359 z M 659.19922 511.68359 L 661.4707 515.61523 L 656.92969 515.61523 L 659.19922 511.68359 z M 690.80078 511.68359 L 693.07031 515.61523 L 688.5293 515.61523 L 690.80078 511.68359 z M 608.99219 512.04297 L 609.47852 512.16406 L 611.19141 515.13281 L 611.05273 515.61523 L 606.92969 515.61523 L 608.99219 512.04297 z M 616.73438 513.95898 L 622.5 515.38672 L 622.5 515.61523 L 617.24414 515.61523 L 616.58594 514.47656 L 616.73438 513.95898 z M 517.24414 523.61523 L 532.75586 523.61523 L 534.08398 525.91602 L 525 531.16211 L 515.91602 525.91602 L 517.24414 523.61523 z M 567.24414 523.61523 L 582.75586 523.61523 L 584.08398 525.91602 L 575 531.16211 L 565.91602 525.91602 L 567.24414 523.61523 z M 607.31836 523.61523 L 611.4707 523.61523 L 609.91406 526.3125 L 607.31836 523.61523 z M 617.24414 523.61523 L 632.75586 523.61523 L 636.47852 530.0625 L 625 541.99023 L 613.52148 530.0625 L 617.24414 523.61523 z M 638.5293 523.61523 L 642.68164 523.61523 L 640.08594 526.3125 L 638.5293 523.61523 z M 656.92969 523.61523 L 661.4707 523.61523 L 659.19922 527.54688 L 656.92969 523.61523 z M 667.24414 523.61523 L 672.5 523.61523 L 672.5 532.60547 L 664.71484 537.09961 L 662.08594 532.54883 L 662.08594 532.54688 L 667.24414 523.61523 z M 677.5 523.61523 L 682.75586 523.61523 L 687.91406 532.54688 L 685.28516 537.09961 L 677.5 532.60547 L 677.5 523.61523 z M 688.5293 523.61523 L 693.07031 523.61523 L 690.80078 527.54688 L 688.5293 523.61523 z M 600.19531 527.95508 L 602.26953 531.54883 L 599.1582 531.54883 L 600.19531 527.95508 z M 650.19531 527.95508 L 652.26953 531.54883 L 649.1582 531.54883 L 650.19531 527.95508 z M 513.41406 530.24805 L 522.5 535.49219 L 522.5 545.98242 L 519.84375 545.98242 L 512.08594 532.54688 L 513.41406 530.24805 z M 536.58594 530.24805 L 537.91406 532.54688 L 537.91406 532.54883 L 530.15625 545.98242 L 527.5 545.98242 L 527.5 535.49219 L 536.58594 530.24805 z M 563.41406 530.24805 L 572.5 535.49219 L 572.5 545.98242 L 569.84375 545.98242 L 562.08594 532.54883 L 562.08594 532.54688 L 563.41406 530.24805 z M 586.58594 530.24805 L 587.91406 532.54688 L 587.91406 532.54883 L 580.15625 545.98242 L 577.5 545.98242 L 577.5 535.49219 L 586.58594 530.24805 z M 544.84375 536.54883 L 547.5 536.54883 L 547.5 547.03906 L 538.41602 552.28516 L 537.08594 549.98438 L 537.08594 549.98242 L 544.84375 536.54883 z M 552.5 536.54883 L 555.15625 536.54883 L 562.91406 549.98242 L 562.91406 549.98438 L 561.58398 552.28516 L 552.5 547.03906 L 552.5 536.54883 z M 597.71484 536.54883 L 605.15625 536.54883 L 612.91406 549.98242 L 612.91406 549.98438 L 609.19141 556.42969 L 593.12305 552.45312 L 597.71484 536.54883 z M 647.71484 536.54883 L 655.15625 536.54883 L 657.78516 541.10156 L 650 545.59766 L 645.80078 543.17383 L 647.71484 536.54883 z M 675 536.93555 L 682.78516 541.42969 L 680.15625 545.98242 L 669.84375 545.98242 L 667.21484 541.43164 L 667.21484 541.42969 L 675 536.93555 z M 616.75391 540.63086 L 621.53125 545.5957 L 621.1582 545.98242 L 619.84375 545.98242 L 616.75391 540.63086 z M 633.24609 540.63086 L 630.15625 545.98242 L 628.8418 545.98242 L 628.46875 545.5957 L 633.24609 540.63086 z M 590.17578 544.63477 L 588.26562 551.25195 L 587.74414 551.12305 L 587.08594 549.98438 L 587.08594 549.98242 L 590.17578 544.63477 z M 639.71484 545.43164 L 639.91211 545.54492 L 638.26562 551.25195 L 637.74414 551.12305 L 637.08594 549.98438 L 637.08594 549.98242 L 639.71484 545.43164 z M 660.28516 545.43164 L 662.91406 549.98242 L 662.91406 549.98438 L 659.19141 556.42969 L 652.5 554.77344 L 652.5 549.92578 L 660.28516 545.43164 z M 644.37305 548.12109 L 647.5 549.92578 L 647.5 553.53711 L 643.12305 552.45312 L 644.37305 548.12109 z M 623.28516 550.98242 L 626.71484 550.98242 L 627.0625 551.34375 L 625 554.91406 L 622.9375 551.34375 L 623.28516 550.98242 z M 672.73047 550.98242 L 677.26953 550.98242 L 675 554.91406 L 672.73047 550.98242 z M 550 551.36914 L 559.08398 556.61523 L 557.75586 558.91602 L 542.24414 558.91602 L 540.91602 556.61523 L 550 551.36914 z M 615.80078 554.98438 L 617.875 558.57812 L 614.24219 557.67969 L 615.80078 554.98438 z M 665.80078 554.98438 L 667.875 558.57812 L 664.24219 557.67969 L 665.80078 554.98438 z M 583.99219 555.34375 L 584.47852 555.46484 L 586.19141 558.43359 L 586.05273 558.91602 L 581.92969 558.91602 L 583.99219 555.34375 z M 633.99219 555.34375 L 634.47852 555.46484 L 636.19141 558.43359 L 636.05273 558.91602 L 631.92969 558.91602 L 633.99219 555.34375 z M 591.73438 557.25977 L 598.42578 558.91602 L 592.24414 558.91602 L 591.58594 557.77734 L 591.73438 557.25977 z M 641.73438 557.25977 L 647.5 558.6875 L 647.5 558.91602 L 642.24414 558.91602 L 641.58594 557.77734 L 641.73438 557.25977 z M 542.24414 566.91602 L 557.75586 566.91602 L 559.08594 569.21875 L 550 574.46289 L 540.91406 569.21875 L 542.24414 566.91602 z M 592.24414 566.91602 L 607.75586 566.91602 L 609.08594 569.21875 L 600 574.46289 L 590.91406 569.21875 L 592.24414 566.91602 z M 632.31641 566.91602 L 636.4707 566.91602 L 634.91211 569.61328 L 632.31641 566.91602 z M 642.24414 566.91602 L 647.5 566.91602 L 647.5 575.90625 L 643.30078 578.33008 L 638.52148 573.36328 L 642.24414 566.91602 z M 652.5 566.91602 L 657.75586 566.91602 L 661.47852 573.36328 L 656.69922 578.33008 L 652.5 575.90625 L 652.5 566.91602 z M 663.5293 566.91602 L 667.68359 566.91602 L 665.08789 569.61328 L 663.5293 566.91602 z M 538.41406 573.54883 L 547.5 578.79297 L 547.5 589.2832 L 544.8418 589.2832 L 537.08594 575.84766 L 538.41406 573.54883 z M 561.58594 573.54883 L 562.91406 575.84766 L 562.91406 575.84961 L 555.1582 589.2832 L 552.5 589.2832 L 552.5 578.79297 L 561.58594 573.54883 z M 588.41406 573.54883 L 597.5 578.79297 L 597.5 589.2832 L 594.8418 589.2832 L 587.08594 575.84961 L 587.08594 575.84766 L 588.41406 573.54883 z M 611.58594 573.54883 L 612.91406 575.84766 L 612.91406 575.84961 L 605.1582 589.2832 L 602.5 589.2832 L 602.5 578.79297 L 611.58594 573.54883 z M 569.84375 579.84961 L 572.5 579.84961 L 572.5 590.33984 L 563.41602 595.58594 L 562.08789 593.28516 L 569.84375 579.84961 z M 577.5 579.84961 L 580.15625 579.84961 L 587.91211 593.28516 L 586.58398 595.58594 L 577.5 590.33984 L 577.5 579.84961 z M 619.84375 579.84961 L 622.5 579.84961 L 622.5 590.33984 L 613.41602 595.58594 L 612.08789 593.28516 L 619.84375 579.84961 z M 627.5 579.84961 L 630.15625 579.84961 L 637.91211 593.28516 L 636.58398 595.58594 L 627.5 590.33984 L 627.5 579.84961 z M 650 580.23633 L 653.12695 582.04297 L 650 585.29102 L 646.87305 582.04297 L 650 580.23633 z M 642.41406 584.61719 L 646.53125 588.89648 L 646.16016 589.2832 L 644.8418 589.2832 L 642.21484 584.73242 L 642.41406 584.61719 z M 657.58594 584.61719 L 657.78516 584.73242 L 655.1582 589.2832 L 653.83984 589.2832 L 653.46875 588.89648 L 657.58594 584.61719 z M 648.28516 594.2832 L 651.71484 594.2832 L 652.0625 594.64453 L 650 598.2168 L 647.9375 594.64453 L 648.28516 594.2832 z M 575 594.66992 L 584.08398 599.91602 L 582.75391 602.21875 L 567.24609 602.21875 L 565.91602 599.91602 L 575 594.66992 z M 625 594.66992 L 634.08398 599.91602 L 632.75391 602.21875 L 617.24609 602.21875 L 615.91602 599.91602 L 625 594.66992 z " />
</svg>
