<?xml version="1.0" encoding="UTF-8" standalone="no"?>
<svg
   version="1.1"
   width="1510"
   height="2000"
   class="svg_pane"
   data-attrTriangle="{&quot;fill&quot;:&quot;none&quot;,&quot;stroke&quot;:&quot;black&quot;,&quot;stroke-width&quot;:10,&quot;stroke-linecap&quot;:&quot;round&quot;,&quot;stroke-linejoin&quot;:&quot;round&quot;}"
   data-attrPattern="{&quot;fill&quot;:&quot;none&quot;,&quot;stroke&quot;:&quot;black&quot;,&quot;stroke-width&quot;:10,&quot;stroke-linecap&quot;:&quot;round&quot;,&quot;stroke-linejoin&quot;:&quot;round&quot;}"
   id="svg1525"
   xmlns="http://www.w3.org/2000/svg"
   xmlns:svg="http://www.w3.org/2000/svg">
  <defs
     id="defs1525" />
  <path
     id="polyline1525"
     style="color:#000000;fill:none;stroke-linecap:round;stroke-linejoin:round;-inkscape-stroke:hairline;stroke:#ff0000;stroke-opacity:1;vector-effect:non-scaling-stroke;stroke-width:1;stroke-dasharray:none"
     d="M 275 211.50586 A 5 5 0 0 0 274.37695 211.76367 A 5 5 0 0 0 273.70508 211.67578 A 5 5 0 0 0 273.16797 212.08789 A 5 5 0 0 0 272.5 212.17578 A 5 5 0 0 0 272.08789 212.71289 A 5 5 0 0 0 271.70703 213.21094 A 5 5 0 0 0 271.70312 213.21289 A 5 5 0 0 0 270.66992 214.00586 L 262.33789 228.4375 A 5 5 0 0 0 262.33594 228.44336 L 258.17188 235.6543 A 5 5 0 0 0 258.16992 235.65625 A 5 5 0 0 0 258.16992 235.6582 L 254.00391 242.87305 L 245.66992 257.30859 A 5.0005 5.0005 0 0 0 245 259.80859 A 5.0005 5.0005 0 0 0 245.66992 262.30859 L 254.00391 276.74219 L 258.16992 283.95898 L 262.33594 291.17383 A 5 5 0 0 0 262.33789 291.17773 L 270.66992 305.60938 L 279.00391 320.04297 L 283.16992 327.25977 L 287.33594 334.47461 A 5 5 0 0 0 287.33789 334.47852 L 295.66992 348.91016 A 5.0005 5.0005 0 0 0 297.5 350.74023 A 5.0005 5.0005 0 0 0 300 351.41016 L 316.66602 351.41016 L 333.33398 351.41016 L 350 351.41016 A 5.0005 5.0005 0 0 0 352.5 350.74023 A 5.0005 5.0005 0 0 0 354.33008 348.91016 L 362.66211 334.47852 L 362.66406 334.47656 A 5 5 0 0 0 362.66406 334.47461 L 370.99609 320.04297 L 379.33008 305.60938 L 387.66211 291.17773 L 387.66406 291.17578 A 5 5 0 0 0 387.66406 291.17383 L 395.99609 276.74219 L 404.33008 262.30859 A 5.0005 5.0005 0 0 0 404.83008 261.10352 A 5.0005 5.0005 0 0 0 404.83008 261.10156 A 5.0005 5.0005 0 0 0 405 259.80859 A 5.0005 5.0005 0 0 0 404.83008 258.51562 A 5.0005 5.0005 0 0 0 404.83008 258.51367 A 5.0005 5.0005 0 0 0 404.33008 257.30859 L 395.99609 242.87305 L 391.83203 235.66211 L 391.83008 235.65625 A 5 5 0 0 0 391.82812 235.6543 L 387.66797 228.44922 L 387.66406 228.43945 A 5 5 0 0 0 387.6582 228.43164 L 379.33008 214.00586 A 5.0005 5.0005 0 0 0 377.5 212.17578 A 5.0005 5.0005 0 0 0 376.29492 211.67578 A 5.0005 5.0005 0 0 0 375 211.50586 L 350 211.50586 L 325 211.50586 L 300 211.50586 L 275 211.50586 z M 294.55273 221.50586 L 295 221.50586 L 295 228.05273 L 289.33008 231.32617 L 289.10742 230.93945 L 294.55273 221.50586 z M 305 221.50586 L 305.44727 221.50586 L 310.89258 230.93945 L 310.66992 231.32617 L 305 228.05273 L 305 221.50586 z M 344.55273 221.50586 L 345 221.50586 L 345 228.05273 L 339.33008 231.32617 L 339.10742 230.93945 L 344.55273 221.50586 z M 355 221.50586 L 355.44727 221.50586 L 360.89258 230.93945 L 360.66992 231.32617 L 355 228.05273 L 355 221.50586 z M 269.55469 235.93945 L 280.44531 235.93945 L 280.66992 236.32617 L 275 239.59961 L 269.33008 236.32617 L 269.55469 235.93945 z M 319.55469 235.93945 L 330.44531 235.93945 L 330.66992 236.32617 L 325 239.59961 L 319.33008 236.32617 L 319.55469 235.93945 z M 369.55469 235.93945 L 380.44531 235.93945 L 380.66992 236.32617 L 375 239.59961 L 369.33008 236.32617 L 369.55469 235.93945 z M 300 236.71289 L 305.66992 239.98633 L 305.44727 240.37305 L 294.55273 240.37305 L 294.33008 239.98633 L 300 236.71289 z M 350 236.71289 L 355.66992 239.98633 L 355.44727 240.37305 L 344.55273 240.37305 L 344.33008 239.98633 L 350 236.71289 z M 264.33008 244.98633 L 270 248.25977 L 270 254.80859 L 269.55273 254.80859 L 264.10742 245.37305 L 264.33008 244.98633 z M 285.66992 244.98633 L 285.89258 245.37305 L 280.44727 254.80859 L 280 254.80859 L 280 248.25977 L 285.66992 244.98633 z M 314.33008 244.98633 L 320 248.25977 L 320 254.80859 L 319.55273 254.80859 L 314.10742 245.37305 L 314.33008 244.98633 z M 335.66992 244.98633 L 335.89258 245.37305 L 330.44727 254.80859 L 330 254.80859 L 330 248.25977 L 335.66992 244.98633 z M 364.33008 244.98633 L 370 248.25977 L 370 254.80859 L 369.55273 254.80859 L 364.10742 245.37305 L 364.33008 244.98633 z M 385.66992 244.98633 L 385.89258 245.37305 L 380.44727 254.80859 L 380 254.80859 L 380 248.25977 L 385.66992 244.98633 z M 269.55273 264.80859 L 270 264.80859 L 270 271.35547 L 264.33008 274.62891 L 264.10742 274.24219 L 269.55273 264.80859 z M 280 264.80859 L 280.44727 264.80859 L 285.89258 274.24219 L 285.66992 274.62891 L 280 271.35547 L 280 264.80859 z M 319.55273 264.80859 L 320 264.80859 L 320 271.35547 L 314.33008 274.62891 L 314.10742 274.24219 L 319.55273 264.80859 z M 330 264.80859 L 330.44727 264.80859 L 335.89258 274.24219 L 335.66992 274.62891 L 330 271.35547 L 330 264.80859 z M 369.55273 264.80859 L 370 264.80859 L 370 271.35547 L 364.33008 274.62891 L 364.10742 274.24219 L 369.55273 264.80859 z M 380 264.80859 L 380.44727 264.80859 L 385.89258 274.24219 L 385.66992 274.62891 L 380 271.35547 L 380 264.80859 z M 294.55273 279.24219 L 305.44727 279.24219 L 305.66992 279.62891 L 300 282.90234 L 294.33008 279.62891 L 294.55273 279.24219 z M 344.55273 279.24219 L 355.44727 279.24219 L 355.66992 279.62891 L 350 282.90234 L 344.33008 279.62891 L 344.55273 279.24219 z M 275 280.01562 L 280.66992 283.28906 L 280.44727 283.67578 L 269.55273 283.67578 L 269.33008 283.28906 L 275 280.01562 z M 325 280.01562 L 330.66992 283.28906 L 330.44727 283.67578 L 319.55273 283.67578 L 319.33008 283.28906 L 325 280.01562 z M 375 280.01562 L 380.66992 283.28906 L 380.44727 283.67578 L 369.55273 283.67578 L 369.33008 283.28906 L 375 280.01562 z M 289.33008 288.28906 L 295 291.5625 L 295 298.10938 L 294.55273 298.10938 L 289.10742 288.67578 L 289.33008 288.28906 z M 310.66992 288.28906 L 310.89258 288.67578 L 305.44727 298.10938 L 305 298.10938 L 305 291.5625 L 310.66992 288.28906 z M 339.33008 288.28906 L 345 291.5625 L 345 298.10938 L 344.55273 298.10938 L 339.10742 288.67578 L 339.33008 288.28906 z M 360.66992 288.28906 L 360.89258 288.67578 L 355.44727 298.10938 L 355 298.10938 L 355 291.5625 L 360.66992 288.28906 z M 294.55273 308.10938 L 295 308.10938 L 295 314.65625 L 289.33008 317.92969 L 289.10742 317.54297 L 294.55273 308.10938 z M 305 308.10938 L 305.44727 308.10938 L 310.89258 317.54297 L 310.66992 317.92969 L 305 314.65625 L 305 308.10938 z M 344.55273 308.10938 L 345 308.10938 L 345 314.65625 L 339.33008 317.92969 L 339.10742 317.54297 L 344.55273 308.10938 z M 355 308.10938 L 355.44727 308.10938 L 360.89258 317.54297 L 360.66992 317.92969 L 355 314.65625 L 355 308.10938 z M 319.55273 322.54297 L 330.44727 322.54297 L 330.66992 322.92969 L 325 326.20312 L 319.33008 322.92969 L 319.55273 322.54297 z M 300 323.31641 L 305.66992 326.58984 L 305.44727 326.97656 L 294.55273 326.97656 L 294.33008 326.58984 L 300 323.31641 z M 350 323.31641 L 355.66992 326.58984 L 355.44727 326.97656 L 344.55273 326.97656 L 344.33008 326.58984 L 350 323.31641 z M 314.33008 331.58984 L 320 334.86328 L 320 341.41016 L 319.55273 341.41016 L 314.10742 331.97656 L 314.33008 331.58984 z M 335.66992 331.58984 L 335.89258 331.97656 L 330.44727 341.41016 L 330 341.41016 L 330 334.86328 L 335.66992 331.58984 z " />
</svg>
