<?xml version="1.0" encoding="UTF-8" standalone="no"?>
<!-- Created with Inkscape (http://www.inkscape.org/) -->

<svg
   width="148mm"
   height="210mm"
   viewBox="0 0 148 210"
   version="1.1"
   id="svg1"
   xml:space="preserve"
   inkscape:version="1.3 (0e150ed, 2023-07-21)"
   sodipodi:docname="boba.svg"
   xmlns:inkscape="http://www.inkscape.org/namespaces/inkscape"
   xmlns:sodipodi="http://sodipodi.sourceforge.net/DTD/sodipodi-0.dtd"
   xmlns="http://www.w3.org/2000/svg"
   xmlns:svg="http://www.w3.org/2000/svg"><sodipodi:namedview
     id="namedview1"
     pagecolor="#ffffff"
     bordercolor="#000000"
     borderopacity="0.25"
     inkscape:showpageshadow="2"
     inkscape:pageopacity="0.0"
     inkscape:pagecheckerboard="0"
     inkscape:deskcolor="#d1d1d1"
     inkscape:document-units="mm"
     inkscape:zoom="1.7794388"
     inkscape:cx="337.46596"
     inkscape:cy="463.34834"
     inkscape:window-width="1792"
     inkscape:window-height="982"
     inkscape:window-x="0"
     inkscape:window-y="25"
     inkscape:window-maximized="1"
     inkscape:current-layer="layer1" /><defs
     id="defs1" /><g
     inkscape:label="Ebene 1"
     inkscape:groupmode="layer"
     id="layer1"><path
       style="vector-effect:non-scaling-stroke;fill:none;stroke:#ff0000;stroke-width:0.412635;-inkscape-stroke:hairline"
       d="m 64.852721,158.10853 c 0,0 -0.02055,-14.10341 -1.261088,-21.08059 -1.079802,-6.07314 -3.491557,-16.08411 -8.38903,-16.87914 -4.759017,-0.77256 -8.909673,4.20387 -12.243725,10.20369 -2.583151,4.64853 -4.332195,12.94195 -4.332195,12.94195 z"
       id="path1"
       sodipodi:nodetypes="cssscc" /><path
       id="path2-8"
       style="vector-effect:non-scaling-stroke;fill:none;stroke:#ff0000;stroke-width:0.412635;-inkscape-stroke:hairline"
       d="m 104.61451,94.922604 c 4.27551,-0.192014 12.41849,-1.395967 12.60796,-1.27978 0.31604,0.193823 0.0357,2.592544 -0.24213,3.076322 -0.35921,0.625495 -7.96695,2.92325 -12.08311,3.914244 -9.953824,2.39649 -16.777047,2.33192 -16.777047,2.33192 l 0.154864,57.46932 1.910469,-0.0516 2.271929,-1.1876 c 0,0 -0.366212,-13.58943 0.69711,-20.26389 1.092034,-6.85468 1.033322,-11.69598 5.786286,-20.00329 2.402069,-4.19838 4.446569,-6.45813 9.870719,-10.63653 4.17517,-3.21629 10.63653,-5.19062 10.63653,-5.19062 l -1.27638,-13.019155 -17.78429,-0.25527 -20.92183,0.0094 -20.932002,-0.01247 -17.784297,0.255269 -1.276383,13.019136 c 0,0 6.461364,1.97432 10.63654,5.19062 5.42413,4.1784 7.46864,6.43815 9.870708,10.63654 4.75296,8.3073 4.694255,13.14861 5.78628,20.00329 1.063314,6.67446 0.697067,20.26389 0.697067,20.26389 l 2.271924,1.18759 1.910479,0.0516 0.154912,-57.46932 c 0,0 -6.823216,0.0645 -16.777045,-2.33192 -4.11615,-0.990995 -11.723892,-3.288749 -12.083108,-3.914245 -0.277826,-0.483777 -0.55816,-2.882499 -0.242129,-3.076322 0.189461,-0.116187 8.332447,1.087766 12.607957,1.27978 13.230026,0.594132 25.29689,0.577164 25.29689,0.577164 0,0 11.781116,0.02012 25.011127,-0.574045 z"
       sodipodi:nodetypes="ssssccccasscccccccssaccccsssscss" /><path
       id="path3-3"
       style="vector-effect:non-scaling-stroke;fill:none;stroke:#ff0000;stroke-width:0.412635;-inkscape-stroke:hairline"
       d="m 118.04459,89.219178 c 0,0 -1.48429,-11.239885 -2.84354,-15.120413 -2.01152,-5.742664 -6.9571,-10.445597 -12.14147,-13.630949 -10.502261,-6.452719 -23.599136,-6.140011 -23.599136,-6.140011 0,0 -13.096872,-0.315827 -23.599125,6.136893 -5.184379,3.18535 -10.129958,7.888284 -12.141477,13.630948 -1.359258,3.880528 -2.843543,15.120413 -2.843543,15.120413 l 38.584145,-0.01247 z"
       sodipodi:nodetypes="csscssccc" /><path
       style="vector-effect:non-scaling-stroke;fill:none;stroke:#ff0000;stroke-width:0.412635;-inkscape-stroke:hairline"
       d="m 31.694961,113.00036 -2.360616,25.4528 4.91481,2.65765 3.145775,-27.27123 z m 7.799804,-30.87663 1.554614,0.0354 v -5.77e-4 l -2.999053,25.999307 -5.785222,-0.93538 1.932921,-22.302932 c 0,0 0.137632,-0.995424 0.667708,-1.853294 0.254119,-0.411258 0.734757,-0.879985 1.26983,-0.922717 0.334883,-0.02682 0.388157,-0.04211 0.831718,-0.04834 L 36,95.7 l 2.6,0.1 z"
       id="path3"
       sodipodi:nodetypes="scccscccccccccccc" /><path
       style="vector-effect:non-scaling-stroke;fill:none;stroke:#ff0000;stroke-width:0.412635;-inkscape-stroke:hairline"
       d="m 124.55092,140.85119 -5.59109,-50.136388 c 0,0 1.27436,0.337614 2.3831,2.199767 1.26666,2.127373 1.41762,2.535573 1.55816,3.941258 3.95021,39.507613 4.49119,42.528863 4.49119,42.528863 z"
       id="path4"
       sodipodi:nodetypes="ccsscc" /><path
       style="vector-effect:non-scaling-stroke;fill:none;stroke:#ff0000;stroke-width:0.412635;-inkscape-stroke:hairline"
       d="m 107.76118,88 h 1.63947 l -0.70263,-8 H 107 Z"
       id="path5"
       sodipodi:nodetypes="ccccc" /><path
       style="vector-effect:non-scaling-stroke;fill:none;stroke:#ff0000;stroke-width:0.412635;-inkscape-stroke:hairline"
       d="m 111.06118,88 h 1.63946 l -0.70263,-8 H 110.3 Z"
       id="path5-0"
       sodipodi:nodetypes="ccccc" /><path
       style="vector-effect:non-scaling-stroke;fill:none;stroke:#ff0000;stroke-width:0.412635;-inkscape-stroke:hairline"
       d="m 114.36117,88 h 1.63946 L 115.298,80 H 113.6 Z"
       id="path5-9"
       sodipodi:nodetypes="ccccc" /><path
       style="vector-effect:non-scaling-stroke;fill:none;stroke:#ff0000;stroke-width:0.412635;-inkscape-stroke:hairline"
       d="m 32.208234,107.73149 5.781959,0.9597 -0.536683,4.61263 -5.677016,-0.81834 z"
       id="path6"
       sodipodi:nodetypes="ccccc" /><path
       style="vector-effect:non-scaling-stroke;fill:none;stroke:#ff0000;stroke-width:0.412635;-inkscape-stroke:hairline"
       d="m 36.921934,94.737872 0.876364,0.04101 0.910677,-13.422582 0.438225,-0.01431 3.338797,-45.07353 -2.032451,-0.05396 -3.078705,45.174506 0.486546,-0.02057 z"
       id="path7"
       sodipodi:nodetypes="ccccccccc" /><path
       style="vector-effect:non-scaling-stroke;fill:none;stroke:#ff0000;stroke-width:0.412635;-inkscape-stroke:hairline"
       d="m 47.342119,32.802708 0.350554,0.730329 10.195285,0.467402 1.694346,-3.826878 c 0,0 -3.429689,-0.47729 -7.244788,0.525823 -1.747324,0.459432 -4.995397,2.103324 -4.995397,2.103324 z"
       id="path8"
       sodipodi:nodetypes="ccccsc" /><path
       style="vector-effect:non-scaling-stroke;fill:none;stroke:#ff0000;stroke-width:0.412635;-inkscape-stroke:hairline"
       d="m 94.068,158.12909 c 0,0 0.0206,-14.10341 1.26109,-21.08059 1.079803,-6.07314 3.491563,-16.08411 8.38903,-16.87914 4.75902,-0.77256 8.90967,4.20387 12.24373,10.20369 2.58315,4.64853 4.33219,12.94195 4.33219,12.94195 z"
       id="path1-41"
       sodipodi:nodetypes="cssscc" /></g></svg>
