<?xml version="1.0" encoding="UTF-8" standalone="no"?>
<!-- Created with Inkscape (http://www.inkscape.org/) -->

<svg
   width="210mm"
   height="297mm"
   viewBox="0 0 210 297"
   version="1.1"
   id="svg1"
   inkscape:version="1.3 (0e150ed, 2023-07-21)"
   sodipodi:docname="businesscard_back.svg"
   xmlns:inkscape="http://www.inkscape.org/namespaces/inkscape"
   xmlns:sodipodi="http://sodipodi.sourceforge.net/DTD/sodipodi-0.dtd"
   xmlns="http://www.w3.org/2000/svg"
   xmlns:svg="http://www.w3.org/2000/svg">
  <sodipodi:namedview
     id="namedview1"
     pagecolor="#ffffff"
     bordercolor="#000000"
     borderopacity="0.25"
     inkscape:showpageshadow="2"
     inkscape:pageopacity="0.0"
     inkscape:pagecheckerboard="0"
     inkscape:deskcolor="#d1d1d1"
     inkscape:document-units="mm"
     inkscape:zoom="8.9659437"
     inkscape:cx="303.37019"
     inkscape:cy="82.980669"
     inkscape:window-width="1680"
     inkscape:window-height="857"
     inkscape:window-x="115"
     inkscape:window-y="88"
     inkscape:window-maximized="0"
     inkscape:current-layer="layer1" />
  <defs
     id="defs1" />
  <g
     inkscape:label="Ebene 1"
     inkscape:groupmode="layer"
     id="layer1">
    <path
       id="path2"
       d="m 58.999981,33.597952 v 0.08461 c 0,0.03089 -0.02516,0.05595 -0.05605,0.05595 h -0.427935 v 1.237318 c 0,0.03089 -0.02516,0.05605 -0.05605,0.05605 h -0.0994 c -0.03089,0 -0.05605,-0.02506 -0.05605,-0.05605 V 33.738512 H 57.87359 c -0.03089,0 -0.05605,-0.02506 -0.05605,-0.05595 v -0.08461 c 0,-0.03099 0.02516,-0.05595 0.05605,-0.05595 h 1.070261 c 0.03099,0 0.05615,0.02506 0.05615,0.05595 z m -3.912096,0.62456 h 0.18359 c 0.02895,0 0.05557,-0.0019 0.07946,-0.0049 0.0238,-0.0029 0.04682,-0.0078 0.06858,-0.01477 0.02118,-0.0058 0.04041,-0.01409 0.05741,-0.02283 0.0168,-0.0087 0.03235,-0.01855 0.04604,-0.02973 0.01331,-0.01098 0.02516,-0.02283 0.03517,-0.03594 0.0101,-0.01302 0.01885,-0.0273 0.02574,-0.04235 0.0068,-0.01515 0.01224,-0.03157 0.01574,-0.04886 0.0039,-0.01719 0.0049,-0.03643 0.0049,-0.05751 0,-0.04119 -0.0068,-0.07655 -0.01943,-0.105633 -0.01195,-0.0272 -0.03021,-0.04974 -0.05421,-0.06742 -0.02623,-0.01923 -0.05926,-0.034 -0.09883,-0.04401 -0.04216,-0.01059 -0.0917,-0.01603 -0.14857,-0.01603 h -0.19619 z m 5.8e-5,0.186155 v 0.567187 c 0,0.03089 -0.02516,0.05605 -0.05605,0.05605 h -0.09939 c -0.03089,0 -0.05595,-0.02516 -0.05595,-0.05605 v -1.378028 c 0,-0.03089 0.02516,-0.05605 0.05595,-0.05605 h 0.351559 c 0.08364,0 0.157809,0.0087 0.222234,0.02487 0.06713,0.01729 0.123245,0.04371 0.16865,0.07917 0.04672,0.03643 0.08189,0.0816 0.105225,0.135262 0.02283,0.05226 0.03429,0.112083 0.03429,0.178956 0,0.02924 -0.0029,0.0577 -0.0078,0.08578 -0.0049,0.02808 -0.01341,0.05479 -0.0238,0.07995 -0.01059,0.02516 -0.02351,0.04896 -0.03866,0.0712 -0.01515,0.02215 -0.03293,0.04284 -0.05265,0.06198 -0.01923,0.01855 -0.0408,0.03565 -0.0645,0.05119 -0.02254,0.01506 -0.0477,0.02856 -0.07499,0.04061 -0.0238,0.01039 -0.04847,0.01923 -0.07383,0.02623 l 0.44879,0.564118 c 0.01914,0.02419 0.01515,0.05935 -0.0087,0.07859 -0.0103,0.0078 -0.02254,0.01214 -0.03478,0.01214 l -0.08655,1.56e-4 c -0.0087,0 -0.01778,-7.58e-4 -0.02604,-0.0029 -0.0097,-0.0019 -0.01855,-0.0049 -0.02671,-0.0097 l -0.0049,-0.0019 c -0.0058,-0.0039 -0.01243,-0.0078 -0.01797,-0.01292 -0.0058,-0.0049 -0.01224,-0.01195 -0.01768,-0.01914 -0.111472,-0.154651 -0.322961,-0.435258 -0.450335,-0.568936 -0.0078,-0.0049 -0.0049,-0.0039 -0.01438,-0.0058 -0.0068,-7.58e-4 -0.01583,-0.0019 -0.02671,-0.0019 h -0.124159 z m -3.197485,0.01069 H 52.34193 L 52.116393,33.86132 Z m 0.762222,0.61264 c -0.0102,0 -0.02021,-0.0019 -0.02973,-0.0049 l -0.0058,-0.0019 c -0.0078,-0.0029 -0.01506,-0.0078 -0.02147,-0.01273 l -7.58e-4,-6.03e-4 c -0.0058,-0.0049 -0.01195,-0.01136 -0.0171,-0.01855 -0.0049,-0.0068 -0.0087,-0.01438 -0.01234,-0.02215 l -0.148473,-0.365266 h -0.60146 l -0.148347,0.366966 c -0.0029,0.0078 -0.0068,0.01399 -0.01098,0.02001 -0.0049,0.0068 -0.01146,0.0137 -0.01875,0.01953 -0.0078,0.0058 -0.01768,0.01156 -0.02788,0.01506 -0.0098,0.0029 -0.01992,0.0049 -0.03021,0.0049 h -0.07596 c -0.03089,0 -0.05595,-0.02516 -0.05595,-0.05605 0,-0.0097 0.0019,-0.01846 0.0068,-0.02623 l 0.561835,-1.372812 c 0.0087,-0.02166 0.02963,-0.03468 0.05168,-0.03468 l 0.0992,-1.46e-4 c 0.02535,0 0.04682,0.0169 0.05362,0.03993 l 0.561962,1.373084 c 0.01156,0.02856 -0.0019,0.0611 -0.0306,0.07266 -0.01943,0.0078 -0.0749,0.0049 -0.09798,0.0049 z m -3.324722,3.9e-5 h -0.10032 c -0.03089,0 -0.05605,-0.02516 -0.05605,-0.05605 v -0.604364 h -0.750836 v 0.604364 c 0,0.03089 -0.02516,0.05605 -0.05605,0.05605 h -0.10029 c -0.03089,0 -0.05595,-0.02516 -0.05595,-0.05605 v -1.378029 c 0,-0.03099 0.02516,-0.05595 0.05595,-0.05595 h 0.1003 c 0.03099,0 0.05605,0.02506 0.05605,0.05595 v 0.586674 h 0.750827 v -0.586674 c 0,-0.03099 0.02516,-0.05595 0.05605,-0.05595 h 0.10032 c 0.03089,0 0.05595,0.02506 0.05595,0.05595 v 1.378029 c 0,0.03089 -0.02516,0.05605 -0.05595,0.05605 z m -3.85997,-0.19685 h 0.597497 c 0.03089,0 0.05605,0.02516 0.05605,0.05605 v 0.08471 c 0,0.03089 -0.02516,0.05605 -0.05605,0.05605 h -0.752828 c -0.03089,0 -0.05605,-0.02516 -0.05605,-0.05605 v -1.378019 c 0,-0.03089 0.02516,-0.05605 0.05605,-0.05605 h 0.09929 c 0.03099,0 0.05605,0.02506 0.05605,0.05605 z M 43.08798,33.597975 v 0.08277 c 0,0.03089 -0.02516,0.05605 -0.05595,0.05605 h -0.669508 v 0.445012 h 0.547681 c 0.03099,0 0.05595,0.02516 0.05595,0.05605 v 0.08082 c 0,0.03089 -0.02506,0.05595 -0.05595,0.05595 h -0.547681 v 0.462497 h 0.669508 c 0.03089,0 0.05595,0.02516 0.05595,0.05605 v 0.08286 c 0,0.03089 -0.02516,0.05605 -0.05595,0.05605 h -0.825918 c -0.03099,0 -0.05595,-0.02516 -0.05595,-0.05605 V 33.59801 c 0,-0.03089 0.02516,-0.05595 0.05595,-0.05595 h 0.825918 c 0.03089,0 0.05595,0.02506 0.05595,0.05595 z m -3.213387,0.240001 c -0.02244,0 -0.04575,-0.01098 -0.06994,-0.03244 l -0.01972,-0.01574 -0.02759,-0.01875 c -0.0087,-0.0058 -0.01991,-0.01166 -0.03225,-0.01768 l -0.0019,-0.0019 c -0.01234,-0.0049 -0.02555,-0.01117 -0.03944,-0.01622 -0.01331,-0.0049 -0.02895,-0.0087 -0.04653,-0.01098 -0.01816,-0.0029 -0.03866,-0.0039 -0.0613,-0.0039 -0.03837,0 -0.07655,0.0049 -0.110947,0.0171 -0.02904,0.0101 -0.05595,0.02555 -0.07849,0.04711 -0.01982,0.01894 -0.03517,0.04148 -0.04546,0.06606 -0.01059,0.02516 -0.01603,0.05294 -0.01603,0.0815 0,0.03342 0.0068,0.0611 0.01972,0.08403 0.01379,0.0239 0.03497,0.04459 0.06304,0.06314 0.05615,0.03662 0.129103,0.06013 0.197336,0.08209 l 0.09335,0.03196 c 0.02147,0.0078 0.04342,0.01642 0.06538,0.02555 0.02234,0.0097 0.0442,0.02011 0.06538,0.03264 0.01972,0.01137 0.03934,0.02487 0.05867,0.04031 0.01982,0.01593 0.0375,0.03313 0.05255,0.05158 0.01506,0.01846 0.02875,0.03934 0.04061,0.06208 0.01234,0.0237 0.02147,0.05003 0.02759,0.07839 0.0058,0.02759 0.0087,0.05731 0.0087,0.08908 0,0.03138 -0.0029,0.06275 -0.0087,0.09403 -0.0049,0.03089 -0.01409,0.06081 -0.02506,0.08918 -0.01137,0.02924 -0.02535,0.05654 -0.04177,0.08179 -0.01671,0.02584 -0.03575,0.04954 -0.05702,0.07062 l -0.0039,0.0029 c -0.02079,0.0204 -0.04381,0.03876 -0.06878,0.05479 -0.02564,0.01642 -0.05401,0.03099 -0.085,0.04342 -0.03108,0.01234 -0.06411,0.02166 -0.09877,0.02768 -0.03449,0.0058 -0.07091,0.0087 -0.10882,0.0087 -0.04847,0 -0.09462,-0.0049 -0.137816,-0.0134 -0.04371,-0.0087 -0.08422,-0.02264 -0.121361,-0.0407 -0.03633,-0.01778 -0.07023,-0.03876 -0.101669,-0.06275 -0.03138,-0.02399 -0.06081,-0.05158 -0.08792,-0.08238 -0.01651,-0.01865 -0.01836,-0.04546 -0.0058,-0.06567 l 0.0078,-0.01292 c 0.0068,-0.01224 0.01457,-0.02516 0.02497,-0.0374 0.03313,-0.03847 0.07325,-0.05663 0.128452,-0.0087 0.05013,0.04303 0.09267,0.07635 0.138399,0.0981 l 0.0029,0.0019 c 0.04265,0.01972 0.09092,0.03021 0.155088,0.03021 0.02467,0 0.0475,-0.0019 0.06819,-0.0049 0.02079,-0.0039 0.04022,-0.0087 0.0579,-0.01574 0.01807,-0.0068 0.03497,-0.01535 0.05003,-0.02468 0.01477,-0.0097 0.02827,-0.01982 0.04012,-0.03108 0.01175,-0.01137 0.02215,-0.0239 0.03128,-0.0375 0.0087,-0.01389 0.01681,-0.02875 0.02312,-0.04459 l 0.0019,-0.0039 c 0.01175,-0.03128 0.01768,-0.06509 0.01768,-0.101669 0,-0.02011 -0.0019,-0.03808 -0.0049,-0.05333 -0.0039,-0.01438 -0.0087,-0.02681 -0.01506,-0.0373 -0.0078,-0.01214 -0.0168,-0.02341 -0.02691,-0.03361 -0.0103,-0.0103 -0.02195,-0.01972 -0.03478,-0.02817 -0.01448,-0.0097 -0.02982,-0.01797 -0.04566,-0.02565 -0.01671,-0.0078 -0.03429,-0.01525 -0.05275,-0.02157 l -0.12578,-0.04119 c -0.04284,-0.01341 -0.08743,-0.02808 -0.129948,-0.04634 -0.04478,-0.01923 -0.08801,-0.04303 -0.126383,-0.07402 -0.04682,-0.03789 -0.07937,-0.08209 -0.100174,-0.131707 -0.0203,-0.04847 -0.02904,-0.1013 -0.02904,-0.15774 0,-0.0543 0.01059,-0.107236 0.03108,-0.156186 0.0203,-0.04847 0.05032,-0.09297 0.08927,-0.130842 0.04381,-0.04245 0.0951,-0.07305 0.149824,-0.09316 0.05877,-0.02157 0.121846,-0.03138 0.184678,-0.03138 0.0783,0 0.149376,0.01292 0.213122,0.03837 0.03225,0.01282 0.06304,0.02914 0.09199,0.04857 0.02895,0.01943 0.05654,0.04216 0.08228,0.0679 0.01729,0.01719 0.02098,0.04284 0.01098,0.06373 l -0.0068,0.01496 c -0.01545,0.03361 -0.03827,0.0784 -0.09209,0.0784 z m -3.100983,1.193963 h -0.10029 c -0.03089,0 -0.05605,-0.02516 -0.05605,-0.05605 v -1.377961 c 0,-0.03099 0.02506,-0.05596 0.05605,-0.05596 h 0.10029 c 0.03099,0 0.05605,0.02506 0.05605,0.05596 v 1.377961 c 0,0.03089 -0.02516,0.05605 -0.05605,0.05605 z m -2.303479,-1.433964 v 0.08277 c 0,0.03089 -0.02516,0.05605 -0.05595,0.05605 h -0.669499 v 0.445012 h 0.547798 c 0.03089,0 0.05595,0.02516 0.05595,0.05605 v 0.08082 c 0,0.03089 -0.02516,0.05595 -0.05595,0.05595 h -0.547798 v 0.462497 h 0.669499 c 0.03089,0 0.05595,0.02516 0.05595,0.05605 v 0.08286 c 0,0.03089 -0.02516,0.05605 -0.05595,0.05605 h -0.825889 c -0.03089,0 -0.05605,-0.02516 -0.05605,-0.05605 V 33.59801 c 0,-0.03089 0.02516,-0.05595 0.05605,-0.05595 h 0.825889 c 0.03089,0 0.05595,0.02506 0.05595,0.05595 z m -3.638338,1.254998 c 0.02108,-0.0019 0.04041,-0.0029 0.0577,-0.0049 0.03682,-0.0049 0.07014,-0.01146 0.100067,-0.02021 0.03245,-0.01088 0.05625,-0.01943 0.08762,-0.03254 l 0.05838,-0.02943 v -0.28219 h -0.208857 c -0.0098,0 -0.01972,-0.0019 -0.02914,-0.0049 -0.0103,-0.0039 -0.01924,-0.0097 -0.02701,-0.01661 -0.0078,-0.0068 -0.01389,-0.01554 -0.01817,-0.02497 l -7.57e-4,-0.0029 c -0.0039,-0.0097 -0.0058,-0.01943 -0.0058,-0.02885 v -0.0545 c 0,-0.03089 0.02516,-0.05605 0.05595,-0.05605 h 0.380742 c 0.03089,0 0.05605,0.02516 0.05605,0.05605 v 0.489823 c 0,0.02098 -0.01156,0.03925 -0.02856,0.04886 -0.01729,0.01195 -0.03449,0.02302 -0.05139,0.03322 -0.01865,0.01107 -0.03798,0.02186 -0.0578,0.03196 -0.01962,0.01001 -0.04051,0.01943 -0.06256,0.02817 -0.02215,0.0087 -0.0442,0.01642 -0.06577,0.02293 -0.02263,0.0068 -0.04614,0.01282 -0.07043,0.01807 -0.02322,0.0049 -0.04809,0.0097 -0.07422,0.01292 -0.02584,0.0039 -0.05285,0.0058 -0.08063,0.0078 -0.02885,0.0019 -0.0579,0.0029 -0.08675,0.0029 -0.05226,0 -0.103311,-0.0049 -0.152728,-0.0137 -0.04954,-0.0087 -0.09646,-0.02273 -0.140468,-0.04061 -0.04469,-0.01817 -0.08636,-0.04031 -0.124722,-0.06615 l -0.0029,-0.0019 c -0.0374,-0.02545 -0.07179,-0.05459 -0.102845,-0.08714 l -7.58e-4,-7.58e-4 c -0.03196,-0.03351 -0.06042,-0.07023 -0.08471,-0.109927 -0.02438,-0.03963 -0.04546,-0.08335 -0.06314,-0.130686 -0.01758,-0.04692 -0.0307,-0.09637 -0.03934,-0.148104 -0.0087,-0.05197 -0.01302,-0.105973 -0.01302,-0.161684 0,-0.112715 0.01749,-0.215939 0.05246,-0.309216 0.01758,-0.04711 0.03886,-0.09063 0.06363,-0.130404 0.02497,-0.04022 0.05401,-0.07723 0.08685,-0.110947 0.03264,-0.03361 0.06917,-0.06353 0.108917,-0.08957 0.03963,-0.02574 0.08257,-0.04789 0.12851,-0.06577 0.04614,-0.01807 0.09501,-0.03167 0.146375,-0.0407 0.05119,-0.0087 0.104797,-0.0135 0.160703,-0.0135 0.05469,0 0.106216,0.0039 0.154379,0.01166 0.02497,0.0039 0.04818,0.0087 0.06936,0.01409 0.02234,0.0058 0.0442,0.01243 0.06538,0.02011 l 0.0029,7.57e-4 c 0.01972,0.0078 0.03905,0.01545 0.0577,0.02448 0.01914,0.0087 0.03818,0.01972 0.05673,0.03118 0.01807,0.01117 0.03565,0.02312 0.05246,0.03546 0.01681,0.01214 0.03351,0.02584 0.05032,0.04031 0.02098,0.01807 0.02516,0.04847 0.01117,0.0714 l -0.02613,0.04265 c -0.0078,0.01234 -0.01719,0.02244 -0.02924,0.02963 -0.01302,0.0078 -0.02749,0.01214 -0.04303,0.01214 -0.0068,0 -0.0136,-7.58e-4 -0.02079,-0.0019 -0.0058,-0.0019 -0.01234,-0.0039 -0.01836,-0.0058 -0.0078,-0.0029 -0.01661,-0.0078 -0.02555,-0.0137 l -0.02817,-0.02021 c -0.0078,-0.0058 -0.0171,-0.01214 -0.02749,-0.01826 -0.01137,-0.0068 -0.02419,-0.01379 -0.03827,-0.02079 -0.0137,-0.0068 -0.02963,-0.01331 -0.04741,-0.01943 -0.01846,-0.0068 -0.03876,-0.01272 -0.06042,-0.01826 -0.02079,-0.0049 -0.04439,-0.0097 -0.07043,-0.01243 -0.02584,-0.0029 -0.05518,-0.0049 -0.08782,-0.0049 -0.04177,0 -0.08131,0.0029 -0.11832,0.0098 -0.03701,0.0068 -0.07169,0.01622 -0.103573,0.02885 -0.03196,0.01263 -0.06207,0.02846 -0.08986,0.04682 -0.0272,0.01807 -0.05226,0.03905 -0.0747,0.06246 l -0.0019,0.0019 c -0.02195,0.02312 -0.04177,0.04906 -0.05897,0.07772 -0.01787,0.02963 -0.03313,0.06178 -0.04546,0.09607 -0.01273,0.03536 -0.02234,0.07266 -0.02856,0.111811 -0.0058,0.03925 -0.0097,0.0817 -0.0097,0.127325 0,0.04653 0.0029,0.08995 0.0097,0.129812 0.0058,0.04002 0.01612,0.07781 0.02885,0.113172 0.01282,0.03536 0.02807,0.0679 0.04566,0.09723 0.01729,0.02905 0.0374,0.05566 0.05994,0.07966 0.02254,0.02419 0.04721,0.04527 0.07354,0.06314 0.02652,0.01787 0.05586,0.03351 0.08791,0.04653 0.03196,0.01302 0.06557,0.02273 0.100076,0.02905 0.0578,0.01059 0.118213,0.01107 0.176858,0.0078 z m 22.071641,-2.672059 0.702731,-1.688487 c 0.286941,0.173856 0.627067,0.309846 1.019951,0.407951 0.392758,0.09825 0.774277,0.147327 1.144605,0.147327 0.294721,0 0.500363,-0.02448 0.617595,-0.07363 0.117086,-0.04906 0.175673,-0.122681 0.175673,-0.220999 0,-0.0981 -0.07363,-0.166105 -0.221,-0.203942 -0.147317,-0.03769 -0.38726,-0.07538 -0.719595,-0.113346 -0.506269,-0.06042 -0.936991,-0.137758 -1.29196,-0.232376 -0.3553,-0.09433 -0.666915,-0.277614 -0.934932,-0.549565 -0.268376,-0.271991 -0.402327,-0.661077 -0.402327,-1.167278 0,-0.400394 0.120739,-0.759385 0.362644,-1.076663 0.241692,-0.317268 0.602324,-0.570286 1.082288,-0.759268 0.479691,-0.188768 1.055709,-0.283346 1.728267,-0.283346 0.468306,0 0.927296,0.04352 1.376883,0.130336 0.449441,0.08694 0.832951,0.213462 1.150345,0.379605 l -0.702614,1.688614 c -0.544,-0.302095 -1.140932,-0.453268 -1.790672,-0.453268 -0.559174,0 -0.838546,0.0982 -0.838546,0.294663 0,0.09826 0.07538,0.168125 0.226614,0.209673 0.151067,0.04148 0.389018,0.08121 0.713932,0.119 0.506143,0.06042 0.935009,0.139857 1.286404,0.237922 0.351219,0.09834 0.660891,0.283395 0.929209,0.555346 0.268037,0.271942 0.402337,0.661135 0.402337,1.167219 0,0.385347 -0.120933,0.736664 -0.362615,1.05399 -0.241973,0.317298 -0.604626,0.570539 -1.088058,0.759356 -0.483479,0.18868 -1.069124,0.283326 -1.756545,0.283326 -0.855042,0 -2.050704,-0.177819 -2.810614,-0.612116 z M 49.29966,31.104358 c 0.143538,-0.09807 0.249404,-0.24547 0.317395,-0.441999 v -0.430596 h -0.634664 c -0.521278,0 -0.781941,0.173799 -0.781941,0.521278 0,0.143597 0.05469,0.262577 0.164269,0.356942 0.109489,0.09462 0.25874,0.141702 0.447605,0.141702 0.181404,0 0.343739,-0.04896 0.487336,-0.147327 z m 2.017296,-4.006159 c 0.574134,0.487297 0.861375,1.237201 0.861375,2.249555 v 3.331892 h -2.37994 V 31.8637 c -0.294722,0.619596 -0.88025,0.92921 -1.756604,0.92921 -0.49131,0 -0.908596,-0.085 -1.252278,-0.255 -0.343924,-0.169941 -0.604578,-0.400238 -0.781999,-0.691278 -0.177538,-0.290748 -0.266337,-0.617595 -0.266337,-0.980268 0,-0.611931 0.234153,-1.076624 0.702683,-1.393989 0.468277,-0.317298 1.178546,-0.475903 2.130584,-0.475903 h 1.03122 c -0.08316,-0.48348 -0.472192,-0.725385 -1.167278,-0.725385 -0.279596,0 -0.562865,0.04362 -0.849922,0.130337 -0.287251,0.08694 -0.532673,0.205991 -0.73674,0.357058 L 46.035837,27.06981 c 0.355018,-0.219028 0.783699,-0.390942 1.286345,-0.515663 0.502287,-0.124664 1.002873,-0.186932 1.501604,-0.186932 1.087873,0 1.918891,0.243663 2.49317,0.73098 z m -7.07729,-0.03973 h 6.8e-5 c 0.464566,0.460991 0.696893,1.15595 0.696893,2.085238 v 3.53594 h -2.561238 v -3.09395 c 0,-0.710027 -0.253232,-1.065317 -0.759385,-1.065317 -0.287057,0 -0.519461,0.100232 -0.696815,0.300376 -0.177713,0.200269 -0.266336,0.515663 -0.266336,0.946277 v 2.912614 h -2.561267 v -6.199168 h 2.436613 v 0.61199 c 0.241721,-0.241682 0.521249,-0.422999 0.838605,-0.543942 0.317336,-0.120807 0.661008,-0.181317 1.031268,-0.181317 0.763076,0 1.376999,0.23052 1.841594,0.691259 m 0,0 z m -9.831259,3.416832 c 0.188719,-0.215268 0.283336,-0.515595 0.283336,-0.900873 0,-0.385404 -0.09462,-0.683691 -0.283336,-0.895287 -0.188972,-0.21149 -0.430654,-0.317395 -0.725317,-0.317395 -0.294625,0 -0.53653,0.105905 -0.725346,0.317395 -0.188875,0.211596 -0.28321,0.509883 -0.28321,0.895287 0,0.385278 0.09433,0.685605 0.28321,0.900873 0.188816,0.215385 0.430721,0.323049 0.725346,0.323049 0.294663,0 0.536345,-0.107664 0.725317,-0.323049 z m -2.578219,1.903941 c -0.547846,-0.27573 -0.976586,-0.657278 -1.286268,-1.144604 -0.309914,-0.487278 -0.464663,-1.040682 -0.464663,-1.66021 0,-0.619441 0.154749,-1.17296 0.464663,-1.660277 0.309682,-0.487327 0.738422,-0.866902 1.286268,-1.138951 0.547749,-0.271932 1.165296,-0.40799 1.852902,-0.40799 0.695018,0 1.316411,0.136058 1.864277,0.40799 0.54772,0.272049 0.974605,0.651624 1.280605,1.138951 0.305999,0.487317 0.458999,1.040836 0.458999,1.660277 0,0.619528 -0.153,1.172932 -0.458999,1.66021 -0.306,0.487326 -0.732885,0.868932 -1.280605,1.144604 -0.547866,0.275915 -1.169259,0.413663 -1.864277,0.413663 -0.687606,0 -1.305153,-0.137748 -1.852902,-0.413663 z M 25,34.690289 25.602761,32.90629 c 0.181337,0.09804 0.374,0.147298 0.577951,0.147298 0.158722,0 0.287057,-0.05858 0.385317,-0.175673 0.09816,-0.117251 0.147327,-0.296422 0.147327,-0.538395 v -5.859041 h 2.561238 v 5.881773 c 0,0.808345 -0.239933,1.448681 -0.719566,1.920892 -0.479963,0.472133 -1.142885,0.708385 -1.988999,0.708385 -0.657307,0 -1.173154,-0.09726 -1.566029,-0.30124 z m 16.316309,-8.701227 c 1.919901,-0.165706 2.621,-0.596019 3.548355,-1.472131 1.010246,-0.954272 1.640557,-2.306568 1.640557,-3.805958 0,-2.399563 -2.231827,-4.32334 -4.291215,-4.205865 -2.05936,0.117523 -3.528684,1.475929 -3.528684,3.481996 0,1.691159 1.176856,2.746693 2.868083,2.746693 1.439511,0 2.674371,-1.025779 2.612199,-2.2793 -0.06217,-1.253579 -1.108039,-1.488296 -1.702709,-1.473054 -0.594611,0.01525 -1.085454,0.504773 -0.978228,0.470336 0.107149,-0.03449 0.835836,-0.134581 1.209486,0.07383 0.373602,0.208361 0.590065,0.675812 0.334104,1.226117 -0.25602,0.550343 -0.862522,0.743978 -1.437636,0.743978 -0.826812,0 -1.497184,-0.670315 -1.497184,-1.497243 0,-1.141612 0.925489,-2.067053 2.06714,-2.067053 1.535206,0 2.779605,1.244409 2.779605,2.779576 0,1.051153 -0.44199,1.999189 -1.150326,2.668309 -0.650012,0.614049 -1.115316,0.847561 -2.48704,1.001591 -1.371783,0.154068 -14.297206,5.8e-5 -14.587799,5.8e-5 v 1.565116 l 14.601234,0.04294 z"
       style="vector-effect:non-scaling-stroke;fill:#0000ff;fill-opacity:1;fill-rule:nonzero;stroke:none;stroke-width:0.199669;stroke-dasharray:none;-inkscape-stroke:hairline" />
    <rect
       style="fill:none;stroke:#0000ff;stroke-width:0.6;stroke-dasharray:none;stroke-opacity:1"
       id="rect2"
       width="82"
       height="52"
       x="1.05"
       y="1.05"
       rx="3"
       ry="3" />
  </g>
</svg>
