<?xml version="1.0" encoding="UTF-8" standalone="no"?>
<!-- Created with Inkscape (http://www.inkscape.org/) -->

<svg
   width="210mm"
   height="420mm"
   viewBox="0 0 210 420"
   version="1.1"
   id="svg1"
   sodipodi:docname="lamp.svg"
   inkscape:version="1.3 (0e150ed, 2023-07-21)"
   xmlns:inkscape="http://www.inkscape.org/namespaces/inkscape"
   xmlns:sodipodi="http://sodipodi.sourceforge.net/DTD/sodipodi-0.dtd"
   xmlns="http://www.w3.org/2000/svg"
   xmlns:svg="http://www.w3.org/2000/svg">
  <sodipodi:namedview
     id="namedview1"
     pagecolor="#ffffff"
     bordercolor="#000000"
     borderopacity="0.25"
     inkscape:showpageshadow="2"
     inkscape:pageopacity="0.0"
     inkscape:pagecheckerboard="0"
     inkscape:deskcolor="#d1d1d1"
     inkscape:document-units="mm"
     inkscape:zoom="0.23027336"
     inkscape:cx="-36.912649"
     inkscape:cy="740.42432"
     inkscape:window-width="1792"
     inkscape:window-height="982"
     inkscape:window-x="0"
     inkscape:window-y="25"
     inkscape:window-maximized="1"
     inkscape:current-layer="layer1" />
  <defs
     id="defs1">
    <inkscape:path-effect
       effect="knot"
       id="path-effect15"
       is_visible="true"
       lpeversion="1"
       switcher_size="10"
       interruption_width="3"
       prop_to_stroke_width="true"
       add_stroke_width="inkscape_1.0_and_up"
       both="false"
       inverse_width="false"
       add_other_stroke_width="inkscape_1.0_and_up"
       crossing_points_vector="" />
    <inkscape:path-effect
       effect="skeletal"
       id="path-effect14"
       is_visible="true"
       lpeversion="1"
       pattern="m 21.817425,1.2730292 h 3 V 11.440314 h -3 z"
       copytype="repeated_stretched"
       prop_scale="1"
       scale_y_rel="false"
       spacing="10"
       normal_offset="0"
       tang_offset="0"
       prop_units="false"
       vertical_pattern="false"
       hide_knot="false"
       fuse_tolerance="0" />
    <inkscape:path-effect
       effect="skeletal"
       id="path-effect13"
       is_visible="true"
       lpeversion="1"
       pattern="m 11.827341,19.635683 h 2.181743 v 2.181743 h -2.181743 z"
       copytype="repeated"
       prop_scale="1"
       scale_y_rel="false"
       spacing="0"
       normal_offset="0"
       tang_offset="0"
       prop_units="false"
       vertical_pattern="false"
       hide_knot="false"
       fuse_tolerance="0" />
    <inkscape:path-effect
       effect="skeletal"
       id="path-effect12"
       is_visible="true"
       lpeversion="1"
       pattern="m 11.827341,19.635683 h 2.181743 v 2.181743 h -2.181743 z"
       copytype="repeated_stretched"
       prop_scale="1"
       scale_y_rel="false"
       spacing="0"
       normal_offset="0"
       tang_offset="0"
       prop_units="false"
       vertical_pattern="false"
       hide_knot="false"
       fuse_tolerance="0" />
  </defs>
  <g
     inkscape:label="Ebene 1"
     inkscape:groupmode="layer"
     id="layer1">
    <path
       id="path3"
       style="color:#000000;vector-effect:non-scaling-stroke;fill:none;stroke:#ff0000;stroke-width:0.266086;stroke-linejoin:bevel;stroke-dasharray:none;stroke-opacity:1;-inkscape-stroke:hairline"
       d="m 186.62117,0.02273763 c -2.57188,0.07229821 -5.26126,0.33242069 -8.03259,0.97926837 -5.57625,1.301551 -10.73876,3.2992256 -15.58871,5.7024943 V 18.132743 h -5.99963 v -8.129219 c -8.03509,4.712964 -15.27103,10.264671 -22.16816,15.195455 -0.6197,0.443022 -1.21958,0.850688 -1.83193,1.281575 V 38.576973 H 127 v -8.03 c -8.33734,5.404658 -16.1279,9.223133 -24.00009,10.017993 v 10.10791 H 96.999764 V 40.564966 C 89.127931,39.775201 81.339788,35.959553 73.000195,30.557825 v 8.019148 h -6.00015 V 26.483138 C 66.38843,26.052853 65.787066,25.641466 65.168115,25.198979 58.270977,20.268195 51.035056,14.716516 42.999959,10.003524 v 8.129219 h -6.00015 V 6.7039836 C 32.149985,4.3008401 26.987647,2.3035011 21.411613,1.002006 18.640302,0.35515799 15.95134,0.09541035 13.379545,0.0232544 13.249985,0.0196194 13.129194,0.026482 13.00024,0.02377116 V 9.9999064 H 7.0000895 V 0.13280843 c -0.3113146,0.0137497 -0.6411951,0.023377 -0.947229,0.037207 C 1.4495157,0.37804597 0,0.79685059 0,0.79685059 L 5.1676432e-4,20.670056 c 0,0 3.10481093568,-0.346525 6.97476803568,-0.521415 3.8699582,-0.174889 8.7705272,0.08035 9.7901002,0.318327 11.65815,2.721112 23.497239,11.6073 36.55074,20.93929 13.053507,9.33199 27.858623,19.328019 46.683975,19.328019 18.82532,0 33.63044,-9.996029 46.68397,-19.328019 13.05353,-9.33199 24.89213,-18.218178 36.55022,-20.93929 1.01958,-0.23798 5.92019,-0.493216 9.7901,-0.318327 3.86999,0.17489 6.97529,0.521415 6.97529,0.521415 l 5.2e-4,-19.87320541 c 0,0 -1.448,-0.41880462 -6.05131,-0.62683513 -0.3065,-0.0138506 -0.63696,-0.0234222 -0.94878,-0.037207 V 9.9999064 h -6.00015 V 0.02377116 c -0.12878,0.0027121 -0.24942,-0.0046703 -0.37879,-0.0010335 z"
       inkscape:label="path3" />
    <path
       id="path3-4"
       style="color:#000000;vector-effect:non-scaling-stroke;fill:none;stroke:#ff0000;stroke-width:0.266086;stroke-linejoin:bevel;stroke-dasharray:none;stroke-opacity:1;-inkscape-stroke:hairline"
       d="m 186.62118,26.001026 c -2.57188,0.0723 -5.26126,0.33242 -8.03259,0.979268 -5.57625,1.301551 -10.73876,3.299226 -15.58871,5.702494 v 11.428243 h -5.99963 v -8.129219 c -8.03509,4.712964 -15.27103,10.264671 -22.16816,15.195455 -0.6197,0.443022 -1.21958,0.850688 -1.83193,1.281575 v 12.096419 h -6.00015 v -8.03 c -8.33734,5.404658 -16.1279,9.223133 -24.00009,10.017993 v 10.10791 H 96.999763 V 66.543254 C 89.127931,65.753489 81.339788,61.937841 73.000195,56.536113 v 8.019148 h -6.00015 V 52.461426 C 66.38843,52.031141 65.787066,51.619754 65.168115,51.177267 58.270977,46.246483 51.035056,40.694804 42.999959,35.981812 v 8.129219 h -6.00015 V 32.682272 C 32.149985,30.279128 26.987647,28.281789 21.411613,26.980294 18.640302,26.333446 15.95134,26.073698 13.379545,26.001542 c -0.12956,-0.0036 -0.250351,0.0032 -0.379305,5.17e-4 v 9.976135 H 7.0000893 v -9.867098 c -0.311314,0.01375 -0.641195,0.02338 -0.9472288,0.03721 C 1.4495157,26.356337 0,26.775142 0,26.775142 l 5.168e-4,19.873205 c 0,0 3.1048109,-0.346525 6.9747685,-0.521415 3.8699577,-0.174889 8.7705267,0.08035 9.7900997,0.318327 11.65815,2.721112 23.497239,11.6073 36.55074,20.93929 13.053507,9.33199 27.858623,19.328019 46.683985,19.328019 18.82532,0 33.63044,-9.996029 46.68397,-19.328019 13.05353,-9.33199 24.89213,-18.218178 36.55022,-20.93929 1.01958,-0.23798 5.92019,-0.493216 9.7901,-0.318327 3.86999,0.17489 6.97529,0.521415 6.97529,0.521415 l 5.2e-4,-19.873205 c 0,0 -1.448,-0.418805 -6.05131,-0.626836 -0.3065,-0.01385 -0.63696,-0.02342 -0.94878,-0.03721 v 9.867098 h -6.00015 v -9.976135 c -0.12878,0.0027 -0.24942,-0.0047 -0.37879,-10e-4 z"
       inkscape:label="path3" />
    <path
       id="path3-4-8"
       style="color:#000000;vector-effect:non-scaling-stroke;fill:none;stroke:#ff0000;stroke-width:0.266086;stroke-linejoin:bevel;stroke-dasharray:none;stroke-opacity:1;-inkscape-stroke:hairline"
       d="m 186.62118,52.001026 c -2.57188,0.0723 -5.26126,0.33242 -8.03259,0.979268 -5.57625,1.301551 -10.73876,3.299226 -15.58871,5.702494 v 11.428243 h -5.99963 v -8.129219 c -8.03509,4.712964 -15.27103,10.264671 -22.16816,15.195455 -0.6197,0.443022 -1.21958,0.850688 -1.83193,1.281575 v 12.096419 h -6.00015 v -8.03 c -8.33734,5.404658 -16.1279,9.223133 -24.00009,10.017993 V 102.65117 H 96.99976 V 92.543254 C 89.12793,91.753489 81.33979,87.937841 73.000195,82.536113 v 8.019148 h -6.00015 V 78.461426 C 66.38843,78.031141 65.787066,77.619754 65.168115,77.177267 58.270977,72.246483 51.035056,66.694804 42.999959,61.981812 v 8.129219 h -6.00015 V 58.682272 C 32.149985,56.279128 26.987647,54.281789 21.411613,52.980294 18.640302,52.333446 15.95134,52.073698 13.379545,52.001542 c -0.12956,-0.0036 -0.250351,0.0032 -0.379305,5.17e-4 v 9.976135 H 7.000089 v -9.867098 c -0.311314,0.01375 -0.641195,0.02338 -0.947228,0.03721 C 1.449516,52.356337 0,52.775142 0,52.775142 l 5.17e-4,19.873205 c 0,0 3.104811,-0.346525 6.974768,-0.521415 3.869958,-0.174889 8.770527,0.08035 9.7901,0.318327 11.65815,2.721112 23.497239,11.6073 36.55074,20.93929 13.053507,9.331991 27.858625,19.328021 46.683985,19.328021 18.82532,0 33.63044,-9.99603 46.68397,-19.328021 13.05353,-9.33199 24.89213,-18.218178 36.55022,-20.93929 1.01958,-0.23798 5.92019,-0.493216 9.7901,-0.318327 3.86999,0.17489 6.97529,0.521415 6.97529,0.521415 l 5.2e-4,-19.873205 c 0,0 -1.448,-0.418805 -6.05131,-0.626836 -0.3065,-0.01385 -0.63696,-0.02342 -0.94878,-0.03721 v 9.867098 h -6.00015 v -9.976135 c -0.12878,0.0027 -0.24942,-0.0047 -0.37879,-0.001 z"
       inkscape:label="path3" />
    <path
       id="path3-3"
       style="color:#000000;vector-effect:non-scaling-stroke;fill:none;stroke:#ff0000;stroke-width:0.266086;stroke-linejoin:bevel;stroke-dasharray:none;stroke-opacity:1;-inkscape-stroke:hairline"
       d="m 186.62117,78.001026 c -2.57188,0.0723 -5.26126,0.33242 -8.03259,0.979268 -5.57625,1.301551 -10.73876,3.299226 -15.58871,5.702494 v 11.428246 h -5.99963 v -8.129222 c -8.03509,4.712962 -15.27103,10.264672 -22.16816,15.195448 -0.6197,0.44302 -1.21958,0.85069 -1.83193,1.28158 v 12.09642 H 127 v -8.03 c -8.33734,5.40465 -16.1279,9.22313 -24.00009,10.01799 v 10.10791 h -6.000146 v -10.10791 c -7.871833,-0.78977 -15.659976,-4.60541 -23.999569,-10.00714 v 8.01915 h -6.00015 v -12.09384 c -0.611615,-0.43028 -1.212979,-0.84167 -1.83193,-1.28416 C 58.270977,98.246484 51.035056,92.694804 42.999959,87.981812 v 8.129222 h -6.00015 V 84.682272 C 32.149985,82.279128 26.987647,80.281789 21.411613,78.980294 18.640302,78.333446 15.95134,78.073698 13.379545,78.001542 c -0.12956,-0.0036 -0.250351,0.0032 -0.379305,5.17e-4 v 9.976135 H 7.000089 V 78.111096 C 6.688775,78.124846 6.358894,78.134476 6.05286,78.148306 1.449516,78.356337 0,78.775142 0,78.775142 l 5.17e-4,19.873202 c 0,0 3.104811,-0.34652 6.974768,-0.52141 3.869958,-0.17489 8.770527,0.0804 9.7901,0.31832 11.65815,2.721116 23.497239,11.607296 36.55074,20.939286 13.053507,9.33199 27.858623,19.32802 46.683975,19.32802 18.82532,0 33.63044,-9.99603 46.68397,-19.32802 13.05353,-9.33199 24.89213,-18.21817 36.55022,-20.939286 1.01958,-0.23798 5.92019,-0.49321 9.7901,-0.31832 3.86999,0.17489 6.97529,0.52141 6.97529,0.52141 l 5.2e-4,-19.873202 c 0,0 -1.448,-0.418805 -6.05131,-0.626836 -0.3065,-0.01385 -0.63696,-0.02342 -0.94878,-0.03721 v 9.867098 h -6.00015 v -9.976135 c -0.12878,0.0027 -0.24942,-0.0047 -0.37879,-0.001 z"
       inkscape:label="path3" />
    <path
       id="path3-4-4"
       style="color:#000000;vector-effect:non-scaling-stroke;fill:none;stroke:#ff0000;stroke-width:0.266086;stroke-linejoin:bevel;stroke-dasharray:none;stroke-opacity:1;-inkscape-stroke:hairline"
       d="m 186.62118,103.97931 c -2.57188,0.0723 -5.26126,0.33242 -8.03259,0.97927 -5.57625,1.30155 -10.73876,3.29922 -15.58871,5.70249 v 11.42824 h -5.99963 v -8.12921 c -8.03509,4.71296 -15.27103,10.26467 -22.16816,15.19545 -0.6197,0.44302 -1.21958,0.85069 -1.83193,1.28158 v 12.09641 h -6.00015 v -8.03 c -8.33734,5.40466 -16.1279,9.22314 -24.00009,10.018 v 10.10791 H 96.999763 V 144.52154 C 89.127931,143.73178 81.339788,139.91612 73.000195,134.5144 v 8.01914 h -6.00015 v -12.09383 c -0.611615,-0.43029 -1.212979,-0.84167 -1.83193,-1.28416 -6.897138,-4.93078 -14.133059,-10.48246 -22.168156,-15.19545 v 8.12921 h -6.00015 v -11.42875 c -4.849824,-2.40315 -10.012162,-4.40049 -15.588196,-5.70198 -2.771311,-0.64685 -5.460273,-0.9066 -8.032068,-0.97875 -0.12956,-0.004 -0.250351,0.003 -0.379305,5.1e-4 v 9.97614 H 7.000089 v -9.8671 c -0.311314,0.0138 -0.641195,0.0234 -0.947229,0.0372 C 1.449516,104.33461 0,104.75342 0,104.75342 l 5.17e-4,19.8732 c 0,0 3.104811,-0.34652 6.974768,-0.52141 3.869958,-0.17489 8.770527,0.0803 9.7901,0.31832 11.65815,2.72111 23.497239,11.6073 36.55074,20.9393 13.053507,9.33199 27.858623,19.32802 46.683985,19.32802 18.82532,0 33.63044,-9.99603 46.68397,-19.32802 13.05353,-9.332 24.89213,-18.21819 36.55022,-20.9393 1.01958,-0.23798 5.92019,-0.49321 9.7901,-0.31832 3.86999,0.17489 6.97529,0.52141 6.97529,0.52141 l 5.2e-4,-19.8732 c 0,0 -1.448,-0.41881 -6.05131,-0.62684 -0.3065,-0.0139 -0.63696,-0.0234 -0.94878,-0.0372 v 9.8671 h -6.00015 v -9.97614 c -0.12878,0.003 -0.24942,-0.005 -0.37879,-0.001 z"
       inkscape:label="path3" />
    <path
       id="path3-4-8-0"
       style="color:#000000;vector-effect:non-scaling-stroke;fill:none;stroke:#ff0000;stroke-width:0.266086;stroke-linejoin:bevel;stroke-dasharray:none;stroke-opacity:1;-inkscape-stroke:hairline"
       d="m 186.62118,129.97931 c -2.57188,0.0723 -5.26126,0.33242 -8.03259,0.97927 -5.57625,1.30155 -10.73876,3.29922 -15.58871,5.70249 v 11.42825 h -5.99963 v -8.12922 c -8.03509,4.71296 -15.27103,10.26467 -22.16816,15.19546 -0.6197,0.44302 -1.21958,0.85068 -1.83193,1.28157 v 12.09642 h -6.00015 v -8.03 c -8.33734,5.40466 -16.1279,9.22313 -24.00009,10.01799 v 10.10792 H 96.99976 V 170.52154 C 89.12793,169.73178 81.33979,165.91613 73.000195,160.5144 v 8.01915 h -6.00015 v -12.09384 c -0.611615,-0.43028 -1.212979,-0.84167 -1.83193,-1.28415 -6.897138,-4.93079 -14.133059,-10.48247 -22.168156,-15.19546 v 8.12922 h -6.00015 v -11.42876 c -4.849824,-2.40315 -10.012162,-4.40049 -15.588196,-5.70198 -2.771311,-0.64685 -5.460273,-0.9066 -8.032068,-0.97875 -0.12956,-0.004 -0.250351,0.003 -0.379305,5.1e-4 v 9.97614 H 7.000089 v -9.8671 c -0.311314,0.0138 -0.641195,0.0234 -0.947228,0.0372 C 1.449516,130.33461 0,130.75342 0,130.75342 l 5.17e-4,19.87321 c 0,0 3.104811,-0.34653 6.974768,-0.52142 3.869958,-0.17489 8.770527,0.0803 9.7901,0.31833 11.65815,2.72111 23.497239,11.6073 36.55074,20.93929 13.053507,9.33199 27.858625,19.32802 46.683985,19.32802 18.82532,0 33.63044,-9.99603 46.68397,-19.32802 13.05353,-9.33199 24.89213,-18.21818 36.55022,-20.93929 1.01958,-0.23798 5.92019,-0.49322 9.7901,-0.31833 3.86999,0.17489 6.97529,0.52142 6.97529,0.52142 l 5.2e-4,-19.87321 c 0,0 -1.448,-0.41881 -6.05131,-0.62684 -0.3065,-0.0138 -0.63696,-0.0234 -0.94878,-0.0372 v 9.8671 h -6.00015 v -9.97614 c -0.12878,0.003 -0.24942,-0.005 -0.37879,-0.001 z"
       inkscape:label="path3" />
    <path
       id="path3-4-8-0-0"
       style="color:#000000;vector-effect:non-scaling-stroke;fill:none;stroke:#ff0000;stroke-width:0.266086;stroke-linejoin:bevel;stroke-dasharray:none;stroke-opacity:1;-inkscape-stroke:hairline"
       d="m 186.62118,156.00112 c -2.57188,0.0723 -5.26126,0.33242 -8.03259,0.97927 -5.57625,1.30155 -10.73876,3.29922 -15.58871,5.70249 v 11.42825 h -5.99963 v -8.12922 c -8.03509,4.71296 -15.27103,10.26467 -22.16816,15.19546 -0.6197,0.44302 -1.21958,0.85068 -1.83193,1.28157 v 12.09642 h -6.00015 v -8.03 c -8.33734,5.40466 -16.1279,9.22313 -24.00009,10.01799 v 10.10792 h -6.00016 v -10.10792 c -7.87183,-0.78976 -15.65997,-4.60541 -23.999565,-10.00714 v 8.01915 h -6.00015 v -12.09384 c -0.611615,-0.43028 -1.212979,-0.84167 -1.83193,-1.28415 -6.897138,-4.93079 -14.133059,-10.48247 -22.168156,-15.19546 v 8.12922 h -6.00015 v -11.42876 c -4.849824,-2.40315 -10.012162,-4.40049 -15.588196,-5.70198 -2.771311,-0.64685 -5.460273,-0.9066 -8.032068,-0.97875 -0.12956,-0.004 -0.250351,0.003 -0.379305,5.1e-4 v 9.97614 H 7.000089 v -9.8671 c -0.311314,0.0138 -0.641195,0.0234 -0.947228,0.0372 C 1.449516,156.35642 0,156.77523 0,156.77523 l 5.17e-4,19.87321 c 0,0 3.104811,-0.34653 6.974768,-0.52142 3.869958,-0.17489 8.770527,0.0803 9.7901,0.31833 11.65815,2.72111 23.497239,11.6073 36.55074,20.93929 13.053507,9.33199 27.858625,19.32802 46.683985,19.32802 18.82532,0 33.63044,-9.99603 46.68397,-19.32802 13.05353,-9.33199 24.89213,-18.21818 36.55022,-20.93929 1.01958,-0.23798 5.92019,-0.49322 9.7901,-0.31833 3.86999,0.17489 6.97529,0.52142 6.97529,0.52142 l 5.2e-4,-19.87321 c 0,0 -1.448,-0.41881 -6.05131,-0.62684 -0.3065,-0.0138 -0.63696,-0.0234 -0.94878,-0.0372 v 9.8671 h -6.00015 v -9.97614 c -0.12878,0.003 -0.24942,-0.005 -0.37879,-0.001 z"
       inkscape:label="path3" />
    <path
       id="path3-5"
       style="color:#000000;vector-effect:non-scaling-stroke;fill:none;stroke:#ff0000;stroke-width:0.266086;stroke-linejoin:bevel;stroke-dasharray:none;stroke-opacity:1;-inkscape-stroke:hairline"
       inkscape:label="path3-5"
       d="m 186.62116,200.02263 c -2.57188,0.0723 -5.26126,0.33242 -8.03259,0.97927 -17.68899,4.12877 -31.22969,15.24153 -43.7565,24.19697 -12.52679,8.95545 -23.50356,15.53497 -34.83198,15.53497 -11.328413,0 -22.305176,-6.57952 -34.831975,-15.53497 -12.526797,-8.95544 -26.067507,-20.0682 -43.756502,-24.19697 -2.771329,-0.64685 -5.460261,-0.90659 -8.032068,-0.97875 -2.571805,-0.0722 -5.024998,0.0422 -7.326684,0.14624 C 1.449488,200.37743 0,200.79675 0,200.79675 l 5.168e-4,19.87268 c 0,0 3.1047874,-0.34652 6.9747682,-0.52141 0.0079,-3.6e-4 0.01685,-1.6e-4 0.02481,-5.2e-4 v -10.20971 h 6.00015 v 10.2185 c 1.804073,0.0721 3.261804,0.19257 3.765145,0.31006 6.620551,1.54529 13.308061,5.11322 20.234424,9.58752 v -7.88324 h 6.00015 v 11.90419 c 3.365631,2.34078 6.793938,4.81328 10.316166,7.33133 4.332033,3.09699 8.883168,6.23782 13.68392,9.09144 v -8.48269 h 6.00015 v 11.80703 c 7.272797,3.65195 15.187724,6.31292 23.999574,6.81354 v -10.02471 h 6.000136 v 10.02471 c 8.81196,-0.50062 16.72721,-3.16152 24.00009,-6.81354 V 242.0149 h 6.00015 v 8.48269 c 4.80075,-2.85362 9.35189,-5.99445 13.68392,-9.09144 3.52223,-2.51805 6.95054,-4.99055 10.31617,-7.33133 v -11.90419 h 5.99963 v 7.88324 c 6.92643,-4.47436 13.61381,-8.04222 20.23442,-9.58752 0.5034,-0.1175 1.96133,-0.23799 3.76567,-0.31006 v -10.2185 h 6.00015 v 10.20971 c 0.008,3.5e-4 0.0165,1.7e-4 0.0243,5.2e-4 3.86999,0.17489 6.97529,0.52141 6.97529,0.52141 l 5.2e-4,-19.87268 c 0,0 -1.44794,-0.41932 -6.05131,-0.62736 -2.30168,-0.10401 -4.75585,-0.21906 -7.32772,-0.14676 z" />
    <path
       id="path3-5-4"
       style="color:#000000;vector-effect:non-scaling-stroke;fill:none;stroke:#ff0000;stroke-width:0.266086;stroke-linejoin:bevel;stroke-dasharray:none;stroke-opacity:1;-inkscape-stroke:hairline"
       inkscape:label="path3-5"
       d="m 186.62116,226.02263 c -2.57188,0.0723 -5.26126,0.33242 -8.03259,0.97927 -17.68899,4.12877 -31.22969,15.24153 -43.7565,24.19697 -12.52679,8.95545 -23.50356,15.53497 -34.83198,15.53497 -11.32841,0 -22.30518,-6.57952 -34.831975,-15.53497 -12.526797,-8.95544 -26.067507,-20.0682 -43.756502,-24.19697 -2.771329,-0.64685 -5.460261,-0.90659 -8.032068,-0.97875 -2.571805,-0.0722 -5.024998,0.0422 -7.326684,0.14624 C 1.449488,226.37743 0,226.79675 0,226.79675 l 5.17e-4,19.87268 c 0,0 3.104787,-0.34652 6.974768,-0.52141 0.0079,-3.6e-4 0.01685,-1.6e-4 0.02481,-5.2e-4 v -10.20971 h 6.00015 v 10.2185 c 1.804073,0.0721 3.261804,0.19257 3.765145,0.31006 6.620551,1.54529 13.308061,5.11322 20.234424,9.58752 v -7.88324 h 6.00015 v 11.90419 c 3.365631,2.34078 6.793938,4.81328 10.316166,7.33133 4.332033,3.09699 8.883168,6.23782 13.68392,9.09144 v -8.48269 h 6.00015 v 11.80703 c 7.2728,3.65195 15.18772,6.31292 23.99957,6.81354 v -10.02471 h 6.00014 v 10.02471 c 8.81196,-0.50062 16.72721,-3.16152 24.00009,-6.81354 V 268.0149 h 6.00015 v 8.48269 c 4.80075,-2.85362 9.35189,-5.99445 13.68392,-9.09144 3.52223,-2.51805 6.95054,-4.99055 10.31617,-7.33133 v -11.90419 h 5.99963 v 7.88324 c 6.92643,-4.47436 13.61381,-8.04222 20.23442,-9.58752 0.5034,-0.1175 1.96133,-0.23799 3.76567,-0.31006 v -10.2185 h 6.00015 v 10.20971 c 0.008,3.5e-4 0.0165,1.7e-4 0.0243,5.2e-4 3.86999,0.17489 6.97529,0.52141 6.97529,0.52141 l 5.2e-4,-19.87268 c 0,0 -1.44794,-0.41932 -6.05131,-0.62736 -2.30168,-0.10401 -4.75585,-0.21906 -7.32772,-0.14676 z" />
    <path
       id="path3-5-1"
       style="color:#000000;vector-effect:non-scaling-stroke;fill:none;stroke:#ff0000;stroke-width:0.266086;stroke-linejoin:bevel;stroke-dasharray:none;stroke-opacity:1;-inkscape-stroke:hairline"
       inkscape:label="path3-5"
       d="m 186.62116,252.02263 c -2.57188,0.0723 -5.26126,0.33242 -8.03259,0.97927 -17.68899,4.12877 -31.22969,15.24153 -43.7565,24.19697 -12.52679,8.95545 -23.50356,15.53497 -34.83198,15.53497 -11.328413,0 -22.305176,-6.57952 -34.831975,-15.53497 -12.526797,-8.95544 -26.067507,-20.0682 -43.756502,-24.19697 -2.771329,-0.64685 -5.460261,-0.90659 -8.032068,-0.97875 -2.571805,-0.0722 -5.024998,0.0422 -7.326684,0.14624 C 1.449488,252.37743 0,252.79675 0,252.79675 l 5.17e-4,19.87268 c 0,0 3.104787,-0.34652 6.974768,-0.52141 0.0079,-3.6e-4 0.01685,-1.6e-4 0.02481,-5.2e-4 v -10.20971 h 6.00015 v 10.2185 c 1.804073,0.0721 3.261804,0.19257 3.765145,0.31006 6.620551,1.54529 13.308061,5.11322 20.234424,9.58752 v -7.88324 h 6.00015 v 11.90419 c 3.365631,2.34078 6.793938,4.81328 10.316166,7.33133 4.332033,3.09699 8.883168,6.23782 13.68392,9.09144 v -8.48269 h 6.00015 v 11.80703 c 7.272797,3.65195 15.187724,6.31292 23.999574,6.81354 v -10.02471 h 6.000136 v 10.02471 c 8.81196,-0.50062 16.72721,-3.16152 24.00009,-6.81354 V 294.0149 h 6.00015 v 8.48269 c 4.80075,-2.85362 9.35189,-5.99445 13.68392,-9.09144 3.52223,-2.51805 6.95054,-4.99055 10.31617,-7.33133 v -11.90419 h 5.99963 v 7.88324 c 6.92643,-4.47436 13.61381,-8.04222 20.23442,-9.58752 0.5034,-0.1175 1.96133,-0.23799 3.76567,-0.31006 v -10.2185 h 6.00015 v 10.20971 c 0.008,3.5e-4 0.0165,1.7e-4 0.0243,5.2e-4 3.86999,0.17489 6.97529,0.52141 6.97529,0.52141 l 5.2e-4,-19.87268 c 0,0 -1.44794,-0.41932 -6.05131,-0.62736 -2.30168,-0.10401 -4.75585,-0.21906 -7.32772,-0.14676 z" />
    <path
       id="path3-5-4-8"
       style="color:#000000;vector-effect:non-scaling-stroke;fill:none;stroke:#ff0000;stroke-width:0.266086;stroke-linejoin:bevel;stroke-dasharray:none;stroke-opacity:1;-inkscape-stroke:hairline"
       inkscape:label="path3-5"
       d="m 186.62116,278.02263 c -2.57188,0.0723 -5.26126,0.33242 -8.03259,0.97927 -17.68899,4.12877 -31.22969,15.24153 -43.7565,24.19697 -12.52679,8.95545 -23.50356,15.53497 -34.83198,15.53497 -11.32841,0 -22.30518,-6.57952 -34.831975,-15.53497 -12.526797,-8.95544 -26.067507,-20.0682 -43.756502,-24.19697 -2.771329,-0.64685 -5.460261,-0.90659 -8.032068,-0.97875 -2.571805,-0.0722 -5.024998,0.0422 -7.326684,0.14624 C 1.449488,278.37743 0,278.79675 0,278.79675 l 5.17e-4,19.87268 c 0,0 3.104787,-0.34652 6.974768,-0.52141 0.0079,-3.6e-4 0.01685,-1.6e-4 0.02481,-5.2e-4 v -10.20971 h 6.00015 v 10.2185 c 1.804073,0.0721 3.261804,0.19257 3.765145,0.31006 6.620551,1.54529 13.308061,5.11322 20.234424,9.58752 v -7.88324 h 6.00015 v 11.90419 c 3.365631,2.34078 6.793938,4.81328 10.316166,7.33133 4.332033,3.09699 8.883168,6.23782 13.68392,9.09144 v -8.48269 h 6.00015 v 11.80703 c 7.2728,3.65195 15.18772,6.31292 23.99957,6.81354 v -10.02471 h 6.00014 v 10.02471 c 8.81196,-0.50062 16.72721,-3.16152 24.00009,-6.81354 V 320.0149 h 6.00015 v 8.48269 c 4.80075,-2.85362 9.35189,-5.99445 13.68392,-9.09144 3.52223,-2.51805 6.95054,-4.99055 10.31617,-7.33133 v -11.90419 h 5.99963 v 7.88324 c 6.92643,-4.47436 13.61381,-8.04222 20.23442,-9.58752 0.5034,-0.1175 1.96133,-0.23799 3.76567,-0.31006 v -10.2185 h 6.00015 v 10.20971 c 0.008,3.5e-4 0.0165,1.7e-4 0.0243,5.2e-4 3.86999,0.17489 6.97529,0.52141 6.97529,0.52141 l 5.2e-4,-19.87268 c 0,0 -1.44794,-0.41932 -6.05131,-0.62736 -2.30168,-0.10401 -4.75585,-0.21906 -7.32772,-0.14676 z" />
    <path
       id="path3-5-4-9"
       style="color:#000000;vector-effect:non-scaling-stroke;fill:none;stroke:#ff0000;stroke-width:0.266086;stroke-linejoin:bevel;stroke-dasharray:none;stroke-opacity:1;-inkscape-stroke:hairline"
       inkscape:label="path3-5"
       d="m 186.62116,304.02263 c -2.57188,0.0723 -5.26126,0.33242 -8.03259,0.97927 -17.68899,4.12877 -31.22969,15.24153 -43.7565,24.19697 -12.52679,8.95545 -23.50356,15.53497 -34.83198,15.53497 -11.32841,0 -22.30518,-6.57952 -34.831975,-15.53497 -12.526797,-8.95544 -26.067507,-20.0682 -43.756502,-24.19697 -2.771329,-0.64685 -5.460261,-0.90659 -8.032068,-0.97875 -2.571805,-0.0722 -5.0249976,0.0422 -7.3266836,0.14624 C 1.449488,304.37743 0,304.79675 0,304.79675 l 5.17e-4,19.87268 c 0,0 3.104787,-0.34652 6.9747684,-0.52141 0.0079,-3.6e-4 0.01685,-1.6e-4 0.02481,-5.2e-4 v -10.20971 h 6.0001496 v 10.2185 c 1.804073,0.0721 3.261804,0.19257 3.765145,0.31006 6.620551,1.54529 13.308061,5.11322 20.234424,9.58752 v -7.88324 h 6.00015 v 11.90419 c 3.365631,2.34078 6.793938,4.81328 10.316166,7.33133 4.332033,3.09699 8.883168,6.23782 13.68392,9.09144 v -8.48269 h 6.00015 v 11.80703 c 7.2728,3.65195 15.18772,6.31292 23.999571,6.81354 v -10.02471 h 6.000139 v 10.02471 c 8.81196,-0.50062 16.72721,-3.16152 24.00009,-6.81354 V 346.0149 h 6.00015 v 8.48269 c 4.80075,-2.85362 9.35189,-5.99445 13.68392,-9.09144 3.52223,-2.51805 6.95054,-4.99055 10.31617,-7.33133 v -11.90419 h 5.99963 v 7.88324 c 6.92643,-4.47436 13.61381,-8.04222 20.23442,-9.58752 0.5034,-0.1175 1.96133,-0.23799 3.76567,-0.31006 v -10.2185 h 6.00015 v 10.20971 c 0.008,3.5e-4 0.0165,1.7e-4 0.0243,5.2e-4 3.86999,0.17489 6.97529,0.52141 6.97529,0.52141 l 5.2e-4,-19.87268 c 0,0 -1.44794,-0.41932 -6.05131,-0.62736 -2.30168,-0.10401 -4.75585,-0.21906 -7.32772,-0.14676 z" />
    <path
       id="path3-5-1-3"
       style="color:#000000;vector-effect:non-scaling-stroke;fill:none;stroke:#ff0000;stroke-width:0.266086;stroke-linejoin:bevel;stroke-dasharray:none;stroke-opacity:1;-inkscape-stroke:hairline"
       inkscape:label="path3-5"
       d="m 186.62116,330.02263 c -2.57188,0.0723 -5.26126,0.33242 -8.03259,0.97927 -17.68899,4.12877 -31.22969,15.24153 -43.7565,24.19697 -12.52679,8.95545 -23.50356,15.53497 -34.83198,15.53497 -11.32841,0 -22.305176,-6.57952 -34.831975,-15.53497 -12.526797,-8.95544 -26.067507,-20.0682 -43.756502,-24.19697 -2.771329,-0.64685 -5.460261,-0.90659 -8.032068,-0.97875 -2.571805,-0.0722 -5.0249976,0.0422 -7.3266836,0.14624 C 1.449488,330.37743 0,330.79675 0,330.79675 l 5.17e-4,19.87268 c 0,0 3.104787,-0.34652 6.9747684,-0.52141 0.0079,-3.6e-4 0.01685,-1.6e-4 0.02481,-5.2e-4 v -10.20971 h 6.0001496 v 10.2185 c 1.804073,0.0721 3.261804,0.19257 3.765145,0.31006 6.620551,1.54529 13.308061,5.11322 20.234424,9.58752 v -7.88324 h 6.00015 v 11.90419 c 3.365631,2.34078 6.793938,4.81328 10.316166,7.33133 4.332033,3.09699 8.883168,6.23782 13.68392,9.09144 v -8.48269 h 6.00015 v 11.80703 c 7.272797,3.65195 15.18772,6.31292 23.999571,6.81354 v -10.02471 h 6.000139 v 10.02471 c 8.81196,-0.50062 16.72721,-3.16152 24.00009,-6.81354 V 372.0149 h 6.00015 v 8.48269 c 4.80075,-2.85362 9.35189,-5.99445 13.68392,-9.09144 3.52223,-2.51805 6.95054,-4.99055 10.31617,-7.33133 v -11.90419 h 5.99963 v 7.88324 c 6.92643,-4.47436 13.61381,-8.04222 20.23442,-9.58752 0.5034,-0.1175 1.96133,-0.23799 3.76567,-0.31006 v -10.2185 h 6.00015 v 10.20971 c 0.008,3.5e-4 0.0165,1.7e-4 0.0243,5.2e-4 3.86999,0.17489 6.97529,0.52141 6.97529,0.52141 l 5.2e-4,-19.87268 c 0,0 -1.44794,-0.41932 -6.05131,-0.62736 -2.30168,-0.10401 -4.75585,-0.21906 -7.32772,-0.14676 z" />
    <path
       id="path3-5-4-8-7"
       style="color:#000000;vector-effect:non-scaling-stroke;fill:none;stroke:#ff0000;stroke-width:0.266086;stroke-linejoin:bevel;stroke-dasharray:none;stroke-opacity:1;-inkscape-stroke:hairline"
       inkscape:label="path3-5"
       d="m 186.62116,356.02263 c -2.57188,0.0723 -5.26126,0.33242 -8.03259,0.97927 -17.68899,4.12877 -31.22969,15.24153 -43.7565,24.19697 -12.52679,8.95545 -23.50356,15.53497 -34.83198,15.53497 -11.32841,0 -22.30518,-6.57952 -34.831975,-15.53497 -12.526797,-8.95544 -26.067507,-20.0682 -43.756502,-24.19697 -2.771329,-0.64685 -5.460261,-0.90659 -8.032068,-0.97875 -2.571805,-0.0722 -5.0249976,0.0422 -7.3266836,0.14624 C 1.449488,356.37743 0,356.79675 0,356.79675 l 5.17e-4,19.87268 c 0,0 3.104787,-0.34652 6.9747684,-0.52141 0.0079,-3.6e-4 0.01685,-1.6e-4 0.02481,-5.2e-4 v -10.20971 h 6.0001496 v 10.2185 c 1.804073,0.0721 3.261804,0.19257 3.765145,0.31006 6.620551,1.54529 13.308061,5.11322 20.234424,9.58752 v -7.88324 h 6.00015 v 11.90419 c 3.365631,2.34078 6.793938,4.81328 10.316166,7.33133 4.332033,3.09699 8.883168,6.23782 13.68392,9.09144 v -8.48269 h 6.00015 v 11.80703 c 7.2728,3.65195 15.18772,6.31292 23.999571,6.81354 v -10.02471 h 6.000139 v 10.02471 c 8.81196,-0.50062 16.72721,-3.16152 24.00009,-6.81354 V 398.0149 h 6.00015 v 8.48269 c 4.80075,-2.85362 9.35189,-5.99445 13.68392,-9.09144 3.52223,-2.51805 6.95054,-4.99055 10.31617,-7.33133 v -11.90419 h 5.99963 v 7.88324 c 6.92643,-4.47436 13.61381,-8.04222 20.23442,-9.58752 0.5034,-0.1175 1.96133,-0.23799 3.76567,-0.31006 v -10.2185 h 6.00015 v 10.20971 c 0.008,3.5e-4 0.0165,1.7e-4 0.0243,5.2e-4 3.86999,0.17489 6.97529,0.52141 6.97529,0.52141 l 5.2e-4,-19.87268 c 0,0 -1.44794,-0.41932 -6.05131,-0.62736 -2.30168,-0.10401 -4.75585,-0.21906 -7.32772,-0.14676 z" />
  </g>
</svg>
