<?xml version="1.0" encoding="UTF-8" standalone="no"?>
<!-- Created with Inkscape (http://www.inkscape.org/) -->

<svg
   width="210mm"
   height="297mm"
   viewBox="0 0 210 297"
   version="1.1"
   id="svg1"
   sodipodi:docname="lemon.svg"
   inkscape:version="1.3 (0e150ed, 2023-07-21)"
   xmlns:inkscape="http://www.inkscape.org/namespaces/inkscape"
   xmlns:sodipodi="http://sodipodi.sourceforge.net/DTD/sodipodi-0.dtd"
   xmlns="http://www.w3.org/2000/svg"
   xmlns:svg="http://www.w3.org/2000/svg">
  <sodipodi:namedview
     id="namedview1"
     pagecolor="#ffffff"
     bordercolor="#000000"
     borderopacity="0.25"
     inkscape:showpageshadow="2"
     inkscape:pageopacity="0.0"
     inkscape:pagecheckerboard="0"
     inkscape:deskcolor="#d1d1d1"
     inkscape:document-units="mm"
     inkscape:zoom="2.4946068"
     inkscape:cx="180.18872"
     inkscape:cy="205.04234"
     inkscape:window-width="1792"
     inkscape:window-height="982"
     inkscape:window-x="0"
     inkscape:window-y="25"
     inkscape:window-maximized="1"
     inkscape:current-layer="layer1" />
  <defs
     id="defs1" />
  <g
     inkscape:label="Ebene 1"
     inkscape:groupmode="layer"
     id="layer1">
    <path
       style="fill:none;stroke:#000000;stroke-width:0.264999"
       d="M 48.707545,46.627896 C 47.024626,46.815771 38.388103,31.883518 38.309304,30.100169 c -0.216847,-4.907609 16.126735,-6.382093 16.96555,-1.532373 0.214539,1.240382 -5.021094,17.887486 -6.567309,18.0601 z"
       id="path1"
       sodipodi:nodetypes="ssss" />
    <path
       style="fill:none;stroke:#000000;stroke-width:0.264999"
       d="m 46.686891,48.02209 c -0.915392,1.42463 -17.950712,-1.288226 -19.384508,-2.351603 -3.945672,-2.926315 4.449608,-15.774618 8.742548,-13.367534 1.097979,0.615644 11.482993,14.41023 10.64196,15.719137 z"
       id="path1-7"
       sodipodi:nodetypes="ssss" />
    <path
       style="fill:none;stroke:#000000;stroke-width:0.264999"
       d="M 46.446367,50.235497 C 47.040343,51.82128 33.703474,61.63757 32.108388,62.438969 29.266922,63.866573 23.58259,48.911917 27.32829,48.287188 c 1.241648,-0.207089 18.572348,0.491342 19.118077,1.948309 z"
       id="path1-7-3"
       sodipodi:nodetypes="ssss" />
    <path
       style="fill:none;stroke:#000000;stroke-width:0.264999"
       d="m 48.219899,51.064075 c 1.614033,0.51226 3.411518,16.776086 3.440905,18.560934 0.06447,3.915474 -18.554405,-1.050804 -16.720368,-4.741897 0.560139,-1.127308 11.796538,-14.289684 13.279463,-13.819037 z"
       id="path1-7-3-0"
       sodipodi:nodetypes="ssss" />
    <path
       style="fill:none;stroke:#000000;stroke-width:0.264999"
       d="m 50.234922,50.605337 c 1.329454,-1.048842 16.569716,6.196234 17.918331,7.365752 3.351463,2.906388 -10.674826,15.111062 -13.9498,11.43711 -0.83762,-0.939664 -5.189988,-17.839214 -3.968531,-18.802862 z"
       id="path1-7-3-6"
       sodipodi:nodetypes="ssss" />
    <path
       style="fill:none;stroke:#000000;stroke-width:0.264999"
       d="m 51.591354,48.871847 c -0.128071,-1.688525 15.188184,-7.437101 16.930899,-7.82374 3.661593,-0.812362 4.619763,13.601049 0.952315,14.264195 -1.238712,0.223983 -17.765543,-4.889093 -17.883214,-6.440455 z"
       id="path1-7-3-2"
       sodipodi:nodetypes="ssss" />
    <path
       style="fill:none;stroke:#000000;stroke-width:0.264999"
       d="m 50.701832,46.965837 c -1.272265,-1.117524 5.657163,-15.936999 6.63262,-17.432 2.04952,-3.141125 12.813151,6.492605 10.655105,9.531155 -0.728898,1.026296 -16.118806,8.927587 -17.287725,7.900845 z"
       id="path1-7-3-2-9"
       sodipodi:nodetypes="ssss" />
    <ellipse
       style="fill:none;stroke:#000000;stroke-width:0.274731"
       id="path2"
       cx="48.816998"
       cy="48.488632"
       rx="24.731998"
       ry="24.403633" />
    <circle
       style="fill:none;stroke:#000000;stroke-width:0.268756"
       id="path3"
       cx="48.876816"
       cy="48.435604"
       r="26.419666" />
  </g>
</svg>
