<?xml version="1.0" encoding="UTF-8" standalone="no"?>
<svg
   width="300mm"
   height="450mm"
   viewBox="0 0 300 450"
   version="1.1"
   id="svg6"
   xmlns="http://www.w3.org/2000/svg"
   xmlns:svg="http://www.w3.org/2000/svg">
  <defs
     id="defs6" />
  <path
     style="vector-effect:non-scaling-stroke;fill:none;stroke:#ff0000;stroke-width:0.139215;-inkscape-stroke:hairline"
     d="m 4,0.3 v 11.6 c 0,0.165685 -0.1343146,0.3 -0.3,0.3 H 0.3 C 0.1343146,12.2 0,12.334315 0,12.5 v 11.6 c 0,0.165685 0.1343146,0.3 0.3,0.3 h 3.4 c 0.1656854,0 0.3,0.134315 0.3,0.3 v 11.6 c 0,0.165685 -0.1343146,0.3 -0.3,0.3 H 0.3 C 0.1343146,36.6 0,36.734315 0,36.9 v 11.6 c 0,0.165685 0.1343146,0.3 0.3,0.3 h 3.4 c 0.1656854,0 0.3,0.134315 0.3,0.3 V 60.7 C 4,60.865685 3.8656854,61 3.7,61 H 0.3 C 0.1343146,61 0,61.134315 0,61.3 v 11.6 c 0,0.165685 0.1343146,0.3 0.3,0.3 h 3.4 c 0.1656854,0 0.3,0.134315 0.3,0.3 v 11.6 c 0,0.165685 -0.1343146,0.3 -0.3,0.3 H 0.3 C 0.1343146,85.4 0,85.534315 0,85.7 v 11.6 c 0,0.165685 0.1343146,0.3 0.3,0.3 h 3.4 c 0.1656854,0 0.3,0.134315 0.3,0.3 v 11.6 c 0,0.16569 -0.1343146,0.3 -0.3,0.3 H 0.3 c -0.1656854,0 -0.3,0.13431 -0.3,0.3 v 11.6 c 0,0.16569 0.1343146,0.3 0.3,0.3 h 9.5 c 0.165685,0 0.3,0.13431 0.3,0.3 v 5.4 c 0,0.16569 0.134315,0.3 0.3,0.3 h 109.2 c 0.16569,0 0.3,-0.13431 0.3,-0.3 v -5.4 c 0,-0.16569 0.13431,-0.3 0.3,-0.3 h 5.5 c 0.16569,0 0.3,-0.13431 0.3,-0.3 v -11.6 c 0,-0.16569 0.13431,-0.3 0.3,-0.3 h 3.4 c 0.16569,0 0.3,-0.13431 0.3,-0.3 V 97.9 c 0,-0.165685 -0.13431,-0.3 -0.3,-0.3 h -3.4 c -0.16569,0 -0.3,-0.134315 -0.3,-0.3 V 85.7 c 0,-0.165685 0.13431,-0.3 0.3,-0.3 h 3.4 c 0.16569,0 0.3,-0.134315 0.3,-0.3 V 73.5 c 0,-0.165685 -0.13431,-0.3 -0.3,-0.3 h -3.4 c -0.16569,0 -0.3,-0.134315 -0.3,-0.3 V 61.3 c 0,-0.165685 0.13431,-0.3 0.3,-0.3 h 3.4 c 0.16569,0 0.3,-0.134315 0.3,-0.3 V 49.1 c 0,-0.165685 -0.13431,-0.3 -0.3,-0.3 h -3.4 c -0.16569,0 -0.3,-0.134315 -0.3,-0.3 V 36.9 c 0,-0.165685 0.13431,-0.3 0.3,-0.3 h 3.4 c 0.16569,0 0.3,-0.134315 0.3,-0.3 V 24.7 c 0,-0.165685 -0.13431,-0.3 -0.3,-0.3 h -3.4 c -0.16569,0 -0.3,-0.134315 -0.3,-0.3 V 12.5 c 0,-0.165685 0.13431,-0.3 0.3,-0.3 h 3.4 c 0.16569,0 0.3,-0.134315 0.3,-0.3 V 0.3 C 130,0.13431458 129.86569,0 129.7,0 H 4.3 C 4.1343146,0 4,0.13431458 4,0.3 Z M 11.464,2 h 20.822 c 0.110999,-5.732e-4 0.166776,0.1337986 0.088,0.212 L 27.443,7.143 C 27.313147,7.2734574 27.120636,7.3191643 26.946,7.261 L 11.45,2.095 C 11.399826,2.0768347 11.410719,2.0029192 11.464,2 Z m 26.25,0 h 20.822 c 0.05375,0.00197 0.06553,0.076566 0.015,0.095 L 43.054,7.26 C 42.879661,7.317749 42.687656,7.272071 42.558,7.142 L 37.626,2.211 C 37.548935,2.1327338 37.604162,2.000316 37.714,2 Z m 33.75,0 h 20.822 c 0.110999,-5.732e-4 0.166776,0.1337986 0.088,0.212 L 87.443,7.143 C 87.313147,7.2734574 87.120636,7.3191643 86.946,7.261 L 71.45,2.095 C 71.399826,2.0768347 71.410719,2.0029192 71.464,2 Z m 26.25,0 h 20.822 c 0.0537,0.00197 0.0655,0.076566 0.015,0.095 L 103.054,7.26 c -0.17434,0.057749 -0.36634,0.012071 -0.496,-0.118 L 97.626,2.211 C 97.548935,2.1327338 97.604162,2.000316 97.714,2 Z M 8.988,3.384 26.425,9.196 c 0.179483,0.059689 0.320311,0.2005174 0.38,0.38 l 5.811,17.436 c 0.02943,0.07269 -0.06464,0.131386 -0.117,0.073 L 8.915,3.5 C 8.85661,3.447643 8.915307,3.3535731 8.988,3.383 Z M 61.085,3.501 37.5,27.085 c -0.05236,0.05839 -0.146427,-3.07e-4 -0.117,-0.073 L 43.195,9.576 c 0.05969,-0.1794826 0.200517,-0.3203109 0.38,-0.38 L 61.011,3.384 c 0.07269,-0.029427 0.131386,0.064643 0.073,0.117 z m 7.903,-0.117 17.437,5.812 c 0.179483,0.059689 0.320311,0.2005174 0.38,0.38 l 5.811,17.436 c 0.02943,0.07269 -0.06464,0.131386 -0.117,0.073 L 68.915,3.5 C 68.85661,3.447643 68.915307,3.3535731 68.988,3.383 Z M 121.085,3.501 97.5,27.085 c -0.05236,0.05839 -0.146427,-3.07e-4 -0.117,-0.073 l 5.812,-17.436 c 0.0597,-0.1794826 0.20052,-0.3203109 0.38,-0.38 l 17.436,-5.812 c 0.0727,-0.029427 0.13139,0.064643 0.073,0.117 z M 34,3.714 v 20.822 c -0.0042,0.0511 -0.07411,0.06226 -0.094,0.015 L 28.74,9.054 C 28.68158,8.8795513 28.7269,8.6870684 28.857,8.557 l 4.931,-4.93 C 33.86586,3.548569 33.999678,3.603484 34,3.714 Z m 2.212,-0.088 4.931,4.931 c 0.130457,0.1298526 0.176164,0.322364 0.118,0.497 L 36.095,24.551 C 36.07657,24.60153 36.00197,24.58976 36,24.536 V 3.714 C 35.999427,3.6030009 36.133799,3.5472239 36.212,3.626 Z M 94,3.714 v 20.822 c -0.002,0.05375 -0.07657,0.06553 -0.095,0.015 L 88.74,9.054 C 88.68184,8.879364 88.72754,8.6868526 88.858,8.557 l 4.931,-4.93 c 0.07786,-0.078431 0.211678,-0.023516 0.212,0.087 z m 2.212,-0.088 4.931,4.931 c 0.13046,0.1298526 0.17616,0.322364 0.118,0.497 L 96.095,24.551 C 96.07657,24.60153 96.00197,24.58976 96,24.536 V 3.714 c -5.73e-4,-0.1109991 0.133799,-0.1667761 0.212,-0.088 z m -88.71,1.29 23.583,23.583 c 0.05643,0.05209 -6.9e-5,0.143899 -0.072,0.117 L 13.576,22.804 c -0.179483,-0.05969 -0.320311,-0.200517 -0.38,-0.38 L 7.384,4.989 C 7.3545731,4.916307 7.4486426,4.857614 7.501,4.916 Z m 55.114,0.072 -5.812,17.437 c -0.05969,0.179483 -0.200517,0.320311 -0.38,0.38 l -17.436,5.811 c -0.07193,0.0269 -0.128428,-0.06491 -0.072,-0.117 L 62.499,4.915 c 0.05236,-0.058386 0.146427,3.07e-4 0.117,0.073 z M 67.501,4.915 91.085,28.5 c 0.05643,0.05209 -6.9e-5,0.143899 -0.072,0.117 L 73.576,22.805 c -0.179483,-0.05969 -0.320311,-0.200517 -0.38,-0.38 L 67.384,4.989 C 67.35457,4.916307 67.44864,4.857614 67.501,4.916 Z m 55.115,0.073 -5.812,17.437 c -0.0597,0.179483 -0.20052,0.320311 -0.38,0.38 l -17.436,5.811 c -0.0719,0.0269 -0.12843,-0.06491 -0.072,-0.117 L 122.499,4.915 c 0.0524,-0.058386 0.14643,3.07e-4 0.117,0.073 z M 6.095,7.448 11.261,22.946 c 0.05842,0.174449 0.0131,0.366932 -0.117,0.497 l -4.932,4.93 C 6.1344786,28.451101 6.0012015,28.397036 6,28.287 V 7.464 C 6.00197,7.410245 6.076566,7.398467 6.095,7.449 Z M 64,7.465 v 20.822 c 5.73e-4,0.110999 -0.133799,0.166776 -0.212,0.088 L 58.857,23.444 C 58.726896,23.313932 58.681583,23.121449 58.74,22.947 L 63.905,7.45 C 63.92343,7.399467 63.99803,7.411245 64,7.465 Z m 2.095,-0.015 5.166,15.497 c 0.05842,0.174449 0.0131,0.366932 -0.117,0.497 l -4.932,4.93 C 66.13414,28.45243 66.000322,28.39752 66,28.287 V 7.464 C 66.002,7.410245 66.07657,7.398467 66.095,7.449 Z M 124,7.464 v 20.822 c 5.7e-4,0.110999 -0.1338,0.166776 -0.212,0.088 l -4.931,-4.931 c -0.1301,-0.130068 -0.17542,-0.322551 -0.117,-0.497 L 123.905,7.449 C 123.9234,7.398467 123.998,7.410245 124,7.464 Z M 13.054,24.739 28.551,29.905 c 0.05053,0.01843 0.03876,0.09303 -0.015,0.095 H 7.714 C 7.6034841,29.999678 7.5485686,29.865861 7.627,29.788 l 4.93,-4.931 c 0.129853,-0.130457 0.322364,-0.176164 0.497,-0.118 z m 44.389,0.118 4.931,4.931 c 0.07878,0.0782 0.023,0.212573 -0.088,0.212 H 41.464 c -0.05375,-0.002 -0.06553,-0.07657 -0.015,-0.095 l 15.497,-5.166 c 0.174636,-0.05816 0.367147,-0.01246 0.497,0.118 z m 15.611,-0.118 15.498,5.166 c 0.05096,0.01868 0.03826,0.09405 -0.016,0.095 H 67.714 c -0.110999,5.73e-4 -0.166776,-0.133799 -0.088,-0.212 l 4.931,-4.931 c 0.129853,-0.130457 0.322364,-0.176164 0.497,-0.118 z m 44.389,0.118 4.931,4.931 c 0.0788,0.0782 0.023,0.212573 -0.088,0.212 h -20.822 c -0.0537,-0.002 -0.0655,-0.07657 -0.015,-0.095 l 15.497,-5.166 c 0.17464,-0.05816 0.36715,-0.01246 0.497,0.118 z M 7.714,32 h 20.822 c 0.05375,0.002 0.06553,0.07657 0.015,0.095 L 13.054,37.26 c -0.174153,0.058 -0.366128,0.01272 -0.496,-0.117 L 7.627,32.213 C 7.5468254,32.135223 7.6022999,31.999406 7.714,32 Z m 33.75,0 h 20.822 c 0.110999,-5.73e-4 0.166776,0.133799 0.088,0.212 l -4.931,4.931 c -0.130068,0.130104 -0.322551,0.175417 -0.497,0.117 L 41.449,32.095 C 41.39847,32.07657 41.41025,32.00197 41.464,32 Z m 26.25,0 h 20.822 c 0.05426,9.54e-4 0.06696,0.07632 0.016,0.095 L 73.054,37.26 c -0.174449,0.05842 -0.366932,0.0131 -0.497,-0.117 l -4.93,-4.93 C 67.546825,32.135223 67.6023,31.999406 67.714,32 Z m 33.75,0 h 20.822 c 0.111,-5.73e-4 0.16678,0.133799 0.088,0.212 l -4.931,4.931 c -0.13007,0.130104 -0.32255,0.175417 -0.497,0.117 L 101.449,32.095 C 101.3985,32.07657 101.4103,32.00197 101.464,32 Z M 31.085,33.501 7.501,57.085 C 7.448643,57.14339 7.3545731,57.084693 7.384,57.012 l 5.812,-17.436 c 0.05969,-0.179483 0.200517,-0.320311 0.38,-0.38 l 17.437,-5.812 c 0.07193,-0.0269 0.128428,0.06491 0.072,0.117 z m 7.903,-0.117 17.436,5.812 c 0.179483,0.05969 0.320311,0.200517 0.38,0.38 l 5.812,17.436 c 0.02943,0.07269 -0.06464,0.131386 -0.117,0.073 L 38.916,33.5 c -0.05643,-0.05209 6.9e-5,-0.143899 0.072,-0.117 z m 52.097,0.117 -23.584,23.584 c -0.05236,0.05839 -0.146427,-3.07e-4 -0.117,-0.073 l 5.812,-17.436 c 0.05969,-0.179483 0.200517,-0.320311 0.38,-0.38 l 17.437,-5.812 c 0.07193,-0.0269 0.128428,0.06491 0.072,0.117 z m 7.903,-0.117 17.436,5.812 c 0.17948,0.05969 0.32031,0.200517 0.38,0.38 l 5.812,17.436 c 0.0294,0.07269 -0.0646,0.131386 -0.117,0.073 L 98.916,33.5 c -0.0564,-0.05209 7e-5,-0.143899 0.072,-0.117 z m -92.776,0.242 4.932,4.932 c 0.129718,0.129872 0.175003,0.321847 0.117,0.496 L 6.095,54.551 C 6.0765659,54.601533 6.0019676,54.589755 6,54.536 V 33.714 C 5.9994268,33.603001 6.1337986,33.547224 6.212,33.626 Z M 64,33.714 v 20.822 c -0.002,0.05375 -0.07657,0.06553 -0.095,0.015 L 58.74,39.054 c -0.058,-0.174153 -0.01272,-0.366128 0.117,-0.496 l 4.931,-4.932 c 0.0782,-0.07878 0.212573,-0.023 0.212,0.088 z m 2.212,-0.088 4.932,4.932 c 0.129718,0.129872 0.175003,0.321847 0.117,0.496 L 66.095,54.551 C 66.07657,54.60153 66.00197,54.58975 66,54.536 V 33.714 c -5.73e-4,-0.110999 0.133799,-0.166776 0.212,-0.088 z M 124,33.714 v 20.822 c -0.002,0.05375 -0.0766,0.06553 -0.095,0.015 L 118.74,39.054 c -0.058,-0.174153 -0.0127,-0.366128 0.117,-0.496 l 4.93,-4.932 c 0.0781,-0.08054 0.21451,-0.02419 0.213,0.088 z m -91.384,1.274 -5.812,17.436 c -0.05969,0.179483 -0.200517,0.320311 -0.38,0.38 L 8.988,58.616 C 8.91531,58.64543 8.856614,58.55136 8.915,58.499 L 32.5,34.915 c 0.05236,-0.05839 0.146427,3.07e-4 0.117,0.073 z M 37.501,34.915 61.085,58.5 c 0.05839,0.05236 -3.07e-4,0.146427 -0.073,0.117 L 43.576,52.805 c -0.179483,-0.05969 -0.320311,-0.200517 -0.38,-0.38 L 37.384,34.989 c -0.02943,-0.07269 0.06464,-0.131386 0.117,-0.073 z m 55.115,0.073 -5.812,17.436 c -0.05969,0.179483 -0.200517,0.320311 -0.38,0.38 l -17.436,5.812 c -0.07269,0.02943 -0.131386,-0.06464 -0.073,-0.117 L 92.5,34.915 c 0.05236,-0.05839 0.146427,3.07e-4 0.117,0.073 z m 4.885,-0.073 23.584,23.585 c 0.0584,0.05236 -3.1e-4,0.146427 -0.073,0.117 l -17.436,-5.812 c -0.17948,-0.05969 -0.32031,-0.200517 -0.38,-0.38 L 97.384,34.989 c -0.02943,-0.07269 0.06464,-0.131386 0.117,-0.073 z m -63.5,2.55 v 20.821 c 0.0015,0.112189 -0.134885,0.16854 -0.213,0.088 L 28.857,53.442 C 28.727282,53.312128 28.681997,53.120153 28.74,52.946 l 5.166,-15.497 c 0.01989,-0.04725 0.08981,-0.0361 0.094,0.015 z m 2.094,-0.016 5.166,15.497 c 0.05775,0.174339 0.01207,0.366344 -0.118,0.496 l -4.93,4.932 C 36.134885,58.45454 35.99849,58.398189 36,58.286 V 37.464 c 0.002,-0.05375 0.07657,-0.06553 0.095,-0.015 z M 94,37.464 v 20.822 c 5.73e-4,0.110999 -0.133799,0.166776 -0.212,0.088 l -4.931,-4.932 c -0.130071,-0.129656 -0.17575,-0.321661 -0.118,-0.496 l 5.166,-15.497 c 0.01843,-0.05053 0.09303,-0.03875 0.095,0.015 z m 2.095,-0.015 5.166,15.497 c 0.0577,0.174339 0.0121,0.366344 -0.118,0.496 l -4.93,4.932 C 96.134885,58.45454 95.99849,58.398189 96,58.286 V 37.464 c 0.002,-0.05375 0.07657,-0.06553 0.095,-0.015 z m -68.652,17.408 4.93,4.93 c 0.08018,0.07778 0.0247,0.213594 -0.087,0.213 H 11.464 C 11.41024,59.998 11.39847,59.92343 11.449,59.905 L 26.946,54.74 c 0.174449,-0.05842 0.366932,-0.0131 0.497,0.117 z m 15.611,-0.117 15.497,5.165 c 0.05053,0.01843 0.03875,0.09303 -0.015,0.095 H 37.714 c -0.110999,5.73e-4 -0.166776,-0.133799 -0.088,-0.212 l 4.932,-4.931 c 0.129872,-0.129718 0.321847,-0.175003 0.496,-0.117 z m 44.389,0.117 4.93,4.93 c 0.08017,0.07778 0.0247,0.213594 -0.087,0.213 H 71.464 C 71.41025,59.998 71.39847,59.92343 71.449,59.905 L 86.946,54.74 c 0.174449,-0.05842 0.366932,-0.0131 0.497,0.117 z m 15.611,-0.117 15.497,5.165 c 0.0505,0.01843 0.0387,0.09303 -0.015,0.095 H 97.714 c -0.110999,5.73e-4 -0.166776,-0.133799 -0.088,-0.212 l 4.932,-4.931 c 0.12987,-0.129718 0.32185,-0.175003 0.496,-0.117 z M 11.464,62 h 20.822 c 0.110999,-5.73e-4 0.166776,0.133799 0.088,0.212 l -4.931,4.931 c -0.129853,0.130457 -0.322364,0.176164 -0.497,0.118 L 11.45,62.095 C 11.39947,62.07657 11.41124,62.00197 11.465,62 Z m 26.25,0 h 20.822 c 0.05375,0.002 0.06553,0.07657 0.015,0.095 L 43.054,67.26 c -0.174339,0.05775 -0.366344,0.01207 -0.496,-0.118 l -4.932,-4.931 c -0.07878,-0.0782 -0.023,-0.212573 0.088,-0.212 z m 33.75,0 h 20.822 c 0.110999,-5.73e-4 0.166776,0.133799 0.088,0.212 l -4.931,4.931 c -0.129853,0.130457 -0.322364,0.176164 -0.497,0.118 L 71.45,62.095 C 71.39947,62.07657 71.41124,62.00197 71.465,62 Z m 26.25,0 h 20.822 c 0.0537,0.002 0.0655,0.07657 0.015,0.095 l -15.497,5.166 c -0.17434,0.05775 -0.36634,0.01207 -0.496,-0.118 L 97.626,62.212 C 97.54722,62.1338 97.603,61.999427 97.714,62 Z m -88.726,1.384 17.437,5.812 c 0.179483,0.05969 0.320311,0.200517 0.38,0.38 l 5.811,17.436 c 0.02943,0.07269 -0.06464,0.131386 -0.117,0.073 L 8.915,63.5 C 8.85661,63.44764 8.915307,63.353573 8.988,63.383 Z M 61.085,63.501 37.5,87.085 c -0.05236,0.05839 -0.146427,-3.07e-4 -0.117,-0.073 l 5.812,-17.437 c 0.05996,-0.179101 0.200742,-0.319517 0.38,-0.379 l 17.436,-5.812 c 0.07269,-0.02943 0.131386,0.06464 0.073,0.117 z m 7.903,-0.117 17.437,5.812 c 0.179483,0.05969 0.320311,0.200517 0.38,0.38 l 5.811,17.436 c 0.02943,0.07269 -0.06464,0.131386 -0.117,0.073 L 68.915,63.5 c -0.05839,-0.05236 3.07e-4,-0.146427 0.073,-0.117 z M 121.085,63.501 97.5,87.085 c -0.05236,0.05839 -0.146427,-3.07e-4 -0.117,-0.073 l 5.812,-17.437 c 0.06,-0.179101 0.20074,-0.319517 0.38,-0.379 l 17.436,-5.812 c 0.0727,-0.02943 0.13139,0.06464 0.073,0.117 z M 34,63.714 v 20.822 c -0.0033,0.05154 -0.07381,0.06354 -0.094,0.016 L 28.74,69.054 c -0.05842,-0.174449 -0.0131,-0.366932 0.117,-0.497 l 4.931,-4.93 c 0.07786,-0.07843 0.211678,-0.02352 0.212,0.087 z m 2.212,-0.088 4.931,4.931 c 0.130457,0.129853 0.176164,0.322364 0.118,0.497 L 36.095,84.552 C 36.07632,84.60296 36.00095,84.59026 36,84.536 V 63.714 c -5.73e-4,-0.110999 0.133799,-0.166776 0.212,-0.088 z M 94,63.714 v 20.822 c -9.54e-4,0.05426 -0.07632,0.06696 -0.095,0.016 L 88.74,69.054 c -0.05816,-0.174636 -0.01246,-0.367147 0.118,-0.497 l 4.931,-4.93 c 0.07786,-0.07843 0.211678,-0.02352 0.212,0.087 z m 2.212,-0.088 4.931,4.931 c 0.13046,0.129853 0.17616,0.322364 0.118,0.497 L 96.095,84.552 C 96.07632,84.60296 96.00095,84.59026 96,84.536 V 63.714 c -5.73e-4,-0.110999 0.133799,-0.166776 0.212,-0.088 z m -88.71,1.29 23.583,23.583 c 0.05643,0.05209 -6.9e-5,0.143899 -0.072,0.117 L 13.576,82.804 c -0.179483,-0.05969 -0.320311,-0.200517 -0.38,-0.38 L 7.384,64.989 C 7.354573,64.91631 7.448643,64.857614 7.501,64.916 Z m 55.114,0.072 -5.812,17.437 c -0.05996,0.179101 -0.200742,0.319517 -0.38,0.379 l -17.436,5.812 c -0.07193,0.0269 -0.128428,-0.06491 -0.072,-0.117 L 62.499,64.915 c 0.05236,-0.05839 0.146427,3.07e-4 0.117,0.073 z M 67.501,64.915 91.085,88.5 c 0.05643,0.05209 -6.9e-5,0.143899 -0.072,0.117 L 73.576,82.805 c -0.179483,-0.05969 -0.320311,-0.200517 -0.38,-0.38 L 67.384,64.989 c -0.02943,-0.07269 0.06464,-0.131386 0.117,-0.073 z m 55.115,0.073 -5.812,17.437 c -0.06,0.179101 -0.20074,0.319517 -0.38,0.379 l -17.436,5.812 c -0.0719,0.0269 -0.12843,-0.06491 -0.072,-0.117 l 23.583,-23.584 c 0.0524,-0.05839 0.14643,3.07e-4 0.117,0.073 z m -116.521,2.46 5.166,15.498 c 0.05842,0.174449 0.0131,0.366932 -0.117,0.497 l -4.932,4.93 C 6.1344786,88.451101 6.0012015,88.397036 6,88.287 V 67.464 c 9.54e-4,-0.05426 0.076325,-0.06696 0.095,-0.016 z M 64,67.464 v 20.822 c 5.73e-4,0.110999 -0.133799,0.166776 -0.212,0.088 L 58.857,83.443 C 58.726896,83.312932 58.681583,83.120449 58.74,82.946 l 5.165,-15.498 c 0.01868,-0.05096 0.09405,-0.03826 0.095,0.016 z m 2.095,-0.016 5.166,15.498 c 0.05842,0.174449 0.0131,0.366932 -0.117,0.497 l -4.932,4.93 C 66.13414,88.45143 66.000322,88.39652 66,88.286 V 67.464 c 9.54e-4,-0.05426 0.07632,-0.06696 0.095,-0.016 z M 124,67.464 v 20.822 c 5.7e-4,0.110999 -0.1338,0.166776 -0.212,0.088 l -4.931,-4.931 c -0.1301,-0.130068 -0.17542,-0.322551 -0.117,-0.497 l 5.165,-15.498 c 0.0187,-0.05096 0.094,-0.03826 0.095,0.016 z M 13.054,84.739 28.551,89.905 c 0.05053,0.01843 0.03876,0.09303 -0.015,0.095 H 7.714 C 7.6034841,89.999678 7.5485686,89.865861 7.627,89.788 l 4.93,-4.931 c 0.129853,-0.130457 0.322364,-0.176164 0.497,-0.118 z m 44.389,0.118 4.931,4.931 c 0.07878,0.0782 0.023,0.212573 -0.088,0.212 H 41.464 c -0.05375,-0.002 -0.06553,-0.07657 -0.015,-0.095 l 15.497,-5.166 c 0.174636,-0.05816 0.367147,-0.01246 0.497,0.118 z m 15.611,-0.118 15.498,5.166 c 0.05096,0.01868 0.03826,0.09405 -0.016,0.095 H 67.714 c -0.110999,5.73e-4 -0.166776,-0.133799 -0.088,-0.212 l 4.931,-4.931 c 0.129853,-0.130457 0.322364,-0.176164 0.497,-0.118 z m 44.389,0.118 4.931,4.931 c 0.0788,0.0782 0.023,0.212573 -0.088,0.212 h -20.822 c -0.0537,-0.002 -0.0655,-0.07657 -0.015,-0.095 l 15.497,-5.166 c 0.17464,-0.05816 0.36715,-0.01246 0.497,0.118 z M 7.714,92 h 20.822 c 0.05375,0.002 0.06553,0.07657 0.015,0.095 L 13.054,97.26 c -0.174153,0.058 -0.366128,0.01272 -0.496,-0.117 L 7.627,92.213 C 7.5468254,92.135223 7.6022999,91.999406 7.714,92 Z m 33.75,0 h 20.822 c 0.110999,-5.73e-4 0.166776,0.133799 0.088,0.212 l -4.931,4.931 c -0.130068,0.130104 -0.322551,0.175417 -0.497,0.117 L 41.449,92.095 C 41.39847,92.07657 41.41025,92.00197 41.464,92 Z m 26.25,0 h 20.822 c 0.05426,9.54e-4 0.06696,0.07632 0.016,0.095 L 73.054,97.26 c -0.174449,0.05842 -0.366932,0.0131 -0.497,-0.117 l -4.93,-4.93 C 67.546825,92.135223 67.6023,91.999406 67.714,92 Z m 33.75,0 h 20.822 c 0.111,-5.73e-4 0.16678,0.133799 0.088,0.212 l -4.931,4.931 c -0.13007,0.130104 -0.32255,0.175417 -0.497,0.117 L 101.449,92.095 C 101.3985,92.07657 101.4103,92.00197 101.464,92 Z M 31.085,93.501 7.501,117.085 c -0.052357,0.0584 -0.1464269,-3.1e-4 -0.117,-0.073 l 5.812,-17.436 c 0.05969,-0.179483 0.200517,-0.320311 0.38,-0.38 l 17.437,-5.812 c 0.07193,-0.0269 0.128428,0.06491 0.072,0.117 z m 7.903,-0.117 17.436,5.812 c 0.179483,0.05969 0.320311,0.200517 0.38,0.38 l 5.812,17.436 c 0.02943,0.0727 -0.06464,0.13139 -0.117,0.073 L 38.916,93.5 c -0.05643,-0.05209 6.9e-5,-0.143899 0.072,-0.117 z m 52.097,0.117 -23.584,23.584 c -0.05236,0.0584 -0.146427,-3.1e-4 -0.117,-0.073 l 5.812,-17.436 c 0.05969,-0.179483 0.200517,-0.320311 0.38,-0.38 l 17.437,-5.812 c 0.07193,-0.0269 0.128428,0.06491 0.072,0.117 z m 7.903,-0.117 17.436,5.812 c 0.17948,0.05969 0.32031,0.200517 0.38,0.38 l 5.812,17.436 c 0.0294,0.0727 -0.0646,0.13139 -0.117,0.073 L 98.916,93.5 c -0.0564,-0.05209 7e-5,-0.143899 0.072,-0.117 z m -92.776,0.242 4.932,4.932 c 0.129718,0.129872 0.175003,0.321847 0.117,0.496 L 6.095,114.551 C 6.076566,114.6015 6.001968,114.5897 6,114.536 V 93.714 C 5.9994268,93.603001 6.1337986,93.547224 6.212,93.626 Z M 64,93.714 v 20.822 c -0.002,0.0537 -0.07657,0.0655 -0.095,0.015 L 58.74,99.054 c -0.058,-0.174153 -0.01272,-0.366128 0.117,-0.496 l 4.931,-4.932 c 0.0782,-0.07878 0.212573,-0.023 0.212,0.088 z m 2.212,-0.088 4.932,4.932 c 0.129718,0.129872 0.175003,0.321847 0.117,0.496 l -5.166,15.497 c -0.01843,0.0505 -0.09303,0.0387 -0.095,-0.015 V 93.714 c -5.73e-4,-0.110999 0.133799,-0.166776 0.212,-0.088 z M 124,93.714 v 20.822 c -0.002,0.0537 -0.0766,0.0655 -0.095,0.015 L 118.74,99.054 c -0.058,-0.174153 -0.0127,-0.366128 0.117,-0.496 l 4.93,-4.932 c 0.0781,-0.08054 0.21451,-0.02419 0.213,0.088 z m -91.384,1.274 -5.812,17.436 c -0.05969,0.17948 -0.200517,0.32031 -0.38,0.38 l -17.436,5.812 c -0.07269,0.0294 -0.131386,-0.0646 -0.073,-0.117 L 32.5,94.915 c 0.05236,-0.05839 0.146427,3.07e-4 0.117,0.073 z m 4.885,-0.073 23.584,23.585 c 0.05839,0.0524 -3.07e-4,0.14643 -0.073,0.117 l -17.436,-5.812 c -0.179483,-0.0597 -0.320311,-0.20052 -0.38,-0.38 L 37.384,94.989 c -0.02943,-0.07269 0.06464,-0.131386 0.117,-0.073 z m 55.115,0.073 -5.812,17.436 c -0.05969,0.17948 -0.200517,0.32031 -0.38,0.38 l -17.436,5.812 c -0.07269,0.0294 -0.131386,-0.0646 -0.073,-0.117 L 92.5,94.915 c 0.05236,-0.05839 0.146427,3.07e-4 0.117,0.073 z m 4.885,-0.073 23.584,23.584 c 0.0584,0.0524 -3.1e-4,0.14643 -0.073,0.117 l -17.436,-5.812 c -0.17948,-0.0597 -0.32031,-0.20052 -0.38,-0.38 L 97.384,94.988 c -0.02943,-0.07269 0.06464,-0.131386 0.117,-0.073 z m -63.5,2.55 v 20.821 c 0.0015,0.11219 -0.134885,0.16854 -0.213,0.088 l -4.931,-4.932 c -0.129718,-0.12987 -0.175003,-0.32185 -0.117,-0.496 l 5.166,-15.497 c 0.01989,-0.04725 0.08981,-0.0361 0.094,0.015 z m 2.094,-0.016 5.166,15.497 c 0.05775,0.17434 0.01207,0.36634 -0.118,0.496 l -4.93,4.932 c -0.07812,0.0805 -0.21451,0.0242 -0.213,-0.088 V 97.464 c 0.002,-0.05375 0.07657,-0.06553 0.095,-0.015 z M 94,97.464 v 20.822 c 5.73e-4,0.111 -0.133799,0.16678 -0.212,0.088 l -4.931,-4.932 c -0.130071,-0.12966 -0.17575,-0.32166 -0.118,-0.496 l 5.166,-15.497 c 0.01843,-0.05053 0.09303,-0.03875 0.095,0.015 z m 2.095,-0.015 5.166,15.497 c 0.0577,0.17434 0.0121,0.36634 -0.118,0.496 l -4.93,4.932 c -0.07811,0.0805 -0.21451,0.0242 -0.213,-0.088 V 97.464 c 0.002,-0.05375 0.07657,-0.06553 0.095,-0.015 z m -68.652,17.408 4.93,4.93 c 0.08018,0.0778 0.0247,0.21359 -0.087,0.213 H 11.464 c -0.05376,-0.002 -0.06553,-0.0766 -0.015,-0.095 l 15.497,-5.165 c 0.174449,-0.0584 0.366932,-0.0131 0.497,0.117 z m 15.611,-0.117 15.497,5.165 c 0.05053,0.0184 0.03875,0.093 -0.015,0.095 H 37.714 c -0.110999,5.7e-4 -0.166776,-0.1338 -0.088,-0.212 l 4.932,-4.931 c 0.129872,-0.12972 0.321847,-0.175 0.496,-0.117 z m 44.389,0.117 4.93,4.93 c 0.08017,0.0778 0.0247,0.21359 -0.087,0.213 H 71.464 c -0.05375,-0.002 -0.06553,-0.0766 -0.015,-0.095 l 15.497,-5.165 c 0.174449,-0.0584 0.366932,-0.0131 0.497,0.117 z m 15.611,-0.117 15.497,5.165 c 0.0505,0.0184 0.0387,0.093 -0.015,0.095 H 97.714 c -0.110999,5.7e-4 -0.166776,-0.1338 -0.088,-0.212 l 4.932,-4.931 c 0.12987,-0.12972 0.32185,-0.175 0.496,-0.117 z"
     id="path1" />
  <g
     transform="translate(-145 -145)"
     id="g4"
     style="vector-effect:non-scaling-stroke;-inkscape-stroke:hairline;stroke-width:0.26458333;stroke-dasharray:none">
    <path
       style="vector-effect:non-scaling-stroke;fill:none;stroke:red;stroke-width:0.26458333;stroke-linecap:butt;stroke-linejoin:miter;stroke-dasharray:none;stroke-opacity:1;-inkscape-stroke:hairline;paint-order:normal"
       d="M147 280h136a2 2 45 0 1 2 2v136a2 2 135 0 1-2 2H147a2 2 45 0 1-2-2V282a2 2 135 0 1 2-2z"
       id="path2" />
    <path
       style="vector-effect:non-scaling-stroke;fill:none;stroke:red;stroke-width:0.26458333;stroke-linecap:butt;stroke-linejoin:miter;stroke-dasharray:none;stroke-opacity:1;-inkscape-stroke:hairline;paint-order:normal"
       d="m 160,407.95 h 110 v 6.1 H 160 Z"
       id="path8" />
    <path
       style="vector-effect:non-scaling-stroke;fill:none;stroke:red;stroke-width:0.26458333;stroke-linecap:butt;stroke-linejoin:miter;stroke-dasharray:none;stroke-opacity:1;-inkscape-stroke:hairline;paint-order:normal"
       d="m 160,285.95 h 110 v 6.1 H 160 Z"
       id="path3" />
    <path
       style="vector-effect:non-scaling-stroke;fill:none;stroke:red;stroke-width:0.26458333;stroke-linecap:butt;stroke-linejoin:miter;stroke-dasharray:none;stroke-opacity:1;-inkscape-stroke:hairline;paint-order:normal"
       d="m 295,-279.05 h 110 v 6.1 H 295 Z"
       transform="rotate(90)"
       id="path7" />
    <path
       style="vector-effect:non-scaling-stroke;fill:none;stroke:red;stroke-width:0.26458333;stroke-linecap:butt;stroke-linejoin:miter;stroke-dasharray:none;stroke-opacity:1;-inkscape-stroke:hairline;paint-order:normal"
       d="m 295,-157.05 h 110 v 6.1 H 295 Z"
       transform="rotate(90)"
       id="path4" />
    <circle
       style="vector-effect:non-scaling-stroke;fill:none;stroke:red;stroke-width:0.26458333;stroke-linecap:butt;stroke-linejoin:miter;stroke-dasharray:none;stroke-opacity:1;-inkscape-stroke:hairline;paint-order:normal"
       cx="215"
       cy="350"
       r="20"
       id="circle4" />
  </g>
  <g
     transform="matrix(1.04478 0 0 1.04478 150 -159.627)"
     id="g6"
     style="vector-effect:non-scaling-stroke;-inkscape-stroke:hairline;stroke-width:0.25324311;stroke-dasharray:none">
    <path
       style="vector-effect:non-scaling-stroke;fill:none;stroke:red;stroke-width:0.25324311;stroke-linecap:butt;stroke-linejoin:miter;stroke-dasharray:none;stroke-opacity:1;-inkscape-stroke:hairline;paint-order:normal"
       d="M10.151 291.093H123.85a1.058 1.058 45 0 1 1.058 1.058V405.85a1.058 1.058 135 0 1-1.058 1.058H10.15a1.058 1.058 45 0 1-1.058-1.058V292.15a1.058 1.058 135 0 1 1.058-1.058z"
       id="path5" />
    <circle
       style="vector-effect:non-scaling-stroke;fill:none;stroke:red;stroke-width:0.25324311;stroke-linecap:butt;stroke-linejoin:miter;stroke-dasharray:none;stroke-opacity:1;-inkscape-stroke:hairline;paint-order:normal"
       cx="67"
       cy="349"
       r="32.543"
       id="circle5" />
    <path
       style="vector-effect:non-scaling-stroke;fill:none;stroke:red;stroke-width:0.25324311;stroke-linecap:butt;stroke-linejoin:miter;stroke-dasharray:none;stroke-opacity:1;-inkscape-stroke:hairline;paint-order:normal"
       d="M2 282h130a2 2 45 0 1 2 2v130a2 2 135 0 1-2 2H2a2 2 45 0 1-2-2V284a2 2 135 0 1 2-2z"
       id="path6" />
  </g>
</svg>
