<?xml version="1.0" encoding="UTF-8" standalone="no"?>
<!-- Created with Inkscape (http://www.inkscape.org/) -->

<svg
   width="350mm"
   height="350mm"
   viewBox="0 0 350 350"
   version="1.1"
   id="svg1"
   xmlns="http://www.w3.org/2000/svg"
   xmlns:svg="http://www.w3.org/2000/svg">
  <defs
     id="defs1" />
  <g
     id="layer1"
     style="vector-effect:non-scaling-stroke;-inkscape-stroke:hairline;stroke-width:0.26458333;stroke-dasharray:none">
    <g
       id="g17"
       transform="matrix(1,0,0,1.012987,-310.00001,1e-6)"
       style="stroke-width:0.26288182;stroke-dasharray:none;vector-effect:non-scaling-stroke;-inkscape-stroke:hairline">
      <path
         id="path13-8"
         style="fill:none;fill-opacity:1;stroke:#ff0000;stroke-width:0.26458333;stroke-dasharray:none;stroke-opacity:1;vector-effect:non-scaling-stroke;-inkscape-stroke:hairline"
         transform="matrix(1,0,0,0.9871795,320,9.871795)"
         d="m 300,150 c 0,78.53982 -71.46018,150 -150,150 l -3e-5,-3e-5 C 71.460155,299.99997 0,228.5398 0,150 0,71.460199 71.460155,2.8584064e-5 149.99995,0 H 150 c 78.53982,0 150,71.460184 150,150 z m 10.00001,0 c 0,83.7758 -76.2242,159.99999 -160,159.99999 l -3e-5,-3e-5 C 66.224174,309.99996 -9.9999932,233.77578 -9.9999932,150 c 0,-83.77579 76.2241672,-159.9999706 159.9999532,-160.000001 h 5e-5 c 83.7758,0 160,76.224195 160,160.000001 z" />
      <path
         id="path2"
         style="fill:none;stroke:#ff0000;stroke-width:0.26288182;stroke-dasharray:none;vector-effect:non-scaling-stroke;-inkscape-stroke:hairline"
         d="m 517,157.94872 a 47,46.397438 0 0 1 -47,46.39743 47,46.397438 0 0 1 -47,-46.39743 47,46.397438 0 0 1 47,-46.39744 47,46.397438 0 0 1 47,46.39744 z m -33.49999,0 a 13.5,13.326923 0 0 1 -13.5,13.32692 13.5,13.326923 0 0 1 -13.5,-13.32692 13.5,13.326923 0 0 1 13.5,-13.32692 13.5,13.326923 0 0 1 13.5,13.32692 z m 31.47667,-0.0115 c -0.19394,5.24532 -1.2308,10.2402 -2.98435,14.86006 l -26.86094,-10.109 c 0.65019,-1.61004 0.94821,-3.23525 0.76788,-4.75106 z m -6.55362,22.19904 c -2.51172,4.16415 -5.66995,7.88398 -9.34848,11.03488 l -19.06154,-21.54598 c 1.4406,-1.26112 2.72546,-2.7313 3.72835,-4.28594 z m -15.94739,15.74294 c -4.21824,2.47954 -8.88656,4.32086 -13.87875,5.39936 l -5.9654,-27.75415 c 1.61974,-0.30874 3.28013,-1.02042 4.85494,-2.01045 z m -22.48734,6.46959 c -5.31344,-0.19147 -10.37318,-1.21501 -15.05302,-2.94608 l 10.24028,-26.5166 c 1.63095,0.64187 3.27727,0.93608 4.81274,0.75806 z m -22.48734,-6.46959 c -4.21822,-2.47954 -7.98634,-5.59728 -11.17819,-9.22865 l 21.82582,-18.81717 c 1.2775,1.42216 2.76677,2.69055 4.34158,3.68058 z m -15.94738,-15.74295 c -2.51173,-4.16417 -4.37696,-8.77262 -5.46947,-13.70083 l 28.1146,-5.88892 c 0.31274,1.59897 1.03366,3.23808 2.03655,4.79272 z m -6.5536,-22.19905 c 0.19396,-5.24532 1.23081,-10.24019 2.98435,-14.86003 l 26.86096,10.10899 c -0.6502,1.61006 -0.94824,3.23527 -0.76791,4.75106 z m 6.55363,-22.19902 c 2.51173,-4.16416 5.66998,-7.88398 9.3485,-11.03488 l 19.06153,21.546 c -1.44061,1.26112 -2.72547,2.73128 -3.72836,4.28592 z m 15.94741,-15.74293 c 4.21822,-2.47954 8.88655,-4.32085 13.87875,-5.39937 l 5.96538,27.75418 c -1.61973,0.30873 -3.28012,1.02041 -4.85496,2.01044 z m 22.48734,-6.46958 c 5.31344,0.19147 10.37317,1.21503 15.05302,2.94611 l -10.24029,26.51657 c -1.63096,-0.64186 -3.27728,-0.93608 -4.81277,-0.75806 z m 22.48732,6.46961 c 4.21822,2.47954 7.98637,5.59729 11.17819,9.22865 l -21.82582,18.81715 c -1.27749,-1.42214 -2.76677,-2.69054 -4.3416,-3.68058 z m 15.94739,15.74297 c 2.51172,4.16415 4.37696,8.77262 5.46947,13.70083 l -28.11462,5.88888 c -0.31274,-1.59897 -1.03365,-3.23808 -2.03654,-4.79272 z" />
    </g>
  </g>
</svg>
