<?xml version="1.0" encoding="UTF-8" standalone="no"?>
<svg
   version="1.1"
   width="1500"
   height="800"
   id="svg36"
   sodipodi:docname="ashanoa.svg"
   inkscape:version="1.3 (0e150ed, 2023-07-21)"
   xmlns:inkscape="http://www.inkscape.org/namespaces/inkscape"
   xmlns:sodipodi="http://sodipodi.sourceforge.net/DTD/sodipodi-0.dtd"
   xmlns="http://www.w3.org/2000/svg"
   xmlns:svg="http://www.w3.org/2000/svg">
  <defs
     id="defs36" />
  <sodipodi:namedview
     id="namedview36"
     pagecolor="#ffffff"
     bordercolor="#000000"
     borderopacity="0.25"
     inkscape:showpageshadow="2"
     inkscape:pageopacity="0.0"
     inkscape:pagecheckerboard="0"
     inkscape:deskcolor="#d1d1d1"
     inkscape:zoom="2.79"
     inkscape:cx="57.526882"
     inkscape:cy="90.322581"
     inkscape:window-width="1640"
     inkscape:window-height="843"
     inkscape:window-x="0"
     inkscape:window-y="25"
     inkscape:window-maximized="0"
     inkscape:current-layer="svg36" />
  <path
     id="polyline7"
     style="color:#000000;fill:#0000ff;stroke-linecap:round;stroke-linejoin:round;-inkscape-stroke:none"
     d="M 75 40.300781 A 3.0003 3.0003 0 0 0 74.533203 40.382812 A 3 3 0 0 0 74.222656 40.404297 A 3 3 0 0 0 74.115234 40.457031 A 3.0003 3.0003 0 0 0 73.916016 40.517578 A 3 3 0 0 0 73.613281 40.6875 A 3 3 0 0 0 73.5 40.703125 A 3 3 0 0 0 73.482422 40.765625 A 3.0003 3.0003 0 0 0 73.433594 40.792969 A 3 3 0 0 0 73.134766 40.964844 A 3.0003 3.0003 0 0 0 72.980469 41.111328 A 3 3 0 0 0 72.705078 41.439453 A 3.0003 3.0003 0 0 0 72.402344 41.800781 L 47.402344 85.103516 A 3 3 0 0 0 47.28125 85.460938 A 3.0004822 3.0004822 0 0 0 47.087891 86.027344 A 3 3 0 0 0 47.029297 86.255859 A 3.0003 3.0003 0 0 0 47.035156 86.453125 A 3 3 0 0 0 47 86.603516 A 3 3 0 0 0 47.042969 86.708984 A 3.0004822 3.0004822 0 0 0 47.089844 87.189453 A 3 3 0 0 0 47.140625 87.453125 A 3.0003 3.0003 0 0 0 47.291016 87.777344 A 3.0004822 3.0004822 0 0 0 47.402344 88.103516 L 72.402344 131.4043 A 3.0003 3.0003 0 0 0 72.613281 131.63867 A 3.0003 3.0003 0 0 0 73.027344 132.09766 A 3.0003 3.0003 0 0 0 73.521484 132.45703 A 3.0003 3.0003 0 0 0 74.091797 132.71094 A 3.0003 3.0003 0 0 0 74.6875 132.83789 A 3.0003 3.0003 0 0 0 75 132.9043 L 125 132.9043 A 3 3 0 0 0 125.14844 132.8418 A 3 3 0 0 0 125.20898 132.83789 A 3.0003 3.0003 0 0 0 125.69531 132.80664 A 3 3 0 0 0 126.33984 132.52344 A 3 3 0 0 0 126.5 132.50195 A 3 3 0 0 0 126.625 132.39258 A 3.0003 3.0003 0 0 0 126.78906 132.30078 A 3 3 0 0 0 127.08203 131.99219 A 3 3 0 0 0 127.16406 131.91992 A 3 3 0 0 0 127.21289 131.8418 A 3 3 0 0 0 127.59766 131.4043 L 152.59766 88.103516 A 3 3 0 0 0 152.62891 88.039062 A 3 3 0 0 0 152.7168 87.857422 A 3 3 0 0 0 152.81055 87.640625 A 3 3 0 0 0 152.83984 87.560547 A 3.0003 3.0003 0 0 0 152.86914 87.457031 A 3 3 0 0 0 152.92969 87.230469 A 3 3 0 0 0 152.95898 87.050781 A 3 3 0 0 0 152.98242 86.917969 A 3.0003 3.0003 0 0 0 152.98242 86.912109 A 3 3 0 0 0 152.98828 86.814453 A 3 3 0 0 0 152.99414 86.619141 A 3 3 0 0 0 153 86.603516 A 3 3 0 0 0 152.99414 86.572266 A 3 3 0 0 0 152.98828 86.392578 A 3 3 0 0 0 152.98242 86.294922 A 3 3 0 0 0 152.98242 86.291016 A 3.0003 3.0003 0 0 0 152.97852 86.275391 A 3 3 0 0 0 152.96094 86.169922 A 3 3 0 0 0 152.92383 85.957031 A 3 3 0 0 0 152.875 85.775391 A 3 3 0 0 0 152.85156 85.675781 A 3.0003 3.0003 0 0 0 152.84961 85.669922 A 3 3 0 0 0 152.80273 85.542969 A 3 3 0 0 0 152.73633 85.386719 A 3 3 0 0 0 152.62305 85.15625 A 3 3 0 0 0 152.59766 85.103516 L 127.59766 41.800781 A 3.0003 3.0003 0 0 0 127.56445 41.755859 A 3 3 0 0 0 127.23828 41.306641 A 3.0003 3.0003 0 0 0 127.18945 41.257812 A 3 3 0 0 0 126.93555 41.011719 A 3.0003 3.0003 0 0 0 126.9082 40.990234 A 3 3 0 0 0 126.8457 40.945312 A 3 3 0 0 0 126.80273 40.910156 A 3.0003 3.0003 0 0 0 126.71289 40.845703 A 3 3 0 0 0 126.23047 40.566406 A 3.0003 3.0003 0 0 0 126.17383 40.544922 A 3 3 0 0 0 126.0625 40.503906 A 3.0003 3.0003 0 0 0 125.99023 40.476562 A 3 3 0 0 0 125.78516 40.408203 A 3 3 0 0 0 125.75586 40.402344 A 3 3 0 0 0 125.69141 40.388672 A 3.0003 3.0003 0 0 0 125.56055 40.361328 A 3 3 0 0 0 125 40.300781 L 75 40.300781 z M 86.195312 46.300781 L 113.80469 46.300781 L 100 54.271484 L 86.195312 46.300781 z M 83.195312 51.496094 L 97 59.466797 L 97 75.408203 L 83.195312 51.496094 z M 116.80469 51.496094 L 109.90234 63.453125 L 103 75.408203 L 103 59.466797 L 116.80469 51.496094 z M 72 54.496094 L 72 70.435547 L 72 70.4375 L 58.195312 78.40625 L 72 54.496094 z M 78 54.496094 L 80.630859 59.052734 L 91.802734 78.40625 L 78 70.435547 L 78 54.496094 z M 128 54.496094 L 141.80273 78.40625 L 128 70.435547 L 128 54.496094 z M 122 54.498047 L 122 70.435547 L 122 70.4375 L 108.19531 78.40625 L 115.09766 66.453125 L 122 54.498047 z M 75 75.632812 L 88.804688 83.603516 L 61.195312 83.603516 L 75 75.632812 z M 125 75.632812 L 138.80469 83.603516 L 111.19531 83.603516 L 125 75.632812 z M 61.199219 89.603516 L 88.800781 89.603516 L 75 97.572266 L 61.199219 89.603516 z M 111.19922 89.603516 L 138.80078 89.603516 L 125 97.572266 L 111.19922 89.603516 z M 58.193359 94.796875 L 72 102.76758 L 72 118.70898 L 58.193359 94.796875 z M 91.804688 94.796875 L 78 118.70898 L 78 102.76758 L 91.804688 94.796875 z M 108.19336 94.796875 L 122 102.76758 L 122 118.70898 L 108.19336 94.796875 z M 141.80664 94.796875 L 128 118.70898 L 128 102.76758 L 141.80664 94.796875 z M 97 97.798828 L 97 113.73633 L 97 113.73828 L 83.195312 121.70898 L 97 97.798828 z M 103 97.798828 L 116.80273 121.70703 L 103 113.73633 L 103 97.798828 z M 100 118.93359 L 113.80469 126.9043 L 86.195312 126.9043 L 100 118.93359 z " />
</svg>
