<svg width="855.877" height="712.95" viewBox="0 0 226.451 188.635" xmlns="http://www.w3.org/2000/svg">
    <path style="vector-effect:non-scaling-stroke;fill:none;stroke:#333;stroke-width:.264583;stroke-linecap:round;stroke-dasharray:none;-inkscape-stroke:hairline" d="M14 30.007v78.572c0 15.15 8.24 32.756 32.429 32.756H162c18.006 0-19.67-8.028-53.7-47.525C82.134 63.44 69 37.603 40.399 20.478 16.369 6.09 14 15.923 14 30.007ZM0 188.635h218c11.153 0 12.127-47-2.281-47-29.408 0-45.018-7.799-71.43-30.37-19.917-17.02-29.703-28.19-54.133-59.838C47.353-4.023 18.312-2.589 0 2.037Zm13.75-39.25h200.5l-.25 27.5H13.75z"/>
</svg>
