<?xml version="1.0" encoding="UTF-8" standalone="no"?>
<svg
   version="1.0"
   width="300.000000pt"
   height="70.000000pt"
   viewBox="0 0 300.000000 70.000000"
   preserveAspectRatio="xMidYMid meet"
   id="svg22"
   sodipodi:docname="flower_of_life_kindof.svg"
   inkscape:version="1.3.2 (091e20e, 2023-11-25)"
   xmlns:inkscape="http://www.inkscape.org/namespaces/inkscape"
   xmlns:sodipodi="http://sodipodi.sourceforge.net/DTD/sodipodi-0.dtd"
   xmlns="http://www.w3.org/2000/svg"
   xmlns:svg="http://www.w3.org/2000/svg">
  <defs
     id="defs22" />
  <sodipodi:namedview
     id="namedview22"
     pagecolor="#ffffff"
     bordercolor="#000000"
     borderopacity="0.25"
     inkscape:showpageshadow="2"
     inkscape:pageopacity="0.0"
     inkscape:pagecheckerboard="0"
     inkscape:deskcolor="#d1d1d1"
     inkscape:document-units="pt"
     inkscape:zoom="2.0725"
     inkscape:cx="200"
     inkscape:cy="46.803378"
     inkscape:window-width="1488"
     inkscape:window-height="657"
     inkscape:window-x="239"
     inkscape:window-y="148"
     inkscape:window-maximized="0"
     inkscape:current-layer="g22" />
  <g
     transform="translate(0.000000,70.000000) scale(0.100000,-0.100000)"
     fill="#000000"
     stroke="none"
     id="g22">
    <path
       d="M297 690 c-99 -25 -191 -103 -235 -198 -22 -47 -27 -71 -27 -142 0 -76 3 -92 33 -152 78 -160 248 -231 423 -178 63 19 81 30 134 83 76 77 105 144 105 247 0 187 -140 334 -328 345 -37 2 -84 0 -105 -5z m57 -62 c21 -29 20 -57 -1 -80 -21 -24 -55 -23 -79 3 -21 24 -10 52 23 57 25 4 45 -19 33 -37 -9 -16 -40 -8 -40 10 0 8 5 7 17 -2 14 -12 16 -12 12 0 -8 22 -28 25 -36 5 -7 -20 22 -45 43 -37 24 9 36 41 24 63 -24 45 -93 33 -105 -18 -8 -40 8 -75 61 -132 26 -28 45 -53 42 -55 -3 -3 -31 22 -62 55 -51 55 -56 65 -56 106 0 55 25 84 74 84 25 0 39 -7 50 -22z m155 -4 c23 -30 26 -68 8 -100 -22 -38 -101 -123 -109 -118 -5 3 16 32 47 65 47 52 55 66 55 99 0 32 -5 43 -26 57 -24 15 -29 15 -53 2 -33 -19 -41 -63 -12 -78 27 -15 53 -3 49 22 -3 22 -28 37 -28 17 0 -6 5 -8 10 -5 6 3 10 -1 10 -10 0 -10 -7 -15 -17 -13 -10 2 -18 12 -18 23 0 16 7 20 30 20 24 0 31 -5 33 -23 8 -53 -63 -74 -94 -27 -45 69 64 134 115 69z m-314 -134 c30 -11 125 -98 125 -113 0 -6 -19 7 -42 29 -80 77 -130 93 -170 57 -34 -31 -13 -93 31 -93 43 0 55 62 13 68 -24 4 -31 -21 -10 -34 8 -5 9 -2 5 10 -5 11 -3 16 5 14 19 -7 21 -27 3 -34 -26 -10 -49 19 -36 45 14 25 43 27 65 5 44 -44 -18 -114 -75 -84 -29 16 -42 58 -29 91 18 42 64 58 115 39z m459 -11 c37 -29 33 -83 -7 -113 -26 -19 -30 -19 -55 -5 -54 30 -34 109 24 95 20 -5 25 -12 22 -34 -4 -34 -48 -46 -48 -13 0 13 6 21 18 21 15 0 15 -2 2 -11 -10 -7 -11 -9 -2 -7 22 6 19 23 -4 26 -26 4 -38 -22 -24 -49 21 -38 90 -9 90 38 0 25 -39 53 -75 53 -29 0 -46 -10 -96 -56 -63 -57 -95 -68 -43 -13 44 46 114 89 144 89 15 0 39 -10 54 -21z m-470 -161 c22 -32 20 -55 -8 -73 -25 -17 -51 -12 -60 11 -12 31 18 60 44 44 15 -9 7 -40 -11 -40 -6 0 -8 7 -4 18 5 14 4 15 -6 5 -17 -17 3 -38 25 -30 23 9 20 54 -5 67 -16 9 -26 8 -45 -5 -42 -27 -26 -89 25 -100 37 -8 62 5 124 62 51 47 78 52 36 7 -79 -86 -167 -110 -208 -58 -12 15 -21 34 -21 44 0 10 9 29 21 44 26 33 71 35 93 4z m476 2 c11 -11 20 -33 20 -50 0 -44 -31 -70 -84 -70 -39 0 -51 6 -103 52 -32 29 -60 54 -62 55 -2 2 -1 6 2 9 3 4 31 -16 62 -44 76 -70 135 -78 165 -22 12 23 -2 65 -26 74 -20 8 -64 -18 -64 -38 0 -20 27 -39 46 -32 17 7 15 27 -4 34 -8 2 -10 -3 -6 -15 6 -14 4 -16 -6 -6 -15 14 -5 46 12 41 22 -8 34 -37 22 -55 -24 -38 -74 -16 -74 32 0 51 62 73 100 35z m-310 -37 c0 -3 -22 -30 -50 -58 -27 -29 -52 -65 -56 -81 -17 -67 65 -115 101 -60 13 19 14 29 5 45 -13 25 -58 28 -67 5 -8 -22 13 -42 30 -25 10 10 9 11 -5 6 -19 -8 -25 9 -8 20 15 9 40 -14 34 -30 -12 -29 -57 -28 -68 2 -8 21 20 63 42 63 59 0 83 -72 36 -109 -34 -26 -54 -26 -88 0 -34 27 -36 92 -4 135 50 67 98 110 98 87z m119 -48 c54 -60 69 -102 52 -148 -20 -52 -97 -58 -128 -11 -30 46 15 105 67 89 28 -9 37 -52 16 -73 -20 -20 -51 -6 -51 24 0 21 26 26 33 6 2 -8 -2 -10 -14 -5 -12 4 -15 3 -10 -5 4 -7 14 -12 22 -12 22 0 14 44 -9 48 -40 8 -62 -42 -31 -72 36 -36 94 -6 94 48 0 36 -16 64 -74 124 -22 23 -35 42 -29 42 6 0 34 -25 62 -55z"
       id="path1"
       style="fill:none;stroke:#ff0000;stroke-opacity:1" />
  </g>
</svg>
