<?xml version="1.0" encoding="UTF-8" standalone="no"?>
<svg
   version="1.1"
   width="565.99988pt"
   height="565.99988pt"
   id="svg1"
   viewBox="0 0 565.99988 565.99988"
   sodipodi:docname="flower_of_life.svg"
   inkscape:version="1.3.2 (091e20e, 2023-11-25)"
   xmlns:inkscape="http://www.inkscape.org/namespaces/inkscape"
   xmlns:sodipodi="http://sodipodi.sourceforge.net/DTD/sodipodi-0.dtd"
   xmlns="http://www.w3.org/2000/svg"
   xmlns:svg="http://www.w3.org/2000/svg">
  <defs
     id="defs1" />
  <sodipodi:namedview
     id="namedview1"
     pagecolor="#ffffff"
     bordercolor="#000000"
     borderopacity="0.25"
     inkscape:showpageshadow="2"
     inkscape:pageopacity="0.0"
     inkscape:pagecheckerboard="0"
     inkscape:deskcolor="#d1d1d1"
     showgrid="false"
     inkscape:zoom="0.31272092"
     inkscape:cx="375.73438"
     inkscape:cy="377.33325"
     inkscape:window-width="1488"
     inkscape:window-height="685"
     inkscape:window-x="239"
     inkscape:window-y="148"
     inkscape:window-maximized="0"
     inkscape:current-layer="svg1"
     inkscape:document-units="pt" />
  <path
     d="m 554.2869,300.4739 c -0.3529,5.3781 -0.8589,10.7149 -1.5219,16.0049 -0.385,3.0742 -0.83,6.1291 -1.3181,9.1701 -0.1939,1.2141 -0.3929,2.4259 -0.603,3.634 -0.468,2.6799 -0.9618,5.3501 -1.5069,8.0031 -0.818,3.9778 -1.7489,7.9129 -2.7399,11.825 -0.7132,2.8171 -1.467,5.616 -2.268,8.3971 -3.7851,13.1419 -8.519,25.8868 -14.156,38.1359 1.8729,-7.388 2.8718,-15.1212 2.8718,-23.084 0,-10.944 -1.8808,-21.456 -5.3348,-31.2321 -0.949,-2.687 -2.0231,-5.315 -3.204,-7.8848 -0.2611,-0.5673 -0.521,-1.135 -0.7931,-1.6963 -0.0479,-0.0998 -0.099,-0.1979 -0.148,-0.2979 -0.6409,-1.3139 -1.311,-2.611 -2.0109,-3.8889 0.6928,-1.2651 1.355,-2.5492 1.9908,-3.848 0.0482,-0.0989 0.0992,-0.197 0.1471,-0.2959 0.2741,-0.5661 0.5369,-1.1381 0.7999,-1.7102 1.169,-2.5429 2.2352,-5.1429 3.1771,-7.8001 3.4801,-9.809 5.3759,-20.3598 5.3759,-31.3458 0,-10.9681 -1.889,-21.503 -5.3569,-31.297 -0.9431,-2.66 -2.0069,-5.262 -3.1759,-7.8072 -0.2631,-0.5709 -0.525,-1.1429 -0.7991,-1.709 -0.0479,-0.0998 -0.099,-0.1979 -0.148,-0.2979 -0.6409,-1.3139 -1.311,-2.611 -2.0109,-3.8889 0.6928,-1.2651 1.355,-2.5492 1.9908,-3.848 0.0482,-0.0989 0.0992,-0.197 0.1471,-0.2959 0.2781,-0.5741 0.5451,-1.1543 0.811,-1.7343 1.1611,-2.5259 2.2181,-5.108 3.1561,-7.7468 3.486,-9.8172 5.3858,-20.378 5.3858,-31.375 0,-7.9631 -0.9989,-15.696 -2.8718,-23.085 5.6469,12.27 10.387,25.037 14.175,38.2019 0.801,2.7819 1.5539,5.582 2.2668,8.3991 0.9871,3.903 1.9151,7.829 2.7301,11.7961 0.5451,2.6529 1.0389,5.3237 1.5049,8.0039 0.2112,1.2098 0.4102,2.4239 0.6052,3.6388 0.4858,3.0421 0.9309,6.0962 1.3158,9.1701 0.6611,5.29 1.1671,10.6279 1.5191,16.0069 0.2109,3.2072 0.368,6.4282 0.4649,9.6642 0.0822,2.7249 0.1261,5.459 0.1261,8.204 0,2.759 -0.0439,5.508 -0.127,8.248 -0.098,3.2369 -0.2559,6.4579 -0.4671,9.6659 z m 12.5932,-17.6429 v -0.5369 -0.0379 c -0.004,-0.709 -0.0218,-1.4154 -0.0281,-2.1232 -0.0249,-2.9302 -0.0949,-5.851 -0.2089,-8.765 -0.2072,-5.271 -0.54,-10.5199 -1.029,-15.736 -0.3152,-3.365 -0.693,-6.7161 -1.1262,-10.055 -0.64,-4.9451 -1.4119,-9.8569 -2.3068,-14.7371 -0.5051,-2.755 -1.0491,-5.498 -1.635,-8.2301 -1.0032,-4.682 -2.1271,-9.3288 -3.363,-13.9399 -0.7141,-2.6629 -1.467,-5.313 -2.2581,-7.9509 -4.9079,-16.359 -11.289,-32.2141 -19.0851,-47.3981 -1.3,-2.5311 -2.645,-5.04 -4.0218,-7.5339 -0.2532,-0.4581 -0.4981,-0.9202 -0.754,-1.376 -0.1772,-0.3172 -0.36,-0.6301 -0.5381,-0.9462 -0.9949,-1.7648 -2.01,-3.5189 -3.0429,-5.2628 -0.2912,-0.4901 -0.5752,-0.9842 -0.868,-1.472 -0.165,-0.2741 -0.3382,-0.5431 -0.504,-0.8161 -1.6002,-2.632 -3.2471,-5.239 -4.934,-7.825 -9.1281,-13.9859 -19.5542,-27.2501 -31.214,-39.6429 -1.8802,-1.9989 -3.7862,-3.9781 -5.7311,-5.93 -0.125,-0.125 -0.244,-0.254 -0.369,-0.379 -2.937,-2.937 -5.9369,-5.7889 -8.9791,-8.5822 -2.0579,-1.8879 -4.1329,-3.7528 -6.237,-5.5749 -4.322,-3.7409 -8.7469,-7.3259 -13.2529,-10.779 -2.7249,-2.088 -5.4771,-4.1309 -8.2661,-6.1121 -4.0498,-2.878 -8.1748,-5.6279 -12.3539,-8.2757 -2.471,-1.5662 -4.9649,-3.0881 -7.4781,-4.5732 -1.4,-0.8268 -2.806,-1.6421 -4.2188,-2.444 -2.535,-1.438 -5.089,-2.8369 -7.6652,-4.195 -4.4169,-2.3289 -8.886,-4.5519 -13.4158,-6.639 -3.0971,-1.4281 -6.2141,-2.8089 -9.36,-4.1219 -5.0162,-2.0931 -10.095,-4.032 -15.2271,-5.83 -2.643,-0.9261 -5.3019,-1.8082 -7.9739,-2.6552 -4.3611,-1.3819 -8.759,-2.6578 -13.191,-3.8279 -2.6592,-0.703 -5.3311,-1.364 -8.013,-1.9891 -16.3482,-3.8089 -33.1251,-6.1849 -50.1851,-7.0449 -2.9659,-0.15 -5.944,-0.235 -8.9269,-0.2909 -0.4391,-0.0082 -0.877,-0.0221 -1.317,-0.0291 -0.4271,-0.006 -0.854,-0.0088 -1.2812,-0.0159 -0.9777,-0.0153 -1.9559,-0.0352 -2.9364,-0.0372 h -0.0482 -0.0482 -0.0482 -0.0479 -0.0479 c -0.9913,0.0017 -1.9797,0.0258 -2.9701,0.0372 -0.868,0.0099 -1.7371,0.0139 -2.6031,0.032 -0.343,0.0068 -0.6868,0.004 -1.0298,0.013 -3.39,0.078 -6.768,0.2311 -10.137,0.4269 -16.3032,0.9491 -32.3442,3.2729 -47.9911,6.9171 -2.683,0.6248 -5.353,1.2918 -8.013,1.9939 -4.4189,1.1671 -8.8061,2.437 -13.1539,3.8149 -2.6722,0.847 -5.3311,1.7291 -7.9741,2.6552 -5.597,1.961 -11.126,4.1 -16.5841,6.412 -3.1028,1.3138 -6.183,2.6799 -9.237,4.1048 -4.1088,1.9182 -8.1729,3.9391 -12.189,6.0582 -2.5719,1.357 -5.1168,2.7689 -7.6479,4.2069 -1.398,0.794 -2.796,1.588 -4.1819,2.4061 -2.5172,1.4879 -5.006,3.0299 -7.4812,4.5989 -5.0559,3.2051 -10.0298,6.5619 -14.8969,10.1001 -2.7329,1.9868 -5.444,4.0099 -8.1139,6.0999 -4.394,3.4401 -8.691,7.035 -12.9056,10.753 -2.0647,1.8209 -4.1071,3.6751 -6.1268,5.5621 -2.3921,2.2348 -4.7636,4.4989 -7.09,6.825 -0.1165,0.117 -0.2282,0.2378 -0.3447,0.3549 -1.9448,1.9511 -3.8545,3.9291 -5.7356,5.9269 -12.3336,13.1021 -23.2895,27.1772 -32.7855,42.0531 -1.1481,1.7989 -2.2641,3.6151 -3.3667,5.4372 -0.457,0.756 -0.9122,1.5128 -1.3621,2.2719 -0.1828,0.3079 -0.371,0.6129 -0.5527,0.921 -0.849,1.442 -1.6869,2.8888 -2.5107,4.3438 -0.0816,0.144 -0.1678,0.2872 -0.2491,0.432 -0.3524,0.6262 -0.6914,1.258 -1.0378,1.8871 -1.22,2.2141 -2.4165,4.439 -3.5779,6.6821 -7.996,15.44 -14.5259,31.5779 -19.5282,48.24 -0.7914,2.637 -1.54,5.288 -2.2549,7.95 -1.4372,5.3561 -2.7278,10.76 -3.8498,16.2111 -0.555,2.6977 -1.0808,5.4039 -1.5576,8.1229 -0.5794,3.301 -1.0896,6.6189 -1.5528,9.9499 -0.4462,3.2071 -0.841,6.427 -1.1787,9.6591 -0.6488,6.211 -1.0783,12.469 -1.3263,18.7599 -0.1154,2.9149 -0.1885,5.8371 -0.2137,8.7682 -0.0068,0.7922 -0.0312,1.5817 -0.0329,2.3751 v 0.0386 0.0382 0.0386 0.0385 c 0.0017,0.7969 0.0258,1.5894 0.0329,2.386 0.0252,2.9298 0.0992,5.8518 0.214,8.7669 0.2489,6.302 0.68,12.572 1.3309,18.7949 0.3381,3.232 0.733,6.4519 1.18,9.659 0.4632,3.3279 0.9743,6.645 1.5534,9.9431 0.4774,2.719 1.0038,5.425 1.5591,8.1219 1.1191,5.436 2.4063,10.8229 3.8392,16.1631 0.7143,2.6629 1.4627,5.3138 2.2541,7.9509 5.0074,16.681 11.5467,32.838 19.5548,48.295 1.1418,2.2039 2.3179,4.3911 3.5161,6.5681 0.3671,0.6659 0.7268,1.3369 1.1004,1.9999 0.0746,0.1321 0.1534,0.2619 0.2279,0.394 0.8224,1.453 1.66,2.8981 2.5076,4.3381 0.1683,0.2849 0.3421,0.567 0.5113,0.8519 0.4652,0.784 0.9346,1.5661 1.4069,2.3459 1.1015,1.8213 2.2164,3.6352 3.3633,5.4312 9.4804,14.851 20.4162,28.904 32.7243,41.987 1.8805,1.9988 3.789,3.9768 5.7336,5.9287 0.1378,0.1392 0.2699,0.2812 0.4079,0.4193 2.3349,2.336 4.716,4.6077 7.1172,6.8507 2.0194,1.8862 4.0615,3.7403 6.126,5.5602 4.206,3.7102 8.494,7.2969 12.88,10.73 2.668,2.0891 5.3782,4.1122 8.11,6.0981 4.839,3.5167 9.784,6.8551 14.8101,10.0438 2.4721,1.5692 4.959,3.1101 7.4739,4.5972 1.398,0.8277 2.8091,1.6302 4.2202,2.4321 2.531,1.4386 5.0749,2.85 7.647,4.2078 4.036,2.1299 8.119,4.1629 12.2488,6.091 3.054,1.425 6.1342,2.791 9.237,4.1052 5.4581,2.3108 10.9871,4.4507 16.5841,6.4119 2.643,0.9258 5.3019,1.808 7.9741,2.6547 4.343,1.3762 8.7248,2.6456 13.1389,3.8115 2.6589,0.7018 5.33,1.3685 8.013,1.9936 15.6631,3.6493 31.7219,5.9762 48.0441,6.923 3.3678,0.1962 6.7439,0.3481 10.133,0.4263 0.307,0.007 0.616,0.005 0.9238,0.0108 0.8702,0.0182 1.7422,0.0221 2.613,0.0321 1.0105,0.0116 2.0188,0.0362 3.0302,0.0379 h 0.0488 0.049 0.0471 0.047 0.0474 c 0.9575,-0.002 1.9114,-0.0207 2.8666,-0.0371 0.44,-0.007 0.881,-0.009 1.321,-0.0159 0.4291,-0.006 0.858,-0.0207 1.2869,-0.0278 2.992,-0.0552 5.978,-0.1403 8.9532,-0.2891 17.045,-0.8583 33.808,-3.2281 50.1429,-7.0288 2.683,-0.625 5.355,-1.2863 8.0141,-1.9885 4.4578,-1.1758 8.883,-2.4576 13.269,-3.848 2.672,-0.8467 5.3309,-1.7289 7.9739,-2.6547 5.1321,-1.798 10.2109,-3.7371 15.2271,-5.83 3.1459,-1.3133 6.2629,-2.6943 9.36,-4.1218 4.5148,-2.0812 8.97,-4.2962 13.3739,-6.6172 2.575,-1.357 5.1301,-2.7559 7.664,-4.1942 1.4111,-0.7999 2.8151,-1.6129 4.212,-2.4378 2.5141,-1.4842 5.008,-3.007 7.4789,-4.572 4.1982,-2.6583 8.339,-5.419 12.407,-8.308 2.787,-1.9812 5.5381,-4.0232 8.2621,-6.1101 4.4969,-3.4461 8.913,-7.022 13.2251,-10.7549 2.1039,-1.821 4.1788,-3.6851 6.2368,-5.5744 3.0512,-2.7997 6.061,-5.6607 9.0071,-8.6076 0.108,-0.1083 0.212,-0.2192 0.32,-0.3283 1.9451,-1.9508 3.852,-3.93 5.7319,-5.9275 11.6802,-12.4081 22.121,-25.6893 31.2622,-39.6961 1.6758,-2.5682 3.3129,-5.1591 4.9028,-7.7732 0.176,-0.29 0.3592,-0.5768 0.5352,-0.8671 0.284,-0.4728 0.559,-0.9507 0.8399,-1.425 1.0329,-1.7419 2.0469,-3.494 3.041,-5.256 0.18,-0.3189 0.364,-0.6349 0.5431,-0.9538 0.2549,-0.4561 0.4998,-0.917 0.7529,-1.3751 1.3771,-2.4939 2.723,-5.0029 4.0241,-7.5351 7.7958,-15.1778 14.178,-31.0249 19.089,-47.3768 0.7909,-2.636 1.5438,-5.2849 2.259,-7.947 1.2398,-4.6221 2.368,-9.28 3.374,-13.9742 0.586,-2.7317 1.1308,-5.4748 1.6359,-8.229 0.8949,-4.877 1.6671,-9.7877 2.308,-14.7288 0.4331,-3.3401 0.813,-6.6912 1.129,-10.057 0.489,-5.2141 0.8229,-10.461 1.0301,-15.73 0.1148,-2.9152 0.1849,-5.8371 0.2098,-8.767 0.007,-0.722 0.0249,-1.4429 0.0292,-2.1654 z m -88.312,188.1862 c -2.014,2.0849 -4.0612,4.1357 -6.1412,6.1546 -2.5549,2.482 -5.1409,4.932 -7.7919,7.3134 -2.014,1.8088 -4.0589,3.5838 -6.126,5.3328 -1.387,1.1741 -2.7839,2.334 -4.1941,3.4801 -2.414,1.9607 -4.86,3.8837 -7.3409,5.7628 -4.125,3.1229 -8.3449,6.1268 -12.647,9.017 -2.683,1.8009 -5.3961,3.5601 -8.1451,5.2671 -4.682,2.908 -9.457,5.6781 -14.3218,8.3029 -2.8241,1.5239 -5.682,2.9937 -8.5651,4.4201 -4.635,2.291 -9.341,4.46 -14.1211,6.4891 -2.8639,1.2158 -5.7609,2.3692 -8.674,3.4877 -1.412,0.5431 -2.8228,1.086 -4.2469,1.6064 -2.5469,0.9289 -5.1171,1.8108 -7.6989,2.666 -3.71,1.2277 -7.465,2.3559 -11.2442,3.4257 -2.785,0.7903 -5.5859,1.5412 -8.4058,2.2422 -12.5941,3.1328 -25.5252,5.4008 -38.74,6.6988 17.3418,-5.1508 32.5919,-15.1909 44.1768,-28.5021 2.0761,-2.385 4.03,-4.8758 5.8601,-7.4627 0.28,-0.396 0.574,-0.7833 0.8481,-1.1841 0.0638,-0.0941 0.1298,-0.1862 0.1939,-0.2792 0.8249,-1.2149 1.6211,-2.45 2.3899,-3.7029 1.4352,-0.034 2.861,-0.1043 4.2792,-0.2018 0.117,-0.008 0.235,-0.0133 0.352,-0.0221 0.5088,-0.0372 1.014,-0.0882 1.52,-0.133 3.2289,-0.2871 6.4128,-0.7313 9.5408,-1.3371 21.0161,-4.0751 39.5532,-15.173 53.0671,-30.746 2.0481,-2.3589 3.977,-4.824 5.785,-7.3811 0.2781,-0.392 0.559,-0.7798 0.83,-1.1761 0.3339,-0.4878 0.661,-0.9788 0.9861,-1.4717 0.5548,-0.845 1.101,-1.6969 1.63,-2.5611 1.4139,-0.0377 2.819,-0.11 4.2168,-0.2109 0.612,-0.044 1.222,-0.0961 1.8312,-0.152 0.064,-0.006 0.1269,-0.0158 0.191,-0.0209 3.075,-0.288 6.103,-0.7382 9.0848,-1.315 18.227,-3.53 34.5971,-12.3242 47.438,-24.7561 -7.8329,10.9559 -16.48,21.2879 -25.8168,30.9492 z M 217.8499,545.953 c -2.8199,-0.703 -5.62,-1.455 -8.405,-2.2461 -3.7358,-1.0602 -7.4489,-2.1762 -11.1178,-3.3897 -2.5821,-0.8552 -5.1522,-1.7371 -7.7,-2.666 -1.9602,-0.716 -3.9081,-1.4573 -5.8482,-2.2161 -2.8689,-1.1231 -5.7118,-2.3 -8.5328,-3.5184 -4.305,-1.8578 -8.549,-3.8296 -12.7361,-5.9009 -2.882,-1.4249 -5.735,-2.9018 -8.5589,-4.4268 -4.8731,-2.63 -9.6562,-5.404 -14.345,-8.318 -2.7471,-1.707 -5.4621,-3.4603 -8.1431,-5.2608 -5.0261,-3.3775 -9.9371,-6.9123 -14.7181,-10.6081 -2.4508,-1.8944 -4.8758,-3.8203 -7.2589,-5.7952 -1.5109,-1.2532 -3.011,-2.518 -4.4941,-3.8009 -2.0338,-1.7621 -4.0339,-3.5612 -6.0154,-5.3822 -1.902,-1.747 -3.7698,-3.5308 -5.6214,-5.3308 -2.078,-2.02 -4.1218,-4.074 -6.1344,-6.1591 -7.6039,-7.8781 -14.7478,-16.202 -21.3644,-24.9489 11.8516,9.481 26.0401,16.1498 41.5488,19.0069 2.0619,0.3801 4.1459,0.699 6.2518,0.9411 1.3331,0.1539 2.6742,0.2817 4.0232,0.379 0.1429,0.011 0.288,0.0119 0.4309,0.0221 1.256,0.085 2.5171,0.155 3.787,0.1888 0.1489,0.2432 0.3019,0.483 0.453,0.7251 0.699,1.118 1.419,2.2209 2.162,3.3077 0.2381,0.3473 0.4859,0.6883 0.7291,1.0332 2.8998,4.1148 6.1188,7.9892 9.625,11.5841 13.341,13.6758 30.7999,23.309 50.3558,26.8739 3.289,0.6001 6.6362,1.0352 10.0341,1.2821 0.29,0.021 0.5819,0.0317 0.873,0.0499 0.5911,0.0371 1.181,0.0762 1.774,0.1031 1.3989,0.0621 2.804,0.099 4.2179,0.099 0.0482,0 0.095,-0.002 0.142,-0.002 0.3912,0.6372 0.7892,1.2694 1.194,1.895 0.449,0.6942 0.9071,1.3802 1.3742,2.0613 0.2699,0.3952 0.559,0.7759 0.8348,1.167 1.7751,2.5087 3.6692,4.9269 5.675,7.2468 11.609,13.426 26.9331,23.5542 44.3752,28.7351 -13.259,-1.3019 -26.2332,-3.5819 -38.8672,-6.7309 z M 22.5445,357.4579 c -0.7996,-2.7799 -1.5684,-5.5721 -2.2805,-8.3869 -1.1151,-4.4081 -2.1268,-8.8571 -3.0223,-13.348 -0.5252,-2.6351 -1.0066,-5.2861 -1.455,-7.947 -0.0227,-0.1372 -0.0453,-0.2741 -0.068,-0.411 -0.4921,-2.95 -0.9437,-5.915 -1.3394,-8.8971 -0.7892,-5.944 -1.387,-11.948 -1.7867,-18.0051 -0.2117,-3.2048 -0.3634,-6.427 -0.4617,-9.6619 -0.0828,-2.738 -0.131,-5.4839 -0.131,-8.2409 0,-2.7541 0.0479,-5.4972 0.1307,-8.2301 0.0983,-3.2349 0.2494,-6.457 0.4609,-9.663 0.3988,-6.0449 0.9947,-12.0379 1.7816,-17.9719 0.3954,-2.981 0.8464,-5.946 1.3382,-8.8971 0.023,-0.1381 0.0456,-0.2759 0.0692,-0.4139 0.4476,-2.662 0.9286,-5.3121 1.4536,-7.9469 0.898,-4.5082 1.9136,-8.9731 3.0328,-13.3983 0.712,-2.8148 1.4808,-5.6069 2.2804,-8.3868 2.7811,-9.667 6.0687,-19.122 9.8643,-28.319 -0.6117,4.3228 -0.9351,8.7378 -0.9351,13.227 0,9.324 1.3705,18.332 3.9109,26.841 1.457,4.8799 3.2959,9.597 5.4899,14.1109 0.0176,0.036 0.0363,0.072 0.0541,0.108 0.0652,0.1341 0.1384,0.263 0.2044,0.396 0.5893,1.1939 1.194,2.3791 1.8323,3.5441 -0.6372,1.1628 -1.2404,2.346 -1.8286,3.538 -0.074,0.1491 -0.1559,0.2931 -0.229,0.443 -0.0176,0.036 -0.0366,0.072 -0.0542,0.1089 -2.1824,4.496 -4.0119,9.193 -5.4632,14.051 -2.5438,8.5142 -3.9166,17.528 -3.9166,26.8591 0,9.3359 1.3742,18.3561 3.9214,26.875 1.4553,4.868 3.2908,9.5729 5.4794,14.0769 0.0176,0.036 0.0363,0.072 0.0541,0.108 0.0652,0.1341 0.1384,0.263 0.2044,0.396 0.5893,1.1939 1.194,2.3791 1.8323,3.5441 -0.6392,1.1671 -1.2447,2.3539 -1.8346,3.5499 -0.0717,0.1451 -0.1519,0.2851 -0.223,0.4311 -0.0176,0.036 -0.0366,0.072 -0.0542,0.1089 -2.1824,4.496 -4.0119,9.193 -5.4632,14.051 -2.5438,8.5142 -3.9166,17.528 -3.9166,26.8591 0,4.489 0.3234,8.9028 0.9351,13.2259 -3.7967,-9.199 -7.0855,-18.657 -9.8671,-28.328 z M 88.2825,94.123 c 2.0137,-2.0852 4.0572,-4.1392 6.1356,-6.1591 1.8232,-1.7708 3.6629,-3.5269 5.5349,-5.247 1.9809,-1.8201 3.981,-3.6209 6.0151,-5.3821 1.4888,-1.2889 2.9948,-2.56 4.5119,-3.8168 2.384,-1.9749 4.809,-3.9019 7.2601,-5.7972 4.8158,-3.723 9.764,-7.2819 14.8269,-10.6809 2.6819,-1.8 5.3989,-3.553 8.1471,-5.2589 4.6729,-2.9009 9.4399,-5.663 14.2948,-8.2819 2.8242,-1.5242 5.6781,-3.0002 8.5612,-4.4261 4.1669,-2.0602 8.392,-4.0212 12.676,-5.8699 2.821,-1.2181 5.6639,-2.395 8.5328,-3.5181 1.9401,-0.76 3.888,-1.5001 5.8482,-2.2161 2.5478,-0.9301 5.1179,-1.8111 7.7,-2.666 3.6749,-1.2169 7.3939,-2.3341 11.1359,-3.3959 2.7859,-0.7901 5.5871,-1.5429 8.4079,-2.2451 12.6272,-3.147 25.594,-5.4249 38.8462,-6.726 -17.4362,5.1792 -32.7551,15.3 -44.3622,28.7189 -2.0058,2.3182 -3.8979,4.735 -5.6729,7.2431 -0.281,0.3971 -0.5749,0.7849 -0.8499,1.1871 -0.4671,0.6809 -0.9252,1.3669 -1.3742,2.06 -0.4139,0.6409 -0.8209,1.2861 -1.2198,1.9369 -0.0391,0 -0.0771,-9e-4 -0.1162,-9e-4 -1.4068,0 -2.8049,0.0369 -4.1978,0.0978 -0.6191,0.0281 -1.2351,0.0681 -1.8522,0.1072 -0.261,0.0159 -0.5249,0.0261 -0.786,0.0451 -3.3338,0.2409 -6.6169,0.665 -9.8459,1.2458 -19.6049,3.526 -37.1151,13.1491 -50.4941,26.833 -3.509,3.5881 -6.7308,7.4551 -9.6338,11.564 -0.267,0.377 -0.538,0.7511 -0.7991,1.1321 -0.743,1.086 -1.463,2.1901 -2.162,3.308 -0.142,0.2268 -0.286,0.453 -0.426,0.6821 -1.2541,0.0328 -2.4979,0.1037 -3.7401,0.1859 -0.174,0.0119 -0.3509,0.0139 -0.5249,0.0269 -1.3519,0.097 -2.6949,0.226 -4.03,0.3802 -2.0291,0.235 -4.036,0.5428 -6.024,0.9039 -15.5865,2.837 -29.8471,9.5199 -41.7497,19.0421 6.6344,-8.7713 13.7993,-17.1162 21.4262,-25.0121 z M 348.9809,19.154 c 2.8202,0.703 5.6211,1.4539 8.405,2.2439 3.7531,1.065 7.4832,2.1849 11.1682,3.405 2.5818,0.8549 5.152,1.7359 7.6989,2.666 1.4241,0.519 2.8349,1.0629 4.2469,1.6061 2.9131,1.1188 5.8101,2.2719 8.674,3.488 4.7931,2.0339 9.5111,4.2089 14.1582,6.5069 2.8828,1.427 5.741,2.897 8.566,4.4221 4.8679,2.628 9.6469,5.4008 14.3308,8.312 2.7491,1.7079 5.4621,3.4671 8.144,5.269 4.2871,2.8809 8.4931,5.8748 12.6042,8.9879 2.4818,1.8802 4.9289,3.8029 7.344,5.7651 1.4159,1.1508 2.8199,2.317 4.2129,3.4959 2.067,1.7501 4.1119,3.526 6.1259,5.3351 2.6581,2.389 5.2521,4.8458 7.814,7.3361 2.0792,2.0199 4.1261,4.0719 6.1401,6.1568 9.3201,9.6472 17.951,19.963 25.7709,30.9019 -12.8109,-12.403 -29.1339,-21.1839 -47.3079,-24.73 -3.0189,-0.5888 -6.0829,-1.048 -9.197,-1.3388 -0.0601,-0.006 -0.1199,-0.015 -0.1809,-0.021 -0.6111,-0.0561 -1.224,-0.1091 -1.838,-0.1531 -1.4142,-0.102 -2.8352,-0.1749 -4.265,-0.2128 -0.521,-0.8493 -1.057,-1.6872 -1.603,-2.5181 -0.3251,-0.494 -0.6522,-0.985 -0.9861,-1.472 -0.2739,-0.4 -0.5579,-0.7931 -0.8391,-1.1891 -1.7819,-2.5189 -3.6788,-4.949 -5.6939,-7.276 -13.54,-15.643 -32.1421,-26.786 -53.2361,-30.8551 -3.0708,-0.5927 -6.196,-1.0278 -9.3648,-1.3127 -0.5451,-0.0491 -1.0902,-0.1021 -1.6382,-0.142 -0.1139,-0.0083 -0.229,-0.0142 -0.343,-0.0222 -1.4028,-0.096 -2.8128,-0.1661 -4.2329,-0.2001 -0.7759,-1.2679 -1.5821,-2.5169 -2.416,-3.7448 -0.0641,-0.0941 -0.1301,-0.1851 -0.1939,-0.279 -0.275,-0.4022 -0.5692,-0.79 -0.8501,-1.1871 -1.7929,-2.5339 -3.706,-4.9751 -5.7339,-7.314 -11.6,-13.384 -26.896,-23.479 -44.301,-28.648 13.242,1.2999 26.1989,3.5762 38.8168,6.7181 z M 520.052,221.4238 c -3.2241,-9.0269 -4.994,-18.7378 -4.9921,-28.8589 0.002,-10.1169 1.7731,-19.8258 4.9992,-28.8499 3.223,9.0209 4.9859,18.7299 4.9859,28.845 0,10.122 -1.766,19.8369 -4.993,28.8638 z m -0.011,90.0281 c -3.225,-9.0281 -4.995,-18.7419 -4.9941,-28.8649 0.002,-10.1279 1.7762,-19.8479 5.0091,-28.88 3.225,9.0238 4.989,18.735 4.989,28.853 0,10.133 -1.77,19.8579 -5.004,28.8919 z m -0.007,90.0181 c -3.229,-9.0331 -5.0009,-18.7531 -4.9998,-28.883 0.002,-10.135 1.7788,-19.861 5.0148,-28.8981 3.2292,9.0289 4.9961,18.7461 4.9961,28.8711 0,10.139 -1.772,19.8709 -5.0111,28.91 z m -42.8618,36.6928 c 8.558,-4.9388 17.875,-8.3409 27.496,-10.1098 -12.6201,14.9001 -30.2102,25.4489 -50.1891,29.0841 6.2419,-7.399 13.8371,-13.8631 22.6931,-18.9743 z m -77.9701,44.996 c 8.678,-5.0068 18.1349,-8.437 27.9,-10.184 -12.7261,15.0681 -30.5229,25.7051 -50.739,29.2674 6.357,-7.5435 14.042,-14.0062 22.839,-19.0834 z m -77.951,44.9853 c 8.6731,-5.0043 18.125,-8.4334 27.8849,-10.1812 -12.7278,15.0724 -30.5248,25.7261 -50.743,29.287 6.3601,-7.5529 14.0522,-14.023 22.8581,-19.1058 z m -75.7211,-0.005 c 8.782,5.0732 16.454,11.5251 22.8022,19.0559 -20.1541,-3.5858 -37.8972,-14.2038 -50.5922,-29.232 9.7262,1.7561 19.1461,5.1831 27.79,10.1761 z m -77.951,-45.0289 c 8.9841,5.1885 16.7981,11.8295 23.2302,19.584 -21.5382,-3.1031 -40.5122,-14.2203 -53.8132,-30.2179 10.7152,1.5718 21.1141,5.1636 30.583,10.6339 z M 59.3892,427.506 c 10.6002,1.5959 20.8851,5.1701 30.2585,10.5848 9.0589,5.233 16.8012,11.88 23.1193,19.4981 C 91.4173,454.413 72.6066,443.374 59.3892,427.506 Z m -13.75,-86.8851 c 3.9725,9.8862 6.1815,20.6649 6.1815,31.955 0,11.2842 -2.2065,22.057 -6.1755,31.9391 -3.9722,-9.885 -6.1685,-20.6671 -6.1685,-31.955 0,-11.283 2.1943,-22.0592 6.1625,-31.9391 z m 0.0045,-90.011 c 3.9697,9.883 6.177,20.658 6.177,31.9439 0,11.2893 -2.2082,22.0652 -6.1798,31.9501 -3.9693,-9.881 -6.1642,-20.66 -6.1642,-31.9439 0,-11.287 2.1957,-22.0671 6.167,-31.9501 z m 0,-90 c 3.9697,9.883 6.177,20.658 6.177,31.9439 0,11.2893 -2.2082,22.0652 -6.1798,31.9501 -3.9693,-9.881 -6.1642,-20.66 -6.1642,-31.9439 0,-11.287 2.1957,-22.0671 6.167,-31.9501 z m 44.0297,-33.637 c -9.3648,5.4059 -19.6381,8.975 -30.2272,10.5709 13.2222,-15.84 32.0227,-26.854 53.3568,-30.0189 -6.4131,7.6969 -14.1939,14.2889 -23.1296,19.448 z m 77.9636,-45.008 c -9.4621,5.4621 -19.851,9.0499 -30.5561,10.6211 13.288,-15.9329 32.2081,-27.0062 53.68,-30.1121 -6.3199,7.6161 -14.0638,14.2611 -23.1239,19.491 z m 77.9439,-44.996 c -8.657,4.998 -18.0909,8.4251 -27.8328,10.1761 12.708,-15.0381 30.4708,-25.657 50.6458,-29.2312 -6.351,7.5311 -14.027,13.9842 -22.813,19.0551 z m 75.7222,-0.0048 C 312.5109,31.8858 304.831,25.4259 298.478,17.886 c 20.177,3.5748 37.9369,14.213 50.646,29.2559 -9.737,-1.7538 -19.1681,-5.1809 -27.8209,-10.1778 z m 77.9559,45.0178 c -8.7789,-5.07 -16.4509,-11.518 -22.7979,-19.0448 20.1628,3.5767 37.9139,14.1928 50.6168,29.2229 -9.737,-1.7541 -19.1659,-5.1812 -27.8189,-10.1781 z m 77.9391,45.008 c -8.865,-5.1188 -16.4661,-11.594 -22.7092,-19.0061 19.9942,3.64 37.5951,14.2062 50.2172,29.126 -9.627,-1.7699 -18.9482,-5.1769 -27.508,-10.1199 z m 35.244,96.9361 c -11.7592,-14.6892 -27.8152,-25.7942 -46.2571,-31.366 18.4549,-5.576 34.52,-16.6921 46.281,-31.3971 -3.4949,9.8249 -5.404,20.3942 -5.406,31.4011 -0.002,10.993 1.9001,21.5478 5.3821,31.362 z m -0.0371,89.952 c -11.7561,-14.665 -27.7971,-25.7521 -46.22,-31.318 18.4501,-5.574 34.5109,-16.6861 46.271,-31.384 -3.4971,9.8268 -5.4071,20.3989 -5.409,31.4098 -9e-4,10.9673 1.891,21.4983 5.358,31.2922 z m -0.023,89.9709 c -11.7541,-14.652 -27.7871,-25.727 -46.197,-31.2889 18.4379,-5.5712 34.49,-16.6711 46.2481,-31.354 -3.49,9.8189 -5.3972,20.38 -5.3992,31.3798 -8e-4,10.9562 1.8882,21.477 5.3481,31.2631 z m -64.0661,-26.7821 c 25.166,2.7111 47.0982,16.3262 60.9991,36.0063 -25.1649,-2.7102 -47.0971,-16.325 -60.9991,-36.0063 z m 4.1752,17.284 c 13.4648,13.3302 30.9308,22.6072 50.4088,25.8942 -10.4018,1.95 -20.471,5.648 -29.7258,10.9888 -9.239,5.3322 -17.227,12.0093 -23.868,19.6381 3.9339,-10.3541 6.0919,-21.575 6.0919,-33.2909 0,-8.015 -1.01,-15.7972 -2.9069,-23.2302 z M 377.4399,462.56 c 0,-7.304 -0.8368,-14.4161 -2.4208,-21.2451 13.3588,12.4489 30.3349,21.06 49.1598,24.0639 -10.1358,1.9851 -19.9428,5.6392 -28.9749,10.8513 -9.1071,5.2557 -17.111,11.8809 -23.8379,19.5698 3.922,-10.3399 6.0738,-21.543 6.0738,-33.2399 z m -88.9929,84.428 c 5.561,-11.9931 8.6749,-25.342 8.6749,-39.4073 0,-8.5598 -1.1568,-16.8536 -3.3109,-24.741 13.7869,14.2744 32.042,24.1942 52.4829,27.5122 -10.1588,1.982 -19.9888,5.6404 -29.0409,10.864 -11.4721,6.6201 -21.1989,15.4052 -28.806,25.7721 z m -17.7381,-64.1483 c -2.154,7.8874 -3.3108,16.1812 -3.3108,24.741 0,11.7584 2.173,23.0193 6.1339,33.4032 -6.757,-7.7749 -14.819,-14.468 -24.001,-19.7731 -9.3651,-5.4096 -19.5661,-9.1357 -30.1031,-11.071 19.9542,-3.5058 37.766,-13.3078 51.281,-27.3001 z m -78.078,-44.5777 c -2.0769,7.7539 -3.191,15.8978 -3.191,24.298 0,11.7508 2.1742,23.0029 6.1311,33.3808 -6.755,-7.7689 -14.813,-14.4581 -23.9899,-19.7589 -9.3081,-5.3767 -19.4411,-9.091 -29.9081,-11.0358 19.787,-3.4521 37.4709,-13.102 50.9579,-26.8841 z M 112.981,390.9141 c -2.5061,8.4577 -3.859,17.407 -3.859,26.6669 0,10.1801 1.6319,19.984 4.6391,29.1719 -5.8311,-5.953 -12.5521,-11.2221 -20.1115,-15.5888 -9.8807,-5.7082 -20.6887,-9.5531 -31.8427,-11.3843 20.0744,-3.9608 37.8805,-14.3109 51.1741,-28.8657 z m 0.6361,-13.517 c -13.4302,18.8268 -34.2377,32.0278 -58.176,35.3469 13.43,-18.8272 34.2375,-32.029 58.176,-35.3469 z M 55.8958,255.6669 c 11.3188,12.4679 25.9209,21.9022 42.4409,26.8931 -16.5226,4.9918 -31.1264,14.4278 -42.446,26.8988 2.552,-8.528 3.93,-17.5578 3.93,-26.905 0,-9.3399 -1.3763,-18.3648 -3.9249,-26.8869 z m 0,-90 c 11.3188,12.4679 25.9209,21.9022 42.4409,26.8931 -16.5226,4.9918 -31.1264,14.4278 -42.446,26.8988 2.552,-8.528 3.93,-17.5578 3.93,-26.905 0,-9.3399 -1.3763,-18.3648 -3.9249,-26.8869 z m 57.6882,22.051 C 89.6788,184.396 68.8989,171.216 55.4734,152.422 c 23.9052,3.3231 44.6857,16.503 58.1106,35.2959 z m -0.603,-13.47 c -13.3616,-14.629 -31.2814,-25.0081 -51.4805,-28.923 11.2697,-1.8071 22.1941,-5.663 32.1729,-11.4239 7.4826,-4.32 14.2115,-9.572 20.1127,-15.5681 -3.0232,9.21 -4.6641,19.04 -4.6641,29.2481 0,9.2599 1.3529,18.2089 3.859,26.6669 z m 79.6499,-47.3899 c -13.5128,-13.8089 -31.2369,-23.472 -51.0698,-26.907 10.5259,-1.9332 20.717,-5.6551 30.0758,-11.0571 9.271,-5.3521 17.282,-12.0588 23.9361,-19.724 -3.9589,10.381 -6.1331,21.636 -6.1331,33.3901 0,8.3999 1.1141,16.5439 3.191,24.298 z m 78.078,-44.5362 C 257.161,68.2948 239.294,58.4799 219.28,54.9958 229.8861,53.0751 240.156,49.339 249.5809,43.8979 258.736,38.613 266.7759,31.947 273.522,24.205 c -3.954,10.3768 -6.1239,21.6278 -6.1239,33.376 0,8.5601 1.1568,16.854 3.3108,24.7408 z m 23.1021,0 c 2.1541,-7.8868 3.3109,-16.1807 3.3109,-24.7408 0,-14.2211 -3.1839,-27.7101 -8.862,-39.8049 7.6391,10.5159 17.4501,19.421 29.043,26.1147 9.0861,5.2472 18.9572,8.9141 29.158,10.8952 -20.509,3.2899 -38.8259,13.224 -52.6499,27.5358 z m 81.2081,41.4831 c 1.584,-6.829 2.4208,-13.9408 2.4208,-21.2449 0,-11.732 -2.1629,-22.9671 -6.107,-33.3311 6.7431,7.7351 14.7782,14.398 23.9261,19.6809 8.998,5.1962 18.764,8.8461 28.8601,10.8402 -18.8002,3.0119 -35.7551,11.619 -49.1,24.0549 z m 77.472,47.006 c 1.8969,-7.433 2.9069,-15.2149 2.9069,-23.2299 0,-11.7502 -2.1699,-23.0031 -6.1251,-33.3811 6.6512,7.6621 14.658,14.366 23.925,19.717 9.252,5.343 19.3181,9.0439 29.7181,10.997 -19.4839,3.2839 -36.9569,12.5631 -50.4249,25.897 z m 56.791,-18.7188 c -13.896,19.6477 -35.801,33.2387 -60.933,35.9557 13.8969,-19.6469 35.8019,-33.2387 60.933,-35.9557 z m -60.9662,44.9747 c 25.166,2.7111 47.0982,16.3262 60.9991,36.0063 -25.1649,-2.7102 -47.0971,-16.325 -60.9991,-36.0063 z m 60.9662,45.0253 c -13.896,19.6477 -35.801,33.2387 -60.933,35.9557 13.8969,-19.6469 35.8019,-33.2387 60.933,-35.9557 z m -60.9662,44.9747 c 25.166,2.7111 47.0982,16.3262 60.9991,36.0063 -25.1649,-2.7102 -47.0971,-16.325 -60.9991,-36.0063 z m 60.9662,45.0253 c -13.896,19.6477 -35.801,33.2387 -60.933,35.9557 13.8969,-19.6469 35.8019,-33.2387 60.933,-35.9557 z M 431.765,458.229 c -26.0541,-2.196 -48.827,-16.047 -63.087,-36.3181 26.0541,2.196 48.827,16.0481 63.087,36.3181 z m -70.522,40.9289 c -5.2489,-11.1119 -8.1981,-23.5148 -8.1981,-36.5979 0,-13.083 2.9492,-25.486 8.1981,-36.5989 5.2481,11.1129 8.1969,23.5159 8.1969,36.5989 0,13.0831 -2.9488,25.486 -8.1969,36.5979 z m -7.422,4.0702 c -25.939,-2.277 -48.598,-16.111 -62.803,-36.3152 25.939,2.2768 48.5981,16.1102 62.803,36.3152 z m -80.5059,-36.0518 c -13.7472,19.3974 -35.308,32.8697 -60.067,35.7885 13.7458,-19.3981 35.307,-32.87 60.067,-35.7885 z M 216.286,438.262 c 10.9471,11.1869 24.6569,19.658 40.015,24.298 -15.3581,4.6401 -29.0679,13.1111 -40.015,24.2978 2.077,-7.7539 3.191,-15.8976 3.191,-24.2978 0,-8.4002 -1.114,-16.5441 -3.191,-24.298 z m -20.4429,-16.3511 c -14.2602,20.272 -37.0332,34.1229 -63.0881,36.3189 14.2599,-20.2719 37.034,-34.1229 63.0881,-36.3189 z M 123.351,385.505 c 4.0031,9.919 6.2289,20.74 6.2289,32.076 0,11.336 -2.2258,22.1559 -6.2289,32.076 -4.0031,-9.9201 -6.2291,-20.74 -6.2291,-32.076 0,-11.336 2.226,-22.157 6.2291,-32.076 z m -9.7679,-17.7871 C 89.678,364.3948 68.8989,351.2149 55.4737,332.422 c 23.9049,3.3239 44.6843,16.503 58.1094,35.2959 z M 55.4411,322.744 c 13.43,-18.8272 34.2375,-32.029 58.176,-35.3469 -13.4302,18.8268 -34.2377,32.0278 -58.176,35.3469 z M 113.584,277.7179 C 89.6788,274.396 68.8989,261.216 55.4734,242.422 c 23.9052,3.3231 44.6857,16.503 58.1106,35.2959 z M 55.4411,232.744 c 13.43,-18.8272 34.2366,-32.0281 58.1749,-35.3469 -13.43,18.8257 -34.2371,32.0278 -58.1749,35.3469 z M 123.351,115.505 c 4.0031,9.919 6.2289,20.74 6.2289,32.076 0,11.336 -2.2258,22.1559 -6.2289,32.076 -4.0031,-9.9201 -6.2291,-20.74 -6.2291,-32.076 0,-11.336 2.226,-22.157 6.2291,-32.076 z m 9.3731,-8.617 c 26.0869,2.1889 48.8868,16.0611 63.1508,36.3651 -26.087,-2.1892 -48.8869,-16.0611 -63.1508,-36.3651 z M 256.301,102.56 c -15.3581,4.6401 -29.0679,13.1108 -40.015,24.298 2.077,-7.7541 3.191,-15.8981 3.191,-24.298 0,-8.4002 -1.114,-16.5441 -3.191,-24.298 10.9471,11.1869 24.6569,19.658 40.015,24.298 z M 213.2799,62.2009 c 24.7272,2.9251 46.26,16.3741 60.0021,35.7381 -24.7261,-2.9239 -46.26,-16.3732 -60.0021,-35.7381 z m 77.7702,36.004 c 14.201,-20.1731 36.8328,-33.9849 62.7389,-36.269 -14.201,20.173 -36.8331,33.9851 -62.7389,36.269 z m 70.1929,40.953 c -5.2489,-11.1119 -8.1981,-23.5148 -8.1981,-36.5979 0,-13.083 2.9492,-25.486 8.1981,-36.5989 5.2481,11.1129 8.1969,23.5159 8.1969,36.5989 0,13.0831 -2.9488,25.486 -8.1969,36.5979 z m 7.4041,4.0952 c 14.2628,-20.3032 37.063,-34.1762 63.1499,-36.3651 -14.2639,20.3028 -37.0641,34.1759 -63.1499,36.3651 z m 83.844,71.0977 c 10.7668,10.6591 24.0899,18.7381 38.956,23.2302 -14.8661,4.4909 -28.1892,12.57 -38.956,23.2299 1.8969,-7.433 2.9069,-15.2149 2.9069,-23.2299 0,-8.015 -1.01,-15.7972 -2.9069,-23.2302 z m 0,90 c 10.7668,10.6591 24.0899,18.7381 38.956,23.2302 -14.8661,4.4909 -28.1892,12.57 -38.956,23.2299 1.8969,-7.433 2.9069,-15.2149 2.9069,-23.2299 0,-8.015 -1.01,-15.7972 -2.9069,-23.2302 z M 347.4669,441.3149 c -1.584,6.829 -2.4219,13.9411 -2.4219,21.2451 0,7.3041 0.8379,14.4162 2.4219,21.2451 -10.387,-9.6783 -22.9578,-17.037 -36.887,-21.2451 13.9292,-4.208 26.5,-11.567 36.887,-21.2451 z M 273.282,457.939 c -24.7261,-2.9239 -46.26,-16.3729 -60.0021,-35.7381 24.7272,2.9251 46.26,16.3741 60.0021,35.7381 z M 133.721,390.9118 c 11.2921,12.3642 25.835,21.706 42.2609,26.6692 -16.4259,4.9629 -30.9688,14.305 -42.2609,26.6681 2.507,-8.458 3.8591,-17.4082 3.8591,-26.6681 0,-9.2611 -1.3521,-18.21 -3.8591,-26.6692 z m -20.74,-36.6627 C 101.6901,341.886 87.1464,332.5439 70.7204,327.581 c 16.4257,-4.9632 30.9685,-14.3042 42.2606,-26.6672 -2.5061,8.458 -3.859,17.4073 -3.859,26.6672 0,9.2599 1.3529,18.2101 3.859,26.6681 z m 0,-90.0012 c -11.2921,-12.363 -25.8349,-21.7048 -42.2606,-26.6669 16.426,-4.9632 30.9697,-14.305 42.2606,-26.6692 -2.5061,8.4592 -3.859,17.4081 -3.859,26.6692 0,9.2599 1.3529,18.2089 3.859,26.6669 z M 213.2481,142.9651 c 13.7458,-19.3992 35.307,-32.8703 60.067,-35.7891 -13.7472,19.398 -35.308,32.87 -60.067,35.7891 z m 134.2188,-19.1602 c -10.387,-9.6781 -22.9578,-17.0368 -36.887,-21.2449 13.9292,-4.208 26.5,-11.567 36.887,-21.2451 -1.584,6.829 -2.4219,13.9411 -2.4219,21.2451 0,7.3041 0.8379,14.4159 2.4219,21.2449 z m 80.0271,47.006 c -10.7671,-10.6599 -24.0899,-18.739 -38.9559,-23.2299 14.866,-4.4921 28.1888,-12.5711 38.9559,-23.2302 -1.896,7.433 -2.9069,15.2152 -2.9069,23.2302 0,8.015 1.0109,15.7969 2.9069,23.2299 z m 12.4991,101.619 c -4.746,-10.6609 -7.406,-22.447 -7.406,-34.8489 0,-12.4021 2.66,-24.1892 7.406,-34.85 4.7458,10.6608 7.405,22.4479 7.405,34.85 0,12.4019 -2.6592,24.188 -7.405,34.8489 z m 0,90 c -4.746,-10.6609 -7.406,-22.447 -7.406,-34.8489 0,-12.4021 2.66,-24.1892 7.406,-34.85 4.7458,10.6608 7.405,22.4479 7.405,34.85 0,12.4019 -2.6592,24.188 -7.405,34.8489 z m -8.1961,14.4581 c -14.2639,20.3028 -37.0641,34.1759 -63.1499,36.3651 14.2628,-20.3032 37.063,-34.1762 63.1499,-36.3651 z m -78.008,45.0479 c -14.201,20.1722 -36.8331,33.9851 -62.7389,36.2681 14.201,-20.1722 36.8328,-33.984 62.7389,-36.2681 z m -83.0801,-29.096 c -2.154,7.8872 -3.3108,16.181 -3.3108,24.7411 0,8.5601 1.1568,16.854 3.3108,24.7411 C 259.691,430.9149 245.823,422.282 230.262,417.581 c 15.561,-4.701 29.429,-13.3342 40.4469,-24.7411 z m -74.834,20.4132 c -26.087,-2.1892 -48.8869,-16.0611 -63.1508,-36.3651 26.0869,2.1889 48.8868,16.0611 63.1508,36.3651 z m -72.523,-117.7492 c 4.0031,9.919 6.2291,20.7399 6.2291,32.0771 0,11.3369 -2.226,22.157 -6.2291,32.0769 -4.004,-9.9199 -6.23,-20.74 -6.23,-32.0769 0,-11.3372 2.226,-22.1581 6.23,-32.0771 z m 0,-90 c 4.0031,9.919 6.2291,20.7399 6.2291,32.0771 0,11.3369 -2.226,22.157 -6.2291,32.0769 -4.004,-9.9199 -6.23,-20.74 -6.23,-32.0769 0,-11.3372 2.226,-22.1581 6.23,-32.0771 z m 9.4031,-17.2741 c 14.2599,-20.2719 37.034,-34.1229 63.0881,-36.3189 -14.2602,20.272 -37.0332,34.1229 -63.0881,36.3189 z m 137.9539,-15.908 C 259.691,160.9149 245.823,152.282 230.262,147.581 c 15.561,-4.701 29.429,-13.3342 40.4469,-24.7411 -2.154,7.8872 -3.3108,16.181 -3.3108,24.7411 0,8.5601 1.1568,16.854 3.3108,24.7408 z m 20.3091,-65.4089 c 25.939,2.2771 48.5981,16.1102 62.803,36.3149 -25.939,-2.2767 -48.598,-16.1109 -62.803,-36.3149 z m 77.66,44.998 c 26.0541,2.196 48.827,16.0481 63.087,36.3181 -26.0541,-2.196 -48.827,-16.047 -63.087,-36.3181 z m 58.816,108.9 c -10.7671,-10.6599 -24.0899,-18.739 -38.9559,-23.2299 14.866,-4.4921 28.1888,-12.5711 38.9559,-23.2302 -1.896,7.433 -2.9069,15.2152 -2.9069,23.2302 0,8.015 1.0109,15.7969 2.9069,23.2299 z m 0,90 c -10.7671,-10.6599 -24.0899,-18.739 -38.9559,-23.2299 14.866,-4.4921 28.1888,-12.5711 38.9559,-23.2302 -1.896,7.433 -2.9069,15.2152 -2.9069,23.2302 0,8.015 1.0109,15.7969 2.9069,23.2299 z m -58.816,-18.9 c 26.0541,2.196 48.827,16.0481 63.087,36.3181 -26.0541,-2.196 -48.827,-16.047 -63.087,-36.3181 z m 6.3411,19.404 c 10.3858,9.6781 22.9578,17.0371 36.8858,21.2451 -13.928,4.2081 -26.5,11.5668 -36.8858,21.2449 1.584,-6.829 2.4208,-13.9408 2.4208,-21.2449 0,-7.304 -0.8368,-14.4161 -2.4208,-21.2451 z m -81.2081,41.525 c 11.018,11.4069 24.8871,20.0401 40.4479,24.7411 -15.5608,4.701 -29.4299,13.3339 -40.4479,24.7411 2.1541,-7.8871 3.3109,-16.181 3.3109,-24.7411 0,-8.5601 -1.1568,-16.8539 -3.3109,-24.7411 z m -11.5509,-8.907 c 4.4139,10.3411 6.8619,21.7131 6.8619,33.6481 0,11.935 -2.448,23.307 -6.8619,33.6478 -4.4132,-10.3408 -6.8621,-21.7128 -6.8621,-33.6478 0,-11.935 2.4489,-23.307 6.8621,-33.6481 z m -8.945,-6.7569 c -13.7472,19.398 -35.308,32.87 -60.067,35.7891 13.7458,-19.3992 35.307,-32.8703 60.067,-35.7891 z m -80.6842,-28.914 c -2.0769,7.7539 -3.191,15.8978 -3.191,24.298 0,8.3999 1.1141,16.5439 3.191,24.298 -10.9468,-11.1872 -24.6569,-19.6579 -40.015,-24.298 15.3581,-4.64 29.0682,-13.1111 40.015,-24.298 z m 3.2122,-16.3511 c -14.2602,20.272 -37.0332,34.1229 -63.0881,36.3189 14.2599,-20.2719 37.034,-34.1229 63.0881,-36.3189 z m -62.1212,-30.9971 c 11.2921,12.363 25.8352,21.704 42.26,26.6672 -16.4248,4.9629 -30.9679,14.3039 -42.26,26.6669 2.5072,-8.458 3.859,-17.407 3.859,-26.6669 0,-9.2599 -1.3518,-18.2092 -3.859,-26.6672 z m 0,-90 c 11.2921,12.363 25.8352,21.704 42.26,26.6672 -16.4248,4.9629 -30.9679,14.3039 -42.26,26.6669 2.5072,-8.458 3.859,-17.407 3.859,-26.6669 0,-9.2599 -1.3518,-18.2092 -3.859,-26.6672 z m 62.153,22.3393 c -26.087,-2.1892 -48.8869,-16.0611 -63.1508,-36.3651 26.0869,2.1889 48.8868,16.0611 63.1508,36.3651 z m -3.244,-16.3951 c -10.9468,-11.1872 -24.6569,-19.6579 -40.015,-24.298 15.3581,-4.64 29.0682,-13.1111 40.015,-24.298 -2.0769,7.7539 -3.191,15.8978 -3.191,24.298 0,8.3999 1.1141,16.5439 3.191,24.298 z m 20.649,-64.6571 c 24.7272,2.9251 46.26,16.3741 60.0021,35.7381 -24.7261,-2.9239 -46.26,-16.3732 -60.0021,-35.7381 z m 68.9802,-38.268 c 4.4139,10.3411 6.8619,21.7131 6.8619,33.6481 0,11.935 -2.448,23.307 -6.8619,33.6478 -4.4132,-10.3408 -6.8621,-21.7128 -6.8621,-33.6478 0,-11.935 2.4489,-23.307 6.8621,-33.6481 z m 11.5509,58.3889 c 2.1541,-7.8868 3.3109,-16.1807 3.3109,-24.7408 0,-8.5601 -1.1568,-16.8539 -3.3109,-24.7411 11.018,11.4069 24.8871,20.0401 40.4479,24.7411 -15.5608,4.701 -29.4299,13.3339 -40.4479,24.7408 z m 81.2081,41.4831 c 1.584,-6.829 2.4208,-13.9408 2.4208,-21.2449 0,-7.304 -0.8368,-14.4161 -2.4208,-21.2451 10.3858,9.6781 22.9578,17.0371 36.8858,21.2451 -13.928,4.2081 -26.5,11.5668 -36.8858,21.2449 z M 431.797,196.888 c -14.2639,20.3028 -37.0641,34.1759 -63.1499,36.3651 14.2628,-20.3032 37.063,-34.1762 63.1499,-36.3651 z m -63.119,45.0229 c 26.0541,2.196 48.827,16.0481 63.087,36.3181 -26.0541,-2.196 -48.827,-16.047 -63.087,-36.3181 z m 63.119,44.9771 c -14.2639,20.3028 -37.0641,34.1759 -63.1499,36.3651 14.2628,-20.3032 37.063,-34.1762 63.1499,-36.3651 z m -77.976,126.3398 c -25.939,-2.2767 -48.598,-16.1109 -62.803,-36.3149 25.939,2.2771 48.5981,16.1102 62.803,36.3149 z M 216.286,348.262 c 10.9471,11.1869 24.6569,19.658 40.015,24.298 -15.3581,4.6401 -29.0679,13.1108 -40.015,24.298 2.077,-7.7541 3.191,-15.8981 3.191,-24.298 0,-8.4002 -1.114,-16.5441 -3.191,-24.298 z m -11.8281,-9.695 c 4.5082,10.4329 7.0191,21.924 7.0191,33.993 0,12.0688 -2.5109,23.5599 -7.0191,33.9928 -4.5068,-10.4329 -7.018,-21.924 -7.018,-33.9928 0,-12.069 2.5112,-23.5601 7.018,-33.993 z m -8.583,-15.3139 c -26.087,-2.1892 -48.8869,-16.0611 -63.1508,-36.3651 26.0869,2.1889 48.8868,16.0611 63.1508,36.3651 z M 132.755,278.2298 c 14.2599,-20.2719 37.034,-34.1229 63.0881,-36.3189 -14.2602,20.272 -37.0332,34.1229 -63.0881,36.3189 z M 204.4579,158.567 c 4.5082,10.4329 7.0191,21.924 7.0191,33.993 0,12.0688 -2.5109,23.5599 -7.0191,33.9928 -4.5068,-10.4329 -7.018,-21.924 -7.018,-33.9928 0,-12.069 2.5112,-23.5601 7.018,-33.993 z m 11.8281,58.291 c 2.077,-7.7541 3.191,-15.8981 3.191,-24.298 0,-8.4002 -1.114,-16.5441 -3.191,-24.298 10.9471,11.1869 24.6569,19.658 40.015,24.298 -15.3581,4.6401 -29.0679,13.1108 -40.015,24.298 z m 74.7641,-28.654 c 14.201,-20.1722 36.8328,-33.984 62.7389,-36.2681 -14.201,20.1722 -36.8331,33.9851 -62.7389,36.2681 z m 83.969,73.1109 c 10.3858,9.6781 22.9578,17.0371 36.8858,21.2451 -13.928,4.2081 -26.5,11.5668 -36.8858,21.2449 1.584,-6.829 2.4208,-13.9408 2.4208,-21.2449 0,-7.304 -0.8368,-14.4161 -2.4208,-21.2451 z M 353.0449,372.56 c 0,-13.083 2.9492,-25.486 8.1981,-36.5989 5.2481,11.1129 8.1969,23.5159 8.1969,36.5989 0,13.0831 -2.9488,25.486 -8.1969,36.5979 -5.2489,-11.1119 -8.1981,-23.5148 -8.1981,-36.5979 z m -5.578,-21.2451 c -1.584,6.829 -2.4219,13.9411 -2.4219,21.2451 0,7.3041 0.8379,14.4159 2.4219,21.2449 -10.387,-9.6781 -22.9578,-17.0368 -36.887,-21.2449 13.9292,-4.208 26.5,-11.567 36.887,-21.2451 z M 273.282,367.939 c -24.7261,-2.9239 -46.26,-16.3732 -60.0021,-35.7381 24.7272,2.9251 46.26,16.3741 60.0021,35.7381 z m -80.6511,-61.081 c -10.9468,-11.1872 -24.6569,-19.6579 -40.015,-24.298 15.3581,-4.64 29.0682,-13.1111 40.015,-24.298 -2.0769,7.7539 -3.191,15.8978 -3.191,24.298 0,8.3999 1.1141,16.5439 3.191,24.298 z m 20.6172,-73.8929 c 13.7458,-19.3992 35.307,-32.8703 60.067,-35.7891 -13.7472,19.398 -35.308,32.87 -60.067,35.7891 z m 134.2188,-19.1602 c -10.387,-9.6781 -22.9578,-17.0368 -36.887,-21.2449 13.9292,-4.208 26.5,-11.567 36.887,-21.2451 -1.584,6.829 -2.4219,13.9411 -2.4219,21.2451 0,7.3041 0.8379,14.4159 2.4219,21.2449 z m 13.7761,15.353 c -5.2489,-11.1119 -8.1981,-23.5148 -8.1981,-36.5979 0,-13.083 2.9492,-25.486 8.1981,-36.5989 5.2481,11.1129 8.1969,23.5159 8.1969,36.5989 0,13.0831 -2.9488,25.486 -8.1969,36.5979 z m -7.454,102.778 c -14.201,20.1722 -36.8331,33.9851 -62.7389,36.2681 14.201,-20.1722 36.8328,-33.984 62.7389,-36.2681 z m -83.0801,-29.096 c -2.154,7.8872 -3.3108,16.181 -3.3108,24.7411 0,8.5601 1.1568,16.854 3.3108,24.7408 C 259.691,340.9149 245.823,332.282 230.262,327.581 c 15.561,-4.701 29.429,-13.3342 40.4469,-24.7411 z m -66.251,-54.2729 c 4.5082,10.4329 7.0191,21.924 7.0191,33.993 0,12.0688 -2.5109,23.5599 -7.0191,33.9928 -4.5068,-10.4329 -7.018,-21.924 -7.018,-33.9928 0,-12.069 2.5112,-23.5601 7.018,-33.993 z m 66.251,13.7548 C 259.691,250.9149 245.823,242.282 230.262,237.581 c 15.561,-4.701 29.429,-13.3342 40.4469,-24.7411 -2.154,7.8872 -3.3108,16.181 -3.3108,24.7411 0,8.5601 1.1568,16.854 3.3108,24.7408 z m 20.3091,-65.4089 c 25.939,2.2771 48.5981,16.1102 62.803,36.3149 -25.939,-2.2767 -48.598,-16.1109 -62.803,-36.3149 z m 62.0269,85.6471 c 0,-13.083 2.9492,-25.486 8.1981,-36.5989 5.2481,11.1129 8.1969,23.5159 8.1969,36.5989 0,13.0831 -2.9488,25.486 -8.1969,36.5979 -5.2489,-11.1119 -8.1981,-23.5148 -8.1981,-36.5979 z m -59.2339,20.2799 c 11.018,11.4069 24.8871,20.0401 40.4479,24.7411 -15.5608,4.701 -29.4299,13.3339 -40.4479,24.7408 2.1541,-7.8868 3.3109,-16.1807 3.3109,-24.7408 0,-8.5601 -1.1568,-16.8539 -3.3109,-24.7411 z m -11.5509,-8.907 c 4.4139,10.3411 6.8619,21.7131 6.8619,33.6481 0,11.935 -2.448,23.307 -6.8619,33.6478 -4.4132,-10.3408 -6.8621,-21.7128 -6.8621,-33.6478 0,-11.935 2.4489,-23.307 6.8621,-33.6481 z m -8.945,-6.7569 c -13.7472,19.398 -35.308,32.87 -60.067,35.7891 13.7458,-19.3992 35.307,-32.8703 60.067,-35.7891 z m -60.0352,-44.9751 c 24.7272,2.9251 46.26,16.3741 60.0021,35.7381 -24.7261,-2.9239 -46.26,-16.3732 -60.0021,-35.7381 z m 3.0061,16.0611 c 10.9471,11.1869 24.6569,19.658 40.015,24.298 -15.3581,4.6401 -29.0679,13.1108 -40.015,24.298 2.077,-7.7541 3.191,-15.8981 3.191,-24.298 0,-8.4002 -1.114,-16.5441 -3.191,-24.298 z m 65.9741,-54.3291 c 4.4139,10.3411 6.8619,21.7131 6.8619,33.6481 0,11.935 -2.448,23.307 -6.8619,33.6478 -4.4132,-10.3408 -6.8621,-21.7128 -6.8621,-33.6478 0,-11.935 2.4489,-23.307 6.8621,-33.6481 z m 11.5509,58.3889 c 2.1541,-7.8868 3.3109,-16.1807 3.3109,-24.7408 0,-8.5601 -1.1568,-16.8539 -3.3109,-24.7411 11.018,11.4069 24.8871,20.0401 40.4479,24.7411 -15.5608,4.701 -29.4299,13.3339 -40.4479,24.7408 z m 60.01,60.906 c -25.939,-2.2767 -48.598,-16.1109 -62.803,-36.3149 25.939,2.2771 48.5981,16.1102 62.803,36.3149 z M 291.0501,278.204 c 14.201,-20.1722 36.8328,-33.984 62.7389,-36.2681 -14.201,20.1722 -36.8331,33.9851 -62.7389,36.2681 z m 56.4168,25.6009 c -10.387,-9.6781 -22.9578,-17.0368 -36.887,-21.2449 13.9292,-4.208 26.5,-11.567 36.887,-21.2451 -1.584,6.829 -2.4219,13.9411 -2.4219,21.2451 0,7.3041 0.8379,14.4159 2.4219,21.2449 z M 133.721,120.9118 c 11.2921,12.3642 25.835,21.706 42.2609,26.6692 -16.4259,4.9629 -30.9688,14.305 -42.2609,26.6681 2.507,-8.458 3.8591,-17.4082 3.8591,-26.6681 0,-9.2611 -1.3521,-18.21 -3.8591,-26.6692 z m 293.773,319.8991 c -10.7671,-10.6599 -24.0899,-18.739 -38.9559,-23.2299 14.866,-4.4921 28.1888,-12.5711 38.9559,-23.2302 -1.896,7.433 -2.9069,15.2152 -2.9069,23.2302 0,8.015 1.0109,15.7969 2.9069,23.2299 z M 447.3981,147.581 c 0,12.4019 -2.6592,24.188 -7.405,34.8489 -4.746,-10.6609 -7.406,-22.447 -7.406,-34.8489 0,-12.4021 2.66,-24.1892 7.406,-34.85 4.7458,10.6608 7.405,22.4479 7.405,34.85 z M 282.2601,23.9329 c 4.4139,10.34 6.8619,21.7131 6.8619,33.6481 0,11.935 -2.448,23.307 -6.8619,33.6478 C 277.8469,80.888 275.398,69.516 275.398,57.581 c 0,-11.935 2.4489,-23.3081 6.8621,-33.6481 z M 204.4579,68.567 c 4.5082,10.4329 7.0191,21.924 7.0191,33.993 0,12.0688 -2.5109,23.5599 -7.0191,33.9928 -4.5068,-10.4329 -7.018,-21.924 -7.018,-33.9928 0,-12.069 2.5112,-23.5601 7.018,-33.993 z m -7.018,393.993 c 0,-12.069 2.5112,-23.5601 7.018,-33.993 4.5082,10.4329 7.0191,21.924 7.0191,33.993 0,12.0688 -2.5109,23.5599 -7.0191,33.9931 -4.5068,-10.4332 -7.018,-21.9243 -7.018,-33.9931 z m 84.8202,78.6688 c -4.4132,-10.3411 -6.8621,-21.7128 -6.8621,-33.6481 0,-11.9347 2.4489,-23.307 6.8621,-33.6481 4.4139,10.3411 6.8619,21.7134 6.8619,33.6481 0,11.9353 -2.448,23.307 -6.8619,33.6481 z m 157.733,-88.7989 c -4.746,-10.6609 -7.406,-22.447 -7.406,-34.8489 0,-12.4021 2.66,-24.1892 7.406,-34.85 4.7458,10.6608 7.405,22.4479 7.405,34.85 0,12.4019 -2.6592,24.188 -7.405,34.8489 z M 55.8859,345.6558 c 11.3204,12.4742 25.9262,21.911 42.4508,26.9042 -16.5178,4.9899 -31.1182,14.423 -42.4364,26.8881 2.5458,-8.5181 3.9204,-17.5371 3.9204,-26.8722 0,-9.3521 -1.3797,-18.3869 -3.9348,-26.9201 z"
     style="fill:none;fill-rule:evenodd;stroke:#ff0000;stroke-opacity:1"
     id="path1" />
</svg>
