<?xml version="1.0" encoding="UTF-8" standalone="no"?>
<!-- Created with Inkscape (http://www.inkscape.org/) -->

<svg
   width="210mm"
   height="297mm"
   viewBox="0 0 210 297"
   version="1.1"
   id="svg1"
   sodipodi:docname="heart.svg"
   inkscape:version="1.3 (0e150ed, 2023-07-21)"
   xmlns:inkscape="http://www.inkscape.org/namespaces/inkscape"
   xmlns:sodipodi="http://sodipodi.sourceforge.net/DTD/sodipodi-0.dtd"
   xmlns="http://www.w3.org/2000/svg"
   xmlns:svg="http://www.w3.org/2000/svg">
  <sodipodi:namedview
     id="namedview1"
     pagecolor="#ffffff"
     bordercolor="#000000"
     borderopacity="0.25"
     inkscape:showpageshadow="2"
     inkscape:pageopacity="0.0"
     inkscape:pagecheckerboard="0"
     inkscape:deskcolor="#d1d1d1"
     inkscape:document-units="mm"
     showgrid="false"
     inkscape:zoom="0.96381908"
     inkscape:cx="148.36809"
     inkscape:cy="231.37122"
     inkscape:window-width="1640"
     inkscape:window-height="925"
     inkscape:window-x="0"
     inkscape:window-y="25"
     inkscape:window-maximized="0"
     inkscape:current-layer="layer1"
     showguides="false">
    <inkscape:grid
       id="grid1"
       units="mm"
       originx="0"
       originy="0"
       spacingx="0.99999998"
       spacingy="1"
       empcolor="#0099e5"
       empopacity="0.30196078"
       color="#0099e5"
       opacity="0.14901961"
       empspacing="5"
       dotted="false"
       gridanglex="30"
       gridanglez="30"
       visible="false" />
  </sodipodi:namedview>
  <defs
     id="defs1">
    <rect
       x="119.58927"
       y="230.63645"
       width="457.612"
       height="252.60182"
       id="rect1" />
  </defs>
  <g
     inkscape:label="Layer 1"
     inkscape:groupmode="layer"
     id="layer1">
    <path
       id="path2"
       style="vector-effect:non-scaling-stroke;fill:none;fill-opacity:1;stroke:#ff0000;stroke-width:0.26458333;stroke-dasharray:none;stroke-opacity:1;-inkscape-stroke:hairline"
       d="m 104.42,34.870035 c 16.18959,-2.850369 29.37183,18.129076 30.19275,34.547161 1.30128,26.02506 -50.194228,59.892504 -50.194228,59.892504 0,0 -51.495509,-34.190315 -50.194229,-60.215375 C 35.045214,52.67624 48.22741,31.696795 64.417,34.547164 c 10.80924,1.903095 20.001521,16.139758 20.001521,16.139758 0,0 9.192241,-13.913792 20.001479,-15.816887 z"
       sodipodi:nodetypes="sscsscs"
       inkscape:tile-cx="84.41852"
       inkscape:tile-cy="81.797365"
       inkscape:tile-w="100.43696"
       inkscape:tile-h="95.024664"
       inkscape:tile-x0="34.200039"
       inkscape:tile-y0="34.285033" />
    <path
       id="use1"
       style="vector-effect:non-scaling-stroke;fill:none;fill-opacity:1;stroke:#ff0000;stroke-width:0.26458333;stroke-dasharray:none;stroke-opacity:1;-inkscape-stroke:hairline"
       d="m 104.42,34.870035 c 16.18959,-2.850369 29.37183,18.129076 30.19275,34.547161 1.30128,26.02506 -50.194228,59.892504 -50.194228,59.892504 0,0 -51.495509,-34.190315 -50.194229,-60.215375 C 35.045214,52.67624 48.22741,31.696795 64.417,34.547164 c 10.80924,1.903095 20.001521,16.139758 20.001521,16.139758 0,0 9.192241,-13.913792 20.001479,-15.816887 z"
       sodipodi:nodetypes="sscsscs"
       inkscape:tile-x0="34.200039"
       inkscape:tile-y0="34.285033" />
    <path
       id="use2"
       style="vector-effect:non-scaling-stroke;fill:none;fill-opacity:1;stroke:#ff0000;stroke-width:0.26458333;stroke-dasharray:none;stroke-opacity:1;-inkscape-stroke:hairline"
       d="m 100.4197,44.255501 c 12.95168,-2.280295 23.49747,14.503261 24.1542,27.637729 1.04103,20.820048 -40.155378,47.914 -40.155378,47.914 0,0 -41.196408,-27.352249 -40.155384,-48.172297 0.656737,-13.134468 11.202494,-29.918024 24.154166,-27.637729 8.647392,1.522476 16.001217,12.911807 16.001217,12.911807 0,0 7.353793,-11.131034 16.001179,-12.65351 z"
       sodipodi:nodetypes="sscsscs"
       inkscape:tile-x0="34.200039"
       inkscape:tile-y0="34.285033" />
    <path
       id="use3"
       style="vector-effect:non-scaling-stroke;fill:none;fill-opacity:1;stroke:#ff0000;stroke-width:0.26458333;stroke-dasharray:none;stroke-opacity:1;-inkscape-stroke:hairline"
       d="m 96.419408,53.640967 c 9.713752,-1.710221 17.623102,10.877446 18.115652,20.728297 0.78077,15.615036 -30.116539,35.935506 -30.116539,35.935506 0,0 -30.897305,-20.514193 -30.116537,-36.129229 0.492552,-9.850851 8.40187,-22.438518 18.115624,-20.728297 6.485544,1.141857 12.000913,9.683855 12.000913,9.683855 0,0 5.515344,-8.348275 12.000887,-9.490132 z"
       sodipodi:nodetypes="sscsscs"
       inkscape:tile-x0="34.200039"
       inkscape:tile-y0="34.285033" />
    <path
       id="use4"
       style="vector-effect:non-scaling-stroke;fill:none;fill-opacity:1;stroke:#ff0000;stroke-width:0.26458333;stroke-dasharray:none;stroke-opacity:1;-inkscape-stroke:hairline"
       d="m 92.419112,63.026433 c 6.475836,-1.140148 11.748728,7.25163 12.077098,13.818864 0.52051,10.410024 -20.077689,23.957003 -20.077689,23.957003 0,0 -20.598204,-13.676127 -20.077692,-24.086151 0.328369,-6.567234 5.601247,-14.959012 12.077083,-13.818864 4.323696,0.761238 8.000608,6.455903 8.000608,6.455903 0,0 3.676897,-5.565517 8.000592,-6.326755 z"
       sodipodi:nodetypes="sscsscs"
       inkscape:tile-x0="34.200039"
       inkscape:tile-y0="34.285033" />
    <path
       id="use5"
       style="vector-effect:non-scaling-stroke;fill:none;fill-opacity:1;stroke:#ff0000;stroke-width:0.26458333;stroke-dasharray:none;stroke-opacity:1;-inkscape-stroke:hairline"
       d="m 88.418816,72.411899 c 3.237918,-0.570074 5.874366,3.625815 6.03855,6.909432 0.260256,5.205012 -10.038846,11.978501 -10.038846,11.978501 0,0 -10.299101,-6.838063 -10.038845,-12.043075 0.164184,-3.283617 2.800623,-7.479506 6.038541,-6.909432 2.161848,0.380619 4.000304,3.227951 4.000304,3.227951 0,0 1.838448,-2.782758 4.000296,-3.163377 z"
       sodipodi:nodetypes="sscsscs"
       inkscape:tile-x0="34.200039"
       inkscape:tile-y0="34.285033" />
  </g>
</svg>
