<svg xmlns="http://www.w3.org/2000/svg" version="1.1" xmlns:xlink="http://www.w3.org/1999/xlink" xmlns:svgjs="http://svgjs.com/svgjs" width="1500" height="800"><circle r="250" cx="450" cy="250"></circle><polyline points="240,113.92304845413264 240,79.2820323027551 210,61.96152422706632 240,79.2820323027551 270,61.96152422706632" fill="none" stroke="red" stroke-width="6" stroke-linecap="round" stroke-linejoin="round"></polyline><polyline points="210,165.88457268119896 240,148.5640646055102 270,165.88457268119896 240,148.5640646055102 240,113.92304845413264" fill="none" stroke="red" stroke-width="6" stroke-linecap="round" stroke-linejoin="round"></polyline><polyline points="360,217.84609690826528 240,217.84609690826528 300,113.92304845413264 360,217.84609690826528" fill="none" stroke="red" stroke-width="6" stroke-linecap="round" stroke-linejoin="round"></polyline><polyline points="360,217.84609690826528 300,183.20508075688775 240,217.84609690826528 300,183.20508075688775 300,113.92304845413264" fill="none" stroke="red" stroke-width="6" stroke-linecap="round" stroke-linejoin="round"></polyline><polyline points="300,217.84609690826528 300,183.20508075688775 270,165.88457268119896 300,183.20508075688775 330,165.88457268119896" fill="none" stroke="red" stroke-width="6" stroke-linecap="round" stroke-linejoin="round"></polyline><polyline points="240,321.7691453623979 240,287.1281292110204 210,269.8076211353316 240,287.1281292110204 270,269.8076211353316" fill="none" stroke="red" stroke-width="6" stroke-linecap="round" stroke-linejoin="round"></polyline><polyline points="210,373.73066958946424 240,356.41016151377545 270,373.73066958946424 240,356.41016151377545 240,321.7691453623979" fill="none" stroke="red" stroke-width="6" stroke-linecap="round" stroke-linejoin="round"></polyline><polyline points="360,425.69219381653056 240,425.69219381653056 300,321.7691453623979 360,425.69219381653056" fill="none" stroke="red" stroke-width="6" stroke-linecap="round" stroke-linejoin="round"></polyline><polyline points="360,425.69219381653056 300,391.05117766515303 240,425.69219381653056 300,391.05117766515303 300,321.7691453623979" fill="none" stroke="red" stroke-width="6" stroke-linecap="round" stroke-linejoin="round"></polyline><polyline points="300,425.69219381653056 300,391.05117766515303 270,373.73066958946424 300,391.05117766515303 330,373.73066958946424" fill="none" stroke="red" stroke-width="6" stroke-linecap="round" stroke-linejoin="round"></polyline><polyline points="240,10 300,113.92304845413264 360,10 240,10" fill="none" stroke="red" stroke-width="6" stroke-linecap="round" stroke-linejoin="round"></polyline><polyline points="270,61.96152422706632 300,44.64101615137755 330,61.96152422706632 300,44.64101615137755 300,10" fill="none" stroke="red" stroke-width="6" stroke-linecap="round" stroke-linejoin="round"></polyline><polyline points="420,113.92304845413264 300,113.92304845413264 360,10 420,113.92304845413264" fill="none" stroke="red" stroke-width="6" stroke-linecap="round" stroke-linejoin="round"></polyline><polyline points="420,113.92304845413264 360,79.2820323027551 300,113.92304845413264 360,79.2820323027551 360,10" fill="none" stroke="red" stroke-width="6" stroke-linecap="round" stroke-linejoin="round"></polyline><polyline points="360,113.92304845413264 360,79.2820323027551 330,61.96152422706632 360,79.2820323027551 390,61.96152422706632" fill="none" stroke="red" stroke-width="6" stroke-linecap="round" stroke-linejoin="round"></polyline><polyline points="300,113.92304845413264 360,217.84609690826528 420,113.92304845413264 300,113.92304845413264" fill="none" stroke="red" stroke-width="6" stroke-linecap="round" stroke-linejoin="round"></polyline><polyline points="330,165.88457268119896 360,148.5640646055102 390,165.88457268119896 360,148.5640646055102 360,113.92304845413264" fill="none" stroke="red" stroke-width="6" stroke-linecap="round" stroke-linejoin="round"></polyline><polyline points="480,217.84609690826528 360,217.84609690826528 420,113.92304845413264 480,217.84609690826528" fill="none" stroke="red" stroke-width="6" stroke-linecap="round" stroke-linejoin="round"></polyline><polyline points="480,217.84609690826528 420,183.20508075688775 360,217.84609690826528 420,183.20508075688775 420,113.92304845413264" fill="none" stroke="red" stroke-width="6" stroke-linecap="round" stroke-linejoin="round"></polyline><polyline points="420,217.84609690826528 420,183.20508075688775 390,165.88457268119896 420,183.20508075688775 450,165.88457268119896" fill="none" stroke="red" stroke-width="6" stroke-linecap="round" stroke-linejoin="round"></polyline><polyline points="240,217.84609690826528 300,321.7691453623979 360,217.84609690826528 240,217.84609690826528" fill="none" stroke="red" stroke-width="6" stroke-linecap="round" stroke-linejoin="round"></polyline><polyline points="270,269.8076211353316 300,252.48711305964284 330,269.8076211353316 300,252.48711305964284 300,217.84609690826528" fill="none" stroke="red" stroke-width="6" stroke-linecap="round" stroke-linejoin="round"></polyline><polyline points="420,321.7691453623979 300,321.7691453623979 360,217.84609690826528 420,321.7691453623979" fill="none" stroke="red" stroke-width="6" stroke-linecap="round" stroke-linejoin="round"></polyline><polyline points="420,321.7691453623979 360,287.1281292110204 300,321.7691453623979 360,287.1281292110204 360,217.84609690826528" fill="none" stroke="red" stroke-width="6" stroke-linecap="round" stroke-linejoin="round"></polyline><polyline points="360,321.7691453623979 360,287.1281292110204 330,269.8076211353316 360,287.1281292110204 390,269.8076211353316" fill="none" stroke="red" stroke-width="6" stroke-linecap="round" stroke-linejoin="round"></polyline><polyline points="300,321.7691453623979 360,425.69219381653056 420,321.7691453623979 300,321.7691453623979" fill="none" stroke="red" stroke-width="6" stroke-linecap="round" stroke-linejoin="round"></polyline><polyline points="330,373.73066958946424 360,356.41016151377545 390,373.73066958946424 360,356.41016151377545 360,321.7691453623979" fill="none" stroke="red" stroke-width="6" stroke-linecap="round" stroke-linejoin="round"></polyline><polyline points="480,425.69219381653056 360,425.69219381653056 420,321.7691453623979 480,425.69219381653056" fill="none" stroke="red" stroke-width="6" stroke-linecap="round" stroke-linejoin="round"></polyline><polyline points="480,425.69219381653056 420,391.05117766515303 360,425.69219381653056 420,391.05117766515303 420,321.7691453623979" fill="none" stroke="red" stroke-width="6" stroke-linecap="round" stroke-linejoin="round"></polyline><polyline points="420,425.69219381653056 420,391.05117766515303 390,373.73066958946424 420,391.05117766515303 450,373.73066958946424" fill="none" stroke="red" stroke-width="6" stroke-linecap="round" stroke-linejoin="round"></polyline><polyline points="270,477.6537180435969 300,460.3332099679081 330,477.6537180435969 300,460.3332099679081 300,425.69219381653056" fill="none" stroke="red" stroke-width="6" stroke-linecap="round" stroke-linejoin="round"></polyline><polyline points="360,10 420,113.92304845413264 480,10 360,10" fill="none" stroke="red" stroke-width="6" stroke-linecap="round" stroke-linejoin="round"></polyline><polyline points="390,61.96152422706632 420,44.64101615137755 450,61.96152422706632 420,44.64101615137755 420,10" fill="none" stroke="red" stroke-width="6" stroke-linecap="round" stroke-linejoin="round"></polyline><polyline points="540,113.92304845413264 420,113.92304845413264 480,10 540,113.92304845413264" fill="none" stroke="red" stroke-width="6" stroke-linecap="round" stroke-linejoin="round"></polyline><polyline points="540,113.92304845413264 480,79.2820323027551 420,113.92304845413264 480,79.2820323027551 480,10" fill="none" stroke="red" stroke-width="6" stroke-linecap="round" stroke-linejoin="round"></polyline><polyline points="480,113.92304845413264 480,79.2820323027551 450,61.96152422706632 480,79.2820323027551 510,61.96152422706632" fill="none" stroke="red" stroke-width="6" stroke-linecap="round" stroke-linejoin="round"></polyline><polyline points="420,113.92304845413264 480,217.84609690826528 540,113.92304845413264 420,113.92304845413264" fill="none" stroke="red" stroke-width="6" stroke-linecap="round" stroke-linejoin="round"></polyline><polyline points="450,165.88457268119896 480,148.5640646055102 510,165.88457268119896 480,148.5640646055102 480,113.92304845413264" fill="none" stroke="red" stroke-width="6" stroke-linecap="round" stroke-linejoin="round"></polyline><polyline points="600,217.84609690826528 480,217.84609690826528 540,113.92304845413264 600,217.84609690826528" fill="none" stroke="red" stroke-width="6" stroke-linecap="round" stroke-linejoin="round"></polyline><polyline points="600,217.84609690826528 540,183.20508075688775 480,217.84609690826528 540,183.20508075688775 540,113.92304845413264" fill="none" stroke="red" stroke-width="6" stroke-linecap="round" stroke-linejoin="round"></polyline><polyline points="540,217.84609690826528 540,183.20508075688775 510,165.88457268119896 540,183.20508075688775 570,165.88457268119896" fill="none" stroke="red" stroke-width="6" stroke-linecap="round" stroke-linejoin="round"></polyline><polyline points="360,217.84609690826528 420,321.7691453623979 480,217.84609690826528 360,217.84609690826528" fill="none" stroke="red" stroke-width="6" stroke-linecap="round" stroke-linejoin="round"></polyline><polyline points="390,269.8076211353316 420,252.48711305964284 450,269.8076211353316 420,252.48711305964284 420,217.84609690826528" fill="none" stroke="red" stroke-width="6" stroke-linecap="round" stroke-linejoin="round"></polyline><polyline points="540,321.7691453623979 420,321.7691453623979 480,217.84609690826528 540,321.7691453623979" fill="none" stroke="red" stroke-width="6" stroke-linecap="round" stroke-linejoin="round"></polyline><polyline points="540,321.7691453623979 480,287.1281292110204 420,321.7691453623979 480,287.1281292110204 480,217.84609690826528" fill="none" stroke="red" stroke-width="6" stroke-linecap="round" stroke-linejoin="round"></polyline><polyline points="480,321.7691453623979 480,287.1281292110204 450,269.8076211353316 480,287.1281292110204 510,269.8076211353316" fill="none" stroke="red" stroke-width="6" stroke-linecap="round" stroke-linejoin="round"></polyline><polyline points="420,321.7691453623979 480,425.69219381653056 540,321.7691453623979 420,321.7691453623979" fill="none" stroke="red" stroke-width="6" stroke-linecap="round" stroke-linejoin="round"></polyline><polyline points="450,373.73066958946424 480,356.41016151377545 510,373.73066958946424 480,356.41016151377545 480,321.7691453623979" fill="none" stroke="red" stroke-width="6" stroke-linecap="round" stroke-linejoin="round"></polyline><polyline points="600,425.69219381653056 480,425.69219381653056 540,321.7691453623979 600,425.69219381653056" fill="none" stroke="red" stroke-width="6" stroke-linecap="round" stroke-linejoin="round"></polyline><polyline points="600,425.69219381653056 540,391.05117766515303 480,425.69219381653056 540,391.05117766515303 540,321.7691453623979" fill="none" stroke="red" stroke-width="6" stroke-linecap="round" stroke-linejoin="round"></polyline><polyline points="540,425.69219381653056 540,391.05117766515303 510,373.73066958946424 540,391.05117766515303 570,373.73066958946424" fill="none" stroke="red" stroke-width="6" stroke-linecap="round" stroke-linejoin="round"></polyline><polyline points="390,477.6537180435969 420,460.3332099679081 450,477.6537180435969 420,460.3332099679081 420,425.69219381653056" fill="none" stroke="red" stroke-width="6" stroke-linecap="round" stroke-linejoin="round"></polyline><polyline points="480,10 540,113.92304845413264 600,10 480,10" fill="none" stroke="red" stroke-width="6" stroke-linecap="round" stroke-linejoin="round"></polyline><polyline points="510,61.96152422706632 540,44.64101615137755 570,61.96152422706632 540,44.64101615137755 540,10" fill="none" stroke="red" stroke-width="6" stroke-linecap="round" stroke-linejoin="round"></polyline><polyline points="660,113.92304845413264 540,113.92304845413264 600,10 660,113.92304845413264" fill="none" stroke="red" stroke-width="6" stroke-linecap="round" stroke-linejoin="round"></polyline><polyline points="660,113.92304845413264 600,79.2820323027551 540,113.92304845413264 600,79.2820323027551 600,10" fill="none" stroke="red" stroke-width="6" stroke-linecap="round" stroke-linejoin="round"></polyline><polyline points="600,113.92304845413264 600,79.2820323027551 570,61.96152422706632 600,79.2820323027551 630,61.96152422706632" fill="none" stroke="red" stroke-width="6" stroke-linecap="round" stroke-linejoin="round"></polyline><polyline points="540,113.92304845413264 600,217.84609690826528 660,113.92304845413264 540,113.92304845413264" fill="none" stroke="red" stroke-width="6" stroke-linecap="round" stroke-linejoin="round"></polyline><polyline points="570,165.88457268119896 600,148.5640646055102 630,165.88457268119896 600,148.5640646055102 600,113.92304845413264" fill="none" stroke="red" stroke-width="6" stroke-linecap="round" stroke-linejoin="round"></polyline><polyline points="660,217.84609690826528 660,183.20508075688775 630,165.88457268119896 660,183.20508075688775 690,165.88457268119896" fill="none" stroke="red" stroke-width="6" stroke-linecap="round" stroke-linejoin="round"></polyline><polyline points="480,217.84609690826528 540,321.7691453623979 600,217.84609690826528 480,217.84609690826528" fill="none" stroke="red" stroke-width="6" stroke-linecap="round" stroke-linejoin="round"></polyline><polyline points="510,269.8076211353316 540,252.48711305964284 570,269.8076211353316 540,252.48711305964284 540,217.84609690826528" fill="none" stroke="red" stroke-width="6" stroke-linecap="round" stroke-linejoin="round"></polyline><polyline points="660,321.7691453623979 540,321.7691453623979 600,217.84609690826528 660,321.7691453623979" fill="none" stroke="red" stroke-width="6" stroke-linecap="round" stroke-linejoin="round"></polyline><polyline points="660,321.7691453623979 600,287.1281292110204 540,321.7691453623979 600,287.1281292110204 600,217.84609690826528" fill="none" stroke="red" stroke-width="6" stroke-linecap="round" stroke-linejoin="round"></polyline><polyline points="600,321.7691453623979 600,287.1281292110204 570,269.8076211353316 600,287.1281292110204 630,269.8076211353316" fill="none" stroke="red" stroke-width="6" stroke-linecap="round" stroke-linejoin="round"></polyline><polyline points="540,321.7691453623979 600,425.69219381653056 660,321.7691453623979 540,321.7691453623979" fill="none" stroke="red" stroke-width="6" stroke-linecap="round" stroke-linejoin="round"></polyline><polyline points="570,373.73066958946424 600,356.41016151377545 630,373.73066958946424 600,356.41016151377545 600,321.7691453623979" fill="none" stroke="red" stroke-width="6" stroke-linecap="round" stroke-linejoin="round"></polyline><polyline points="660,425.69219381653056 660,391.05117766515303 630,373.73066958946424 660,391.05117766515303 690,373.73066958946424" fill="none" stroke="red" stroke-width="6" stroke-linecap="round" stroke-linejoin="round"></polyline><polyline points="510,477.6537180435969 540,460.3332099679081 570,477.6537180435969 540,460.3332099679081 540,425.69219381653056" fill="none" stroke="red" stroke-width="6" stroke-linecap="round" stroke-linejoin="round"></polyline><polyline points="630,61.96152422706632 660,44.64101615137755 690,61.96152422706632 660,44.64101615137755 660,10" fill="none" stroke="red" stroke-width="6" stroke-linecap="round" stroke-linejoin="round"></polyline><polyline points="630,269.8076211353316 660,252.48711305964284 690,269.8076211353316 660,252.48711305964284 660,217.84609690826528" fill="none" stroke="red" stroke-width="6" stroke-linecap="round" stroke-linejoin="round"></polyline><polyline points="630,477.6537180435969 660,460.3332099679081 690,477.6537180435969 660,460.3332099679081 660,425.69219381653056" fill="none" stroke="red" stroke-width="6" stroke-linecap="round" stroke-linejoin="round"></polyline></svg>